<?xml version="1.0" encoding="UTF-8" standalone="no"?>
<!-- Created with Inkscape (http://www.inkscape.org/) -->

<svg
   width="7.6442909mm"
   height="4.8749089mm"
   viewBox="0 0 7.6442909 4.874909"
   version="1.1"
   id="svg5"
   inkscape:version="1.2.2 (b0a8486541, 2022-12-01)"
   sodipodi:docname="cow.svg"
   xmlns:inkscape="http://www.inkscape.org/namespaces/inkscape"
   xmlns:sodipodi="http://sodipodi.sourceforge.net/DTD/sodipodi-0.dtd"
   xmlns="http://www.w3.org/2000/svg"
   xmlns:svg="http://www.w3.org/2000/svg">
  <sodipodi:namedview
     id="namedview7"
     pagecolor="#ffffff"
     bordercolor="#666666"
     borderopacity="1.0"
     inkscape:pageshadow="2"
     inkscape:pageopacity="0"
     inkscape:pagecheckerboard="false"
     inkscape:document-units="mm"
     showgrid="false"
     inkscape:zoom="9.0510662"
     inkscape:cx="7.8996218"
     inkscape:cy="12.04278"
     inkscape:window-width="1920"
     inkscape:window-height="1080"
     inkscape:window-x="0"
     inkscape:window-y="0"
     inkscape:window-maximized="1"
     inkscape:current-layer="layer1"
     inkscape:showpageshadow="2"
     inkscape:deskcolor="#ffffff" />
  <defs
     id="defs2" />
  <g
     inkscape:label="Layer 1"
     inkscape:groupmode="layer"
     id="layer1"
     transform="translate(-15.902049,-149.64679)">
    <path
       style="fill:none;stroke:#00ff00;stroke-width:0.5;stroke-linecap:round;stroke-linejoin:round;stroke-dasharray:none"
       d="m 6.91734,12.155418 c -0.0058,0.17159 -0.03591,0.24087 0.06186,0.45378 0.09777,0.21292 -0.80878,0.13588 -0.778841,0.0467 0.08856,-0.26374 0.0423,-0.68603 -0.05796,-0.882979"
       id="path64829-7-9-3"
       sodipodi:nodetypes="czsc"
       transform="translate(10.86599,139.12405)" />
    <path
       style="fill:none;stroke:#00ff00;stroke-width:0.5;stroke-linecap:round;stroke-linejoin:round;stroke-dasharray:none"
       d="m 7.386914,11.670649 c 0.06488,0.006 0.1855463,0.0624 0.1855463,0.0624"
       id="path64833-4-1-18"
       sodipodi:nodetypes="cc"
       transform="translate(10.86599,139.12405)" />
    <path
       style="fill:none;stroke:#00ff00;stroke-width:0.5;stroke-linecap:round;stroke-linejoin:round;stroke-dasharray:none"
       d="m 5.368437,11.723979 c 0,0 0.143061,-0.0662 0.219994,-0.0773"
       id="path64835-4-7-9"
       sodipodi:nodetypes="cc"
       transform="translate(10.86599,139.12405)" />
    <path
       style="fill:none;stroke:#00ff00;stroke-width:0.5;stroke-linecap:round;stroke-linejoin:round;stroke-dasharray:none"
       d="m 5.683803,11.074889 c -0.04239,0 -0.196178,-0.0907 -0.278144,-0.15936 -0.04758,-0.0399 -0.1196,-0.14279 -0.1196,-0.14279"
       id="path64837-3-7-6"
       sodipodi:nodetypes="cac"
       transform="translate(10.86599,139.12405)" />
    <path
       style="fill:none;stroke:#00ff00;stroke-width:0.5;stroke-linecap:round;stroke-linejoin:round;stroke-dasharray:none"
       d="m 7.298144,11.090599 c 0,0 0.103153,-0.0621 0.147732,-0.10197 0.06851,-0.0613 0.1807663,-0.2084 0.1807663,-0.2084"
       id="path64839-0-1-4"
       sodipodi:nodetypes="cac"
       transform="translate(10.86599,139.12405)" />
    <path
       style="fill:none;stroke:#00ff00;stroke-width:0.5;stroke-linecap:round;stroke-linejoin:round;stroke-dasharray:none"
       d="m 6.224936,11.111099 c 0,0 0.190231,-0.0926 0.292746,-0.0944 0.07968,-10e-4 0.144451,0.0531 0.22989,0.0656"
       id="path64841-7-1-3"
       sodipodi:nodetypes="cac"
       transform="translate(10.86599,139.12405)" />
    <path
       style="fill:none;stroke:#00ff00;stroke-width:0.5;stroke-linecap:round;stroke-linejoin:round;stroke-dasharray:none"
       d="m 8.2569303,11.825459 c 0.122568,-0.0124 0.623483,-0.0969 0.717703,-0.10091 0.508266,-0.0213 1.4475027,0.0854 1.4475027,0.0854"
       id="path64843-8-5-3"
       sodipodi:nodetypes="csc"
       transform="translate(10.86599,139.12405)" />
    <path
       style="fill:none;stroke:#00ff00;stroke-width:0.5;stroke-linecap:round;stroke-linejoin:round;stroke-dasharray:none"
       d="m 11.10473,11.880699 c 0,0 0.382707,-0.019 0.48875,0.109989 0.271203,0.32991 -0.05216,0.86251 0.03411,1.28078 0.03083,0.14945 0.130213,0.37882 0.198946,0.52693"
       id="path64845-6-9-3"
       sodipodi:nodetypes="casc"
       transform="translate(10.86599,139.12405)" />
    <path
       style="fill:none;stroke:#00ff00;stroke-width:0.5;stroke-linecap:round;stroke-linejoin:round;stroke-dasharray:none"
       d="m 12.248637,14.291308 c 0,0 0.119453,0.1185 0.181713,0.17504"
       id="path64847-8-7-86"
       sodipodi:nodetypes="cc"
       transform="translate(10.86599,139.12405)" />
    <path
       style="fill:none;stroke:#00ff00;stroke-width:0.5;stroke-linecap:round;stroke-linejoin:round;stroke-dasharray:none"
       d="m 7.8931693,13.348398 c 0,0 -0.198388,-0.23348 -0.241907,-0.37602 -0.03762,-0.1232 -0.0081,-0.38637 -0.0081,-0.38637"
       id="path64849-8-7-0"
       sodipodi:nodetypes="cac"
       transform="translate(10.86599,139.12405)" />
    <path
       style="fill:none;stroke:#00ff00;stroke-width:0.5;stroke-linecap:round;stroke-linejoin:round;stroke-dasharray:none"
       d="m 8.2816783,15.147648 c 0,0 0.133859,-0.0183 0.172745,-0.0665 0.166615,-0.20507 0.106075,-0.51903 0.127142,-0.7824 0.01641,-0.20517 0.01683,-0.41241 -9.03e-4,-0.61746 -0.02147,-0.2489 -0.127594,-0.73853 -0.127594,-0.73853"
       id="path64853-4-6-4"
       sodipodi:nodetypes="caaac"
       transform="translate(10.86599,139.12405)" />
    <path
       style="fill:none;stroke:#00ff00;stroke-width:0.5;stroke-linecap:round;stroke-linejoin:round;stroke-dasharray:none"
       d="m 9.2474453,13.564018 c 0,0 0.191048,-0.0105 0.277552,-0.0468 0.126002,-0.0529 0.205033,-0.18969 0.331726,-0.24093 0.08605,-0.0348 0.2757317,-0.039 0.2757317,-0.039"
       id="path64855-3-7-8"
       sodipodi:nodetypes="caac"
       transform="translate(10.86599,139.12405)" />
    <path
       style="fill:none;stroke:#00ff00;stroke-width:0.5;stroke-linecap:round;stroke-linejoin:round;stroke-dasharray:none"
       d="m 10.628064,15.118518 c 0,0 0.14198,0.004 0.185181,-0.0425 0.21601,-0.23155 0.135802,-0.62199 0.147763,-0.93843 0.01349,-0.35684 -0.08626,-1.0678 -0.08626,-1.0678"
       id="path64857-1-3-8"
       sodipodi:nodetypes="caac"
       transform="translate(10.86599,139.12405)" />
    <path
       style="fill:none;stroke:#00ff00;stroke-width:0.5;stroke-linecap:round;stroke-linejoin:round;stroke-dasharray:none"
       d="m 7.40615,14.635668 c 0,0 0.1796673,0.0237 0.2290993,-0.0357 0.122727,-0.14752 -0.03726,-0.31208 -0.01619,-0.57545"
       id="path17670-4-6-8"
       sodipodi:nodetypes="cac"
       transform="translate(10.86599,139.12405)" />
  </g>
</svg>
