<?xml version="1.0" encoding="UTF-8" standalone="no"?>
<!-- Created with Inkscape (http://www.inkscape.org/) -->

<svg
   width="8.3764429mm"
   height="5.5667744mm"
   viewBox="0 0 8.3764429 5.5667744"
   version="1.1"
   id="svg5"
   inkscape:version="1.3 (0e150ed6c4, 2023-07-21)"
   sodipodi:docname="cow_color.svg"
   xmlns:inkscape="http://www.inkscape.org/namespaces/inkscape"
   xmlns:sodipodi="http://sodipodi.sourceforge.net/DTD/sodipodi-0.dtd"
   xmlns="http://www.w3.org/2000/svg"
   xmlns:svg="http://www.w3.org/2000/svg">
  <sodipodi:namedview
     id="namedview7"
     pagecolor="#ffffff"
     bordercolor="#666666"
     borderopacity="1.0"
     inkscape:pageshadow="2"
     inkscape:pageopacity="0"
     inkscape:pagecheckerboard="false"
     inkscape:document-units="mm"
     showgrid="false"
     inkscape:zoom="9.0510662"
     inkscape:cx="11.821812"
     inkscape:cy="13.534317"
     inkscape:window-width="956"
     inkscape:window-height="1037"
     inkscape:window-x="960"
     inkscape:window-y="0"
     inkscape:window-maximized="1"
     inkscape:current-layer="layer1"
     inkscape:showpageshadow="2"
     inkscape:deskcolor="#ffffff" />
  <defs
     id="defs2" />
  <g
     inkscape:label="Layer 1"
     inkscape:groupmode="layer"
     id="layer1"
     transform="translate(-15.455877,-149.22448)">
    <g
       id="g69074"
       inkscape:label="colors">
      <path
         style="fill:#ffd580;fill-opacity:1;stroke:none;stroke-width:0.2;stroke-linecap:round;stroke-linejoin:round;stroke-dasharray:none"
         d="m 18.336955,154.1052 c -0.132267,-0.0498 -0.34023,0.0419 -0.417036,-0.0767 -0.151918,-0.2347 0.189105,-0.5353 0.199341,-0.81469 0.01237,-0.33756 0.11211,-0.81077 -0.168163,-0.99929 -0.170183,-0.11448 -0.395429,0.13754 -0.600504,0.13415 -0.211146,-0.003 -0.478675,0.004 -0.613382,-0.15846 -0.126327,-0.15251 0.04403,-0.413 -0.03892,-0.59283 -0.09304,-0.20169 -0.262708,-0.40809 -0.477459,-0.46479 -0.15993,-0.0422 -0.368094,0.24722 -0.480098,0.1255 -0.201175,-0.21862 0.335043,-0.5461 0.296184,-0.84064 -0.04387,-0.33251 -0.675197,-0.51166 -0.569032,-0.8298 0.108852,-0.3262 0.64613,-0.42199 0.977461,-0.32994 0.229358,0.0637 0.241372,0.45493 0.461841,0.5447 0.268231,0.10922 0.586538,-0.002 0.864998,-0.0817 0.288788,-0.0826 0.522564,-0.50078 0.806304,-0.40226 0.234083,0.0813 0.327386,0.42514 0.316391,0.67269 -0.01001,0.2253 -0.458428,0.39169 -0.341093,0.58428 0.277328,0.4552 1.064858,-0.0511 1.596926,-0.0831 0.799156,-0.0481 1.717625,-0.58838 2.396225,-0.16357 0.487848,0.3054 0.638076,1.02543 0.646855,1.60092 0.0027,0.17968 -0.202033,0.32674 -0.186627,0.50578 0.04631,0.53819 0.941382,0.87758 0.812465,1.40215 -0.05322,0.21656 -0.344138,0.38428 -0.565526,0.35745 -0.281508,-0.0341 -0.372064,-0.43136 -0.589689,-0.61316 -0.116213,-0.0971 -0.241402,-0.31644 -0.378246,-0.2516 -0.389177,0.1844 0.193731,0.99884 -0.127516,1.28565 -0.278695,0.24882 -0.833657,0.22313 -1.120712,-0.016 -0.117514,-0.0979 -0.10749,-0.2982 -0.08933,-0.45006 0.0344,-0.2877 0.333808,-0.50067 0.365502,-0.78868 0.01701,-0.15458 0.03624,-0.37981 -0.09943,-0.45583 -0.288427,-0.16162 -0.609929,0.27654 -0.936885,0.32565 -0.14322,0.0215 -0.327609,-0.11385 -0.434193,-0.0158 -0.269179,0.24763 0.158759,0.79678 -0.0515,1.09607 -0.180329,0.25668 -0.570043,0.45413 -0.86938,0.36031 -0.132589,-0.0416 -0.125302,-0.25416 -0.225099,-0.35084 -0.100597,-0.0975 -0.229603,-0.1662 -0.360672,-0.21559 z"
         id="path32389"
         sodipodi:nodetypes="aaaaaaaaaaaaaaaaaaaaaaaaaaaaaaaaaaaaa" />
      <path
         id="path36904"
         style="fill:#ffc34c;fill-opacity:1;stroke:none;stroke-width:0.2;stroke-linecap:round;stroke-linejoin:round;stroke-dasharray:none"
         d="m 17.240576,149.91128 c -0.09818,-3.2e-4 -0.191839,0.0153 -0.272851,0.0661 -0.147727,0.0926 -0.202347,0.29218 -0.248048,0.46044 -0.02699,0.0994 -0.08129,0.23342 -0.01137,0.30902 0.08829,0.0954 0.26035,0.0297 0.389641,0.016 0.201618,-0.0214 0.386917,-0.16693 0.589112,-0.15193 0.271304,0.0202 0.522353,0.46517 0.751375,0.31833 0.127198,-0.0816 0.05845,-0.30896 0.01344,-0.4532 -0.05,-0.16023 -0.157801,-0.31366 -0.298174,-0.40566 -0.151776,-0.0995 -0.350494,-0.10442 -0.531233,-0.12092 -0.122432,-0.0111 -0.255662,-0.0378 -0.381889,-0.0382 z m 1.097091,1.37924 c -0.06217,7.6e-4 -0.121064,0.0153 -0.173116,0.0481 -0.139,0.0875 -0.194481,0.35852 -0.0894,0.48472 0.164038,0.10866 0.100979,0.39497 0.230476,0.54312 0.178738,0.20448 0.429836,0.43488 0.700733,0.41548 0.119686,-0.009 0.250213,-0.10975 0.280603,-0.22582 0.09313,-0.35574 -0.135705,-0.77915 -0.410311,-1.02372 -0.137772,-0.12268 -0.352481,-0.24413 -0.538985,-0.24184 z m 3.275769,0.57878 c -0.189629,0.004 -0.395698,0.0557 -0.568958,0.0925 -0.222762,0.0473 -0.412352,0.19502 -0.609782,0.3085 -0.231732,0.1332 -0.636337,0.17086 -0.672827,0.43564 -0.01328,0.0964 0.101073,0.1866 0.192753,0.2191 0.202535,0.0718 0.422867,-0.0774 0.635621,-0.10748 0.222902,-0.0315 0.447451,-0.0523 0.671276,-0.0765 0.262216,-0.0283 0.611007,0.1163 0.787032,-0.0801 0.144349,-0.16106 0.14448,-0.49291 -0.0052,-0.64906 -0.108133,-0.11283 -0.262629,-0.14616 -0.429948,-0.14262 z" />
      <path
         style="fill:#ffb21a;fill-opacity:1;stroke:none;stroke-width:0.2;stroke-linecap:round;stroke-linejoin:round;stroke-dasharray:none"
         d="m 21.619584,153.38615 c -0.04631,-0.12367 0.03036,-0.28729 -0.04854,-0.39319 -0.118143,-0.15858 -0.391392,-0.11161 -0.543362,-0.23814 -0.07232,-0.0602 -0.172975,-0.14081 -0.158287,-0.23376 0.01427,-0.0903 0.132025,-0.1332 0.216306,-0.16862 0.202558,-0.0851 0.449061,-0.16884 0.653291,-0.0878 0.133865,0.0531 0.223884,0.19984 0.272244,0.3355 0.07052,0.19784 0.07285,0.43237 0.002,0.63009 -0.041,0.11443 -0.111669,0.26762 -0.232494,0.28095 -0.06757,0.007 -0.114677,-0.0754 -0.161131,-0.12499 -1.1e-5,-1e-5 -2.1e-5,-2e-5 -2.7e-5,-4e-5 z"
         id="path38821"
         sodipodi:nodetypes="aaaaaaaaaaa" />
    </g>
    <g
       id="g67751"
       inkscape:label="lines"
       transform="translate(10.86599,139.12405)">
      <path
         style="fill:none;stroke:#000000;stroke-width:0.1;stroke-linecap:round;stroke-linejoin:round;stroke-dasharray:none"
         d="m 6.91734,12.155418 c -0.0058,0.17159 -0.03591,0.24087 0.06186,0.45378 0.09777,0.21292 -0.80878,0.13588 -0.778841,0.0467 0.08856,-0.26374 0.0423,-0.68603 -0.05796,-0.882979"
         id="path64829-7-9-3"
         sodipodi:nodetypes="czsc" />
      <path
         style="fill:none;stroke:#000000;stroke-width:0.1;stroke-linecap:round;stroke-linejoin:round;stroke-dasharray:none"
         d="m 7.386914,11.670649 c 0.06488,0.006 0.1855463,0.0624 0.1855463,0.0624"
         id="path64833-4-1-18"
         sodipodi:nodetypes="cc" />
      <path
         style="fill:none;stroke:#000000;stroke-width:0.1;stroke-linecap:round;stroke-linejoin:round;stroke-dasharray:none"
         d="m 5.368437,11.723979 c 0,0 0.143061,-0.0662 0.219994,-0.0773"
         id="path64835-4-7-9"
         sodipodi:nodetypes="cc" />
      <path
         style="fill:none;stroke:#000000;stroke-width:0.1;stroke-linecap:round;stroke-linejoin:round;stroke-dasharray:none"
         d="m 5.683803,11.074889 c -0.04239,0 -0.196178,-0.0907 -0.278144,-0.15936 -0.04758,-0.0399 -0.1196,-0.14279 -0.1196,-0.14279"
         id="path64837-3-7-6"
         sodipodi:nodetypes="cac" />
      <path
         style="fill:none;stroke:#000000;stroke-width:0.1;stroke-linecap:round;stroke-linejoin:round;stroke-dasharray:none"
         d="m 7.298144,11.090599 c 0,0 0.103153,-0.0621 0.147732,-0.10197 0.06851,-0.0613 0.1807663,-0.2084 0.1807663,-0.2084"
         id="path64839-0-1-4"
         sodipodi:nodetypes="cac" />
      <path
         style="fill:none;stroke:#000000;stroke-width:0.1;stroke-linecap:round;stroke-linejoin:round;stroke-dasharray:none"
         d="m 6.224936,11.111099 c 0,0 0.190231,-0.0926 0.292746,-0.0944 0.07968,-10e-4 0.144451,0.0531 0.22989,0.0656"
         id="path64841-7-1-3"
         sodipodi:nodetypes="cac" />
      <path
         style="fill:none;stroke:#000000;stroke-width:0.1;stroke-linecap:round;stroke-linejoin:round;stroke-dasharray:none"
         d="m 8.2569303,11.825459 c 0.122568,-0.0124 0.623483,-0.0969 0.717703,-0.10091 0.508266,-0.0213 1.4475027,0.0854 1.4475027,0.0854"
         id="path64843-8-5-3"
         sodipodi:nodetypes="csc" />
      <path
         style="fill:none;stroke:#000000;stroke-width:0.1;stroke-linecap:round;stroke-linejoin:round;stroke-dasharray:none"
         d="m 11.10473,11.880699 c 0,0 0.382707,-0.019 0.48875,0.109989 0.271203,0.32991 -0.05216,0.86251 0.03411,1.28078 0.03083,0.14945 0.130213,0.37882 0.198946,0.52693"
         id="path64845-6-9-3"
         sodipodi:nodetypes="casc" />
      <path
         style="fill:none;stroke:#000000;stroke-width:0.1;stroke-linecap:round;stroke-linejoin:round;stroke-dasharray:none"
         d="m 12.248637,14.291308 c 0,0 0.119453,0.1185 0.181713,0.17504"
         id="path64847-8-7-86"
         sodipodi:nodetypes="cc" />
      <path
         style="fill:none;stroke:#000000;stroke-width:0.1;stroke-linecap:round;stroke-linejoin:round;stroke-dasharray:none"
         d="m 7.8931693,13.348398 c 0,0 -0.198388,-0.23348 -0.241907,-0.37602 -0.03762,-0.1232 -0.0081,-0.38637 -0.0081,-0.38637"
         id="path64849-8-7-0"
         sodipodi:nodetypes="cac" />
      <path
         style="fill:none;stroke:#000000;stroke-width:0.1;stroke-linecap:round;stroke-linejoin:round;stroke-dasharray:none"
         d="m 8.2816783,15.147648 c 0,0 0.133859,-0.0183 0.172745,-0.0665 0.166615,-0.20507 0.106075,-0.51903 0.127142,-0.7824 0.01641,-0.20517 0.01683,-0.41241 -9.03e-4,-0.61746 -0.02147,-0.2489 -0.127594,-0.73853 -0.127594,-0.73853"
         id="path64853-4-6-4"
         sodipodi:nodetypes="caaac" />
      <path
         style="fill:none;stroke:#000000;stroke-width:0.1;stroke-linecap:round;stroke-linejoin:round;stroke-dasharray:none"
         d="m 9.2474453,13.564018 c 0,0 0.191048,-0.0105 0.277552,-0.0468 0.126002,-0.0529 0.205033,-0.18969 0.331726,-0.24093 0.08605,-0.0348 0.2757317,-0.039 0.2757317,-0.039"
         id="path64855-3-7-8"
         sodipodi:nodetypes="caac" />
      <path
         style="fill:none;stroke:#000000;stroke-width:0.1;stroke-linecap:round;stroke-linejoin:round;stroke-dasharray:none"
         d="m 10.628064,15.118518 c 0,0 0.14198,0.004 0.185181,-0.0425 0.21601,-0.23155 0.135802,-0.62199 0.147763,-0.93843 0.01349,-0.35684 -0.08626,-1.0678 -0.08626,-1.0678"
         id="path64857-1-3-8"
         sodipodi:nodetypes="caac" />
      <path
         style="fill:none;stroke:#000000;stroke-width:0.1;stroke-linecap:round;stroke-linejoin:round;stroke-dasharray:none"
         d="m 7.40615,14.635668 c 0,0 0.1796673,0.0237 0.2290993,-0.0357 0.122727,-0.14752 -0.03726,-0.31208 -0.01619,-0.57545"
         id="path17670-4-6-8"
         sodipodi:nodetypes="cac" />
    </g>
  </g>
</svg>
