<?xml version="1.0" encoding="UTF-8" standalone="no"?>
<!-- Created with Inkscape (http://www.inkscape.org/) -->

<svg
   width="5.4173265mm"
   height="6.6195636mm"
   viewBox="0 0 5.4173265 6.6195636"
   version="1.1"
   id="svg5"
   inkscape:version="1.3 (0e150ed6c4, 2023-07-21)"
   sodipodi:docname="flower_color.svg"
   xmlns:inkscape="http://www.inkscape.org/namespaces/inkscape"
   xmlns:sodipodi="http://sodipodi.sourceforge.net/DTD/sodipodi-0.dtd"
   xmlns="http://www.w3.org/2000/svg"
   xmlns:svg="http://www.w3.org/2000/svg">
  <sodipodi:namedview
     id="namedview7"
     pagecolor="#ffffff"
     bordercolor="#666666"
     borderopacity="1.0"
     inkscape:pageshadow="2"
     inkscape:pageopacity="0"
     inkscape:pagecheckerboard="false"
     inkscape:document-units="mm"
     showgrid="false"
     inkscape:zoom="18.102132"
     inkscape:cx="15.578276"
     inkscape:cy="14.611539"
     inkscape:window-width="636"
     inkscape:window-height="1037"
     inkscape:window-x="640"
     inkscape:window-y="0"
     inkscape:window-maximized="1"
     inkscape:current-layer="layer1"
     inkscape:showpageshadow="2"
     inkscape:deskcolor="#ffffff" />
  <defs
     id="defs2" />
  <g
     inkscape:label="Layer 1"
     inkscape:groupmode="layer"
     id="layer1"
     transform="translate(57.899215,-96.31384)">
    <g
       id="g66683"
       inkscape:label="colors"
       transform="translate(14.628993,-21.24836)">
      <path
         style="fill:#ffeee5;fill-opacity:1;stroke:none;stroke-width:0.2;stroke-linecap:round;stroke-linejoin:round;stroke-dasharray:none"
         d="m -70.178933,122.08928 c -0.280078,0.1088 -0.596983,0.26962 -0.883459,0.17899 -0.237804,-0.0752 -0.415239,-0.3145 -0.514471,-0.54333 -0.128934,-0.29733 0.09363,-0.68433 -0.05852,-0.97047 -0.140079,-0.26345 -0.571357,-0.28043 -0.710619,-0.54431 -0.171809,-0.32556 -0.277413,-0.80594 -0.05964,-1.10272 0.235334,-0.32071 0.883578,-0.006 1.156078,-0.29604 0.196304,-0.20877 -0.03046,-0.63173 0.161667,-0.84435 0.301662,-0.33382 0.848642,-0.45499 1.29331,-0.38638 0.216275,0.0334 0.330046,0.31895 0.543127,0.3688 0.280543,0.0656 0.590868,-0.23 0.856282,-0.11789 0.311184,0.13144 0.516394,0.489 0.60085,0.81608 0.05184,0.20075 -0.155796,0.42376 -0.08018,0.61682 0.1136,0.29002 0.625049,0.30096 0.717769,0.59833 0.118182,0.37902 0.0066,0.92062 -0.319287,1.14745 -0.205572,0.14311 -0.538569,-0.19851 -0.748838,-0.0624 -0.216739,0.14029 -0.05514,0.57002 -0.257346,0.73055 -0.32593,0.25875 -0.846632,0.004 -1.240929,0.13693 -0.16795,0.0567 -0.290563,0.20975 -0.455794,0.27394 z"
         id="path62773"
         sodipodi:nodetypes="aaaaaaaaaaaaaaaaaaa" />
      <path
         style="fill:#ddffcc;fill-opacity:1;stroke:none;stroke-width:0.2;stroke-linecap:round;stroke-linejoin:round;stroke-dasharray:none"
         d="m -69.118442,124.13351 c -0.126275,-0.0853 -0.09584,-0.28963 -0.155708,-0.42973 -0.04866,-0.11386 -0.07709,-0.24557 -0.164932,-0.33283 -0.163077,-0.162 -0.399268,-0.23763 -0.619907,-0.30211 -0.143648,-0.042 -0.336615,0.0505 -0.445996,-0.0516 -0.0988,-0.0923 -0.129076,-0.27526 -0.07404,-0.39874 0.06636,-0.14888 0.258275,-0.21891 0.417221,-0.25501 0.139596,-0.0317 0.32051,0.13912 0.427225,0.0437 0.09679,-0.0865 -0.03424,-0.26534 0.0038,-0.38948 0.03949,-0.12888 0.09749,-0.28872 0.223278,-0.33717 0.163566,-0.063 0.375181,0.0177 0.509402,0.13042 0.100136,0.0841 0.03165,0.34212 0.161503,0.35751 0.250485,0.0297 0.247445,-0.46855 0.464139,-0.59766 0.221333,-0.13187 0.53454,-0.24631 0.762527,-0.12631 0.201422,0.10602 0.281893,0.391 0.289401,0.6185 0.0062,0.18748 -0.04749,0.42149 -0.204375,0.52433 -0.231821,0.15197 -0.609444,-0.19874 -0.830953,-0.0321 -0.307474,0.23131 -0.181788,0.74777 -0.27691,1.12059 -0.03788,0.14848 0.0027,0.34888 -0.117013,0.44458 -0.09604,0.0768 -0.266747,0.0819 -0.368662,0.0131 z"
         id="path60631"
         sodipodi:nodetypes="aaaaaaaaaaaaaaaaaaaa" />
      <path
         style="fill:#ffddcc;fill-opacity:1;stroke:none;stroke-width:0.2;stroke-linecap:round;stroke-linejoin:round;stroke-dasharray:none"
         d="m -71.318636,120.71464 c -0.08668,-0.25732 -0.49388,-0.26484 -0.656406,-0.48235 -0.188274,-0.25197 -0.44622,-0.59934 -0.320329,-0.88759 0.09115,-0.2087 0.408563,-0.2096 0.629048,-0.26662 0.250659,-0.0648 0.604023,0.11506 0.77242,-0.0816 0.161767,-0.18892 -0.128093,-0.5139 -0.03675,-0.74523 0.08053,-0.20395 0.261115,-0.3995 0.472539,-0.45765 0.289521,-0.0796 0.649582,0.011 0.876566,0.20762 0.118244,0.1024 0.02325,0.38898 0.172276,0.4365 0.228786,0.073 0.365479,-0.36213 0.603586,-0.39329 0.17659,-0.0231 0.372616,0.0505 0.507628,0.16666 0.178102,0.15321 0.304887,0.39468 0.317426,0.62928 0.0092,0.17209 -0.222509,0.31621 -0.182318,0.4838 0.08655,0.36091 0.731291,0.39072 0.822486,0.75048 0.06184,0.24396 -0.03808,0.57425 -0.247962,0.71314 -0.24711,0.16353 -0.651398,-0.23927 -0.886958,-0.0595 -0.201964,0.15413 0.04006,0.58007 -0.151491,0.74696 -0.209049,0.18213 -0.560216,-0.0112 -0.830145,0.0521 -0.412755,0.0969 -0.752064,0.43755 -1.172354,0.49326 -0.20816,0.0276 -0.469044,0.0568 -0.624236,-0.0846 -0.204424,-0.18632 -0.195276,-0.53197 -0.186993,-0.80844 0.0043,-0.14346 0.167786,-0.27692 0.121967,-0.41293 z"
         id="path63605"
         sodipodi:nodetypes="aaaaaaaaaaaaaaaaaaaaaa" />
      <path
         style="fill:#ffcdb3;fill-opacity:1;stroke:none;stroke-width:0.2;stroke-linecap:round;stroke-linejoin:round;stroke-dasharray:none"
         d="m -70.856239,120.54245 c -0.189879,-0.2824 -0.754379,0.0478 -1.004331,-0.18316 -0.174697,-0.1614 -0.24737,-0.46065 -0.183072,-0.68964 0.04996,-0.17792 0.220312,-0.34196 0.400392,-0.38348 0.297326,-0.0686 0.566713,0.29278 0.871563,0.27981 0.100869,-0.004 0.252755,-0.0194 0.279476,-0.11675 0.03427,-0.12488 -0.193897,-0.18793 -0.231805,-0.31175 -0.09832,-0.32116 -0.154207,-0.73657 0.04553,-1.0066 0.133559,-0.18056 0.420971,-0.29517 0.634692,-0.22614 0.231958,0.0749 0.319308,0.37788 0.415149,0.602 0.07441,0.174 -0.0697,0.51595 0.115273,0.55591 0.193159,0.0417 0.202701,-0.34649 0.349281,-0.47903 0.144889,-0.13101 0.311951,-0.32032 0.505764,-0.29598 0.301841,0.0379 0.695958,0.3408 0.649236,0.6414 -0.04405,0.28342 -0.573503,0.17852 -0.76681,0.39042 -0.115806,0.12695 -0.301319,0.34726 -0.19084,0.47887 0.150643,0.17945 0.462785,-0.2072 0.688167,-0.14317 0.295108,0.0838 0.621602,0.32994 0.667913,0.63321 0.02648,0.17339 -0.09219,0.39789 -0.256415,0.45949 -0.270235,0.10136 -0.583079,-0.46378 -0.815093,-0.29211 -0.129618,0.0959 0.07592,0.33091 0.02289,0.48318 -0.06554,0.18818 -0.207324,0.37832 -0.393111,0.45037 -0.178143,0.0691 -0.401025,0.0253 -0.569532,-0.0648 -0.114678,-0.0613 -0.125516,-0.32795 -0.252,-0.29778 -0.161849,0.0386 0.0022,0.36816 -0.115734,0.48557 -0.248257,0.24723 -0.758895,0.46917 -1.023452,0.23946 -0.202798,-0.17608 0.03211,-0.53688 0.07165,-0.80253 0.0204,-0.13702 0.162518,-0.29181 0.08522,-0.40677 z"
         id="path63670"
         sodipodi:nodetypes="aaaaaaaaaaaaaaaaaaaaaaaaaaaa" />
      <path
         style="fill:#ccffb3;fill-opacity:1;stroke:none;stroke-width:0.2;stroke-linecap:round;stroke-linejoin:round;stroke-dasharray:none"
         d="m -69.034352,123.89079 c -0.248513,-0.0203 -0.02722,-0.53428 -0.189432,-0.72365 -0.15114,-0.17645 -0.467503,-0.12141 -0.639158,-0.27797 -0.06938,-0.0633 -0.148273,-0.1539 -0.135597,-0.24695 0.0083,-0.0608 0.0693,-0.11597 0.128611,-0.13186 0.118196,-0.0317 0.262057,0.18084 0.353387,0.0994 0.09143,-0.0815 -0.123419,-0.25893 -0.05849,-0.36281 0.08488,-0.13579 0.306586,-0.18548 0.45985,-0.13906 0.119696,0.0362 0.113538,0.28539 0.238532,0.28961 0.276253,0.009 0.311552,-0.50284 0.56915,-0.60307 0.111138,-0.0432 0.271624,-0.0576 0.356831,0.0258 0.08118,0.0795 0.08847,0.24095 0.03172,0.33939 -0.136031,0.23597 -0.57724,0.12514 -0.742148,0.34192 -0.177884,0.23384 -0.05767,0.58844 -0.141806,0.86994 -0.05427,0.18158 -0.04256,0.53476 -0.23145,0.51931 z"
         id="path60834"
         sodipodi:nodetypes="aaaaaaaaaaaaaaa" />
      <path
         id="path63806"
         style="fill:#ffbc99;fill-opacity:1;stroke:none;stroke-width:0.2;stroke-linecap:round;stroke-linejoin:round;stroke-dasharray:none"
         d="m -70.555554,118.25416 c -0.01842,6e-4 -0.03602,0.006 -0.05168,0.0165 -0.201778,0.14091 -0.128725,0.50643 -0.04237,0.7369 0.05987,0.15978 0.192406,0.32527 0.358118,0.36587 0.0892,0.0218 0.211309,-0.009 0.261999,-0.0853 0.09651,-0.14582 0.01321,-0.35806 -0.04496,-0.52297 -0.05599,-0.15874 -0.146777,-0.31906 -0.282154,-0.41909 -0.05483,-0.0405 -0.133151,-0.0941 -0.198954,-0.092 z m 2.182296,0.23099 c -0.08921,0.003 -0.183895,0.0363 -0.250631,0.0827 -0.103011,0.0716 -0.07954,0.2417 -0.151928,0.34416 -0.08192,0.11594 -0.294879,0.15134 -0.310059,0.29249 -0.01059,0.0984 0.07505,0.21065 0.167948,0.24495 0.06193,0.0228 0.128853,-0.03 0.191203,-0.0517 0.188521,-0.0655 0.442488,-0.0677 0.550354,-0.23564 0.111734,-0.17395 0.1372,-0.48018 -0.01499,-0.62012 -0.04653,-0.0428 -0.112519,-0.0591 -0.181901,-0.0568 z m 0.07131,1.00511 c -0.02105,1.8e-4 -0.04172,0.002 -0.06253,0.004 -0.159347,0.0182 -0.3704,0.10192 -0.40566,0.25838 -0.01895,0.0841 0.0687,0.16651 0.136942,0.21911 0.03734,0.0288 0.09053,0.0279 0.135393,0.0424 0.171735,0.0556 0.332905,0.16208 0.513147,0.17208 0.15457,0.008 0.389549,0.0417 0.453719,-0.0992 0.05817,-0.12769 -0.0952,-0.27858 -0.202055,-0.36948 -0.154154,-0.13118 -0.365519,-0.22908 -0.568958,-0.22738 z m -1.910994,0.0636 c -0.0989,0.001 -0.194618,0.10774 -0.230477,0.20102 -0.101359,0.26375 -0.03924,0.61606 0.137976,0.83613 0.109239,0.13566 0.314975,0.15657 0.485242,0.19327 0.165993,0.0357 0.352588,0.0893 0.509013,0.0233 0.198085,-0.0836 0.371667,-0.27525 0.428397,-0.48265 0.05728,-0.20941 0.08189,-0.57194 -0.12454,-0.63924 -0.171818,-0.056 -0.223938,0.31708 -0.396875,0.36948 -0.154816,0.0469 -0.341024,0.006 -0.47904,-0.078 -0.148956,-0.0911 -0.136978,-0.39878 -0.310059,-0.42168 -0.0066,-8.7e-4 -0.01304,-0.002 -0.01964,-0.002 z m -1.447457,0.31833 c -0.0323,10e-4 -0.06205,0.0103 -0.0863,0.0331 -0.10949,0.10256 -0.07112,0.3255 0.0124,0.4501 0.09353,0.13955 0.296401,0.17033 0.460954,0.20413 0.21483,0.0441 0.537027,0.1753 0.657841,-0.008 0.07715,-0.11688 -0.0596,-0.29171 -0.160714,-0.38861 -0.15822,-0.15165 -0.403721,-0.17669 -0.617534,-0.22479 -0.08283,-0.0186 -0.184098,-0.0692 -0.26665,-0.0661 z m 1.664498,1.12603 c -0.215511,0.009 -0.367566,0.26298 -0.556038,0.38137 -0.132363,0.0831 -0.309903,0.11653 -0.400493,0.24391 -0.0631,0.0887 -0.128676,0.22765 -0.06925,0.31885 0.07673,0.1178 0.274476,0.10636 0.413411,0.0853 0.287474,-0.0438 0.587509,-0.19053 0.763261,-0.42219 0.08643,-0.11392 0.142522,-0.28144 0.0987,-0.41755 -0.02946,-0.0915 -0.121658,-0.18213 -0.217558,-0.18913 -0.01092,-7.8e-4 -0.02144,-9.7e-4 -0.03204,-5.2e-4 z m 1.076937,0.0584 c -0.0742,0.003 -0.154342,0.0444 -0.22996,0.0522 -0.113988,0.0117 -0.264655,-0.0582 -0.342615,0.0258 -0.04915,0.053 -0.02632,0.14954 -5.17e-4,0.21704 0.02767,0.0724 0.08749,0.1356 0.155546,0.1726 0.114377,0.0622 0.262486,0.10409 0.385506,0.0615 0.122064,-0.0423 0.253833,-0.15588 0.263033,-0.28474 0.0067,-0.0935 -0.07357,-0.19331 -0.159163,-0.23151 -0.02314,-0.0103 -0.0471,-0.0138 -0.07183,-0.0129 z" />
    </g>
    <g
       id="g65722"
       inkscape:label="lines"
       transform="translate(14.628993,-21.24836)">
      <path
         style="fill:none;stroke:#000000;stroke-width:0.1;stroke-linecap:round;stroke-linejoin:round;stroke-dasharray:none"
         d="m -68.972393,123.9013 c 0,0 0.110425,-0.73129 0.01999,-1.07944 -0.0541,-0.20825 -0.246853,-0.35663 -0.324364,-0.55702 -0.04518,-0.11681 -0.07863,-0.36739 -0.07863,-0.36739"
         id="path28576"
         sodipodi:nodetypes="caac" />
      <path
         style="fill:none;stroke:#000000;stroke-width:0.1;stroke-linecap:round;stroke-linejoin:round;stroke-dasharray:none"
         d="m -70.27766,122.69193 c 0,0 0.31271,-0.0549 0.448592,0.008 0.137195,0.0636 0.301004,0.34109 0.301004,0.34109"
         id="path28578"
         sodipodi:nodetypes="cac" />
      <path
         style="fill:none;stroke:#000000;stroke-width:0.1;stroke-linecap:round;stroke-linejoin:round;stroke-dasharray:none"
         d="m -67.750061,121.97139 c 0,0 -0.31283,-0.0547 -0.448592,0.008 -0.137652,0.0636 -0.301004,0.34109 -0.301004,0.34109"
         id="path28602"
         sodipodi:nodetypes="cac" />
      <path
         style="fill:none;stroke:#000000;stroke-width:0.1;stroke-linecap:round;stroke-linejoin:round;stroke-dasharray:none"
         d="m -69.702759,120.58196 c -0.182565,0.0267 -0.419916,-0.0766 -0.49694,-0.24544 -0.102594,-0.22496 -0.0021,-0.55839 0.184936,-0.71898 0.166428,-0.1429 0.461839,-0.16911 0.653089,-0.0623 0.157336,0.0879 0.273992,0.30797 0.241552,0.48626 -0.0476,0.26162 -0.321391,0.50223 -0.582637,0.54045 z"
         id="path28604"
         sodipodi:nodetypes="aaaaaa" />
      <path
         style="fill:none;stroke:#000000;stroke-width:0.1;stroke-linecap:round;stroke-linejoin:round;stroke-dasharray:none"
         d="m -69.970217,121.35503 c 0,0 -0.166472,0.23921 -0.292842,0.29738 -0.237094,0.10916 -0.603718,0.24608 -0.781131,0.0546 -0.122377,-0.13206 -0.02842,-0.38954 0.07852,-0.53439 0.08842,-0.11975 0.403146,-0.19213 0.403146,-0.19213"
         id="path28606"
         sodipodi:nodetypes="caaac" />
      <path
         style="fill:none;stroke:#000000;stroke-width:0.1;stroke-linecap:round;stroke-linejoin:round;stroke-dasharray:none"
         d="m -70.868252,120.35633 c 0,0 -0.499106,-0.0217 -0.672836,-0.17505 -0.17996,-0.15886 -0.380019,-0.45766 -0.266341,-0.6691 0.08925,-0.166 0.371413,-0.16377 0.553539,-0.11528 0.16423,0.0438 0.381349,0.33842 0.381349,0.33842"
         id="path28608"
         sodipodi:nodetypes="caaac" />
      <path
         style="fill:none;stroke:#000000;stroke-width:0.1;stroke-linecap:round;stroke-linejoin:round;stroke-dasharray:none"
         d="m -70.399009,119.15668 c 0,0 -0.3838,-0.61758 -0.225247,-0.87282 0.120271,-0.19361 0.477617,-0.2636 0.669249,-0.1402 0.204336,0.13158 0.159174,0.71152 0.159174,0.71152"
         id="path28610"
         sodipodi:nodetypes="caac" />
      <path
         style="fill:none;stroke:#000000;stroke-width:0.1;stroke-linecap:round;stroke-linejoin:round;stroke-dasharray:none"
         d="m -69.143097,118.80133 c 0,0 0.191844,-0.48132 0.401729,-0.48497 0.215987,-0.004 0.445139,0.26891 0.430486,0.48442 -0.01335,0.19627 -0.448124,0.38402 -0.448124,0.38402"
         id="path28612"
         sodipodi:nodetypes="caac" />
      <path
         style="fill:none;stroke:#000000;stroke-width:0.1;stroke-linecap:round;stroke-linejoin:round;stroke-dasharray:none"
         d="m -68.425562,119.7042 c 0,0 0.550793,0.0558 0.660872,0.26624 0.08437,0.1613 0.03797,0.44428 -0.12128,0.53246 -0.192455,0.10658 -0.623214,-0.21722 -0.623214,-0.21722"
         id="path28614"
         sodipodi:nodetypes="caac" />
      <path
         style="fill:none;stroke:#000000;stroke-width:0.1;stroke-linecap:round;stroke-linejoin:round;stroke-dasharray:none"
         d="m -69.329207,121.26506 c 0,0 0.206437,0.11919 0.314728,0.0996 0.134087,-0.0242 0.296648,-0.11799 0.321937,-0.25188 0.02056,-0.10888 -0.169041,-0.2862 -0.169041,-0.2862"
         id="path28616"
         sodipodi:nodetypes="caac" />
    </g>
  </g>
</svg>
