<?xml version="1.0" encoding="UTF-8" standalone="no"?>
<!-- Created with Inkscape (http://www.inkscape.org/) -->

<svg
   width="4.6191354mm"
   height="6.3207817mm"
   viewBox="0 0 4.6191354 6.3207817"
   version="1.1"
   id="svg5"
   inkscape:version="1.2.2 (b0a8486541, 2022-12-01)"
   sodipodi:docname="flower.svg"
   xmlns:inkscape="http://www.inkscape.org/namespaces/inkscape"
   xmlns:sodipodi="http://sodipodi.sourceforge.net/DTD/sodipodi-0.dtd"
   xmlns="http://www.w3.org/2000/svg"
   xmlns:svg="http://www.w3.org/2000/svg">
  <sodipodi:namedview
     id="namedview7"
     pagecolor="#4d4d4d"
     bordercolor="#666666"
     borderopacity="1.0"
     inkscape:pageshadow="2"
     inkscape:pageopacity="0"
     inkscape:pagecheckerboard="false"
     inkscape:document-units="mm"
     showgrid="false"
     inkscape:zoom="18.102132"
     inkscape:cx="12.843791"
     inkscape:cy="13.589559"
     inkscape:window-width="1920"
     inkscape:window-height="1080"
     inkscape:window-x="0"
     inkscape:window-y="0"
     inkscape:window-maximized="1"
     inkscape:current-layer="layer1"
     inkscape:showpageshadow="2"
     inkscape:deskcolor="#4d4d4d" />
  <defs
     id="defs2" />
  <g
     inkscape:label="Layer 1"
     inkscape:groupmode="layer"
     id="layer1"
     transform="translate(57.461828,-96.582158)">
    <path
       style="fill:none;stroke:#00ff00;stroke-width:0.5;stroke-linecap:round;stroke-linejoin:round;stroke-dasharray:none"
       d="m -54.3434,102.65294 c 0,0 0.110425,-0.73129 0.01999,-1.07944 -0.0541,-0.20825 -0.246853,-0.35663 -0.324364,-0.55702 -0.04518,-0.11681 -0.07863,-0.36739 -0.07863,-0.36739"
       id="path28576"
       sodipodi:nodetypes="caac" />
    <path
       style="fill:none;stroke:#00ff00;stroke-width:0.5;stroke-linecap:round;stroke-linejoin:round;stroke-dasharray:none"
       d="m -55.648667,101.44357 c 0,0 0.31271,-0.0549 0.448592,0.008 0.137195,0.0636 0.301004,0.34109 0.301004,0.34109"
       id="path28578"
       sodipodi:nodetypes="cac" />
    <path
       style="fill:none;stroke:#00ff00;stroke-width:0.5;stroke-linecap:round;stroke-linejoin:round;stroke-dasharray:none"
       d="m -53.121068,100.72303 c 0,0 -0.31283,-0.0547 -0.448592,0.008 -0.137652,0.0636 -0.301004,0.34109 -0.301004,0.34109"
       id="path28602"
       sodipodi:nodetypes="cac" />
    <path
       style="fill:none;stroke:#00ff00;stroke-width:0.5;stroke-linecap:round;stroke-linejoin:round;stroke-dasharray:none"
       d="m -55.073766,99.3336 c -0.182565,0.0267 -0.419916,-0.0766 -0.49694,-0.24544 -0.102594,-0.22496 -0.0021,-0.55839 0.184936,-0.71898 0.166428,-0.1429 0.461839,-0.16911 0.653089,-0.0623 0.157336,0.0879 0.273992,0.30797 0.241552,0.48626 -0.0476,0.26162 -0.321391,0.50223 -0.582637,0.54045 z"
       id="path28604"
       sodipodi:nodetypes="aaaaaa" />
    <path
       style="fill:none;stroke:#00ff00;stroke-width:0.5;stroke-linecap:round;stroke-linejoin:round;stroke-dasharray:none"
       d="m -55.341224,100.10667 c 0,0 -0.166472,0.23921 -0.292842,0.29738 -0.237094,0.10916 -0.603718,0.24608 -0.781131,0.0546 -0.122377,-0.13206 -0.02842,-0.38954 0.07852,-0.53439 0.08842,-0.11975 0.403146,-0.19213 0.403146,-0.19213"
       id="path28606"
       sodipodi:nodetypes="caaac" />
    <path
       style="fill:none;stroke:#00ff00;stroke-width:0.5;stroke-linecap:round;stroke-linejoin:round;stroke-dasharray:none"
       d="m -56.239259,99.10797 c 0,0 -0.499106,-0.0217 -0.672836,-0.17505 -0.17996,-0.15886 -0.380019,-0.45766 -0.266341,-0.6691 0.08925,-0.166 0.371413,-0.16377 0.553539,-0.11528 0.16423,0.0438 0.381349,0.33842 0.381349,0.33842"
       id="path28608"
       sodipodi:nodetypes="caaac" />
    <path
       style="fill:none;stroke:#00ff00;stroke-width:0.5;stroke-linecap:round;stroke-linejoin:round;stroke-dasharray:none"
       d="m -55.770016,97.90832 c 0,0 -0.3838,-0.61758 -0.225247,-0.87282 0.120271,-0.19361 0.477617,-0.2636 0.669249,-0.1402 0.204336,0.13158 0.159174,0.71152 0.159174,0.71152"
       id="path28610"
       sodipodi:nodetypes="caac" />
    <path
       style="fill:none;stroke:#00ff00;stroke-width:0.5;stroke-linecap:round;stroke-linejoin:round;stroke-dasharray:none"
       d="m -54.514104,97.55297 c 0,0 0.191844,-0.48132 0.401729,-0.48497 0.215987,-0.004 0.445139,0.26891 0.430486,0.48442 -0.01335,0.19627 -0.448124,0.38402 -0.448124,0.38402"
       id="path28612"
       sodipodi:nodetypes="caac" />
    <path
       style="fill:none;stroke:#00ff00;stroke-width:0.5;stroke-linecap:round;stroke-linejoin:round;stroke-dasharray:none"
       d="m -53.796569,98.45584 c 0,0 0.550793,0.0558 0.660872,0.26624 0.08437,0.1613 0.03797,0.44428 -0.12128,0.53246 -0.192455,0.10658 -0.623214,-0.21722 -0.623214,-0.21722"
       id="path28614"
       sodipodi:nodetypes="caac" />
    <path
       style="fill:none;stroke:#00ff00;stroke-width:0.5;stroke-linecap:round;stroke-linejoin:round;stroke-dasharray:none"
       d="m -54.700214,100.0167 c 0,0 0.206437,0.11919 0.314728,0.0996 0.134087,-0.0242 0.296648,-0.11799 0.321937,-0.25188 0.02056,-0.10888 -0.169041,-0.2862 -0.169041,-0.2862"
       id="path28616"
       sodipodi:nodetypes="caac" />
  </g>
</svg>
