<?xml version="1.0" encoding="UTF-8" standalone="no"?>
<!-- Created with Inkscape (http://www.inkscape.org/) -->

<svg
   width="21.797552mm"
   height="16.55109mm"
   viewBox="0 0 21.797552 16.55109"
   version="1.1"
   id="svg5"
   inkscape:version="1.3.2 (091e20ef0f, 2023-11-25, custom)"
   sodipodi:docname="plain_fill.svg"
   xml:space="preserve"
   xmlns:inkscape="http://www.inkscape.org/namespaces/inkscape"
   xmlns:sodipodi="http://sodipodi.sourceforge.net/DTD/sodipodi-0.dtd"
   xmlns="http://www.w3.org/2000/svg"
   xmlns:svg="http://www.w3.org/2000/svg"><sodipodi:namedview
     id="namedview7"
     pagecolor="#ffffff"
     bordercolor="#666666"
     borderopacity="1.0"
     inkscape:pageshadow="2"
     inkscape:pageopacity="0"
     inkscape:pagecheckerboard="false"
     inkscape:document-units="mm"
     showgrid="false"
     inkscape:zoom="2.1119203"
     inkscape:cx="126.66197"
     inkscape:cy="77.891195"
     inkscape:window-width="1916"
     inkscape:window-height="1037"
     inkscape:window-x="0"
     inkscape:window-y="0"
     inkscape:window-maximized="1"
     inkscape:current-layer="layer1"
     inkscape:showpageshadow="2"
     inkscape:deskcolor="#ffffff" /><defs
     id="defs2"><inkscape:path-effect
       effect="simplify"
       id="path-effect50785-5-6-3"
       is_visible="true"
       lpeversion="1"
       steps="1"
       threshold="0.00457143"
       smooth_angles="360"
       helper_size="0"
       simplify_individual_paths="false"
       simplify_just_coalesce="false" /><inkscape:path-effect
       effect="simplify"
       id="path-effect50789-6-9-9"
       is_visible="true"
       lpeversion="1"
       steps="1"
       threshold="0.00457143"
       smooth_angles="360"
       helper_size="0"
       simplify_individual_paths="false"
       simplify_just_coalesce="false" /><inkscape:path-effect
       effect="simplify"
       id="path-effect50793-2-3-0"
       is_visible="true"
       lpeversion="1"
       steps="1"
       threshold="0.00457143"
       smooth_angles="360"
       helper_size="0"
       simplify_individual_paths="false"
       simplify_just_coalesce="false" /><inkscape:path-effect
       effect="simplify"
       id="path-effect50797-9-7-8"
       is_visible="true"
       lpeversion="1"
       steps="1"
       threshold="0.00457143"
       smooth_angles="360"
       helper_size="0"
       simplify_individual_paths="false"
       simplify_just_coalesce="false" /><inkscape:path-effect
       effect="simplify"
       id="path-effect50801-1-4-8"
       is_visible="true"
       lpeversion="1"
       steps="1"
       threshold="0.00457143"
       smooth_angles="360"
       helper_size="0"
       simplify_individual_paths="false"
       simplify_just_coalesce="false" /><inkscape:path-effect
       effect="simplify"
       id="path-effect50837-2-5-5"
       is_visible="true"
       lpeversion="1"
       steps="1"
       threshold="0.00457143"
       smooth_angles="360"
       helper_size="0"
       simplify_individual_paths="false"
       simplify_just_coalesce="false" /><inkscape:path-effect
       effect="simplify"
       id="path-effect50841-7-2-0"
       is_visible="true"
       lpeversion="1"
       steps="1"
       threshold="0.00457143"
       smooth_angles="360"
       helper_size="0"
       simplify_individual_paths="false"
       simplify_just_coalesce="false" /><inkscape:path-effect
       effect="simplify"
       id="path-effect50901-0-5-9"
       is_visible="true"
       lpeversion="1"
       steps="1"
       threshold="0.00457143"
       smooth_angles="360"
       helper_size="0"
       simplify_individual_paths="false"
       simplify_just_coalesce="false" /><inkscape:path-effect
       effect="simplify"
       id="path-effect50905-9-4-6"
       is_visible="true"
       lpeversion="1"
       steps="1"
       threshold="0.00457143"
       smooth_angles="360"
       helper_size="0"
       simplify_individual_paths="false"
       simplify_just_coalesce="false" /><inkscape:path-effect
       effect="simplify"
       id="path-effect50909-3-7-3"
       is_visible="true"
       lpeversion="1"
       steps="1"
       threshold="0.00457143"
       smooth_angles="360"
       helper_size="0"
       simplify_individual_paths="false"
       simplify_just_coalesce="false" /><inkscape:path-effect
       effect="simplify"
       id="path-effect50913-6-4-8"
       is_visible="true"
       lpeversion="1"
       steps="1"
       threshold="0.00457143"
       smooth_angles="360"
       helper_size="0"
       simplify_individual_paths="false"
       simplify_just_coalesce="false" /><inkscape:path-effect
       effect="simplify"
       id="path-effect50921-0-4-5"
       is_visible="true"
       lpeversion="1"
       steps="1"
       threshold="0.00457143"
       smooth_angles="360"
       helper_size="0"
       simplify_individual_paths="false"
       simplify_just_coalesce="false" /><inkscape:path-effect
       effect="simplify"
       id="path-effect50925-6-3-6"
       is_visible="true"
       lpeversion="1"
       steps="1"
       threshold="0.00457143"
       smooth_angles="360"
       helper_size="0"
       simplify_individual_paths="false"
       simplify_just_coalesce="false" /><inkscape:path-effect
       effect="simplify"
       id="path-effect50929-2-0-1"
       is_visible="true"
       lpeversion="1"
       steps="1"
       threshold="0.00457143"
       smooth_angles="360"
       helper_size="0"
       simplify_individual_paths="false"
       simplify_just_coalesce="false" /><inkscape:path-effect
       effect="simplify"
       id="path-effect51121-2-7-1"
       is_visible="true"
       lpeversion="1"
       steps="1"
       threshold="0.00457143"
       smooth_angles="360"
       helper_size="0"
       simplify_individual_paths="false"
       simplify_just_coalesce="false" /><inkscape:path-effect
       effect="simplify"
       id="path-effect51125-3-8-5"
       is_visible="true"
       lpeversion="1"
       steps="1"
       threshold="0.00457143"
       smooth_angles="360"
       helper_size="0"
       simplify_individual_paths="false"
       simplify_just_coalesce="false" /><inkscape:path-effect
       effect="simplify"
       id="path-effect51129-7-6-9"
       is_visible="true"
       lpeversion="1"
       steps="1"
       threshold="0.00457143"
       smooth_angles="360"
       helper_size="0"
       simplify_individual_paths="false"
       simplify_just_coalesce="false" /><inkscape:path-effect
       effect="simplify"
       id="path-effect51133-5-8-8"
       is_visible="true"
       lpeversion="1"
       steps="1"
       threshold="0.00457143"
       smooth_angles="360"
       helper_size="0"
       simplify_individual_paths="false"
       simplify_just_coalesce="false" /><inkscape:path-effect
       effect="simplify"
       id="path-effect51137-9-8-4"
       is_visible="true"
       lpeversion="1"
       steps="1"
       threshold="0.00457143"
       smooth_angles="360"
       helper_size="0"
       simplify_individual_paths="false"
       simplify_just_coalesce="false" /><inkscape:path-effect
       effect="simplify"
       id="path-effect51151-2-4-8"
       is_visible="true"
       lpeversion="1"
       steps="1"
       threshold="0.00457143"
       smooth_angles="360"
       helper_size="0"
       simplify_individual_paths="false"
       simplify_just_coalesce="false" /><inkscape:path-effect
       effect="simplify"
       id="path-effect51155-2-3-1"
       is_visible="true"
       lpeversion="1"
       steps="1"
       threshold="0.00457143"
       smooth_angles="360"
       helper_size="0"
       simplify_individual_paths="false"
       simplify_just_coalesce="false" /><inkscape:path-effect
       effect="simplify"
       id="path-effect51159-8-1-0"
       is_visible="true"
       lpeversion="1"
       steps="1"
       threshold="0.00457143"
       smooth_angles="360"
       helper_size="0"
       simplify_individual_paths="false"
       simplify_just_coalesce="false" /><inkscape:path-effect
       effect="simplify"
       id="path-effect51163-9-4-3"
       is_visible="true"
       lpeversion="1"
       steps="1"
       threshold="0.00457143"
       smooth_angles="360"
       helper_size="0"
       simplify_individual_paths="false"
       simplify_just_coalesce="false" /><inkscape:path-effect
       effect="simplify"
       id="path-effect51179-7-9-0"
       is_visible="true"
       lpeversion="1"
       steps="1"
       threshold="0.00457143"
       smooth_angles="360"
       helper_size="0"
       simplify_individual_paths="false"
       simplify_just_coalesce="false" /><inkscape:path-effect
       effect="simplify"
       id="path-effect51183-3-2-4"
       is_visible="true"
       lpeversion="1"
       steps="1"
       threshold="0.00457143"
       smooth_angles="360"
       helper_size="0"
       simplify_individual_paths="false"
       simplify_just_coalesce="false" /><inkscape:path-effect
       effect="simplify"
       id="path-effect51187-6-0-4"
       is_visible="true"
       lpeversion="1"
       steps="1"
       threshold="0.00457143"
       smooth_angles="360"
       helper_size="0"
       simplify_individual_paths="false"
       simplify_just_coalesce="false" /><inkscape:path-effect
       effect="simplify"
       id="path-effect51191-1-6-4"
       is_visible="true"
       lpeversion="1"
       steps="1"
       threshold="0.00457143"
       smooth_angles="360"
       helper_size="0"
       simplify_individual_paths="false"
       simplify_just_coalesce="false" /><inkscape:path-effect
       effect="simplify"
       id="path-effect51195-2-8-4"
       is_visible="true"
       lpeversion="1"
       steps="1"
       threshold="0.00457143"
       smooth_angles="360"
       helper_size="0"
       simplify_individual_paths="false"
       simplify_just_coalesce="false" /><inkscape:path-effect
       effect="simplify"
       id="path-effect50749-9-7"
       is_visible="true"
       lpeversion="1"
       steps="1"
       threshold="0.00457143"
       smooth_angles="360"
       helper_size="0"
       simplify_individual_paths="false"
       simplify_just_coalesce="false" /><inkscape:path-effect
       effect="simplify"
       id="path-effect50757-6-3"
       is_visible="true"
       lpeversion="1"
       steps="1"
       threshold="0.00457143"
       smooth_angles="360"
       helper_size="0"
       simplify_individual_paths="false"
       simplify_just_coalesce="false" /><inkscape:path-effect
       effect="simplify"
       id="path-effect50761-6-1"
       is_visible="true"
       lpeversion="1"
       steps="1"
       threshold="0.00457143"
       smooth_angles="360"
       helper_size="0"
       simplify_individual_paths="false"
       simplify_just_coalesce="false" /><inkscape:path-effect
       effect="simplify"
       id="path-effect50765-4-7"
       is_visible="true"
       lpeversion="1"
       steps="1"
       threshold="0.00457143"
       smooth_angles="360"
       helper_size="0"
       simplify_individual_paths="false"
       simplify_just_coalesce="false" /></defs><g
     inkscape:label="Layer 1"
     inkscape:groupmode="layer"
     id="layer1"
     transform="translate(-8.5395449,-108.12642)"><path
       id="path54"
       style="color:#000000;fill:#080808;stroke-linecap:round;stroke-linejoin:round;-inkscape-stroke:none"
       d="m 25.627318,108.12916 a 0.10001,0.10001 0 0 0 -0.04134,0.0212 c 0,0 -0.223483,0.18846 -0.476457,0.44338 -0.252974,0.25492 -0.535404,0.57137 -0.660425,0.85576 -0.08307,0.18895 -0.175603,0.4129 -0.218591,0.64234 -0.0031,0.0166 -0.0052,0.0334 -0.0078,0.0501 -0.01378,-0.07 -0.03061,-0.13676 -0.04703,-0.19792 -0.05428,-0.20224 -0.205472,-0.42865 -0.341581,-0.61547 -0.136108,-0.18683 -0.259933,-0.3297 -0.259933,-0.3297 a 0.10001,0.10001 0 0 0 -0.128674,-0.0196 v -5.2e-4 a 0.10001,0.10001 0 0 0 -0.03927,0.12506 c 0,0 0.272415,0.64814 0.318327,1.03508 0.01594,0.13438 0.0099,0.24758 -0.0052,0.33899 -0.0013,-0.0116 -0.0029,-0.0232 -0.0047,-0.0346 -0.01947,-0.1284 -0.06678,-0.25141 -0.107487,-0.35347 -0.06597,-0.16543 -0.211426,-0.33585 -0.341581,-0.47645 -0.130155,-0.1406 -0.24598,-0.2465 -0.24598,-0.2465 a 0.10001,0.10001 0 0 0 -0.129191,-0.004 0.10001,0.10001 0 0 0 -0.02532,0.12713 c 0,0 0.243944,0.4525 0.326078,0.80253 0.04142,0.17643 0.04294,0.30729 0.03514,0.39274 -0.0078,0.0854 -0.02119,0.11731 -0.02119,0.11731 h 0.0078 a 0.10001,0.10001 0 0 0 -0.0098,0.0703 0.10001,0.10001 0 0 0 0.09147,0.0682 c 0,0 0.06077,10e-4 0.129191,-0.008 0.06841,-0.009 0.154964,-0.015 0.218591,-0.10387 5.87e-4,-8.2e-4 9.72e-4,-0.002 0.0016,-0.003 a 0.10001,0.10001 0 0 0 0.113688,0.0346 l -0.05633,0.0331 c 0,0 0.07077,0.011 0.152446,0.01 0.08168,-0.001 0.183482,0.002 0.26355,-0.0858 0.06622,-0.0727 0.102946,-0.15917 0.120923,-0.2496 0.01908,0.067 0.04771,0.13144 0.08785,0.19224 0.08303,0.125 0.228941,0.15144 0.34985,0.17208 0.12091,0.0206 0.226343,0.0217 0.226343,0.0217 l -0.0098,-0.008 a 0.10001,0.10001 0 0 0 0.111621,-0.10749 0.10001,0.10001 0 0 0 -0.01395,-0.0114 l 0.0098,-0.002 c 0,0 -0.145768,-0.50103 -0.01757,-0.9865 0.06329,-0.23967 0.252636,-0.63891 0.425814,-0.96842 0.173178,-0.3295 0.330212,-0.59376 0.330212,-0.59376 a 0.10001,0.10001 0 0 0 -0.0646,-0.14831 0.10001,0.10001 0 0 0 -0.04651,0 z m 0.218591,1.15755 a 0.10001,0.10001 0 0 0 -0.05684,0.0238 c 0,0 -0.131502,0.11126 -0.279052,0.25994 -0.147551,0.14869 -0.311756,0.32992 -0.389124,0.50591 -0.04836,0.11001 -0.104787,0.24235 -0.130741,0.38085 -0.02595,0.13851 -0.02261,0.28996 0.06253,0.41807 0.0629,0.0947 0.156795,0.10419 0.230477,0.11678 0.07368,0.0126 0.138493,0.014 0.138493,0.014 a 0.10001,0.10001 0 0 0 0.09767,-0.078 0.10001,0.10001 0 0 0 0.0021,-0.0351 c 0,0 -0.04545,-0.35903 0.02946,-0.63097 0.03709,-0.13467 0.136653,-0.34573 0.224792,-0.5178 0.08814,-0.17207 0.163815,-0.30644 0.163815,-0.30644 a 0.10001,0.10001 0 0 0 -0.06253,-0.14831 0.10001,0.10001 0 0 0 -0.03101,-0.003 z m -2.041219,1.54358 0.0041,0.002 -0.0062,0.004 c 5.2e-5,-9e-5 0.002,-0.006 0.0021,-0.006 z m 0.999939,0.0408 h 0.0041 c 1.4e-5,5e-5 -1.1e-5,0.004 0,0.004 z m 3.170866,0.96687 a 0.10001,0.10001 0 0 0 -0.04186,0.0217 0.10001,0.10001 0 0 0 -0.0217,0.12661 c 0,0 0.153626,0.26514 0.324528,0.59583 0.170903,0.3307 0.357974,0.73038 0.419613,0.97048 0.124852,0.48634 -0.02532,0.98857 -0.02532,0.98857 l 0.0217,0.004 a 0.10001,0.10001 0 0 0 -0.02532,0.0258 0.10001,0.10001 0 0 0 0.132808,0.0682 l -0.03152,0.031 c 0,0 0.10581,6.6e-4 0.226859,-0.0191 0.121049,-0.0198 0.267512,-0.0456 0.3514,-0.17002 0.13426,-0.199 0.14114,-0.44052 0.09974,-0.67024 -0.04141,-0.22973 -0.131138,-0.4549 -0.212907,-0.64441 -0.123058,-0.28525 -0.40508,-0.60273 -0.656291,-0.85938 -0.25121,-0.25665 -0.472839,-0.447 -0.472839,-0.447 a 0.10001,0.10001 0 0 0 -0.08888,-0.0217 z m 2.270663,0.84956 a 0.10001,0.10001 0 0 0 -0.08423,0.0331 c 0,0 -0.126156,0.14226 -0.26355,0.32815 -0.137393,0.18588 -0.28797,0.41154 -0.343648,0.6134 -0.03528,0.12789 -0.0739,0.28144 -0.0801,0.43563 -0.0062,0.15419 0.01963,0.3155 0.130742,0.43925 0.07945,0.0885 0.181885,0.0858 0.26355,0.0878 0.08166,0.002 0.152445,-0.008 0.152445,-0.008 a 0.10001,0.10001 0 0 0 0.07028,-0.15038 c 0,0 -0.136658,-0.21718 -0.08785,-0.60565 0.04858,-0.38662 0.324528,-1.03302 0.324528,-1.03301 a 0.10001,0.10001 0 0 0 -0.08216,-0.14056 z m -2.351278,0.38137 a 0.10001,0.10001 0 0 0 -0.0646,0.0227 0.10001,0.10001 0 0 0 -0.02584,0.12506 c 0,0 0.249804,0.4536 0.334347,0.80305 0.04261,0.17614 0.04443,0.30671 0.03721,0.39222 -0.0072,0.0855 -0.0217,0.11731 -0.0217,0.11731 l 0.01964,0.004 a 0.10001,0.10001 0 0 0 -0.02532,0.0233 v 0.002 a 0.10001,0.10001 0 0 0 0.134359,0.0744 l -0.03669,0.0331 c 0,0 0.05825,0.002 0.126607,-0.008 0.06835,-0.01 0.156107,-0.0161 0.219108,-0.10542 0.08274,-0.11727 0.09064,-0.25829 0.07028,-0.38654 -0.02036,-0.12826 -0.06816,-0.25171 -0.109554,-0.35347 -0.06711,-0.16498 -0.214594,-0.33312 -0.345715,-0.47283 -0.131121,-0.1397 -0.248047,-0.24598 -0.248047,-0.24598 a 0.10001,0.10001 0 0 0 -0.06408,-0.0248 z m -11.719181,0.96997 a 0.10001,0.10001 0 0 0 -0.06821,0.0139 0.10001,0.10001 0 0 0 -0.03721,0.12506 c 0,0 0.275433,0.64846 0.324011,1.03508 0.04881,0.38847 -0.0894,0.60358 -0.0894,0.60358 a 0.10001545,0.10001545 0 0 0 0.100252,0.15554 c 0.02625,0.003 0.06761,0.006 0.124023,0.005 0.08166,-0.002 0.182547,6.8e-4 0.262,-0.0879 0.111104,-0.12375 0.139007,-0.28712 0.132808,-0.44131 -0.0062,-0.15419 -0.04482,-0.30775 -0.0801,-0.43564 -0.05568,-0.20186 -0.208323,-0.42545 -0.345716,-0.61133 -0.137393,-0.18588 -0.261999,-0.32814 -0.261999,-0.32814 a 0.10001,0.10001 0 0 0 -0.06046,-0.0336 z m -4.882907,0.0119 a 0.10001,0.10001 0 0 0 -0.08578,0.0253 c 0,0 -0.216407,0.19984 -0.45682,0.46664 -0.240413,0.26679 -0.507893,0.59515 -0.619084,0.88522 -0.07388,0.19273 -0.1541377,0.42299 -0.1860349,0.65422 -0.00228,0.0165 -0.00341,0.033 -0.00517,0.0496 -0.01735,-0.0694 -0.037363,-0.13563 -0.056844,-0.19637 -0.063954,-0.19939 -0.2266118,-0.41938 -0.3715536,-0.59944 C 9.366564,115.1559 9.2365872,115.0197 9.2365872,115.0197 a 0.10001,0.10001 0 0 0 -0.1291911,-0.0119 0.10001,0.10001 0 0 0 -0.033073,0.12506 c 0,0 0.3024201,0.63529 0.3669027,1.01957 0.022695,0.13526 0.021362,0.24972 0.010335,0.3421 -0.00198,-0.0125 -0.00372,-0.0249 -0.0062,-0.0372 -0.025626,-0.12731 -0.077426,-0.24781 -0.1229899,-0.34778 -0.073856,-0.16208 -0.2265145,-0.3247 -0.3632853,-0.45888 -0.136771,-0.13418 -0.2578654,-0.23462 -0.2578654,-0.23462 a 0.10001,0.10001 0 0 0 -0.1483114,0.12868 c 0,0 0.2659511,0.44188 0.3648356,0.78755 0.049841,0.17423 0.056397,0.30441 0.05271,0.39015 -0.00369,0.0857 -0.015503,0.11938 -0.015503,0.11938 l 0.023771,0.004 a 0.10001,0.10001 0 0 0 -0.029456,0.0289 v 0.002 a 0.10001,0.10001 0 0 0 0.1286743,0.0703 l -0.025322,0.0253 c 0,0 0.059226,-7.4e-4 0.127124,-0.0134 0.065173,-0.012 0.1487462,-0.0208 0.2077393,-0.10283 a 0.10001,0.10001 0 0 0 0.083199,0.0362 l -0.015503,0.0155 c 0,0 0.070926,0.007 0.1524455,0.002 0.08152,-0.005 0.1836874,-0.006 0.2594157,-0.0977 0.062061,-0.0751 0.094743,-0.16293 0.1085205,-0.25373 0.022186,0.0657 0.053407,0.12889 0.096635,0.18759 0.08895,0.12086 0.235837,0.13919 0.357601,0.15399 0.121763,0.0148 0.22841,0.0119 0.22841,0.0119 l -0.02532,-0.0253 a 0.10001,0.10001 0 0 0 0.120923,-0.0765 0.10001,0.10001 0 0 0 -0.01344,-0.031 l 0.0098,-0.002 c 0,0 -0.171351,-0.49336 -0.06666,-0.98443 0.05169,-0.24244 0.221669,-0.6506 0.378789,-0.98806 0.157119,-0.33746 0.300756,-0.60926 0.300756,-0.60926 a 0.10001,0.10001 0 0 0 -0.07028,-0.1447 z m 6.545854,0.1757 a 0.10001,0.10001 0 0 0 -0.05529,0.0238 c 0,0 -0.130979,0.11179 -0.277502,0.26149 -0.146522,0.1497 -0.310387,0.33301 -0.38654,0.50953 -0.0476,0.11034 -0.102126,0.24217 -0.127124,0.38085 -0.025,0.13868 -0.02142,0.29055 0.0646,0.41806 0.06352,0.0943 0.156697,0.10525 0.230477,0.11731 0.07378,0.0121 0.138492,0.0119 0.138492,0.0119 a 0.10001,0.10001 0 0 0 0.09974,-0.11524 c 0,0 -0.0477,-0.35647 0.02532,-0.62891 0.03617,-0.13492 0.133709,-0.34873 0.220659,-0.52141 0.08695,-0.17267 0.162264,-0.30696 0.162264,-0.30696 a 0.10001,0.10001 0 0 0 -0.0646,-0.14831 0.10001,0.10001 0 0 0 -0.03049,-0.002 z m 10.983826,0.34365 h 0.0057 l -0.0057,0.006 c 3.7e-5,-1.2e-4 -4.7e-5,-0.006 0,-0.006 z m -17.080611,0.13384 a 0.10001,0.10001 0 0 0 -0.05633,0.0264 c 0,0 -0.160405,0.14844 -0.340031,0.34778 -0.179625,0.19933 -0.379093,0.44519 -0.464571,0.66818 -0.05515,0.14388 -0.116332,0.31426 -0.14056,0.48989 -0.02423,0.17563 -0.0121,0.3625 0.09922,0.51366 0.07587,0.10308 0.190795,0.11378 0.283704,0.12506 0.08978,0.0109 0.162767,0.008 0.167948,0.008 h 0.0057 l -0.0021,-0.002 a 0.10001,0.10001 0 0 0 0.09457,-0.0713 c 0.06648,0.0789 0.155345,0.084 0.225826,0.0925 0.07421,0.009 0.138493,0.006 0.138493,0.006 a 0.10001,0.10001 0 0 0 0.09405,-0.11731 c 0,0 -0.06173,-0.35575 0,-0.63097 0.03057,-0.13629 0.119199,-0.35304 0.198955,-0.52916 0.07976,-0.17612 0.150378,-0.31471 0.150378,-0.31471 a 0.10001,0.10001 0 0 0 -0.07028,-0.14418 v -5.2e-4 a 0.10001,0.10001 0 0 0 -0.08785,0.0258 c 0,0 -0.125393,0.11776 -0.265617,0.27337 -0.140225,0.15562 -0.296543,0.34397 -0.365352,0.52348 -0.01745,0.0455 -0.03501,0.095 -0.05168,0.14676 0.0074,-0.0715 0.01848,-0.14657 0.03617,-0.22479 0.105512,-0.4666 0.447518,-1.06247 0.447518,-1.06247 a 0.10001,0.10001 0 0 0 -0.06666,-0.14882 0.10001,0.10001 0 0 0 -0.03152,-0.001 z m 10.888741,0.71779 a 0.10001,0.10001 0 0 0 -0.08372,0.0336 c 0,0 -0.126156,0.14175 -0.26355,0.32763 -0.137393,0.18589 -0.28797,0.41155 -0.343648,0.6134 -0.03527,0.12789 -0.0739,0.27937 -0.0801,0.43356 -0.0062,0.15419 0.01963,0.31758 0.130742,0.44132 0.07945,0.0885 0.181886,0.0864 0.26355,0.0884 0.08167,0.002 0.152445,-0.008 0.152445,-0.008 a 0.10001,0.10001 0 0 0 0.07131,-0.0481 c 0.0617,0.0736 0.142274,0.0782 0.206189,0.0873 0.06835,0.01 0.126608,0.01 0.126608,0.01 l -0.0078,-0.008 a 0.10001,0.10001 0 0 0 0.107487,-0.1018 0.10001,0.10001 0 0 0 -0.02532,-0.0233 l 0.01757,-0.004 c 0,0 -0.01242,-0.0313 -0.01964,-0.11679 -0.0072,-0.0855 -0.0054,-0.21867 0.03721,-0.39481 0.08454,-0.34945 0.331762,-0.80098 0.331762,-0.80098 a 0.10001,0.10001 0 0 0 -0.06614,-0.14625 0.10001,0.10001 0 0 0 -0.08785,0.0233 c 0,0 -0.116925,0.10472 -0.248047,0.24443 -0.131121,0.13969 -0.276539,0.3094 -0.343648,0.47438 -0.0414,0.10176 -0.0892,0.22521 -0.109555,0.35347 -0.0019,0.0121 -0.0032,0.0244 -0.0046,0.0367 -0.01452,-0.0916 -0.02017,-0.20576 -0.0031,-0.34158 0.04858,-0.38662 0.324011,-1.03508 0.324011,-1.03508 a 0.10001,0.10001 0 0 0 -0.08165,-0.13849 z m -1.694471,0.18862 a 0.10001,0.10001 0 0 0 -0.06511,0.0222 0.10001,0.10001 0 0 0 -0.02325,0.12712 c 0,0 0.07686,0.13583 0.163814,0.30851 0.08695,0.17268 0.184492,0.38495 0.220658,0.51987 0.07302,0.27245 0.02532,0.6289 0.02532,0.6289 a 0.10001,0.10001 0 0 0 0.09973,0.11524 c 0,0 0.06316,1.6e-4 0.136943,-0.0119 0.07378,-0.0121 0.169021,-0.0209 0.232544,-0.11524 0.08603,-0.12752 0.08908,-0.27938 0.06408,-0.41806 -0.025,-0.13868 -0.079,-0.27259 -0.126608,-0.38292 -0.07615,-0.17652 -0.240534,-0.35776 -0.387056,-0.50746 -0.146517,-0.14971 -0.276986,-0.262 -0.276986,-0.262 a 0.10001,0.10001 0 0 0 -0.06408,-0.0243 z m 8.428943,0.86403 a 0.10001,0.10001 0 0 0 -0.08578,0.0258 c 0,0 -0.216406,0.19983 -0.456819,0.46663 -0.240413,0.26679 -0.506343,0.59463 -0.617534,0.8847 -0.07388,0.19273 -0.155688,0.42092 -0.187585,0.65216 -0.0023,0.0168 -0.0034,0.0338 -0.0052,0.0506 -0.01732,-0.0697 -0.03792,-0.13629 -0.05736,-0.19688 -0.06395,-0.19939 -0.224028,-0.41733 -0.36897,-0.59738 -0.144941,-0.18006 -0.277503,-0.31678 -0.277503,-0.31678 a 0.10001,0.10001 0 0 0 -0.128674,-0.0134 0.10001,0.10001 0 0 0 -0.03307,0.12661 c 0,0 0.302418,0.63529 0.366903,1.01958 0.02223,0.13246 0.02198,0.24502 0.01188,0.33641 -0.0017,-0.0106 -0.0036,-0.0211 -0.0057,-0.0315 -0.02563,-0.12731 -0.07794,-0.2478 -0.123507,-0.34778 -0.07386,-0.16207 -0.228064,-0.32679 -0.364835,-0.46096 -0.136771,-0.13418 -0.257865,-0.23409 -0.257866,-0.23409 a 0.10001,0.10001 0 0 0 -0.148311,0.13074 c 0,0 0.265951,0.44136 0.364836,0.78703 0.04984,0.17423 0.0564,0.30495 0.05271,0.39068 -0.0037,0.0857 -0.0155,0.1173 -0.0155,0.1173 l 0.0078,0.002 a 0.10001,0.10001 0 0 0 -0.01344,0.0336 v 0.002 a 0.10001,0.10001 0 0 0 0.127124,0.0703 l -0.02377,0.0253 c 0,0 0.05923,-10e-4 0.127124,-0.014 0.06775,-0.0125 0.155206,-0.0213 0.214457,-0.11266 a 0.10001,0.10001 0 0 0 0.13901,0.0171 l -0.07648,0.045 c 0,0 0.06938,0.007 0.150895,0.002 0.08152,-0.005 0.183689,-0.008 0.259416,-0.0997 0.06205,-0.0751 0.09474,-0.16194 0.10852,-0.25219 0.02219,0.066 0.05341,0.12889 0.09663,0.18759 0.08895,0.12086 0.235838,0.13971 0.357601,0.15451 0.121763,0.0148 0.22841,0.01 0.22841,0.01 l -0.02532,-0.0253 a 0.10001,0.10001 0 0 0 0.12299,-0.0744 0.10001,0.10001 0 0 0 -0.01395,-0.031 l 0.0083,-0.002 c 0,0 -0.171351,-0.49542 -0.06666,-0.9865 0.05168,-0.24244 0.221669,-0.64853 0.378788,-0.98599 0.15712,-0.33747 0.300757,-0.60926 0.300757,-0.60926 a 0.10001,0.10001 0 0 0 -0.07028,-0.1447 z m -18.810221,0.33641 h 0.0036 c 4e-5,1.1e-4 -3.6e-5,0.004 0,0.004 z m 19.259806,0.31626 a 0.10001,0.10001 0 0 0 -0.05684,0.0253 c 0,0 -0.160405,0.15001 -0.340031,0.34934 -0.179625,0.19933 -0.379094,0.44311 -0.464571,0.6661 -0.05515,0.14387 -0.116333,0.31684 -0.14056,0.49248 -0.02423,0.17563 -0.0121,0.36249 0.09922,0.51366 0.07587,0.10308 0.190279,0.11377 0.283187,0.12506 0.08978,0.0109 0.163284,0.008 0.168465,0.008 1.81e-4,-1e-5 0.0057,0 0.0057,0 l -0.0021,-0.002 a 0.10001,0.10001 0 0 0 0.0956,-0.0739 c 0.06639,0.0798 0.154057,0.085 0.224792,0.0935 0.07421,0.009 0.138493,0.008 0.138493,0.008 a 0.10001,0.10001 0 0 0 0.0956,-0.11885 c 0,0 -0.06323,-0.35574 -0.0016,-0.63097 0.03057,-0.13629 0.119199,-0.35151 0.198955,-0.52762 0.07976,-0.17612 0.150378,-0.31419 0.150378,-0.31419 a 0.10001,0.10001 0 0 0 -0.07028,-0.14469 0.10001,0.10001 0 0 0 -0.08578,0.0253 c 0,0 -0.127459,0.11568 -0.267684,0.2713 -0.140225,0.15561 -0.296543,0.34604 -0.365352,0.52555 -0.01757,0.0458 -0.03543,0.0956 -0.05219,0.14779 0.0074,-0.0725 0.01877,-0.14867 0.03669,-0.22789 0.105512,-0.46659 0.449068,-1.0604 0.449068,-1.0604 a 0.10001,0.10001 0 0 0 -0.06821,-0.14831 0.10001,0.10001 0 0 0 -0.03101,-0.002 z m -16.44034,1.38751 a 0.10001,0.10001 0 0 0 -0.0677,0.015 v -5.2e-4 a 0.10001,0.10001 0 0 0 -0.03721,0.12351 c 0,0 0.275949,0.64846 0.324528,1.03508 0.01684,0.13405 0.01078,0.24692 -0.0036,0.33796 -0.0013,-0.0112 -0.0024,-0.0225 -0.0041,-0.0336 -0.02036,-0.12826 -0.06816,-0.25169 -0.109555,-0.35346 -0.06711,-0.16498 -0.212527,-0.33468 -0.343648,-0.47439 -0.131122,-0.1397 -0.248047,-0.24443 -0.248047,-0.24443 a 0.10001,0.10001 0 0 0 -0.131258,-0.004 v 5.2e-4 a 0.10001,0.10001 0 0 0 -0.02325,0.12712 c 0,0 0.247736,0.45102 0.332279,0.80047 0.04261,0.17614 0.04391,0.30931 0.03669,0.39481 -0.0072,0.0855 -0.01912,0.11679 -0.01912,0.11679 l 0.01757,0.004 a 0.10001,0.10001 0 0 0 -0.02584,0.0233 0.10001,0.10001 0 0 0 0.134876,0.0765 l -0.03721,0.0331 c 0,0 0.06084,9e-5 0.129192,-0.01 0.0617,-0.009 0.138689,-0.0136 0.199471,-0.0801 a 0.10059074,0.10059074 0 0 0 5.16e-4,5.2e-4 0.10059074,0.10059074 0 0 0 0.109554,0.0439 c 0.02746,0.003 0.06699,0.006 0.11989,0.005 0.08166,-0.002 0.182547,6.8e-4 0.261999,-0.0878 0.111105,-0.12375 0.139007,-0.28714 0.132809,-0.44132 -0.0062,-0.15419 -0.04482,-0.30568 -0.0801,-0.43357 -0.05568,-0.20185 -0.208322,-0.42752 -0.345715,-0.6134 -0.137394,-0.18588 -0.262,-0.32814 -0.262,-0.32814 a 0.10001,0.10001 0 0 0 -0.06098,-0.0326 z m 15.252816,0.71986 h 0.0036 c 4e-5,1.1e-4 -3.5e-5,0.004 0,0.004 z m -0.999939,0.0372 0.0015,0.002 -0.0036,0.002 c 1.4e-5,-2e-5 0.002,-0.004 0.0021,-0.004 z m -7.641394,0.86197 a 0.10001,0.10001 0 0 0 -0.0677,0.015 0.10001,0.10001 0 0 0 -0.03927,0.12506 c 0,0 0.275949,0.64639 0.324528,1.03301 0.01659,0.13204 0.01104,0.24372 -0.0026,0.33435 -0.0012,-0.01 -0.002,-0.0201 -0.0036,-0.03 -0.02035,-0.12826 -0.06764,-0.2517 -0.109038,-0.35347 -0.06711,-0.16498 -0.214593,-0.33262 -0.345715,-0.47232 -0.131121,-0.13971 -0.248047,-0.2465 -0.248047,-0.2465 a 0.10001,0.10001 0 0 0 -0.129191,-0.002 0.10001,0.10001 0 0 0 -0.02532,0.12506 c 0,0 0.249287,0.45308 0.333829,0.80253 0.04261,0.17614 0.04443,0.30724 0.03721,0.39274 -0.0072,0.0855 -0.02119,0.11731 -0.02119,0.11731 l 0.01912,0.004 a 0.10001,0.10001 0 0 0 -0.02532,0.0238 v 0.002 a 0.10001,0.10001 0 0 0 0.134875,0.0744 l -0.03721,0.0331 c 0,0 0.05877,0.002 0.127124,-0.008 0.06522,-0.01 0.147651,-0.0159 0.209807,-0.094 a 0.10001,0.10001 0 0 0 0.07803,0.0501 l -0.0088,0.003 c 0,0 0.06872,0.01 0.150378,0.008 0.08166,-0.002 0.184615,6.8e-4 0.264067,-0.0879 0.111105,-0.12375 0.139006,-0.28506 0.132808,-0.43925 -0.0062,-0.15419 -0.04482,-0.30774 -0.0801,-0.43563 -0.05568,-0.20185 -0.208323,-0.42752 -0.345715,-0.6134 -0.137394,-0.18588 -0.262,-0.32815 -0.262,-0.32815 a 0.10001,0.10001 0 0 0 -0.06098,-0.0326 z m 1.662947,0.1881 a 0.10001,0.10001 0 0 0 -0.05684,0.0238 c 0,0 -0.128912,0.1123 -0.275435,0.262 -0.146522,0.1497 -0.312453,0.33146 -0.388607,0.50798 -0.0476,0.11034 -0.100059,0.24372 -0.125057,0.3824 -0.025,0.13868 -0.02142,0.29055 0.0646,0.41807 0.06352,0.0943 0.156697,0.10317 0.230477,0.11523 0.07378,0.0121 0.138493,0.0119 0.138493,0.0119 a 0.10001,0.10001 0 0 0 0.09973,-0.11317 c 0,0 -0.0477,-0.35853 0.02532,-0.63097 0.03617,-0.13492 0.131641,-0.34668 0.218591,-0.51935 0.08695,-0.17268 0.164331,-0.30902 0.164331,-0.30902 a 0.10001,0.10001 0 0 0 -0.0646,-0.14625 0.10001,0.10001 0 0 0 -0.03101,-0.003 z m -7.171655,1.48208 a 0.10001,0.10001 0 0 0 -0.04134,0.0207 0.10001,0.10001 0 0 0 -0.0217,0.12661 c 0,0 0.153109,0.26719 0.324011,0.59789 0.170903,0.33069 0.358491,0.73039 0.42013,0.97049 0.124851,0.48634 -0.02532,0.9865 -0.02532,0.9865 l 0.02119,0.004 a 0.10001,0.10001 0 0 0 -0.02532,0.0253 0.10001,0.10001 0 0 0 0.131258,0.0703 l -0.03152,0.031 c 0,0 0.107361,-0.002 0.228409,-0.0212 0.121049,-0.0198 0.265962,-0.0435 0.34985,-0.16795 0.03854,-0.0571 0.06615,-0.11805 0.08578,-0.18086 0.0135,0.0754 0.04046,0.14884 0.08578,0.216 0.07155,0.10612 0.185138,0.12133 0.277502,0.13643 0.0861,0.0141 0.152324,0.0138 0.162264,0.0139 7.24e-4,1e-5 0.01189,0.002 0.01189,0.002 l -0.0062,-0.004 a 0.10001,0.10001 0 0 0 0.100253,-0.0687 c 0.06314,0.0833 0.151611,0.0923 0.222208,0.10387 0.07378,0.0121 0.138493,0.0114 0.138493,0.0114 a 0.10001,0.10001 0 0 0 0.09974,-0.11317 c 0,0 -0.0477,-0.35852 0.02532,-0.63097 0.03617,-0.13492 0.131641,-0.34666 0.218591,-0.51934 0.08695,-0.17267 0.164332,-0.30851 0.164332,-0.30851 a 0.10001,0.10001 0 0 0 -0.0646,-0.14676 0.10001,0.10001 0 0 0 -0.08785,0.0217 c 0,0 -0.130981,0.1123 -0.277502,0.262 -0.146523,0.14969 -0.310387,0.33094 -0.38654,0.50746 -0.019,0.0441 -0.03836,0.0923 -0.05684,0.14263 0.01039,-0.0704 0.02432,-0.14416 0.04496,-0.22066 0.124664,-0.46185 0.492477,-1.04283 0.492477,-1.04283 a 0.10001,0.10001 0 0 0 -0.06046,-0.15244 h -5.16e-4 a 0.10001,0.10001 0 0 0 -0.0894,0.0217 c 0,0 -0.165773,0.14415 -0.353466,0.3359 -0.187693,0.19176 -0.399944,0.42719 -0.494544,0.64647 -0.04897,0.11351 -0.101565,0.24448 -0.136942,0.38189 -0.0034,-0.0285 -0.0084,-0.0571 -0.01344,-0.0853 -0.04141,-0.22972 -0.132689,-0.45488 -0.214458,-0.6444 -0.123057,-0.28524 -0.40353,-0.60273 -0.65474,-0.85938 -0.251211,-0.25666 -0.47439,-0.44752 -0.47439,-0.44752 a 0.10001,0.10001 0 0 0 -0.08733,-0.0222 z m -0.09095,0.85111 a 0.10001,0.10001 0 0 0 -0.0677,0.015 0.10001,0.10001 0 0 0 -0.03721,0.12299 c 0,0 0.275432,0.64845 0.324011,1.03507 0.01697,0.13504 0.01154,0.24866 -0.0031,0.34003 -0.0014,-0.0118 -0.0028,-0.0235 -0.0047,-0.0351 -0.02036,-0.12825 -0.06764,-0.2517 -0.109037,-0.35346 -0.06711,-0.16498 -0.214594,-0.33521 -0.345715,-0.47491 -0.131121,-0.13971 -0.248047,-0.24391 -0.248047,-0.24391 a 0.10001,0.10001 0 0 0 -0.129191,-0.004 0.10001,0.10001 0 0 0 -0.02326,0.12713 c 0,0 0.24722,0.45152 0.331763,0.80098 0.04261,0.17613 0.04443,0.30878 0.03721,0.39429 -0.0072,0.0855 -0.02119,0.11731 -0.02119,0.11731 l 0.01912,0.004 a 0.10001,0.10001 0 0 0 -0.02532,0.0233 0.10001,0.10001 0 0 0 0.134875,0.076 l -0.03721,0.0336 c 0,0 0.06084,-4.1e-4 0.129191,-0.0103 0.06173,-0.009 0.139188,-0.013 0.199988,-0.0796 a 0.10059068,0.10059068 0 0 0 0.110587,0.0444 c 0.02772,0.003 0.06703,0.005 0.118856,0.004 0.08167,-0.002 0.182547,6.8e-4 0.262,-0.0878 0.111104,-0.12375 0.139006,-0.28713 0.132808,-0.44132 -0.0062,-0.15418 -0.04482,-0.30568 -0.0801,-0.43356 -0.05568,-0.20186 -0.208322,-0.42752 -0.345716,-0.6134 -0.137392,-0.18589 -0.261999,-0.32814 -0.261999,-0.32814 a 0.10001,0.10001 0 0 0 -0.06098,-0.0326 z m 0.937927,1.8805 h 0.0041 l -0.0041,0.004 c 2.7e-5,-9e-5 -3.1e-5,-0.004 0,-0.004 z" /></g></svg>
