<?xml version="1.0" encoding="UTF-8" standalone="no"?>
<!-- Created with Inkscape (http://www.inkscape.org/) -->

<svg
   width="27.069298mm"
   height="23.269468mm"
   viewBox="0 0 27.069298 23.269468"
   version="1.1"
   id="svg5"
   inkscape:version="1.3 (0e150ed6c4, 2023-07-21)"
   sodipodi:docname="plain_colors.svg"
   xmlns:inkscape="http://www.inkscape.org/namespaces/inkscape"
   xmlns:sodipodi="http://sodipodi.sourceforge.net/DTD/sodipodi-0.dtd"
   xmlns="http://www.w3.org/2000/svg"
   xmlns:svg="http://www.w3.org/2000/svg">
  <sodipodi:namedview
     id="namedview7"
     pagecolor="#ffffff"
     bordercolor="#666666"
     borderopacity="1.0"
     inkscape:pageshadow="2"
     inkscape:pageopacity="0"
     inkscape:pagecheckerboard="false"
     inkscape:document-units="mm"
     showgrid="false"
     inkscape:zoom="11.950131"
     inkscape:cx="16.568856"
     inkscape:cy="50.585218"
     inkscape:window-width="956"
     inkscape:window-height="1037"
     inkscape:window-x="960"
     inkscape:window-y="0"
     inkscape:window-maximized="1"
     inkscape:current-layer="g24522"
     inkscape:showpageshadow="2"
     inkscape:deskcolor="#ffffff" />
  <defs
     id="defs2">
    <inkscape:path-effect
       effect="simplify"
       id="path-effect50785-5-6-3"
       is_visible="true"
       lpeversion="1"
       steps="1"
       threshold="0.00457143"
       smooth_angles="360"
       helper_size="0"
       simplify_individual_paths="false"
       simplify_just_coalesce="false" />
    <inkscape:path-effect
       effect="simplify"
       id="path-effect50789-6-9-9"
       is_visible="true"
       lpeversion="1"
       steps="1"
       threshold="0.00457143"
       smooth_angles="360"
       helper_size="0"
       simplify_individual_paths="false"
       simplify_just_coalesce="false" />
    <inkscape:path-effect
       effect="simplify"
       id="path-effect50793-2-3-0"
       is_visible="true"
       lpeversion="1"
       steps="1"
       threshold="0.00457143"
       smooth_angles="360"
       helper_size="0"
       simplify_individual_paths="false"
       simplify_just_coalesce="false" />
    <inkscape:path-effect
       effect="simplify"
       id="path-effect50797-9-7-8"
       is_visible="true"
       lpeversion="1"
       steps="1"
       threshold="0.00457143"
       smooth_angles="360"
       helper_size="0"
       simplify_individual_paths="false"
       simplify_just_coalesce="false" />
    <inkscape:path-effect
       effect="simplify"
       id="path-effect50801-1-4-8"
       is_visible="true"
       lpeversion="1"
       steps="1"
       threshold="0.00457143"
       smooth_angles="360"
       helper_size="0"
       simplify_individual_paths="false"
       simplify_just_coalesce="false" />
    <inkscape:path-effect
       effect="simplify"
       id="path-effect50837-2-5-5"
       is_visible="true"
       lpeversion="1"
       steps="1"
       threshold="0.00457143"
       smooth_angles="360"
       helper_size="0"
       simplify_individual_paths="false"
       simplify_just_coalesce="false" />
    <inkscape:path-effect
       effect="simplify"
       id="path-effect50841-7-2-0"
       is_visible="true"
       lpeversion="1"
       steps="1"
       threshold="0.00457143"
       smooth_angles="360"
       helper_size="0"
       simplify_individual_paths="false"
       simplify_just_coalesce="false" />
    <inkscape:path-effect
       effect="simplify"
       id="path-effect50901-0-5-9"
       is_visible="true"
       lpeversion="1"
       steps="1"
       threshold="0.00457143"
       smooth_angles="360"
       helper_size="0"
       simplify_individual_paths="false"
       simplify_just_coalesce="false" />
    <inkscape:path-effect
       effect="simplify"
       id="path-effect50905-9-4-6"
       is_visible="true"
       lpeversion="1"
       steps="1"
       threshold="0.00457143"
       smooth_angles="360"
       helper_size="0"
       simplify_individual_paths="false"
       simplify_just_coalesce="false" />
    <inkscape:path-effect
       effect="simplify"
       id="path-effect50909-3-7-3"
       is_visible="true"
       lpeversion="1"
       steps="1"
       threshold="0.00457143"
       smooth_angles="360"
       helper_size="0"
       simplify_individual_paths="false"
       simplify_just_coalesce="false" />
    <inkscape:path-effect
       effect="simplify"
       id="path-effect50913-6-4-8"
       is_visible="true"
       lpeversion="1"
       steps="1"
       threshold="0.00457143"
       smooth_angles="360"
       helper_size="0"
       simplify_individual_paths="false"
       simplify_just_coalesce="false" />
    <inkscape:path-effect
       effect="simplify"
       id="path-effect50921-0-4-5"
       is_visible="true"
       lpeversion="1"
       steps="1"
       threshold="0.00457143"
       smooth_angles="360"
       helper_size="0"
       simplify_individual_paths="false"
       simplify_just_coalesce="false" />
    <inkscape:path-effect
       effect="simplify"
       id="path-effect50925-6-3-6"
       is_visible="true"
       lpeversion="1"
       steps="1"
       threshold="0.00457143"
       smooth_angles="360"
       helper_size="0"
       simplify_individual_paths="false"
       simplify_just_coalesce="false" />
    <inkscape:path-effect
       effect="simplify"
       id="path-effect50929-2-0-1"
       is_visible="true"
       lpeversion="1"
       steps="1"
       threshold="0.00457143"
       smooth_angles="360"
       helper_size="0"
       simplify_individual_paths="false"
       simplify_just_coalesce="false" />
    <inkscape:path-effect
       effect="simplify"
       id="path-effect51121-2-7-1"
       is_visible="true"
       lpeversion="1"
       steps="1"
       threshold="0.00457143"
       smooth_angles="360"
       helper_size="0"
       simplify_individual_paths="false"
       simplify_just_coalesce="false" />
    <inkscape:path-effect
       effect="simplify"
       id="path-effect51125-3-8-5"
       is_visible="true"
       lpeversion="1"
       steps="1"
       threshold="0.00457143"
       smooth_angles="360"
       helper_size="0"
       simplify_individual_paths="false"
       simplify_just_coalesce="false" />
    <inkscape:path-effect
       effect="simplify"
       id="path-effect51129-7-6-9"
       is_visible="true"
       lpeversion="1"
       steps="1"
       threshold="0.00457143"
       smooth_angles="360"
       helper_size="0"
       simplify_individual_paths="false"
       simplify_just_coalesce="false" />
    <inkscape:path-effect
       effect="simplify"
       id="path-effect51133-5-8-8"
       is_visible="true"
       lpeversion="1"
       steps="1"
       threshold="0.00457143"
       smooth_angles="360"
       helper_size="0"
       simplify_individual_paths="false"
       simplify_just_coalesce="false" />
    <inkscape:path-effect
       effect="simplify"
       id="path-effect51137-9-8-4"
       is_visible="true"
       lpeversion="1"
       steps="1"
       threshold="0.00457143"
       smooth_angles="360"
       helper_size="0"
       simplify_individual_paths="false"
       simplify_just_coalesce="false" />
    <inkscape:path-effect
       effect="simplify"
       id="path-effect51151-2-4-8"
       is_visible="true"
       lpeversion="1"
       steps="1"
       threshold="0.00457143"
       smooth_angles="360"
       helper_size="0"
       simplify_individual_paths="false"
       simplify_just_coalesce="false" />
    <inkscape:path-effect
       effect="simplify"
       id="path-effect51155-2-3-1"
       is_visible="true"
       lpeversion="1"
       steps="1"
       threshold="0.00457143"
       smooth_angles="360"
       helper_size="0"
       simplify_individual_paths="false"
       simplify_just_coalesce="false" />
    <inkscape:path-effect
       effect="simplify"
       id="path-effect51159-8-1-0"
       is_visible="true"
       lpeversion="1"
       steps="1"
       threshold="0.00457143"
       smooth_angles="360"
       helper_size="0"
       simplify_individual_paths="false"
       simplify_just_coalesce="false" />
    <inkscape:path-effect
       effect="simplify"
       id="path-effect51163-9-4-3"
       is_visible="true"
       lpeversion="1"
       steps="1"
       threshold="0.00457143"
       smooth_angles="360"
       helper_size="0"
       simplify_individual_paths="false"
       simplify_just_coalesce="false" />
    <inkscape:path-effect
       effect="simplify"
       id="path-effect51179-7-9-0"
       is_visible="true"
       lpeversion="1"
       steps="1"
       threshold="0.00457143"
       smooth_angles="360"
       helper_size="0"
       simplify_individual_paths="false"
       simplify_just_coalesce="false" />
    <inkscape:path-effect
       effect="simplify"
       id="path-effect51183-3-2-4"
       is_visible="true"
       lpeversion="1"
       steps="1"
       threshold="0.00457143"
       smooth_angles="360"
       helper_size="0"
       simplify_individual_paths="false"
       simplify_just_coalesce="false" />
    <inkscape:path-effect
       effect="simplify"
       id="path-effect51187-6-0-4"
       is_visible="true"
       lpeversion="1"
       steps="1"
       threshold="0.00457143"
       smooth_angles="360"
       helper_size="0"
       simplify_individual_paths="false"
       simplify_just_coalesce="false" />
    <inkscape:path-effect
       effect="simplify"
       id="path-effect51191-1-6-4"
       is_visible="true"
       lpeversion="1"
       steps="1"
       threshold="0.00457143"
       smooth_angles="360"
       helper_size="0"
       simplify_individual_paths="false"
       simplify_just_coalesce="false" />
    <inkscape:path-effect
       effect="simplify"
       id="path-effect51195-2-8-4"
       is_visible="true"
       lpeversion="1"
       steps="1"
       threshold="0.00457143"
       smooth_angles="360"
       helper_size="0"
       simplify_individual_paths="false"
       simplify_just_coalesce="false" />
    <inkscape:path-effect
       effect="simplify"
       id="path-effect50749-9-7"
       is_visible="true"
       lpeversion="1"
       steps="1"
       threshold="0.00457143"
       smooth_angles="360"
       helper_size="0"
       simplify_individual_paths="false"
       simplify_just_coalesce="false" />
    <inkscape:path-effect
       effect="simplify"
       id="path-effect50757-6-3"
       is_visible="true"
       lpeversion="1"
       steps="1"
       threshold="0.00457143"
       smooth_angles="360"
       helper_size="0"
       simplify_individual_paths="false"
       simplify_just_coalesce="false" />
    <inkscape:path-effect
       effect="simplify"
       id="path-effect50761-6-1"
       is_visible="true"
       lpeversion="1"
       steps="1"
       threshold="0.00457143"
       smooth_angles="360"
       helper_size="0"
       simplify_individual_paths="false"
       simplify_just_coalesce="false" />
    <inkscape:path-effect
       effect="simplify"
       id="path-effect50765-4-7"
       is_visible="true"
       lpeversion="1"
       steps="1"
       threshold="0.00457143"
       smooth_angles="360"
       helper_size="0"
       simplify_individual_paths="false"
       simplify_just_coalesce="false" />
  </defs>
  <g
     inkscape:label="Layer 1"
     inkscape:groupmode="layer"
     id="layer1"
     transform="translate(-5.1740117,-103.89125)">
    <g
       id="g55687"
       inkscape:label="colors"
       transform="translate(92.525159,34.352837)">
      <path
         style="fill:#fffde5;fill-opacity:1;stroke:none;stroke-width:0.2;stroke-linecap:round;stroke-linejoin:round;stroke-dasharray:none"
         d="m -75.851743,92.1804 c -1.214386,-0.16378 -2.646418,0.1846 -3.63669,-0.53715 -0.84087,-0.61286 -0.637682,-2.070591 -1.379628,-2.800101 -0.883541,-0.86872 -2.567179,-0.63554 -3.361783,-1.58629 -0.705678,-0.84435 -0.357557,-2.20738 -0.856438,-3.18821 -0.530078,-1.04216 -1.955906,-1.58743 -2.201859,-2.73049 -0.246216,-1.14429 0.266915,-2.40407 0.884906,-3.39811 0.425811,-0.68491 1.340473,-0.94179 1.829919,-1.58277 0.66431,-0.86999 0.575747,-2.26297 1.418263,-2.96179 1.188022,-0.9854 3.037142,-0.62984 4.474082,-1.19341 1.751186,-0.68681 3.116266,-2.44791 4.98747,-2.64014 1.924071,-0.19766 3.778365,0.8945 5.573215,1.61535 1.208382,0.48531 2.503805,0.92812 3.462059,1.80986 0.93373,0.85918 1.282868,2.19534 2.037524,3.2154 0.542233,0.73293 1.426792,1.23572 1.780942,2.07583 0.532719,1.2637 0.332853,2.72696 0.3649,4.09798 0.03252,1.3913 0.512405,2.96161 -0.175588,4.17133 -0.785227,1.38069 -2.534273,1.96903 -3.989301,2.60603 -1.309955,0.57348 -2.890257,0.38994 -4.160133,1.047421 -1.130552,0.58535 -1.680685,2.11768 -2.899276,2.48621 -1.334766,0.40368 -2.770624,-0.32057 -4.152584,-0.50695 z"
         id="path27317"
         sodipodi:nodetypes="aaaaaaaaaaaaaaaaaaaaa" />
      <path
         id="path26333"
         style="fill:#fffbcc;fill-opacity:1;stroke:none;stroke-width:0.2;stroke-linecap:round;stroke-linejoin:round;stroke-dasharray:none"
         d="m -66.695591,73.707459 c -0.04458,7.6e-4 -0.09626,0.009 -0.155547,0.0264 -0.517027,0.15 -0.775601,0.68875 -1.306896,0.63975 -0.468353,-0.0432 -1.043097,0.34919 -1.30018,-0.18707 -0.283198,-0.59073 -0.661966,0.28065 -0.479041,0.6258 0.22758,0.42941 -0.06046,0.94682 0.165882,1.40302 0.226709,0.45694 0.703826,0.71662 1.136364,0.46715 0.428392,0.005 0.820949,0.25911 1.254704,0.20981 0.653271,-0.0743 1.229048,-0.13419 1.638144,-0.56379 0.33141,-0.34802 0.933172,-0.7186 0.804084,-1.26814 -0.108919,-0.4637 -0.977979,-0.0101 -1.305862,-0.39687 -0.222404,-0.26238 -0.02073,-0.96338 -0.451652,-0.95602 z m 2.116666,4.23075 c -0.269923,0.0129 -0.517965,0.43851 -0.337964,0.74052 0.244596,0.41043 -0.533763,0.25349 -0.769462,0.37311 -0.345492,0.17534 -0.104109,0.63684 0.114722,0.96428 0.29958,0.44827 0.904542,0.47705 1.348755,0.71675 0.440324,0.29375 1.033853,0.11033 1.459342,-0.12247 0.479554,-0.26238 0.901125,-0.6697 0.975135,-1.20509 0.07164,-0.51826 -0.488194,-0.6964 -0.868681,-0.5178 -0.361878,0.16986 -0.538965,-0.36906 -0.84646,-0.29146 -0.38182,0.0964 -0.615383,-0.21208 -0.793233,-0.48421 -0.08413,-0.12873 -0.184523,-0.17828 -0.282154,-0.17363 z m -21.49998,0.66973 c -0.435079,0.0129 -0.778278,0.63923 -0.164848,1.17615 1.049758,0.66683 1.094637,2.00401 1.745113,2.92696 0.212704,0.11449 0.18482,0.42206 0.412379,0.51986 0.73387,-0.38332 1.445646,0.0869 2.201416,0.0408 1.465157,-0.0621 1.869805,-1.69602 1.738912,-2.88923 1.183091,-0.58818 -0.173357,-1.08236 -0.671277,-0.36536 -0.459153,0.91314 -1.080958,0.38336 -1.379244,-0.34726 0.154089,-1.27762 -0.687923,0.24161 -1.147218,0.38809 -0.855486,0.46992 -1.463248,-2.19346 -1.746662,-0.68885 0.312548,0.9434 -0.303354,0.29011 -0.386023,-0.25941 -0.155547,-0.36818 -0.390068,-0.5081 -0.602548,-0.50178 z m 9.455238,0.7798 c -0.210948,0.0116 -0.20462,0.8992 -0.167433,1.25573 0.04993,0.47869 0.226562,1.006 0.643371,1.29243 0.507156,-0.11261 1.051723,-0.18886 1.484665,-0.49816 0.322835,-0.23064 0.42978,-0.6633 0.297656,-1.02474 -0.08214,-0.2247 0.06895,-0.57795 -0.198437,-0.6904 -0.383974,-0.16146 -0.811429,0.0695 -1.218014,0.0491 -0.294731,-0.0148 -0.581989,-0.18069 -0.737939,-0.33124 -0.03956,-0.0382 -0.07373,-0.0544 -0.103869,-0.0527 z m 4.579048,0.64285 c -0.05695,10e-4 -0.116106,0.0528 -0.162264,0.17673 -0.142759,0.38325 0.267904,0.7484 0.38499,1.12603 0.144841,0.46715 -0.03544,0.80072 -0.234095,1.15549 -0.343528,0.61351 0.796643,1.2195 1.308448,0.75809 0.464761,-0.19439 1.043188,-0.13467 1.42937,-0.50384 0.417334,-0.39895 0.52859,-1.03687 0.529166,-1.60817 3.89e-4,-0.38614 -0.256797,-0.8741 -0.674377,-0.6103 -0.292708,0.18491 -0.634551,0.45876 -0.941028,0.13797 -0.201337,-0.21073 -0.6408,-0.44581 -0.782381,-0.0408 -0.192579,0.55087 -0.623114,0.0787 -0.657324,-0.28267 -0.01637,-0.17299 -0.105582,-0.31056 -0.200505,-0.30851 z m 8.451164,2.77296 c -0.298078,0.003 -0.628091,0.2871 -0.712619,0.56999 -0.190567,0.63777 -1.083612,-0.3155 -1.018542,0.3328 0.0471,0.46923 -0.704353,0.15923 -1.029394,0.27543 -0.260533,0.0931 0.133334,0.56708 0.115754,0.87747 -0.04803,0.84797 1.434561,0.95366 2.048454,0.44803 0.04552,-0.0325 0.09085,-0.0647 0.136426,-0.0971 0.36484,-0.25923 0.923896,0.079 1.375626,-0.0222 0.491723,-0.11015 0.992872,-0.46374 0.959632,-1.00459 -0.02449,-0.39855 -0.771819,-0.33777 -1.096057,-0.55397 -0.41532,-0.27693 -0.226732,-0.41826 -0.460438,-0.68265 -0.0902,-0.10204 -0.202204,-0.14423 -0.318843,-0.14314 z m -14.926222,1.87327 c -0.149254,-0.002 -0.176731,0.14507 -0.321427,0.21446 -0.372381,0.17855 -0.775392,-0.0713 -1.162203,-0.0822 -0.341223,-0.01 -0.305051,0.39529 -0.234611,0.61598 0.09349,0.29289 -0.245853,0.60525 -0.0677,0.86972 0.234043,0.34743 0.731467,0.3956 1.067635,0.18552 0.09192,-0.11865 0.202116,0.0192 0.321427,0.0233 0.419862,0.0133 0.839116,-0.14122 0.974101,-0.5302 0.161849,-0.46639 0.04071,-1.08323 -0.451652,-1.26866 -0.05034,-0.019 -0.09113,-0.0275 -0.125574,-0.0279 z m 5.604309,1.51515 c -0.05734,0.002 -0.11772,0.032 -0.182933,0.10956 -0.238398,0.28361 -0.190769,0.7215 -0.08423,1.0635 0.07093,0.22768 0.301545,0.4361 0.546737,0.33331 v 5.2e-4 c 0.229435,0.11645 0.490254,0.14534 0.74414,0.14934 0.286372,0.004 0.582358,-0.0558 0.831474,0.11317 0.285896,0.19393 0.580933,-0.24118 0.659391,-0.524 0.08161,-0.29419 0.138878,-0.67611 -0.0894,-0.91932 -0.225884,-0.24069 -0.506078,0.26507 -0.665592,-0.0491 -0.198419,-0.39111 -0.813599,-0.025 -1.210779,0.006 -0.204613,0.0161 -0.361503,-0.28816 -0.548804,-0.28319 z m -3.033922,1.88361 c -0.330529,-0.005 -0.633414,0.35032 -0.949297,0.48472 -0.443138,0.18855 -0.726214,-0.0493 -1.107426,-0.0413 -0.459029,0.009 -0.409333,0.75781 -0.813904,0.95446 -0.438286,0.21306 -0.294822,0.515271 -0.05323,0.721411 0.365995,0.31229 0.924533,0.67318 1.368909,0.34003 0.141853,-0.1134 0.331732,-0.0129 0.489375,-0.0724 0.61758,-0.23278 1.319761,0.0183 1.72651,-0.45578 0.264127,-0.307871 0.357473,-0.813241 0.01964,-1.095031 -0.332989,-0.27775 -0.144089,-0.67246 -0.536919,-0.81028 -0.04848,-0.017 -0.09644,-0.0252 -0.143659,-0.0258 z" />
      <path
         id="path30087"
         style="fill:#fff9b3;fill-opacity:1;stroke:none;stroke-width:0.2;stroke-linecap:round;stroke-linejoin:round;stroke-dasharray:none"
         d="m -66.832017,75.144579 c -0.30247,0.20506 -0.688918,0.79832 -0.846066,0.12082 -0.505088,-0.003 -0.471221,0.81267 -0.939356,0.17064 -0.408631,0.18736 -1.114863,0.26347 -0.280602,0.56482 0.891708,-0.30023 1.809931,0.12835 2.721842,0.0433 0.836003,-0.0281 -0.03451,-0.98682 -0.459093,-0.60333 -0.03819,-0.10964 -0.03503,-0.29776 -0.196725,-0.29628 z m -2.066024,0.85628 0.001,5.2e-4 z m 0.05788,-0.009 c -0.172534,-7.8e-4 0.09627,0.0537 0,0 z m 4.4974,2.94917 c -0.186967,0.0847 0.136391,1.2731 -0.461473,0.74359 -0.439535,-0.6647 -0.793517,-0.002 -0.195338,0.33641 0.732921,0.3587 1.668506,-0.028 2.51956,-0.0995 0.550465,-0.67221 0.06379,-0.61939 -0.18395,-0.11507 -0.535192,0.0585 -0.604678,-0.84702 -0.964253,-0.08 -0.500807,0.0872 -0.281978,-0.76216 -0.714546,-0.78539 z m -12.099519,0.9617 c -0.259298,0.51066 0.131117,1.94436 0.966327,1.59264 1.17883,-0.0206 0.82323,-1.69248 -0.133835,-0.87844 -0.347988,-0.15451 -0.470017,-0.6039 -0.832492,-0.7142 z m -5.774325,0.92346 c -0.497263,0.22756 -0.773965,1.60075 -1.373043,0.58136 -0.487887,-0.67323 -0.740483,0.17618 -0.679557,0.54772 -0.564012,0.0637 0.30601,1.14924 0.81363,0.76213 0.903349,-0.43001 2.187926,0.30481 2.824065,-0.61374 0.366967,-0.67267 -0.251309,-1.04056 -0.761037,-0.66683 -0.317763,-0.21087 -0.253862,-0.77405 -0.824058,-0.61064 z m 12.802319,0.19533 c -0.70709,-0.0831 -0.764542,1.75497 -1.056895,0.4925 -0.763239,-0.74437 0.210891,1.64035 -0.78696,0.95977 -0.835638,-0.28327 0.186085,1.04424 0.614678,0.40659 1.046716,0.0882 1.715661,-0.86697 1.229177,-1.85886 z m 4.996078,2.87993 c -0.200319,0.4421 -0.394766,0.87804 -0.939684,0.4752 0.123607,0.54091 -0.818809,0.1849 -0.242412,0.64859 0.47553,0.12896 1.425818,-0.15451 2.125704,-0.0877 0.442954,0.22594 1.825756,-0.43422 0.868864,-0.5528 -0.412337,0.24111 -0.669683,0.0285 -0.897362,-0.23662 -0.311358,0.46832 -0.736537,0.0936 -0.91511,-0.24664 z m -14.451831,1.28416 c -0.179692,0.55149 -0.528828,0.49129 -0.851163,0.3939 -0.228342,0.85238 1.884056,0.35278 1.225296,-0.002 -0.342316,0.22521 -0.362547,-0.15338 -0.374133,-0.39176 z m 6.821805,1.60145 c -0.292817,0.33272 -0.639876,0.32284 -0.970479,0.29151 0.283436,0.68983 1.93382,0.87649 2.211751,0.091 -0.252163,-0.32982 -0.746859,0.47686 -1.241271,-0.38247 z m -4.349089,2.2531 c -0.384262,0.12411 -0.381118,1.264651 -0.524607,0.27155 -0.392299,-0.72077 -0.366459,1.269671 -0.880235,0.30982 -0.119973,0.700971 -1.376027,-0.22472 -0.559324,0.535021 0.883085,0.008 2.010149,-0.11015 2.877903,-0.365151 -6.79e-4,-0.60848 -1.016041,0.429511 -0.766517,-0.4582 0.04892,-0.0954 0.0063,-0.32166 -0.14722,-0.29304 z" />
    </g>
    <g
       id="g24522"
       inkscape:label="lines"
       transform="translate(91.082086,-6.9532353)">
      <path
         style="fill:none;stroke:#000000;stroke-width:0.1;stroke-linecap:round;stroke-linejoin:round;stroke-dasharray:none"
         d="m -64.016467,126.09229 c -0.03572,-0.0571 -0.0759,-0.11134 -0.116865,-0.16475 -0.01169,-0.0152 -0.02337,-0.0305 -0.03585,-0.0451"
         id="path50783-9-9"
         sodipodi:nodetypes="cc"
         inkscape:original-d="m -64.016467,126.09229 c -0.01687,-0.0305 -0.118678,-0.17047 -0.152711,-0.20988"
         inkscape:path-effect="#path-effect50785-5-6-3" />
      <path
         style="fill:none;stroke:#000000;stroke-width:0.1;stroke-linecap:round;stroke-linejoin:round;stroke-dasharray:none"
         d="m -63.332948,125.9115 c -0.01418,-0.0929 -0.07259,-0.17104 -0.135467,-0.23778 -0.03291,-0.0349 -0.0679,-0.0678 -0.101845,-0.10172"
         id="path50787-4-5"
         sodipodi:nodetypes="cc"
         inkscape:original-d="m -63.332948,125.9115 c -0.02233,-0.14295 -0.142308,-0.24447 -0.237312,-0.3395"
         inkscape:path-effect="#path-effect50789-6-9-9" />
      <path
         style="fill:none;stroke:#000000;stroke-width:0.1;stroke-linecap:round;stroke-linejoin:round;stroke-dasharray:none"
         d="m -62.700397,125.87151 c -6.38e-4,-0.16266 0.0015,-0.32989 0.05824,-0.48463 0.04008,-0.1092 0.120062,-0.20289 0.2233,-0.2578 0.02956,-0.0157 0.06061,-0.0286 0.09242,-0.039"
         id="path50791-7-0"
         sodipodi:nodetypes="cac"
         inkscape:original-d="m -62.700397,125.87151 c -0.0026,-0.31581 0.01413,-0.66357 0.373963,-0.78142"
         inkscape:path-effect="#path-effect50793-2-3-0" />
      <path
         style="fill:none;stroke:#000000;stroke-width:0.1;stroke-linecap:round;stroke-linejoin:round;stroke-dasharray:none"
         d="m -61.96173,125.81744 c 0.06703,-0.0556 0.131956,-0.11384 0.194419,-0.17452 0.0058,-0.006 0.01154,-0.0112 0.01711,-0.0171"
         id="path50795-8-4"
         sodipodi:nodetypes="cc"
         inkscape:original-d="m -61.96173,125.81744 c 0.03724,-0.029 0.178267,-0.15665 0.211532,-0.19159"
         inkscape:path-effect="#path-effect50797-9-7-8" />
      <path
         style="fill:none;stroke:#000000;stroke-width:0.1;stroke-linecap:round;stroke-linejoin:round;stroke-dasharray:none"
         d="m -61.220888,126.01348 c 0.0252,-0.0819 0.08594,-0.14785 0.156647,-0.19426 0.06997,-0.0459 0.148081,-0.077 0.222989,-0.11362"
         id="path50799-4-8"
         sodipodi:nodetypes="cc"
         inkscape:original-d="m -61.220888,126.01348 c 0.05803,-0.17914 0.23315,-0.23627 0.379636,-0.30788"
         inkscape:path-effect="#path-effect50801-1-4-8" />
      <path
         style="fill:none;stroke:#000000;stroke-width:0.1;stroke-linecap:round;stroke-linejoin:round;stroke-dasharray:none"
         d="m -77.860155,127.0483 c 0,-0.0517 0,-0.10345 0,-0.15517"
         id="path50835-5-7"
         sodipodi:nodetypes="cc"
         inkscape:original-d="m -77.860155,127.0483 c 0,-0.0517 0,-0.10351 0,-0.15517"
         inkscape:path-effect="#path-effect50837-2-5-5" />
      <path
         style="fill:none;stroke:#000000;stroke-width:0.1;stroke-linecap:round;stroke-linejoin:round;stroke-dasharray:none"
         d="m -77.141884,127.06385 c 0.0056,-0.0786 -0.0064,-0.15988 0.01878,-0.23618 0.01211,-0.0367 0.03671,-0.0698 0.07104,-0.0884"
         id="path50839-0-1"
         sodipodi:nodetypes="cc"
         inkscape:original-d="m -77.141884,127.06385 c 0.0083,-0.10013 -0.02309,-0.26103 0.08982,-0.32463"
         inkscape:path-effect="#path-effect50841-7-2-0" />
      <path
         style="fill:none;stroke:#000000;stroke-width:0.1;stroke-linecap:round;stroke-linejoin:round;stroke-dasharray:none"
         d="m -71.15974,128.56389 c -0.04354,-0.0829 -0.08769,-0.16546 -0.132383,-0.24773"
         id="path50899-1-7"
         sodipodi:nodetypes="cc"
         inkscape:original-d="m -71.15974,128.56389 c -0.02151,-0.0416 -0.109766,-0.2067 -0.132383,-0.24773"
         inkscape:path-effect="#path-effect50901-0-5-9" />
      <path
         style="fill:none;stroke:#000000;stroke-width:0.1;stroke-linecap:round;stroke-linejoin:round;stroke-dasharray:none"
         d="m -70.502129,128.65365 c -0.0066,-0.0934 0.03135,-0.1825 0.07704,-0.26194 0.04028,-0.07 0.08705,-0.13681 0.117759,-0.21194"
         id="path50903-1-2"
         sodipodi:nodetypes="cc"
         inkscape:original-d="m -70.502129,128.65365 c -0.01106,-0.18749 0.130277,-0.31553 0.194797,-0.47388"
         inkscape:path-effect="#path-effect50905-9-4-6" />
      <path
         style="fill:none;stroke:#000000;stroke-width:0.1;stroke-linecap:round;stroke-linejoin:round;stroke-dasharray:none"
         d="m -69.773875,128.67615 c 0.01403,-0.0475 0.03443,-0.093 0.05642,-0.13731 0.0082,-0.0165 0.01613,-0.0332 0.02638,-0.0485"
         id="path50907-5-7"
         sodipodi:nodetypes="cc"
         inkscape:original-d="m -69.773875,128.67615 c 0.0078,-0.0342 0.06307,-0.1581 0.0828,-0.18578"
         inkscape:path-effect="#path-effect50909-3-7-3" />
      <path
         style="fill:none;stroke:#000000;stroke-width:0.1;stroke-linecap:round;stroke-linejoin:round;stroke-dasharray:none"
         d="m -76.63198,131.33759 c -0.03453,-0.037 -0.07557,-0.0672 -0.116935,-0.096 -0.03935,-0.0274 -0.07871,-0.0554 -0.12217,-0.076 0,0 -0.0048,-0.002 -0.0048,-0.002"
         id="path50911-3-2"
         sodipodi:nodetypes="cc"
         inkscape:original-d="m -76.63198,131.33759 c -0.03396,-0.0411 -0.196576,-0.15697 -0.243869,-0.17386"
         inkscape:path-effect="#path-effect50913-6-4-8" />
      <path
         style="fill:none;stroke:#000000;stroke-width:0.1;stroke-linecap:round;stroke-linejoin:round;stroke-dasharray:none"
         d="m -75.920474,131.17228 c -0.160123,-0.18809 -0.276542,-0.41423 -0.471084,-0.57176"
         id="path50919-6-2"
         sodipodi:nodetypes="caac"
         inkscape:original-d="m -75.920474,131.17228 c -0.159025,-0.1862 -0.274061,-0.41152 -0.471084,-0.57176"
         inkscape:path-effect="#path-effect50921-0-4-5" />
      <path
         style="fill:none;stroke:#000000;stroke-width:0.1;stroke-linecap:round;stroke-linejoin:round;stroke-dasharray:none"
         d="m -75.222134,131.18967 c 0.06716,-0.25322 0.07497,-0.52136 0.17564,-0.76588 0.05457,-0.13256 0.150849,-0.2503 0.27979,-0.3167 0.01426,-0.007 0.02882,-0.0141 0.04362,-0.0203"
         id="path50923-1-6"
         sodipodi:nodetypes="cc"
         inkscape:original-d="m -75.222134,131.18967 c 0.102944,-0.37894 0.06945,-0.92299 0.499048,-1.10288"
         inkscape:path-effect="#path-effect50925-6-3-6" />
      <path
         style="fill:none;stroke:#000000;stroke-width:0.1;stroke-linecap:round;stroke-linejoin:round;stroke-dasharray:none"
         d="m -74.325762,131.07784 c 0.06696,-0.0913 0.134036,-0.18246 0.201155,-0.27361"
         id="path50927-0-1"
         sodipodi:nodetypes="cc"
         inkscape:original-d="m -74.325762,131.07784 c 0.02781,-0.038 0.16196,-0.22044 0.201155,-0.27361"
         inkscape:path-effect="#path-effect50929-2-0-1" />
      <path
         style="fill:none;stroke:#000000;stroke-width:0.1;stroke-linecap:round;stroke-linejoin:round;stroke-dasharray:none"
         d="m -82.51652,123.80833 c -0.03822,-0.0288 -0.07349,-0.0615 -0.106339,-0.0962 -0.0063,-0.007 -0.01264,-0.0132 -0.01805,-0.0206"
         id="path51107-5-0"
         sodipodi:nodetypes="cc"
         inkscape:original-d="m -82.51652,123.80833 c -0.02694,-0.0182 -0.109858,-0.0961 -0.124393,-0.11676"
         inkscape:path-effect="#path-effect51121-2-7-1" />
      <path
         style="fill:none;stroke:#000000;stroke-width:0.1;stroke-linecap:round;stroke-linejoin:round;stroke-dasharray:none"
         d="m -81.738185,123.63595 c -0.206557,-0.20885 -0.448331,-0.37886 -0.655827,-0.58669"
         id="path51109-4-6"
         sodipodi:nodetypes="cc"
         inkscape:original-d="m -81.738185,123.63595 c -0.20667,-0.20895 -0.448217,-0.37876 -0.655827,-0.58669"
         inkscape:path-effect="#path-effect51125-3-8-5" />
      <path
         style="fill:none;stroke:#000000;stroke-width:0.1;stroke-linecap:round;stroke-linejoin:round;stroke-dasharray:none"
         d="m -81.108935,123.51958 c -0.0042,-0.21351 0.08419,-0.41871 0.209096,-0.58825 0.07272,-0.0987 0.158262,-0.18774 0.252117,-0.2665"
         id="path51111-7-1"
         sodipodi:nodetypes="cc"
         inkscape:original-d="m -81.108935,123.51958 c -0.006,-0.33807 0.212539,-0.64634 0.461213,-0.85475"
         inkscape:path-effect="#path-effect51129-7-6-9" />
      <path
         style="fill:none;stroke:#000000;stroke-width:0.1;stroke-linecap:round;stroke-linejoin:round;stroke-dasharray:none"
         d="m -80.378054,123.51659 c 0.03558,-0.0886 0.07702,-0.17484 0.120019,-0.26007 0.01605,-0.0318 0.03186,-0.0638 0.04988,-0.0945"
         id="path51113-6-5"
         sodipodi:nodetypes="cc"
         inkscape:original-d="m -80.378054,123.51659 c 0.02268,-0.0622 0.135948,-0.2986 0.169903,-0.35459"
         inkscape:path-effect="#path-effect51133-5-8-8" />
      <path
         style="fill:none;stroke:#000000;stroke-width:0.1;stroke-linecap:round;stroke-linejoin:round;stroke-dasharray:none"
         d="m -79.649478,123.49883 c 0.02094,-0.17542 0.126432,-0.3454 0.290755,-0.41906"
         id="path51115-5-9"
         sodipodi:nodetypes="cc"
         inkscape:original-d="m -79.649478,123.49883 c 0.02147,-0.17634 0.125792,-0.3446 0.290755,-0.41906"
         inkscape:path-effect="#path-effect51137-9-8-4" />
      <path
         style="fill:none;stroke:#000000;stroke-width:0.1;stroke-linecap:round;stroke-linejoin:round;stroke-dasharray:none"
         d="m -63.182169,121.2947 c -0.07428,-0.0875 -0.150346,-0.17349 -0.227423,-0.25852"
         id="path51139-6-4"
         sodipodi:nodetypes="cc"
         inkscape:original-d="m -63.182169,121.2947 c -0.0283,-0.0348 -0.179917,-0.20718 -0.227423,-0.25852"
         inkscape:path-effect="#path-effect51151-2-4-8" />
      <path
         style="fill:none;stroke:#000000;stroke-width:0.1;stroke-linecap:round;stroke-linejoin:round;stroke-dasharray:none"
         d="m -62.470488,121.1506 c -0.111601,-0.29532 -0.281963,-0.56978 -0.506024,-0.79299"
         id="path51141-9-9"
         sodipodi:nodetypes="cc"
         inkscape:original-d="m -62.470488,121.1506 c -0.111656,-0.29547 -0.282076,-0.5699 -0.506024,-0.79299"
         inkscape:path-effect="#path-effect51155-2-3-1" />
      <path
         style="fill:none;stroke:#000000;stroke-width:0.1;stroke-linecap:round;stroke-linejoin:round;stroke-dasharray:none"
         d="m -61.830616,121.1239 c -0.005,-0.0973 -0.0076,-0.19471 -0.0084,-0.29213 0,0 5.7e-5,-0.005 5.7e-5,-0.005"
         id="path51143-3-0"
         sodipodi:nodetypes="cc"
         inkscape:original-d="m -61.830616,121.1239 c -0.0035,-0.0494 -0.0091,-0.24752 -0.0083,-0.29721"
         inkscape:path-effect="#path-effect51159-8-1-0" />
      <path
         style="fill:none;stroke:#000000;stroke-width:0.1;stroke-linecap:round;stroke-linejoin:round;stroke-dasharray:none"
         d="m -61.088149,121.1294 c -0.01358,-0.0802 0.02345,-0.16146 0.08072,-0.21664 0.03481,-0.0335 0.07749,-0.0592 0.123981,-0.0728"
         id="path51145-7-5"
         sodipodi:nodetypes="cc"
         inkscape:original-d="m -61.088149,121.1294 c -0.02117,-0.13031 0.08266,-0.25402 0.2047,-0.2894"
         inkscape:path-effect="#path-effect51163-9-4-3" />
      <path
         style="fill:none;stroke:#000000;stroke-width:0.1;stroke-linecap:round;stroke-linejoin:round;stroke-dasharray:none"
         d="m -67.253347,117.06546 c -0.03572,-0.0571 -0.0759,-0.11133 -0.116864,-0.16474 -0.01169,-0.0153 -0.02337,-0.0305 -0.03585,-0.0451"
         id="path51165-4-6"
         sodipodi:nodetypes="cc"
         inkscape:original-d="m -67.253347,117.06546 c -0.01687,-0.0305 -0.118677,-0.17047 -0.15271,-0.20987"
         inkscape:path-effect="#path-effect51179-7-9-0" />
      <path
         style="fill:none;stroke:#000000;stroke-width:0.1;stroke-linecap:round;stroke-linejoin:round;stroke-dasharray:none"
         d="m -66.606141,116.95654 c -0.01417,-0.0929 -0.07259,-0.17104 -0.135464,-0.23778 -0.03291,-0.0349 -0.0679,-0.0678 -0.101848,-0.10172"
         id="path51167-5-3"
         sodipodi:nodetypes="cc"
         inkscape:original-d="m -66.606141,116.95654 c -0.02232,-0.14295 -0.142308,-0.24447 -0.237312,-0.3395"
         inkscape:path-effect="#path-effect51183-3-2-4" />
      <path
         style="fill:none;stroke:#000000;stroke-width:0.1;stroke-linecap:round;stroke-linejoin:round;stroke-dasharray:none"
         d="m -65.956883,116.93962 c -6.39e-4,-0.16266 0.0015,-0.32989 0.05824,-0.48462 0.04008,-0.10921 0.120061,-0.2029 0.2233,-0.25781 0.02956,-0.0157 0.06061,-0.0286 0.09242,-0.039"
         id="path51169-2-9"
         sodipodi:nodetypes="cac"
         inkscape:original-d="m -65.956883,116.93962 c -0.0026,-0.3158 0.01413,-0.66357 0.373963,-0.78142"
         inkscape:path-effect="#path-effect51187-6-0-4" />
      <path
         style="fill:none;stroke:#000000;stroke-width:0.1;stroke-linecap:round;stroke-linejoin:round;stroke-dasharray:none"
         d="m -65.321803,116.88555 c 0.06703,-0.0556 0.131956,-0.11384 0.194419,-0.17452 0.0058,-0.006 0.01154,-0.0112 0.01711,-0.0171"
         id="path51171-5-4"
         sodipodi:nodetypes="cc"
         inkscape:original-d="m -65.321803,116.88555 c 0.03724,-0.029 0.178267,-0.15665 0.211532,-0.19159"
         inkscape:path-effect="#path-effect51191-1-6-4" />
      <path
         style="fill:none;stroke:#000000;stroke-width:0.1;stroke-linecap:round;stroke-linejoin:round;stroke-dasharray:none"
         d="m -64.629847,117.08159 c 0.0252,-0.0819 0.08594,-0.14785 0.156647,-0.19426 0.06996,-0.0459 0.14808,-0.077 0.222989,-0.11362"
         id="path51173-4-8"
         sodipodi:nodetypes="cc"
         inkscape:original-d="m -64.629847,117.08159 c 0.05803,-0.17914 0.233149,-0.23627 0.379636,-0.30788"
         inkscape:path-effect="#path-effect51195-2-8-4" />
      <path
         style="fill:none;stroke:#000000;stroke-width:0.1;stroke-linecap:round;stroke-linejoin:round;stroke-dasharray:none"
         d="m -69.566732,124.05604 c -0.06784,-0.0383 -0.131207,-0.0842 -0.193281,-0.13109 -0.04913,-0.0371 -0.09924,-0.0735 -0.144158,-0.11575"
         id="path50747-8"
         sodipodi:nodetypes="cc"
         inkscape:original-d="m -69.566732,124.05604 c -0.06273,-0.032 -0.287688,-0.19663 -0.337439,-0.24684"
         inkscape:path-effect="#path-effect50749-9-7" />
      <path
         style="fill:none;stroke:#000000;stroke-width:0.1;stroke-linecap:round;stroke-linejoin:round;stroke-dasharray:none"
         d="m -68.333304,123.86486 c -0.0385,-0.33167 0.05541,-0.67089 0.234299,-0.95018"
         id="path50755-8"
         sodipodi:nodetypes="cc"
         inkscape:original-d="m -68.333304,123.86486 c -0.03834,-0.33267 0.05524,-0.67017 0.234299,-0.95018"
         inkscape:path-effect="#path-effect50757-6-3" />
      <path
         style="fill:none;stroke:#000000;stroke-width:0.1;stroke-linecap:round;stroke-linejoin:round;stroke-dasharray:none"
         d="m -74.391697,122.6055 c 0.04088,-0.174 -1.41e-4,-0.35643 -0.07561,-0.51526 -0.09939,-0.20918 -0.248532,-0.38863 -0.387446,-0.57205"
         id="path50759-2"
         sodipodi:nodetypes="cc"
         inkscape:original-d="m -74.391697,122.6055 c 0.09299,-0.41185 -0.233583,-0.78381 -0.463052,-1.08731"
         inkscape:path-effect="#path-effect50761-6-1" />
      <path
         style="fill:none;stroke:#000000;stroke-width:0.1;stroke-linecap:round;stroke-linejoin:round;stroke-dasharray:none"
         d="m -73.706966,122.58011 c 0.09483,-0.14708 0.171571,-0.30695 0.288076,-0.43907"
         id="path50763-9"
         sodipodi:nodetypes="cc"
         inkscape:original-d="m -73.706966,122.58011 c 0.09485,-0.1471 0.171545,-0.30691 0.288076,-0.43907"
         inkscape:path-effect="#path-effect50765-4-7" />
    </g>
  </g>
</svg>
