<?xml version="1.0" encoding="UTF-8" standalone="no"?>
<!-- Created with Inkscape (http://www.inkscape.org/) -->

<svg
   width="25.1mm"
   height="26.5mm"
   viewBox="0 0 25.1 26.5"
   version="1.1"
   id="svg5"
   inkscape:version="1.3 (0e150ed6c4, 2023-07-21)"
   sodipodi:docname="merge.svg"
   xml:space="preserve"
   xmlns:inkscape="http://www.inkscape.org/namespaces/inkscape"
   xmlns:sodipodi="http://sodipodi.sourceforge.net/DTD/sodipodi-0.dtd"
   xmlns="http://www.w3.org/2000/svg"
   xmlns:svg="http://www.w3.org/2000/svg"
   xmlns:ns3="svglink"
   xmlns:ns4="svglink:origin"><sodipodi:namedview
     id="namedview7"
     pagecolor="#ffffff"
     bordercolor="#666666"
     borderopacity="1.0"
     inkscape:pageshadow="2"
     inkscape:pageopacity="0"
     inkscape:pagecheckerboard="false"
     inkscape:document-units="mm"
     showgrid="false"
     inkscape:zoom="14.104568"
     inkscape:cx="38.320918"
     inkscape:cy="20.737962"
     inkscape:window-width="1916"
     inkscape:window-height="1037"
     inkscape:window-x="0"
     inkscape:window-y="0"
     inkscape:window-maximized="1"
     inkscape:current-layer="g27784"
     inkscape:showpageshadow="2"
     inkscape:deskcolor="#ffffff" /><defs
     id="defs2" /><g
     inkscape:label="Layer 1"
     inkscape:groupmode="layer"
     id="g27784"
     transform="translate(74.2017,-133.648)"><g
       inkscape:label="svglink:blueprint.svg"
       ns3:href="blueprint.svg"
       ns4:x="-72.981117"
       ns4:y="142.35408"
       ns3:image-svg-dpi="200"
       ns3:image-height="36.000004"
       ns3:image-width="34.600094"
       id="g4"
       transform="translate(-5.9706,-13.456)"><title
   transform="translate(-72.9811, 142.354)"
   id="title2">Exported SVG</title>&#10;&#10;<style
   transform="translate(-72.9811, 142.354)"
   id="style2"><![CDATA[
polygon {
shape-rendering:crispEdges;
stroke-width:0.036000;
}
.s0 {
stroke:#000000;
stroke-width:0.042892;
stroke-linecap:round;
stroke-linejoin:round;
fill:none;
}
.s1 {
stroke:#000000;
stroke-width:0.042892;
stroke-linecap:round;
stroke-linejoin:round;
fill:none;
}
.s2 {
stroke:#19b219;
stroke-width:0.042892;
stroke-linecap:round;
stroke-linejoin:round;
fill:none;
}
.s3 {
stroke:#7f4c00;
stroke-width:0.042892;
stroke-linecap:round;
stroke-linejoin:round;
fill:none;
}
.s4 {
stroke:#00cc00;
stroke-width:0.042892;
stroke-linecap:round;
stroke-linejoin:round;
fill:none;
}
.s5 {
stroke:#000000;
stroke-width:0.028595;
stroke-linecap:round;
stroke-linejoin:round;
fill:none;
}
.s6 {
stroke:#ff19ff;
stroke-width:0.028595;
stroke-linecap:round;
stroke-linejoin:round;
fill:none;
}
.s7 {
stroke:#ff0000;
stroke-width:0.042892;
stroke-linecap:round;
stroke-linejoin:round;
fill:none;
}
.s8 {
stroke:#ffff00;
stroke-width:0.042892;
stroke-linecap:round;
stroke-linejoin:round;
fill:none;
}
.s9 {
stroke:#001919;
stroke-width:0.028595;
stroke-linecap:round;
stroke-linejoin:round;
fill:none;
}
.sa {
stroke:#006666;
stroke-width:0.028595;
stroke-linecap:round;
stroke-linejoin:round;
fill:none;
}
.sb {
stroke:#00ffff;
stroke-width:0.085784;
stroke-linecap:round;
stroke-linejoin:round;
fill:none;
}
.sc {
stroke:#ff0000;
stroke-width:0.228757;
stroke-linecap:round;
stroke-linejoin:round;
fill:none;
}
.sd {
stroke:#191919;
stroke-width:0.028595;
stroke-linecap:round;
stroke-linejoin:round;
fill:none;
}
.se {
stroke:#000000;
stroke-width:0.028595;
stroke-linecap:round;
stroke-linejoin:round;
stroke-dasharray:0.429,0.429;
fill:none;
}
.sf {
stroke:#000000;
stroke-width:0.085784;
stroke-linecap:round;
stroke-linejoin:round;
fill:none;
}
.s100 {
stroke:#ff0000;
stroke-width:0.500000;
stroke-linecap:round;
stroke-linejoin:round;
fill:none;
}
]]></style>&#10;<path
   d="M 5.75,14.3 A 0.75,0.75 0 0 0 5,15.05 v 5.9 a 0.75,0.75 0 0 0 0.75,0.75 h 5.8 a 0.75,0.75 0 0 1 0.75,0.75 v 7.8 A 0.75,0.75 0 0 0 13.05,31 h 8.5 a 0.75,0.75 0 0 0 0.75,-0.75 v -7.8 a 0.75,0.75 0 0 1 0.75,-0.75 h 5.8 a 0.75,0.75 0 0 0 0.75,-0.75 v -5.9 A 0.75,0.75 0 0 0 28.85,14.3 h -5.8 A 0.75,0.75 0 0 1 22.3,13.55 V 5.75 A 0.75,0.75 0 0 0 21.55,5 h -8.5 A 0.75,0.75 0 0 0 12.3,5.75 v 7.8 a 0.75,0.75 0 0 1 -0.75,0.75 h -5.8"
   class="s100"
   transform="translate(-72.9811,142.354)"
   id="path3" />&#10;<path
   d="m 6.8,19.9 v -3.8 h 0.5 20 0.5 v 0.5 2.8 0.5 h -21"
   class="s100"
   transform="translate(-72.9811,142.354)"
   id="path4" />&#10;&#10;</g><g
       inkscape:label="svglink:../symbol.svg"
       ns3:href="../symbol.svg"
       ns4:x="-67.541534"
       ns4:y="145.81647"
       ns3:image-svg-dpi="200"
       ns3:image-height="6.4356985"
       ns3:image-width="4.8579884"
       id="g21"
       transform="translate(3.3243069,6.0572877)"><sodipodi:namedview
         id="namedview2"
         pagecolor="#ffffff"
         bordercolor="#666666"
         borderopacity="1.0"
         inkscape:pageshadow="2"
         inkscape:pageopacity="0"
         inkscape:pagecheckerboard="false"
         inkscape:document-units="mm"
         showgrid="false"
         inkscape:zoom="5.4003819"
         inkscape:cx="16.665488"
         inkscape:cy="-23.424269"
         inkscape:window-width="636"
         inkscape:window-height="1037"
         inkscape:window-x="640"
         inkscape:window-y="0"
         inkscape:window-maximized="1"
         inkscape:current-layer="layer1"
         inkscape:showpageshadow="2"
         inkscape:deskcolor="#ffffff"
         transform="translate(-67.5415, 145.816)" /><defs
         id="defs3"
         transform="translate(-67.5415, 145.816)" /><g
         inkscape:label="Layer 1"
         inkscape:groupmode="layer"
         id="g20"
         transform="translate(-0.430634,0.02347)"><path
           style="fill:none;stroke:#00ff00;stroke-width:0.499999;stroke-linecap:round;stroke-linejoin:round"
           d="m -66.860931,150.602 v -0.53897 c 0,0 0.581596,0.80685 0.984021,1.08205 0.251124,0.17173 0.616862,0.13425 0.851972,0.32733 0.154198,0.12663 0.119943,0.49636 0.319236,0.50636 0.206691,0.0101 0.208844,-0.37509 0.380678,-0.4904 0.30721,-0.20611 0.769022,-0.0814 1.069291,-0.29751 0.363683,-0.26178 0.752786,-1.11377 0.752786,-1.11377 v 0.54401"
           id="path18"
           sodipodi:nodetypes="ccaaaaacc" /><path
           style="fill:none;stroke:#00ff00;stroke-width:0.499999;stroke-linecap:round;stroke-linejoin:round"
           d="m -64.689835,151.02507 v -4.45341"
           id="path19"
           sodipodi:nodetypes="cc" /><path
           style="fill:none;stroke:#00ff00;stroke-width:0.499999;stroke-linecap:round;stroke-linejoin:round"
           d="m -65.784616,147.15952 h 2.148091"
           id="path20" /><circle
           style="fill:none;stroke:#00ff00;stroke-width:0.499999;stroke-linecap:round;stroke-linejoin:round"
           id="circle20"
           cx="-64.701225"
           cy="146.30754"
           r="0.26438415" /></g></g><g
       inkscape:label="svglink:../symbol.svg"
       ns3:href="../symbol.svg"
       ns4:x="-67.541534"
       ns4:y="145.81647"
       ns3:image-svg-dpi="200"
       ns3:image-height="6.4356985"
       ns3:image-width="4.8579884"
       id="g24"
       transform="matrix(1,0,0,-1,3.3243069,287.93218)"><sodipodi:namedview
         id="namedview21"
         pagecolor="#ffffff"
         bordercolor="#666666"
         borderopacity="1.0"
         inkscape:pageshadow="2"
         inkscape:pageopacity="0"
         inkscape:pagecheckerboard="false"
         inkscape:document-units="mm"
         showgrid="false"
         inkscape:zoom="5.4003819"
         inkscape:cx="16.665488"
         inkscape:cy="-23.424269"
         inkscape:window-width="636"
         inkscape:window-height="1037"
         inkscape:window-x="640"
         inkscape:window-y="0"
         inkscape:window-maximized="1"
         inkscape:current-layer="layer1"
         inkscape:showpageshadow="2"
         inkscape:deskcolor="#ffffff"
         transform="translate(-67.5415, 145.816)" /><defs
         id="defs21"
         transform="translate(-67.5415, 145.816)" /><g
         inkscape:label="Layer 1"
         inkscape:groupmode="layer"
         id="g23"
         transform="translate(-0.430634,0.02347)"><path
           style="fill:none;stroke:#00ff00;stroke-width:0.499999;stroke-linecap:round;stroke-linejoin:round"
           d="m -66.860931,150.602 v -0.53897 c 0,0 0.581596,0.80685 0.984021,1.08205 0.251124,0.17173 0.616862,0.13425 0.851972,0.32733 0.154198,0.12663 0.119943,0.49636 0.319236,0.50636 0.206691,0.0101 0.208844,-0.37509 0.380678,-0.4904 0.30721,-0.20611 0.769022,-0.0814 1.069291,-0.29751 0.363683,-0.26178 0.752786,-1.11377 0.752786,-1.11377 v 0.54401"
           id="path21"
           sodipodi:nodetypes="ccaaaaacc" /><path
           style="fill:none;stroke:#00ff00;stroke-width:0.499999;stroke-linecap:round;stroke-linejoin:round"
           d="m -64.689835,151.02507 v -4.45341"
           id="path22"
           sodipodi:nodetypes="cc" /><path
           style="fill:none;stroke:#00ff00;stroke-width:0.499999;stroke-linecap:round;stroke-linejoin:round"
           d="m -65.784616,147.15952 h 2.148091"
           id="path23" /><circle
           style="fill:none;stroke:#00ff00;stroke-width:0.499999;stroke-linecap:round;stroke-linejoin:round"
           id="circle23"
           cx="-64.701225"
           cy="146.30754"
           r="0.26438415" /></g></g></g></svg>
