<?xml version="1.0" encoding="UTF-8" standalone="no"?>
<svg
   width="7.241488mm"
   height="3.2773609mm"
   viewBox="0 0 7.2414879 3.2773609"
   version="1.1"
   id="svg8848"
   sodipodi:docname="cloud_color.svg"
   inkscape:version="1.3.2 (091e20ef0f, 2023-11-25, custom)"
   inkscape:export-filename="1.png"
   inkscape:export-xdpi="200"
   inkscape:export-ydpi="200"
   xml:space="preserve"
   xmlns:inkscape="http://www.inkscape.org/namespaces/inkscape"
   xmlns:sodipodi="http://sodipodi.sourceforge.net/DTD/sodipodi-0.dtd"
   xmlns="http://www.w3.org/2000/svg"
   xmlns:svg="http://www.w3.org/2000/svg"
   xmlns:rdf="http://www.w3.org/1999/02/22-rdf-syntax-ns#"
   xmlns:cc="http://creativecommons.org/ns#"
   xmlns:dc="http://purl.org/dc/elements/1.1/"><defs
     id="defs8852"><defs
   id="defs7514"
   transform="translate(23.7157, 9.99819)" />
  <sodipodi:namedview
   id="namedview7516"
   pagecolor="#ffffff"
   bordercolor="#666666"
   borderopacity="1.0"
   inkscape:showpageshadow="2"
   inkscape:pageopacity="0.0"
   inkscape:pagecheckerboard="0"
   inkscape:deskcolor="#d1d1d1"
   inkscape:document-units="mm"
   showgrid="false"
   inkscape:zoom="8.0000001"
   inkscape:cx="-19.9375"
   inkscape:cy="12.75"
   inkscape:window-width="1920"
   inkscape:window-height="1080"
   inkscape:window-x="0"
   inkscape:window-y="0"
   inkscape:window-maximized="1"
   inkscape:current-layer="g2330"
   showguides="false"
   transform="translate(23.7157, 9.99819)" />
  
  <style
   id="style7520"
   transform="translate(23.7157, 9.99819)"><![CDATA[
polygon {
shape-rendering:crispEdges;
stroke-width:0.074000;
}
.s0 {
stroke:#000000;
stroke-width:0.072338;
stroke-linecap:round;
stroke-linejoin:round;
fill:none;
}
.s1 {
stroke:#000000;
stroke-width:0.072338;
stroke-linecap:round;
stroke-linejoin:round;
fill:none;
}
.s2 {
stroke:#19b219;
stroke-width:0.072338;
stroke-linecap:round;
stroke-linejoin:round;
fill:none;
}
.s3 {
stroke:#7f4c00;
stroke-width:0.072338;
stroke-linecap:round;
stroke-linejoin:round;
fill:none;
}
.s4 {
stroke:#00cc00;
stroke-width:0.072338;
stroke-linecap:round;
stroke-linejoin:round;
fill:none;
}
.s5 {
stroke:#000000;
stroke-width:0.048225;
stroke-linecap:round;
stroke-linejoin:round;
fill:none;
}
.s6 {
stroke:#ff19ff;
stroke-width:0.048225;
stroke-linecap:round;
stroke-linejoin:round;
fill:none;
}
.s7 {
stroke:#ff0000;
stroke-width:0.072338;
stroke-linecap:round;
stroke-linejoin:round;
fill:none;
}
.s8 {
stroke:#ffff00;
stroke-width:0.072338;
stroke-linecap:round;
stroke-linejoin:round;
fill:none;
}
.s9 {
stroke:#001919;
stroke-width:0.048225;
stroke-linecap:round;
stroke-linejoin:round;
fill:none;
}
.sa {
stroke:#006666;
stroke-width:0.048225;
stroke-linecap:round;
stroke-linejoin:round;
fill:none;
}
.sb {
stroke:#00ffff;
stroke-width:0.144676;
stroke-linecap:round;
stroke-linejoin:round;
fill:none;
}
.sc {
stroke:#ff0000;
stroke-width:0.385802;
stroke-linecap:round;
stroke-linejoin:round;
fill:none;
}
.sd {
stroke:#191919;
stroke-width:0.048225;
stroke-linecap:round;
stroke-linejoin:round;
fill:none;
}
.se {
stroke:#000000;
stroke-width:0.048225;
stroke-linecap:round;
stroke-linejoin:round;
stroke-dasharray:0.723,0.723;
fill:none;
}
.sf {
stroke:#000000;
stroke-width:0.144676;
stroke-linecap:round;
stroke-linejoin:round;
fill:none;
}
]]></style>
  
  

    
  
      
      
    </defs><sodipodi:namedview
     id="namedview8850"
     pagecolor="#ffffff"
     bordercolor="#666666"
     borderopacity="1.0"
     inkscape:showpageshadow="2"
     inkscape:pageopacity="0.0"
     inkscape:pagecheckerboard="0"
     inkscape:deskcolor="#d1d1d1"
     inkscape:document-units="mm"
     showgrid="false"
     inkscape:zoom="13.07482"
     inkscape:cx="16.214372"
     inkscape:cy="12.275504"
     inkscape:window-width="1916"
     inkscape:window-height="1037"
     inkscape:window-x="0"
     inkscape:window-y="0"
     inkscape:window-maximized="1"
     inkscape:current-layer="g3"
     showguides="false" /><title
     id="title8838">Exported SVG</title><style
     id="style8840"><![CDATA[
polygon {
shape-rendering:crispEdges;
stroke-width:0.074000;
}
.s0 {
stroke:#000000;
stroke-width:0.072338;
stroke-linecap:round;
stroke-linejoin:round;
fill:none;
}
.s1 {
stroke:#000000;
stroke-width:0.072338;
stroke-linecap:round;
stroke-linejoin:round;
fill:none;
}
.s2 {
stroke:#19b219;
stroke-width:0.072338;
stroke-linecap:round;
stroke-linejoin:round;
fill:none;
}
.s3 {
stroke:#7f4c00;
stroke-width:0.072338;
stroke-linecap:round;
stroke-linejoin:round;
fill:none;
}
.s4 {
stroke:#00cc00;
stroke-width:0.072338;
stroke-linecap:round;
stroke-linejoin:round;
fill:none;
}
.s5 {
stroke:#000000;
stroke-width:0.048225;
stroke-linecap:round;
stroke-linejoin:round;
fill:none;
}
.s6 {
stroke:#ff19ff;
stroke-width:0.048225;
stroke-linecap:round;
stroke-linejoin:round;
fill:none;
}
.s7 {
stroke:#ff0000;
stroke-width:0.072338;
stroke-linecap:round;
stroke-linejoin:round;
fill:none;
}
.s8 {
stroke:#ffff00;
stroke-width:0.072338;
stroke-linecap:round;
stroke-linejoin:round;
fill:none;
}
.s9 {
stroke:#001919;
stroke-width:0.048225;
stroke-linecap:round;
stroke-linejoin:round;
fill:none;
}
.sa {
stroke:#006666;
stroke-width:0.048225;
stroke-linecap:round;
stroke-linejoin:round;
fill:none;
}
.sb {
stroke:#00ffff;
stroke-width:0.144676;
stroke-linecap:round;
stroke-linejoin:round;
fill:none;
}
.sc {
stroke:#ff0000;
stroke-width:0.385802;
stroke-linecap:round;
stroke-linejoin:round;
fill:none;
}
.sd {
stroke:#191919;
stroke-width:0.048225;
stroke-linecap:round;
stroke-linejoin:round;
fill:none;
}
.se {
stroke:#000000;
stroke-width:0.048225;
stroke-linecap:round;
stroke-linejoin:round;
stroke-dasharray:0.723,0.723;
fill:none;
}
.sf {
stroke:#000000;
stroke-width:0.144676;
stroke-linecap:round;
stroke-linejoin:round;
fill:none;
}
]]></style><metadata
     id="metadata385"><rdf:RDF><cc:Work
         rdf:about=""><dc:title>Exported SVG</dc:title></cc:Work></rdf:RDF></metadata><g
     id="g206"
     transform="matrix(-1,0,0,1,-50.970055,-142.48185)"><g
       id="g3"
       inkscape:label="colors"><path
         style="fill:#f5fcff;fill-opacity:1;stroke:none;stroke-width:0.1;stroke-linecap:round;stroke-linejoin:round;stroke-dasharray:none;stroke-opacity:1"
         d="m -55.349865,142.48185 c -0.265122,8.5e-4 -0.311684,-0.006 -0.552938,0.14056 -0.241254,0.14622 -0.207998,0.83514 -0.444934,1.02785 -0.236936,0.19271 -0.499969,0.009 -0.697115,0.14314 -0.197146,0.13377 -0.204067,0.449 -0.393775,0.59997 -0.189708,0.15097 -0.554864,0.003 -0.690914,0.25579 -0.13605,0.25244 -0.128689,0.6671 0.222209,0.95808 0.350898,0.29098 1.033422,0.075 1.749764,0.0729 0.716342,-0.002 1.901443,-0.1317 2.544031,-0.11989 0.642588,0.0118 0.894806,0.15395 1.30483,0.10955 0.410024,-0.0444 0.903686,-0.14969 1.11311,-0.34365 0.209424,-0.19396 0.263743,-0.25867 0.201021,-0.50952 -0.06272,-0.25085 -0.385263,-0.42394 -0.764811,-0.65009 -0.379548,-0.22615 -1.195024,-0.47316 -1.535307,-0.59583 -0.340283,-0.12267 -0.299925,-0.0347 -0.49661,-0.16537 -0.196685,-0.13065 -0.313428,-0.53456 -0.589112,-0.67179 -0.275684,-0.13723 -0.704327,-0.25252 -0.969449,-0.25167 z"
         id="path198" /><path
         style="fill:#f2f2f2;fill-opacity:1;stroke:none;stroke-width:0.1;stroke-linecap:round;stroke-linejoin:round;stroke-dasharray:none;stroke-opacity:1"
         d="m -56.497599,145.19849 c 0.13845,0.003 0.01408,0.0747 0,0 z"
         id="path204" /><path
         style="fill:#f2f2f2;fill-opacity:1;stroke:none;stroke-width:0.1;stroke-linecap:round;stroke-linejoin:round;stroke-dasharray:none;stroke-opacity:1"
         d="m -54.239339,144.73961 c -0.04004,0.0553 -0.166783,-0.0364 0,0 z"
         id="path203" /><path
         style="fill:#f2f2f2;fill-opacity:1;stroke:none;stroke-width:0.1;stroke-linecap:round;stroke-linejoin:round;stroke-dasharray:none;stroke-opacity:1"
         d="m -53.352055,144.42282 0.02101,0.0194 z"
         id="path201" /><path
         style="fill:#f2f2f2;fill-opacity:1;stroke:none;stroke-width:0.1;stroke-linecap:round;stroke-linejoin:round;stroke-dasharray:none;stroke-opacity:1"
         d="m -53.822827,145.31166 c -0.105329,0.004 -0.07517,0.003 0,0 z"
         id="path199" /><path
         style="fill:#e5f6ff;fill-opacity:1;stroke:none;stroke-width:0.1;stroke-linecap:round;stroke-linejoin:round;stroke-dasharray:none;stroke-opacity:1"
         d="m -54.251741,143.28697 c -1.268742,-0.0699 -0.607311,1.97142 0.498222,1.27975 0.706474,-0.15712 0.615432,0.311 -0.03717,0.12398 -0.805069,-0.0745 -1.617588,-0.1816 -2.431491,-0.002 -0.558599,-0.24804 -2.290176,-0.0326 -1.247599,0.74478 1.278219,-0.25577 2.56177,-0.0309 3.862478,-0.0839 0.764204,-0.19142 1.980032,0.30783 2.447617,-0.36042 -0.241127,-0.12893 -0.791871,0.28782 -0.288751,-0.17179 -0.564057,0.0137 -1.354434,-1.05253 -2.162481,-0.91298 -0.439498,0.0571 -0.603439,-0.3297 -0.640826,-0.61707 z"
         id="path190" /></g><g
       id="g2"
       inkscape:label="lines"><path
         style="fill:none;stroke:#000000;stroke-width:0.0999999;stroke-linecap:round;stroke-linejoin:round;stroke-dasharray:none"
         d="m -54.443891,144.12426 c 0,0 0.344598,0.23712 0.530729,0.20241 0.228506,-0.0426 0.285861,-0.45994 0.51821,-0.46662 0.283347,-0.008 0.451435,0.34381 0.663591,0.53181 0.121367,0.10754 0.21025,0.2542 0.347692,0.34025 0.285756,0.17892 0.98891,0.34133 0.952107,0.34133 h -6.228556 c 0,0 0.532609,-0.0889 0.660107,-0.29317 0.0313,-0.0501 0.01427,-0.12186 -0.0065,-0.1772 -0.03097,-0.0825 -0.166911,-0.11722 -0.166575,-0.20536 3.85e-4,-0.10107 0.09434,-0.21124 0.192808,-0.23403 0.115092,-0.0266 0.241487,0.0608 0.322623,0.14669 0.07467,0.079 0.142927,0.19826 0.117983,0.30409 -0.0149,0.0632 -0.07953,0.13729 -0.144171,0.13104 -0.04541,-0.004 -0.08176,-0.10976 -0.08176,-0.10976"
         id="path19731"
         sodipodi:nodetypes="caaaascaaaaaaac" /><path
         style="fill:none;fill-opacity:1;stroke:#000000;stroke-width:0.1;stroke-linecap:round;stroke-linejoin:round;stroke-dasharray:none;stroke-opacity:1"
         d="m -53.949168,144.01758 c 0,0 -0.196727,0.0188 -0.257265,-0.0436 -0.136747,-0.14108 0.02031,-0.41519 -0.08035,-0.58391 -0.155076,-0.25993 -0.431391,-0.50851 -0.732796,-0.53621 -0.242996,-0.0223 -0.504436,0.1291 -0.659691,0.31736 -0.140255,0.17008 -0.285635,0.45322 -0.167988,0.63965 0.05781,0.0916 0.257055,-0.0279 0.319237,0.0608 0.110573,0.15772 0.06477,0.45854 -0.09198,0.5705 -0.173786,0.12413 -0.440386,-0.0132 -0.631401,-0.1087 -0.143767,-0.0719 -0.35057,-0.33111 -0.35057,-0.33111"
         id="path183"
         sodipodi:nodetypes="caaaaaaaac" /><path
         style="fill:none;fill-opacity:1;stroke:#000000;stroke-width:0.0999998;stroke-linecap:round;stroke-linejoin:round;stroke-dasharray:none;stroke-opacity:1"
         d="m -55.165945,143.44965 c 0,0 -0.0025,-0.086 0.0249,-0.1102 0.06215,-0.055 0.18129,-0.0704 0.242596,-0.0144 0.06252,0.0571 0.06609,0.18708 0.02234,0.26124 -0.03211,0.0545 -0.142294,0.0115 -0.169948,0.0686 -0.02857,0.059 -0.0017,0.15208 0.04816,0.19224 0.02495,0.0201 0.0941,-0.001 0.0941,-0.001"
         id="path184"
         sodipodi:nodetypes="caaaaac" /><path
         style="fill:none;fill-opacity:1;stroke:#000000;stroke-width:0.1;stroke-linecap:round;stroke-linejoin:round;stroke-dasharray:none;stroke-opacity:1"
         d="m -53.726347,144.83321 c 0,0 -0.09158,-0.0293 -0.09774,-0.0678 -0.0063,-0.0393 0.03535,-0.081 0.07328,-0.0955 0.128328,-0.0489 0.269746,0.0897 0.406488,0.0732 0.07622,-0.009 0.167743,-0.0305 0.209591,-0.0934 0.04018,-0.0603 0.04989,-0.16106 0.0022,-0.216 -0.03585,-0.0413 -0.117602,-0.0541 -0.164386,-0.025 -0.04098,0.0254 -0.04059,0.13666 -0.04059,0.13666"
         id="path185"
         sodipodi:nodetypes="caaaaaac" /><path
         style="fill:none;fill-opacity:1;stroke:#000000;stroke-width:0.0999999;stroke-linecap:round;stroke-linejoin:round;stroke-dasharray:none;stroke-opacity:1"
         d="m -55.783702,144.8287 c 0,0 0.01756,-0.0694 0.04758,-0.0815 0.119409,-0.0481 0.248674,0.12325 0.375293,0.0969 0.04988,-0.0104 0.115006,-0.0448 0.117793,-0.0934 0.0028,-0.0489 -0.09457,-0.0581 -0.106866,-0.10561 -0.0097,-0.0376 3.2e-5,-0.0905 0.03406,-0.11152 0.07887,-0.0488 0.201396,-0.0135 0.2794,0.0366 0.05916,0.038 0.106817,0.17689 0.106817,0.17689"
         id="path186"
         sodipodi:nodetypes="caaaaaac" /></g></g></svg>
