<?xml version="1.0" encoding="UTF-8" standalone="no"?>
<!-- Created with Inkscape (http://www.inkscape.org/) -->

<svg
   width="8.9386616mm"
   height="11.908973mm"
   viewBox="0 0 8.9386618 11.908973"
   version="1.1"
   id="svg5"
   inkscape:version="1.3 (0e150ed6c4, 2023-07-21)"
   sodipodi:docname="art.svg"
   xml:space="preserve"
   xmlns:inkscape="http://www.inkscape.org/namespaces/inkscape"
   xmlns:sodipodi="http://sodipodi.sourceforge.net/DTD/sodipodi-0.dtd"
   xmlns="http://www.w3.org/2000/svg"
   xmlns:svg="http://www.w3.org/2000/svg"><sodipodi:namedview
     id="namedview7"
     pagecolor="#ffffff"
     bordercolor="#666666"
     borderopacity="1.0"
     inkscape:pageshadow="2"
     inkscape:pageopacity="0"
     inkscape:pagecheckerboard="false"
     inkscape:document-units="mm"
     showgrid="false"
     inkscape:zoom="2.5205267"
     inkscape:cx="7.9348496"
     inkscape:cy="40.666104"
     inkscape:window-width="476"
     inkscape:window-height="1037"
     inkscape:window-x="1440"
     inkscape:window-y="0"
     inkscape:window-maximized="1"
     inkscape:current-layer="g6"
     inkscape:showpageshadow="2"
     inkscape:deskcolor="#ffffff" /><defs
     id="defs2"><clipPath
   clipPathUnits="userSpaceOnUse"
   id="clipPath4">&#10;      <path
   d="m -89.348846,133.47717 17.321,10 17.32,-10 v -20 l -17.32,-10 -17.321,10 v 20"
   class="s1"
   id="path4"
   style="fill:none;fill-opacity:1;stroke:#000000;stroke-width:0.0999998;stroke-linecap:round;stroke-linejoin:round;stroke-dasharray:none" />&#10;    </clipPath><clipPath
   clipPathUnits="userSpaceOnUse"
   id="clipPath4244"><path
     d="m -89.348846,133.47717 17.321,10 17.32,-10 v -20 l -17.32,-10 -17.321,10 v 20"
     class="s1"
     id="path4246"
     style="fill:none;fill-opacity:1;stroke:#000000;stroke-width:0.0999998;stroke-linecap:round;stroke-linejoin:round;stroke-dasharray:none" /></clipPath><sodipodi:namedview
   id="namedview2"
   pagecolor="#ffffff"
   bordercolor="#666666"
   borderopacity="1.0"
   inkscape:pageshadow="2"
   inkscape:pageopacity="0"
   inkscape:pagecheckerboard="false"
   inkscape:document-units="mm"
   showgrid="false"
   inkscape:zoom="31.855511"
   inkscape:cx="34.483829"
   inkscape:cy="15.460433"
   inkscape:window-width="1920"
   inkscape:window-height="1080"
   inkscape:window-x="0"
   inkscape:window-y="0"
   inkscape:window-maximized="1"
   inkscape:current-layer="layer1"
   inkscape:showpageshadow="2"
   inkscape:deskcolor="#ffffff"
   transform="translate(-213.518, 218.112)" /><defs
   id="defs3"
   transform="translate(-213.518, 218.112)"><clipPath
     clipPathUnits="userSpaceOnUse"
     id="clipPath7"><path
       d="m -89.348846,133.47717 17.321,10 17.32,-10 v -20 l -17.32,-10 -17.321,10 v 20"
       class="s1"
       id="path7"
       style="fill:none;fill-opacity:1;stroke:#000000;stroke-width:0.0999998;stroke-linecap:round;stroke-linejoin:round;stroke-dasharray:none" /></clipPath></defs><sodipodi:namedview
   id="namedview4"
   pagecolor="#ffffff"
   bordercolor="#666666"
   borderopacity="1.0"
   inkscape:pageshadow="2"
   inkscape:pageopacity="0"
   inkscape:pagecheckerboard="false"
   inkscape:document-units="mm"
   showgrid="false"
   inkscape:zoom="45.050496"
   inkscape:cx="13.573657"
   inkscape:cy="23.895408"
   inkscape:window-width="1920"
   inkscape:window-height="1080"
   inkscape:window-x="0"
   inkscape:window-y="0"
   inkscape:window-maximized="1"
   inkscape:current-layer="layer1"
   inkscape:showpageshadow="2"
   inkscape:deskcolor="#ffffff"
   transform="translate(-149.9, 277.177)" />&#10;  <defs
   id="defs4"
   transform="translate(-149.9, 277.177)">&#10;    <clipPath
   clipPathUnits="userSpaceOnUse"
   id="clipPath6">&#10;      <path
   d="m -89.348846,133.47717 17.321,10 17.32,-10 v -20 l -17.32,-10 -17.321,10 v 20"
   class="s1"
   id="path6"
   style="fill:none;fill-opacity:1;stroke:#000000;stroke-width:0.0999998;stroke-linecap:round;stroke-linejoin:round;stroke-dasharray:none" />&#10;    </clipPath>&#10;  </defs>&#10;  &#10;&#10;    &#10;    &#10;    &#10;    &#10;    &#10;    &#10;    &#10;    &#10;    &#10;    &#10;    &#10;    &#10;  </defs><g
     inkscape:label="Layer 1"
     inkscape:groupmode="layer"
     id="g6"
     transform="translate(62.125827,-15.816938)"><g
       id="g1"
       transform="translate(-1.6825087,30.1373)"><path
         style="fill:none;stroke:#00ff00;stroke-width:0.5;stroke-linecap:round;stroke-linejoin:round;stroke-dasharray:none"
         d="M -57.419742,-3.64867 -57.6048,-2.8999 c -0.01037,0.042 -0.07605,0.0611 -0.117927,0.052 -0.07005,-0.0154 -0.105195,-0.10038 -0.143316,-0.16157 m -0.346474,-0.55619 -0.5619,-0.90201 c -0.04342,-0.0697 -0.07882,-0.14611 -0.09897,-0.22591 -0.01283,-0.0508 -0.01548,-0.10433 -0.01292,-0.15668 h -10e-7 l 0.02667,-0.54377"
         id="path45027"
         sodipodi:nodetypes="csaccsassc" /><path
         style="fill:none;stroke:#00ff00;stroke-width:0.5;stroke-linecap:round;stroke-linejoin:round;stroke-dasharray:none"
         d="m -57.275204,-10.18046 c 0.01088,0.032 0.02263,0.0632 0.03389,0.0929 0.219965,0.57982 0.901048,0.86481 1.448581,1.14125 0.460707,0.2326 0.977785,0.45689 1.491823,0.40828 0.08414,-0.008 0.150065,-0.0131 0.213882,-0.0227 m 1.477736,-1.01487 c 0.338699,-0.43916 0.561328,-0.93806 0.65849,-1.48717 m -0.443898,-1.81794 c -0.05437,-0.0636 -0.113898,-0.11995 -0.199798,-0.2052 -0.524406,-0.52049 -1.241263,-1.00887 -1.976768,-0.98345 -0.254943,0.009 -0.452098,0.009 -0.688506,0.0998 m -1.359779,0.9645 c -0.05386,0.0631 -0.098,0.13246 -0.158654,0.22025 -0.198146,0.28676 -0.388465,0.66374 -0.456127,1.03941"
         id="path37294-3"
         sodipodi:nodetypes="csasccccssccsc" /><path
         style="fill:none;stroke:#00ff00;stroke-width:0.5;stroke-linecap:round;stroke-linejoin:round;stroke-dasharray:none"
         d="m -55.986106,-7.92365 c -0.07549,0.053 -0.208043,0.0282 -0.273148,-0.0371 -0.05487,-0.055 -0.06227,-0.15995 -0.03229,-0.23202 0.02318,-0.0557 0.09209,-0.0487 0.144514,-0.10793 0.03278,-0.037 0.06647,-0.1245 0.102357,-0.17353"
         id="path37298-9"
         sodipodi:nodetypes="caasc" /><path
         style="fill:none;stroke:#00ff00;stroke-width:0.5;stroke-linecap:round;stroke-linejoin:round;stroke-dasharray:none"
         d="m -53.216121,-8.62214 c 0.08698,-0.0129 0.171147,-0.0799 0.213643,-0.15823 0.03795,-0.07 0.06557,-0.17793 0.01514,-0.23846"
         id="path37302-4"
         sodipodi:nodetypes="cac" /><path
         style="fill:none;stroke:#00ff00;stroke-width:0.5;stroke-linecap:round;stroke-linejoin:round;stroke-dasharray:none"
         d="m -51.898833,-12.29366 c 0.04751,0.0189 0.08602,0.0643 0.107025,0.11134 0.03348,0.075 0.04829,0.16949 0.01839,0.24562"
         id="path37304-7"
         sodipodi:nodetypes="cac" /><path
         style="fill:none;stroke:#00ff00;stroke-width:0.5;stroke-linecap:round;stroke-linejoin:round;stroke-dasharray:none"
         d="m -55.789639,-13.67868 c -0.01294,-0.0682 -0.104515,-0.10049 -0.171929,-0.11279 -0.08242,-0.015 -0.176826,0.007 -0.245281,0.0549 -0.06018,0.0425 -0.125063,0.11378 -0.117701,0.18713"
         id="path37306-8"
         sodipodi:nodetypes="caac" /><path
         style="fill:none;stroke:#00ff00;stroke-width:0.5;stroke-linecap:round;stroke-linejoin:round;stroke-dasharray:none"
         d="m -52.308563,-11.95927 c -0.05566,0.0143 -0.123555,0.0743 -0.179001,0.0506"
         id="path37310-4"
         sodipodi:nodetypes="cc" /><path
         style="fill:none;stroke:#00ff00;stroke-width:0.5;stroke-linecap:round;stroke-linejoin:round;stroke-dasharray:none"
         d="m -52.902106,-12.25099 c -0.04824,-0.0375 -0.127543,-0.0147 -0.18387,0.0107"
         id="path37312-5"
         sodipodi:nodetypes="cc" /><path
         style="fill:none;stroke:#00ff00;stroke-width:0.5;stroke-linecap:round;stroke-linejoin:round;stroke-dasharray:none"
         d="m -52.970876,-11.66815 c 0,0 -0.09562,0.0269 -0.140303,0.013"
         id="path37314-0"
         sodipodi:nodetypes="cc" /><path
         style="fill:none;stroke:#00ff00;stroke-width:0.5;stroke-linecap:round;stroke-linejoin:round;stroke-dasharray:none"
         d="m -53.563768,-12.03302 c -0.04868,-0.0143 -0.09635,-0.0345 -0.14525,-0.0579"
         id="path37316-3"
         sodipodi:nodetypes="cc" /><path
         style="fill:none;stroke:#00ff00;stroke-width:0.5;stroke-linecap:round;stroke-linejoin:round;stroke-dasharray:none"
         d="m -53.987298,-12.56097 c -0.04884,-0.0553 -0.137532,-0.0823 -0.209501,-0.0672"
         id="path37318-6"
         sodipodi:nodetypes="cc" /><path
         style="fill:none;stroke:#00ff00;stroke-width:0.5;stroke-linecap:round;stroke-linejoin:round;stroke-dasharray:none"
         d="m -54.697879,-12.37262 c -0.06746,-0.0248 -0.10529,-0.0599 -0.160324,-0.095"
         id="path37320-1"
         sodipodi:nodetypes="cc" /><path
         style="fill:none;stroke:#00ff00;stroke-width:0.5;stroke-linecap:round;stroke-linejoin:round;stroke-dasharray:none"
         d="m -54.206273,-11.90156 c -0.0463,10e-4 -0.09792,-0.008 -0.133713,-0.0373"
         id="path37322-0"
         sodipodi:nodetypes="cc" /><path
         style="fill:none;stroke:#00ff00;stroke-width:0.5;stroke-linecap:round;stroke-linejoin:round;stroke-dasharray:none"
         d="m -55.044434,-12.96758 c -0.01745,-0.0534 -0.05663,-0.0745 -0.09618,-0.0971 -0.04124,-0.0236 -0.08891,-0.0643 -0.138109,-0.035"
         id="path37324-6"
         sodipodi:nodetypes="cac" /><path
         style="fill:none;stroke:#00ff00;stroke-width:0.5;stroke-linecap:round;stroke-linejoin:round;stroke-dasharray:none"
         d="m -55.787519,-13.00112 c -0.04324,-0.0397 -0.04924,-0.0347 -0.06075,-0.0927"
         id="path37326-3"
         sodipodi:nodetypes="cc" /><path
         style="fill:none;stroke:#00ff00;stroke-width:0.5;stroke-linecap:round;stroke-linejoin:round;stroke-dasharray:none"
         d="m -55.392587,-12.44478 c 0,0 -0.08765,-0.0141 -0.125159,-0.036 -0.01735,-0.0101 -0.04305,-0.0422 -0.04305,-0.0422"
         id="path37328-2"
         sodipodi:nodetypes="cac" /><path
         style="fill:none;stroke:#00ff00;stroke-width:0.5;stroke-linecap:round;stroke-linejoin:round;stroke-dasharray:none"
         d="m -54.092509,-9.64523 c -0.04316,-0.0474 -0.128558,-0.0581 -0.188008,-0.0343"
         id="path37330-0"
         sodipodi:nodetypes="cc" /><path
         style="fill:none;stroke:#00ff00;stroke-width:0.5;stroke-linecap:round;stroke-linejoin:round;stroke-dasharray:none"
         d="m -53.526642,-9.06756 c 0,0 -0.158062,0.045 -0.254422,0.0383"
         id="path37332-6"
         sodipodi:nodetypes="cc" /><path
         style="fill:none;stroke:#00ff00;stroke-width:0.5;stroke-linecap:round;stroke-linejoin:round;stroke-dasharray:none"
         d="m -54.292927,-9.06071 c -0.02624,-0.0113 -0.114229,0.01 -0.125043,-0.0172"
         id="path37334-1"
         sodipodi:nodetypes="cc" /><path
         style="fill:none;stroke:#00ff00;stroke-width:0.5;stroke-linecap:round;stroke-linejoin:round;stroke-dasharray:none"
         d="m -54.795552,-9.27597 c -0.05307,-0.006 -0.03867,-0.003 -0.07669,-0.0158"
         id="path37336-5"
         sodipodi:nodetypes="cc" /><path
         style="fill:none;stroke:#00ff00;stroke-width:0.5;stroke-linecap:round;stroke-linejoin:round;stroke-dasharray:none"
         d="m -54.855463,-9.86833 c 0.01036,-0.0497 -0.01352,-0.10842 -0.05086,-0.14211 -0.0286,-0.0258 -0.07383,-0.0233 -0.112194,-0.0275"
         id="path37338-5"
         sodipodi:nodetypes="cac" /><path
         style="fill:none;stroke:#00ff00;stroke-width:0.5;stroke-linecap:round;stroke-linejoin:round;stroke-dasharray:none"
         d="m -55.382813,-9.37123 c -0.03409,0.001 -0.06739,-0.018 -0.09572,-0.0375"
         id="path37340-4"
         sodipodi:nodetypes="cc" /><path
         style="fill:none;stroke:#00ff00;stroke-width:0.5;stroke-linecap:round;stroke-linejoin:round;stroke-dasharray:none"
         d="m -55.563001,-9.92617 c -0.01894,-0.009 -0.04415,-0.0231 -0.06465,-0.038"
         id="path37342-7"
         sodipodi:nodetypes="cc" /><path
         style="fill:none;stroke:#00ff00;stroke-width:0.5;stroke-linecap:round;stroke-linejoin:round;stroke-dasharray:none"
         d="m -55.72244,-10.52443 c -0.02027,-0.0369 -0.04887,-0.0777 -0.08932,-0.0894 -0.03464,-0.01 -0.07664,0.002 -0.105515,0.0239"
         id="path37344-6"
         sodipodi:nodetypes="cac" /><path
         style="fill:none;stroke:#00ff00;stroke-width:0.5;stroke-linecap:round;stroke-linejoin:round;stroke-dasharray:none"
         d="m -56.389215,-10.33034 c -0.08021,-0.0205 -0.105704,-0.009 -0.200319,-0.0723 -0.126563,-0.0846 -0.208937,-0.12355 -0.299708,-0.24604"
         id="path37346-5"
         sodipodi:nodetypes="csc" /><path
         style="fill:none;stroke:#00ff00;stroke-width:0.5;stroke-linecap:round;stroke-linejoin:round;stroke-dasharray:none"
         d="m -57.309895,-11.19415 c -0.03349,-0.0113 -0.105496,8.8e-4 -0.144475,0.031 -0.02483,0.0192 -0.03331,0.054 -0.04234,0.0841 -0.01887,0.0629 -0.036,0.13122 -0.02297,0.19555 0.0096,0.0474 0.03523,0.10187 0.07161,0.12613"
         id="path37348-6"
         sodipodi:nodetypes="caaac" /><path
         style="fill:none;stroke:#00ff00;stroke-width:0.5;stroke-linecap:round;stroke-linejoin:round;stroke-dasharray:none"
         d="m -56.095861,-9.7341 c -0.03544,0.009 -0.07706,0.007 -0.108943,-0.011 -0.03011,-0.0168 -0.0527,-0.049 -0.06296,-0.0821"
         id="path37350-9"
         sodipodi:nodetypes="cac" /><path
         style="fill:none;stroke:#00ff00;stroke-width:0.5;stroke-linecap:round;stroke-linejoin:round;stroke-dasharray:none"
         d="m -54.751223,-7.96837 c -0.168296,0.0923 -0.414345,0.23362 -0.551969,0.34246 -0.105422,0.0834 -0.232888,0.20472 -0.358538,0.33241"
         id="path37775-3"
         sodipodi:nodetypes="csc" /><path
         style="fill:none;stroke:#00ff00;stroke-width:0.5;stroke-linecap:round;stroke-linejoin:round;stroke-dasharray:none"
         d="m -57.04808,-7.51501 c 0.0376,-0.23885 0.09279,-0.62501 0.09742,-0.86048 0.0026,-0.13312 -0.01653,-0.34075 -0.03366,-0.49598"
         id="path37781-5"
         sodipodi:nodetypes="csc" /><path
         style="fill:none;stroke:#00ff00;stroke-width:0.5;stroke-linecap:round;stroke-linejoin:round;stroke-dasharray:none"
         d="m -57.217466,-5.25672 c 0.06041,-0.0632 0.173326,-0.092 0.255045,-0.0618 0.08941,0.0331 0.145853,0.13918 0.165456,0.23224 0.0197,0.0935 0.0091,0.21241 -0.05777,0.28144"
         id="path42371"
         sodipodi:nodetypes="caac" /><path
         style="fill:none;stroke:#00ff00;stroke-width:0.5;stroke-linecap:round;stroke-linejoin:round;stroke-dasharray:none"
         d="m -55.815559,-5.64526 c 0.04788,0.0769 0.03934,0.18932 6.06e-4,0.27085 -0.0442,0.093 -0.137313,0.18413 -0.240344,0.19538 -0.0869,0.009 -0.191844,-0.0412 -0.234914,-0.11702"
         id="path42397"
         sodipodi:nodetypes="caac" /><path
         style="fill:none;stroke:#00ff00;stroke-width:0.5;stroke-linecap:round;stroke-linejoin:round;stroke-dasharray:none"
         d="m -56.665338,-6.39302 c 0.06928,-0.0483 0.179548,-0.0519 0.253124,-0.0111 0.07915,0.044 0.126206,0.14643 0.131883,0.23652 0.0065,0.10283 -0.03076,0.22769 -0.11539,0.28757"
         id="path42399"
         sodipodi:nodetypes="caac" /><path
         style="fill:none;stroke:#00ff00;stroke-width:0.5;stroke-linecap:round;stroke-linejoin:round;stroke-dasharray:none"
         d="m -57.168678,-6.18551 c 0.03271,0.0896 -0.01146,0.20137 -0.06959,0.2766 -0.05839,0.0756 -0.155767,0.14456 -0.251646,0.13828 -0.08423,-0.006 -0.172715,-0.0715 -0.204743,-0.14937"
         id="path42401"
         sodipodi:nodetypes="caac" /><path
         style="fill:none;stroke:#00ff00;stroke-width:0.5;stroke-linecap:round;stroke-linejoin:round;stroke-dasharray:none"
         d="m -56.024511,-4.61623 -0.730727,0.35735 c -0.09477,0.0463 -0.210239,0.0633 -0.313174,0.0413 -0.102588,-0.0219 -0.207713,-0.079 -0.268452,-0.16522 m -0.209246,-0.29683 -0.562196,-0.79753 m -0.157317,-0.22317 c -0.07133,-0.1012 -0.09351,-0.24177 -0.07572,-0.36476 0.01292,-0.0893 0.04589,-0.20169 0.127732,-0.2382 l 0.701562,-0.31298 m 0.284167,-0.12677 0.622956,-0.27792 c 0.113689,-0.0507 0.255408,-0.0278 0.372431,0.0141 0.108689,0.0389 0.20912,0.11528 0.276438,0.2097 l 0.578569,0.81144 m 0.301177,0.42239 c 0.07522,0.1055 0.08404,0.26887 0.03353,0.3886 -0.04035,0.0956 -0.147731,0.15072 -0.240458,0.19606"
         id="path42403"
         sodipodi:nodetypes="csaccccasccsasccac" /><path
         style="fill:none;stroke:#00ff00;stroke-width:0.5;stroke-linecap:round;stroke-linejoin:round;stroke-dasharray:none"
         d="m -54.950867,-4.52345 -0.0853,0.23915 m -0.202861,0.56874 c -0.0251,0.0703 -0.08676,0.12252 -0.14092,0.17359 -0.07807,0.0736 -0.166025,0.13851 -0.261173,0.18758 m -0.654863,0.3377 -0.688991,0.3553"
         id="path43051"
         sodipodi:nodetypes="cccaccc" /><path
         style="fill:none;stroke:#00ff00;stroke-width:0.5;stroke-linecap:round;stroke-linejoin:round;stroke-dasharray:none"
         d="m -59.550395,-6.13341 c -0.225595,-0.39509 -0.50994,-0.92128 -0.642923,-1.28168"
         id="path45029"
         sodipodi:nodetypes="cc" /><path
         style="fill:none;stroke:#00ff00;stroke-width:0.5;stroke-linecap:round;stroke-linejoin:round;stroke-dasharray:none"
         d="m -57.793579,-9.38927 c -0.04458,-0.0907 -0.09545,-0.18975 -0.135836,-0.25594 -0.113859,-0.18662 -0.385277,-0.53016 -0.385277,-0.53016"
         id="path45031"
         sodipodi:nodetypes="csc" /><path
         style="fill:none;stroke:#00ff00;stroke-width:0.5;stroke-linecap:round;stroke-linejoin:round;stroke-dasharray:none"
         d="m -57.463311,-13.36501 c -0.119928,-0.0645 -0.264792,-0.14097 -0.363197,-0.18795 -0.200838,-0.0959 -0.613417,-0.26329 -0.613417,-0.26329"
         id="path45033"
         sodipodi:nodetypes="csc" /></g></g></svg>
