<?xml version="1.0" encoding="UTF-8" standalone="no"?>
<svg
   width="16.072338mm"
   height="16.072338mm"
   viewBox="0 0 16.072338 16.072338"
   version="1.1"
   id="svg8848"
   sodipodi:docname="5_color.svg"
   inkscape:version="1.3.2 (091e20ef0f, 2023-11-25, custom)"
   inkscape:export-filename="5.png"
   inkscape:export-xdpi="400"
   inkscape:export-ydpi="400"
   xmlns:inkscape="http://www.inkscape.org/namespaces/inkscape"
   xmlns:sodipodi="http://sodipodi.sourceforge.net/DTD/sodipodi-0.dtd"
   xmlns="http://www.w3.org/2000/svg"
   xmlns:svg="http://www.w3.org/2000/svg"
   xmlns:rdf="http://www.w3.org/1999/02/22-rdf-syntax-ns#"
   xmlns:cc="http://creativecommons.org/ns#"
   xmlns:dc="http://purl.org/dc/elements/1.1/"
   xmlns:ns3="svglink"
   xmlns:ns4="svglink:origin">
  <sodipodi:namedview
     id="namedview8850"
     pagecolor="#ffffff"
     bordercolor="#666666"
     borderopacity="1.0"
     inkscape:showpageshadow="2"
     inkscape:pageopacity="0.0"
     inkscape:pagecheckerboard="0"
     inkscape:deskcolor="#d1d1d1"
     inkscape:document-units="mm"
     showgrid="false"
     inkscape:zoom="11.07428"
     inkscape:cx="45.194813"
     inkscape:cy="30.385723"
     inkscape:window-width="1916"
     inkscape:window-height="1037"
     inkscape:window-x="0"
     inkscape:window-y="0"
     inkscape:window-maximized="1"
     inkscape:current-layer="svg8848"
     showguides="false" />
  <defs
     id="defs8852" />
  <title
     id="title8838">Exported SVG</title>
  <style
     id="style8840"><![CDATA[
polygon {
shape-rendering:crispEdges;
stroke-width:0.074000;
}
.s0 {
stroke:#000000;
stroke-width:0.072338;
stroke-linecap:round;
stroke-linejoin:round;
fill:none;
}
.s1 {
stroke:#000000;
stroke-width:0.072338;
stroke-linecap:round;
stroke-linejoin:round;
fill:none;
}
.s2 {
stroke:#19b219;
stroke-width:0.072338;
stroke-linecap:round;
stroke-linejoin:round;
fill:none;
}
.s3 {
stroke:#7f4c00;
stroke-width:0.072338;
stroke-linecap:round;
stroke-linejoin:round;
fill:none;
}
.s4 {
stroke:#00cc00;
stroke-width:0.072338;
stroke-linecap:round;
stroke-linejoin:round;
fill:none;
}
.s5 {
stroke:#000000;
stroke-width:0.048225;
stroke-linecap:round;
stroke-linejoin:round;
fill:none;
}
.s6 {
stroke:#ff19ff;
stroke-width:0.048225;
stroke-linecap:round;
stroke-linejoin:round;
fill:none;
}
.s7 {
stroke:#ff0000;
stroke-width:0.072338;
stroke-linecap:round;
stroke-linejoin:round;
fill:none;
}
.s8 {
stroke:#ffff00;
stroke-width:0.072338;
stroke-linecap:round;
stroke-linejoin:round;
fill:none;
}
.s9 {
stroke:#001919;
stroke-width:0.048225;
stroke-linecap:round;
stroke-linejoin:round;
fill:none;
}
.sa {
stroke:#006666;
stroke-width:0.048225;
stroke-linecap:round;
stroke-linejoin:round;
fill:none;
}
.sb {
stroke:#00ffff;
stroke-width:0.144676;
stroke-linecap:round;
stroke-linejoin:round;
fill:none;
}
.sc {
stroke:#ff0000;
stroke-width:0.385802;
stroke-linecap:round;
stroke-linejoin:round;
fill:none;
}
.sd {
stroke:#191919;
stroke-width:0.048225;
stroke-linecap:round;
stroke-linejoin:round;
fill:none;
}
.se {
stroke:#000000;
stroke-width:0.048225;
stroke-linecap:round;
stroke-linejoin:round;
stroke-dasharray:0.723,0.723;
fill:none;
}
.sf {
stroke:#000000;
stroke-width:0.144676;
stroke-linecap:round;
stroke-linejoin:round;
fill:none;
}
]]></style>
  <metadata
     id="metadata385">
    <rdf:RDF>
      <cc:Work
         rdf:about="">
        <dc:title>Exported SVG</dc:title>
      </cc:Work>
    </rdf:RDF>
  </metadata>
  <g
     inkscape:label="svglink:drop_color.svg"
     ns3:href="drop_color.svg"
     ns4:x="4.2131853"
     ns4:y="4.8585572"
     id="g9420"
     transform="translate(-1.216098,-2.6999818)">
    <sodipodi:namedview
       id="namedview1"
       pagecolor="#ffffff"
       bordercolor="#666666"
       borderopacity="1.0"
       inkscape:showpageshadow="2"
       inkscape:pageopacity="0.0"
       inkscape:pagecheckerboard="0"
       inkscape:deskcolor="#d1d1d1"
       inkscape:document-units="mm"
       showgrid="false"
       inkscape:zoom="5.76564"
       inkscape:cx="-0.69376513"
       inkscape:cy="24.3685"
       inkscape:window-width="956"
       inkscape:window-height="1037"
       inkscape:window-x="0"
       inkscape:window-y="0"
       inkscape:window-maximized="1"
       inkscape:current-layer="svg8848"
       showguides="false"
       transform="translate(4.21319, 4.85856)" />
    <defs
       id="defs1"
       transform="translate(4.21319, 4.85856)" />
    <title
       id="title1"
       transform="translate(4.21319, 4.85856)">Exported SVG</title>
    <style
       id="style1"
       transform="translate(4.21319, 4.85856)"><![CDATA[
polygon {
shape-rendering:crispEdges;
stroke-width:0.074000;
}
.s0 {
stroke:#000000;
stroke-width:0.072338;
stroke-linecap:round;
stroke-linejoin:round;
fill:none;
}
.s1 {
stroke:#000000;
stroke-width:0.072338;
stroke-linecap:round;
stroke-linejoin:round;
fill:none;
}
.s2 {
stroke:#19b219;
stroke-width:0.072338;
stroke-linecap:round;
stroke-linejoin:round;
fill:none;
}
.s3 {
stroke:#7f4c00;
stroke-width:0.072338;
stroke-linecap:round;
stroke-linejoin:round;
fill:none;
}
.s4 {
stroke:#00cc00;
stroke-width:0.072338;
stroke-linecap:round;
stroke-linejoin:round;
fill:none;
}
.s5 {
stroke:#000000;
stroke-width:0.048225;
stroke-linecap:round;
stroke-linejoin:round;
fill:none;
}
.s6 {
stroke:#ff19ff;
stroke-width:0.048225;
stroke-linecap:round;
stroke-linejoin:round;
fill:none;
}
.s7 {
stroke:#ff0000;
stroke-width:0.072338;
stroke-linecap:round;
stroke-linejoin:round;
fill:none;
}
.s8 {
stroke:#ffff00;
stroke-width:0.072338;
stroke-linecap:round;
stroke-linejoin:round;
fill:none;
}
.s9 {
stroke:#001919;
stroke-width:0.048225;
stroke-linecap:round;
stroke-linejoin:round;
fill:none;
}
.sa {
stroke:#006666;
stroke-width:0.048225;
stroke-linecap:round;
stroke-linejoin:round;
fill:none;
}
.sb {
stroke:#00ffff;
stroke-width:0.144676;
stroke-linecap:round;
stroke-linejoin:round;
fill:none;
}
.sc {
stroke:#ff0000;
stroke-width:0.385802;
stroke-linecap:round;
stroke-linejoin:round;
fill:none;
}
.sd {
stroke:#191919;
stroke-width:0.048225;
stroke-linecap:round;
stroke-linejoin:round;
fill:none;
}
.se {
stroke:#000000;
stroke-width:0.048225;
stroke-linecap:round;
stroke-linejoin:round;
stroke-dasharray:0.723,0.723;
fill:none;
}
.sf {
stroke:#000000;
stroke-width:0.144676;
stroke-linecap:round;
stroke-linejoin:round;
fill:none;
}
]]></style>
    <metadata
       id="metadata1"
       transform="translate(4.21319, 4.85856)">
      <rdf:RDF>
        <cc:Work
           rdf:about="">
          <dc:title>Exported SVG</dc:title>
        </cc:Work>
      </rdf:RDF>
    </metadata>
    <g
       id="g7478"
       transform="translate(4.21319, 4.85856)">
      <path
         id="path5548"
         style="fill:#e5f2ff;fill-opacity:1;stroke-width:0.3;stroke-linecap:round;stroke-linejoin:round"
         d="m 23.534858,7.2065039 c -0.524087,0.094268 -0.571634,0.7161017 -0.829784,1.0823398 -0.309449,0.4458709 -0.788714,0.8252382 -0.834472,1.4049245 -0.08877,0.5783108 -0.36931,1.1003028 -0.503101,1.6640338 -0.121375,0.715267 -0.02025,1.53159 0.462027,2.099263 0.576762,0.614247 1.518563,0.817969 2.312083,0.556612 0.506259,-0.22315 1.279053,0.108771 1.549916,-0.520638 0.431622,-0.791105 0.249884,-1.731679 0.07413,-2.567534 C 25.532173,10.146847 24.827925,9.6376023 24.51275,8.905882 24.318429,8.4161991 24.537774,7.7838054 24.053819,7.421089 23.911562,7.2942715 23.727136,7.2100744 23.534858,7.2065039 Z"
         transform="translate(-21.320667,-7.2065039)" />
      <path
         style="fill:#cce5ff;fill-opacity:1;stroke-width:0.3;stroke-linecap:round;stroke-linejoin:round"
         d="m 22.883649,13.340761 c -0.334763,-0.316249 -0.877805,-0.445589 -1.00672,-0.944948 -0.259132,-0.62096 -0.177405,-1.32795 0.08554,-1.932895 0.169911,-0.397491 0.177768,-0.9567017 0.609317,-1.1723905 0.380832,-0.046593 0.404606,-0.4921282 0.448123,-0.7891813 0.09992,-0.3237931 0.337223,-0.7697332 0.721345,-0.7601614 0.451914,0.1470084 0.42922,0.7081358 0.538034,1.0855306 0.204978,0.8762687 0.940135,1.5176676 1.148597,2.3960746 0.150412,0.739376 0.03524,1.612633 -0.526995,2.159802 -0.490545,0.414823 -1.237887,0.574207 -1.826302,0.286238 -0.09751,-0.08789 -0.101932,-0.234029 -0.190935,-0.328069 z"
         id="path6263"
         sodipodi:nodetypes="aaaaaaaaaaaaa"
         transform="translate(-21.320667,-7.2065039)" />
      <path
         id="path6340"
         style="fill:#b3d8ff;fill-opacity:1;stroke-width:0.3;stroke-linecap:round;stroke-linejoin:round"
         d="m 23.42427,8.4240007 c -0.414243,0.067078 -0.361745,0.6017616 -0.263389,0.9009231 0.156158,0.4326064 0.650359,0.567813 0.896703,0.9345842 0.374904,0.352772 -0.088,0.660594 -0.355188,0.871612 -0.377059,0.285898 -0.300761,0.974849 0.18964,1.087327 0.318138,0.456647 -0.355537,0.3307 -0.593894,0.19627 -0.563643,-0.09316 -0.430469,0.699588 -0.09935,0.893739 0.560514,0.3705 1.249853,0.0893 1.826657,-0.09042 0.522859,-0.167529 0.68078,-0.771124 0.618697,-1.261637 -0.04849,-0.913685 -0.622994,-1.661398 -1.103225,-2.3962796 -0.298,-0.4308119 -0.478658,-1.1281328 -1.116654,-1.1361167 z m -0.812354,0.3622518 c -0.371439,0.2510409 0.09779,0.7975104 -0.243513,1.1247291 -0.193876,0.5439664 -0.670441,0.9884174 -0.647218,1.5993964 -0.104641,0.362084 0.190179,0.844819 0.591025,0.602402 0.416743,-0.267932 0.752622,-0.675711 0.833303,-1.176033 0.148397,-0.628653 0.0248,-1.2934346 -0.196868,-1.888662 -0.06471,-0.1326909 -0.183751,-0.2473871 -0.336729,-0.2618325 z"
         transform="translate(-21.320667,-7.2065039)" />
      <path
         id="path6493"
         style="fill:#99cbff;fill-opacity:1;stroke-width:0.3;stroke-linecap:round;stroke-linejoin:round"
         d="m 24.736851,9.9872128 c -0.243844,0.2772812 -0.10605,0.7246962 -0.414805,0.9838682 -0.178615,0.397107 -0.908822,0.354341 -0.876748,0.827795 0.118337,0.32867 0.959286,0.279147 0.528218,0.738608 -0.392641,0.01777 -0.599966,0.448091 -0.184117,0.655989 0.339496,0.186289 0.87586,0.279968 1.160798,-0.05203 0.277849,-0.441727 0.614097,-0.918743 0.522794,-1.472349 -0.01503,-0.548243 -0.01328,-1.198511 -0.448579,-1.59727 -0.08362,-0.05733 -0.18534,-0.092477 -0.287561,-0.084608 z m -2.47375,0.6061642 c -0.431751,0.116228 -0.306981,0.661366 -0.343501,0.998231 -0.193017,0.529489 0.403981,1.000815 0.805866,0.545202 -0.07672,-0.386258 0.115155,-0.823418 -0.103714,-1.187945 -0.08065,-0.145324 -0.164059,-0.347802 -0.358651,-0.355488 z m 0.471289,1.64021 c 0.0351,0.08855 0.108797,-0.01183 0,0 z"
         transform="translate(-21.320667,-7.2065039)" />
    </g>
    <g
       inkscape:label="svglink:drop.svg"
       ns3:href="drop.svg"
       ns4:x="23.715717"
       ns4:y="9.998189"
       id="g7532"
       transform="translate(-19.2752, -4.15357)">
      <defs
         id="defs2"
         transform="translate(23.7157, 9.99819)" />
      <sodipodi:namedview
         id="namedview2"
         pagecolor="#ffffff"
         bordercolor="#666666"
         borderopacity="1.0"
         inkscape:showpageshadow="2"
         inkscape:pageopacity="0.0"
         inkscape:pagecheckerboard="0"
         inkscape:deskcolor="#d1d1d1"
         inkscape:document-units="mm"
         showgrid="false"
         inkscape:zoom="16"
         inkscape:cx="14.875"
         inkscape:cy="20.09375"
         inkscape:window-width="956"
         inkscape:window-height="1037"
         inkscape:window-x="960"
         inkscape:window-y="0"
         inkscape:window-maximized="1"
         inkscape:current-layer="g5059"
         showguides="false"
         transform="translate(23.7157, 9.99819)" />
      <title
         id="title2"
         transform="translate(23.7157, 9.99819)">Exported SVG</title>
      <style
         id="style2"
         transform="translate(23.7157, 9.99819)"><![CDATA[
polygon {
shape-rendering:crispEdges;
stroke-width:0.074000;
}
.s0 {
stroke:#000000;
stroke-width:0.072338;
stroke-linecap:round;
stroke-linejoin:round;
fill:none;
}
.s1 {
stroke:#000000;
stroke-width:0.072338;
stroke-linecap:round;
stroke-linejoin:round;
fill:none;
}
.s2 {
stroke:#19b219;
stroke-width:0.072338;
stroke-linecap:round;
stroke-linejoin:round;
fill:none;
}
.s3 {
stroke:#7f4c00;
stroke-width:0.072338;
stroke-linecap:round;
stroke-linejoin:round;
fill:none;
}
.s4 {
stroke:#00cc00;
stroke-width:0.072338;
stroke-linecap:round;
stroke-linejoin:round;
fill:none;
}
.s5 {
stroke:#000000;
stroke-width:0.048225;
stroke-linecap:round;
stroke-linejoin:round;
fill:none;
}
.s6 {
stroke:#ff19ff;
stroke-width:0.048225;
stroke-linecap:round;
stroke-linejoin:round;
fill:none;
}
.s7 {
stroke:#ff0000;
stroke-width:0.072338;
stroke-linecap:round;
stroke-linejoin:round;
fill:none;
}
.s8 {
stroke:#ffff00;
stroke-width:0.072338;
stroke-linecap:round;
stroke-linejoin:round;
fill:none;
}
.s9 {
stroke:#001919;
stroke-width:0.048225;
stroke-linecap:round;
stroke-linejoin:round;
fill:none;
}
.sa {
stroke:#006666;
stroke-width:0.048225;
stroke-linecap:round;
stroke-linejoin:round;
fill:none;
}
.sb {
stroke:#00ffff;
stroke-width:0.144676;
stroke-linecap:round;
stroke-linejoin:round;
fill:none;
}
.sc {
stroke:#ff0000;
stroke-width:0.385802;
stroke-linecap:round;
stroke-linejoin:round;
fill:none;
}
.sd {
stroke:#191919;
stroke-width:0.048225;
stroke-linecap:round;
stroke-linejoin:round;
fill:none;
}
.se {
stroke:#000000;
stroke-width:0.048225;
stroke-linecap:round;
stroke-linejoin:round;
stroke-dasharray:0.723,0.723;
fill:none;
}
.sf {
stroke:#000000;
stroke-width:0.144676;
stroke-linecap:round;
stroke-linejoin:round;
fill:none;
}
]]></style>
      <metadata
         id="metadata2"
         transform="translate(23.7157, 9.99819)">
        <rdf:RDF>
          <cc:Work
             rdf:about="">
            <dc:title>Exported SVG</dc:title>
          </cc:Work>
        </rdf:RDF>
      </metadata>
      <g
         id="g2330"
         transform="translate(2.17582, 1.75388)">
        <g
           id="g5059">
          <path
             id="path2326"
             style="fill:none;stroke:#000000;stroke-width:0.1;stroke-linecap:round;stroke-linejoin:round;stroke-dasharray:none"
             d="m 22.400291,12.379888 c 0.199354,0.427874 0.587694,0.760873 1.231139,0.760873 0.675574,0 1.06993,-0.367085 1.259596,-0.825648 m 0.137643,-0.628205 c 0.01676,-0.313918 -0.038,-0.615938 -0.143629,-0.831778 0,0 -1.257167,-1.7886308 -1.25361,-2.5615076 -0.0031,0.7734449 -1.25361,2.5615076 -1.25361,2.5615076 -0.107804,0.220276 -0.162613,0.530311 -0.142505,0.851148"
             sodipodi:nodetypes="csccscsc" />
          <path
             style="fill:none;stroke:#000000;stroke-width:0.1;stroke-linecap:round;stroke-linejoin:round;stroke-dasharray:none;stroke-opacity:1"
             d="m 25.672804,12.344458 c 0,0 -0.422674,-0.367637 -0.68049,-0.367637 -0.257816,0 -0.422674,0.367637 -0.68049,0.367637 -0.257816,0 -0.422674,-0.367637 -0.68049,-0.367637 -0.257816,0 -0.422674,0.367637 -0.68049,0.367637 -0.257816,0 -0.422674,-0.367637 -0.68049,-0.367637 -0.257816,0 -0.68049,0.367637 -0.68049,0.367637"
             id="path6"
             sodipodi:nodetypes="caaaaac" />
        </g>
      </g>
    </g>
  </g>
  <g
     inkscape:label="svglink:drop_color.svg"
     ns3:href="drop_color.svg"
     ns4:x="4.2131853"
     ns4:y="4.8585572"
     id="g9871"
     transform="translate(4.224628,2.1366311)">
    <sodipodi:namedview
       id="namedview3"
       pagecolor="#ffffff"
       bordercolor="#666666"
       borderopacity="1.0"
       inkscape:showpageshadow="2"
       inkscape:pageopacity="0.0"
       inkscape:pagecheckerboard="0"
       inkscape:deskcolor="#d1d1d1"
       inkscape:document-units="mm"
       showgrid="false"
       inkscape:zoom="5.76564"
       inkscape:cx="-0.69376513"
       inkscape:cy="24.3685"
       inkscape:window-width="956"
       inkscape:window-height="1037"
       inkscape:window-x="0"
       inkscape:window-y="0"
       inkscape:window-maximized="1"
       inkscape:current-layer="svg8848"
       showguides="false"
       transform="translate(4.21319, 4.85856)" />
    <defs
       id="defs3"
       transform="translate(4.21319, 4.85856)" />
    <title
       id="title3"
       transform="translate(4.21319, 4.85856)">Exported SVG</title>
    <style
       id="style3"
       transform="translate(4.21319, 4.85856)"><![CDATA[
polygon {
shape-rendering:crispEdges;
stroke-width:0.074000;
}
.s0 {
stroke:#000000;
stroke-width:0.072338;
stroke-linecap:round;
stroke-linejoin:round;
fill:none;
}
.s1 {
stroke:#000000;
stroke-width:0.072338;
stroke-linecap:round;
stroke-linejoin:round;
fill:none;
}
.s2 {
stroke:#19b219;
stroke-width:0.072338;
stroke-linecap:round;
stroke-linejoin:round;
fill:none;
}
.s3 {
stroke:#7f4c00;
stroke-width:0.072338;
stroke-linecap:round;
stroke-linejoin:round;
fill:none;
}
.s4 {
stroke:#00cc00;
stroke-width:0.072338;
stroke-linecap:round;
stroke-linejoin:round;
fill:none;
}
.s5 {
stroke:#000000;
stroke-width:0.048225;
stroke-linecap:round;
stroke-linejoin:round;
fill:none;
}
.s6 {
stroke:#ff19ff;
stroke-width:0.048225;
stroke-linecap:round;
stroke-linejoin:round;
fill:none;
}
.s7 {
stroke:#ff0000;
stroke-width:0.072338;
stroke-linecap:round;
stroke-linejoin:round;
fill:none;
}
.s8 {
stroke:#ffff00;
stroke-width:0.072338;
stroke-linecap:round;
stroke-linejoin:round;
fill:none;
}
.s9 {
stroke:#001919;
stroke-width:0.048225;
stroke-linecap:round;
stroke-linejoin:round;
fill:none;
}
.sa {
stroke:#006666;
stroke-width:0.048225;
stroke-linecap:round;
stroke-linejoin:round;
fill:none;
}
.sb {
stroke:#00ffff;
stroke-width:0.144676;
stroke-linecap:round;
stroke-linejoin:round;
fill:none;
}
.sc {
stroke:#ff0000;
stroke-width:0.385802;
stroke-linecap:round;
stroke-linejoin:round;
fill:none;
}
.sd {
stroke:#191919;
stroke-width:0.048225;
stroke-linecap:round;
stroke-linejoin:round;
fill:none;
}
.se {
stroke:#000000;
stroke-width:0.048225;
stroke-linecap:round;
stroke-linejoin:round;
stroke-dasharray:0.723,0.723;
fill:none;
}
.sf {
stroke:#000000;
stroke-width:0.144676;
stroke-linecap:round;
stroke-linejoin:round;
fill:none;
}
]]></style>
    <metadata
       id="metadata3"
       transform="translate(4.21319, 4.85856)">
      <rdf:RDF>
        <cc:Work
           rdf:about="">
          <dc:title>Exported SVG</dc:title>
        </cc:Work>
      </rdf:RDF>
    </metadata>
    <g
       id="g7"
       transform="translate(4.21319, 4.85856)">
      <path
         id="path3"
         style="fill:#e5f2ff;fill-opacity:1;stroke-width:0.3;stroke-linecap:round;stroke-linejoin:round"
         d="m 23.534858,7.2065039 c -0.524087,0.094268 -0.571634,0.7161017 -0.829784,1.0823398 -0.309449,0.4458709 -0.788714,0.8252382 -0.834472,1.4049245 -0.08877,0.5783108 -0.36931,1.1003028 -0.503101,1.6640338 -0.121375,0.715267 -0.02025,1.53159 0.462027,2.099263 0.576762,0.614247 1.518563,0.817969 2.312083,0.556612 0.506259,-0.22315 1.279053,0.108771 1.549916,-0.520638 0.431622,-0.791105 0.249884,-1.731679 0.07413,-2.567534 C 25.532173,10.146847 24.827925,9.6376023 24.51275,8.905882 24.318429,8.4161991 24.537774,7.7838054 24.053819,7.421089 23.911562,7.2942715 23.727136,7.2100744 23.534858,7.2065039 Z"
         transform="translate(-21.320667,-7.2065039)" />
      <path
         style="fill:#cce5ff;fill-opacity:1;stroke-width:0.3;stroke-linecap:round;stroke-linejoin:round"
         d="m 22.883649,13.340761 c -0.334763,-0.316249 -0.877805,-0.445589 -1.00672,-0.944948 -0.259132,-0.62096 -0.177405,-1.32795 0.08554,-1.932895 0.169911,-0.397491 0.177768,-0.9567017 0.609317,-1.1723905 0.380832,-0.046593 0.404606,-0.4921282 0.448123,-0.7891813 0.09992,-0.3237931 0.337223,-0.7697332 0.721345,-0.7601614 0.451914,0.1470084 0.42922,0.7081358 0.538034,1.0855306 0.204978,0.8762687 0.940135,1.5176676 1.148597,2.3960746 0.150412,0.739376 0.03524,1.612633 -0.526995,2.159802 -0.490545,0.414823 -1.237887,0.574207 -1.826302,0.286238 -0.09751,-0.08789 -0.101932,-0.234029 -0.190935,-0.328069 z"
         id="path4"
         sodipodi:nodetypes="aaaaaaaaaaaaa"
         transform="translate(-21.320667,-7.2065039)" />
      <path
         id="path5"
         style="fill:#b3d8ff;fill-opacity:1;stroke-width:0.3;stroke-linecap:round;stroke-linejoin:round"
         d="m 23.42427,8.4240007 c -0.414243,0.067078 -0.361745,0.6017616 -0.263389,0.9009231 0.156158,0.4326064 0.650359,0.567813 0.896703,0.9345842 0.374904,0.352772 -0.088,0.660594 -0.355188,0.871612 -0.377059,0.285898 -0.300761,0.974849 0.18964,1.087327 0.318138,0.456647 -0.355537,0.3307 -0.593894,0.19627 -0.563643,-0.09316 -0.430469,0.699588 -0.09935,0.893739 0.560514,0.3705 1.249853,0.0893 1.826657,-0.09042 0.522859,-0.167529 0.68078,-0.771124 0.618697,-1.261637 -0.04849,-0.913685 -0.622994,-1.661398 -1.103225,-2.3962796 -0.298,-0.4308119 -0.478658,-1.1281328 -1.116654,-1.1361167 z m -0.812354,0.3622518 c -0.371439,0.2510409 0.09779,0.7975104 -0.243513,1.1247291 -0.193876,0.5439664 -0.670441,0.9884174 -0.647218,1.5993964 -0.104641,0.362084 0.190179,0.844819 0.591025,0.602402 0.416743,-0.267932 0.752622,-0.675711 0.833303,-1.176033 0.148397,-0.628653 0.0248,-1.2934346 -0.196868,-1.888662 -0.06471,-0.1326909 -0.183751,-0.2473871 -0.336729,-0.2618325 z"
         transform="translate(-21.320667,-7.2065039)" />
      <path
         id="path7"
         style="fill:#99cbff;fill-opacity:1;stroke-width:0.3;stroke-linecap:round;stroke-linejoin:round"
         d="m 24.736851,9.9872128 c -0.243844,0.2772812 -0.10605,0.7246962 -0.414805,0.9838682 -0.178615,0.397107 -0.908822,0.354341 -0.876748,0.827795 0.118337,0.32867 0.959286,0.279147 0.528218,0.738608 -0.392641,0.01777 -0.599966,0.448091 -0.184117,0.655989 0.339496,0.186289 0.87586,0.279968 1.160798,-0.05203 0.277849,-0.441727 0.614097,-0.918743 0.522794,-1.472349 -0.01503,-0.548243 -0.01328,-1.198511 -0.448579,-1.59727 -0.08362,-0.05733 -0.18534,-0.092477 -0.287561,-0.084608 z m -2.47375,0.6061642 c -0.431751,0.116228 -0.306981,0.661366 -0.343501,0.998231 -0.193017,0.529489 0.403981,1.000815 0.805866,0.545202 -0.07672,-0.386258 0.115155,-0.823418 -0.103714,-1.187945 -0.08065,-0.145324 -0.164059,-0.347802 -0.358651,-0.355488 z m 0.471289,1.64021 c 0.0351,0.08855 0.108797,-0.01183 0,0 z"
         transform="translate(-21.320667,-7.2065039)" />
    </g>
    <g
       inkscape:label="svglink:drop.svg"
       ns3:href="drop.svg"
       ns4:x="23.715717"
       ns4:y="9.998189"
       id="g11"
       transform="translate(-19.2752, -4.15357)">
      <defs
         id="defs7"
         transform="translate(23.7157, 9.99819)" />
      <sodipodi:namedview
         id="namedview7"
         pagecolor="#ffffff"
         bordercolor="#666666"
         borderopacity="1.0"
         inkscape:showpageshadow="2"
         inkscape:pageopacity="0.0"
         inkscape:pagecheckerboard="0"
         inkscape:deskcolor="#d1d1d1"
         inkscape:document-units="mm"
         showgrid="false"
         inkscape:zoom="16"
         inkscape:cx="14.875"
         inkscape:cy="20.09375"
         inkscape:window-width="956"
         inkscape:window-height="1037"
         inkscape:window-x="960"
         inkscape:window-y="0"
         inkscape:window-maximized="1"
         inkscape:current-layer="g5059"
         showguides="false"
         transform="translate(23.7157, 9.99819)" />
      <title
         id="title7"
         transform="translate(23.7157, 9.99819)">Exported SVG</title>
      <style
         id="style7"
         transform="translate(23.7157, 9.99819)"><![CDATA[
polygon {
shape-rendering:crispEdges;
stroke-width:0.074000;
}
.s0 {
stroke:#000000;
stroke-width:0.072338;
stroke-linecap:round;
stroke-linejoin:round;
fill:none;
}
.s1 {
stroke:#000000;
stroke-width:0.072338;
stroke-linecap:round;
stroke-linejoin:round;
fill:none;
}
.s2 {
stroke:#19b219;
stroke-width:0.072338;
stroke-linecap:round;
stroke-linejoin:round;
fill:none;
}
.s3 {
stroke:#7f4c00;
stroke-width:0.072338;
stroke-linecap:round;
stroke-linejoin:round;
fill:none;
}
.s4 {
stroke:#00cc00;
stroke-width:0.072338;
stroke-linecap:round;
stroke-linejoin:round;
fill:none;
}
.s5 {
stroke:#000000;
stroke-width:0.048225;
stroke-linecap:round;
stroke-linejoin:round;
fill:none;
}
.s6 {
stroke:#ff19ff;
stroke-width:0.048225;
stroke-linecap:round;
stroke-linejoin:round;
fill:none;
}
.s7 {
stroke:#ff0000;
stroke-width:0.072338;
stroke-linecap:round;
stroke-linejoin:round;
fill:none;
}
.s8 {
stroke:#ffff00;
stroke-width:0.072338;
stroke-linecap:round;
stroke-linejoin:round;
fill:none;
}
.s9 {
stroke:#001919;
stroke-width:0.048225;
stroke-linecap:round;
stroke-linejoin:round;
fill:none;
}
.sa {
stroke:#006666;
stroke-width:0.048225;
stroke-linecap:round;
stroke-linejoin:round;
fill:none;
}
.sb {
stroke:#00ffff;
stroke-width:0.144676;
stroke-linecap:round;
stroke-linejoin:round;
fill:none;
}
.sc {
stroke:#ff0000;
stroke-width:0.385802;
stroke-linecap:round;
stroke-linejoin:round;
fill:none;
}
.sd {
stroke:#191919;
stroke-width:0.048225;
stroke-linecap:round;
stroke-linejoin:round;
fill:none;
}
.se {
stroke:#000000;
stroke-width:0.048225;
stroke-linecap:round;
stroke-linejoin:round;
stroke-dasharray:0.723,0.723;
fill:none;
}
.sf {
stroke:#000000;
stroke-width:0.144676;
stroke-linecap:round;
stroke-linejoin:round;
fill:none;
}
]]></style>
      <metadata
         id="metadata7"
         transform="translate(23.7157, 9.99819)">
        <rdf:RDF>
          <cc:Work
             rdf:about="">
            <dc:title>Exported SVG</dc:title>
          </cc:Work>
        </rdf:RDF>
      </metadata>
      <g
         id="g10"
         transform="translate(2.17582, 1.75388)">
        <g
           id="g9">
          <path
             id="path8"
             style="fill:none;stroke:#000000;stroke-width:0.1;stroke-linecap:round;stroke-linejoin:round;stroke-dasharray:none"
             d="m 22.400291,12.379888 c 0.199354,0.427874 0.587694,0.760873 1.231139,0.760873 0.675574,0 1.06993,-0.367085 1.259596,-0.825648 m 0.137643,-0.628205 c 0.01676,-0.313918 -0.038,-0.615938 -0.143629,-0.831778 0,0 -1.257167,-1.7886308 -1.25361,-2.5615076 -0.0031,0.7734449 -1.25361,2.5615076 -1.25361,2.5615076 -0.107804,0.220276 -0.162613,0.530311 -0.142505,0.851148"
             sodipodi:nodetypes="csccscsc" />
          <path
             style="fill:none;stroke:#000000;stroke-width:0.1;stroke-linecap:round;stroke-linejoin:round;stroke-dasharray:none;stroke-opacity:1"
             d="m 25.672804,12.344458 c 0,0 -0.422674,-0.367637 -0.68049,-0.367637 -0.257816,0 -0.422674,0.367637 -0.68049,0.367637 -0.257816,0 -0.422674,-0.367637 -0.68049,-0.367637 -0.257816,0 -0.422674,0.367637 -0.68049,0.367637 -0.257816,0 -0.422674,-0.367637 -0.68049,-0.367637 -0.257816,0 -0.68049,0.367637 -0.68049,0.367637"
             id="path9"
             sodipodi:nodetypes="caaaaac" />
        </g>
      </g>
    </g>
  </g>
</svg>
