<?xml version="1.0" encoding="UTF-8" standalone="no"?>
<!-- Created with Inkscape (http://www.inkscape.org/) -->

<svg
   width="13.907523mm"
   height="18.282328mm"
   viewBox="0 0 13.907523 18.282328"
   version="1.1"
   id="svg5"
   inkscape:version="1.3 (0e150ed6c4, 2023-07-21)"
   sodipodi:docname="glue.svg"
   xml:space="preserve"
   xmlns:inkscape="http://www.inkscape.org/namespaces/inkscape"
   xmlns:sodipodi="http://sodipodi.sourceforge.net/DTD/sodipodi-0.dtd"
   xmlns="http://www.w3.org/2000/svg"
   xmlns:svg="http://www.w3.org/2000/svg"><sodipodi:namedview
     id="namedview7"
     pagecolor="#ffffff"
     bordercolor="#666666"
     borderopacity="1.0"
     inkscape:pageshadow="2"
     inkscape:pageopacity="0"
     inkscape:pagecheckerboard="false"
     inkscape:document-units="mm"
     showgrid="false"
     inkscape:zoom="1.8649384"
     inkscape:cx="35.389909"
     inkscape:cy="89.279088"
     inkscape:window-width="956"
     inkscape:window-height="1037"
     inkscape:window-x="960"
     inkscape:window-y="0"
     inkscape:window-maximized="1"
     inkscape:current-layer="layer1"
     inkscape:showpageshadow="2"
     inkscape:deskcolor="#ffffff" /><defs
     id="defs2" /><g
     inkscape:label="Layer 1"
     inkscape:groupmode="layer"
     id="layer1"
     transform="translate(37.627912,-109.10427)"><path
       style="fill:none;stroke:#00ff00;stroke-width:0.499999;stroke-linecap:round;stroke-linejoin:round"
       d="m -36.1889,122.02379 c -0.145757,0.0103 -0.334023,-0.0251 -0.412468,-0.14842 -0.06157,-0.0968 -0.0014,-0.23277 0.0316,-0.34259 0.324186,-1.07746 1.596196,-2.97428 1.596196,-2.97428 0,0 -0.361132,-0.3874 -0.444163,-0.63078 -0.07288,-0.21363 -0.101209,-0.46237 -0.02981,-0.6765 0.104045,-0.31204 0.365219,-0.56252 0.626391,-0.76248 0.131158,-0.10042 0.45172,-0.20377 0.45172,-0.20377 0,0 -0.309942,-0.73853 -0.305436,-1.12806 0.0054,-0.46692 0.157912,-0.94242 0.3973,-1.34334 1.005084,-1.6833 2.473913,-3.16726 4.173868,-4.14391 0.35304,-0.20283 0.772906,-0.31761 1.180056,-0.31536 0.404338,0.002 0.817755,0.12471 1.168382,0.32609 1.308259,0.7514 2.426946,1.88654 3.247656,3.15247 0.283856,0.43784 0.52725,0.94874 0.53692,1.47046 0.0091,0.49204 -0.19754,0.98501 -0.454645,1.40464 -0.964628,1.5744 -2.37059,2.90974 -3.92065,3.91301 -0.312597,0.20233 -0.673015,0.36303 -1.043715,0.39817 -0.484399,0.0459 -1.437308,-0.25476 -1.437308,-0.25476 0,0 -0.40473,0.66903 -0.722753,0.87291 -0.24854,0.15933 -0.563842,0.27295 -0.855703,0.22849 -0.282804,-0.0431 -0.725622,-0.45823 -0.725622,-0.45823 0,0 -1.907779,1.53513 -3.057816,1.61624 z"
       id="path1"
       sodipodi:nodetypes="aaacaaacaaaaaaaaaacaaca" /><path
       style="fill:none;stroke:#00ff00;stroke-width:0.499999;stroke-linecap:round;stroke-linejoin:round"
       d="m -36.535712,123.02351 c 0,0 -0.391997,0.44363 -0.331913,0.69244 0.03321,0.13752 0.196888,0.24534 0.337894,0.25682 0.141075,0.0115 0.332432,-0.064 0.37516,-0.1989 0.08469,-0.26745 -0.381141,-0.75036 -0.381141,-0.75036 z"
       id="path2"
       sodipodi:nodetypes="caaac" /><path
       style="fill:none;stroke:#00ff00;stroke-width:0.499999;stroke-linecap:round;stroke-linejoin:round"
       d="m -36.705392,125.13571 c -0.325234,0.29771 -0.584286,0.71352 -0.656154,1.14854 -0.03282,0.19867 -0.01443,0.4388 0.115031,0.59303 0.154882,0.18452 0.434168,0.26762 0.674903,0.25852 0.181616,-0.007 0.370342,-0.0988 0.492987,-0.23291 0.136075,-0.14881 0.2273,-0.36707 0.208567,-0.56785 -0.04289,-0.4597 -0.373146,-0.87344 -0.709818,-1.18937 -0.01899,-0.0178 -0.0695,-0.0357 -0.0695,-0.0357 0,0 -0.04086,0.0119 -0.05602,0.0257 z"
       id="path3"
       sodipodi:nodetypes="aaaaaaaca" /></g></svg>
