<?xml version="1.0" encoding="UTF-8" standalone="no"?>
<!-- Created with Inkscape (http://www.inkscape.org/) -->

<svg
   width="33.409mm"
   height="38.433018mm"
   viewBox="0 0 33.409 38.433019"
   version="1.1"
   id="svg5"
   inkscape:version="1.3 (0e150ed6c4, 2023-07-21)"
   sodipodi:docname="merge_medium_bottom_m.svg"
   xml:space="preserve"
   xmlns:inkscape="http://www.inkscape.org/namespaces/inkscape"
   xmlns:sodipodi="http://sodipodi.sourceforge.net/DTD/sodipodi-0.dtd"
   xmlns="http://www.w3.org/2000/svg"
   xmlns:svg="http://www.w3.org/2000/svg"
   xmlns:ns0="svglink"
   xmlns:ns1="svglink:origin"><sodipodi:namedview
     id="namedview7"
     pagecolor="#ffffff"
     bordercolor="#666666"
     borderopacity="1.0"
     inkscape:pageshadow="2"
     inkscape:pageopacity="0"
     inkscape:pagecheckerboard="false"
     inkscape:document-units="mm"
     showgrid="false"
     inkscape:zoom="5.8293076"
     inkscape:cx="68.275691"
     inkscape:cy="77.281906"
     inkscape:window-width="1916"
     inkscape:window-height="1037"
     inkscape:window-x="0"
     inkscape:window-y="0"
     inkscape:window-maximized="1"
     inkscape:current-layer="g8"
     inkscape:showpageshadow="2"
     inkscape:deskcolor="#ffffff" /><defs
     id="defs2" /><g
     inkscape:label="Layer 1"
     inkscape:groupmode="layer"
     id="g8"
     transform="translate(54.3472,-97.329192)"><g
       inkscape:label="svglink:glue.svg"
       ns0:href="glue.svg"
       ns1:x="-43.730442"
       ns1:y="108.40451"
       ns0:image-svg-dpi="200"
       ns0:image-height="18.282339"
       ns0:image-width="13.907532"
       id="g7"
       transform="translate(-0.86600932,-1.0002406)"><sodipodi:namedview
         id="namedview8"
         pagecolor="#ffffff"
         bordercolor="#666666"
         borderopacity="1.0"
         inkscape:pageshadow="2"
         inkscape:pageopacity="0"
         inkscape:pagecheckerboard="false"
         inkscape:document-units="mm"
         showgrid="false"
         inkscape:zoom="1.8649384"
         inkscape:cx="35.389909"
         inkscape:cy="89.815298"
         inkscape:window-width="636"
         inkscape:window-height="1037"
         inkscape:window-x="640"
         inkscape:window-y="0"
         inkscape:window-maximized="1"
         inkscape:current-layer="layer1"
         inkscape:showpageshadow="2"
         inkscape:deskcolor="#ffffff"
         transform="translate(-43.7304, 108.405)" /><defs
         id="defs8"
         transform="translate(-43.7304, 108.405)" /><g
         inkscape:label="Layer 1"
         inkscape:groupmode="layer"
         id="layer1"
         transform="translate(-6.10254,-0.69949)"><path
           style="fill:none;stroke:#00ff00;stroke-width:0.499999;stroke-linecap:round;stroke-linejoin:round"
           d="m -36.1889,122.02379 c -0.145757,0.0103 -0.334023,-0.0251 -0.412468,-0.14842 -0.06157,-0.0968 -0.0014,-0.23277 0.0316,-0.34259 0.324186,-1.07746 1.596196,-2.97428 1.596196,-2.97428 0,0 -0.361132,-0.3874 -0.444163,-0.63078 -0.07288,-0.21363 -0.101209,-0.46237 -0.02981,-0.6765 0.104045,-0.31204 0.365219,-0.56252 0.626391,-0.76248 0.131158,-0.10042 0.45172,-0.20377 0.45172,-0.20377 0,0 -0.309942,-0.73853 -0.305436,-1.12806 0.0054,-0.46692 0.157912,-0.94242 0.3973,-1.34334 1.005084,-1.6833 2.473913,-3.16726 4.173868,-4.14391 0.35304,-0.20283 0.772906,-0.31761 1.180056,-0.31536 0.404338,0.002 0.817755,0.12471 1.168382,0.32609 1.308259,0.7514 2.426946,1.88654 3.247656,3.15247 0.283856,0.43784 0.52725,0.94874 0.53692,1.47046 0.0091,0.49204 -0.19754,0.98501 -0.454645,1.40464 -0.964628,1.5744 -2.37059,2.90974 -3.92065,3.91301 -0.312597,0.20233 -0.673015,0.36303 -1.043715,0.39817 -0.484399,0.0459 -1.437308,-0.25476 -1.437308,-0.25476 0,0 -0.40473,0.66903 -0.722753,0.87291 -0.24854,0.15933 -0.563842,0.27295 -0.855703,0.22849 -0.282804,-0.0431 -0.725622,-0.45823 -0.725622,-0.45823 0,0 -1.907779,1.53513 -3.057816,1.61624 z"
           id="path1"
           sodipodi:nodetypes="aaacaaacaaaaaaaaaacaaca" /><path
           style="fill:none;stroke:#00ff00;stroke-width:0.499999;stroke-linecap:round;stroke-linejoin:round"
           d="m -36.535712,123.02351 c 0,0 -0.391997,0.44363 -0.331913,0.69244 0.03321,0.13752 0.196888,0.24534 0.337894,0.25682 0.141075,0.0115 0.332432,-0.064 0.37516,-0.1989 0.08469,-0.26745 -0.381141,-0.75036 -0.381141,-0.75036 z"
           id="path2"
           sodipodi:nodetypes="caaac" /><path
           style="fill:none;stroke:#00ff00;stroke-width:0.499999;stroke-linecap:round;stroke-linejoin:round"
           d="m -36.705392,125.13571 c -0.325234,0.29771 -0.584286,0.71352 -0.656154,1.14854 -0.03282,0.19867 -0.01443,0.4388 0.115031,0.59303 0.154882,0.18452 0.434168,0.26762 0.674903,0.25852 0.181616,-0.007 0.370342,-0.0988 0.492987,-0.23291 0.136075,-0.14881 0.2273,-0.36707 0.208567,-0.56785 -0.04289,-0.4597 -0.373146,-0.87344 -0.709818,-1.18937 -0.01899,-0.0178 -0.0695,-0.0357 -0.0695,-0.0357 0,0 -0.04086,0.0119 -0.05602,0.0257 z"
           id="path3"
           sodipodi:nodetypes="aaaaaaaca" /></g></g><g
       inkscape:label="svglink:blueprint_medium_bottom.svg"
       ns0:href="blueprint_medium_bottom.svg"
       ns1:x="-59.097191"
       ns1:y="92.545731"
       ns0:image-svg-dpi="200"
       ns0:image-height="49.999901"
       ns0:image-width="44.641029"
       id="g6"><title
   transform="translate(-59.0972, 92.5457)"
   id="title12">Exported SVG</title>&#10;&#10;<style
   transform="translate(-59.0972, 92.5457)"
   id="style12"><![CDATA[
polygon {
shape-rendering:crispEdges;
stroke-width:0.048000;
}
.s0 {
stroke:#000000;
stroke-width:0.073719;
stroke-linecap:round;
stroke-linejoin:round;
fill:none;
}
.s1 {
stroke:#000000;
stroke-width:0.073719;
stroke-linecap:round;
stroke-linejoin:round;
fill:none;
}
.s2 {
stroke:#19b219;
stroke-width:0.073719;
stroke-linecap:round;
stroke-linejoin:round;
fill:none;
}
.s3 {
stroke:#7f4c00;
stroke-width:0.073719;
stroke-linecap:round;
stroke-linejoin:round;
fill:none;
}
.s4 {
stroke:#00cc00;
stroke-width:0.073719;
stroke-linecap:round;
stroke-linejoin:round;
fill:none;
}
.s5 {
stroke:#000000;
stroke-width:0.049146;
stroke-linecap:round;
stroke-linejoin:round;
fill:none;
}
.s6 {
stroke:#ff19ff;
stroke-width:0.049146;
stroke-linecap:round;
stroke-linejoin:round;
fill:none;
}
.s7 {
stroke:#ff0000;
stroke-width:0.073719;
stroke-linecap:round;
stroke-linejoin:round;
fill:none;
}
.s8 {
stroke:#ffff00;
stroke-width:0.073719;
stroke-linecap:round;
stroke-linejoin:round;
fill:none;
}
.s9 {
stroke:#001919;
stroke-width:0.049146;
stroke-linecap:round;
stroke-linejoin:round;
fill:none;
}
.sa {
stroke:#006666;
stroke-width:0.049146;
stroke-linecap:round;
stroke-linejoin:round;
fill:none;
}
.sb {
stroke:#00ffff;
stroke-width:0.147438;
stroke-linecap:round;
stroke-linejoin:round;
fill:none;
}
.sc {
stroke:#ff0000;
stroke-width:0.393168;
stroke-linecap:round;
stroke-linejoin:round;
fill:none;
}
.sd {
stroke:#191919;
stroke-width:0.049146;
stroke-linecap:round;
stroke-linejoin:round;
fill:none;
}
.se {
stroke:#000000;
stroke-width:0.049146;
stroke-linecap:round;
stroke-linejoin:round;
stroke-dasharray:0.737,0.737;
fill:none;
}
.sf {
stroke:#000000;
stroke-width:0.147438;
stroke-linecap:round;
stroke-linejoin:round;
fill:none;
}
.s100 {
stroke:#ff0000;
stroke-width:0.500000;
stroke-linecap:round;
stroke-linejoin:round;
fill:none;
}
.s101 {
stroke:#00ff00;
stroke-width:0.500000;
stroke-linecap:round;
stroke-linejoin:round;
fill:none;
}
]]></style>&#10;<path
   d="M 5,33.5 21.454,43 37.909,33.5 v -19 L 21.454,5 5,14.5 v 19"
   class="s100"
   transform="translate(-59.0972,92.5457)"
   id="path13" />&#10;<path
   d="M 5.866,33 V 15 L 21.454,6 37.043,15 V 33 L 21.454,42 5.866,33"
   class="s101"
   transform="translate(-59.0972,92.5457)"
   id="path14" />&#10;&#10;</g><path
       d="m -33.884905,114.31667 -3.244415,1.13893 c 0,0 0.387717,-1.74942 0.460225,-2.60583 -0.672457,-0.1238 -1.560789,-0.097 -1.560789,-0.097 l 0.280236,-1.97146"
       style="fill:none;stroke:#00ff00;stroke-width:0.499999;stroke-linecap:round;stroke-linejoin:round"
       id="path1-5"
       sodipodi:nodetypes="ccccc" /></g></svg>
