<?xml version="1.0" encoding="UTF-8" standalone="no"?>
<!-- Created with Inkscape (http://www.inkscape.org/) -->

<svg
   width="34.741001mm"
   height="40.099998mm"
   viewBox="0 0 34.741001 40.099999"
   version="1.1"
   id="svg5"
   inkscape:version="1.2.2 (b0a8486541, 2022-12-01)"
   sodipodi:docname="tile_plain.svg"
   xmlns:inkscape="http://www.inkscape.org/namespaces/inkscape"
   xmlns:sodipodi="http://sodipodi.sourceforge.net/DTD/sodipodi-0.dtd"
   xmlns="http://www.w3.org/2000/svg"
   xmlns:svg="http://www.w3.org/2000/svg">
  <sodipodi:namedview
     id="namedview7"
     pagecolor="#ffffff"
     bordercolor="#666666"
     borderopacity="1.0"
     inkscape:pageshadow="2"
     inkscape:pageopacity="0"
     inkscape:pagecheckerboard="false"
     inkscape:document-units="mm"
     showgrid="false"
     inkscape:zoom="4.5255332"
     inkscape:cx="85.072849"
     inkscape:cy="71.814742"
     inkscape:window-width="1920"
     inkscape:window-height="1080"
     inkscape:window-x="0"
     inkscape:window-y="0"
     inkscape:window-maximized="1"
     inkscape:current-layer="layer1"
     inkscape:showpageshadow="2"
     inkscape:deskcolor="#ffffff" />
  <defs
     id="defs2">
    <clipPath
       clipPathUnits="userSpaceOnUse"
       id="clipPath4244">
      <path
         d="m -89.348846,133.47717 17.321,10 17.32,-10 v -20 l -17.32,-10 -17.321,10 v 20"
         class="s1"
         id="path4246"
         style="fill:none;fill-opacity:1;stroke:#000000;stroke-width:0.0999998;stroke-linecap:round;stroke-linejoin:round;stroke-dasharray:none" />
    </clipPath>
  </defs>
  <g
     inkscape:label="Layer 1"
     inkscape:groupmode="layer"
     id="layer1"
     transform="translate(89.398846,-103.42717)">
    <path
       d="m -89.348846,133.47717 17.321,10 17.32,-10 v -20 l -17.32,-10 -17.321,10 v 20"
       class="s1"
       id="path1202"
       style="fill:none;stroke:#000000;stroke-width:0.1;stroke-linecap:round;stroke-linejoin:round;stroke-dasharray:none" />
    <path
       style="fill:none;stroke:#000000;stroke-width:0.1;stroke-linecap:round;stroke-linejoin:round"
       d="m -81.445477,112.30636 v 0.63207 l 0.203258,-0.20326 0.190695,0.19071 0.180535,-0.18053 0.182535,0.18255 v -0.36173"
       id="path57317" />
    <path
       style="fill:none;stroke:#000000;stroke-width:0.1;stroke-linecap:round;stroke-linejoin:round"
       d="m -80.764929,113.25782 v 0.63207 l 0.203258,-0.20326 0.190695,0.1907 0.180535,-0.18052 0.182535,0.18255 v -0.36173"
       id="path57315" />
    <path
       style="fill:none;stroke:#000000;stroke-width:0.1;stroke-linecap:round;stroke-linejoin:round"
       d="m -79.215333,112.57743 v 0.63208 l 0.203258,-0.20326 0.190695,0.19069 0.180535,-0.18052 0.182535,0.18255 v -0.36173"
       id="path57313" />
    <path
       style="fill:none;stroke:#000000;stroke-width:0.1;stroke-linecap:round;stroke-linejoin:round"
       d="m -78.441894,113.62123 v 0.63207 l 0.203258,-0.20326 0.190695,0.1907 0.180535,-0.18052 0.182535,0.18256 v -0.36174"
       id="path57311" />
    <path
       style="fill:none;stroke:#000000;stroke-width:0.1;stroke-linecap:round;stroke-linejoin:round"
       d="m -77.443268,112.6062 v 0.63207 l 0.203253,-0.20326 0.190707,0.1907 0.18053,-0.18051 0.18254,0.18254 v -0.36173"
       id="path57309" />
    <path
       style="fill:none;stroke:#000000;stroke-width:0.1;stroke-linecap:round;stroke-linejoin:round"
       d="m -76.038518,113.34166 v 0.63207 l 0.20326,-0.20326 0.19069,0.1907 0.18054,-0.18052 0.18253,0.18255 v -0.36173"
       id="path57307" />
    <path
       style="fill:none;stroke:#000000;stroke-width:0.1;stroke-linecap:round;stroke-linejoin:round"
       d="m -76.054838,111.78368 v 0.63207 l 0.20325,-0.20326 0.1907,0.1907 0.18053,-0.18052 0.18254,0.18255 v -0.36173"
       id="path57305" />
    <path
       style="fill:none;stroke:#000000;stroke-width:0.1;stroke-linecap:round;stroke-linejoin:round"
       d="m -77.969862,110.68765 v 0.63207 l 0.203258,-0.20326 0.190695,0.1907 0.180534,-0.18052 0.18253,0.18255 v -0.36173"
       id="path57303" />
    <path
       style="fill:none;stroke:#000000;stroke-width:0.1;stroke-linecap:round;stroke-linejoin:round"
       d="m -79.35338,110.8965 v 0.63207 l 0.203258,-0.20326 0.190695,0.1907 0.180535,-0.18052 0.182535,0.18255 v -0.36173"
       id="path57301" />
    <path
       style="fill:none;stroke:#000000;stroke-width:0.1;stroke-linecap:round;stroke-linejoin:round"
       d="m -77.061398,113.86256 v 0.63207 l 0.20326,-0.20326 0.19069,0.1907 0.18053,-0.18052 0.18253,0.18255 v -0.36173"
       id="path57299" />
    <path
       style="fill:none;stroke:#000000;stroke-width:0.1;stroke-linecap:round;stroke-linejoin:round"
       d="m -68.875818,125.42452 v 0.63207 l 0.20326,-0.20326 0.19069,0.1907 0.18054,-0.18052 0.18253,0.18255 v -0.36173"
       id="path57297" />
    <path
       style="fill:none;stroke:#000000;stroke-width:0.1;stroke-linecap:round;stroke-linejoin:round"
       d="m -68.102378,126.46832 v 0.63207 l 0.20325,-0.20326 0.1907,0.1907 0.18053,-0.18052 0.18254,0.18255 v -0.36173"
       id="path57295" />
    <path
       style="fill:none;stroke:#000000;stroke-width:0.1;stroke-linecap:round;stroke-linejoin:round"
       d="m -67.630348,123.53474 v 0.63207 l 0.20326,-0.20326 0.19069,0.1907 0.18054,-0.18052 0.18253,0.18255 v -0.36173"
       id="path57293" />
    <path
       style="fill:none;stroke:#000000;stroke-width:0.1;stroke-linecap:round;stroke-linejoin:round"
       d="m -69.013868,123.74359 v 0.63207 l 0.20326,-0.20326 0.19069,0.1907 0.18054,-0.18052 0.18253,0.18255 v -0.36173"
       id="path57291" />
    <path
       style="fill:none;stroke:#000000;stroke-width:0.1;stroke-linecap:round;stroke-linejoin:round"
       d="m -63.962758,123.34798 v 0.63207 l 0.20326,-0.20326 0.19069,0.1907 0.18054,-0.18052 0.18253,0.18255 v -0.36173"
       id="path57289" />
    <path
       style="fill:none;stroke:#000000;stroke-width:0.1;stroke-linecap:round;stroke-linejoin:round"
       d="m -62.190698,123.37675 v 0.63207 l 0.20326,-0.20326 0.1907,0.1907 0.18053,-0.18052 0.18254,0.18255 v -0.36173"
       id="path57287" />
    <path
       style="fill:none;stroke:#000000;stroke-width:0.1;stroke-linecap:round;stroke-linejoin:round"
       d="m -60.785948,124.11221 v 0.63207 l 0.20326,-0.20326 0.1907,0.1907 0.18053,-0.18052 0.18254,0.18255 v -0.36173"
       id="path57285" />
    <path
       style="fill:none;stroke:#000000;stroke-width:0.1;stroke-linecap:round;stroke-linejoin:round"
       d="m -60.802268,122.55423 v 0.63207 l 0.20326,-0.20326 0.1907,0.1907 0.18053,-0.18052 0.18254,0.18255 v -0.36173"
       id="path57283" />
    <path
       style="fill:none;stroke:#000000;stroke-width:0.1;stroke-linecap:round;stroke-linejoin:round"
       d="m -62.717288,121.4582 v 0.63207 l 0.20326,-0.20326 0.19069,0.1907 0.18054,-0.18052 0.18253,0.18255 v -0.36173"
       id="path57281" />
    <path
       style="fill:none;stroke:#000000;stroke-width:0.1;stroke-linecap:round;stroke-linejoin:round"
       d="m -64.100808,121.66705 v 0.63207 l 0.20326,-0.20326 0.19069,0.1907 0.18054,-0.18052 0.18253,0.18255 v -0.36173"
       id="path57279" />
    <path
       style="fill:none;stroke:#000000;stroke-width:0.1;stroke-linecap:round;stroke-linejoin:round"
       d="m -61.808828,124.63311 v 0.63207 l 0.20325,-0.20326 0.1907,0.1907 0.18053,-0.18052 0.18254,0.18255 v -0.36173"
       id="path57277" />
    <path
       style="fill:none;stroke:#000000;stroke-width:0.1;stroke-linecap:round;stroke-linejoin:round"
       d="m -85.434008,128.60431 v 0.63207 l 0.20326,-0.20326 0.1907,0.1907 0.18053,-0.18052 0.18254,0.18255 v -0.36173"
       id="path57275" />
    <path
       style="fill:none;stroke:#000000;stroke-width:0.1;stroke-linecap:round;stroke-linejoin:round"
       d="m -87.349028,127.50828 v 0.63207 l 0.20326,-0.20326 0.19069,0.1907 0.18054,-0.18052 0.18253,0.18255 v -0.36173"
       id="path57273" />
    <path
       style="fill:none;stroke:#000000;stroke-width:0.1;stroke-linecap:round;stroke-linejoin:round"
       d="m -83.681438,127.32157 v 0.63207 l 0.20326,-0.20326 0.19069,0.1907 0.18054,-0.18052 0.18253,0.18255 v -0.36173"
       id="path57271" />
    <path
       style="fill:none;stroke:#000000;stroke-width:0.1;stroke-linecap:round;stroke-linejoin:round"
       d="m -82.907998,128.36537 v 0.63207 l 0.20325,-0.20326 0.1907,0.1907 0.18053,-0.18052 0.18254,0.18255 v -0.36173"
       id="path57269" />
    <path
       style="fill:none;stroke:#000000;stroke-width:0.1;stroke-linecap:round;stroke-linejoin:round"
       d="m -83.819488,125.64064 v 0.63207 l 0.20326,-0.20326 0.19069,0.1907 0.18054,-0.18052 0.18253,0.18255 v -0.36173"
       id="path57267" />
    <path
       style="fill:none;stroke:#000000;stroke-width:0.1;stroke-linecap:round;stroke-linejoin:round"
       d="m -81.849999,130.19346 v 0.63207 l 0.20326,-0.20326 0.1907,0.1907 0.18053,-0.18052 0.18254,0.18255 v -0.36173"
       id="path57265" />
    <path
       style="fill:none;stroke:#000000;stroke-width:0.1;stroke-linecap:round;stroke-linejoin:round"
       d="m -83.765018,129.09743 v 0.63207 l 0.20326,-0.20326 0.19069,0.1907 0.18054,-0.18052 0.18253,0.18255 v -0.36173"
       id="path57263" />
    <path
       style="fill:none;stroke:#000000;stroke-width:0.1;stroke-linecap:round;stroke-linejoin:round"
       d="m -80.097429,128.91062 v 0.63207 l 0.20326,-0.20326 0.19069,0.1907 0.18054,-0.18052 0.18253,0.18255 v -0.36173"
       id="path57261" />
    <path
       style="fill:none;stroke:#000000;stroke-width:0.1;stroke-linecap:round;stroke-linejoin:round"
       d="m -79.323989,129.95442 v 0.63207 l 0.20325,-0.20326 0.1907,0.1907 0.18053,-0.18052 0.18254,0.18255 v -0.36173"
       id="path57259" />
    <path
       style="fill:none;stroke:#000000;stroke-width:0.1;stroke-linecap:round;stroke-linejoin:round"
       d="m -80.235479,127.22969 v 0.63207 l 0.20326,-0.20326 0.19069,0.1907 0.18054,-0.18052 0.18253,0.18255 v -0.36173"
       id="path57257" />
    <path
       style="fill:none;stroke:#000000;stroke-width:0.1;stroke-linecap:round;stroke-linejoin:round"
       d="m -75.240128,120.77791 v 0.63207 l 0.20326,-0.20326 0.19069,0.1907 0.18054,-0.18052 0.18253,0.18255 v -0.36173"
       id="path57255" />
    <path
       style="fill:none;stroke:#000000;stroke-width:0.1;stroke-linecap:round;stroke-linejoin:round"
       d="m -76.623638,120.98676 v 0.63207 l 0.20325,-0.20326 0.19069,0.1907 0.18054,-0.18052 0.18253,0.18255 v -0.36173"
       id="path57253" />
    <path
       style="fill:none;stroke:#000000;stroke-width:0.1;stroke-linecap:round;stroke-linejoin:round"
       d="m -74.383108,120.04585 v 0.63207 l 0.20326,-0.20326 0.19069,0.1907 0.18054,-0.18052 0.18253,0.18255 v -0.36173"
       id="path57251" />
    <path
       style="fill:none;stroke:#000000;stroke-width:0.1;stroke-linecap:round;stroke-linejoin:round"
       d="m -72.611038,120.07463 v 0.63207 l 0.20326,-0.20326 0.1907,0.19069 0.18053,-0.18052 0.18254,0.18255 v -0.36173"
       id="path57249" />
    <path
       style="fill:none;stroke:#000000;stroke-width:0.1;stroke-linecap:round;stroke-linejoin:round"
       d="m -73.137628,118.15607 v 0.63207 l 0.20326,-0.20326 0.19069,0.19071 0.18054,-0.18052 0.18253,0.18255 v -0.36174"
       id="path57247" />
    <path
       style="fill:none;stroke:#000000;stroke-width:0.1;stroke-linecap:round;stroke-linejoin:round"
       d="m -74.521148,118.36492 v 0.63207 l 0.20326,-0.20326 0.19068,0.19071 0.18054,-0.18053 0.18253,0.18255 v -0.36173"
       id="path57245" />
    <path
       style="fill:none;stroke:#000000;stroke-width:0.1;stroke-linecap:round;stroke-linejoin:round"
       d="m -69.022548,134.25162 v 0.63207 l 0.20325,-0.20326 0.1907,0.1907 0.18053,-0.18052 0.18254,0.18255 v -0.36173"
       id="path57243" />
    <path
       style="fill:none;stroke:#000000;stroke-width:0.1;stroke-linecap:round;stroke-linejoin:round"
       d="m -67.964548,136.07971 v 0.63207 l 0.20326,-0.20326 0.1907,0.1907 0.18053,-0.18052 0.18254,0.18255 v -0.36173"
       id="path57241" />
    <path
       style="fill:none;stroke:#000000;stroke-width:0.1;stroke-linecap:round;stroke-linejoin:round"
       d="m -66.211978,134.79692 v 0.63207 l 0.20326,-0.20326 0.19069,0.1907 0.18054,-0.18052 0.18253,0.18255 v -0.36173"
       id="path57239" />
    <path
       style="fill:none;stroke:#000000;stroke-width:0.1;stroke-linecap:round;stroke-linejoin:round"
       d="m -65.438538,135.84072 v 0.63207 l 0.20325,-0.20326 0.1907,0.1907 0.18053,-0.18052 0.18254,0.18255 v -0.36173"
       id="path57237" />
    <path
       style="fill:none;stroke:#000000;stroke-width:0.1;stroke-linecap:round;stroke-linejoin:round"
       d="m -66.350028,133.11599 v 0.63207 l 0.20326,-0.20326 0.19069,0.1907 0.18054,-0.18052 0.18253,0.18255 v -0.36173"
       id="path57235" />
    <path
       style="fill:none;stroke:#000000;stroke-width:0.1;stroke-linecap:round;stroke-linejoin:round"
       d="m -75.971988,136.07355 v 0.63207 l 0.20326,-0.20326 0.1907,0.1907 0.18053,-0.18052 0.18254,0.18255 v -0.36173"
       id="path57233" />
    <path
       style="fill:none;stroke:#000000;stroke-width:0.1;stroke-linecap:round;stroke-linejoin:round"
       d="m -74.567228,136.80901 v 0.63207 l 0.20326,-0.20326 0.19069,0.1907 0.18053,-0.18052 0.18254,0.18255 v -0.36173"
       id="path57231" />
    <path
       style="fill:none;stroke:#000000;stroke-width:0.1;stroke-linecap:round;stroke-linejoin:round"
       d="m -75.590118,137.32991 v 0.63207 l 0.20325,-0.20326 0.1907,0.1907 0.18053,-0.18052 0.18254,0.18255 v -0.36173"
       id="path57229" />
    <path
       style="fill:none;stroke:#000000;stroke-width:0.1;stroke-linecap:round;stroke-linejoin:round"
       d="m -75.148678,109.73324 v 0.63207 l 0.20326,-0.20326 0.1907,0.1907 0.18053,-0.18052 0.18254,0.18255 v -0.36173"
       id="path57227" />
    <path
       style="fill:none;stroke:#000000;stroke-width:0.1;stroke-linecap:round;stroke-linejoin:round"
       d="m -73.743928,110.4687 v 0.63207 l 0.20326,-0.20326 0.1907,0.19071 0.18053,-0.18053 0.18254,0.18255 v -0.36173"
       id="path57225" />
    <path
       style="fill:none;stroke:#000000;stroke-width:0.1;stroke-linecap:round;stroke-linejoin:round"
       d="m -74.766808,110.9896 v 0.63207 l 0.20325,-0.20326 0.1907,0.1907 0.18053,-0.18052 0.18254,0.18255 v -0.36173"
       id="path57223" />
    <path
       style="fill:none;stroke:#000000;stroke-width:0.1;stroke-linecap:round;stroke-linejoin:round"
       d="m -74.172298,135.09384 v 0.63207 l 0.20326,-0.20326 0.1907,0.1907 0.18053,-0.18052 0.18254,0.18255 v -0.36173"
       id="path57221" />
    <path
       style="fill:none;stroke:#000000;stroke-width:0.1;stroke-linecap:round;stroke-linejoin:round"
       d="m -72.622698,134.41345 v 0.63207 l 0.20326,-0.20326 0.19069,0.1907 0.18054,-0.18052 0.18253,0.18255 v -0.36173"
       id="path57219" />
    <path
       style="fill:none;stroke:#000000;stroke-width:0.1;stroke-linecap:round;stroke-linejoin:round"
       d="m -71.849258,135.45725 v 0.63207 l 0.20326,-0.20326 0.19068,0.1907 0.18054,-0.18052 0.18253,0.18255 v -0.36173"
       id="path57217" />
    <path
       style="fill:none;stroke:#000000;stroke-width:0.1;stroke-linecap:round;stroke-linejoin:round"
       d="m -70.850638,134.44222 v 0.63207 l 0.20325,-0.20326 0.1907,0.1907 0.18054,-0.18052 0.18253,0.18255 v -0.36173"
       id="path57215" />
    <path
       style="fill:none;stroke:#000000;stroke-width:0.1;stroke-linecap:round;stroke-linejoin:round"
       d="m -70.468778,135.69858 v 0.63207 l 0.20326,-0.20326 0.19069,0.1907 0.18054,-0.18052 0.18253,0.18255 v -0.36173"
       id="path57213" />
    <path
       style="fill:none;stroke:#000000;stroke-width:0.1;stroke-linecap:round;stroke-linejoin:round"
       d="m -57.988198,121.51251 v 0.63207 l 0.20326,-0.20326 0.19071,0.1907 0.18053,-0.18052 0.18254,0.18255 v -0.36173"
       id="path57211" />
    <path
       style="fill:none;stroke:#000000;stroke-width:0.1;stroke-linecap:round;stroke-linejoin:round"
       d="m -59.903208,120.41648 v 0.63207 l 0.20326,-0.20326 0.19069,0.1907 0.18053,-0.18052 0.18253,0.18255 v -0.36173"
       id="path57209" />
    <path
       style="fill:none;stroke:#000000;stroke-width:0.1;stroke-linecap:round;stroke-linejoin:round"
       d="m -61.286728,120.62534 v 0.63207 l 0.20326,-0.20326 0.19069,0.19069 0.18054,-0.18052 0.18253,0.18255 v -0.36173"
       id="path57207" />
    <path
       style="fill:none;stroke:#000000;stroke-width:0.1;stroke-linecap:round;stroke-linejoin:round"
       d="m -75.181498,114.07372 v 0.63208 l 0.20326,-0.20326 0.19069,0.19069 0.18054,-0.18052 0.18253,0.18256 v -0.36174"
       id="path57205" />
    <path
       style="fill:none;stroke:#000000;stroke-width:0.1;stroke-linecap:round;stroke-linejoin:round"
       d="m -73.409428,114.10249 v 0.63207 l 0.20326,-0.20326 0.1907,0.1907 0.18053,-0.18051 0.18254,0.18254 v -0.36172"
       id="path57203" />
    <path
       style="fill:none;stroke:#000000;stroke-width:0.1;stroke-linecap:round;stroke-linejoin:round"
       d="m -84.992494,127.41518 c 0.0057,-0.40441 -0.08291,-0.47482 -0.141756,-0.69445"
       id="path57201" />
    <path
       style="fill:none;stroke:#000000;stroke-width:0.1;stroke-linecap:round;stroke-linejoin:round"
       d="m -85.159662,126.62071 c 0,0 -0.137926,-0.16074 -0.121711,-0.25284 0.01381,-0.0783 0.04867,-0.17001 0.120045,-0.13488 0.126274,0.0622 0.0016,0.38774 0.0016,0.38774"
       id="path57199" />
    <path
       style="fill:none;stroke:#000000;stroke-width:0.1;stroke-linecap:round;stroke-linejoin:round"
       d="m -85.159669,126.62066 c 0,0 0.07155,-0.21825 0.158848,-0.20975 0.06054,0.006 0.07561,0.10331 0.08001,0.16399 0.0039,0.0532 -0.01227,0.11328 -0.04842,0.15241 -0.0297,0.0322 -0.08108,0.0659 -0.121712,0.0495 -0.05268,-0.0214 -0.06865,-0.15617 -0.06865,-0.15617 z"
       id="path57197" />
    <path
       style="fill:none;stroke:#000000;stroke-width:0.1;stroke-linecap:round;stroke-linejoin:round"
       d="m -85.159714,126.62069 c 0,0 -0.116127,0.004 -0.162496,0.0341 -0.05053,0.0329 -0.126947,0.0906 -0.105565,0.14706 0.02812,0.0748 0.167773,0.0983 0.233663,0.0531 0.06511,-0.0446 0.03441,-0.23427 0.03441,-0.23427 z"
       id="path57195" />
    <path
       style="fill:none;stroke:#000000;stroke-width:0.1;stroke-linecap:round;stroke-linejoin:round"
       d="m -85.252344,126.62091 c 0,0 -0.01448,-0.11594 -0.05534,-0.14996 -0.04476,-0.037 -0.118064,-0.0504 -0.171861,-0.0286 -0.05014,0.0203 -0.119829,0.0819 -0.09635,0.13065 0.05619,0.11745 0.390369,0.0147 0.390369,0.0147 z"
       id="path57193" />
    <path
       style="fill:none;stroke:#000000;stroke-width:0.1;stroke-linecap:round;stroke-linejoin:round"
       d="m -85.307704,126.47093 c 0,0 -0.195336,-0.0819 -0.222106,-0.17149 -0.02231,-0.0764 -0.03264,-0.17381 0.04687,-0.17437 0.140758,-10e-4 0.175256,0.34588 0.175256,0.34588"
       id="path57191" />
    <path
       style="fill:none;stroke:#000000;stroke-width:0.1;stroke-linecap:round;stroke-linejoin:round"
       d="m -80.515304,127.0199 c -0.0057,-0.40441 0.08291,-0.47482 0.141756,-0.69445"
       id="path57189" />
    <path
       style="fill:none;stroke:#000000;stroke-width:0.1;stroke-linecap:round;stroke-linejoin:round"
       d="m -80.348136,126.22543 c 0,0 0.137926,-0.16074 0.121711,-0.25284 -0.01381,-0.0783 -0.04867,-0.17001 -0.120045,-0.13488 -0.126274,0.0622 -0.0016,0.38774 -0.0016,0.38774"
       id="path57187" />
    <path
       style="fill:none;stroke:#000000;stroke-width:0.1;stroke-linecap:round;stroke-linejoin:round"
       d="m -80.348129,126.22538 c 0,0 -0.07155,-0.21825 -0.158848,-0.20975 -0.06054,0.006 -0.07561,0.10331 -0.08001,0.16399 -0.0039,0.0532 0.01227,0.11328 0.04842,0.15241 0.0297,0.0322 0.08108,0.0659 0.121712,0.0495 0.05268,-0.0214 0.06865,-0.15617 0.06865,-0.15617 z"
       id="path57185" />
    <path
       style="fill:none;stroke:#000000;stroke-width:0.1;stroke-linecap:round;stroke-linejoin:round"
       d="m -80.348084,126.22541 c 0,0 0.116127,0.004 0.162496,0.0341 0.05053,0.0329 0.126947,0.0906 0.105565,0.14706 -0.02812,0.0748 -0.167773,0.0983 -0.233663,0.0531 -0.06511,-0.0446 -0.03441,-0.23427 -0.03441,-0.23427 z"
       id="path57183" />
    <path
       style="fill:none;stroke:#000000;stroke-width:0.1;stroke-linecap:round;stroke-linejoin:round"
       d="m -80.255454,126.22563 c 0,0 0.01448,-0.11594 0.05534,-0.14996 0.04476,-0.037 0.118064,-0.0504 0.171861,-0.0286 0.05014,0.0203 0.119829,0.0819 0.09635,0.13065 -0.05619,0.11745 -0.390369,0.0147 -0.390369,0.0147 z"
       id="path57181" />
    <path
       style="fill:none;stroke:#000000;stroke-width:0.1;stroke-linecap:round;stroke-linejoin:round"
       d="m -80.200094,126.07565 c 0,0 0.195336,-0.0819 0.222106,-0.17149 0.02231,-0.0764 0.03264,-0.17381 -0.04687,-0.17437 -0.140758,-10e-4 -0.175256,0.34588 -0.175256,0.34588"
       id="path57179" />
    <path
       style="fill:none;stroke:#000000;stroke-width:0.1;stroke-linecap:round;stroke-linejoin:round"
       d="m -62.201688,120.8925 c -0.006,-0.40441 0.0829,-0.47482 0.14175,-0.69445"
       id="path57177" />
    <path
       style="fill:none;stroke:#000000;stroke-width:0.1;stroke-linecap:round;stroke-linejoin:round"
       d="m -62.034128,120.09803 c 0,0 0.13793,-0.16074 0.12171,-0.25284 -0.0138,-0.0783 -0.0487,-0.17001 -0.12004,-0.13488 -0.12627,0.0622 -0.002,0.38774 -0.002,0.38774"
       id="path57175" />
    <path
       style="fill:none;stroke:#000000;stroke-width:0.1;stroke-linecap:round;stroke-linejoin:round"
       d="m -62.034118,120.09798 c 0,0 -0.0716,-0.21825 -0.15885,-0.20975 -0.0605,0.006 -0.0756,0.10331 -0.08,0.16398 -0.004,0.0532 0.0123,0.11329 0.0484,0.15242 0.0297,0.0322 0.0811,0.0659 0.12171,0.0495 0.0527,-0.0214 0.0687,-0.15616 0.0687,-0.15616 z"
       id="path57173" />
    <path
       style="fill:none;stroke:#000000;stroke-width:0.1;stroke-linecap:round;stroke-linejoin:round"
       d="m -62.034068,120.09801 c 0,0 0.11612,0.004 0.16249,0.0341 0.0505,0.0329 0.12695,0.0906 0.10557,0.14706 -0.0281,0.0748 -0.16778,0.0983 -0.23367,0.0531 -0.0651,-0.0446 -0.0344,-0.23427 -0.0344,-0.23427 z"
       id="path57171" />
    <path
       style="fill:none;stroke:#000000;stroke-width:0.1;stroke-linecap:round;stroke-linejoin:round"
       d="m -61.941468,120.09823 c 0,0 0.0145,-0.11595 0.0553,-0.14996 0.0448,-0.037 0.11806,-0.0504 0.17186,-0.0286 0.0501,0.0203 0.11983,0.0819 0.0964,0.13065 -0.0562,0.11745 -0.39037,0.0147 -0.39037,0.0147 z"
       id="path57169" />
    <path
       style="fill:none;stroke:#000000;stroke-width:0.1;stroke-linecap:round;stroke-linejoin:round"
       d="m -61.886118,119.94825 c 0,0 0.19533,-0.0819 0.2221,-0.17149 0.0223,-0.0764 0.0326,-0.17381 -0.0469,-0.17437 -0.14076,-0.001 -0.17525,0.34588 -0.17525,0.34588"
       id="path57167" />
    <path
       style="fill:none;stroke:#000000;stroke-width:0.1;stroke-linecap:round;stroke-linejoin:round"
       d="m -62.717078,121.65615 c 0.006,-0.40441 -0.0829,-0.47482 -0.14176,-0.69445"
       id="path57165" />
    <path
       style="fill:none;stroke:#000000;stroke-width:0.1;stroke-linecap:round;stroke-linejoin:round"
       d="m -62.884648,120.86168 c 0,0 -0.13793,-0.16075 -0.12171,-0.25284 0.0138,-0.0783 0.0487,-0.17001 0.12004,-0.13489 0.12628,0.0622 0.002,0.38775 0.002,0.38775"
       id="path57163" />
    <path
       style="fill:none;stroke:#000000;stroke-width:0.1;stroke-linecap:round;stroke-linejoin:round"
       d="m -62.884658,120.86162 c 0,0 0.0716,-0.21824 0.15885,-0.20975 0.0605,0.006 0.0756,0.10332 0.08,0.16399 0.004,0.0532 -0.0123,0.11329 -0.0484,0.15242 -0.0297,0.0322 -0.0811,0.0659 -0.12171,0.0495 -0.0527,-0.0214 -0.0687,-0.15616 -0.0687,-0.15616 z"
       id="path57161" />
    <path
       style="fill:none;stroke:#000000;stroke-width:0.1;stroke-linecap:round;stroke-linejoin:round"
       d="m -62.884698,120.86165 c 0,0 -0.11613,0.004 -0.1625,0.0341 -0.0505,0.0329 -0.12695,0.0906 -0.10556,0.14705 0.0281,0.0748 0.16777,0.0983 0.23366,0.0531 0.0651,-0.0446 0.0344,-0.23427 0.0344,-0.23427 z"
       id="path57159" />
    <path
       style="fill:none;stroke:#000000;stroke-width:0.1;stroke-linecap:round;stroke-linejoin:round"
       d="m -62.977298,120.86188 c 0,0 -0.0145,-0.11595 -0.0553,-0.14997 -0.0448,-0.037 -0.11807,-0.0504 -0.17186,-0.0286 -0.0501,0.0203 -0.11983,0.0819 -0.0964,0.13065 0.0562,0.11744 0.39037,0.0147 0.39037,0.0147 z"
       id="path57157" />
    <path
       style="fill:none;stroke:#000000;stroke-width:0.1;stroke-linecap:round;stroke-linejoin:round"
       d="m -63.032648,120.71189 c 0,0 -0.19534,-0.0819 -0.22211,-0.17148 -0.0223,-0.0764 -0.0326,-0.17382 0.0469,-0.17438 0.14076,-9.9e-4 0.17526,0.34588 0.17526,0.34588"
       id="path57155" />
    <path
       style="fill:none;stroke:#000000;stroke-width:0.1;stroke-linecap:round;stroke-linejoin:round"
       d="m -71.623288,119.76893 c -0.006,-0.40441 0.0829,-0.47481 0.14174,-0.69445"
       id="path57153" />
    <path
       style="fill:none;stroke:#000000;stroke-width:0.1;stroke-linecap:round;stroke-linejoin:round"
       d="m -71.455728,118.97446 c 0,0 0.13792,-0.16073 0.12171,-0.25284 -0.0138,-0.0783 -0.0487,-0.17001 -0.12005,-0.13488 -0.12626,0.0622 -0.002,0.38774 -0.002,0.38774"
       id="path57151" />
    <path
       style="fill:none;stroke:#000000;stroke-width:0.1;stroke-linecap:round;stroke-linejoin:round"
       d="m -71.455728,118.97442 c 0,0 -0.0716,-0.21826 -0.15883,-0.20975 -0.0605,0.006 -0.0756,0.1033 -0.08,0.16399 -0.004,0.0532 0.0123,0.11328 0.0484,0.15241 0.0297,0.0322 0.0811,0.0659 0.1217,0.0495 0.0527,-0.0214 0.0687,-0.15617 0.0687,-0.15617 z"
       id="path57149" />
    <path
       style="fill:none;stroke:#000000;stroke-width:0.1;stroke-linecap:round;stroke-linejoin:round"
       d="m -71.455678,118.97444 c 0,0 0.11613,0.004 0.16249,0.0341 0.0505,0.0329 0.12695,0.0906 0.10557,0.14707 -0.0281,0.0748 -0.16777,0.0983 -0.23366,0.0531 -0.0651,-0.0446 -0.0344,-0.23428 -0.0344,-0.23428 z"
       id="path57147" />
    <path
       style="fill:none;stroke:#000000;stroke-width:0.1;stroke-linecap:round;stroke-linejoin:round"
       d="m -71.363078,118.97466 c 0,0 0.0145,-0.11593 0.0553,-0.14995 0.0448,-0.037 0.11806,-0.0504 0.17186,-0.0286 0.0501,0.0203 0.11983,0.0819 0.0964,0.13065 -0.0562,0.11746 -0.39037,0.0147 -0.39037,0.0147 z"
       id="path57145" />
    <path
       style="fill:none;stroke:#000000;stroke-width:0.1;stroke-linecap:round;stroke-linejoin:round"
       d="m -71.307728,118.82468 c 0,0 0.19533,-0.0819 0.2221,-0.17149 0.0223,-0.0764 0.0326,-0.1738 -0.0469,-0.17437 -0.14075,-9.9e-4 -0.17525,0.34589 -0.17525,0.34589"
       id="path57143" />
    <path
       style="fill:none;stroke:#000000;stroke-width:0.1;stroke-linecap:round;stroke-linejoin:round"
       d="m -79.938855,112.47662 c 0.0057,-0.40441 -0.08291,-0.47482 -0.141756,-0.69444"
       id="path57141" />
    <path
       style="fill:none;stroke:#000000;stroke-width:0.1;stroke-linecap:round;stroke-linejoin:round"
       d="m -80.106023,111.68216 c 0,0 -0.137926,-0.16075 -0.121711,-0.25285 0.01381,-0.0783 0.04867,-0.17001 0.120045,-0.13487 0.126274,0.0622 0.0016,0.38773 0.0016,0.38773"
       id="path57139" />
    <path
       style="fill:none;stroke:#000000;stroke-width:0.1;stroke-linecap:round;stroke-linejoin:round"
       d="m -80.10603,111.68211 c 0,0 0.07155,-0.21825 0.158848,-0.20975 0.06054,0.006 0.07561,0.1033 0.08001,0.16399 0.0039,0.0532 -0.01227,0.11328 -0.04842,0.15241 -0.0297,0.0322 -0.08108,0.0659 -0.121712,0.0495 -0.05268,-0.0214 -0.06865,-0.15617 -0.06865,-0.15617 z"
       id="path57137" />
    <path
       style="fill:none;stroke:#000000;stroke-width:0.1;stroke-linecap:round;stroke-linejoin:round"
       d="m -80.106075,111.68213 c 0,0 -0.116127,0.004 -0.162496,0.0341 -0.05053,0.0329 -0.126947,0.0906 -0.105565,0.14707 0.02812,0.0748 0.167773,0.0983 0.233663,0.0531 0.06511,-0.0446 0.03441,-0.23428 0.03441,-0.23428 z"
       id="path57135" />
    <path
       style="fill:none;stroke:#000000;stroke-width:0.1;stroke-linecap:round;stroke-linejoin:round"
       d="m -80.198705,111.68235 c 0,0 -0.01448,-0.11593 -0.05534,-0.14995 -0.04476,-0.037 -0.118064,-0.0504 -0.171861,-0.0286 -0.05014,0.0203 -0.119829,0.0819 -0.09635,0.13065 0.05619,0.11745 0.390369,0.0147 0.390369,0.0147 z"
       id="path57133" />
    <path
       style="fill:none;stroke:#000000;stroke-width:0.1;stroke-linecap:round;stroke-linejoin:round"
       d="m -80.254065,111.53237 c 0,0 -0.195336,-0.0819 -0.222106,-0.17149 -0.02231,-0.0764 -0.03264,-0.1738 0.04687,-0.17437 0.140758,-0.001 0.175256,0.34589 0.175256,0.34589"
       id="path57131" />
    <path
       style="fill:none;stroke:#000000;stroke-width:0.1;stroke-linecap:round;stroke-linejoin:round"
       d="m -76.408228,110.60667 c 0.006,-0.40441 -0.0829,-0.47483 -0.14174,-0.69446"
       id="path57129" />
    <path
       style="fill:none;stroke:#000000;stroke-width:0.1;stroke-linecap:round;stroke-linejoin:round"
       d="m -76.575788,109.81219 c 0,0 -0.13792,-0.16073 -0.12171,-0.25283 0.0138,-0.0783 0.0487,-0.17001 0.12005,-0.13488 0.12626,0.0622 0.002,0.38773 0.002,0.38773"
       id="path57127" />
    <path
       style="fill:none;stroke:#000000;stroke-width:0.1;stroke-linecap:round;stroke-linejoin:round"
       d="m -76.575788,109.81214 c 0,0 0.0715,-0.21824 0.15883,-0.20974 0.0605,0.006 0.0756,0.10331 0.08,0.16398 0.004,0.0532 -0.0123,0.11328 -0.0484,0.15241 -0.0297,0.0322 -0.0811,0.0659 -0.12171,0.0495 -0.0527,-0.0214 -0.0687,-0.15617 -0.0687,-0.15617 z"
       id="path57125" />
    <path
       style="fill:none;stroke:#000000;stroke-width:0.1;stroke-linecap:round;stroke-linejoin:round"
       d="m -76.575838,109.81217 c 0,0 -0.11613,0.004 -0.16249,0.0341 -0.0505,0.0329 -0.12695,0.0906 -0.10557,0.14705 0.0281,0.0748 0.16777,0.0983 0.23366,0.0531 0.0651,-0.0446 0.0344,-0.23426 0.0344,-0.23426 z"
       id="path57123" />
    <path
       style="fill:none;stroke:#000000;stroke-width:0.1;stroke-linecap:round;stroke-linejoin:round"
       d="m -76.668438,109.81239 c 0,0 -0.0145,-0.11594 -0.0553,-0.14995 -0.0448,-0.037 -0.11806,-0.0504 -0.17186,-0.0286 -0.0501,0.0203 -0.11983,0.0819 -0.0964,0.13065 0.0562,0.11744 0.39037,0.0147 0.39037,0.0147 z"
       id="path57121" />
    <path
       style="fill:none;stroke:#000000;stroke-width:0.1;stroke-linecap:round;stroke-linejoin:round"
       d="m -76.723788,109.66242 c 0,0 -0.19533,-0.0819 -0.2221,-0.17149 -0.0223,-0.0764 -0.0326,-0.17381 0.0469,-0.17437 0.14075,-10e-4 0.17525,0.34588 0.17525,0.34588"
       id="path57119" />
    <path
       style="fill:none;stroke:#000000;stroke-width:0.1;stroke-linecap:round;stroke-linejoin:round"
       d="m -69.545618,134.75868 c 0.006,-0.40441 -0.0829,-0.47482 -0.14175,-0.69445"
       id="path57117" />
    <path
       style="fill:none;stroke:#000000;stroke-width:0.1;stroke-linecap:round;stroke-linejoin:round"
       d="m -69.713178,133.96421 c 0,0 -0.13793,-0.16074 -0.12172,-0.25284 0.0138,-0.0783 0.0487,-0.17001 0.12005,-0.13488 0.12627,0.0622 0.002,0.38774 0.002,0.38774"
       id="path57115" />
    <path
       style="fill:none;stroke:#000000;stroke-width:0.1;stroke-linecap:round;stroke-linejoin:round"
       d="m -69.713188,133.96416 c 0,0 0.0716,-0.21825 0.15885,-0.20975 0.0605,0.006 0.0756,0.10331 0.08,0.16399 0.004,0.0532 -0.0123,0.11328 -0.0484,0.15241 -0.0297,0.0322 -0.0811,0.0659 -0.12171,0.0495 -0.0527,-0.0214 -0.0687,-0.15617 -0.0687,-0.15617 z"
       id="path57113" />
    <path
       style="fill:none;stroke:#000000;stroke-width:0.1;stroke-linecap:round;stroke-linejoin:round"
       d="m -69.713238,133.96419 c 0,0 -0.11612,0.004 -0.16249,0.0341 -0.0505,0.0329 -0.12695,0.0906 -0.10557,0.14706 0.0281,0.0748 0.16778,0.0983 0.23367,0.0531 0.0651,-0.0446 0.0344,-0.23427 0.0344,-0.23427 z"
       id="path57111" />
    <path
       style="fill:none;stroke:#000000;stroke-width:0.1;stroke-linecap:round;stroke-linejoin:round"
       d="m -69.805838,133.96441 c 0,0 -0.0145,-0.11594 -0.0553,-0.14996 -0.0448,-0.037 -0.11806,-0.0504 -0.17186,-0.0286 -0.0501,0.0203 -0.11983,0.0819 -0.0964,0.13065 0.0562,0.11745 0.39037,0.0147 0.39037,0.0147 z"
       id="path57109" />
    <path
       style="fill:none;stroke:#000000;stroke-width:0.1;stroke-linecap:round;stroke-linejoin:round"
       d="m -69.861188,133.81443 c 0,0 -0.19533,-0.0819 -0.2221,-0.17149 -0.0223,-0.0764 -0.0326,-0.17381 0.0469,-0.17437 0.14076,-0.001 0.17525,0.34588 0.17525,0.34588"
       id="path57107" />
    <path
       style="fill:none;stroke:#000000;stroke-width:0.1;stroke-linecap:round;stroke-linejoin:round"
       d="m -73.306808,137.59476 c -0.006,-0.40441 0.0829,-0.47482 0.14175,-0.69445"
       id="path57105" />
    <path
       style="fill:none;stroke:#000000;stroke-width:0.1;stroke-linecap:round;stroke-linejoin:round"
       d="m -73.139238,136.80029 c 0,0 0.13792,-0.16074 0.12171,-0.25284 -0.0138,-0.0783 -0.0487,-0.17001 -0.12005,-0.13488 -0.12627,0.0622 -0.002,0.38774 -0.002,0.38774"
       id="path57103" />
    <path
       style="fill:none;stroke:#000000;stroke-width:0.1;stroke-linecap:round;stroke-linejoin:round"
       d="m -73.139238,136.80024 c 0,0 -0.0716,-0.21825 -0.15885,-0.20975 -0.0605,0.006 -0.0756,0.10331 -0.08,0.16399 -0.004,0.0532 0.0123,0.11328 0.0484,0.15241 0.0297,0.0322 0.0811,0.0659 0.12172,0.0495 0.0527,-0.0214 0.0687,-0.15617 0.0687,-0.15617 z"
       id="path57101" />
    <path
       style="fill:none;stroke:#000000;stroke-width:0.1;stroke-linecap:round;stroke-linejoin:round"
       d="m -73.139188,136.80027 c 0,0 0.11612,0.004 0.16249,0.0341 0.0505,0.0329 0.12695,0.0906 0.10557,0.14706 -0.0281,0.0748 -0.16778,0.0983 -0.23366,0.0531 -0.0651,-0.0446 -0.0344,-0.23427 -0.0344,-0.23427 z"
       id="path57099" />
    <path
       style="fill:none;stroke:#000000;stroke-width:0.1;stroke-linecap:round;stroke-linejoin:round"
       d="m -73.046588,136.80049 c 0,0 0.0145,-0.11594 0.0553,-0.14996 0.0448,-0.037 0.11806,-0.0504 0.17186,-0.0286 0.0501,0.0203 0.11983,0.0819 0.0964,0.13065 -0.0562,0.11745 -0.39037,0.0147 -0.39037,0.0147 z"
       id="path57097" />
    <path
       style="fill:none;stroke:#000000;stroke-width:0.1;stroke-linecap:round;stroke-linejoin:round"
       d="m -72.991238,136.65051 c 0,0 0.19533,-0.0819 0.2221,-0.17149 0.0223,-0.0764 0.0326,-0.17381 -0.0469,-0.17437 -0.14076,-0.001 -0.17525,0.34588 -0.17525,0.34588"
       id="path57095" />
    <path
       style="fill:none;stroke:#000000;stroke-width:0.1;stroke-linecap:round;stroke-linejoin:round"
       d="m -65.593008,133.3758 c -0.006,-0.40441 0.0829,-0.47482 0.14176,-0.69445"
       id="path57093" />
    <path
       style="fill:none;stroke:#000000;stroke-width:0.1;stroke-linecap:round;stroke-linejoin:round"
       d="m -65.425438,132.58133 c 0,0 0.13793,-0.16074 0.12171,-0.25284 -0.0138,-0.0783 -0.0487,-0.17001 -0.12004,-0.13488 -0.12628,0.0622 -0.002,0.38774 -0.002,0.38774"
       id="path57091" />
    <path
       style="fill:none;stroke:#000000;stroke-width:0.1;stroke-linecap:round;stroke-linejoin:round"
       d="m -65.425428,132.58128 c 0,0 -0.0715,-0.21825 -0.15885,-0.20975 -0.0605,0.006 -0.0756,0.10331 -0.08,0.16399 -0.004,0.0532 0.0123,0.11328 0.0484,0.15241 0.0297,0.0322 0.0811,0.0659 0.12171,0.0495 0.0527,-0.0214 0.0686,-0.15617 0.0686,-0.15617 z"
       id="path57089" />
    <path
       style="fill:none;stroke:#000000;stroke-width:0.1;stroke-linecap:round;stroke-linejoin:round"
       d="m -65.425388,132.58131 c 0,0 0.11613,0.004 0.1625,0.0341 0.0505,0.0329 0.12695,0.0906 0.10556,0.14706 -0.0281,0.0748 -0.16777,0.0983 -0.23366,0.0531 -0.0651,-0.0446 -0.0344,-0.23427 -0.0344,-0.23427 z"
       id="path57087" />
    <path
       style="fill:none;stroke:#000000;stroke-width:0.1;stroke-linecap:round;stroke-linejoin:round"
       d="m -65.332788,132.58153 c 0,0 0.0145,-0.11594 0.0553,-0.14996 0.0448,-0.037 0.11807,-0.0504 0.17186,-0.0286 0.0501,0.0203 0.11983,0.0819 0.0964,0.13065 -0.0562,0.11745 -0.39036,0.0147 -0.39036,0.0147 z"
       id="path57085" />
    <path
       style="fill:none;stroke:#000000;stroke-width:0.1;stroke-linecap:round;stroke-linejoin:round"
       d="m -65.277438,132.43155 c 0,0 0.19534,-0.0819 0.22211,-0.17149 0.0223,-0.0764 0.0326,-0.17381 -0.0469,-0.17437 -0.14076,-0.001 -0.17526,0.34588 -0.17526,0.34588"
       id="path57020" />
  </g>
</svg>
