<?xml version="1.0" encoding="UTF-8" standalone="no"?>
<svg
   inkscape:export-ydpi="800"
   inkscape:export-xdpi="800"
   inkscape:export-filename="./1.png"
   inkscape:version="1.3 (0e150ed6c4, 2023-07-21)"
   sodipodi:docname="blimp_color.svg"
   id="svg8848"
   version="1.1"
   viewBox="0 0 16.072338 16.072338"
   height="16.072338mm"
   width="16.072338mm"
   xml:space="preserve"
   xmlns:inkscape="http://www.inkscape.org/namespaces/inkscape"
   xmlns:sodipodi="http://sodipodi.sourceforge.net/DTD/sodipodi-0.dtd"
   xmlns="http://www.w3.org/2000/svg"
   xmlns:svg="http://www.w3.org/2000/svg"
   xmlns:rdf="http://www.w3.org/1999/02/22-rdf-syntax-ns#"
   xmlns:cc="http://creativecommons.org/ns#"
   xmlns:dc="http://purl.org/dc/elements/1.1/"
   xmlns:ns3="svglink"
   xmlns:ns4="svglink:origin"><sodipodi:namedview
     id="namedview8850"
     pagecolor="#ffffff"
     bordercolor="#666666"
     borderopacity="1.0"
     inkscape:showpageshadow="2"
     inkscape:pageopacity="0.0"
     inkscape:pagecheckerboard="0"
     inkscape:deskcolor="#d1d1d1"
     inkscape:document-units="mm"
     showgrid="false"
     inkscape:zoom="2.0043945"
     inkscape:cx="23.199026"
     inkscape:cy="9.7286236"
     inkscape:window-width="1916"
     inkscape:window-height="1037"
     inkscape:window-x="0"
     inkscape:window-y="0"
     inkscape:window-maximized="1"
     inkscape:current-layer="layer5"
     showguides="false" /><defs
     id="defs8852" /><title
     id="title8838">Exported SVG</title><style
     id="style8840"><![CDATA[
polygon {
shape-rendering:crispEdges;
stroke-width:0.074000;
}
.s0 {
stroke:#000000;
stroke-width:0.072338;
stroke-linecap:round;
stroke-linejoin:round;
fill:none;
}
.s1 {
stroke:#000000;
stroke-width:0.072338;
stroke-linecap:round;
stroke-linejoin:round;
fill:none;
}
.s2 {
stroke:#19b219;
stroke-width:0.072338;
stroke-linecap:round;
stroke-linejoin:round;
fill:none;
}
.s3 {
stroke:#7f4c00;
stroke-width:0.072338;
stroke-linecap:round;
stroke-linejoin:round;
fill:none;
}
.s4 {
stroke:#00cc00;
stroke-width:0.072338;
stroke-linecap:round;
stroke-linejoin:round;
fill:none;
}
.s5 {
stroke:#000000;
stroke-width:0.048225;
stroke-linecap:round;
stroke-linejoin:round;
fill:none;
}
.s6 {
stroke:#ff19ff;
stroke-width:0.048225;
stroke-linecap:round;
stroke-linejoin:round;
fill:none;
}
.s7 {
stroke:#ff0000;
stroke-width:0.072338;
stroke-linecap:round;
stroke-linejoin:round;
fill:none;
}
.s8 {
stroke:#ffff00;
stroke-width:0.072338;
stroke-linecap:round;
stroke-linejoin:round;
fill:none;
}
.s9 {
stroke:#001919;
stroke-width:0.048225;
stroke-linecap:round;
stroke-linejoin:round;
fill:none;
}
.sa {
stroke:#006666;
stroke-width:0.048225;
stroke-linecap:round;
stroke-linejoin:round;
fill:none;
}
.sb {
stroke:#00ffff;
stroke-width:0.144676;
stroke-linecap:round;
stroke-linejoin:round;
fill:none;
}
.sc {
stroke:#ff0000;
stroke-width:0.385802;
stroke-linecap:round;
stroke-linejoin:round;
fill:none;
}
.sd {
stroke:#191919;
stroke-width:0.048225;
stroke-linecap:round;
stroke-linejoin:round;
fill:none;
}
.se {
stroke:#000000;
stroke-width:0.048225;
stroke-linecap:round;
stroke-linejoin:round;
stroke-dasharray:0.723,0.723;
fill:none;
}
.sf {
stroke:#000000;
stroke-width:0.144676;
stroke-linecap:round;
stroke-linejoin:round;
fill:none;
}
]]></style><metadata
     id="metadata385"><rdf:RDF><cc:Work
         rdf:about=""><dc:title>Exported SVG</dc:title></cc:Work></rdf:RDF></metadata><g
     inkscape:groupmode="layer"
     id="layer5"
     inkscape:label="Layer 1"><g
       id="g17302"
       transform="rotate(9.8912246,51.483061,-109.13665)"
       style="display:inline;stroke-width:0.4;stroke-dasharray:none"
       inkscape:label="colors"><path
         style="display:inline;fill:#ffedcc;fill-opacity:1;stroke-width:0.3;stroke-linecap:round;stroke-linejoin:round;stroke-dasharray:none"
         d="m 27.713905,21.259148 c -0.62433,-0.06258 -1.342311,-0.233811 -1.739383,-0.719649 -0.526023,-0.643616 -0.145795,-1.818387 -0.475585,-2.447917 -0.982097,-1.874723 -1.914607,-3.299421 -2.8416,-4.966231 -0.463424,-0.833277 -1.279699,-1.566451 -1.359761,-2.516557 -0.04761,-0.565032 0.137692,-1.2181967 0.546802,-1.6108254 0.432039,-0.4146342 1.176469,-0.2632388 1.7234,-0.5070527 0.886751,-0.3953004 1.519148,-1.3841016 2.47919,-1.5286978 1.302788,-0.1962187 2.556499,1.3435703 3.826065,0.9914892 1.029828,-0.285596 1.202784,-2.0561304 2.246057,-2.2878428 0.715752,-0.1589694 1.671704,0.1481051 2.060505,0.7697204 0.568178,0.908403 -0.427764,2.1352094 -0.306237,3.1997532 0.156863,1.3740729 1.354947,2.5523179 1.315959,3.9347659 -0.03114,1.104187 -1.606335,1.902085 -2.0857,2.926882 -0.388871,0.831337 0.128626,1.91566 -0.376254,2.655988 -0.377736,0.553891 -0.694371,1.065938 -1.227251,1.368276 -1.118352,0.634515 -2.506807,0.866147 -3.78621,0.737898 z"
         id="path23680"
         sodipodi:nodetypes="aasaaaaaaaaasssaaa" /><path
         id="path23759"
         style="display:inline;fill:#ffe6b3;fill-opacity:1;stroke-width:0.3;stroke-linecap:round;stroke-linejoin:round;stroke-dasharray:none"
         d="m 26.117489,7.595276 c -1.270894,0.1977071 -1.988845,1.1113284 -2.942482,1.2872001 -0.953637,0.1758717 -1.258525,0.1851687 -1.494792,1.1646509 -0.236267,0.979483 0.807767,1.594485 1.430961,2.351099 0.623194,0.756614 0.244421,1.428348 1.547108,2.242834 1.302687,0.814486 4.527138,1.731703 6.250035,1.605858 1.722897,-0.125845 2.140714,-0.55532 2.995181,-1.336255 0.854467,-0.780935 0.88758,-1.148274 0.771735,-2.068784 C 34.55939,11.921369 33.756796,10.875721 33.45516,9.9944848 33.153524,9.1132484 34.118392,8.4106464 33.928209,7.6429555 33.73803,6.8752646 33.523504,5.8845455 32.624872,6.1911928 31.72624,6.4978401 31.199484,8.4034921 29.984012,8.4118506 28.76854,8.4202106 27.388379,7.397569 26.117485,7.5952756 Z m 6.036355,8.599245 c -0.359123,0.07119 -1.091899,0.767353 -1.983255,0.845487 -0.891356,0.07813 -2.229934,0.01175 -2.922186,-0.580745 -0.692252,-0.592496 -1.808611,-1.13057 -2.106208,-0.898996 -0.297597,0.231574 0.149006,1.572032 0.852238,2.056577 0.703233,0.484545 0.174636,1.272684 0.278526,2.13862 0.103885,0.865936 0.603436,1.034389 1.662925,1.162361 1.059489,0.127972 2.502395,-0.05303 3.52237,-0.827347 1.019975,-0.774316 1.259761,-2.09202 1.040398,-2.875886 -0.219363,-0.783866 -0.157169,-1.041977 -0.344805,-1.020071 -0.187636,0.0219 0.359119,-0.07119 -3e-6,0 z"
         sodipodi:nodetypes="zzzzzzzzzzzzzzzzzzzzzzzzz" /><path
         id="path23992"
         style="display:inline;fill:#ffdd99;fill-opacity:1;stroke-width:0.3;stroke-linecap:round;stroke-linejoin:round;stroke-dasharray:none"
         d="m 27.230268,7.6927683 c -0.475594,0.093453 -0.875193,0.2513681 -1.296194,0.5685563 -0.421001,0.3171882 0.06573,0.7861532 0.587818,1.054685 0.522085,0.2685318 1.620794,0.169674 2.221403,0.330254 0.600609,0.16058 1.07521,-0.014437 1.107524,-0.633751 C 29.883133,8.3931983 29.226938,8.0822899 28.693674,7.9678361 28.16041,7.8533823 27.705862,7.599315 27.230268,7.6927683 Z m -2.514127,1.0030574 c -0.251371,0.081769 -1.14901,0.2685425 -1.428942,0.6308052 -0.279932,0.3622627 -0.611958,0.2772623 -1.015829,0.4556725 -0.403871,0.1784102 -0.344225,0.8337416 -0.09743,1.2853776 0.246795,0.451636 1.029044,0.883331 1.557274,0.453402 0.52823,-0.429929 0.96749,-1.183801 1.014518,-1.7657983 0.04703,-0.5819973 0.552639,-0.6724719 0.356595,-0.9264174 -0.196044,-0.2539455 -0.316485,-0.1438185 -0.386195,-0.1330416 -0.06971,0.010777 0.25138,-0.081769 9e-6,0 z m -0.256612,2.6730833 c -0.262076,0.04874 -0.660683,0.605301 -0.591984,1.180674 0.0687,0.575373 0.316135,1.469131 0.875125,1.869064 0.55899,0.399933 0.994642,0.763373 1.493166,1.19582 0.498524,0.432447 0.818667,0.438106 1.882524,0.673132 1.063857,0.235026 3.284063,0.08931 4.436329,-0.567935 1.152266,-0.657247 1.804556,-1.605408 1.903953,-2.478394 0.0994,-0.872986 -0.162423,-1.2711 -0.738882,-1.363119 -0.576459,-0.09202 -0.884292,0.575997 -1.079546,1.079995 -0.195254,0.503998 -0.180746,0.976695 -1.042409,1.365176 -0.861663,0.388481 -2.627602,0.688565 -3.711413,0.200758 -1.083811,-0.487807 -1.591325,-1.832885 -2.083237,-2.437905 -0.491912,-0.60502 -1.008583,-0.781343 -1.291522,-0.725302 -0.282939,0.05604 -0.04365,0.0065 -0.0521,0.008 -0.0084,0.0015 0.262072,-0.0487 -4e-6,3.6e-5 z m 1.382585,4.559706 c -0.2565,0.04021 -0.468194,0.633501 -0.01675,0.905692 0.451444,0.272191 1.267011,0.528261 1.646806,0.984908 0.379795,0.456647 0.901856,0.05051 0.956242,-0.44843 0.05439,-0.498939 -0.642449,-0.426082 -1.080572,-0.634617 -0.438123,-0.208535 -1.189878,-0.840395 -1.505723,-0.807553 -0.315846,0.03284 0.256497,-0.04021 -3e-6,0 z m 5.721689,1.036558 c -0.32696,0.0467 -0.333552,0.669792 -0.691995,1.326106 -0.358443,0.656314 -1.826064,1.253456 -2.556612,1.149759 -0.730548,-0.103697 -0.95766,0.0036 -1.359557,-0.450635 -0.401897,-0.454269 -0.796917,-0.175992 -0.531522,0.494605 0.265395,0.670597 0.565822,1.191626 1.607493,1.19361 1.041671,0.002 2.457883,-0.13831 3.154015,-0.806661 0.696133,-0.668351 0.944509,-1.385602 1.073828,-1.903949 0.129319,-0.518347 -0.31156,-1.092093 -0.629688,-1.009615 -0.318128,0.08248 -0.05541,0.0053 -0.06596,0.0068 -0.01054,0.0015 0.326957,-0.04672 -2e-6,-2e-5 z"
         sodipodi:nodetypes="zzzzzzzzzzzzzzzzzzzzzzzzzzzzzzzzzzzzzzzzzzzzzzzzz" /><path
         id="path24167"
         style="display:inline;stroke-width:0.3;stroke-dasharray:none;fill:#ffffb3;fill-opacity:1;stroke-linecap:round;stroke-linejoin:round"
         d="m 32.411074,5.9432728 c -0.664715,0.083878 -0.991394,0.7484697 -1.348785,1.23207 -0.41243,0.6428963 -0.804219,1.3236477 -0.997307,2.0665851 -0.06572,0.5288783 0.310978,0.9928611 0.748333,1.2389191 0.551241,0.410017 1.001066,0.941841 1.461384,1.43998 0.301667,0.317292 1.028127,-10e-4 0.549199,-0.371991 -0.451597,-0.239027 -0.853937,-0.861248 -0.284442,-1.220057 0.467477,-0.262155 0.511664,-0.7583165 0.31363,-1.2015774 -0.0479,-0.5222447 0.508475,-0.6977113 0.761674,-1.0533972 0.220794,-0.3394698 0.244822,-0.7718498 0.237261,-1.1667284 -0.0087,-0.4469835 -0.334882,-0.8481981 -0.776916,-0.9345221 -0.21554,-0.058827 -0.444117,-0.067861 -0.664031,-0.029281 z m -4.817025,4.5968552 c -0.625221,0.03708 -0.634742,0.877886 -0.232332,1.208212 0.32542,0.426189 0.886871,0.38201 1.361698,0.377386 0.526672,-0.02218 0.865109,0.422398 1.129839,0.813105 0.377662,0.570726 0.741801,1.176332 1.320816,1.568101 0.492568,0.376869 1.02763,0.821376 1.679113,0.825727 0.64111,0.02341 0.668527,-0.734178 0.585714,-1.194922 -0.102562,-0.721237 -0.611993,-1.410287 -1.34514,-1.575348 -0.873719,-0.310708 -1.527265,-1.013638 -2.38123,-1.36227 -0.553722,-0.237463 -1.105872,-0.497267 -1.689522,-0.649823 -0.141173,-0.02567 -0.286871,-0.0338 -0.428956,-0.01017 z" /><path
         id="path1"
         style="fill:#ffd580;fill-opacity:1;stroke-width:0.2;stroke-linecap:round;stroke-linejoin:round"
         d="M 6.7462907,2.3993158 C 6.8875418,2.9347481 7.1066603,2.8433992 7.171603,3.4355932 7.2365457,4.0277872 6.8473359,4.4993672 6.8374905,5.1645849 6.8276451,5.8298026 6.5733887,6.9020285 7.1733953,7.2394621 7.7734019,7.5768957 7.8084234,6.5028705 7.7972261,5.8807412 7.7860288,5.2586119 8.0447425,4.2218965 8.4709398,3.7536946 8.8971371,3.2854927 9.3487475,2.5395477 8.7021475,2.3217833 8.0555475,2.1040189 7.6343858,1.5956083 7.1588074,1.7457514 6.683229,1.8958945 6.6050396,1.8638836 6.7462907,2.3993158 Z m 3.9933043,0.5686729 c -0.563072,0.3644696 -0.577817,1.1385375 -0.06208,1.8625359 0.515739,0.7239984 1.307359,1.0649796 1.811653,1.6054659 0.504294,0.5404863 0.175192,1.1393862 0.09424,1.7188719 -0.08095,0.5794857 -0.04329,1.3556714 0.602101,0.8157034 0.645387,-0.539968 0.366752,-0.8080961 0.316767,-1.5487046 -0.04998,-0.7406086 0.08291,-1.5749257 -0.58606,-2.0480679 C 12.247244,4.9006511 12.082017,4.7796422 11.445721,4.4273652 10.809425,4.0750882 11.266389,3.8356721 11.287692,3.4110048 11.308995,2.9863375 11.302667,2.6035191 10.739595,2.9679887 Z M 3.5041552,2.8437011 C 3.1863716,2.9305686 3.4469933,3.5936115 2.7744962,3.127778 2.1019991,2.6619445 2.4238162,3.6728337 2.658437,4.0777824 2.8930578,4.4827311 2.7479048,5.0516772 3.2940327,5.363246 3.8401606,5.6748148 4.2572262,6.2170851 4.367371,6.7735022 4.4775158,7.3299193 5.1197471,8.1653678 5.5269097,7.7399011 5.9340723,7.3144344 5.2504452,6.484999 4.9429877,5.976091 4.6355302,5.467183 4.0236417,5.0673546 4.0485706,4.4550769 4.0734995,3.8427992 4.5828824,3.1021067 4.3130233,2.7584975 4.0431642,2.4148883 3.8219388,2.7568336 3.5041552,2.8437011 Z m 4.4075066,0.2992595 c 0.1319673,-0.00839 -0.1319673,0.00839 0,0 z M 7.2315999,3.698999 c 0.2920757,-0.2090736 -0.2920757,0.2090736 0,0 z m -4.4824137,0.2206584 0.00413,0.014469 z M 9.0485433,7.0192098 C 8.5014433,6.6537172 8.3133786,8.0431373 8.4687432,8.6512838 8.6241078,9.2594303 9.2313415,9.4428784 9.7950209,9.2657821 10.3587,9.0886858 10.296248,9.6133393 9.7456434,9.5310896 9.1950393,9.4488399 8.5537927,9.5914926 7.9716562,9.4355359 7.3895197,9.2795792 6.7524015,9.0609004 6.2967486,8.7639571 5.8410957,8.4670138 4.6079218,7.8047411 4.6908295,8.5873217 c 0.082908,0.7825806 1.111915,1.1264328 1.8023093,1.5012763 0.6903943,0.374844 1.4411603,0.309397 2.2951403,0.443367 0.85398,0.13397 1.8651019,-0.251374 2.7710979,-0.517478 0.905996,-0.2661036 0.40702,-0.7000866 -0.08161,-0.9307442 C 10.989137,8.8530852 10.552503,8.3121016 10.009614,8.1361604 9.4667248,7.9602192 9.5956433,7.3847024 9.0485433,7.0192098 Z M 7.10861,11.655103 c -0.4092283,-0.04389 -1.0051047,0.596047 -0.6051548,1.112252 0.3999499,0.516205 1.187022,0.558253 1.6229506,0.535928 0.4359286,-0.02233 1.3989222,0.02629 0.6810529,0.306015 -0.7178693,0.279725 -1.4980353,0.155718 -2.1513334,0.125455 -0.6532981,-0.03026 -1.349663,-0.626343 -1.7634405,-0.07155 -0.4137775,0.554793 0.738935,1.236128 1.2846891,1.026541 0.5457541,-0.209587 1.0481319,0.205533 1.6768609,0.09206 0.628729,-0.113473 1.0408677,-0.05191 1.6865273,-0.733922 0.6456599,-0.682014 1.0745159,-0.823509 0.8802139,-1.651158 -0.194301,-0.827649 -0.6238279,-0.253823 -1.1824968,-0.170578 -0.5586689,0.08324 -1.2144906,-0.497331 -1.6019397,-0.533238 -0.3874491,-0.03591 -0.1187012,0.0061 -0.5279295,-0.0378 z m 0.7348389,2.036051 -0.00421,-0.0051 z"
         transform="rotate(-9.8912246,51.483054,-109.13665)"
         sodipodi:nodetypes="zzzzzzzzzzzzzzzzzzzzzzzzzzzzzzzzzzzzzzzzzzzzzzzzzzzzzzzzzzzzzzzzzz" /></g><g
       inkscape:label="svglink:blimp.svg"
       ns3:href="blimp.svg"
       ns4:x="14.63777"
       ns4:y="0.69231856"
       ns3:image-svg-dpi="200"
       ns3:image-height="16.072327"
       ns3:image-width="16.072327"
       id="g10"
       transform="translate(-14.6378,-0.69231645)"><defs
   id="defs10"
   transform="translate(14.6378, 0.692319)" />&#10;  <sodipodi:namedview
   id="namedview10"
   pagecolor="#ffffff"
   bordercolor="#666666"
   borderopacity="1.0"
   inkscape:showpageshadow="2"
   inkscape:pageopacity="0.0"
   inkscape:pagecheckerboard="0"
   inkscape:deskcolor="#d1d1d1"
   inkscape:document-units="mm"
   showgrid="false"
   inkscape:zoom="3.4970721"
   inkscape:cx="46.753397"
   inkscape:cy="-13.868745"
   inkscape:window-width="956"
   inkscape:window-height="1037"
   inkscape:window-x="960"
   inkscape:window-y="0"
   inkscape:window-maximized="1"
   inkscape:current-layer="layer6"
   showguides="false"
   transform="translate(14.6378, 0.692319)" />&#10;  <title
   id="title10"
   transform="translate(14.6378, 0.692319)">Exported SVG</title>&#10;  <style
   id="style10"
   transform="translate(14.6378, 0.692319)"><![CDATA[
polygon {
shape-rendering:crispEdges;
stroke-width:0.074000;
}
.s0 {
stroke:#000000;
stroke-width:0.072338;
stroke-linecap:round;
stroke-linejoin:round;
fill:none;
}
.s1 {
stroke:#000000;
stroke-width:0.072338;
stroke-linecap:round;
stroke-linejoin:round;
fill:none;
}
.s2 {
stroke:#19b219;
stroke-width:0.072338;
stroke-linecap:round;
stroke-linejoin:round;
fill:none;
}
.s3 {
stroke:#7f4c00;
stroke-width:0.072338;
stroke-linecap:round;
stroke-linejoin:round;
fill:none;
}
.s4 {
stroke:#00cc00;
stroke-width:0.072338;
stroke-linecap:round;
stroke-linejoin:round;
fill:none;
}
.s5 {
stroke:#000000;
stroke-width:0.048225;
stroke-linecap:round;
stroke-linejoin:round;
fill:none;
}
.s6 {
stroke:#ff19ff;
stroke-width:0.048225;
stroke-linecap:round;
stroke-linejoin:round;
fill:none;
}
.s7 {
stroke:#ff0000;
stroke-width:0.072338;
stroke-linecap:round;
stroke-linejoin:round;
fill:none;
}
.s8 {
stroke:#ffff00;
stroke-width:0.072338;
stroke-linecap:round;
stroke-linejoin:round;
fill:none;
}
.s9 {
stroke:#001919;
stroke-width:0.048225;
stroke-linecap:round;
stroke-linejoin:round;
fill:none;
}
.sa {
stroke:#006666;
stroke-width:0.048225;
stroke-linecap:round;
stroke-linejoin:round;
fill:none;
}
.sb {
stroke:#00ffff;
stroke-width:0.144676;
stroke-linecap:round;
stroke-linejoin:round;
fill:none;
}
.sc {
stroke:#ff0000;
stroke-width:0.385802;
stroke-linecap:round;
stroke-linejoin:round;
fill:none;
}
.sd {
stroke:#191919;
stroke-width:0.048225;
stroke-linecap:round;
stroke-linejoin:round;
fill:none;
}
.se {
stroke:#000000;
stroke-width:0.048225;
stroke-linecap:round;
stroke-linejoin:round;
stroke-dasharray:0.723,0.723;
fill:none;
}
.sf {
stroke:#000000;
stroke-width:0.144676;
stroke-linecap:round;
stroke-linejoin:round;
fill:none;
}
]]></style>&#10;  <metadata
   id="metadata10"
   transform="translate(14.6378, 0.692319)">&#10;    <rdf:RDF>&#10;      <cc:Work
   rdf:about="">&#10;        <dc:title>Exported SVG</dc:title>&#10;      </cc:Work>&#10;    </rdf:RDF>&#10;  </metadata>&#10;  <g
   inkscape:groupmode="layer"
   id="layer6"
   inkscape:label="Layer 1"
   transform="translate(14.6378,0.692319)">&#10;    <path
   style="fill:none;stroke:#000000;stroke-width:0.1;stroke-linecap:round;stroke-linejoin:round;stroke-dasharray:none;stroke-opacity:1"
   d="m 5.2227994,11.560886 c 0,0 -0.2825169,0.970149 -0.2885666,1.469204 -0.00416,0.343054 -0.038113,0.74466 0.1738238,1.014454 0.1410771,0.179591 0.4059436,0.221893 0.6286821,0.272326 0.2548211,0.0577 0.5234077,0.0018 0.7832923,0.02865 0.3729155,0.03858 0.7337344,0.183132 1.1085809,0.189852 0.317349,0.0057 0.6443569,-0.02144 0.9436947,-0.126985 0.2782751,-0.09812 0.5383189,-0.260564 0.7573185,-0.458309 0.215902,-0.194948 0.3727285,-0.449179 0.5254398,-0.696762 0.049671,-0.08052 0.1258146,-0.254424 0.1258146,-0.254424"
   id="path14385"
   sodipodi:nodetypes="caaaaaaaac" />&#10;    <path
   style="fill:none;stroke:#000000;stroke-width:0.1;stroke-linecap:round;stroke-linejoin:round;stroke-dasharray:none;stroke-opacity:1"
   d="m 6.0035493,11.61727 4.2427377,0.893008 -0.06947,0.227935 -3.9239765,-0.779856 c 0,0 -0.1601583,0.262063 -0.2886476,0.333541 -0.16464,0.09159 -0.3824344,0.156776 -0.558172,0.08887 -0.1495115,-0.05777 -0.3006503,-0.375272 -0.3006503,-0.375272"
   id="path14387"
   sodipodi:nodetypes="ccccaac" />&#10;    <path
   style="fill:none;stroke:#000000;stroke-width:0.1;stroke-linecap:round;stroke-linejoin:round;stroke-dasharray:none;stroke-opacity:1"
   d="m 6.0035493,11.61727 c 0,0 0.00786,0.231946 -0.1942488,0.305943 -0.2953546,0.108136 -0.41684,-0.08091 -0.41684,-0.08091 L 4.603547,10.533717 c 0,0 -0.123937,-0.223942 0.014885,-0.321543 0.1396083,-0.09815 0.317447,0.04137 0.317447,0.04137 l 1.0127636,1.124773"
   id="path14389"
   sodipodi:nodetypes="csccscc" />&#10;    <path
   style="fill:none;stroke:#000000;stroke-width:0.1;stroke-linecap:round;stroke-linejoin:round;stroke-dasharray:none;stroke-opacity:1"
   d="M 4.6184322,10.212174 C 3.7285153,8.1583916 3.1283936,5.8829183 2.3836357,3.7180893"
   id="path14391"
   sodipodi:nodetypes="cc" />&#10;    <path
   style="fill:none;stroke:#000000;stroke-width:0.1;stroke-linecap:round;stroke-linejoin:round;stroke-dasharray:none;stroke-opacity:1"
   d="m 2.1601919,3.4121164 c 0.00388,0.044844 0.011675,0.088999 0.026423,0.1193369 0.039542,0.081362 0.1168319,0.144766 0.1970205,0.186636 0.049812,0.026013 0.1090118,0.037767 0.1650948,0.034168 0.063586,-0.00408 0.1806961,-0.062337 0.1806961,-0.062337"
   id="path14732"
   sodipodi:nodetypes="csaac" />&#10;    <path
   style="fill:none;stroke:#000000;stroke-width:0.1;stroke-linecap:round;stroke-linejoin:round;stroke-dasharray:none;stroke-opacity:1"
   d="m 2.0840663,3.1570608 c 0,0 0.5143873,0.359567 0.8119793,0.3734715 0.1021523,0.00477 0.1878784,-0.089858 0.2894599,-0.1016501 0.08304,-0.00964 0.1953781,-0.03714 0.2493672,0.026683 0.076519,0.090459 0.040596,0.2537981 -0.021317,0.3548193 -0.053454,0.087204 -0.1624403,0.1606066 -0.264594,0.1554096 -0.053388,-0.00271 -0.1056646,-0.046898 -0.1293238,-0.094835 -0.018758,-0.038017 0.00268,-0.1271503 0.00268,-0.1271503"
   id="path14734"
   sodipodi:nodetypes="caaaaaac" />&#10;    <path
   style="fill:none;stroke:#000000;stroke-width:0.1;stroke-linecap:round;stroke-linejoin:round;stroke-dasharray:none;stroke-opacity:1"
   d="m 2.9170028,4.7489015 c 0,0 0.4981074,-0.1096844 0.6908856,-0.2632114 C 3.8013844,4.331591 3.9319423,4.0998838 4.0205822,3.8689505 4.0989293,3.6648358 4.1475158,3.4358525 4.1142297,3.2197677 4.0966698,3.1057769 4.1050328,2.9612959 3.9640535,2.9080513"
   id="path14736"
   sodipodi:nodetypes="caaac" />&#10;    <path
   style="fill:none;stroke:#000000;stroke-width:0.1;stroke-linecap:round;stroke-linejoin:round;stroke-dasharray:none;stroke-opacity:1"
   d="m 2.9055954,3.9580495 c 0,0 -0.015495,0.064994 -0.01944,0.098099 -0.00476,0.039549 -0.00637,0.079609 -0.00501,0.1194267 0.014118,0.4087946 0.046933,0.8203144 0.1358644,1.2195676 0.076257,0.3423501 0.1964901,0.6755666 0.3383645,0.9963315 0.1416881,0.3203436 0.3133242,0.6287888 0.5088384,0.919425 0.2992412,0.4448282 0.6323299,0.8711424 1.009912,1.2517341 0.2802337,0.2824677 0.5910094,0.5376209 0.9230345,0.7568878 0.2769037,0.1828652 0.706364,0.3947456 1.0819308,0.5418291 0.3738044,0.1463977 0.8321444,0.2745857 1.1566891,0.3354397 0.4023169,0.07543 0.8118837,0.11004 1.220331,0.136871 0.3434632,0.02257 0.6882174,0.02236 1.0324139,0.02015 0.207671,-0.0013 0.415968,-3.62e-4 0.622696,-0.02017 0.231649,-0.02219 0.469266,-0.03471 0.689363,-0.110281 0.207421,-0.07122 0.408523,-0.176052 0.576477,-0.3170739 0.288832,-0.2425179 0.526453,-0.5518254 0.708572,-0.8820855 0.201481,-0.365372 0.349693,-0.7704262 0.406979,-1.183717 0.0761,-0.5489576 0.114512,-1.1459532 -0.0925,-1.6600466 C 13.063934,5.8422623 12.487244,5.3509942 12.487244,5.3509942"
   id="path14738"
   sodipodi:nodetypes="caaaaaaaaaaaaaaaaac" />&#10;    <path
   style="fill:none;stroke:#000000;stroke-width:0.1;stroke-linecap:round;stroke-linejoin:round;stroke-dasharray:none;stroke-opacity:1"
   d="m 3.3060581,3.4150235 c 0,0 0.9871941,-0.8164084 1.5668946,-1.0686792 0.1812723,-0.078885 0.3846361,-0.09196 0.5784787,-0.1307848 0.1177254,-0.02358 0.2352904,-0.050629 0.3548141,-0.062005 0.1568302,-0.014926 0.3153314,-0.017972 0.4725497,-0.00793 0.2426566,0.015505 0.4861638,0.045226 0.7218633,0.1049595 0.1587525,0.040233 0.3350208,0.064985 0.4611842,0.1694045 0.1366766,0.1131226 0.1479277,0.3313468 0.2736751,0.4565067 0.1251402,0.1245557 0.2861926,0.2203799 0.4555732,0.2702237 0.1628159,0.047912 0.3436101,0.057763 0.5088073,0.018843 0.1232939,-0.029045 0.2531001,-0.084242 0.3335365,-0.1820936 0.028988,-0.035261 0.053698,-0.08674 0.041118,-0.1306177 C 9.020606,2.6647196 8.7994899,2.5661057 8.6282524,2.4713279 8.2601118,2.2675674 7.8409819,2.1480402 7.4237233,2.0938092 7.0448761,2.0445706 6.2787952,2.1456287 6.2787952,2.1456287"
   id="path15040"
   sodipodi:nodetypes="caaaaaaaaaaaaac" />&#10;    <path
   style="fill:none;stroke:#000000;stroke-width:0.1;stroke-linecap:round;stroke-linejoin:round;stroke-dasharray:none;stroke-opacity:1"
   d="M 5.5950952,10.985663 C 5.4005202,10.287587 5.4225856,9.7737593 5.400774,9.0328291"
   id="path15044"
   sodipodi:nodetypes="cc" />&#10;    <path
   style="fill:none;stroke:#000000;stroke-width:0.1;stroke-linecap:round;stroke-linejoin:round;stroke-dasharray:none;stroke-opacity:1"
   d="m 6.6869996,11.761122 c 0,0 0.1260163,-2.3685197 0.2407814,-3.5485073 C 7.0177638,7.2874376 7.1256104,6.3630042 7.2786574,5.4461469 7.3600214,4.958573 7.4340054,4.466402 7.5800193,3.9941445 7.6417387,3.7945152 7.8212949,3.4155779 7.8212949,3.4155779"
   id="path15046"
   sodipodi:nodetypes="caaac" />&#10;    <path
   style="fill:none;stroke:#000000;stroke-width:0.1;stroke-linecap:round;stroke-linejoin:round;stroke-dasharray:none;stroke-opacity:1"
   d="m 8.3573178,3.3145159 c 0,0 -0.097455,0.1622816 -0.1805236,0.1864279 -0.1170243,0.034019 -0.2655046,-0.00319 -0.3554993,-0.085366 -0.075964,-0.069362 -0.092205,-0.1896531 -0.098953,-0.2922951 -0.00184,-0.027296 0.015862,-0.08049 0.015862,-0.08049"
   id="path15050"
   sodipodi:nodetypes="caaac" />&#10;    <path
   style="fill:none;stroke:#000000;stroke-width:0.1;stroke-linecap:round;stroke-linejoin:round;stroke-dasharray:none;stroke-opacity:1"
   d="m 12.172323,9.0541609 c 0,0 0.530744,-0.9810951 0.664816,-1.516507 0.07113,-0.2840456 0.0797,-0.5832206 0.06808,-0.8758053 -0.0082,-0.2074367 -0.09737,-0.6151421 -0.09737,-0.6151421"
   id="path15054"
   sodipodi:nodetypes="caac" />&#10;    <path
   style="fill:none;stroke:#000000;stroke-width:0.1;stroke-linecap:round;stroke-linejoin:round;stroke-dasharray:none;stroke-opacity:1"
   d="m 12.903402,6.0087482 c 0,0 -0.155915,0.077962 -0.22696,0.047519 -0.07867,-0.033715 -0.133485,-0.132688 -0.135237,-0.218256 -9e-4,-0.044902 0.06622,-0.1173537 0.06622,-0.1173537"
   id="path15056"
   sodipodi:nodetypes="caac" />&#10;    <path
   style="fill:none;stroke:#000000;stroke-width:0.1;stroke-linecap:round;stroke-linejoin:round;stroke-dasharray:none;stroke-opacity:1"
   d="m 9.5987936,12.373994 c 0,0 0.9871114,-1.110911 1.3927624,-1.730295 0.215421,-0.328923 0.370196,-0.6938772 0.546709,-1.0452175 M 11.866303,8.5924848 C 12.075909,8.1897409 12.248392,7.7119457 12.3978,7.2843619 12.536269,6.8880886 12.676442,6.0562677 12.676442,6.0562677"
   id="path15423"
   sodipodi:nodetypes="caccsc" />&#10;    <path
   style="fill:none;stroke:#000000;stroke-width:0.1;stroke-linecap:round;stroke-linejoin:round;stroke-dasharray:none;stroke-opacity:1"
   d="m 10.325781,12.445924 0.391968,-0.312483 c 0,0 0.121642,-0.108417 0.08386,-0.185391 -0.06435,-0.131115 -0.209033,-0.04969 -0.209033,-0.04969 l -0.254402,0.146489 -0.5388236,0.371354"
   id="path15425"
   sodipodi:nodetypes="ccscc" />&#10;    <path
   style="fill:none;stroke:#000000;stroke-width:0.1;stroke-linecap:round;stroke-linejoin:round;stroke-dasharray:none;stroke-opacity:1"
   d="m 10.801611,11.94805 c 0.870949,-1.110972 0.926817,-1.201167 1.653604,-2.3121391"
   id="path15427"
   sodipodi:nodetypes="cc" />&#10;    <path
   style="fill:none;stroke:#000000;stroke-width:0.1;stroke-linecap:round;stroke-linejoin:round;stroke-dasharray:none;stroke-opacity:1"
   d="m 8.8682238,7.3228487 0.093608,0.6488537"
   id="path16063"
   sodipodi:nodetypes="cc" />&#10;    <path
   style="fill:none;stroke:#000000;stroke-width:0.1;stroke-linecap:round;stroke-linejoin:round;stroke-dasharray:none;stroke-opacity:1"
   d="m 8.6938879,7.4151161 c 0,0 -0.056402,-0.1139626 -0.042416,-0.171001 0.018856,-0.076701 0.081307,-0.154783 0.1569468,-0.1774953 0.062428,-0.018745 0.1379326,0.010145 0.1887896,0.050907 0.044299,0.035507 0.068308,0.095108 0.079077,0.1508531 0.0068,0.035212 -0.010848,0.1070356 -0.010848,0.1070356"
   id="path16065"
   sodipodi:nodetypes="caaaac" />&#10;    <path
   style="fill:none;stroke:#000000;stroke-width:0.1;stroke-linecap:round;stroke-linejoin:round;stroke-dasharray:none;stroke-opacity:1"
   d="M 9.2174513,8.1203102 C 9.1546871,8.0985451 9.0762554,8.0841076 9.01819,8.116383 8.945228,8.156943 8.8791828,8.2488913 8.8902123,8.3316338 c 0.00981,0.073578 0.094425,0.1200751 0.1599697,0.154916 0.04185,0.02225 0.092657,0.0386 0.1391367,0.029337 0.07697,-0.015346 0.1593418,-0.062873 0.1941449,-0.1332245 0.021036,-0.042518 0.015034,-0.1001917 -0.00719,-0.1421271 -0.03106,-0.058688 -0.096087,-0.098469 -0.1588191,-0.1202288 z"
   id="path16067"
   sodipodi:nodetypes="aaaaaaaaa" />&#10;    <path
   style="fill:none;stroke:#000000;stroke-width:0.1;stroke-linecap:round;stroke-linejoin:round;stroke-dasharray:none;stroke-opacity:1"
   d="M 9.3762711,8.240535 11.716738,8.1213822"
   id="path16069"
   sodipodi:nodetypes="cc" />&#10;    <path
   style="fill:none;stroke:#000000;stroke-width:0.1;stroke-linecap:round;stroke-linejoin:round;stroke-dasharray:none;stroke-opacity:1"
   d="M 9.3834636,8.3826621 12.425443,9.1155417"
   id="path16071"
   sodipodi:nodetypes="cc" />&#10;    <path
   style="fill:none;stroke:#000000;stroke-width:0.1;stroke-linecap:round;stroke-linejoin:round;stroke-dasharray:none;stroke-opacity:1"
   d="M 9.2896231,8.4776899 12.17706,9.9062859"
   id="path16073"
   sodipodi:nodetypes="cc" />&#10;    <path
   style="fill:none;stroke:#000000;stroke-width:0.1;stroke-linecap:round;stroke-linejoin:round;stroke-dasharray:none;stroke-opacity:1"
   d="M 11.964378,9.7961294 12.172323,9.0541609"
   id="path16075"
   sodipodi:nodetypes="cc" />&#10;    <path
   style="fill:none;stroke:#000000;stroke-width:0.1;stroke-linecap:round;stroke-linejoin:round;stroke-dasharray:none;stroke-opacity:1"
   d="M 11.560286,8.1308103 12.17232,9.0541604"
   id="path16077"
   sodipodi:nodetypes="cc" />&#10;    <path
   style="fill:none;stroke:#000000;stroke-width:0.1;stroke-linecap:round;stroke-linejoin:round;stroke-dasharray:none;stroke-opacity:1"
   d="M 9.2112771,7.4319485 11.359475,8.1395704"
   id="path16079"
   sodipodi:nodetypes="cc" />&#10;    <path
   style="fill:none;stroke:#000000;stroke-width:0.1;stroke-linecap:round;stroke-linejoin:round;stroke-dasharray:none;stroke-opacity:1"
   d="M 8.8824207,12.177918 C 9.2150767,11.568456 9.4631402,10.958994 9.604451,10.349532"
   id="path16081"
   sodipodi:nodetypes="cc" />&#10;    <path
   style="fill:none;stroke:#000000;stroke-width:0.1;stroke-linecap:round;stroke-linejoin:round;stroke-dasharray:none;stroke-opacity:1"
   d="m 9.0745533,2.8528553 c 0,0 0.6288196,0.3571079 0.9287047,0.5585032 0.238818,0.1603842 0.691531,0.5163319 0.691531,0.5163319"
   id="path16083"
   sodipodi:nodetypes="cac" />&#10;    <path
   style="fill:none;stroke:#000000;stroke-width:0.1;stroke-linecap:round;stroke-linejoin:round;stroke-dasharray:none;stroke-opacity:1"
   d="M 10.694789,3.9276904 10.881206,3.3366037"
   id="path16411"
   sodipodi:nodetypes="cc" />&#10;    <path
   style="fill:none;stroke:#000000;stroke-width:0.1;stroke-linecap:round;stroke-linejoin:round;stroke-dasharray:none;stroke-opacity:1"
   d="m 11.065436,2.8842647 c -0.04757,-0.021495 -0.109993,-0.016774 -0.156427,0.00706 -0.07291,0.037432 -0.143629,0.1116203 -0.152183,0.1931357 -0.0098,0.093208 0.05081,0.1940851 0.124376,0.2521392 0.0449,0.035431 0.110222,0.041495 0.167313,0.038046 0.05736,-0.00346 0.12505,-0.014401 0.162271,-0.058178 0.04486,-0.052754 0.05468,-0.1371354 0.03775,-0.2042791 -0.02383,-0.094497 -0.0943,-0.1877934 -0.183102,-0.2279273 z"
   id="path16413"
   sodipodi:nodetypes="aaaaaaaa" />&#10;    <path
   style="fill:none;stroke:#000000;stroke-width:0.1;stroke-linecap:round;stroke-linejoin:round;stroke-dasharray:none;stroke-opacity:1"
   d="M 11.248599,2.9298598 13.594486,1.5002496"
   id="path16415" />&#10;    <path
   style="fill:none;stroke:#000000;stroke-width:0.1;stroke-linecap:round;stroke-linejoin:round;stroke-dasharray:none;stroke-opacity:1"
   d="m 11.248528,3.1121907 2.484024,-0.266591"
   id="path16417" />&#10;    <path
   style="fill:none;stroke:#000000;stroke-width:0.1;stroke-linecap:round;stroke-linejoin:round;stroke-dasharray:none;stroke-opacity:1"
   d="M 11.210786,3.3164711 13.283827,4.390293"
   id="path16419"
   sodipodi:nodetypes="cc" />&#10;    <path
   style="fill:none;stroke:#000000;stroke-width:0.1;stroke-linecap:round;stroke-linejoin:round;stroke-dasharray:none;stroke-opacity:1"
   d="M 13.165557,4.3290296 12.287943,5.1927393 M 12.487244,5.3509942 10.694789,3.9276904"
   id="path16421"
   sodipodi:nodetypes="cccc" />&#10;    <path
   style="fill:none;stroke:#000000;stroke-width:0.1;stroke-linecap:round;stroke-linejoin:round;stroke-dasharray:none;stroke-opacity:1"
   d="M 13.165557,4.3290296 13.611386,2.8586034"
   id="path16423"
   sodipodi:nodetypes="cc" />&#10;    <path
   style="fill:none;stroke:#000000;stroke-width:0.1;stroke-linecap:round;stroke-linejoin:round;stroke-dasharray:none;stroke-opacity:1"
   d="M 13.611386,2.8586034 13.429671,1.6006901"
   id="path16425"
   sodipodi:nodetypes="cc" />&#10;    <path
   style="fill:none;stroke:#000000;stroke-width:0.1;stroke-linecap:round;stroke-linejoin:round;stroke-dasharray:none;stroke-opacity:1"
   d="m 4.1182121,3.4828149 c 0,0 1.0364743,-0.2699398 1.5663217,-0.2707232 0.5779719,-8.542e-4 1.1462576,0.1603861 1.7094494,0.2902607 0.2693207,0.062107 0.5341543,0.1438341 0.7956996,0.2331901 0.6040272,0.2063662 1.2238576,0.3905574 1.7830009,0.6984426 0.5611303,0.3089794 1.0392593,0.7494276 1.5490443,1.1373131 0.467315,0.355572 1.383487,1.0905504 1.383487,1.0905504"
   id="path16936"
   sodipodi:nodetypes="caaaaac" />&#10;    <path
   style="fill:none;stroke:#000000;stroke-width:0.1;stroke-linecap:round;stroke-linejoin:round;stroke-dasharray:none;stroke-opacity:1"
   d="m 3.9162549,4.0989887 c 0,0 0.6977588,0.5768422 1.0825507,0.8123771 0.6940824,0.4248544 1.4552172,0.7294738 2.1932242,1.0723987 0.6332166,0.2942324 1.9167487,0.8449239 1.9167487,0.8449239 0.6693039,0.2950364 1.3593245,0.5449792 2.0580825,0.7612046 0.499537,0.1545773 1.521516,0.3819295 1.521516,0.3819295"
   id="path16940"
   sodipodi:nodetypes="caasac" />&#10;    <path
   style="fill:none;stroke:#000000;stroke-width:0.1;stroke-linecap:round;stroke-linejoin:round;stroke-dasharray:none;stroke-opacity:1"
   d="m 3.6078884,4.4856901 c 0,0 0.7904417,1.9835032 1.4656818,2.7871789 0.4957265,0.5900172 1.1457449,1.0583172 1.8300736,1.41266 0.7868377,0.4074217 1.6649104,0.6476046 2.5408832,0.7809396 0.625381,0.095192 1.897738,0.00744 1.897738,0.00744"
   id="path16944"
   sodipodi:nodetypes="caaac" />&#10;    <path
   style="fill:none;stroke:#000000;stroke-width:0.1;stroke-linecap:round;stroke-linejoin:round;stroke-dasharray:none"
   d="m 6.720777,12.435531 2.742311,0.568326"
   id="path11451"
   sodipodi:nodetypes="cc" />&#10;    <path
   style="fill:none;stroke:#000000;stroke-width:0.1;stroke-linecap:round;stroke-linejoin:round;stroke-dasharray:none"
   d="m 7.663311,12.919586 1.720765,0.349125"
   id="path11453"
   sodipodi:nodetypes="cc" />&#10;    <path
   style="fill:none;stroke:#000000;stroke-width:0.1;stroke-linecap:round;stroke-linejoin:round;stroke-dasharray:none"
   d="M 8.106411,13.304129 9.08772,13.516847"
   id="path11455"
   sodipodi:nodetypes="cc" />&#10;    <path
   style="fill:none;stroke:#000000;stroke-width:0.1;stroke-linecap:round;stroke-linejoin:round;stroke-dasharray:none"
   d="m 7.66084,13.499748 1.300437,0.275238"
   id="path11457"
   sodipodi:nodetypes="cc" />&#10;    <path
   style="fill:none;stroke:#000000;stroke-width:0.1;stroke-linecap:round;stroke-linejoin:round;stroke-dasharray:none"
   d="m 7.923791,13.846494 0.664877,0.127709"
   id="path11459"
   sodipodi:nodetypes="cc" />&#10;    <path
   style="fill:none;stroke:#000000;stroke-width:0.1;stroke-linecap:round;stroke-linejoin:round;stroke-dasharray:none"
   d="M 6.31725,13.861518 8.066926,14.17166"
   id="path11461"
   sodipodi:nodetypes="cc" />&#10;    <path
   style="fill:none;stroke:#000000;stroke-width:0.1;stroke-linecap:round;stroke-linejoin:round;stroke-dasharray:none"
   d="m 5.358264,13.303659 0.664877,0.127709"
   id="path11463"
   sodipodi:nodetypes="cc" />&#10;    <path
   style="fill:none;stroke:#000000;stroke-width:0.1;stroke-linecap:round;stroke-linejoin:round;stroke-dasharray:none"
   d="M 5.336231,12.974844 6.31754,13.187561"
   id="path11465"
   sodipodi:nodetypes="cc" />&#10;    <path
   style="fill:none;stroke:#000000;stroke-width:0.1;stroke-linecap:round;stroke-linejoin:round;stroke-dasharray:none"
   d="m 5.77574,12.782291 1.720765,0.349126"
   id="path11467"
   sodipodi:nodetypes="cc" />&#10;  </g>&#10;</g></g></svg>
