<?xml version="1.0" encoding="UTF-8" standalone="no"?>
<!-- Created with Inkscape (http://www.inkscape.org/) -->

<svg
   width="31.730093mm"
   height="36.215298mm"
   viewBox="0 0 31.730093 36.215297"
   version="1.1"
   id="svg5"
   inkscape:version="1.3.2 (091e20ef0f, 2023-11-25, custom)"
   sodipodi:docname="forest_fill.svg"
   xml:space="preserve"
   xmlns:inkscape="http://www.inkscape.org/namespaces/inkscape"
   xmlns:sodipodi="http://sodipodi.sourceforge.net/DTD/sodipodi-0.dtd"
   xmlns="http://www.w3.org/2000/svg"
   xmlns:svg="http://www.w3.org/2000/svg"><sodipodi:namedview
     id="namedview7"
     pagecolor="#ffffff"
     bordercolor="#666666"
     borderopacity="1.0"
     inkscape:pageshadow="2"
     inkscape:pageopacity="0"
     inkscape:pagecheckerboard="false"
     inkscape:document-units="mm"
     showgrid="false"
     inkscape:zoom="0.9302882"
     inkscape:cx="69.870821"
     inkscape:cy="159.62795"
     inkscape:window-width="956"
     inkscape:window-height="1037"
     inkscape:window-x="0"
     inkscape:window-y="0"
     inkscape:window-maximized="1"
     inkscape:current-layer="layer1"
     inkscape:showpageshadow="2"
     inkscape:deskcolor="#ffffff" /><defs
     id="defs2" /><g
     inkscape:label="Layer 1"
     inkscape:groupmode="layer"
     id="layer1"
     transform="translate(15.238382,-48.412943)"><g
       id="g23-3-3"
       transform="translate(-8.062567,-44.738788)"><path
         id="path1-6"
         style="fill:#000000;stroke:none;stroke-width:0.499999;stroke-linecap:round;stroke-linejoin:round"
         d="m 23.150072,105.67802 c -0.197094,0.44905 -0.350346,0.9192 -0.578954,1.35322 -0.134799,0.23112 -0.269598,0.46216 -0.404397,0.69326 0.08821,0.1895 0.326292,0.34354 0.296584,0.56061 -0.02617,0.24499 -0.04214,0.49723 -0.202068,0.69825 -0.04999,0.12878 -0.227456,0.32281 -0.198141,0.41118 0.518465,0.0665 1.041537,0.0644 1.562933,0.0835 -0.14108,0.0505 -0.505848,-0.077 -0.432377,0.14814 0.04031,0.24997 0.111504,0.50499 0.03586,0.75529 0.0052,0.18794 -0.07224,0.27756 -0.264468,0.23322 -0.26698,0.003 -0.534012,0.005 -0.800992,0.0105 0.116738,-0.19186 0.35079,-0.33608 0.365919,-0.57173 -0.0026,-0.1259 0.07931,-0.4719 0.01832,-0.45028 -0.249966,0.29996 -0.495483,0.60515 -0.673653,0.95482 -0.03926,0.13218 -0.353592,0.419 -0.05942,0.36351 0.351497,0.005 0.703021,0.0105 1.054519,0.0183 0.02958,0.30159 -0.0079,0.60108 -0.05732,0.89818 0.170919,0.0183 0.387697,0.0848 0.531473,-0.0157 -0.0157,-0.2463 -0.08664,-0.4998 -0.01047,-0.74383 -0.02879,-0.25834 0.306399,-0.21201 0.467085,-0.29912 0.203376,-0.062 0.406752,-0.12407 0.610075,-0.18637 -0.22353,-0.37408 -0.447846,-0.74772 -0.67224,-1.12129 -0.169349,0.0105 0.216987,-0.0332 0.282135,-0.0314 0.161759,-0.0338 0.470042,0.0877 0.533803,-0.005 -0.100248,-0.30464 -0.181912,-0.61963 -0.363511,-0.8886 -0.125114,-0.2196 -0.250229,-0.43918 -0.375212,-0.65876 -0.20992,0.0131 -0.208611,-0.25913 -0.212014,-0.37678 0.198142,0.0641 0.154692,-0.0955 0.108363,-0.21306 -0.137416,-0.48075 -0.274597,-0.96152 -0.411909,-1.4423 0.120403,-0.18008 -0.02827,-0.14526 -0.147886,-0.17746 z m 0.132443,0.20704 c 0.0052,0.21751 0.117,0.44921 0.03246,0.65737 -0.117785,0.20678 -0.122235,0.44565 -0.136369,0.67622 0.0301,0.15234 0.312969,0.36032 -0.0052,0.32114 -0.161497,-0.005 -0.443004,0.0887 -0.529013,0.0236 0.127208,-0.43059 0.270095,-0.85651 0.46198,-1.2631 0.05837,-0.1382 0.119356,-0.27803 0.175893,-0.41492 z m 0.112289,1.99374 c -0.06256,0.0626 -0.125376,0.12537 -0.187933,0.18793 0.07119,0.25154 0.14998,0.50441 0.137678,0.76898 0.0026,0.0969 0.0079,0.19343 0.01047,0.29012 -0.207564,-0.0398 -0.524328,0.0327 -0.660959,-0.0827 -0.0513,-0.34742 -0.03167,-0.69763 -0.01832,-1.04675 0.241329,-0.0236 0.483365,-0.0531 0.717522,-0.11778 z" /><path
         id="path4-5-1"
         style="fill:#000000;stroke:none;stroke-width:0.499999;stroke-linecap:round;stroke-linejoin:round"
         d="m 19.319537,104.12417 c -0.197094,0.44905 -0.350346,0.9192 -0.578954,1.35322 -0.134799,0.23112 -0.269598,0.46216 -0.404397,0.69326 0.08821,0.1895 0.326292,0.34354 0.296584,0.56061 -0.02617,0.24499 -0.04214,0.49723 -0.202068,0.69825 -0.04999,0.12878 -0.227456,0.32281 -0.198141,0.41118 0.518465,0.0665 1.041537,0.0644 1.562933,0.0835 -0.14108,0.0505 -0.505848,-0.077 -0.432377,0.14814 0.04031,0.24997 0.111504,0.50499 0.03586,0.75529 0.0052,0.18794 -0.07224,0.27756 -0.264468,0.23322 -0.26698,0.003 -0.534012,0.005 -0.800992,0.0105 0.116738,-0.19186 0.35079,-0.33608 0.365919,-0.57173 -0.0026,-0.1259 0.07931,-0.4719 0.01832,-0.45028 -0.249966,0.29996 -0.495483,0.60515 -0.673653,0.95482 -0.03926,0.13218 -0.353592,0.419 -0.05942,0.36351 0.351497,0.005 0.703021,0.0105 1.054519,0.0183 0.02958,0.30159 -0.0079,0.60108 -0.05732,0.89818 0.170919,0.0183 0.387697,0.0848 0.531473,-0.0157 -0.0157,-0.2463 -0.08664,-0.4998 -0.01047,-0.74383 -0.02879,-0.25834 0.306399,-0.21201 0.467085,-0.29912 0.203376,-0.062 0.406752,-0.12407 0.610075,-0.18637 -0.22353,-0.37408 -0.447846,-0.74772 -0.67224,-1.12129 -0.169349,0.0105 0.216987,-0.0332 0.282135,-0.0314 0.161759,-0.0338 0.470042,0.0877 0.533803,-0.005 -0.100248,-0.30464 -0.181912,-0.61963 -0.363511,-0.8886 -0.125114,-0.2196 -0.250229,-0.43918 -0.375212,-0.65876 -0.20992,0.0131 -0.208611,-0.25913 -0.212014,-0.37678 0.198142,0.0641 0.154692,-0.0955 0.108363,-0.21306 -0.137416,-0.48075 -0.274597,-0.96152 -0.411909,-1.4423 0.120403,-0.18008 -0.02827,-0.14526 -0.147886,-0.17746 z m 0.132443,0.20704 c 0.0052,0.21751 0.117,0.44921 0.03246,0.65737 -0.117785,0.20678 -0.122235,0.44565 -0.136369,0.67622 0.0301,0.15234 0.312969,0.36032 -0.0052,0.32114 -0.161497,-0.005 -0.443004,0.0887 -0.529013,0.0236 0.127208,-0.43059 0.270095,-0.85651 0.46198,-1.2631 0.05837,-0.1382 0.119356,-0.27803 0.175893,-0.41492 z m 0.112289,1.99374 c -0.06256,0.0626 -0.125376,0.12537 -0.187933,0.18793 0.07119,0.25154 0.14998,0.50441 0.137678,0.76898 0.0026,0.0969 0.0079,0.19343 0.01047,0.29012 -0.207564,-0.0398 -0.524328,0.0327 -0.660959,-0.0827 -0.0513,-0.34742 -0.03167,-0.69763 -0.01832,-1.04675 0.241329,-0.0236 0.483365,-0.0531 0.717522,-0.11778 z" /><path
         id="path5-6-0"
         style="fill:#000000;stroke:none;stroke-width:0.499999;stroke-linecap:round;stroke-linejoin:round"
         d="m 21.697647,100.79185 c -0.197094,0.44905 -0.350346,0.9192 -0.578954,1.35322 -0.134799,0.23112 -0.269598,0.46216 -0.404397,0.69326 0.08821,0.1895 0.326292,0.34354 0.296584,0.56061 -0.02617,0.24499 -0.04214,0.49723 -0.202068,0.69825 -0.04999,0.12878 -0.227456,0.32281 -0.198141,0.41118 0.518465,0.0665 1.041537,0.0644 1.562933,0.0835 -0.14108,0.0505 -0.505848,-0.077 -0.432377,0.14814 0.04031,0.24997 0.111504,0.50499 0.03586,0.75529 0.0052,0.18794 -0.07224,0.27756 -0.264468,0.23322 -0.26698,0.003 -0.534012,0.005 -0.800992,0.0105 0.116738,-0.19186 0.35079,-0.33608 0.365919,-0.57173 -0.0026,-0.1259 0.07931,-0.4719 0.01832,-0.45028 -0.249966,0.29996 -0.495483,0.60515 -0.673653,0.95482 -0.03926,0.13218 -0.353592,0.419 -0.05942,0.36351 0.351497,0.005 0.703021,0.0105 1.054519,0.0183 0.02958,0.30159 -0.0079,0.60108 -0.05732,0.89818 0.170919,0.0183 0.387697,0.0848 0.531473,-0.0157 -0.0157,-0.2463 -0.08664,-0.4998 -0.01047,-0.74383 -0.02879,-0.25834 0.306399,-0.21201 0.467085,-0.29912 0.203376,-0.062 0.406752,-0.12407 0.610075,-0.18637 -0.22353,-0.37408 -0.447846,-0.74772 -0.67224,-1.12129 -0.169349,0.0105 0.216987,-0.0332 0.282135,-0.0314 0.161759,-0.0338 0.470042,0.0877 0.533803,-0.005 -0.100248,-0.30464 -0.181912,-0.61963 -0.363511,-0.8886 -0.125114,-0.2196 -0.250229,-0.43918 -0.375212,-0.65876 -0.20992,0.0131 -0.208611,-0.25913 -0.212014,-0.37678 0.198142,0.0641 0.154692,-0.0955 0.108363,-0.21306 -0.137416,-0.48075 -0.274597,-0.96152 -0.411909,-1.4423 0.120403,-0.18008 -0.02827,-0.14526 -0.147886,-0.17746 z m 0.132443,0.20704 c 0.0052,0.21751 0.117,0.44921 0.03246,0.65737 -0.117785,0.20678 -0.122235,0.44565 -0.136369,0.67622 0.0301,0.15234 0.312969,0.36032 -0.0052,0.32114 -0.161497,-0.005 -0.443004,0.0887 -0.529013,0.0236 0.127208,-0.43059 0.270095,-0.85651 0.46198,-1.2631 0.05837,-0.1382 0.119356,-0.27803 0.175893,-0.41492 z m 0.112289,1.99374 c -0.06256,0.0626 -0.125376,0.12537 -0.187933,0.18793 0.07119,0.25154 0.14998,0.50441 0.137678,0.76898 0.0026,0.0969 0.0079,0.19343 0.01047,0.29012 -0.207564,-0.0398 -0.524328,0.0327 -0.660959,-0.0827 -0.0513,-0.34742 -0.03167,-0.69763 -0.01832,-1.04675 0.241329,-0.0236 0.483365,-0.0531 0.717522,-0.11778 z" /><path
         id="path6-29-6"
         style="fill:#000000;stroke:none;stroke-width:0.499999;stroke-linecap:round;stroke-linejoin:round"
         d="m 17.757634,98.149899 c -0.197094,0.44905 -0.350346,0.9192 -0.578954,1.35322 -0.134799,0.23112 -0.269598,0.46216 -0.404397,0.693261 0.08821,0.1895 0.326292,0.34354 0.296584,0.56061 -0.02617,0.24499 -0.04214,0.49723 -0.202068,0.69825 -0.04999,0.12878 -0.227456,0.32281 -0.198141,0.41118 0.518465,0.0665 1.041537,0.0644 1.562933,0.0835 -0.14108,0.0505 -0.505848,-0.077 -0.432377,0.14814 0.04031,0.24997 0.111504,0.50499 0.03586,0.75529 0.0052,0.18794 -0.07224,0.27756 -0.264468,0.23322 -0.26698,0.003 -0.534012,0.005 -0.800992,0.0105 0.116738,-0.19186 0.35079,-0.33608 0.365919,-0.57173 -0.0026,-0.1259 0.07931,-0.4719 0.01832,-0.45028 -0.249966,0.29996 -0.495483,0.60515 -0.673653,0.95482 -0.03926,0.13218 -0.353592,0.419 -0.05942,0.36351 0.351497,0.005 0.703021,0.0105 1.054519,0.0183 0.02958,0.30159 -0.0079,0.60108 -0.05732,0.89818 0.170919,0.0183 0.387697,0.0848 0.531473,-0.0157 -0.0157,-0.2463 -0.08664,-0.4998 -0.01047,-0.74383 -0.02879,-0.25834 0.306399,-0.21201 0.467085,-0.29912 0.203376,-0.062 0.406752,-0.12407 0.610075,-0.18637 -0.22353,-0.37408 -0.447846,-0.74772 -0.67224,-1.12129 -0.169349,0.0105 0.216987,-0.0332 0.282135,-0.0314 0.161759,-0.0338 0.470042,0.0877 0.533803,-0.005 -0.100248,-0.30464 -0.181912,-0.61963 -0.363511,-0.8886 -0.125114,-0.2196 -0.250229,-0.43918 -0.375212,-0.65876 -0.20992,0.0131 -0.208611,-0.25913 -0.212014,-0.376781 0.198142,0.0641 0.154692,-0.0955 0.108363,-0.21306 -0.137416,-0.48075 -0.274597,-0.96152 -0.411909,-1.4423 0.120403,-0.18008 -0.02827,-0.14526 -0.147886,-0.17746 z m 0.132443,0.20704 c 0.0052,0.21751 0.117,0.44921 0.03246,0.65737 -0.117785,0.20678 -0.122235,0.44565 -0.136369,0.67622 0.0301,0.15234 0.312969,0.360321 -0.0052,0.321141 -0.161497,-0.005 -0.443004,0.0887 -0.529013,0.0236 0.127208,-0.430591 0.270095,-0.856511 0.46198,-1.263101 0.05837,-0.1382 0.119356,-0.27803 0.175893,-0.41492 z m 0.112289,1.993741 c -0.06256,0.0626 -0.125376,0.12537 -0.187933,0.18793 0.07119,0.25154 0.14998,0.50441 0.137678,0.76898 0.0026,0.0969 0.0079,0.19343 0.01047,0.29012 -0.207564,-0.0398 -0.524328,0.0327 -0.660959,-0.0827 -0.0513,-0.34742 -0.03167,-0.69763 -0.01832,-1.04675 0.241329,-0.0236 0.483365,-0.0531 0.717522,-0.11778 z" /><path
         id="path7-1-3"
         style="fill:#000000;stroke:none;stroke-width:0.499999;stroke-linecap:round;stroke-linejoin:round"
         d="m 10.7698,102.31037 c -0.197094,0.44905 -0.350346,0.9192 -0.578954,1.35322 -0.134799,0.23112 -0.2695983,0.46216 -0.4043971,0.69326 0.08821,0.1895 0.3262921,0.34354 0.2965841,0.56061 -0.02617,0.24499 -0.04214,0.49723 -0.2020683,0.69825 -0.04999,0.12878 -0.2274558,0.32281 -0.1981408,0.41118 0.5184651,0.0665 1.0415371,0.0644 1.5629321,0.0835 -0.141079,0.0505 -0.505847,-0.077 -0.432376,0.14814 0.04031,0.24997 0.111504,0.50499 0.03586,0.75529 0.0052,0.18794 -0.07224,0.27756 -0.264468,0.23322 -0.26698,0.003 -0.534012,0.005 -0.8009921,0.0105 0.1167378,-0.19186 0.3507901,-0.33608 0.3659191,-0.57173 -0.0026,-0.1259 0.07931,-0.4719 0.01832,-0.45028 -0.2499663,0.29996 -0.4954831,0.60515 -0.6736535,0.95482 -0.03926,0.13218 -0.353592,0.419 -0.05942,0.36351 0.3514974,0.005 0.7030215,0.0105 1.0545195,0.0183 0.02958,0.30159 -0.0079,0.60108 -0.05732,0.89818 0.170919,0.0183 0.387697,0.0848 0.531473,-0.0157 -0.0157,-0.2463 -0.08664,-0.4998 -0.01047,-0.74383 -0.02879,-0.25834 0.306398,-0.21201 0.467084,-0.29912 0.203376,-0.062 0.406752,-0.12407 0.610075,-0.18637 -0.22353,-0.37408 -0.447846,-0.74772 -0.67224,-1.12129 -0.169349,0.0105 0.216987,-0.0332 0.282135,-0.0314 0.161759,-0.0338 0.470042,0.0877 0.533803,-0.005 -0.100248,-0.30464 -0.181912,-0.61963 -0.363511,-0.8886 -0.125114,-0.2196 -0.250229,-0.43918 -0.375212,-0.65876 -0.20992,0.0131 -0.208611,-0.25913 -0.212014,-0.37678 0.198142,0.0641 0.154692,-0.0955 0.108363,-0.21306 -0.137416,-0.48075 -0.274596,-0.96152 -0.411908,-1.4423 0.120403,-0.18008 -0.02827,-0.14526 -0.147886,-0.17746 z m 0.132443,0.20704 c 0.0052,0.21751 0.117,0.44921 0.03246,0.65737 -0.117785,0.20678 -0.122235,0.44565 -0.136369,0.67622 0.0301,0.15234 0.312969,0.36032 -0.0052,0.32114 -0.161497,-0.005 -0.443004,0.0887 -0.529013,0.0236 0.127208,-0.43059 0.270095,-0.85651 0.46198,-1.2631 0.05837,-0.1382 0.119356,-0.27803 0.175893,-0.41492 z m 0.112289,1.99374 c -0.06256,0.0626 -0.125376,0.12537 -0.187933,0.18793 0.07119,0.25154 0.14998,0.50441 0.137678,0.76898 0.0026,0.0969 0.0079,0.19343 0.01047,0.29012 -0.207564,-0.0398 -0.524328,0.0327 -0.660959,-0.0827 -0.0513,-0.34742 -0.03167,-0.69763 -0.01832,-1.04675 0.241329,-0.0236 0.483365,-0.0531 0.717522,-0.11778 z" /><path
         id="path8-2-2"
         style="fill:#000000;stroke:none;stroke-width:0.499999;stroke-linecap:round;stroke-linejoin:round"
         d="m 14.13931,97.13814 c -0.197094,0.44905 -0.350346,0.9192 -0.578954,1.35322 -0.134799,0.23112 -0.269598,0.46216 -0.404397,0.69326 0.08821,0.189497 0.326292,0.343537 0.296584,0.560607 -0.02617,0.24499 -0.04214,0.497233 -0.202068,0.698253 -0.04999,0.12878 -0.227456,0.32281 -0.198141,0.41118 0.518465,0.0665 1.041537,0.0644 1.562933,0.0835 -0.14108,0.0505 -0.505848,-0.077 -0.432377,0.14814 0.04031,0.24997 0.111504,0.50499 0.03586,0.75529 0.0052,0.18794 -0.07224,0.27756 -0.264468,0.23322 -0.26698,0.003 -0.534012,0.005 -0.800992,0.0105 0.116738,-0.19186 0.35079,-0.33608 0.365919,-0.57173 -0.0026,-0.1259 0.07931,-0.4719 0.01832,-0.45028 -0.249966,0.29996 -0.495483,0.60515 -0.673653,0.95482 -0.03926,0.13218 -0.353592,0.419 -0.05942,0.36351 0.351497,0.005 0.703021,0.0105 1.054519,0.0183 0.02958,0.30159 -0.0079,0.60108 -0.05732,0.89818 0.170919,0.0183 0.387697,0.0848 0.531473,-0.0157 -0.0157,-0.2463 -0.08664,-0.4998 -0.01047,-0.74383 -0.02879,-0.25834 0.306399,-0.21201 0.467085,-0.29912 0.203376,-0.062 0.406752,-0.12407 0.610075,-0.18637 -0.22353,-0.37408 -0.447846,-0.74772 -0.67224,-1.12129 -0.169349,0.0105 0.216987,-0.0332 0.282135,-0.0314 0.161759,-0.0338 0.470042,0.0877 0.533803,-0.005 -0.100248,-0.30464 -0.181912,-0.61963 -0.363511,-0.8886 -0.125114,-0.219603 -0.250229,-0.439183 -0.375212,-0.65876 -0.20992,0.0131 -0.208611,-0.25913 -0.212014,-0.37678 0.198142,0.0641 0.154692,-0.0955 0.108363,-0.21306 -0.137416,-0.48075 -0.274597,-0.96152 -0.411909,-1.4423 0.120403,-0.18008 -0.02827,-0.14526 -0.147886,-0.17746 z m 0.132443,0.20704 c 0.0052,0.21751 0.117,0.44921 0.03246,0.65737 -0.117785,0.20678 -0.122235,0.44565 -0.136369,0.67622 0.0301,0.15234 0.312969,0.36032 -0.0052,0.32114 -0.161497,-0.005 -0.443004,0.0887 -0.529013,0.0236 0.127208,-0.43059 0.270095,-0.85651 0.46198,-1.2631 0.05837,-0.1382 0.119356,-0.27803 0.175893,-0.41492 z m 0.112289,1.99374 c -0.06256,0.0626 -0.125376,0.125367 -0.187933,0.187927 0.07119,0.25154 0.14998,0.504413 0.137678,0.768983 0.0026,0.0969 0.0079,0.19343 0.01047,0.29012 -0.207564,-0.0398 -0.524328,0.0327 -0.660959,-0.0827 -0.0513,-0.34742 -0.03167,-0.697633 -0.01832,-1.046753 0.241329,-0.0236 0.483365,-0.0531 0.717522,-0.117777 z" /><path
         id="path9-7-0"
         style="fill:#000000;stroke:none;stroke-width:0.499999;stroke-linecap:round;stroke-linejoin:round"
         d="m 11.57218,96.275958 c -0.197094,0.44905 -0.350346,0.9192 -0.578953,1.35322 -0.134799,0.23112 -0.269598,0.46216 -0.404398,0.69326 0.08821,0.189497 0.326293,0.343537 0.296585,0.560607 -0.02617,0.24499 -0.04214,0.49723 -0.202068,0.69825 -0.04999,0.12878 -0.227457,0.32281 -0.198142,0.41118 0.518466,0.06651 1.041537,0.06441 1.562933,0.08348 -0.14108,0.0505 -0.505848,-0.07698 -0.432377,0.14814 0.04031,0.24998 0.111504,0.505 0.03586,0.75529 0.0052,0.18795 -0.07224,0.27757 -0.264468,0.23324 -0.266979,0.003 -0.534011,0.005 -0.800992,0.0105 0.116739,-0.19186 0.350791,-0.33609 0.36592,-0.57174 -0.0026,-0.1259 0.07931,-0.4719 0.01832,-0.45028 -0.249966,0.29996 -0.495484,0.60515 -0.673654,0.95483 -0.03926,0.13218 -0.3535912,0.419 -0.05942,0.36351 0.351497,0.005 0.703022,0.0105 1.054519,0.0183 0.02958,0.30158 -0.0079,0.60107 -0.05732,0.89817 0.170919,0.0183 0.387697,0.0848 0.531473,-0.0157 -0.0157,-0.2463 -0.08664,-0.4998 -0.01047,-0.74382 -0.02879,-0.25834 0.306399,-0.21201 0.467085,-0.29912 0.203376,-0.062 0.406752,-0.12407 0.610075,-0.18637 -0.22353,-0.37409 -0.447846,-0.74773 -0.67224,-1.1213 -0.169349,0.0105 0.216987,-0.0332 0.282135,-0.0314 0.161759,-0.0338 0.470042,0.0877 0.533803,-0.005 -0.100248,-0.30457 -0.181912,-0.61956 -0.363511,-0.88853 -0.125114,-0.2196 -0.250229,-0.43918 -0.375212,-0.658757 -0.20992,0.0131 -0.208611,-0.25913 -0.212014,-0.37678 0.198142,0.0641 0.154692,-0.0955 0.108363,-0.21306 -0.137416,-0.48075 -0.274597,-0.96152 -0.411909,-1.4423 0.120403,-0.18008 -0.02827,-0.14526 -0.147886,-0.17746 z m 0.132443,0.20704 c 0.0052,0.21751 0.117,0.44921 0.03246,0.65737 -0.117785,0.20678 -0.122235,0.44565 -0.136369,0.67622 0.0301,0.15234 0.312969,0.36032 -0.0052,0.32114 -0.161497,-0.005 -0.443003,0.0887 -0.529012,0.0236 0.127207,-0.43059 0.270094,-0.85651 0.461979,-1.2631 0.05837,-0.1382 0.119356,-0.27803 0.175893,-0.41492 z m 0.112289,1.99374 c -0.06256,0.0626 -0.125376,0.125367 -0.187933,0.187927 0.07119,0.25154 0.14998,0.50441 0.137678,0.76898 0.0026,0.0969 0.0079,0.19343 0.01047,0.29012 -0.207564,-0.0398 -0.524328,0.0327 -0.660958,-0.0827 -0.0513,-0.34742 -0.03167,-0.69763 -0.01832,-1.04675 0.241328,-0.0236 0.483364,-0.0531 0.717521,-0.117777 z" /><path
         id="path10-0-6"
         style="fill:#000000;stroke:none;stroke-width:0.499999;stroke-linecap:round;stroke-linejoin:round"
         d="m 8.6496866,93.151731 c -0.197094,0.44905 -0.350346,0.9192 -0.578954,1.35322 -0.134799,0.23112 -0.269598,0.46216 -0.404397,0.69326 0.08821,0.189497 0.326292,0.343537 0.296584,0.560607 -0.02617,0.24499 -0.04214,0.49723 -0.202068,0.69825 -0.04999,0.128776 -0.227456,0.322806 -0.198141,0.411176 0.518465,0.0665 1.041537,0.0644 1.5629328,0.0835 -0.14108,0.0505 -0.5058478,-0.077 -0.4323768,0.14814 0.04031,0.249968 0.111504,0.504988 0.03586,0.755288 0.0052,0.18795 -0.07224,0.27757 -0.264468,0.23323 -0.26698,0.003 -0.534012,0.005 -0.800992,0.0105 0.116738,-0.19187 0.35079,-0.33609 0.365919,-0.57174 -0.0026,-0.1259 0.07931,-0.471898 0.01832,-0.450278 -0.249966,0.299958 -0.495483,0.605148 -0.673653,0.954828 -0.03926,0.13218 -0.353592,0.419 -0.05942,0.36351 0.351497,0.005 0.703021,0.0105 1.054519,0.0183 0.02958,0.30159 -0.0079,0.601084 -0.05732,0.898184 0.170919,0.0183 0.387697,0.0848 0.531473,-0.0157 -0.0157,-0.2463 -0.08664,-0.499804 -0.01047,-0.743834 -0.02879,-0.25834 0.3063988,-0.21201 0.4670848,-0.29912 0.2033758,-0.062 0.4067518,-0.12407 0.6100748,-0.18637 -0.22353,-0.37409 -0.447846,-0.74773 -0.6722398,-1.121298 -0.169349,0.0105 0.2169868,-0.0332 0.2821348,-0.0314 0.161759,-0.0338 0.470042,0.0877 0.5338028,-0.005 -0.1002478,-0.30464 -0.1819118,-0.619626 -0.3635108,-0.888596 -0.125114,-0.2196 -0.2502288,-0.43918 -0.3752118,-0.658757 -0.20992,0.0131 -0.208611,-0.25913 -0.212014,-0.37678 0.198142,0.0641 0.154692,-0.0955 0.108363,-0.21306 -0.137416,-0.48075 -0.274597,-0.96152 -0.4119088,-1.4423 0.120403,-0.18008 -0.02827,-0.14526 -0.147886,-0.17746 z m 0.132443,0.20704 c 0.0052,0.21751 0.117,0.44921 0.03246,0.65737 -0.117785,0.20678 -0.122235,0.44565 -0.136369,0.67622 0.0301,0.15234 0.3129688,0.36032 -0.0052,0.32114 -0.161497,-0.005 -0.443004,0.0887 -0.529013,0.0236 0.127208,-0.43059 0.270095,-0.85651 0.46198,-1.2631 0.05837,-0.1382 0.119356,-0.27803 0.175893,-0.41492 z m 0.112289,1.99374 c -0.06256,0.0626 -0.125376,0.125367 -0.187933,0.187927 0.07119,0.25154 0.14998,0.50441 0.137678,0.76898 0.0026,0.0969 0.0079,0.193426 0.01047,0.290116 -0.207564,-0.0398 -0.524328,0.0327 -0.660959,-0.0827 -0.0513,-0.347416 -0.03167,-0.697626 -0.01832,-1.046746 0.241329,-0.0236 0.483365,-0.0531 0.717522,-0.117777 z" /><path
         id="path11-9-1"
         style="fill:#000000;stroke:none;stroke-width:0.499999;stroke-linecap:round;stroke-linejoin:round"
         d="m 7.4292674,99.401273 c -0.197094,0.449049 -0.350346,0.919197 -0.578954,1.353217 -0.134799,0.23112 -0.269598,0.46216 -0.404397,0.69326 0.08821,0.1895 0.326292,0.34354 0.296584,0.56061 -0.02617,0.24499 -0.04214,0.49723 -0.202068,0.69825 -0.04999,0.12877 -0.227456,0.3228 -0.198141,0.41117 0.518465,0.0665 1.041537,0.0644 1.5629328,0.0835 -0.14108,0.0505 -0.5058478,-0.077 -0.4323768,0.14814 0.04031,0.24997 0.111504,0.50499 0.03586,0.75529 0.0052,0.18795 -0.07224,0.27757 -0.264468,0.23323 -0.26698,0.003 -0.534012,0.005 -0.800992,0.0105 0.116738,-0.19187 0.35079,-0.33609 0.365919,-0.57174 -0.0026,-0.1259 0.07931,-0.4719 0.01832,-0.45028 -0.249966,0.29996 -0.495483,0.60515 -0.673653,0.95483 -0.03926,0.13218 -0.353592,0.419 -0.05942,0.36351 0.351497,0.005 0.703021,0.0105 1.054519,0.0183 0.02958,0.30159 -0.0079,0.60108 -0.05732,0.89818 0.170919,0.0183 0.387697,0.0848 0.531473,-0.0157 -0.0157,-0.2463 -0.08664,-0.4998 -0.01047,-0.74383 -0.02879,-0.25834 0.3063988,-0.21201 0.4670848,-0.29912 0.203376,-0.062 0.406752,-0.12407 0.610075,-0.18637 -0.22353,-0.37409 -0.447846,-0.74773 -0.67224,-1.1213 -0.169349,0.0105 0.216987,-0.0332 0.282135,-0.0314 0.161759,-0.0338 0.470042,0.0877 0.533803,-0.005 -0.100248,-0.30464 -0.181912,-0.61962 -0.363511,-0.88859 -0.125114,-0.2196 -0.250229,-0.43918 -0.375212,-0.65876 -0.20992,0.0131 -0.208611,-0.25913 -0.212014,-0.37678 0.198142,0.0641 0.154692,-0.0955 0.108363,-0.21306 -0.137416,-0.48075 -0.274597,-0.96152 -0.4119088,-1.442295 0.120403,-0.180082 -0.02827,-0.145262 -0.147886,-0.177462 z m 0.132443,0.207042 c 0.0052,0.217507 0.117,0.449205 0.03246,0.657365 -0.117785,0.20678 -0.122235,0.44565 -0.136369,0.67622 0.0301,0.15234 0.3129688,0.36032 -0.0052,0.32114 -0.161497,-0.005 -0.443004,0.0887 -0.529013,0.0236 0.127208,-0.43059 0.270095,-0.85651 0.46198,-1.2631 0.05837,-0.138198 0.119356,-0.278028 0.175893,-0.414915 z m 0.112289,1.993735 c -0.06256,0.0626 -0.125376,0.12537 -0.187933,0.18793 0.07119,0.25154 0.14998,0.50441 0.137678,0.76898 0.0026,0.0969 0.0079,0.19342 0.01047,0.29011 -0.207564,-0.0398 -0.524328,0.0327 -0.660959,-0.0827 -0.0513,-0.34741 -0.03167,-0.69762 -0.01832,-1.04674 0.241329,-0.0236 0.483365,-0.0531 0.717522,-0.11778 z" /><path
         id="path12-3-5"
         style="fill:#000000;stroke:none;stroke-width:0.499999;stroke-linecap:round;stroke-linejoin:round"
         d="m 5.5739909,95.320351 c -0.197094,0.44905 -0.350346,0.9192 -0.578954,1.35322 -0.134799,0.23112 -0.269598,0.46216 -0.404397,0.69326 0.08821,0.1895 0.326292,0.34354 0.296584,0.56061 -0.02617,0.24499 -0.04214,0.49723 -0.202068,0.69825 -0.04999,0.12877 -0.227456,0.3228 -0.198141,0.41117 0.518465,0.0665 1.041537,0.0644 1.5629328,0.0835 -0.14108,0.0505 -0.5058478,-0.077 -0.4323768,0.14814 0.04031,0.249973 0.111504,0.504993 0.03586,0.755289 0.0052,0.18795 -0.07224,0.27756 -0.264468,0.23322 -0.26698,0.003 -0.534012,0.005 -0.800992,0.0105 0.116738,-0.19186 0.35079,-0.336076 0.365919,-0.571726 -0.0026,-0.1259 0.07931,-0.471903 0.01832,-0.450283 -0.249966,0.299963 -0.495483,0.605153 -0.673653,0.954829 -0.03926,0.13217 -0.353592,0.41899 -0.05942,0.3635 0.351497,0.005 0.703021,0.0105 1.054519,0.0183 0.02958,0.30159 -0.0079,0.60109 -0.05732,0.89819 0.170919,0.0183 0.387697,0.0848 0.531473,-0.0157 -0.0157,-0.2463 -0.08664,-0.49981 -0.01047,-0.74384 -0.02879,-0.25834 0.3063988,-0.21201 0.4670848,-0.29912 0.203376,-0.062 0.406752,-0.12407 0.610075,-0.18637 -0.22353,-0.374076 -0.447846,-0.747716 -0.67224,-1.121289 -0.169349,0.0105 0.216987,-0.0332 0.282135,-0.0314 0.161759,-0.0338 0.470042,0.0877 0.533803,-0.005 -0.100248,-0.30464 -0.181912,-0.61962 -0.363511,-0.88859 -0.125114,-0.2196 -0.250229,-0.43918 -0.375212,-0.65876 -0.20992,0.0131 -0.208611,-0.25913 -0.212014,-0.37678 0.198142,0.0641 0.154692,-0.0955 0.108363,-0.21306 -0.137416,-0.48075 -0.274597,-0.96152 -0.4119088,-1.4423 0.120403,-0.18008 -0.02827,-0.14526 -0.147886,-0.17746 z m 0.132443,0.20704 c 0.0052,0.21751 0.117,0.44921 0.03246,0.65737 -0.117785,0.20678 -0.122235,0.44565 -0.136369,0.67622 0.0301,0.15234 0.3129688,0.36032 -0.0052,0.32114 -0.161497,-0.005 -0.443004,0.0887 -0.529013,0.0236 0.127208,-0.43059 0.270095,-0.85651 0.46198,-1.2631 0.05837,-0.1382 0.119356,-0.27803 0.175893,-0.41492 z m 0.112289,1.99374 c -0.06256,0.0626 -0.125376,0.12537 -0.187933,0.18793 0.07119,0.25154 0.14998,0.50441 0.137678,0.76898 0.0026,0.0969 0.0079,0.19342 0.01047,0.29011 -0.207564,-0.0398 -0.524328,0.0327 -0.660959,-0.0827 -0.0513,-0.34741 -0.03167,-0.69762 -0.01832,-1.04674 0.241329,-0.0236 0.483365,-0.0531 0.717522,-0.11778 z" /><path
         id="path13-6-54"
         style="fill:#000000;stroke:none;stroke-width:0.499999;stroke-linecap:round;stroke-linejoin:round"
         d="m 5.2661842,120.85119 c -0.197094,0.44905 -0.350346,0.9192 -0.578954,1.35322 -0.134799,0.23112 -0.269598,0.46216 -0.404397,0.69326 0.08821,0.1895 0.326292,0.34354 0.296584,0.56061 -0.02617,0.24499 -0.04214,0.49723 -0.202068,0.69825 -0.04999,0.12878 -0.227456,0.32281 -0.198141,0.41118 0.518465,0.0665 1.041537,0.0644 1.562933,0.0835 -0.14108,0.0505 -0.505848,-0.077 -0.432377,0.14814 0.04031,0.24997 0.111504,0.50499 0.03586,0.75529 0.0052,0.18794 -0.07224,0.27756 -0.264468,0.23322 -0.26698,0.003 -0.534012,0.005 -0.800992,0.0105 0.116738,-0.19186 0.35079,-0.33608 0.365919,-0.57173 -0.0026,-0.1259 0.07931,-0.4719 0.01832,-0.45028 -0.249966,0.29996 -0.495483,0.60515 -0.673653,0.95482 -0.03926,0.13218 -0.353592,0.419 -0.05942,0.36351 0.351497,0.005 0.703021,0.0105 1.054519,0.0183 0.02958,0.30159 -0.0079,0.60108 -0.05732,0.89818 0.170919,0.0183 0.387697,0.0848 0.531473,-0.0157 -0.0157,-0.2463 -0.08664,-0.4998 -0.01047,-0.74383 -0.02879,-0.25834 0.306399,-0.21201 0.467085,-0.29912 0.203376,-0.062 0.406752,-0.12407 0.610075,-0.18637 -0.22353,-0.37408 -0.447846,-0.74772 -0.67224,-1.12129 -0.169349,0.0105 0.216987,-0.0332 0.282135,-0.0314 0.161759,-0.0338 0.470042,0.0877 0.533803,-0.005 -0.100248,-0.30464 -0.181912,-0.61963 -0.363511,-0.8886 -0.125114,-0.2196 -0.250229,-0.43918 -0.375212,-0.65876 -0.20992,0.0131 -0.208611,-0.25913 -0.212014,-0.37678 0.198142,0.0641 0.154692,-0.0955 0.108363,-0.21306 -0.137416,-0.48075 -0.274597,-0.96152 -0.411909,-1.4423 0.120403,-0.18008 -0.02827,-0.14526 -0.147886,-0.17746 z m 0.132443,0.20704 c 0.0052,0.21751 0.117,0.44921 0.03246,0.65737 -0.117785,0.20678 -0.122235,0.44565 -0.136369,0.67622 0.0301,0.15234 0.312969,0.36032 -0.0052,0.32114 -0.161497,-0.005 -0.443004,0.0887 -0.529013,0.0236 0.127208,-0.43059 0.270095,-0.85651 0.46198,-1.2631 0.05837,-0.1382 0.119356,-0.27803 0.175893,-0.41492 z m 0.112289,1.99374 c -0.06256,0.0626 -0.125376,0.12537 -0.187933,0.18793 0.07119,0.25154 0.14998,0.50441 0.137678,0.76898 0.0026,0.0969 0.0079,0.19343 0.01047,0.29012 -0.207564,-0.0398 -0.524328,0.0327 -0.660959,-0.0827 -0.0513,-0.34742 -0.03167,-0.69763 -0.01832,-1.04675 0.241329,-0.0236 0.483365,-0.0531 0.717522,-0.11778 z" /><path
         id="path13-6-5"
         style="fill:#000000;stroke:none;stroke-width:0.499999;stroke-linecap:round;stroke-linejoin:round"
         d="m 8.7905825,123.16853 c -0.197094,0.44905 -0.350346,0.9192 -0.578954,1.35322 -0.134799,0.23112 -0.269598,0.46216 -0.404397,0.69326 0.08821,0.1895 0.326292,0.34354 0.296584,0.56061 -0.02617,0.24499 -0.04214,0.49723 -0.202068,0.69825 -0.04999,0.12878 -0.227456,0.32281 -0.198141,0.41118 0.518465,0.0665 1.041537,0.0644 1.5629327,0.0835 -0.1410797,0.0505 -0.5058477,-0.077 -0.4323767,0.14814 0.04031,0.24997 0.111504,0.50499 0.03586,0.75529 0.0052,0.18794 -0.07224,0.27756 -0.264468,0.23322 -0.26698,0.003 -0.534012,0.005 -0.800992,0.0105 0.116738,-0.19186 0.35079,-0.33608 0.365919,-0.57173 -0.0026,-0.1259 0.07931,-0.4719 0.01832,-0.45028 -0.249966,0.29996 -0.495483,0.60515 -0.673653,0.95482 -0.03926,0.13218 -0.353592,0.419 -0.05942,0.36351 0.351497,0.005 0.703021,0.0105 1.054519,0.0183 0.02958,0.30159 -0.0079,0.60108 -0.05732,0.89818 0.170919,0.0183 0.387697,0.0848 0.531473,-0.0157 -0.0157,-0.2463 -0.08664,-0.4998 -0.01047,-0.74383 -0.02879,-0.25834 0.3063987,-0.21201 0.4670847,-0.29912 0.203376,-0.062 0.406752,-0.12407 0.6100748,-0.18637 -0.2235298,-0.37408 -0.4478458,-0.74772 -0.6722398,-1.12129 -0.1693487,0.0105 0.216987,-0.0332 0.282135,-0.0314 0.161759,-0.0338 0.4700418,0.0877 0.5338028,-0.005 -0.100248,-0.30464 -0.181912,-0.61963 -0.3635108,-0.8886 -0.125114,-0.2196 -0.250229,-0.43918 -0.375212,-0.65876 -0.20992,0.0131 -0.208611,-0.25913 -0.212014,-0.37678 0.198142,0.0641 0.154692,-0.0955 0.108363,-0.21306 -0.1374157,-0.48075 -0.2745967,-0.96152 -0.4119087,-1.4423 0.120403,-0.18008 -0.02827,-0.14526 -0.147886,-0.17746 z m 0.132443,0.20704 c 0.0052,0.21751 0.117,0.44921 0.03246,0.65737 -0.117785,0.20678 -0.122235,0.44565 -0.136369,0.67622 0.0301,0.15234 0.312969,0.36032 -0.0052,0.32114 -0.161497,-0.005 -0.443004,0.0887 -0.529013,0.0236 0.127208,-0.43059 0.270095,-0.85651 0.46198,-1.2631 0.05837,-0.1382 0.119356,-0.27803 0.175893,-0.41492 z m 0.112289,1.99374 c -0.06256,0.0626 -0.125376,0.12537 -0.187933,0.18793 0.07119,0.25154 0.14998,0.50441 0.137678,0.76898 0.0026,0.0969 0.0079,0.19343 0.01047,0.29012 -0.207564,-0.0398 -0.524328,0.0327 -0.660959,-0.0827 -0.0513,-0.34742 -0.03167,-0.69763 -0.01832,-1.04675 0.241329,-0.0236 0.483365,-0.0531 0.717522,-0.11778 z" /><path
         id="path2"
         style="fill:#000000;stroke:none;stroke-width:0.499999;stroke-linecap:round;stroke-linejoin:round"
         d="m 12.955716,120.44328 c -0.197094,0.44905 -0.350346,0.9192 -0.578954,1.35322 -0.134799,0.23112 -0.269598,0.46216 -0.404397,0.69326 0.08821,0.1895 0.326292,0.34354 0.296584,0.56061 -0.02617,0.24499 -0.04214,0.49723 -0.202068,0.69825 -0.04999,0.12878 -0.227456,0.32281 -0.198141,0.41118 0.518465,0.0665 1.041537,0.0644 1.562933,0.0835 -0.14108,0.0505 -0.505848,-0.077 -0.432377,0.14814 0.04031,0.24997 0.111504,0.50499 0.03586,0.75529 0.0052,0.18794 -0.07224,0.27756 -0.264468,0.23322 -0.26698,0.003 -0.534012,0.005 -0.800992,0.0105 0.116738,-0.19186 0.35079,-0.33608 0.365919,-0.57173 -0.0026,-0.1259 0.07931,-0.4719 0.01832,-0.45028 -0.249966,0.29996 -0.495483,0.60515 -0.673653,0.95482 -0.03926,0.13218 -0.353592,0.419 -0.05942,0.36351 0.351497,0.005 0.703021,0.0105 1.054519,0.0183 0.02958,0.30159 -0.0079,0.60108 -0.05732,0.89818 0.170919,0.0183 0.387697,0.0848 0.531473,-0.0157 -0.0157,-0.2463 -0.08664,-0.4998 -0.01047,-0.74383 -0.02879,-0.25834 0.306399,-0.21201 0.467085,-0.29912 0.203376,-0.062 0.406752,-0.12407 0.610075,-0.18637 -0.22353,-0.37408 -0.447846,-0.74772 -0.67224,-1.12129 -0.169349,0.0105 0.216987,-0.0332 0.282135,-0.0314 0.161759,-0.0338 0.470042,0.0877 0.533803,-0.005 -0.100248,-0.30464 -0.181912,-0.61963 -0.363511,-0.8886 -0.125114,-0.2196 -0.250229,-0.43918 -0.375212,-0.65876 -0.20992,0.0131 -0.208611,-0.25913 -0.212014,-0.37678 0.198142,0.0641 0.154692,-0.0955 0.108363,-0.21306 -0.137416,-0.48075 -0.274597,-0.96152 -0.411909,-1.4423 0.120403,-0.18008 -0.02827,-0.14526 -0.147886,-0.17746 z m 0.132443,0.20704 c 0.0052,0.21751 0.117,0.44921 0.03246,0.65737 -0.117785,0.20678 -0.122235,0.44565 -0.136369,0.67622 0.0301,0.15234 0.312969,0.36032 -0.0052,0.32114 -0.161497,-0.005 -0.443004,0.0887 -0.529013,0.0236 0.127208,-0.43059 0.270095,-0.85651 0.46198,-1.2631 0.05837,-0.1382 0.119356,-0.27803 0.175893,-0.41492 z m 0.112289,1.99374 c -0.06256,0.0626 -0.125376,0.12537 -0.187933,0.18793 0.07119,0.25154 0.14998,0.50441 0.137678,0.76898 0.0026,0.0969 0.0079,0.19343 0.01047,0.29012 -0.207564,-0.0398 -0.524328,0.0327 -0.660959,-0.0827 -0.0513,-0.34742 -0.03167,-0.69763 -0.01832,-1.04675 0.241329,-0.0236 0.483365,-0.0531 0.717522,-0.11778 z" /><path
         id="path3"
         style="fill:#000000;stroke:none;stroke-width:0.499999;stroke-linecap:round;stroke-linejoin:round"
         d="m 10.695828,117.10092 c -0.197094,0.44905 -0.350346,0.9192 -0.578954,1.35322 -0.1347987,0.23112 -0.2695977,0.46216 -0.4043967,0.69326 0.08821,0.1895 0.3262917,0.34354 0.2965837,0.56061 -0.02617,0.24499 -0.04214,0.49723 -0.2020677,0.69825 -0.04999,0.12878 -0.227456,0.32281 -0.198141,0.41118 0.5184647,0.0665 1.0415367,0.0644 1.5629327,0.0835 -0.14108,0.0505 -0.505848,-0.077 -0.432377,0.14814 0.04031,0.24997 0.111504,0.50499 0.03586,0.75529 0.0052,0.18794 -0.07224,0.27756 -0.264468,0.23322 -0.26698,0.003 -0.5340117,0.005 -0.8009917,0.0105 0.116738,-0.19186 0.3507897,-0.33608 0.3659187,-0.57173 -0.0026,-0.1259 0.07931,-0.4719 0.01832,-0.45028 -0.2499657,0.29996 -0.4954827,0.60515 -0.6736537,0.95482 -0.03926,0.13218 -0.3535917,0.419 -0.05942,0.36351 0.351498,0.005 0.7030217,0.0105 1.0545197,0.0183 0.02958,0.30159 -0.0079,0.60108 -0.05732,0.89818 0.170919,0.0183 0.387697,0.0848 0.531473,-0.0157 -0.0157,-0.2463 -0.08664,-0.4998 -0.01047,-0.74383 -0.02879,-0.25834 0.306399,-0.21201 0.467085,-0.29912 0.203376,-0.062 0.406752,-0.12407 0.610075,-0.18637 -0.22353,-0.37408 -0.447846,-0.74772 -0.67224,-1.12129 -0.169349,0.0105 0.216987,-0.0332 0.282135,-0.0314 0.161759,-0.0338 0.470042,0.0877 0.533803,-0.005 -0.100248,-0.30464 -0.181912,-0.61963 -0.363511,-0.8886 -0.125114,-0.2196 -0.250229,-0.43918 -0.375212,-0.65876 -0.20992,0.0131 -0.208611,-0.25913 -0.212014,-0.37678 0.198142,0.0641 0.154692,-0.0955 0.108363,-0.21306 -0.137416,-0.48075 -0.274597,-0.96152 -0.411909,-1.4423 0.120403,-0.18008 -0.02827,-0.14526 -0.147886,-0.17746 z m 0.132443,0.20704 c 0.0052,0.21751 0.117,0.44921 0.03246,0.65737 -0.117785,0.20678 -0.122235,0.44565 -0.136369,0.67622 0.0301,0.15234 0.312969,0.36032 -0.0052,0.32114 -0.161497,-0.005 -0.443004,0.0887 -0.529013,0.0236 0.127208,-0.43059 0.270095,-0.85651 0.46198,-1.2631 0.05837,-0.1382 0.119356,-0.27803 0.175893,-0.41492 z m 0.112289,1.99374 c -0.06256,0.0626 -0.125376,0.12537 -0.187933,0.18793 0.07119,0.25154 0.14998,0.50441 0.137678,0.76898 0.0026,0.0969 0.0079,0.19343 0.01047,0.29012 -0.207564,-0.0398 -0.524328,0.0327 -0.660959,-0.0827 -0.0513,-0.34742 -0.03167,-0.69763 -0.01832,-1.04675 0.241329,-0.0236 0.483365,-0.0531 0.717522,-0.11778 z" /><path
         id="path15-6-7"
         style="fill:#000000;stroke:none;stroke-width:0.499999;stroke-linecap:round;stroke-linejoin:round"
         d="m 1.9495734,117.77519 c -0.197094,0.44905 -0.350346,0.9192 -0.578954,1.35322 -0.134799,0.23112 -0.269598,0.46216 -0.40439704,0.69326 0.08821,0.1895 0.32629204,0.34354 0.29658404,0.56061 -0.02617,0.24499 -0.04214,0.49723 -0.202068,0.69825 -0.04999,0.12878 -0.22745604,0.32281 -0.19814104,0.41118 0.51846504,0.0665 1.04153704,0.0644 1.56293304,0.0835 -0.14108,0.0505 -0.505848,-0.077 -0.432377,0.14814 0.04031,0.24997 0.111504,0.50499 0.03586,0.75529 0.0052,0.18794 -0.07224,0.27756 -0.264468,0.23322 -0.26698,0.003 -0.534012,0.005 -0.80099204,0.0105 0.11673804,-0.19186 0.35079004,-0.33608 0.36591904,-0.57173 -0.0026,-0.1259 0.07931,-0.4719 0.01832,-0.45028 -0.249966,0.29996 -0.49548304,0.60515 -0.67365304,0.95482 -0.03926,0.13218 -0.35359213,0.419 -0.05942,0.36351 0.351497,0.005 0.70302104,0.0105 1.05451904,0.0183 0.02958,0.30159 -0.0079,0.60108 -0.05732,0.89818 0.170919,0.0183 0.387697,0.0848 0.531473,-0.0157 -0.0157,-0.2463 -0.08664,-0.4998 -0.01047,-0.74383 -0.02879,-0.25834 0.306399,-0.21201 0.467085,-0.29912 0.203376,-0.062 0.406752,-0.12407 0.610075,-0.18637 -0.22353,-0.37408 -0.447846,-0.74772 -0.67224,-1.12129 -0.169349,0.0105 0.216987,-0.0332 0.282135,-0.0314 0.161759,-0.0338 0.470042,0.0877 0.533803,-0.005 -0.100248,-0.30464 -0.181912,-0.61963 -0.363511,-0.8886 -0.125114,-0.2196 -0.250229,-0.43918 -0.375212,-0.65876 -0.20992,0.0131 -0.208611,-0.25913 -0.212014,-0.37678 0.198142,0.0641 0.154692,-0.0955 0.108363,-0.21306 -0.137416,-0.48075 -0.274597,-0.96152 -0.411909,-1.4423 0.120403,-0.18008 -0.02827,-0.14526 -0.147886,-0.17746 z m 0.132443,0.20704 c 0.0052,0.21751 0.117,0.44921 0.03246,0.65737 -0.117785,0.20678 -0.122235,0.44565 -0.136369,0.67622 0.0301,0.15234 0.312969,0.36032 -0.0052,0.32114 -0.161497,-0.005 -0.443004,0.0887 -0.529013,0.0236 0.127208,-0.43059 0.270095,-0.85651 0.46198,-1.2631 0.05837,-0.1382 0.119356,-0.27803 0.175893,-0.41492 z m 0.112289,1.99374 c -0.06256,0.0626 -0.125376,0.12537 -0.187933,0.18793 0.07119,0.25154 0.14998,0.50441 0.137678,0.76898 0.0026,0.0969 0.0079,0.19343 0.01047,0.29012 -0.207564,-0.0398 -0.524328,0.0327 -0.660959,-0.0827 -0.0513,-0.34742 -0.03167,-0.69763 -0.01832,-1.04675 0.241329,-0.0236 0.483365,-0.0531 0.717522,-0.11778 z" /><path
         id="path16-2-6"
         style="fill:#000000;stroke:none;stroke-width:0.499999;stroke-linecap:round;stroke-linejoin:round"
         d="m 0.13783116,113.62426 c -0.197094,0.44905 -0.350346,0.9192 -0.578954,1.35322 -0.134799,0.23112 -0.269598,0.46216 -0.404397,0.69326 0.08821,0.1895 0.326292,0.34354 0.296584,0.56061 -0.02617,0.24499 -0.04214,0.49723 -0.202068,0.69825 -0.04999,0.12878 -0.22745604,0.32281 -0.198141,0.41118 0.518465,0.0665 1.041537,0.0644 1.5629328,0.0835 -0.14108,0.0505 -0.5058478,-0.077 -0.4323768,0.14814 0.04031,0.24997 0.111504,0.50499 0.03586,0.75529 0.0052,0.18794 -0.07224,0.27756 -0.264468,0.23322 -0.26698,0.003 -0.534012,0.005 -0.800992,0.0105 0.116738,-0.19186 0.35079,-0.33608 0.365919,-0.57173 -0.0026,-0.1259 0.07931,-0.4719 0.01832,-0.45028 -0.249966,0.29996 -0.495483,0.60515 -0.67365306,0.95482 -0.03926,0.13218 -0.3535919,0.419 -0.05942,0.36351 0.35149706,0.005 0.70302106,0.0105 1.05451906,0.0183 0.02958,0.30159 -0.0079,0.60108 -0.05732,0.89818 0.170919,0.0183 0.387697,0.0848 0.531473,-0.0157 -0.0157,-0.2463 -0.08664,-0.4998 -0.01047,-0.74383 -0.02879,-0.25834 0.3063988,-0.21201 0.46708485,-0.29912 0.203376,-0.062 0.40675199,-0.12407 0.61007499,-0.18637 -0.22353,-0.37408 -0.44784599,-0.74772 -0.67223999,-1.12129 -0.16934905,0.0105 0.216987,-0.0332 0.28213499,-0.0314 0.161759,-0.0338 0.470042,0.0877 0.533803,-0.005 -0.100248,-0.30464 -0.181912,-0.61963 -0.363511,-0.8886 -0.125114,-0.2196 -0.25022899,-0.43918 -0.37521199,-0.65876 -0.20992005,0.0131 -0.20861105,-0.25913 -0.21201405,-0.37678 0.19814205,0.0641 0.15469205,-0.0955 0.108363,-0.21306 -0.137416,-0.48075 -0.274597,-0.96152 -0.4119088,-1.4423 0.120403,-0.18008 -0.02827,-0.14526 -0.147886,-0.17746 z m 0.132443,0.20704 c 0.0052,0.21751 0.117,0.44921 0.03246,0.65737 -0.117785,0.20678 -0.122235,0.44565 -0.136369,0.67622 0.0301,0.15234 0.3129688,0.36032 -0.0052,0.32114 -0.16149699753,-0.005 -0.443004,0.0887 -0.529013,0.0236 0.127208,-0.43059 0.270095,-0.85651 0.46198,-1.2631 0.05837,-0.1382 0.119356,-0.27803 0.175893,-0.41492 z m 0.112289,1.99374 c -0.06256,0.0626 -0.125376,0.12537 -0.187933,0.18793 0.07119,0.25154 0.14998,0.50441 0.137678,0.76898 0.0026,0.0969 0.0079,0.19343 0.01047,0.29012 -0.207564,-0.0398 -0.524328,0.0327 -0.660959,-0.0827 -0.0513,-0.34742 -0.03167,-0.69763 -0.01832,-1.04675 0.241329,-0.0236 0.483365,-0.0531 0.717522,-0.11778 z" /><path
         id="path17-6-5"
         style="fill:#000000;stroke:none;stroke-width:0.499999;stroke-linecap:round;stroke-linejoin:round"
         d="m -2.8673389,116.12027 c -0.197094,0.44905 -0.350346,0.9192 -0.578954,1.35322 -0.134799,0.23112 -0.269598,0.46216 -0.404397,0.69326 0.08821,0.1895 0.326292,0.34354 0.296584,0.56061 -0.02617,0.24499 -0.04214,0.49723 -0.202068,0.69825 -0.04999,0.12878 -0.227456,0.32281 -0.198141,0.41118 0.518465,0.0665 1.041537,0.0644 1.5629323,0.0835 -0.1410795,0.0505 -0.5058473,-0.077 -0.4323763,0.14814 0.04031,0.24997 0.1115038,0.50499 0.03586,0.75529 0.0052,0.18794 -0.07224,0.27756 -0.264468,0.23322 -0.26698,0.003 -0.534012,0.005 -0.800992,0.0105 0.116738,-0.19186 0.35079,-0.33608 0.365919,-0.57173 -0.0026,-0.1259 0.07931,-0.4719 0.01832,-0.45028 -0.249966,0.29996 -0.495483,0.60515 -0.673653,0.95482 -0.03926,0.13218 -0.3535919,0.419 -0.05942,0.36351 0.351497,0.005 0.703021,0.0105 1.054519,0.0183 0.02958,0.30159 -0.0079,0.60108 -0.05732,0.89818 0.170919,0.0183 0.387697,0.0848 0.5314728,-0.0157 -0.0157,-0.2463 -0.08664,-0.4998 -0.01047,-0.74383 -0.02879,-0.25834 0.3063985,-0.21201 0.4670845,-0.29912 0.203376,-0.062 0.406752,-0.12407 0.610075,-0.18637 -0.22353,-0.37408 -0.447846,-0.74772 -0.67224,-1.12129 -0.169349,0.0105 0.216987,-0.0332 0.282135,-0.0314 0.161759,-0.0338 0.470042,0.0877 0.533803,-0.005 -0.100248,-0.30464 -0.181912,-0.61963 -0.363511,-0.8886 -0.125114,-0.2196 -0.250229,-0.43918 -0.375212,-0.65876 -0.20992,0.0131 -0.208611,-0.25913 -0.212014,-0.37678 0.198142,0.0641 0.154692,-0.0955 0.108363,-0.21306 -0.137416,-0.48075 -0.2745965,-0.96152 -0.4119085,-1.4423 0.120403,-0.18008 -0.02827,-0.14526 -0.1478858,-0.17746 z m 0.1324428,0.20704 c 0.0052,0.21751 0.117,0.44921 0.03246,0.65737 -0.1177848,0.20678 -0.1222348,0.44565 -0.1363688,0.67622 0.0301,0.15234 0.3129688,0.36032 -0.0052,0.32114 -0.161497,-0.005 -0.443004,0.0887 -0.529013,0.0236 0.127208,-0.43059 0.270095,-0.85651 0.46198,-1.2631 0.05837,-0.1382 0.119356,-0.27803 0.1758928,-0.41492 z m 0.112289,1.99374 c -0.06256,0.0626 -0.1253758,0.12537 -0.1879328,0.18793 0.07119,0.25154 0.1499798,0.50441 0.1376778,0.76898 0.0026,0.0969 0.0079,0.19343 0.01047,0.29012 -0.2075638,-0.0398 -0.5243278,0.0327 -0.6609588,-0.0827 -0.0513,-0.34742 -0.03167,-0.69763 -0.01832,-1.04675 0.241329,-0.0236 0.483365,-0.0531 0.7175218,-0.11778 z" /><path
         id="path21-9-6"
         style="fill:#000000;stroke:none;stroke-width:0.499999;stroke-linecap:round;stroke-linejoin:round"
         d="m 3.051552,110.18567 c -0.197094,0.44905 -0.350346,0.9192 -0.578954,1.35322 -0.134799,0.23112 -0.269598,0.46216 -0.404397,0.69326 0.08821,0.1895 0.326292,0.34354 0.296584,0.56061 -0.02617,0.24499 -0.04214,0.49723 -0.202068,0.69825 -0.04999,0.12878 -0.227456,0.32281 -0.198141,0.41118 0.518465,0.0665 1.041537,0.0644 1.562933,0.0835 -0.14108,0.0505 -0.505848,-0.077 -0.432377,0.14814 0.04031,0.24997 0.111504,0.50499 0.03586,0.75529 0.0052,0.18794 -0.07224,0.27756 -0.264468,0.23322 -0.26698,0.003 -0.534012,0.005 -0.800992,0.0105 0.116738,-0.19186 0.35079,-0.33608 0.365919,-0.57173 -0.0026,-0.1259 0.07931,-0.4719 0.01832,-0.45028 -0.249966,0.29996 -0.495483,0.60515 -0.673653,0.95482 -0.03926,0.13218 -0.353592,0.419 -0.05942,0.36351 0.351497,0.005 0.703021,0.0105 1.054519,0.0183 0.02958,0.30159 -0.0079,0.60108 -0.05732,0.89818 0.170919,0.0183 0.387697,0.0848 0.531473,-0.0157 -0.0157,-0.2463 -0.08664,-0.4998 -0.01047,-0.74383 -0.02879,-0.25834 0.306399,-0.21201 0.467085,-0.29912 0.203376,-0.062 0.406752,-0.12407 0.610075,-0.18637 -0.22353,-0.37408 -0.447846,-0.74772 -0.67224,-1.12129 -0.169349,0.0105 0.216987,-0.0332 0.282135,-0.0314 0.161759,-0.0338 0.470042,0.0877 0.533803,-0.005 -0.100248,-0.30464 -0.181912,-0.61963 -0.363511,-0.8886 -0.125114,-0.2196 -0.250229,-0.43918 -0.375212,-0.65876 -0.20992,0.0131 -0.208611,-0.25913 -0.212014,-0.37678 0.198142,0.0641 0.154692,-0.0955 0.108363,-0.21306 -0.137416,-0.48075 -0.274597,-0.96152 -0.411909,-1.4423 0.120403,-0.18008 -0.02827,-0.14526 -0.147886,-0.17746 z m 0.132443,0.20704 c 0.0052,0.21751 0.117,0.44921 0.03246,0.65737 -0.117785,0.20678 -0.122235,0.44565 -0.136369,0.67622 0.0301,0.15234 0.312969,0.36032 -0.0052,0.32114 -0.161497,-0.005 -0.443004,0.0887 -0.529013,0.0236 0.127208,-0.43059 0.270095,-0.85651 0.46198,-1.2631 0.05837,-0.1382 0.119356,-0.27803 0.175893,-0.41492 z m 0.112289,1.99374 c -0.06256,0.0626 -0.125376,0.12537 -0.187933,0.18793 0.07119,0.25154 0.14998,0.50441 0.137678,0.76898 0.0026,0.0969 0.0079,0.19343 0.01047,0.29012 -0.207564,-0.0398 -0.524328,0.0327 -0.660959,-0.0827 -0.0513,-0.34742 -0.03167,-0.69763 -0.01832,-1.04675 0.241329,-0.0236 0.483365,-0.0531 0.717522,-0.11778 z" /><path
         id="path22-2-9"
         style="fill:#000000;stroke:none;stroke-width:0.499999;stroke-linecap:round;stroke-linejoin:round"
         d="m -5.7164826,111.60596 c -0.197094,0.44905 -0.350346,0.9192 -0.578954,1.35322 -0.134799,0.23112 -0.269598,0.46216 -0.404397,0.69326 0.08821,0.1895 0.326292,0.34354 0.296584,0.56061 -0.02617,0.24499 -0.04214,0.49723 -0.202068,0.69825 -0.04999,0.12878 -0.227456,0.32281 -0.198141,0.41118 0.518465,0.0665 1.041537,0.0644 1.562933,0.0835 -0.14108,0.0505 -0.505848,-0.077 -0.432377,0.14814 0.04031,0.24997 0.111504,0.50499 0.03586,0.75529 0.0052,0.18794 -0.07224,0.27756 -0.264468,0.23322 -0.26698,0.003 -0.534012,0.005 -0.800992,0.0105 0.116738,-0.19186 0.35079,-0.33608 0.365919,-0.57173 -0.0026,-0.1259 0.07931,-0.4719 0.01832,-0.45028 -0.249966,0.29996 -0.495483,0.60515 -0.673653,0.95482 -0.03926,0.13218 -0.353592,0.419 -0.05942,0.36351 0.351497,0.005 0.703021,0.0105 1.054519,0.0183 0.02958,0.30159 -0.0079,0.60108 -0.05732,0.89818 0.170919,0.0183 0.387697,0.0848 0.531473,-0.0157 -0.0157,-0.2463 -0.08664,-0.4998 -0.01047,-0.74383 -0.02879,-0.25834 0.306399,-0.21201 0.467085,-0.29912 0.203376,-0.062 0.406752,-0.12407 0.610075,-0.18637 -0.22353,-0.37408 -0.447846,-0.74772 -0.67224,-1.12129 -0.169349,0.0105 0.216987,-0.0332 0.282135,-0.0314 0.161759,-0.0338 0.470042,0.0877 0.533803,-0.005 -0.100248,-0.30464 -0.181912,-0.61963 -0.363511,-0.8886 -0.125114,-0.2196 -0.250229,-0.43918 -0.375212,-0.65876 -0.20992,0.0131 -0.208611,-0.25913 -0.212014,-0.37678 0.198142,0.0641 0.154692,-0.0955 0.108363,-0.21306 -0.137416,-0.48075 -0.274597,-0.96152 -0.411909,-1.4423 0.120403,-0.18008 -0.02827,-0.14526 -0.147886,-0.17746 z m 0.132443,0.20704 c 0.0052,0.21751 0.117,0.44921 0.03246,0.65737 -0.117785,0.20678 -0.122235,0.44565 -0.136369,0.67622 0.0301,0.15234 0.312969,0.36032 -0.0052,0.32114 -0.161497,-0.005 -0.443004,0.0887 -0.529013,0.0236 0.127208,-0.43059 0.270095,-0.85651 0.46198,-1.2631 0.05837,-0.1382 0.119356,-0.27803 0.175893,-0.41492 z m 0.112289,1.99374 c -0.06256,0.0626 -0.125376,0.12537 -0.187933,0.18793 0.07119,0.25154 0.14998,0.50441 0.137678,0.76898 0.0026,0.0969 0.0079,0.19343 0.01047,0.29012 -0.207564,-0.0398 -0.524328,0.0327 -0.660959,-0.0827 -0.0513,-0.34742 -0.03167,-0.69763 -0.01832,-1.04675 0.241329,-0.0236 0.483365,-0.0531 0.717522,-0.11778 z" /></g></g></svg>
