<?xml version="1.0" encoding="UTF-8" standalone="no"?>
<!-- Created with Inkscape (http://www.inkscape.org/) -->

<svg
   width="32.080654mm"
   height="35.190708mm"
   viewBox="0 0 32.080654 35.190708"
   version="1.1"
   id="svg5"
   inkscape:version="1.3 (0e150ed6c4, 2023-07-21)"
   sodipodi:docname="forest.svg"
   xmlns:inkscape="http://www.inkscape.org/namespaces/inkscape"
   xmlns:sodipodi="http://sodipodi.sourceforge.net/DTD/sodipodi-0.dtd"
   xmlns="http://www.w3.org/2000/svg"
   xmlns:svg="http://www.w3.org/2000/svg">
  <sodipodi:namedview
     id="namedview7"
     pagecolor="#ffffff"
     bordercolor="#666666"
     borderopacity="1.0"
     inkscape:pageshadow="2"
     inkscape:pageopacity="0"
     inkscape:pagecheckerboard="false"
     inkscape:document-units="mm"
     showgrid="false"
     inkscape:zoom="1.8649384"
     inkscape:cx="165.95722"
     inkscape:cy="139.14668"
     inkscape:window-width="956"
     inkscape:window-height="1037"
     inkscape:window-x="960"
     inkscape:window-y="0"
     inkscape:window-maximized="1"
     inkscape:current-layer="layer1"
     inkscape:showpageshadow="2"
     inkscape:deskcolor="#ffffff" />
  <defs
     id="defs2" />
  <g
     inkscape:label="Layer 1"
     inkscape:groupmode="layer"
     id="layer1"
     transform="translate(46.454647,-98.98964)">
    <path
       style="fill:none;stroke:#00ff00;stroke-width:0.5;stroke-linecap:round;stroke-linejoin:round"
       d="m -17.397127,116.74691 c -0.09841,-0.59121 -0.08745,-1.1717 0.06982,-1.62897"
       id="path32427"
       sodipodi:nodetypes="cc" />
    <path
       style="fill:none;stroke:#00ff00;stroke-width:0.5;stroke-linecap:round;stroke-linejoin:round"
       d="m -18.265277,115.35673 c -0.07051,-0.005 -0.484735,-0.0257 -0.662782,-0.16705 -0.204683,-0.16253 -0.346304,-0.43505 -0.356489,-0.69605 -0.0088,-0.22739 0.08051,-0.49482 0.26239,-0.62926 0.08912,-0.0659 0.265167,0.0596 0.329954,-0.0306 0.213125,-0.29707 -0.33163,-0.71666 -0.243693,-1.07258 0.07214,-0.29194 0.331279,-0.52539 0.585797,-0.68196 0.129936,-0.08 0.313989,-0.0282 0.443594,-0.10869 0.17954,-0.11147 0.20951,-0.42103 0.41031,-0.48573 0.291879,-0.0939 0.627568,0.0691 0.89131,0.22668 0.343371,0.20495 0.599042,0.54591 0.815462,0.88417 0.134287,0.20991 0.302825,0.44188 0.287254,0.69126 -0.0094,0.1519 -0.199845,0.24565 -0.225979,0.39556 -0.06051,0.34712 0.240171,0.69375 0.18208,1.0413 -0.04067,0.24325 -0.152681,0.51131 -0.357251,0.64621 -0.174303,0.11491 -0.621719,0.0601 -0.621719,0.0601"
       id="path32492"
       sodipodi:nodetypes="caaaaaaaaaaaaaac" />
    <path
       style="fill:none;stroke:#00ff00;stroke-width:0.499999;stroke-linecap:round;stroke-linejoin:round"
       d="m -20.974383,112.98509 c 0,0 -0.637884,-0.0981 -0.850007,-0.31291 -0.178191,-0.18049 -0.312584,-0.47064 -0.253704,-0.71734 0.0632,-0.26483 0.553381,-0.29437 0.590768,-0.56406 0.0525,-0.37867 -0.599419,-0.60584 -0.582756,-0.98777 0.02249,-0.51553 0.480794,-0.95851 0.899761,-1.25976 0.398676,-0.28666 0.923689,-0.50496 1.408964,-0.42996 0.483767,0.0748 0.966661,0.40771 1.20966,0.83264 0.171278,0.29953 -0.09168,0.72952 0.07341,1.0325 0.05894,0.10816 0.256895,0.10488 0.295532,0.22185 0.03225,0.0976 -0.08782,0.29567 -0.08782,0.29567"
       id="path32547"
       sodipodi:nodetypes="caaaaaaaaac" />
    <path
       style="fill:none;stroke:#00ff00;stroke-width:0.499999;stroke-linecap:round;stroke-linejoin:round"
       d="m -20.038755,112.7971 c 0.112863,0.43098 0.02192,1.13858 0.0072,1.7427"
       id="path32549"
       sodipodi:nodetypes="cc" />
    <path
       style="fill:none;stroke:#00ff00;stroke-width:0.499999;stroke-linecap:round;stroke-linejoin:round"
       d="m -18.026397,108.69056 c 0,0 0.429661,-0.62754 0.767923,-0.72521 0.281834,-0.0813 0.596589,0.0483 0.86343,0.17019 0.603366,0.27553 1.283621,0.62482 1.5694,1.22339 0.231532,0.48496 0.294575,1.18264 -0.02871,1.61192 -0.08722,0.11582 -0.358274,-0.006 -0.415835,0.12757 -0.08511,0.19677 0.327406,0.3674 0.283583,0.57726 -0.02838,0.13592 -0.317942,0.26912 -0.317942,0.26912"
       id="path32551"
       sodipodi:nodetypes="caaaaaac" />
    <path
       style="fill:none;stroke:#00ff00;stroke-width:0.499999;stroke-linecap:round;stroke-linejoin:round"
       d="m -21.581105,108.29974 c -0.214308,-0.35431 -0.449188,-0.78248 -0.281746,-1.20351 0.108674,-0.28886 0.435319,-0.31752 0.699059,-0.32848 0.252482,0.0181 0.452101,-0.29124 0.202395,-0.45305 -0.196521,-0.11079 -0.404485,-0.38832 -0.147213,-0.55799 0.394995,-0.21848 0.869523,-0.14226 1.298664,-0.0959 0.363636,0.0593 0.766204,0.20929 0.947172,0.55224 0.07169,0.2587 -0.354267,0.42471 -0.176858,0.67615 0.220284,0.27048 0.687048,0.21959 0.829287,0.57457 0.04388,0.11744 0.08008,0.23749 0.105795,0.36028"
       id="path35260"
       sodipodi:nodetypes="caaaaaaaac" />
    <path
       style="fill:none;stroke:#00ff00;stroke-width:0.499999;stroke-linecap:round;stroke-linejoin:round"
       d="m -27.511885,113.94203 c -0.01708,-0.56346 -0.0028,-1.18829 0.130094,-1.63846"
       id="path35264"
       sodipodi:nodetypes="cc" />
    <path
       style="fill:none;stroke:#00ff00;stroke-width:0.499999;stroke-linecap:round;stroke-linejoin:round"
       d="m -28.324956,112.80039 c -0.361864,-0.17151 -0.803231,-0.27599 -1.069,-0.58269 -0.208938,-0.24112 -0.368318,-0.57985 -0.333859,-0.89703 0.03182,-0.29293 0.41886,-0.45446 0.479041,-0.7429 0.05612,-0.269 -0.208259,-0.54954 -0.132432,-0.81367 0.122225,-0.42574 0.460604,-0.84669 0.876683,-0.99858 0.43657,-0.15937 0.981529,-0.0329 1.378543,0.20871 0.414496,0.25224 0.692799,0.72083 0.854858,1.17819 0.0941,0.26557 0.0094,0.56457 0.04511,0.84404 0.05211,0.40779 0.40987,0.83152 0.245966,1.20854 -0.107705,0.24774 -0.690984,0.42348 -0.690984,0.42348"
       id="path35266"
       sodipodi:nodetypes="caaaaaaaaac" />
    <path
       style="fill:none;stroke:#00ff00;stroke-width:0.499999;stroke-linecap:round;stroke-linejoin:round"
       d="m -26.660321,107.90445 c 0,0 0.291404,-0.45551 0.490439,-0.6336 0.340541,-0.3047 0.719839,-0.7906 1.170318,-0.71391 0.468157,0.0797 0.589799,0.74494 0.902243,1.10257 0.216848,0.24821 0.610645,0.39986 0.67422,0.72327 0.06952,0.35368 -0.340521,0.65329 -0.383061,1.01122 -0.03487,0.2934 0.239465,0.61337 0.110962,0.87944 -0.09924,0.20547 -0.585231,0.35512 -0.585231,0.35512"
       id="path35268"
       sodipodi:nodetypes="caaaaaac" />
    <path
       style="fill:none;stroke:#00ff00;stroke-width:0.499999;stroke-linecap:round;stroke-linejoin:round"
       d="m -25.256384,110.24658 c 0.135076,0.54014 0.19712,1.10595 0.12451,1.71909"
       id="path35274"
       sodipodi:nodetypes="cc" />
    <path
       style="fill:none;stroke:#00ff00;stroke-width:0.499999;stroke-linecap:round;stroke-linejoin:round"
       d="m -30.041088,108.592 c 0,0 -0.297203,-0.86388 -0.17272,-1.27393 0.09084,-0.29924 0.489815,-0.41909 0.621578,-0.70269 0.121136,-0.26073 -0.07067,-0.64288 0.125169,-0.85335 0.475046,-0.51055 1.472925,-0.85377 2.042754,-0.45175 0.159525,0.11254 -0.01535,0.40688 0.07263,0.58116 0.09977,0.19764 0.481337,0.45763 0.481337,0.45763"
       id="path35276"
       sodipodi:nodetypes="caaaaac" />
    <path
       style="fill:none;stroke:#00ff00;stroke-width:0.499999;stroke-linecap:round;stroke-linejoin:round"
       d="m -28.02421,104.19357 c 0,0 -0.106812,-0.5284 0.0086,-0.7503 0.142756,-0.27446 0.550937,-0.30793 0.753737,-0.54156 0.19283,-0.22215 0.141453,-0.65983 0.409065,-0.78196 0.703996,-0.32129 1.701599,-0.002 2.259067,0.53495 0.222789,0.21449 0.143386,0.60299 0.247861,0.89407 0.143949,0.40106 0.275262,0.7813 0.51981,1.16788 0.283264,0.44779 -0.377095,1.24518 -0.401376,1.24539"
       id="path35278"
       sodipodi:nodetypes="caaaaasc" />
    <path
       style="fill:none;stroke:#00ff00;stroke-width:0.499999;stroke-linecap:round;stroke-linejoin:round"
       d="m -30.977287,104.9106 c 0.0177,-0.53814 0.02602,-1.11318 -0.0603,-1.59991"
       id="path37998"
       sodipodi:nodetypes="cc" />
    <path
       style="fill:none;stroke:#00ff00;stroke-width:0.499999;stroke-linecap:round;stroke-linejoin:round"
       d="m -31.968821,103.75468 c -0.358789,-0.11548 -0.768737,-0.22852 -0.990995,-0.55739 -0.140458,-0.33649 0.297777,-0.59349 0.197855,-0.9315 -0.05855,-0.26941 -0.354866,-0.47527 -0.263706,-0.77439 0.135976,-0.34503 0.605771,-0.40061 0.735309,-0.75425 0.10697,-0.30914 -0.08249,-0.68713 0.157157,-0.954914 0.350166,-0.39567 0.92986,-0.66594 1.453633,-0.48145 0.380453,0.17415 0.601399,0.56974 0.720386,0.952824 0.04168,0.2951 -0.151082,0.6187 0.0357,0.88993 0.192398,0.3385 0.613567,0.53727 0.670602,0.95092 1.39e-4,0.51966 -0.386779,0.9174 -0.602284,1.35882 l -0.01055,0.048 3.96e-4,0.0493"
       id="path38000"
       sodipodi:nodetypes="caaaaaaaaac" />
    <path
       style="fill:none;stroke:#00ff00;stroke-width:0.499999;stroke-linecap:round;stroke-linejoin:round"
       d="m -26.832505,114.05678 h 1.836936"
       id="path43312"
       sodipodi:nodetypes="cc" />
    <path
       style="fill:none;stroke:#00ff00;stroke-width:0.499999;stroke-linecap:round;stroke-linejoin:round"
       d="m -24.308091,112.0452 h 1.204525"
       id="path43314" />
    <path
       style="fill:none;stroke:#00ff00;stroke-width:0.499999;stroke-linecap:round;stroke-linejoin:round"
       d="m -16.547535,116.82626 h 1.6306"
       id="path43316" />
    <path
       style="fill:none;stroke:#00ff00;stroke-width:0.499999;stroke-linecap:round;stroke-linejoin:round"
       d="m -30.264468,104.92626 h 0.676084"
       id="path43318"
       sodipodi:nodetypes="cc" />
    <path
       style="fill:none;stroke:#00ff00;stroke-width:0.499999;stroke-linecap:round;stroke-linejoin:round"
       d="m -35.419865,109.01687 c -0.06473,-0.25844 0.334861,-0.62772 0.383489,-0.9729 0.03817,-0.27098 -0.182815,-0.56429 -0.07833,-0.81721 0.110343,-0.2671 0.496803,-0.31998 0.667712,-0.55302 0.175668,-0.23953 0.132586,-0.60883 0.335897,-0.82539 0.261865,-0.27893 0.660719,-0.5839 1.033717,-0.4988 0.49482,0.11288 0.628915,0.79689 0.948749,1.19102 0.116573,0.14365 0.307002,0.24873 0.353609,0.42777 0.06969,0.2677 -0.206797,0.54559 -0.149746,0.81627 0.08331,0.39531 0.727502,0.60103 0.681196,1.00237 -0.03818,0.33086 -0.735011,0.67671 -0.735011,0.67671"
       id="path51301"
       sodipodi:nodetypes="caaaaaaaaac" />
    <path
       style="fill:none;stroke:#00ff00;stroke-width:0.499999;stroke-linecap:round;stroke-linejoin:round"
       d="m -36.445602,113.66261 c 0,0 -0.784404,-0.67704 -0.788371,-1.13868 -0.0023,-0.27163 0.389952,-0.41349 0.452303,-0.67788 0.05819,-0.24676 -0.232228,-0.54147 -0.09497,-0.75463 0.124724,-0.19369 0.492358,-0.0471 0.659967,-0.20517 0.142842,-0.1347 0.09913,-0.38754 0.207545,-0.55123 0.133396,-0.2014 0.30053,-0.41009 0.524852,-0.49974 0.33416,-0.13354 0.765564,-0.17522 1.079566,5.6e-4 0.352081,0.1971 0.517208,0.64515 0.633363,1.03156 0.04943,0.16445 -0.04514,0.35486 0.01719,0.51487 0.08636,0.22167 0.419402,0.30793 0.464993,0.54141 0.04192,0.2147 -0.241846,0.40587 -0.208881,0.62212 0.02543,0.16682 0.315513,0.2424 0.296797,0.4101 -0.04431,0.39706 -1.029471,0.73965 -0.899485,0.79216"
       id="path51303"
       sodipodi:nodetypes="caaaaaaaaaaaac" />
    <path
       style="fill:none;stroke:#00ff00;stroke-width:0.499999;stroke-linecap:round;stroke-linejoin:round"
       d="m -33.150006,109.20036 c 0,0 0.159743,0.44522 0.11631,1.45193"
       id="path51305"
       sodipodi:nodetypes="cc" />
    <path
       style="fill:none;stroke:#00ff00;stroke-width:0.499999;stroke-linecap:round;stroke-linejoin:round"
       d="m -32.164721,110.72611 h 1.599579"
       id="path51307" />
    <path
       style="fill:none;stroke:#00ff00;stroke-width:0.499999;stroke-linecap:round;stroke-linejoin:round"
       d="m -35.153286,113.27645 c -0.163963,0.61822 -0.161597,0.85312 -0.12602,1.49005"
       id="path51309"
       sodipodi:nodetypes="cc" />
    <path
       style="fill:none;stroke:#00ff00;stroke-width:0.499999;stroke-linecap:round;stroke-linejoin:round"
       d="m -34.311631,114.80262 h 1.771066"
       id="path51311"
       sodipodi:nodetypes="cc" />
    <path
       style="fill:none;stroke:#00ff00;stroke-width:0.499999;stroke-linecap:round;stroke-linejoin:round"
       d="m -29.657826,133.88106 c -0.01105,-0.65538 -0.1083,-1.4361 0.104441,-1.80839"
       id="path61977"
       sodipodi:nodetypes="cc" />
    <path
       style="fill:none;stroke:#00ff00;stroke-width:0.499999;stroke-linecap:round;stroke-linejoin:round"
       d="m -30.602926,132.47369 c 0,0 -0.349469,-0.0141 -0.498277,-0.0944 -0.237958,-0.12825 -0.57206,-0.31242 -0.564106,-0.58262 0.0055,-0.18799 0.370552,-0.1988 0.415624,-0.38156 0.07205,-0.29216 -0.364691,-0.55508 -0.304398,-0.84989 0.05008,-0.24487 0.427135,-0.31404 0.509647,-0.54996 0.09959,-0.28477 -0.220386,-0.64256 -0.06735,-0.90253 0.266025,-0.45192 0.904153,-0.65295 1.428521,-0.65902 0.503076,-0.006 1.168071,0.14629 1.384806,0.60033 0.0986,0.20656 -0.2215,0.43584 -0.183819,0.66161 0.07131,0.42726 0.725116,0.6382 0.735646,1.07124 0.0079,0.32557 -0.449329,0.51197 -0.513262,0.83129 -0.04211,0.21033 0.203342,0.44686 0.101199,0.63547 -0.117345,0.21668 -0.473536,0.26511 -0.674934,0.30157"
       id="path61979"
       sodipodi:nodetypes="caaaaaaaaaaaac" />
    <path
       style="fill:none;stroke:#00ff00;stroke-width:0.499999;stroke-linecap:round;stroke-linejoin:round"
       d="m -28.919578,133.93035 h 0.484515"
       id="path67317" />
    <path
       style="fill:none;stroke:#00ff00;stroke-width:0.499999;stroke-linecap:round;stroke-linejoin:round"
       d="m -28.380766,127.97782 c 0,0 -0.12711,-0.35454 -0.04265,-0.49825 0.174655,-0.29717 0.63034,-0.27926 0.943067,-0.42424 0.360632,-0.16719 0.684473,-0.5818 1.076121,-0.51384 0.511764,0.0888 0.934699,0.61278 1.09773,1.10594 0.111108,0.3361 -0.195551,0.69987 -0.151478,1.0511 0.04597,0.36638 0.425546,0.65414 0.424004,1.02339 -0.0012,0.28349 -0.118571,0.59648 -0.332089,0.78297 -0.18608,0.16253 -0.715084,0.19501 -0.715084,0.19501"
       id="path69988"
       sodipodi:nodetypes="caaaaaaac" />
    <path
       style="fill:none;stroke:#00ff00;stroke-width:0.499999;stroke-linecap:round;stroke-linejoin:round"
       d="m -27.132509,130.16877 c 0.232131,0.26816 0.198912,0.91036 0.14971,1.50386"
       id="path69990"
       sodipodi:nodetypes="cc" />
    <path
       style="fill:none;stroke:#00ff00;stroke-width:0.499999;stroke-linecap:round;stroke-linejoin:round"
       d="m -26.267058,131.747 h 1.155331"
       id="path69992"
       sodipodi:nodetypes="cc" />
    <path
       style="fill:none;stroke:#00ff00;stroke-width:0.499999;stroke-linecap:round;stroke-linejoin:round"
       d="m -30.90302,128.01758 c 0,0 -0.478395,-0.48516 -0.466716,-0.7911 0.01333,-0.34903 0.525169,-0.51804 0.599696,-0.85928 0.05381,-0.24642 -0.224245,-0.50869 -0.134925,-0.74457 0.167912,-0.44344 0.655024,-0.77434 1.117119,-0.88064 0.558309,-0.12844 1.313062,-0.0736 1.678978,0.36726 0.171382,0.20645 -0.111104,0.57296 0.02432,0.80459 0.07245,0.12395 0.368772,0.22254 0.368772,0.22254"
       id="path72666"
       sodipodi:nodetypes="caaaaaac" />
    <path
       style="fill:none;stroke:#00ff00;stroke-width:0.499999;stroke-linecap:round;stroke-linejoin:round"
       d="m -24.50576,128.59467 c 0,0 -0.03069,-0.6124 0.007,-0.91511 0.0327,-0.26268 0.188827,-0.77136 0.188827,-0.77136"
       id="path78014"
       sodipodi:nodetypes="cac" />
    <path
       style="fill:none;stroke:#00ff00;stroke-width:0.499999;stroke-linecap:round;stroke-linejoin:round"
       d="m -23.668572,128.62515 h 1.586721"
       id="path78016" />
    <path
       style="fill:none;stroke:#00ff00;stroke-width:0.499999;stroke-linecap:round;stroke-linejoin:round"
       d="m -23.497993,127.34353 c 0,0 0.549713,-0.0762 0.737505,-0.25645 0.228685,-0.21946 0.353065,-0.56756 0.349011,-0.88448 -0.0043,-0.33425 -0.371611,-0.58945 -0.391832,-0.92312 -0.01464,-0.24151 0.246191,-0.45986 0.200849,-0.69753 -0.09257,-0.48523 -0.464879,-0.94984 -0.90553,-1.17309 -0.500916,-0.25378 -1.200438,-0.3265 -1.684102,-0.0412 -0.302433,0.17839 -0.391843,0.59608 -0.486875,0.9341 -0.07516,0.26735 0.101844,0.60297 -0.05633,0.83124 -0.120861,0.17443 -0.457905,0.0896 -0.579582,0.26341 -0.08555,0.12224 -0.03444,0.44628 -0.03444,0.44628"
       id="path80693"
       sodipodi:nodetypes="caaaaaaaaac" />
    <path
       style="fill:none;stroke:#00ff00;stroke-width:0.499999;stroke-linecap:round;stroke-linejoin:round"
       d="m -29.520972,123.90144 c 0,0 -0.09213,-0.2486 -0.06469,-0.37114 0.04998,-0.22317 0.326275,-0.34293 0.394825,-0.56112 0.06574,-0.20925 -0.116794,-0.47059 -0.0029,-0.65801 0.196962,-0.32398 0.63306,-0.50847 1.012061,-0.51917 0.492506,-0.0139 1.053983,0.20638 1.351114,0.59941 0.08991,0.11892 -0.03386,0.32949 0.06304,0.44278 0.104456,0.12212 0.342222,0.0329 0.46099,0.14111 0.09494,0.0865 0.146381,0.35652 0.146381,0.35652"
       id="path83371"
       sodipodi:nodetypes="caaaaaaac" />
    <path
       style="fill:none;stroke:#00ff00;stroke-width:0.499999;stroke-linecap:round;stroke-linejoin:round"
       d="m -30.776682,124.18955 c 0,0 0.04012,-0.48521 0.04437,-0.72844 0.0055,-0.31207 -0.02424,-0.93604 -0.02424,-0.93604"
       id="path86050"
       sodipodi:nodetypes="cac" />
    <path
       style="fill:none;stroke:#00ff00;stroke-width:0.499999;stroke-linecap:round;stroke-linejoin:round"
       d="m -31.669084,123.12077 c -0.548016,0.10942 -1.031516,-0.10108 -1.220096,-0.49778 -0.199615,-0.41992 0.362432,-0.87139 0.406778,-1.33422 0.03953,-0.41256 -0.249668,-0.83967 -0.130166,-1.23652 0.169237,-0.56202 0.571347,-1.15137 1.120644,-1.3582 0.466506,-0.17566 1.062482,-0.0388 1.476171,0.2393 0.333609,0.22427 0.510686,0.64504 0.628046,1.02952 0.08446,0.2767 -0.02908,0.58583 0.03884,0.86705 0.03041,0.12591 0.161695,0.35335 0.161695,0.35335"
       id="path86052"
       sodipodi:nodetypes="caaaaaaac" />
    <path
       style="fill:none;stroke:#00ff00;stroke-width:0.499999;stroke-linecap:round;stroke-linejoin:round"
       d="m -34.349267,130.86376 c 0,0 0.115143,-0.67949 0.107357,-1.02192 -0.0063,-0.27764 -0.124583,-0.82379 -0.124583,-0.82379"
       id="path91412"
       sodipodi:nodetypes="cac" />
    <path
       style="fill:none;stroke:#00ff00;stroke-width:0.499999;stroke-linecap:round;stroke-linejoin:round"
       d="m -35.146447,129.53122 c 0,0 -0.685102,-0.0983 -0.933758,-0.31252 -0.24026,-0.20701 -0.476254,-0.53362 -0.432055,-0.84766 0.03534,-0.25111 0.461211,-0.30922 0.519135,-0.55611 0.07053,-0.30059 -0.307107,-0.58169 -0.264974,-0.88756 0.06593,-0.47863 0.365411,-0.9683 0.774697,-1.22504 0.425221,-0.26674 1.03498,-0.36883 1.49617,-0.17068 0.637335,0.27384 1.161071,0.97454 1.252069,1.66222 0.02862,0.2163 -0.271696,0.39081 -0.244282,0.60727 0.03866,0.30532 0.551509,0.43591 0.547233,0.74365 -0.0053,0.37834 -0.372004,0.70301 -0.697933,0.89522 -0.108144,0.0638 -0.372009,0.0589 -0.372009,0.0589"
       id="path91414"
       sodipodi:nodetypes="caaaaaaaaaac" />
    <path
       style="fill:none;stroke:#00ff00;stroke-width:0.499999;stroke-linecap:round;stroke-linejoin:round"
       d="m -37.692967,129.2785 c 0,0 -0.04383,-0.74292 -0.0053,-1.11137 0.02051,-0.1961 0.12514,-0.5781 0.12514,-0.5781"
       id="path102140"
       sodipodi:nodetypes="cac" />
    <path
       style="fill:none;stroke:#00ff00;stroke-width:0.499999;stroke-linecap:round;stroke-linejoin:round"
       d="m -38.728445,128.16296 c 0,0 -0.594981,-0.12392 -0.715857,-0.36193 -0.14592,-0.28733 0.205654,-0.63469 0.158164,-0.95327 -0.04371,-0.29322 -0.43134,-0.50297 -0.395209,-0.79721 0.04989,-0.40627 0.519426,-0.63439 0.795909,-0.9369 0.289566,-0.31683 0.488582,-0.80341 0.902681,-0.91844 0.435035,-0.12084 0.942378,0.0782 1.311957,0.33703 0.197125,0.13805 0.407128,0.59536 0.407128,0.59536"
       id="path102142"
       sodipodi:nodetypes="caaaaaac" />
    <path
       style="fill:none;stroke:#00ff00;stroke-width:0.499999;stroke-linecap:round;stroke-linejoin:round"
       d="m -34.489981,124.24883 c 0,0 0.379985,-0.70321 0.285518,-1.05509 -0.07564,-0.28176 -0.514345,-0.34519 -0.620976,-0.61674 -0.10578,-0.26938 0.160072,-0.60646 0.03512,-0.8675 -0.228765,-0.47792 -0.750738,-0.88778 -1.277374,-0.94602 -0.587375,-0.065 -1.289358,0.22907 -1.620838,0.7183 -0.186355,0.27504 0.119923,0.70328 -0.03722,0.99599 -0.113275,0.211 -0.473243,0.2065 -0.583567,0.41905 -0.06795,0.13092 -0.0042,0.44247 -0.0042,0.44247"
       id="path118244"
       sodipodi:nodetypes="caaaaaaac" />
    <path
       style="fill:none;stroke:#00ff00;stroke-width:0.499999;stroke-linecap:round;stroke-linejoin:round"
       d="m -40.825064,126.70124 c 0,0 0.10869,-0.64802 0.08169,-0.97205 -0.01953,-0.23432 -0.174611,-0.68343 -0.174611,-0.68343"
       id="path123614"
       sodipodi:nodetypes="cac" />
    <path
       style="fill:none;stroke:#00ff00;stroke-width:0.499999;stroke-linecap:round;stroke-linejoin:round"
       d="m -42.0043,125.57331 c 0,0 -0.864901,-0.15768 -1.004439,-0.50557 -0.119834,-0.29877 0.307792,-0.58839 0.323491,-0.90991 0.01854,-0.3797 -0.401139,-0.74788 -0.275523,-1.10668 0.09336,-0.26667 0.522451,-0.27614 0.673102,-0.51517 0.13851,-0.21976 -0.02634,-0.582 0.160336,-0.76264 0.324233,-0.31377 0.89869,-0.35697 1.333042,-0.23486 0.207469,0.0583 0.332552,0.2752 0.484996,0.42753 0.316223,0.31599 0.742968,0.5824 0.887575,1.00541 0.106995,0.31298 -0.09114,0.92923 -0.06389,0.99024"
       id="path126301"
       sodipodi:nodetypes="caaaaaaaac" />
    <path
       style="fill:none;stroke:#00ff00;stroke-width:0.499999;stroke-linecap:round;stroke-linejoin:round"
       d="m -33.528229,130.96096 h 1.232927"
       id="path155637" />
    <path
       style="fill:none;stroke:#00ff00;stroke-width:0.499999;stroke-linecap:round;stroke-linejoin:round"
       d="m -44.302248,122.24022 c 0,0 -0.08964,-0.60837 -0.06535,-0.91228 0.01529,-0.19138 0.131835,-0.56067 0.131835,-0.56067"
       id="path189580"
       sodipodi:nodetypes="cac" />
    <path
       style="fill:none;stroke:#00ff00;stroke-width:0.499999;stroke-linecap:round;stroke-linejoin:round"
       d="m -45.199118,121.07811 c -0.333864,0.0141 -0.694262,-0.13022 -0.868635,-0.39649 -0.148283,-0.22642 -0.05278,-0.54402 -0.01382,-0.81186 0.03975,-0.27324 0.260826,-0.514 0.249488,-0.78988 -0.01326,-0.32264 -0.423736,-0.57888 -0.366586,-0.89669 0.07886,-0.43855 0.555703,-0.70725 0.905236,-0.98361 0.34764,-0.27487 0.716408,-0.6533 1.159575,-0.65041 0.532219,0.003 1.129932,0.33059 1.382285,0.79919 0.196035,0.36403 -0.208242,0.84765 -0.07265,1.23823 0.119864,0.34528 0.67118,0.4584 0.728652,0.81935 0.05727,0.35967 -0.306608,0.66138 -0.436609,1.00159 -0.09133,0.23901 -0.05043,0.55777 -0.240659,0.72888 -0.148243,0.13334 -0.584629,0.12655 -0.584629,0.12655"
       id="path194807"
       sodipodi:nodetypes="caaaaaaaaaaac" />
    <path
       style="fill:none;stroke:#00ff00;stroke-width:0.499999;stroke-linecap:round;stroke-linejoin:round"
       d="m -43.539287,122.32476 h 0.193241"
       id="path200032" />
  </g>
</svg>
