<?xml version="1.0" encoding="UTF-8" standalone="no"?>
<!-- Created with Inkscape (http://www.inkscape.org/) -->

<svg
   width="35.379066mm"
   height="38.598217mm"
   viewBox="0 0 35.379067 38.598217"
   version="1.1"
   id="svg5"
   inkscape:version="1.3 (0e150ed6c4, 2023-07-21)"
   sodipodi:docname="forest_color.svg"
   xmlns:inkscape="http://www.inkscape.org/namespaces/inkscape"
   xmlns:sodipodi="http://sodipodi.sourceforge.net/DTD/sodipodi-0.dtd"
   xmlns="http://www.w3.org/2000/svg"
   xmlns:svg="http://www.w3.org/2000/svg">
  <sodipodi:namedview
     id="namedview7"
     pagecolor="#ffffff"
     bordercolor="#666666"
     borderopacity="1.0"
     inkscape:pageshadow="2"
     inkscape:pageopacity="0"
     inkscape:pagecheckerboard="false"
     inkscape:document-units="mm"
     showgrid="false"
     inkscape:zoom="1.0662933"
     inkscape:cx="389.66766"
     inkscape:cy="127.07574"
     inkscape:window-width="1920"
     inkscape:window-height="1080"
     inkscape:window-x="0"
     inkscape:window-y="0"
     inkscape:window-maximized="1"
     inkscape:current-layer="g215757"
     inkscape:showpageshadow="2"
     inkscape:deskcolor="#ffffff" />
  <defs
     id="defs2">
    <inkscape:path-effect
       effect="simplify"
       id="path-effect234011"
       is_visible="true"
       lpeversion="1"
       steps="1"
       threshold="0.0168421"
       smooth_angles="360"
       helper_size="0"
       simplify_individual_paths="false"
       simplify_just_coalesce="false" />
    <inkscape:path-effect
       effect="simplify"
       id="path-effect234007"
       is_visible="true"
       lpeversion="1"
       steps="1"
       threshold="0.0168421"
       smooth_angles="360"
       helper_size="0"
       simplify_individual_paths="false"
       simplify_just_coalesce="false" />
    <inkscape:path-effect
       effect="simplify"
       id="path-effect234003"
       is_visible="true"
       lpeversion="1"
       steps="1"
       threshold="0.0168421"
       smooth_angles="360"
       helper_size="0"
       simplify_individual_paths="false"
       simplify_just_coalesce="false" />
    <inkscape:path-effect
       effect="simplify"
       id="path-effect233999"
       is_visible="true"
       lpeversion="1"
       steps="1"
       threshold="0.0168421"
       smooth_angles="360"
       helper_size="0"
       simplify_individual_paths="false"
       simplify_just_coalesce="false" />
    <inkscape:path-effect
       effect="simplify"
       id="path-effect233995"
       is_visible="true"
       lpeversion="1"
       steps="1"
       threshold="0.0168421"
       smooth_angles="360"
       helper_size="0"
       simplify_individual_paths="false"
       simplify_just_coalesce="false" />
    <inkscape:path-effect
       effect="simplify"
       id="path-effect233991"
       is_visible="true"
       lpeversion="1"
       steps="1"
       threshold="0.0168421"
       smooth_angles="360"
       helper_size="0"
       simplify_individual_paths="false"
       simplify_just_coalesce="false" />
    <inkscape:path-effect
       effect="simplify"
       id="path-effect233987"
       is_visible="true"
       lpeversion="1"
       steps="1"
       threshold="0.0168421"
       smooth_angles="360"
       helper_size="0"
       simplify_individual_paths="false"
       simplify_just_coalesce="false" />
    <inkscape:path-effect
       effect="simplify"
       id="path-effect233707"
       is_visible="true"
       lpeversion="1"
       steps="1"
       threshold="0.0168421"
       smooth_angles="360"
       helper_size="0"
       simplify_individual_paths="false"
       simplify_just_coalesce="false" />
    <inkscape:path-effect
       effect="simplify"
       id="path-effect233390"
       is_visible="true"
       lpeversion="1"
       steps="1"
       threshold="0.0168421"
       smooth_angles="360"
       helper_size="0"
       simplify_individual_paths="false"
       simplify_just_coalesce="false" />
    <inkscape:path-effect
       effect="simplify"
       id="path-effect233386"
       is_visible="true"
       lpeversion="1"
       steps="1"
       threshold="0.0168421"
       smooth_angles="360"
       helper_size="0"
       simplify_individual_paths="false"
       simplify_just_coalesce="false" />
    <inkscape:path-effect
       effect="simplify"
       id="path-effect233382"
       is_visible="true"
       lpeversion="1"
       steps="1"
       threshold="0.0168421"
       smooth_angles="360"
       helper_size="0"
       simplify_individual_paths="false"
       simplify_just_coalesce="false" />
    <inkscape:path-effect
       effect="simplify"
       id="path-effect233378"
       is_visible="true"
       lpeversion="1"
       steps="1"
       threshold="0.0168421"
       smooth_angles="360"
       helper_size="0"
       simplify_individual_paths="false"
       simplify_just_coalesce="false" />
    <inkscape:path-effect
       effect="simplify"
       id="path-effect233374"
       is_visible="true"
       lpeversion="1"
       steps="1"
       threshold="0.0168421"
       smooth_angles="360"
       helper_size="0"
       simplify_individual_paths="false"
       simplify_just_coalesce="false" />
    <inkscape:path-effect
       effect="simplify"
       id="path-effect233370"
       is_visible="true"
       lpeversion="1"
       steps="1"
       threshold="0.0168421"
       smooth_angles="360"
       helper_size="0"
       simplify_individual_paths="false"
       simplify_just_coalesce="false" />
    <inkscape:path-effect
       effect="simplify"
       id="path-effect233366"
       is_visible="true"
       lpeversion="1"
       steps="1"
       threshold="0.0168421"
       smooth_angles="360"
       helper_size="0"
       simplify_individual_paths="false"
       simplify_just_coalesce="false" />
    <inkscape:path-effect
       effect="simplify"
       id="path-effect233362"
       is_visible="true"
       lpeversion="1"
       steps="1"
       threshold="0.0168421"
       smooth_angles="360"
       helper_size="0"
       simplify_individual_paths="false"
       simplify_just_coalesce="false" />
    <inkscape:path-effect
       effect="simplify"
       id="path-effect233358"
       is_visible="true"
       lpeversion="1"
       steps="1"
       threshold="0.0168421"
       smooth_angles="360"
       helper_size="0"
       simplify_individual_paths="false"
       simplify_just_coalesce="false" />
    <inkscape:path-effect
       effect="simplify"
       id="path-effect233354"
       is_visible="true"
       lpeversion="1"
       steps="1"
       threshold="0.0168421"
       smooth_angles="360"
       helper_size="0"
       simplify_individual_paths="false"
       simplify_just_coalesce="false" />
    <inkscape:path-effect
       effect="simplify"
       id="path-effect233350"
       is_visible="true"
       lpeversion="1"
       steps="1"
       threshold="0.0168421"
       smooth_angles="360"
       helper_size="0"
       simplify_individual_paths="false"
       simplify_just_coalesce="false" />
    <inkscape:path-effect
       effect="simplify"
       id="path-effect233346"
       is_visible="true"
       lpeversion="1"
       steps="1"
       threshold="0.0168421"
       smooth_angles="360"
       helper_size="0"
       simplify_individual_paths="false"
       simplify_just_coalesce="false" />
    <inkscape:path-effect
       effect="simplify"
       id="path-effect233342"
       is_visible="true"
       lpeversion="1"
       steps="1"
       threshold="0.0168421"
       smooth_angles="360"
       helper_size="0"
       simplify_individual_paths="false"
       simplify_just_coalesce="false" />
    <inkscape:path-effect
       effect="simplify"
       id="path-effect233338"
       is_visible="true"
       lpeversion="1"
       steps="1"
       threshold="0.0168421"
       smooth_angles="360"
       helper_size="0"
       simplify_individual_paths="false"
       simplify_just_coalesce="false" />
    <inkscape:path-effect
       effect="simplify"
       id="path-effect233334"
       is_visible="true"
       lpeversion="1"
       steps="1"
       threshold="0.0168421"
       smooth_angles="360"
       helper_size="0"
       simplify_individual_paths="false"
       simplify_just_coalesce="false" />
    <inkscape:path-effect
       effect="simplify"
       id="path-effect233326"
       is_visible="true"
       lpeversion="1"
       steps="1"
       threshold="0.0168421"
       smooth_angles="360"
       helper_size="0"
       simplify_individual_paths="false"
       simplify_just_coalesce="false" />
    <inkscape:path-effect
       effect="simplify"
       id="path-effect233322"
       is_visible="true"
       lpeversion="1"
       steps="1"
       threshold="0.0168421"
       smooth_angles="360"
       helper_size="0"
       simplify_individual_paths="false"
       simplify_just_coalesce="false" />
    <inkscape:path-effect
       effect="simplify"
       id="path-effect233318"
       is_visible="true"
       lpeversion="1"
       steps="1"
       threshold="0.0168421"
       smooth_angles="360"
       helper_size="0"
       simplify_individual_paths="false"
       simplify_just_coalesce="false" />
    <inkscape:path-effect
       effect="simplify"
       id="path-effect233314"
       is_visible="true"
       lpeversion="1"
       steps="1"
       threshold="0.0168421"
       smooth_angles="360"
       helper_size="0"
       simplify_individual_paths="false"
       simplify_just_coalesce="false" />
    <inkscape:path-effect
       effect="simplify"
       id="path-effect233034"
       is_visible="true"
       lpeversion="1"
       steps="1"
       threshold="0.0168421"
       smooth_angles="360"
       helper_size="0"
       simplify_individual_paths="false"
       simplify_just_coalesce="false" />
    <inkscape:path-effect
       effect="simplify"
       id="path-effect232888"
       is_visible="true"
       lpeversion="1"
       steps="1"
       threshold="0.0168421"
       smooth_angles="360"
       helper_size="0"
       simplify_individual_paths="false"
       simplify_just_coalesce="false" />
    <inkscape:path-effect
       effect="simplify"
       id="path-effect232884"
       is_visible="true"
       lpeversion="1"
       steps="1"
       threshold="0.0168421"
       smooth_angles="360"
       helper_size="0"
       simplify_individual_paths="false"
       simplify_just_coalesce="false" />
    <inkscape:path-effect
       effect="simplify"
       id="path-effect232880"
       is_visible="true"
       lpeversion="1"
       steps="1"
       threshold="0.0168421"
       smooth_angles="360"
       helper_size="0"
       simplify_individual_paths="false"
       simplify_just_coalesce="false" />
    <inkscape:path-effect
       effect="simplify"
       id="path-effect232876"
       is_visible="true"
       lpeversion="1"
       steps="1"
       threshold="0.0168421"
       smooth_angles="360"
       helper_size="0"
       simplify_individual_paths="false"
       simplify_just_coalesce="false" />
    <inkscape:path-effect
       effect="simplify"
       id="path-effect232872"
       is_visible="true"
       lpeversion="1"
       steps="1"
       threshold="0.0168421"
       smooth_angles="360"
       helper_size="0"
       simplify_individual_paths="false"
       simplify_just_coalesce="false" />
    <inkscape:path-effect
       effect="simplify"
       id="path-effect232868"
       is_visible="true"
       lpeversion="1"
       steps="1"
       threshold="0.0168421"
       smooth_angles="360"
       helper_size="0"
       simplify_individual_paths="false"
       simplify_just_coalesce="false" />
    <inkscape:path-effect
       effect="simplify"
       id="path-effect232864"
       is_visible="true"
       lpeversion="1"
       steps="1"
       threshold="0.0168421"
       smooth_angles="360"
       helper_size="0"
       simplify_individual_paths="false"
       simplify_just_coalesce="false" />
    <inkscape:path-effect
       effect="simplify"
       id="path-effect232791"
       is_visible="true"
       lpeversion="1"
       steps="1"
       threshold="0.0168421"
       smooth_angles="360"
       helper_size="0"
       simplify_individual_paths="false"
       simplify_just_coalesce="false" />
    <inkscape:path-effect
       effect="simplify"
       id="path-effect232142"
       is_visible="true"
       lpeversion="1"
       steps="1"
       threshold="0.0168421"
       smooth_angles="360"
       helper_size="0"
       simplify_individual_paths="false"
       simplify_just_coalesce="false" />
    <inkscape:path-effect
       effect="simplify"
       id="path-effect232138"
       is_visible="true"
       lpeversion="1"
       steps="1"
       threshold="0.0168421"
       smooth_angles="360"
       helper_size="0"
       simplify_individual_paths="false"
       simplify_just_coalesce="false" />
    <inkscape:path-effect
       effect="simplify"
       id="path-effect232134"
       is_visible="true"
       lpeversion="1"
       steps="1"
       threshold="0.0168421"
       smooth_angles="360"
       helper_size="0"
       simplify_individual_paths="false"
       simplify_just_coalesce="false" />
    <inkscape:path-effect
       effect="simplify"
       id="path-effect232130"
       is_visible="true"
       lpeversion="1"
       steps="1"
       threshold="0.0168421"
       smooth_angles="360"
       helper_size="0"
       simplify_individual_paths="false"
       simplify_just_coalesce="false" />
    <inkscape:path-effect
       effect="simplify"
       id="path-effect232126"
       is_visible="true"
       lpeversion="1"
       steps="1"
       threshold="0.0168421"
       smooth_angles="360"
       helper_size="0"
       simplify_individual_paths="false"
       simplify_just_coalesce="false" />
    <inkscape:path-effect
       effect="simplify"
       id="path-effect232122"
       is_visible="true"
       lpeversion="1"
       steps="1"
       threshold="0.0168421"
       smooth_angles="360"
       helper_size="0"
       simplify_individual_paths="false"
       simplify_just_coalesce="false" />
    <inkscape:path-effect
       effect="simplify"
       id="path-effect232118"
       is_visible="true"
       lpeversion="1"
       steps="1"
       threshold="0.0168421"
       smooth_angles="360"
       helper_size="0"
       simplify_individual_paths="false"
       simplify_just_coalesce="false" />
    <inkscape:path-effect
       effect="simplify"
       id="path-effect232114"
       is_visible="true"
       lpeversion="1"
       steps="1"
       threshold="0.0168421"
       smooth_angles="360"
       helper_size="0"
       simplify_individual_paths="false"
       simplify_just_coalesce="false" />
    <inkscape:path-effect
       effect="simplify"
       id="path-effect232110"
       is_visible="true"
       lpeversion="1"
       steps="1"
       threshold="0.0168421"
       smooth_angles="360"
       helper_size="0"
       simplify_individual_paths="false"
       simplify_just_coalesce="false" />
    <inkscape:path-effect
       effect="simplify"
       id="path-effect232106"
       is_visible="true"
       lpeversion="1"
       steps="1"
       threshold="0.0168421"
       smooth_angles="360"
       helper_size="0"
       simplify_individual_paths="false"
       simplify_just_coalesce="false" />
    <inkscape:path-effect
       effect="simplify"
       id="path-effect231832"
       is_visible="true"
       lpeversion="1"
       steps="1"
       threshold="0.0168421"
       smooth_angles="360"
       helper_size="0"
       simplify_individual_paths="false"
       simplify_just_coalesce="false" />
    <inkscape:path-effect
       effect="simplify"
       id="path-effect231459"
       is_visible="true"
       lpeversion="1"
       steps="1"
       threshold="0.0168421"
       smooth_angles="360"
       helper_size="0"
       simplify_individual_paths="false"
       simplify_just_coalesce="false" />
    <inkscape:path-effect
       effect="simplify"
       id="path-effect231455"
       is_visible="true"
       lpeversion="1"
       steps="1"
       threshold="0.0168421"
       smooth_angles="360"
       helper_size="0"
       simplify_individual_paths="false"
       simplify_just_coalesce="false" />
    <inkscape:path-effect
       effect="simplify"
       id="path-effect231451"
       is_visible="true"
       lpeversion="1"
       steps="1"
       threshold="0.0168421"
       smooth_angles="360"
       helper_size="0"
       simplify_individual_paths="false"
       simplify_just_coalesce="false" />
    <inkscape:path-effect
       effect="simplify"
       id="path-effect231447"
       is_visible="true"
       lpeversion="1"
       steps="1"
       threshold="0.0168421"
       smooth_angles="360"
       helper_size="0"
       simplify_individual_paths="false"
       simplify_just_coalesce="false" />
    <inkscape:path-effect
       effect="simplify"
       id="path-effect231443"
       is_visible="true"
       lpeversion="1"
       steps="1"
       threshold="0.0168421"
       smooth_angles="360"
       helper_size="0"
       simplify_individual_paths="false"
       simplify_just_coalesce="false" />
    <inkscape:path-effect
       effect="simplify"
       id="path-effect231435"
       is_visible="true"
       lpeversion="1"
       steps="1"
       threshold="0.0168421"
       smooth_angles="360"
       helper_size="0"
       simplify_individual_paths="false"
       simplify_just_coalesce="false" />
    <inkscape:path-effect
       effect="simplify"
       id="path-effect230931"
       is_visible="true"
       lpeversion="1"
       steps="1"
       threshold="0.0168421"
       smooth_angles="360"
       helper_size="0"
       simplify_individual_paths="false"
       simplify_just_coalesce="false" />
    <inkscape:path-effect
       effect="simplify"
       id="path-effect230566"
       is_visible="true"
       lpeversion="1"
       steps="1"
       threshold="0.0168421"
       smooth_angles="360"
       helper_size="0"
       simplify_individual_paths="false"
       simplify_just_coalesce="false" />
    <inkscape:path-effect
       effect="simplify"
       id="path-effect230562"
       is_visible="true"
       lpeversion="1"
       steps="1"
       threshold="0.0168421"
       smooth_angles="360"
       helper_size="0"
       simplify_individual_paths="false"
       simplify_just_coalesce="false" />
    <inkscape:path-effect
       effect="simplify"
       id="path-effect230558"
       is_visible="true"
       lpeversion="1"
       steps="1"
       threshold="0.0168421"
       smooth_angles="360"
       helper_size="0"
       simplify_individual_paths="false"
       simplify_just_coalesce="false" />
    <inkscape:path-effect
       effect="simplify"
       id="path-effect230554"
       is_visible="true"
       lpeversion="1"
       steps="1"
       threshold="0.0168421"
       smooth_angles="360"
       helper_size="0"
       simplify_individual_paths="false"
       simplify_just_coalesce="false" />
    <inkscape:path-effect
       effect="simplify"
       id="path-effect230550"
       is_visible="true"
       lpeversion="1"
       steps="1"
       threshold="0.0168421"
       smooth_angles="360"
       helper_size="0"
       simplify_individual_paths="false"
       simplify_just_coalesce="false" />
    <inkscape:path-effect
       effect="simplify"
       id="path-effect230546"
       is_visible="true"
       lpeversion="1"
       steps="1"
       threshold="0.0168421"
       smooth_angles="360"
       helper_size="0"
       simplify_individual_paths="false"
       simplify_just_coalesce="false" />
    <inkscape:path-effect
       effect="simplify"
       id="path-effect229704"
       is_visible="true"
       lpeversion="1"
       steps="1"
       threshold="0.0168421"
       smooth_angles="360"
       helper_size="0"
       simplify_individual_paths="false"
       simplify_just_coalesce="false" />
    <inkscape:path-effect
       effect="simplify"
       id="path-effect229343"
       is_visible="true"
       lpeversion="1"
       steps="1"
       threshold="0.0168421"
       smooth_angles="360"
       helper_size="0"
       simplify_individual_paths="false"
       simplify_just_coalesce="false" />
    <inkscape:path-effect
       effect="simplify"
       id="path-effect229339"
       is_visible="true"
       lpeversion="1"
       steps="1"
       threshold="0.0168421"
       smooth_angles="360"
       helper_size="0"
       simplify_individual_paths="false"
       simplify_just_coalesce="false" />
    <inkscape:path-effect
       effect="simplify"
       id="path-effect229335"
       is_visible="true"
       lpeversion="1"
       steps="1"
       threshold="0.0168421"
       smooth_angles="360"
       helper_size="0"
       simplify_individual_paths="false"
       simplify_just_coalesce="false" />
    <inkscape:path-effect
       effect="simplify"
       id="path-effect229331"
       is_visible="true"
       lpeversion="1"
       steps="1"
       threshold="0.0168421"
       smooth_angles="360"
       helper_size="0"
       simplify_individual_paths="false"
       simplify_just_coalesce="false" />
    <inkscape:path-effect
       effect="simplify"
       id="path-effect229327"
       is_visible="true"
       lpeversion="1"
       steps="1"
       threshold="0.0168421"
       smooth_angles="360"
       helper_size="0"
       simplify_individual_paths="false"
       simplify_just_coalesce="false" />
    <inkscape:path-effect
       effect="simplify"
       id="path-effect229323"
       is_visible="true"
       lpeversion="1"
       steps="1"
       threshold="0.0168421"
       smooth_angles="360"
       helper_size="0"
       simplify_individual_paths="false"
       simplify_just_coalesce="false" />
    <inkscape:path-effect
       effect="simplify"
       id="path-effect229319"
       is_visible="true"
       lpeversion="1"
       steps="1"
       threshold="0.0168421"
       smooth_angles="360"
       helper_size="0"
       simplify_individual_paths="false"
       simplify_just_coalesce="false" />
    <inkscape:path-effect
       effect="simplify"
       id="path-effect228278"
       is_visible="true"
       lpeversion="1"
       steps="1"
       threshold="0.0168421"
       smooth_angles="360"
       helper_size="0"
       simplify_individual_paths="false"
       simplify_just_coalesce="false" />
    <inkscape:path-effect
       effect="simplify"
       id="path-effect227868"
       is_visible="true"
       lpeversion="1"
       steps="1"
       threshold="0.0168421"
       smooth_angles="360"
       helper_size="0"
       simplify_individual_paths="false"
       simplify_just_coalesce="false" />
    <inkscape:path-effect
       effect="simplify"
       id="path-effect227864"
       is_visible="true"
       lpeversion="1"
       steps="1"
       threshold="0.0168421"
       smooth_angles="360"
       helper_size="0"
       simplify_individual_paths="false"
       simplify_just_coalesce="false" />
    <inkscape:path-effect
       effect="simplify"
       id="path-effect227860"
       is_visible="true"
       lpeversion="1"
       steps="1"
       threshold="0.0168421"
       smooth_angles="360"
       helper_size="0"
       simplify_individual_paths="false"
       simplify_just_coalesce="false" />
    <inkscape:path-effect
       effect="simplify"
       id="path-effect227856"
       is_visible="true"
       lpeversion="1"
       steps="1"
       threshold="0.0168421"
       smooth_angles="360"
       helper_size="0"
       simplify_individual_paths="false"
       simplify_just_coalesce="false" />
    <inkscape:path-effect
       effect="simplify"
       id="path-effect227852"
       is_visible="true"
       lpeversion="1"
       steps="1"
       threshold="0.0168421"
       smooth_angles="360"
       helper_size="0"
       simplify_individual_paths="false"
       simplify_just_coalesce="false" />
    <inkscape:path-effect
       effect="simplify"
       id="path-effect227848"
       is_visible="true"
       lpeversion="1"
       steps="1"
       threshold="0.0168421"
       smooth_angles="360"
       helper_size="0"
       simplify_individual_paths="false"
       simplify_just_coalesce="false" />
    <inkscape:path-effect
       effect="simplify"
       id="path-effect227844"
       is_visible="true"
       lpeversion="1"
       steps="1"
       threshold="0.0168421"
       smooth_angles="360"
       helper_size="0"
       simplify_individual_paths="false"
       simplify_just_coalesce="false" />
    <inkscape:path-effect
       effect="simplify"
       id="path-effect227840"
       is_visible="true"
       lpeversion="1"
       steps="1"
       threshold="0.0168421"
       smooth_angles="360"
       helper_size="0"
       simplify_individual_paths="false"
       simplify_just_coalesce="false" />
    <inkscape:path-effect
       effect="simplify"
       id="path-effect227836"
       is_visible="true"
       lpeversion="1"
       steps="1"
       threshold="0.0168421"
       smooth_angles="360"
       helper_size="0"
       simplify_individual_paths="false"
       simplify_just_coalesce="false" />
    <inkscape:path-effect
       effect="simplify"
       id="path-effect227832"
       is_visible="true"
       lpeversion="1"
       steps="1"
       threshold="0.0168421"
       smooth_angles="360"
       helper_size="0"
       simplify_individual_paths="false"
       simplify_just_coalesce="false" />
    <inkscape:path-effect
       effect="simplify"
       id="path-effect227828"
       is_visible="true"
       lpeversion="1"
       steps="1"
       threshold="0.0168421"
       smooth_angles="360"
       helper_size="0"
       simplify_individual_paths="false"
       simplify_just_coalesce="false" />
    <inkscape:path-effect
       effect="simplify"
       id="path-effect227824"
       is_visible="true"
       lpeversion="1"
       steps="1"
       threshold="0.0168421"
       smooth_angles="360"
       helper_size="0"
       simplify_individual_paths="false"
       simplify_just_coalesce="false" />
    <inkscape:path-effect
       effect="simplify"
       id="path-effect227820"
       is_visible="true"
       lpeversion="1"
       steps="1"
       threshold="0.0168421"
       smooth_angles="360"
       helper_size="0"
       simplify_individual_paths="false"
       simplify_just_coalesce="false" />
    <inkscape:path-effect
       effect="simplify"
       id="path-effect227816"
       is_visible="true"
       lpeversion="1"
       steps="1"
       threshold="0.0168421"
       smooth_angles="360"
       helper_size="0"
       simplify_individual_paths="false"
       simplify_just_coalesce="false" />
    <inkscape:path-effect
       effect="simplify"
       id="path-effect227804"
       is_visible="true"
       lpeversion="1"
       steps="1"
       threshold="0.0168421"
       smooth_angles="360"
       helper_size="0"
       simplify_individual_paths="false"
       simplify_just_coalesce="false" />
    <inkscape:path-effect
       effect="simplify"
       id="path-effect227800"
       is_visible="true"
       lpeversion="1"
       steps="1"
       threshold="0.0168421"
       smooth_angles="360"
       helper_size="0"
       simplify_individual_paths="false"
       simplify_just_coalesce="false" />
    <inkscape:path-effect
       effect="simplify"
       id="path-effect227054"
       is_visible="true"
       lpeversion="1"
       steps="1"
       threshold="0.0168421"
       smooth_angles="360"
       helper_size="0"
       simplify_individual_paths="false"
       simplify_just_coalesce="false" />
    <inkscape:path-effect
       effect="simplify"
       id="path-effect226725"
       is_visible="true"
       lpeversion="1"
       steps="1"
       threshold="0.0168421"
       smooth_angles="360"
       helper_size="0"
       simplify_individual_paths="false"
       simplify_just_coalesce="false" />
    <inkscape:path-effect
       effect="simplify"
       id="path-effect226721"
       is_visible="true"
       lpeversion="1"
       steps="1"
       threshold="0.0168421"
       smooth_angles="360"
       helper_size="0"
       simplify_individual_paths="false"
       simplify_just_coalesce="false" />
    <inkscape:path-effect
       effect="simplify"
       id="path-effect226717"
       is_visible="true"
       lpeversion="1"
       steps="1"
       threshold="0.0168421"
       smooth_angles="360"
       helper_size="0"
       simplify_individual_paths="false"
       simplify_just_coalesce="false" />
    <inkscape:path-effect
       effect="simplify"
       id="path-effect226713"
       is_visible="true"
       lpeversion="1"
       steps="1"
       threshold="0.0168421"
       smooth_angles="360"
       helper_size="0"
       simplify_individual_paths="false"
       simplify_just_coalesce="false" />
    <inkscape:path-effect
       effect="simplify"
       id="path-effect226709"
       is_visible="true"
       lpeversion="1"
       steps="1"
       threshold="0.0168421"
       smooth_angles="360"
       helper_size="0"
       simplify_individual_paths="false"
       simplify_just_coalesce="false" />
    <inkscape:path-effect
       effect="simplify"
       id="path-effect226705"
       is_visible="true"
       lpeversion="1"
       steps="1"
       threshold="0.0168421"
       smooth_angles="360"
       helper_size="0"
       simplify_individual_paths="false"
       simplify_just_coalesce="false" />
    <inkscape:path-effect
       effect="simplify"
       id="path-effect226701"
       is_visible="true"
       lpeversion="1"
       steps="1"
       threshold="0.0168421"
       smooth_angles="360"
       helper_size="0"
       simplify_individual_paths="false"
       simplify_just_coalesce="false" />
    <inkscape:path-effect
       effect="simplify"
       id="path-effect226697"
       is_visible="true"
       lpeversion="1"
       steps="1"
       threshold="0.0168421"
       smooth_angles="360"
       helper_size="0"
       simplify_individual_paths="false"
       simplify_just_coalesce="false" />
    <inkscape:path-effect
       effect="simplify"
       id="path-effect226693"
       is_visible="true"
       lpeversion="1"
       steps="1"
       threshold="0.0168421"
       smooth_angles="360"
       helper_size="0"
       simplify_individual_paths="false"
       simplify_just_coalesce="false" />
    <inkscape:path-effect
       effect="simplify"
       id="path-effect226689"
       is_visible="true"
       lpeversion="1"
       steps="1"
       threshold="0.0168421"
       smooth_angles="360"
       helper_size="0"
       simplify_individual_paths="false"
       simplify_just_coalesce="false" />
    <inkscape:path-effect
       effect="simplify"
       id="path-effect225778"
       is_visible="true"
       lpeversion="1"
       steps="1"
       threshold="0.0168421"
       smooth_angles="360"
       helper_size="0"
       simplify_individual_paths="false"
       simplify_just_coalesce="false" />
    <inkscape:path-effect
       effect="simplify"
       id="path-effect225461"
       is_visible="true"
       lpeversion="1"
       steps="1"
       threshold="0.0168421"
       smooth_angles="360"
       helper_size="0"
       simplify_individual_paths="false"
       simplify_just_coalesce="false" />
    <inkscape:path-effect
       effect="simplify"
       id="path-effect225457"
       is_visible="true"
       lpeversion="1"
       steps="1"
       threshold="0.0168421"
       smooth_angles="360"
       helper_size="0"
       simplify_individual_paths="false"
       simplify_just_coalesce="false" />
    <inkscape:path-effect
       effect="simplify"
       id="path-effect225453"
       is_visible="true"
       lpeversion="1"
       steps="1"
       threshold="0.0168421"
       smooth_angles="360"
       helper_size="0"
       simplify_individual_paths="false"
       simplify_just_coalesce="false" />
    <inkscape:path-effect
       effect="simplify"
       id="path-effect224205"
       is_visible="true"
       lpeversion="1"
       steps="1"
       threshold="0.0168421"
       smooth_angles="360"
       helper_size="0"
       simplify_individual_paths="false"
       simplify_just_coalesce="false" />
    <inkscape:path-effect
       effect="simplify"
       id="path-effect223075"
       is_visible="true"
       lpeversion="1"
       steps="1"
       threshold="0.0168421"
       smooth_angles="360"
       helper_size="0"
       simplify_individual_paths="false"
       simplify_just_coalesce="false" />
    <inkscape:path-effect
       effect="simplify"
       id="path-effect223075-7"
       is_visible="true"
       lpeversion="1"
       steps="1"
       threshold="0.0168421"
       smooth_angles="360"
       helper_size="0"
       simplify_individual_paths="false"
       simplify_just_coalesce="false" />
  </defs>
  <g
     inkscape:label="Layer 1"
     inkscape:groupmode="layer"
     id="layer1"
     transform="translate(47.861273,-97.82691)">
    <g
       id="g223734"
       inkscape:label="colors">
      <path
         id="path223073"
         style="fill:#e9ffe5;fill-opacity:1;stroke:none;stroke-width:0.2;stroke-linecap:round;stroke-linejoin:round;stroke-dasharray:none"
         d="m -30.965274,97.827505 c -0.946116,-0.02721 -1.53986,0.883784 -1.705839,1.728577 -0.979647,3.041698 -3.856689,5.102738 -5.328357,7.932328 -0.697218,1.48865 -1.006485,5.385 0.04237,6.88744 0.647575,1.00053 2.497376,0.92783 3.508313,1.36891 1.082799,0.42906 2.83686,-0.17419 3.877799,-0.73484 3.001443,-1.12574 5.70065,0.33546 8.78086,0.54364 1.892212,0.10108 3.945132,0.23552 5.560384,1.10122 0.833027,0.48331 2.292985,0.86867 2.754354,-0.29921 0.864807,-2.27073 1.174145,-4.7623 0.891418,-7.17475 -0.151972,-1.2781 -1.376312,-1.93935 -2.487703,-2.26085 -1.184853,-0.22409 -1.722429,-1.36255 -2.671672,-1.94975 -1.292626,-0.81901 -3.235347,-0.68332 -4.033862,-2.19108 -0.373839,-1.05167 -0.760835,-2.28867 -1.936833,-2.69544 -1.269727,-0.480962 -2.660162,-0.579109 -3.882967,-1.205613 -1.059842,-0.424963 -2.113189,-0.989627 -3.275769,-1.044897 -0.03125,-0.0029 -0.06198,-0.0048 -0.0925,-0.0057 z m -13.86737,18.815385 c -1.517252,0.0239 -3.00622,1.63046 -3.028239,3.19309 -0.03185,2.26039 1.896898,5.16154 2.925919,6.81302 1.15051,1.84645 4.535057,1.7389 4.693254,4.07159 0.113391,1.67201 1.510384,1.96495 2.903699,1.9265 1.211764,-0.0334 3.620449,1.24258 4.399214,2.25722 1.289458,1.68001 2.530242,1.85763 4.380095,1.07074 1.480618,-0.62982 1.9746,-1.01573 3.333646,-1.44694 1.700225,-0.53946 1.998852,-2.7085 3.29799,-3.82354 0.959015,-0.82311 1.227912,-2.26582 0.710034,-3.47214 -0.759603,-1.76938 -2.281034,-3.03553 -4.033862,-3.76825 -1.271828,-0.53165 -0.878354,-1.57983 -2.359029,-1.57199 -1.690148,0.009 -2.552831,-2.93922 -3.963066,-3.52175 -1.423439,-0.58799 -2.804992,2.91386 -4.443139,2.50062 -1.579348,-0.3984 -1.952818,0.20781 -3.460771,0.42736 -1.648513,0.24001 -2.132252,-1.68302 -1.959053,-2.82928 0.240993,-1.59493 -1.886403,-1.75186 -3.249931,-1.82366 -0.04895,-0.003 -0.09782,-0.003 -0.146761,-0.003 z" />
      <path
         id="path224203"
         style="fill:#d4ffcc;fill-opacity:1;stroke:none;stroke-width:0.2;stroke-linecap:round;stroke-linejoin:round;stroke-dasharray:none"
         d="m -30.431973,98.231098 c -0.09923,9.64e-4 -0.203148,0.0087 -0.311609,0.02429 -2.437055,0.0049 -3.379598,4.121022 -1.052132,5.043622 1.404016,0.54635 4.333965,-0.43649 3.68763,-2.28669 -0.355829,-1.232822 -0.835424,-2.795677 -2.323889,-2.78122 z m 4.714958,1.789042 c -0.970427,0.56649 -1.144522,2.03798 -1.844849,2.71921 -0.09347,1.69337 -2.788119,1.50049 -2.370915,3.58841 0.09973,1.53327 0.377936,3.05439 0.483692,4.59352 0.418881,1.32642 2.131196,2.21591 3.512447,1.9234 1.60664,0.0951 2.350677,-1.25414 3.047876,-2.37764 1.28782,-1.09238 0.02015,-2.48936 0.01705,-3.77548 -0.104236,-1.45788 1.196872,-2.88284 0.24908,-4.2788 -0.676645,-1.11173 -1.798971,-2.11949 -3.094384,-2.39262 z m -7.344255,3.55275 c -1.471695,0.30985 -2.012588,2.02644 -2.020548,3.35794 0.05642,1.98197 -2.417772,2.90322 -2.246892,4.8984 0.208937,1.67363 2.202914,1.50126 3.448369,1.55081 1.40008,0.10593 2.366597,-1.22041 2.333191,-2.52232 -0.328718,-1.48481 1.755713,-1.99974 1.178222,-3.46904 -0.5567,-1.19843 -0.170726,-2.93812 -1.701705,-3.48299 -0.31258,-0.15612 -0.646335,-0.2716 -0.990637,-0.3328 z m 13.285494,0.75654 c -1.64757,-0.004 -1.896671,1.93299 -1.790072,3.2179 0.0068,1.64358 -1.141342,3.71841 0.01395,5.12371 0.705844,1.00025 3.336857,-0.61906 2.345593,1.08263 -0.03943,1.8039 2.021942,1.70199 3.263884,1.44538 1.701123,0.0994 2.306577,-1.61337 1.981791,-3.02617 0.08214,-1.55461 1.019863,-3.30691 -0.376721,-4.6209 -1.341554,-0.75786 -2.883611,-1.17946 -3.77238,-2.62207 -0.39703,-0.39043 -0.94683,-0.6006 -1.502234,-0.59376 -0.05609,-0.004 -0.110666,-0.007 -0.163814,-0.007 z m -24.401611,13.15786 c -0.120696,-0.002 -0.252182,0.011 -0.395325,0.0398 -1.128791,0.0785 -2.849093,0.7569 -2.53783,2.16111 -0.191997,1.13501 -0.456617,2.73693 0.899687,3.25871 0.804529,-0.10394 1.864543,-0.0511 2.803963,0.0873 1.204296,-0.53821 0.959185,-2.13525 0.688847,-3.15123 -0.125284,-1.0251 -0.292619,-2.37956 -1.459342,-2.39572 z m 11.912968,2.19728 c -1.131127,0.014 -1.855114,1.16365 -1.740979,2.25619 0.0625,0.99945 -0.262604,2.20909 0.522965,2.99517 0.798991,0.46694 1.762804,-0.3272 2.386935,0.64647 0.949361,0.63018 2.364446,-0.27173 3.180167,0.77256 0.446344,1.02761 0.881597,2.22086 2.113566,2.54817 1.122396,0.58203 2.828969,0.2966 3.143478,-1.09658 0.112213,-1.31992 -0.792806,-2.58992 -1.841232,-3.32382 -1.180884,-0.78325 -2.457211,-1.41999 -3.81372,-1.8309 -1.109469,-0.45233 -1.210039,-1.83278 -2.081527,-2.50786 -0.482439,-0.31358 -1.068285,-0.44184 -1.638143,-0.44648 -0.0789,-0.01 -0.156102,-0.0139 -0.23151,-0.0129 z m -4.784721,1.79162 c -0.698074,0.36989 -1.334334,0.87807 -2.057239,1.18442 -0.581029,0.79516 -0.325315,2.21567 0.536918,2.58228 0.952001,0.0339 1.720562,0.64246 2.594674,0.91053 1.09889,0.36747 1.973239,-0.71342 1.391129,-1.68981 0.02729,-1.25283 -0.510205,-2.74142 -1.942,-2.91404 -0.171487,-0.0358 -0.348024,-0.0715 -0.523482,-0.0734 z m -4.430737,0.96842 c -0.0529,-7.8e-4 -0.106047,3.4e-4 -0.159164,0.003 -1.12834,-0.037 -1.648461,1.16169 -2.138371,1.98334 -0.427202,0.8905 -1.435403,2.31684 0.09663,2.72748 1.164913,0.60356 2.342002,0.16002 2.957959,-0.92242 1.303635,0.006 1.61803,-1.68261 0.709518,-2.44895 0.06993,-0.91869 -0.673124,-1.33092 -1.466577,-1.34255 z m 3.120739,2.97294 c -0.90908,0.093 -1.563946,0.90827 -2.015897,1.63453 -0.364667,0.8628 -0.551842,2.16631 0.423746,2.70526 0.992685,0.52806 2.087966,0.62326 3.026172,1.31775 0.758313,0.64456 1.720882,0.48118 2.613277,0.33073 0.845244,0.0415 1.989117,-0.22016 1.694987,-1.3348 -0.01083,-0.88467 0.170683,-1.85824 -0.486792,-2.58641 -0.543581,-0.96319 -1.748495,-0.83505 -2.687174,-0.84233 -0.984594,-0.11762 -1.561216,-1.18981 -2.568319,-1.22473 z m 7.455876,0.79995 c -1.109291,0.0444 -1.683768,1.37119 -1.081071,2.28307 0.16573,1.15241 -0.04152,2.37167 -0.638721,3.37809 -0.453586,0.92698 0.02784,2.12273 0.80977,2.71353 0.669811,0.57748 0.733636,-0.72077 1.564762,-0.3111 1.119918,0.38075 2.102479,-0.29043 2.71198,-1.18442 0.610252,-0.68912 1.929313,-0.85178 1.956469,-1.96629 -0.01287,-1.59078 -1.376749,-2.70156 -2.475818,-3.66024 -0.774327,-0.65617 -1.688137,-1.24462 -2.738334,-1.25264 -0.03687,-0.001 -0.07325,-0.001 -0.109037,0 z m -0.268718,8.55297 c -0.01902,0.002 -0.04466,0.006 -0.07803,0.0129 0.02643,0.0812 0.211158,-0.0243 0.07803,-0.0129 z" />
      <path
         id="path225776"
         style="fill:#bfffb3;fill-opacity:1;stroke:none;stroke-width:0.2;stroke-linecap:round;stroke-linejoin:round;stroke-dasharray:none"
         d="m -30.730146,98.284325 c -1.570619,0.01906 -1.534363,1.828215 -1.646928,2.962095 -0.299759,0.81362 0.319911,2.4413 1.242302,1.76268 0.430283,-0.37724 0.882294,-1.14229 0.235127,-1.50792 0.151876,-0.56658 -0.437904,-1.815345 0.712618,-1.33067 1.235816,0.47479 0.609728,1.87763 0.905371,2.69235 1.326577,0.337 1.183936,-1.01848 0.766879,-1.77457 -0.05303,-0.91489 0.233066,-2.319346 -1.026294,-2.518711 -0.389456,-0.117127 -0.774972,-0.287584 -1.189075,-0.285254 z m 4.733044,2.299605 c -1.013742,0.0196 -1.23205,1.1822 -1.811259,1.80454 -0.669626,0.89675 0.299128,1.6912 1.1436,1.22525 0.605001,-0.48291 1.604732,-1.12334 2.202449,-0.231 0.349954,0.64336 0.141757,2.78159 1.336353,1.84123 0.608079,-1.06724 -0.101449,-2.42823 -0.389124,-3.4494 -0.980991,-0.0929 -1.523617,-1.09351 -2.482019,-1.19062 z m -6.448185,2.98224 c -1.055208,0.19106 -2.116525,0.9958 -2.400887,2.07481 0.03671,1.123 0.04236,2.44167 -1.036629,3.13314 -0.838057,0.47352 -0.177941,1.61935 -0.883667,2.16473 -0.515478,0.67607 -0.422607,2.28605 0.609782,2.33009 1.586971,0.13379 0.02415,-1.83361 1.411283,-2.2071 1.120584,-0.79065 1.882154,0.76354 1.078487,1.58233 0.04637,1.29519 1.957273,0.15387 1.565279,-0.85059 -0.349383,-1.1314 -0.270506,-2.53067 -1.439188,-3.18482 -0.744462,-0.6333 0.636628,-1.36639 0.378271,-2.25516 0.759873,-1.21971 1.325733,0.51796 1.260389,1.24592 -0.347939,0.98413 0.843387,2.29862 1.408182,0.9865 0.07543,-0.82051 0.311053,-1.65184 0.223242,-2.47685 -0.409778,-0.72333 -1.403893,-1.09389 -1.46916,-2.06757 -0.0038,-0.37729 -0.397172,-0.48335 -0.705384,-0.47543 z m 6.190837,0.48524 c -0.02024,10e-5 -0.04093,10e-4 -0.06201,0.004 -0.955474,0.14416 -2.160322,-0.0937 -2.5585,1.06609 -0.927327,0.58124 -1.321657,1.96439 -0.626835,2.83393 0.841333,0.13333 1.110716,-1.11571 1.399914,-1.72237 0.929268,-0.38608 2.918593,0.0853 2.411739,-1.6397 -0.05393,-0.28839 -0.260671,-0.54301 -0.564306,-0.54157 z m 6.001184,0.0212 c -1.153613,0.0696 -0.637888,1.66864 -1.744596,1.8433 -0.110457,0.77552 0.141274,1.98799 0.862996,1.97766 -0.336627,0.19587 -0.59657,0.48836 -0.703833,0.894 0.31129,1.01734 -0.101066,2.07329 0.1788,3.0639 0.296235,0.95207 1.958655,1.28092 1.798857,-0.0811 0.07002,-0.73744 -0.744217,-2.20178 0.566374,-2.38745 0.735401,0.28776 1.305122,2.03218 2.199349,0.82269 0.675841,-0.55191 -0.800096,-2.03714 0.457336,-1.4857 1.18481,-0.0735 1.48159,1.77928 1.154452,2.04846 -0.571786,-0.47403 -1.341476,-0.97651 -1.885157,-0.15503 -0.917477,0.26882 -1.964974,0.81644 -1.69447,1.95595 -0.06994,0.90717 -0.531955,1.92079 0.542603,2.45515 1.143024,1.10624 1.548631,-0.7369 1.134814,-1.57975 -0.408406,-0.85986 1.353833,-2.30189 1.25367,-0.78135 -0.234407,0.81026 -0.441779,2.28064 0.744658,2.35955 1.179898,-0.62476 1.046392,-2.19101 0.783931,-3.29851 0.966038,0.14256 0.995846,-1.46188 1.187525,-2.28926 -0.05927,-1.04181 -1.109561,-1.58677 -1.65623,-2.36679 -0.544315,-0.81733 -1.815074,-0.0749 -2.06189,-0.8232 -0.841475,-0.26707 -0.144912,-1.47529 -1.190108,-1.63246 -0.60048,-0.30219 -1.245287,-0.55807 -1.929081,-0.54002 z m -4.104659,1.24644 c -0.802536,0.0215 -1.519757,0.4184 -1.979207,1.09295 -0.719644,0.7237 0.61691,1.4158 1.206644,0.92656 1.563665,-0.17371 1.680689,1.67614 1.212329,2.73679 0.807668,0.75818 1.837205,-0.52994 1.654163,-1.42162 -0.140511,-1.29807 -1.01941,-2.21924 -1.699121,-3.27267 l -0.113172,-0.0496 -0.119889,-0.0119 c -0.05421,-0.002 -0.108245,-0.002 -0.161747,-5.1e-4 z m 5.13457,1.48156 c 0.367913,-0.001 0.738472,0.16334 1.030945,0.51211 0.726341,0.0196 -0.01065,1.09171 -0.515731,0.47388 -0.517694,-0.21521 -1.222857,-0.27656 -1.83813,-0.12558 0.02917,-0.0208 0.05877,-0.0417 0.08888,-0.0656 0.292197,-0.51562 0.761003,-0.79288 1.234033,-0.79478 z m -7.719425,0.28887 c -0.944436,0.35956 -1.947718,0.88174 -2.114083,2.00195 -0.354603,0.88175 -0.942637,2.43614 0.214457,2.96106 0.711985,0.43942 1.648946,0.28411 1.380794,-0.74156 -0.836452,-0.48164 -0.650717,-1.6711 -0.103869,-2.23191 1.01455,-0.0203 1.673908,1.19685 1.353922,2.10324 -0.382846,1.1882 1.394017,1.21423 1.25057,0.0455 -0.07753,-0.99835 0.361514,-2.26422 -0.815454,-2.76986 -0.558733,-0.31073 -0.525271,-1.20653 -1.166337,-1.36839 z m -17.202051,10.61382 c -0.838429,0.3246 -1.768617,0.42355 -2.580721,0.82218 -1.049849,0.84865 -0.652641,2.62601 -0.106454,3.55999 0.718897,0.2477 1.295904,0.0956 1.084172,-0.74001 0.13987,-1.08931 1.803814,-1.89553 1.909961,-0.33176 -0.118271,0.89664 0.545984,2.21949 1.428853,1.11983 0.232438,-1.14498 -0.269482,-2.56361 -0.731221,-3.6897 -0.230293,-0.34116 -0.546688,-0.75281 -1.00459,-0.74053 z m 11.969295,1.79628 c -1.123691,0.2204 -0.811422,1.72517 -1.277958,2.53059 0.468842,1.06767 -1.190293,2.73762 0.572575,3.03083 1.220616,0.13383 0.868274,-1.3532 0.609782,-2.05104 -0.403512,-1.13124 1.257884,-1.83682 1.652095,-0.60513 0.788309,1.10167 1.272413,-0.65843 0.843876,-1.2914 -0.04745,-1.11305 -1.57381,-1.32896 -2.40037,-1.61385 z m -4.149617,2.46393 c -0.896656,0.0669 -2.037937,0.0393 -2.518193,0.96738 -0.298473,0.63282 -1.135421,2.03569 0.01447,2.21227 0.554882,0.0307 1.036319,-0.1746 0.994254,-0.3452 0.607272,-0.6956 1.572755,-1.40596 2.220536,-0.32711 0.141055,0.64261 1.360574,2.00798 1.432471,0.64027 -0.07641,-0.92351 -0.906528,-1.55774 -1.088822,-2.46083 -0.192522,-0.39429 -0.611407,-0.68369 -1.054716,-0.68678 z m -5.372282,0.5979 c -1.320633,-0.0231 -2.033286,1.26628 -2.363163,2.36884 -0.582462,0.90084 0.455325,2.94377 1.529105,2.10478 -0.151349,-0.67995 -0.191698,-1.7619 0.294039,-2.37814 0.881406,-0.42839 2.244783,1.44412 2.564701,0.0791 -0.18046,-0.91599 -0.78332,-2.08293 -1.832446,-2.16834 l -0.192236,-0.006 z m 13.394014,0.32142 c -1.048768,0.04 -2.123196,0.4687 -2.206067,1.65468 -0.774857,0.9091 0.597528,1.69109 1.110527,0.72864 0.776949,-1.12963 1.908123,0.27137 2.881478,-0.31626 0.851505,-0.65491 -0.871266,-1.46949 -1.328085,-1.9606 -0.141938,-0.0689 -0.299462,-0.10886 -0.457853,-0.10646 z m 2.88923,1.36891 c -1.055157,0.0534 -0.709448,1.53931 -1.415418,2.13217 -0.421184,0.42326 -1.219559,1.09537 -0.112655,1.28106 0.967439,0.031 2.409405,-0.89185 3.096452,0.21136 0.158167,1.15738 1.318105,0.55241 0.975135,-0.37517 0.352342,-1.14386 -0.435202,-2.631 -1.491899,-3.0639 -0.34717,-0.0771 -0.692691,-0.18532 -1.051615,-0.18552 z m -12.702067,1.42834 c -1.017441,0.28601 -2.349944,0.63292 -2.353345,1.93166 -0.310874,0.87634 -0.289958,2.15716 0.822689,2.43241 1.253797,0.20287 0.218587,-2.06234 1.210778,-2.58227 0.710809,-0.0545 2.274052,-0.53041 1.709457,-1.44022 -0.504594,0.0349 -0.90299,-0.31503 -1.389579,-0.34158 z m 8.092529,0.47542 c -0.732195,0.0328 -2.294711,-0.0754 -1.929598,1.08056 -0.211845,0.68087 -0.886931,2.46103 0.173116,2.48305 0.986616,-0.21806 0.638026,-2.08569 1.860868,-1.97042 0.931262,0.74023 2.186915,-0.72684 0.999939,-1.33119 -0.351923,-0.13604 -0.723379,-0.26161 -1.104325,-0.262 z m -5.599142,0.21446 c -1.187643,0.0124 -1.489178,1.24141 -1.851566,2.1456 -0.71017,0.78178 -0.879161,2.38788 0.515731,2.50786 0.735717,0.47519 1.68365,0.8703 1.437638,-0.36173 -0.843368,-0.95377 0.701248,-2.21833 1.304313,-0.98237 -0.08743,0.79038 0.811938,1.94709 1.277442,0.74259 0.08775,-0.99969 0.470576,-1.94834 -0.358635,-2.77141 -0.467136,-0.67843 -1.363897,-1.24286 -2.2071,-1.27796 -0.04019,-0.002 -0.07951,-0.003 -0.117823,-0.003 z m 8.403622,1.32188 c -0.815476,0.45716 -2.8516,0.44999 -2.191081,1.85622 0.832316,0.73325 2.415698,0.65101 2.710429,1.91461 -0.544233,1.22097 1.415055,1.41059 1.293461,0.21601 -0.866243,-0.89421 -0.0336,-2.23109 -0.658358,-3.15071 -0.444951,-0.20964 -0.761497,-0.61702 -1.154451,-0.83613 z m -4.018876,2.10375 c -1.287729,0.22099 -1.351169,1.70843 -1.413351,2.74454 -0.642782,1.03638 0.618917,1.65882 1.380795,1.83296 0.548073,-0.62929 -0.527711,-2.53508 0.650089,-2.73007 0.933414,0.0949 1.033568,2.3902 1.980758,1.56735 0.750941,-0.84753 0.0861,-1.76518 -0.1726,-2.64325 -0.213767,-1.11527 -1.652459,-0.35618 -2.425691,-0.77153 z" />
      <path
         id="path227052"
         style="fill:#93ff80;fill-opacity:1;stroke:none;stroke-width:0.2;stroke-linecap:round;stroke-linejoin:round;stroke-dasharray:none"
         d="m -29.579312,98.676032 c -0.780903,0.494071 -0.12278,1.753628 0.305408,2.392618 -0.333471,0.95095 0.995833,1.32341 1.106909,0.28991 -0.03874,-0.68926 -0.675954,-1.14065 -0.745691,-1.880509 -0.233129,-0.238271 -0.270856,-0.782768 -0.666626,-0.802019 z m -2.215369,0.859896 c -1.079005,0.596972 0.268727,1.567682 0.04909,2.384872 0.88807,0.28829 0.630937,-1.1029 0.196371,-1.44798 -0.05569,-0.28917 0.204124,-0.856517 -0.245464,-0.936892 z m 5.344894,1.408702 c -0.378551,0.3315 -0.219382,1.02611 -0.942061,1.01079 -1.320892,0.793 1.018923,1.26386 1.211295,0.42271 -0.06792,-0.47678 0.230474,-1.13383 -0.269234,-1.4335 z m 2.291333,0.40411 c -0.689697,0.39532 0.604761,1.27539 0.06821,1.96267 -0.221778,1.23246 1.532669,0.80828 0.777213,-0.19534 -0.381169,-0.50986 -0.04005,-1.59996 -0.845426,-1.76733 z m -2.093412,2.26291 c -0.624031,0.16787 -1.815657,0.0691 -1.748214,0.91881 -0.743912,-0.10857 -1.501835,0.0783 -1.398364,0.98598 -0.448934,0.51206 -0.469564,1.64961 0.500744,1.15859 0.785308,0.27251 0.621294,-1.24648 1.518254,-1.42627 0.150193,-0.44745 1.707039,-1.24191 1.12758,-1.63711 z m -6.531901,0.3762 c -0.888155,0.34971 0.160351,1.37119 0.144694,2.00195 0.723485,0.4225 1.419667,0.91885 1.031461,1.8743 -0.328515,0.94494 0.717489,1.51565 1.199927,0.58498 0.559696,-1.07301 0.06264,-2.04794 -0.564823,-2.91817 -0.398411,-0.66456 -1.068591,-1.3024 -1.811259,-1.54306 z m 12.575459,0.47594 c -0.591762,0.2824 -0.524468,1.12632 -1.134297,1.38648 -0.851513,0.53931 0.574287,1.83244 0.628385,0.8506 0.218244,-0.32794 1.15556,-0.33074 0.756543,-1.11311 0.227839,-0.40279 0.281594,-0.94006 -0.250631,-1.12397 z m -13.503568,0.38551 c -0.355376,0.44657 -1.09945,1.9953 -0.228927,1.97766 0.618554,-0.56526 1.465176,-1.28694 0.228927,-1.97766 z m 15.536519,1.17719 c -0.661425,0.21035 0.68432,0.75026 0.645439,1.2454 0.992989,0.61674 2.249358,1.0022 2.696476,2.24172 0.03002,0.55912 -0.628814,1.54375 0.313676,1.74253 0.536528,-1.01491 0.669913,-2.26918 0.100252,-3.30574 -0.635835,-0.80105 -1.689518,-1.1748 -2.678389,-1.29811 -0.391088,-0.15343 -0.621015,-0.62222 -1.077454,-0.6258 z m -5.61051,0.0966 c -0.714139,0.009 -0.767524,1.01097 0.0739,0.88367 0.31644,0.55179 -0.63969,1.16135 0.237195,1.55649 0.05011,0.49305 0.169699,1.71699 0.904854,1.14412 0.524199,-0.97063 -0.06532,-1.83049 -0.156062,-2.78278 -0.0976,-0.41214 -0.464013,-0.79427 -0.908472,-0.78961 -0.05341,-0.009 -0.103803,-0.0125 -0.151412,-0.0119 z m 3.840076,1.418 c -0.726678,0.0998 -0.586274,0.94359 0.129191,0.64338 0.884092,-0.007 1.428279,0.50788 1.353405,1.42161 0.51737,0.42167 1.521993,0.12284 0.886251,-0.6351 -0.0879,-0.926 -1.086241,-1.12 -1.819527,-1.31671 -0.188225,-0.0144 -0.363297,-0.0914 -0.54932,-0.11318 z m -6.220293,0.44339 c -1.316069,0.0523 0.191646,1.29291 -0.513146,1.91874 -0.299198,0.83035 0.812552,2.03059 1.409216,1.65882 -0.110644,-0.88726 0.303579,-1.77411 0.255281,-2.66496 -0.355428,-0.31074 -0.649531,-0.8579 -1.151351,-0.9126 z m -8.486303,0.21394 c -1.183301,0.24025 -0.951011,2.0178 0.320394,1.79472 1.515605,0.0151 0.207856,1.79047 1.296561,2.36988 0.596955,0.58385 1.468018,-0.10421 0.916223,-0.78083 -0.03591,-1.0296 -0.605576,-2.13943 -1.399914,-2.77916 -0.375355,-0.19917 -0.683484,-0.5798 -1.133264,-0.60461 z m 17.907434,2.04535 c -0.511345,-0.005 -0.933242,0.63214 -0.124024,0.54674 1.02581,-0.0974 1.334199,0.90591 1.076937,1.68258 0.338815,0.69843 0.540394,1.12404 0.301791,1.88258 0.381525,0.94375 0.770942,-0.80777 0.768945,-1.23869 0.477796,-1.09002 -0.628295,-1.75713 -1.18339,-2.50786 -0.186724,-0.21304 -0.447479,-0.36145 -0.736906,-0.35553 -0.03454,-0.006 -0.06926,-0.01 -0.103353,-0.01 z m -1.043347,0.66198 c 0.0057,0.97041 -1.579297,1.32758 -0.861446,2.32285 0.960051,0.61061 1.195915,-0.51566 1.00614,-1.21388 0.223121,-0.28209 0.156029,-0.81236 -0.144694,-1.10897 z m -18.608684,0.14469 c -0.68982,0.20916 -0.123506,1.2132 0.106454,1.58492 1.050338,0.38884 0.0087,-1.29352 -0.106454,-1.58492 z m 21.098454,0.79323 c 0.169252,0.3433 0.182012,0.6893 0.03204,0.13178 z m -28.967741,5.97587 c -0.989157,0.34592 0.155127,1.5543 0.02791,2.30063 0.455571,0.57487 0.333873,2.28992 1.18184,2.0345 0.697927,-0.77688 0.43931,-1.92735 -0.162264,-2.67425 -0.470975,-0.48671 -0.09788,-1.62513 -1.047482,-1.66088 z m -2.231388,0.92397 c -1.109024,0.2275 -0.09818,1.68404 -0.397909,2.42879 0.702244,0.80814 1.34673,-0.73871 0.697632,-1.26865 -0.04274,-0.35747 0.1465,-0.99818 -0.299723,-1.16014 z m 14.828552,0.98599 c -1.074839,0.31124 -0.253848,1.1472 0.464055,1.14825 0.881742,0.37116 0.185412,2.13959 1.383894,1.94562 0.391791,-0.69265 0.18467,-1.70518 -0.09302,-2.48357 -0.412316,-0.54772 -1.161231,-0.46074 -1.754932,-0.6103 z m -1.649512,0.74569 c -0.360825,0.79546 -0.218023,1.84833 -0.347782,2.74763 0.253429,1.1087 2.019819,-0.51873 1.253154,-1.25108 -0.113706,-0.53438 -0.300353,-1.33789 -0.905372,-1.49655 z m -3.641121,1.28416 c -1.094807,-0.005 -0.713308,1.56634 0.236161,1.59938 0.752253,0.45065 0.3679,1.93739 1.638143,1.80196 0.931593,0.41245 0.685981,-0.65032 0.340548,-1.10329 0.204058,-1.08812 -1.082776,-1.18884 -1.380278,-2.00763 -0.159564,-0.22687 -0.466218,-0.27821 -0.723986,-0.28474 -0.03842,-0.004 -0.07527,-0.006 -0.110588,-0.006 z m -1.564246,0.70745 c -0.01905,0.59951 -0.359567,1.40388 -0.316776,2.05724 1.229306,0.48767 0.94168,-1.26681 0.515731,-1.89446 -0.02223,-0.0815 -0.10857,-0.16628 -0.198955,-0.16278 z m -2.747119,0.18707 c -1.122145,-0.021 -1.264321,1.36474 -0.152962,1.67121 0.579881,0.25057 0.803131,1.98033 1.600936,1.28106 0.330867,-0.81433 0.24889,-1.74831 -0.624768,-2.10065 -0.29249,-0.27655 -0.16003,-0.90663 -0.711585,-0.84491 -0.03823,-0.004 -0.07542,-0.006 -0.111621,-0.007 z m 12.494328,0.30385 c -1.003259,0.43603 0.05568,1.04814 0.702283,0.94207 0.0036,0.53805 1.15346,1.86107 1.593184,0.80977 -0.208244,-1.0216 -1.318725,-1.57277 -2.295467,-1.75184 z m 4.097424,1.4118 c -0.497933,0.62976 0.682427,1.46077 0.713652,2.21331 -0.360678,0.83078 -0.135546,2.43762 1.073319,1.94716 0.402765,-0.72008 -0.60139,-1.19791 -0.09973,-1.93786 -8.51e-4,-0.93851 -0.329454,-1.89833 -1.365291,-2.12649 l -0.169499,-0.0677 z m -18.886185,0.25115 c -0.05777,0.38448 -0.274346,1.24553 0.135392,1.59319 0.894373,0.16514 0.271337,-1.26498 -0.135392,-1.59319 z m 4.953703,0.54571 c -0.907466,0.029 -0.611938,1.43883 0.336413,0.91622 0.470909,0.1756 0.545484,1.05753 1.346171,0.82062 0.709904,0.61905 0.66203,-0.54005 -0.0047,-0.66611 -0.203575,-0.71918 -0.76559,-0.97783 -1.480013,-1.0573 -0.07135,-0.0113 -0.137423,-0.0154 -0.19792,-0.0134 z m 12.086084,0.30695 c -0.569056,0.4304 0.221328,1.01184 0.08268,1.57562 1.076124,0.53107 0.282748,-0.97318 0.201538,-1.44643 l -0.187586,-0.10697 z m -2.756938,0.3204 c -0.697769,0.25467 -2.081858,0.0803 -2.191598,0.97565 0.615079,0.81781 1.752794,-0.52715 2.099097,0.31626 -0.325351,0.64659 1.418663,1.39197 1.118278,0.52296 -0.01266,-0.74838 -0.02068,-1.76798 -1.025777,-1.81487 z m -5.868376,0.76946 c -1.249872,0.31672 0.361246,1.11113 0.478524,1.72651 0.726896,0.55779 0.735187,1.3362 0.54777,2.13269 0.365708,1.30179 1.928636,-0.0108 1.319299,-0.94413 -0.122964,-0.94213 -0.484414,-2.0089 -1.128096,-2.67271 -0.388582,-0.1304 -0.810214,-0.19637 -1.217497,-0.24236 z m -4.889624,0.31936 c -0.754554,0.45046 -0.330276,1.57559 -0.230993,2.14974 1.008621,0.758 0.838633,-1.0856 0.378271,-1.53066 -0.03275,-0.19258 0.142547,-0.55468 -0.147278,-0.61908 z m 3.367753,0.41393 c -0.772051,0.52427 -0.377263,1.72083 -0.670243,2.52336 0.412138,1.39669 1.866987,-0.29534 0.999939,-1.06919 -0.148294,-0.44512 0.180876,-1.20073 -0.329696,-1.45417 z m 4.533574,0.42064 c -0.394317,0.36571 0.469906,0.316 0,0 z m 5.02915,0.0501 c -0.326475,0.715 0.812057,1.60564 0.504879,2.52594 -0.05448,0.78357 0.04389,2.02898 1.061951,2.05052 0.193654,-0.84775 0.05835,-1.80734 0.0093,-2.67477 -0.594674,-0.69588 -0.296716,-1.88994 -1.576131,-1.90169 z m -4.988326,0.25683 c -0.97886,0.70258 0.833356,1.85807 0.452169,0.61598 -0.02442,-0.29076 -0.227829,-0.46639 -0.452169,-0.61598 z m 2.557467,1.87792 c -1.208188,0.16643 0.179836,1.36745 0.483174,1.78336 -0.290545,0.62038 -0.476425,2.30465 0.578776,1.79265 0.509072,-0.74937 0.367629,-1.7119 0.168982,-2.53938 -0.37434,-0.34253 -0.671078,-1.02438 -1.230932,-1.03663 z m -2.24069,0.97462 c -0.241243,0.66821 -1.199589,2.22908 0.258382,2.02675 0.18367,-0.6837 -0.0053,-1.3949 -0.258382,-2.02675 z" />
      <path
         id="path229317"
         style="fill:#fffbcc;fill-opacity:1;stroke:none;stroke-width:0.2;stroke-linecap:round;stroke-linejoin:round;stroke-dasharray:none"
         d="m -30.317768,102.22207 c -0.221501,9e-5 -0.511448,0.0842 -0.552938,0.33383 -0.06944,0.41772 0.0139,0.85021 0.09043,1.26762 0.03901,0.21279 0.09072,0.47572 0.297139,0.5917 0.178876,0.1005 0.354707,-0.11911 0.471289,-0.25012 l 0.02429,-0.032 0.02222,-0.0336 c 0.167975,-0.32289 0.08826,-0.69759 0.102836,-1.04593 0.0069,-0.16462 0.04691,-0.32314 0.05271,-0.48524 0.0088,-0.24329 -0.295692,-0.34632 -0.507979,-0.34623 z m -2.25671,5.7149 c -0.05804,6.4e-4 -0.116566,0.0121 -0.173633,0.0362 -0.165321,0.0698 -0.298348,0.32907 -0.201538,0.48524 0.235003,0.37908 0.151233,0.82863 0.269234,1.23248 0.06402,0.2191 0.285724,0.34269 0.502295,0.34469 0.02441,-0.0325 0.04737,-0.066 0.06925,-0.10026 0.223768,-0.35056 0.204495,-0.77567 0.186035,-1.17047 -0.0077,-0.1641 0.03683,-0.34141 -0.0677,-0.48627 -0.132639,-0.1838 -0.356263,-0.34412 -0.583944,-0.34158 z m 7.915796,0.92449 c -0.290602,0.009 -0.291804,0.37757 -0.180351,0.56637 0.271107,0.45918 -0.07023,1.03002 0.0098,1.54254 0.03815,0.24425 0.247102,0.42499 0.486275,0.44649 0.347487,-0.32094 0.384099,-0.8196 0.327629,-1.26039 -0.02393,-0.18676 -0.09497,-0.3841 -0.04289,-0.56482 0.107675,-0.3737 -0.23895,-0.74089 -0.60048,-0.73019 z m -2.076876,2.10788 c -0.04559,0.002 -0.09248,0.0292 -0.137459,0.0904 -0.22434,0.30541 -0.318994,0.66736 -0.392224,1.02578 -0.07387,0.36154 -0.21174,0.74146 -0.106454,1.11001 0.06806,0.23823 0.354405,0.29738 0.571025,0.26148 v 5.2e-4 c 0.06588,-0.007 0.131407,0.003 0.196887,0.009 0.250795,0.0228 0.284587,-0.25406 0.283187,-0.42994 -0.0045,-0.58719 -0.07329,-1.1728 -0.155029,-1.75287 -0.02016,-0.14305 -0.1339,-0.32099 -0.259933,-0.31419 z m 7.269324,0.4222 c -0.04585,2.7e-4 -0.09036,0.0116 -0.130741,0.0372 -0.236139,0.14971 -0.165562,0.51993 -0.08113,0.76068 0.171092,0.48788 -0.18573,0.97271 -0.20774,1.46761 -0.01075,0.24175 0.137722,0.4693 0.371554,0.5271 0.194453,-0.0165 0.294041,-0.26245 0.432015,-0.35915 0.598697,-0.41943 0.125382,-1.43934 -0.01292,-2.13837 -0.03045,-0.15389 -0.207303,-0.29606 -0.371038,-0.29507 z m -15.206824,0.50694 c -0.186907,0.004 -0.279033,0.24574 -0.274402,0.41755 0.01324,0.49137 -0.215382,0.97115 -0.136942,1.46451 0.03889,0.24459 0.261545,0.41579 0.500744,0.42839 0.100064,0.0144 0.207484,-0.021 0.267684,-0.10542 0.171956,-0.24098 0.1332,-0.56142 0.15503,-0.84439 0.01506,-0.19525 0.04762,-0.38252 0.09767,-0.56844 0.08785,-0.32632 -0.20888,-0.69068 -0.536401,-0.78238 -0.02581,-0.007 -0.05043,-0.0103 -0.07338,-0.01 z m 17.968929,1.86345 c -0.06641,-4.4e-4 -0.131932,0.0276 -0.185001,0.093 -0.146466,0.18054 -0.120839,0.39908 -0.169499,0.60151 -0.11232,0.46723 -0.199144,0.97445 -0.05271,1.44694 0.07837,0.25288 0.347178,0.39666 0.600997,0.35606 0.06502,-0.0727 0.117872,-0.15695 0.152962,-0.24805 0.171876,-0.44644 -0.05235,-0.9156 -0.05995,-1.37253 -0.0035,-0.21315 0.08977,-0.41763 0.01912,-0.6258 -0.0494,-0.14559 -0.179144,-0.2503 -0.305925,-0.25115 z m -28.19001,7.91683 c -0.779284,0.32855 -0.324116,1.51052 -0.385507,2.21434 0.711739,0.84964 0.662932,-0.76857 0.752926,-1.22835 -0.188077,-0.28452 0.03452,-0.8873 -0.367419,-0.98599 z m 13.277742,1.54926 c -0.431842,0.73108 -0.3702,1.83736 -0.346232,2.64739 0.946859,0.73969 1.016514,-0.7705 0.899687,-1.42472 -0.006,-0.44441 -0.02954,-1.08005 -0.553455,-1.22267 z m -9.8795,2.77554 c -0.48954,0.002 -0.545264,0.61167 -0.36897,1.1095 0.06552,0.50682 -0.278743,1.71548 0.605648,1.32395 0.374967,-0.72202 0.217182,-1.73654 -0.132809,-2.4257 -0.03655,-0.005 -0.07123,-0.008 -0.103869,-0.008 z m 16.541109,2.01538 c -0.474587,0.45269 -0.692593,1.31063 -0.670243,1.988 0.208634,0.76149 1.090181,0.49071 0.801501,-0.29663 -0.07715,-0.47738 0.554869,-1.50846 -0.131258,-1.69137 z m -13.169222,0.47904 c -0.65741,0.53755 -1.105909,2.01998 -0.278019,2.63189 0.834443,0.24995 0.346398,-1.21448 0.641821,-1.70119 0.05726,-0.28076 -0.03245,-0.86797 -0.363802,-0.9307 z m 3.168799,1.45366 c -0.941991,0.35581 -0.0654,1.59931 -0.474907,2.31924 0.230976,0.93002 1.168334,0.22501 0.943612,-0.47697 -0.03151,-0.57135 0.271036,-1.62617 -0.468705,-1.84227 z m 7.034713,1.21595 c -0.421776,0.57094 -0.05998,1.49416 -0.178801,2.2226 0.62978,0.93772 1.272739,-0.87783 0.971,-1.44952 -0.11473,-0.3526 -0.50537,-0.57781 -0.792199,-0.77308 z m -2.282032,1.942 c -0.638743,0.54052 -0.598779,1.49679 -0.568957,2.2872 0.410212,1.15046 1.065942,-0.38261 0.869197,-0.97927 0.104034,-0.35849 0.196101,-1.22724 -0.30024,-1.30793 z" />
      <path
         id="path229702"
         style="fill:#fff2b3;fill-opacity:1;stroke:none;stroke-width:0.2;stroke-linecap:round;stroke-linejoin:round;stroke-dasharray:none"
         d="m -30.529125,102.28873 c -0.145931,0.41167 -0.373243,1.47798 0.290486,1.58011 0.438684,-0.21453 0.400798,-1.34675 -0.110632,-1.49365 l -0.151452,-0.0787 -0.02842,-0.008 z m -1.932181,5.88181 c -0.562372,0.21321 -0.02896,1.04518 -0.04525,1.47722 0.56854,0.42002 0.386759,-1.40244 0.04525,-1.47722 z m 7.83363,0.91984 c -0.284226,0.35886 0.121566,1.09909 0.05481,1.58112 0.733056,0.24938 0.545448,-1.29412 0.08772,-1.52717 l -0.07025,-0.0393 -0.07226,-0.0147 z m -2.226221,1.78749 c -0.255855,0.4674 -0.533703,1.7613 0.226331,2.00091 -0.0053,-0.61082 0.285789,-1.28555 -0.08888,-1.87327 -2.35e-4,-0.0703 -0.06289,-0.13427 -0.137451,-0.12764 z m 7.455359,0.86713 c -0.463877,0.47203 0.499955,1.30844 -0.23783,1.73945 0.288249,0.57544 0.964715,-0.52266 0.601115,-0.91421 -0.01101,-0.26156 -0.09063,-0.71955 -0.363285,-0.82524 z m -15.092619,0.47904 c -0.450718,0.29602 -0.773755,1.64423 0.08836,1.71097 -0.08371,-0.54486 0.279316,-1.3254 -0.08837,-1.71097 z m 17.791162,1.7601 c -0.285282,0.38713 -0.483144,1.27917 -0.09385,1.63796 0.46985,-0.01 0.19182,-0.9961 0.255576,-1.38427 -0.04575,-0.0665 -0.03768,-0.24838 -0.161724,-0.25369 z" />
      <path
         id="path233705"
         style="fill:#fff2b3;fill-opacity:1;stroke:none;stroke-width:0.2;stroke-linecap:round;stroke-linejoin:round;stroke-dasharray:none"
         d="m -44.921528,121.97332 c -0.326017,0.29631 -0.449668,1.40761 -0.07492,1.55493 0.386459,-0.26332 0.2623,-1.23149 0.07492,-1.55493 z m 13.374378,1.65416 c -0.28851,0.3544 -0.277835,2.01977 0.400332,1.36589 -0.06002,-0.42225 0.1073,-1.18543 -0.400332,-1.36589 z m -10.131165,2.64015 c -0.224141,0.39836 -0.03579,1.53432 0.460022,1.49421 -0.05288,-0.43704 0.0089,-1.29872 -0.460022,-1.49421 z m 16.806209,1.80247 c -0.272783,0.32077 -0.968609,1.57789 -0.05839,1.33845 0.154031,-0.41775 0.164678,-0.92378 0.05839,-1.33845 z m -13.261722,0.63717 c -0.450288,0.40225 -0.844488,1.49307 0.05839,1.62212 -0.199987,-0.51557 0.359828,-1.1545 -0.05839,-1.62212 z m 3.081465,1.50999 c -0.364921,0.30437 0.04337,1.13025 -0.103518,1.59376 0.891243,0.63607 0.644136,-1.3844 0.103525,-1.59377 z m 7.163387,1.10691 c -0.406413,0.41011 0.417025,2.09342 0.638201,1.03265 -0.187404,-0.35926 -0.189714,-0.86093 -0.638201,-1.03265 z m -2.181779,1.90479 c -0.390952,0.29478 -0.859156,1.63036 0.01602,1.51419 0.04219,-0.4618 0.03026,-1.0502 -0.01602,-1.51419 z" />
    </g>
    <g
       id="g215757"
       inkscape:label="lines">
      <path
         style="fill:none;stroke:#000000;stroke-width:0.1;stroke-linecap:round;stroke-linejoin:round;stroke-dasharray:none"
         d="m -16.734345,115.90569 c -0.09841,-0.59121 -0.08745,-1.1717 0.06982,-1.62897"
         id="path32427"
         sodipodi:nodetypes="cc" />
      <path
         style="fill:none;stroke:#000000;stroke-width:0.1;stroke-linecap:round;stroke-linejoin:round;stroke-dasharray:none"
         d="m -17.602495,114.51551 c -0.07051,-0.005 -0.484735,-0.0257 -0.662782,-0.16705 -0.204683,-0.16253 -0.346304,-0.43505 -0.356489,-0.69605 -0.0088,-0.22739 0.08051,-0.49482 0.26239,-0.62926 0.08912,-0.0659 0.265167,0.0596 0.329954,-0.0306 0.213125,-0.29707 -0.33163,-0.71666 -0.243693,-1.07258 0.07214,-0.29194 0.331279,-0.52539 0.585797,-0.68196 0.129936,-0.08 0.313989,-0.0282 0.443594,-0.10869 0.17954,-0.11147 0.20951,-0.42103 0.41031,-0.48573 0.291879,-0.0939 0.627568,0.0691 0.89131,0.22668 0.343371,0.20495 0.599042,0.54591 0.815462,0.88417 0.134287,0.20991 0.302825,0.44188 0.287254,0.69126 -0.0094,0.1519 -0.199845,0.24565 -0.225979,0.39556 -0.06051,0.34712 0.240171,0.69375 0.18208,1.0413 -0.04067,0.24325 -0.152681,0.51131 -0.357251,0.64621 -0.174303,0.11491 -0.621719,0.0601 -0.621719,0.0601"
         id="path32492"
         sodipodi:nodetypes="caaaaaaaaaaaaaac" />
      <path
         style="fill:none;stroke:#000000;stroke-width:0.1;stroke-linecap:round;stroke-linejoin:round;stroke-dasharray:none"
         d="m -20.311601,112.14387 c 0,0 -0.637884,-0.0981 -0.850007,-0.31291 -0.178191,-0.18049 -0.312584,-0.47064 -0.253704,-0.71734 0.0632,-0.26483 0.553381,-0.29437 0.590768,-0.56406 0.0525,-0.37867 -0.599419,-0.60584 -0.582756,-0.98777 0.02249,-0.51553 0.480794,-0.95851 0.899761,-1.25976 0.398676,-0.28666 0.923689,-0.50496 1.408964,-0.42996 0.483767,0.0748 0.966661,0.40771 1.20966,0.83264 0.171278,0.29953 -0.09168,0.72952 0.07341,1.0325 0.05894,0.10816 0.256895,0.10488 0.295532,0.22185 0.03225,0.0976 -0.08782,0.29567 -0.08782,0.29567"
         id="path32547"
         sodipodi:nodetypes="caaaaaaaaac" />
      <path
         style="fill:none;stroke:#000000;stroke-width:0.1;stroke-linecap:round;stroke-linejoin:round;stroke-dasharray:none"
         d="m -19.375973,111.95588 c 0.112863,0.43098 0.02192,1.13858 0.0072,1.7427"
         id="path32549"
         sodipodi:nodetypes="cc" />
      <path
         style="fill:none;stroke:#000000;stroke-width:0.1;stroke-linecap:round;stroke-linejoin:round;stroke-dasharray:none"
         d="m -17.363615,107.84934 c 0,0 0.429661,-0.62754 0.767923,-0.72521 0.281834,-0.0813 0.596589,0.0483 0.86343,0.17019 0.603366,0.27553 1.283621,0.62482 1.5694,1.22339 0.231532,0.48496 0.294575,1.18264 -0.02871,1.61192 -0.08722,0.11582 -0.358274,-0.006 -0.415835,0.12757 -0.08511,0.19677 0.327406,0.3674 0.283583,0.57726 -0.02838,0.13592 -0.317942,0.26912 -0.317942,0.26912"
         id="path32551"
         sodipodi:nodetypes="caaaaaac" />
      <path
         style="fill:none;stroke:#000000;stroke-width:0.1;stroke-linecap:round;stroke-linejoin:round;stroke-dasharray:none"
         d="m -20.918323,107.45852 c -0.214308,-0.35431 -0.449188,-0.78248 -0.281746,-1.20351 0.108674,-0.28886 0.435319,-0.31752 0.699059,-0.32848 0.252482,0.0181 0.452101,-0.29124 0.202395,-0.45305 -0.196521,-0.11079 -0.404485,-0.38832 -0.147213,-0.55799 0.394995,-0.21848 0.869523,-0.14226 1.298664,-0.0959 0.363636,0.0593 0.766204,0.20929 0.947172,0.55224 0.07169,0.2587 -0.354267,0.42471 -0.176858,0.67615 0.220284,0.27048 0.687048,0.21959 0.829287,0.57457 0.04388,0.11744 0.08008,0.23749 0.105795,0.36028"
         id="path35260"
         sodipodi:nodetypes="caaaaaaaac" />
      <path
         style="fill:none;stroke:#000000;stroke-width:0.1;stroke-linecap:round;stroke-linejoin:round;stroke-dasharray:none"
         d="m -26.849103,113.10081 c -0.01708,-0.56346 -0.0028,-1.18829 0.130094,-1.63846"
         id="path35264"
         sodipodi:nodetypes="cc" />
      <path
         style="fill:none;stroke:#000000;stroke-width:0.1;stroke-linecap:round;stroke-linejoin:round;stroke-dasharray:none"
         d="m -27.662174,111.95917 c -0.361864,-0.17151 -0.803231,-0.27599 -1.069,-0.58269 -0.208938,-0.24112 -0.368318,-0.57985 -0.333859,-0.89703 0.03182,-0.29293 0.41886,-0.45446 0.479041,-0.7429 0.05612,-0.269 -0.208259,-0.54954 -0.132432,-0.81367 0.122225,-0.42574 0.460604,-0.84669 0.876683,-0.99858 0.43657,-0.15937 0.981529,-0.0329 1.378543,0.20871 0.414496,0.25224 0.692799,0.72083 0.854858,1.17819 0.0941,0.26557 0.0094,0.56457 0.04511,0.84404 0.05211,0.40779 0.40987,0.83152 0.245966,1.20854 -0.107705,0.24774 -0.690984,0.42348 -0.690984,0.42348"
         id="path35266"
         sodipodi:nodetypes="caaaaaaaaac" />
      <path
         style="fill:none;stroke:#000000;stroke-width:0.1;stroke-linecap:round;stroke-linejoin:round;stroke-dasharray:none"
         d="m -25.997539,107.06323 c 0,0 0.291404,-0.45551 0.490439,-0.6336 0.340541,-0.3047 0.719839,-0.7906 1.170318,-0.71391 0.468157,0.0797 0.589799,0.74494 0.902243,1.10257 0.216848,0.24821 0.610645,0.39986 0.67422,0.72327 0.06952,0.35368 -0.340521,0.65329 -0.383061,1.01122 -0.03487,0.2934 0.239465,0.61337 0.110962,0.87944 -0.09924,0.20547 -0.585231,0.35512 -0.585231,0.35512"
         id="path35268"
         sodipodi:nodetypes="caaaaaac" />
      <path
         style="fill:none;stroke:#000000;stroke-width:0.1;stroke-linecap:round;stroke-linejoin:round;stroke-dasharray:none"
         d="m -24.593602,109.40536 c 0.135076,0.54014 0.19712,1.10595 0.12451,1.71909"
         id="path35274"
         sodipodi:nodetypes="cc" />
      <path
         style="fill:none;stroke:#000000;stroke-width:0.1;stroke-linecap:round;stroke-linejoin:round;stroke-dasharray:none"
         d="m -29.378306,107.75078 c 0,0 -0.297203,-0.86388 -0.17272,-1.27393 0.09084,-0.29924 0.489815,-0.41909 0.621578,-0.70269 0.121136,-0.26073 -0.07067,-0.64288 0.125169,-0.85335 0.475046,-0.51055 1.472925,-0.85377 2.042754,-0.45175 0.159525,0.11254 -0.01535,0.40688 0.07263,0.58116 0.09977,0.19764 0.481337,0.45763 0.481337,0.45763"
         id="path35276"
         sodipodi:nodetypes="caaaaac" />
      <path
         style="fill:none;stroke:#000000;stroke-width:0.1;stroke-linecap:round;stroke-linejoin:round;stroke-dasharray:none"
         d="m -27.361428,103.35235 c 0,0 -0.106812,-0.5284 0.0086,-0.7503 0.142756,-0.27446 0.550937,-0.30793 0.753737,-0.54156 0.19283,-0.22215 0.141453,-0.65983 0.409065,-0.78196 0.703996,-0.32129 1.701599,-0.002 2.259067,0.53495 0.222789,0.21449 0.143386,0.60299 0.247861,0.89407 0.143949,0.40106 0.275262,0.7813 0.51981,1.16788 0.283264,0.44779 -0.377095,1.24518 -0.401376,1.24539"
         id="path35278"
         sodipodi:nodetypes="caaaaasc" />
      <path
         style="fill:none;stroke:#000000;stroke-width:0.1;stroke-linecap:round;stroke-linejoin:round;stroke-dasharray:none"
         d="m -30.314505,104.06938 c 0.0177,-0.53814 0.02602,-1.11318 -0.0603,-1.59991"
         id="path37998"
         sodipodi:nodetypes="cc" />
      <path
         style="fill:none;stroke:#000000;stroke-width:0.1;stroke-linecap:round;stroke-linejoin:round;stroke-dasharray:none"
         d="m -31.306039,102.91346 c -0.358789,-0.11548 -0.768737,-0.22852 -0.990995,-0.55739 -0.140458,-0.33649 0.297777,-0.59349 0.197855,-0.9315 -0.05855,-0.26941 -0.354866,-0.47527 -0.263706,-0.77439 0.135976,-0.34503 0.605771,-0.40061 0.735309,-0.754258 0.10697,-0.30914 -0.08249,-0.68713 0.157157,-0.95491 0.350166,-0.39567 0.92986,-0.66594 1.453633,-0.48145 0.380453,0.17415 0.601399,0.56974 0.720386,0.95282 0.04168,0.2951 -0.151082,0.618708 0.0357,0.889938 0.192398,0.3385 0.613567,0.53727 0.670602,0.95092 1.39e-4,0.51966 -0.386779,0.9174 -0.602284,1.35882 l -0.01055,0.048 3.96e-4,0.0493"
         id="path38000"
         sodipodi:nodetypes="caaaaaaaaac" />
      <path
         style="fill:none;stroke:#000000;stroke-width:0.1;stroke-linecap:round;stroke-linejoin:round;stroke-dasharray:none"
         d="m -26.169723,113.21556 h 1.836936"
         id="path43312"
         sodipodi:nodetypes="cc" />
      <path
         style="fill:none;stroke:#000000;stroke-width:0.1;stroke-linecap:round;stroke-linejoin:round;stroke-dasharray:none"
         d="m -23.645309,111.20398 h 1.204525"
         id="path43314" />
      <path
         style="fill:none;stroke:#000000;stroke-width:0.1;stroke-linecap:round;stroke-linejoin:round;stroke-dasharray:none"
         d="m -15.884753,115.98504 h 1.6306"
         id="path43316" />
      <path
         style="fill:none;stroke:#000000;stroke-width:0.1;stroke-linecap:round;stroke-linejoin:round;stroke-dasharray:none"
         d="m -29.601686,104.08504 h 0.676084"
         id="path43318"
         sodipodi:nodetypes="cc" />
      <path
         style="fill:none;stroke:#000000;stroke-width:0.1;stroke-linecap:round;stroke-linejoin:round;stroke-dasharray:none"
         d="m -34.757083,108.17565 c -0.06473,-0.25844 0.334861,-0.62772 0.383489,-0.9729 0.03817,-0.27098 -0.182815,-0.56429 -0.07833,-0.81721 0.110343,-0.2671 0.496803,-0.31998 0.667712,-0.55302 0.175668,-0.23953 0.132586,-0.60883 0.335897,-0.82539 0.261865,-0.27893 0.660719,-0.5839 1.033717,-0.4988 0.49482,0.11288 0.628915,0.79689 0.948749,1.19102 0.116573,0.14365 0.307002,0.24873 0.353609,0.42777 0.06969,0.2677 -0.206797,0.54559 -0.149746,0.81627 0.08331,0.39531 0.727502,0.60103 0.681196,1.00237 -0.03818,0.33086 -0.735011,0.67671 -0.735011,0.67671"
         id="path51301"
         sodipodi:nodetypes="caaaaaaaaac" />
      <path
         style="fill:none;stroke:#000000;stroke-width:0.1;stroke-linecap:round;stroke-linejoin:round;stroke-dasharray:none"
         d="m -35.78282,112.82139 c 0,0 -0.784404,-0.67704 -0.788371,-1.13868 -0.0023,-0.27163 0.389952,-0.41349 0.452303,-0.67788 0.05819,-0.24676 -0.232228,-0.54147 -0.09497,-0.75463 0.124724,-0.19369 0.492358,-0.0471 0.659967,-0.20517 0.142842,-0.1347 0.09913,-0.38754 0.207545,-0.55123 0.133396,-0.2014 0.30053,-0.41009 0.524852,-0.49974 0.33416,-0.13354 0.765564,-0.17522 1.079566,5.6e-4 0.352081,0.1971 0.517208,0.64515 0.633363,1.03156 0.04943,0.16445 -0.04514,0.35486 0.01719,0.51487 0.08636,0.22167 0.419402,0.30793 0.464993,0.54141 0.04192,0.2147 -0.241846,0.40587 -0.208881,0.62212 0.02543,0.16682 0.315513,0.2424 0.296797,0.4101 -0.04431,0.39706 -1.029471,0.73965 -0.899485,0.79216"
         id="path51303"
         sodipodi:nodetypes="caaaaaaaaaaaac" />
      <path
         style="fill:none;stroke:#000000;stroke-width:0.1;stroke-linecap:round;stroke-linejoin:round;stroke-dasharray:none"
         d="m -32.487224,108.35914 c 0,0 0.159743,0.44522 0.11631,1.45193"
         id="path51305"
         sodipodi:nodetypes="cc" />
      <path
         style="fill:none;stroke:#000000;stroke-width:0.1;stroke-linecap:round;stroke-linejoin:round;stroke-dasharray:none"
         d="m -31.501939,109.88489 h 1.599579"
         id="path51307" />
      <path
         style="fill:none;stroke:#000000;stroke-width:0.1;stroke-linecap:round;stroke-linejoin:round;stroke-dasharray:none"
         d="m -34.490504,112.43523 c -0.163963,0.61822 -0.161597,0.85312 -0.12602,1.49005"
         id="path51309"
         sodipodi:nodetypes="cc" />
      <path
         style="fill:none;stroke:#000000;stroke-width:0.1;stroke-linecap:round;stroke-linejoin:round;stroke-dasharray:none"
         d="m -33.648849,113.9614 h 1.771066"
         id="path51311"
         sodipodi:nodetypes="cc" />
      <path
         style="fill:none;stroke:#000000;stroke-width:0.1;stroke-linecap:round;stroke-linejoin:round;stroke-dasharray:none"
         d="m -30.295117,135.41056 c -0.01105,-0.65538 -0.1083,-1.4361 0.104441,-1.80839"
         id="path61977"
         sodipodi:nodetypes="cc" />
      <path
         style="fill:none;stroke:#000000;stroke-width:0.1;stroke-linecap:round;stroke-linejoin:round;stroke-dasharray:none"
         d="m -31.240217,134.00319 c 0,0 -0.349469,-0.0141 -0.498277,-0.0944 -0.237958,-0.12825 -0.57206,-0.31242 -0.564106,-0.58262 0.0055,-0.18799 0.370552,-0.1988 0.415624,-0.38156 0.07205,-0.29216 -0.364691,-0.55508 -0.304398,-0.84989 0.05008,-0.24487 0.427135,-0.31404 0.509647,-0.54996 0.09959,-0.28477 -0.220386,-0.64256 -0.06735,-0.90253 0.266025,-0.45192 0.904153,-0.65295 1.428521,-0.65902 0.503076,-0.006 1.168071,0.14629 1.384806,0.60033 0.0986,0.20656 -0.2215,0.43584 -0.183819,0.66161 0.07131,0.42726 0.725116,0.6382 0.735646,1.07124 0.0079,0.32557 -0.449329,0.51197 -0.513262,0.83129 -0.04211,0.21033 0.203342,0.44686 0.101199,0.63547 -0.117345,0.21668 -0.473536,0.26511 -0.674934,0.30157"
         id="path61979"
         sodipodi:nodetypes="caaaaaaaaaaaac" />
      <path
         style="fill:none;stroke:#000000;stroke-width:0.1;stroke-linecap:round;stroke-linejoin:round;stroke-dasharray:none"
         d="m -29.556869,135.45985 h 0.484515"
         id="path67317" />
      <path
         style="fill:none;stroke:#000000;stroke-width:0.1;stroke-linecap:round;stroke-linejoin:round;stroke-dasharray:none"
         d="m -29.018057,129.50732 c 0,0 -0.12711,-0.35454 -0.04265,-0.49825 0.174655,-0.29717 0.63034,-0.27926 0.943067,-0.42424 0.360632,-0.16719 0.684473,-0.5818 1.076121,-0.51384 0.511764,0.0888 0.934699,0.61278 1.09773,1.10594 0.111108,0.3361 -0.195551,0.69987 -0.151478,1.0511 0.04597,0.36638 0.425546,0.65414 0.424004,1.02339 -0.0012,0.28349 -0.118571,0.59648 -0.332089,0.78297 -0.18608,0.16253 -0.715084,0.19501 -0.715084,0.19501"
         id="path69988"
         sodipodi:nodetypes="caaaaaaac" />
      <path
         style="fill:none;stroke:#000000;stroke-width:0.1;stroke-linecap:round;stroke-linejoin:round;stroke-dasharray:none"
         d="m -27.7698,131.69827 c 0.232131,0.26816 0.198912,0.91036 0.14971,1.50386"
         id="path69990"
         sodipodi:nodetypes="cc" />
      <path
         style="fill:none;stroke:#000000;stroke-width:0.1;stroke-linecap:round;stroke-linejoin:round;stroke-dasharray:none"
         d="m -26.904349,133.2765 h 1.155331"
         id="path69992"
         sodipodi:nodetypes="cc" />
      <path
         style="fill:none;stroke:#000000;stroke-width:0.1;stroke-linecap:round;stroke-linejoin:round;stroke-dasharray:none"
         d="m -31.540311,129.54708 c 0,0 -0.478395,-0.48516 -0.466716,-0.7911 0.01333,-0.34903 0.525169,-0.51804 0.599696,-0.85928 0.05381,-0.24642 -0.224245,-0.50869 -0.134925,-0.74457 0.167912,-0.44344 0.655024,-0.77434 1.117119,-0.88064 0.558309,-0.12844 1.313062,-0.0736 1.678978,0.36726 0.171382,0.20645 -0.111104,0.57296 0.02432,0.80459 0.07245,0.12395 0.368772,0.22254 0.368772,0.22254"
         id="path72666"
         sodipodi:nodetypes="caaaaaac" />
      <path
         style="fill:none;stroke:#000000;stroke-width:0.1;stroke-linecap:round;stroke-linejoin:round;stroke-dasharray:none"
         d="m -25.143051,130.12417 c 0,0 -0.03069,-0.6124 0.007,-0.91511 0.0327,-0.26268 0.188827,-0.77136 0.188827,-0.77136"
         id="path78014"
         sodipodi:nodetypes="cac" />
      <path
         style="fill:none;stroke:#000000;stroke-width:0.1;stroke-linecap:round;stroke-linejoin:round;stroke-dasharray:none"
         d="m -24.305863,130.15465 h 1.586721"
         id="path78016" />
      <path
         style="fill:none;stroke:#000000;stroke-width:0.1;stroke-linecap:round;stroke-linejoin:round;stroke-dasharray:none"
         d="m -24.135284,128.87303 c 0,0 0.549713,-0.0762 0.737505,-0.25645 0.228685,-0.21946 0.353065,-0.56756 0.349011,-0.88448 -0.0043,-0.33425 -0.371611,-0.58945 -0.391832,-0.92312 -0.01464,-0.24151 0.246191,-0.45986 0.200849,-0.69753 -0.09257,-0.48523 -0.464879,-0.94984 -0.90553,-1.17309 -0.500916,-0.25378 -1.200438,-0.3265 -1.684102,-0.0412 -0.302433,0.17839 -0.391843,0.59608 -0.486875,0.9341 -0.07516,0.26735 0.101844,0.60297 -0.05633,0.83124 -0.120861,0.17443 -0.457905,0.0896 -0.579582,0.26341 -0.08555,0.12224 -0.03444,0.44628 -0.03444,0.44628"
         id="path80693"
         sodipodi:nodetypes="caaaaaaaaac" />
      <path
         style="fill:none;stroke:#000000;stroke-width:0.1;stroke-linecap:round;stroke-linejoin:round;stroke-dasharray:none"
         d="m -30.158263,125.43094 c 0,0 -0.09213,-0.2486 -0.06469,-0.37114 0.04998,-0.22317 0.326275,-0.34293 0.394825,-0.56112 0.06574,-0.20925 -0.116794,-0.47059 -0.0029,-0.65801 0.196962,-0.32398 0.63306,-0.50847 1.012061,-0.51917 0.492506,-0.0139 1.053983,0.20638 1.351114,0.59941 0.08991,0.11892 -0.03386,0.32949 0.06304,0.44278 0.104456,0.12212 0.342222,0.0329 0.46099,0.14111 0.09494,0.0865 0.146381,0.35652 0.146381,0.35652"
         id="path83371"
         sodipodi:nodetypes="caaaaaaac" />
      <path
         style="fill:none;stroke:#000000;stroke-width:0.1;stroke-linecap:round;stroke-linejoin:round;stroke-dasharray:none"
         d="m -31.413973,125.71905 c 0,0 0.04012,-0.48521 0.04437,-0.72844 0.0055,-0.31207 -0.02424,-0.93604 -0.02424,-0.93604"
         id="path86050"
         sodipodi:nodetypes="cac" />
      <path
         style="fill:none;stroke:#000000;stroke-width:0.1;stroke-linecap:round;stroke-linejoin:round;stroke-dasharray:none"
         d="m -32.306375,124.65027 c -0.548016,0.10942 -1.031516,-0.10108 -1.220096,-0.49778 -0.199615,-0.41992 0.362432,-0.87139 0.406778,-1.33422 0.03953,-0.41256 -0.249668,-0.83967 -0.130166,-1.23652 0.169237,-0.56202 0.571347,-1.15137 1.120644,-1.3582 0.466506,-0.17566 1.062482,-0.0388 1.476171,0.2393 0.333609,0.22427 0.510686,0.64504 0.628046,1.02952 0.08446,0.2767 -0.02908,0.58583 0.03884,0.86705 0.03041,0.12591 0.161695,0.35335 0.161695,0.35335"
         id="path86052"
         sodipodi:nodetypes="caaaaaaac" />
      <path
         style="fill:none;stroke:#000000;stroke-width:0.1;stroke-linecap:round;stroke-linejoin:round;stroke-dasharray:none"
         d="m -34.986558,132.39326 c 0,0 0.115143,-0.67949 0.107357,-1.02192 -0.0063,-0.27764 -0.124583,-0.82379 -0.124583,-0.82379"
         id="path91412"
         sodipodi:nodetypes="cac" />
      <path
         style="fill:none;stroke:#000000;stroke-width:0.1;stroke-linecap:round;stroke-linejoin:round;stroke-dasharray:none"
         d="m -35.783738,131.06072 c 0,0 -0.685102,-0.0983 -0.933758,-0.31252 -0.24026,-0.20701 -0.476254,-0.53362 -0.432055,-0.84766 0.03534,-0.25111 0.461211,-0.30922 0.519135,-0.55611 0.07053,-0.30059 -0.307107,-0.58169 -0.264974,-0.88756 0.06593,-0.47863 0.365411,-0.9683 0.774697,-1.22504 0.425221,-0.26674 1.03498,-0.36883 1.49617,-0.17068 0.637335,0.27384 1.161071,0.97454 1.252069,1.66222 0.02862,0.2163 -0.271696,0.39081 -0.244282,0.60727 0.03866,0.30532 0.551509,0.43591 0.547233,0.74365 -0.0053,0.37834 -0.372004,0.70301 -0.697933,0.89522 -0.108144,0.0638 -0.372009,0.0589 -0.372009,0.0589"
         id="path91414"
         sodipodi:nodetypes="caaaaaaaaaac" />
      <path
         style="fill:none;stroke:#000000;stroke-width:0.1;stroke-linecap:round;stroke-linejoin:round;stroke-dasharray:none"
         d="m -38.330258,130.808 c 0,0 -0.04383,-0.74292 -0.0053,-1.11137 0.02051,-0.1961 0.12514,-0.5781 0.12514,-0.5781"
         id="path102140"
         sodipodi:nodetypes="cac" />
      <path
         style="fill:none;stroke:#000000;stroke-width:0.1;stroke-linecap:round;stroke-linejoin:round;stroke-dasharray:none"
         d="m -39.365736,129.69246 c 0,0 -0.594981,-0.12392 -0.715857,-0.36193 -0.14592,-0.28733 0.205654,-0.63469 0.158164,-0.95327 -0.04371,-0.29322 -0.43134,-0.50297 -0.395209,-0.79721 0.04989,-0.40627 0.519426,-0.63439 0.795909,-0.9369 0.289566,-0.31683 0.488582,-0.80341 0.902681,-0.91844 0.435035,-0.12084 0.942378,0.0782 1.311957,0.33703 0.197125,0.13805 0.407128,0.59536 0.407128,0.59536"
         id="path102142"
         sodipodi:nodetypes="caaaaaac" />
      <path
         style="fill:none;stroke:#000000;stroke-width:0.1;stroke-linecap:round;stroke-linejoin:round;stroke-dasharray:none"
         d="m -35.127272,125.77833 c 0,0 0.379985,-0.70321 0.285518,-1.05509 -0.07564,-0.28176 -0.514345,-0.34519 -0.620976,-0.61674 -0.10578,-0.26938 0.160072,-0.60646 0.03512,-0.8675 -0.228765,-0.47792 -0.750738,-0.88778 -1.277374,-0.94602 -0.587375,-0.065 -1.289358,0.22907 -1.620838,0.7183 -0.186355,0.27504 0.119923,0.70328 -0.03722,0.99599 -0.113275,0.211 -0.473243,0.2065 -0.583567,0.41905 -0.06795,0.13092 -0.0042,0.44247 -0.0042,0.44247"
         id="path118244"
         sodipodi:nodetypes="caaaaaaac" />
      <path
         style="fill:none;stroke:#000000;stroke-width:0.1;stroke-linecap:round;stroke-linejoin:round;stroke-dasharray:none"
         d="m -41.462355,128.23074 c 0,0 0.10869,-0.64802 0.08169,-0.97205 -0.01953,-0.23432 -0.174611,-0.68343 -0.174611,-0.68343"
         id="path123614"
         sodipodi:nodetypes="cac" />
      <path
         style="fill:none;stroke:#000000;stroke-width:0.1;stroke-linecap:round;stroke-linejoin:round;stroke-dasharray:none"
         d="m -42.641591,127.10281 c 0,0 -0.864901,-0.15768 -1.004439,-0.50557 -0.119834,-0.29877 0.307792,-0.58839 0.323491,-0.90991 0.01854,-0.3797 -0.401139,-0.74788 -0.275523,-1.10668 0.09336,-0.26667 0.522451,-0.27614 0.673102,-0.51517 0.13851,-0.21976 -0.02634,-0.582 0.160336,-0.76264 0.324233,-0.31377 0.89869,-0.35697 1.333042,-0.23486 0.207469,0.0583 0.332552,0.2752 0.484996,0.42753 0.316223,0.31599 0.742968,0.5824 0.887575,1.00541 0.106995,0.31298 -0.09114,0.92923 -0.06389,0.99024"
         id="path126301"
         sodipodi:nodetypes="caaaaaaaac" />
      <path
         style="fill:none;stroke:#000000;stroke-width:0.1;stroke-linecap:round;stroke-linejoin:round;stroke-dasharray:none"
         d="m -34.16552,132.49046 h 1.232927"
         id="path155637" />
      <path
         style="fill:none;stroke:#000000;stroke-width:0.1;stroke-linecap:round;stroke-linejoin:round;stroke-dasharray:none"
         d="m -44.939539,123.76972 c 0,0 -0.08964,-0.60837 -0.06535,-0.91228 0.01529,-0.19138 0.131835,-0.56067 0.131835,-0.56067"
         id="path189580"
         sodipodi:nodetypes="cac" />
      <path
         style="fill:none;stroke:#000000;stroke-width:0.1;stroke-linecap:round;stroke-linejoin:round;stroke-dasharray:none"
         d="m -45.836409,122.60761 c -0.333864,0.0141 -0.694262,-0.13022 -0.868635,-0.39649 -0.148283,-0.22642 -0.05278,-0.54402 -0.01382,-0.81186 0.03975,-0.27324 0.260826,-0.514 0.249488,-0.78988 -0.01326,-0.32264 -0.423736,-0.57888 -0.366586,-0.89669 0.07886,-0.43855 0.555703,-0.70725 0.905236,-0.98361 0.34764,-0.27487 0.716408,-0.6533 1.159575,-0.65041 0.532219,0.003 1.129932,0.33059 1.382285,0.79919 0.196035,0.36403 -0.208242,0.84765 -0.07265,1.23823 0.119864,0.34528 0.67118,0.4584 0.728652,0.81935 0.05727,0.35967 -0.306608,0.66138 -0.436609,1.00159 -0.09133,0.23901 -0.05043,0.55777 -0.240659,0.72888 -0.148243,0.13334 -0.584629,0.12655 -0.584629,0.12655"
         id="path194807"
         sodipodi:nodetypes="caaaaaaaaaaac" />
      <path
         style="fill:none;stroke:#000000;stroke-width:0.1;stroke-linecap:round;stroke-linejoin:round;stroke-dasharray:none"
         d="m -44.176578,123.85426 h 0.193241"
         id="path200032" />
    </g>
  </g>
</svg>
