<?xml version="1.0" encoding="UTF-8" standalone="no"?>
<!-- Created with Inkscape (http://www.inkscape.org/) -->

<svg
   width="9.0697317mm"
   height="10.439808mm"
   viewBox="0 0 9.0697317 10.439808"
   version="1.1"
   id="svg5"
   inkscape:version="1.3 (0e150ed6c4, 2023-07-21)"
   sodipodi:docname="mushroom_color.svg"
   xmlns:inkscape="http://www.inkscape.org/namespaces/inkscape"
   xmlns:sodipodi="http://sodipodi.sourceforge.net/DTD/sodipodi-0.dtd"
   xmlns="http://www.w3.org/2000/svg"
   xmlns:svg="http://www.w3.org/2000/svg">
  <sodipodi:namedview
     id="namedview7"
     pagecolor="#ffffff"
     bordercolor="#666666"
     borderopacity="1.0"
     inkscape:pageshadow="2"
     inkscape:pageopacity="0"
     inkscape:pagecheckerboard="false"
     inkscape:document-units="mm"
     showgrid="false"
     inkscape:zoom="3.7528525"
     inkscape:cx="121.10788"
     inkscape:cy="86.201096"
     inkscape:window-width="1920"
     inkscape:window-height="1080"
     inkscape:window-x="0"
     inkscape:window-y="0"
     inkscape:window-maximized="1"
     inkscape:current-layer="layer1"
     inkscape:showpageshadow="2"
     inkscape:deskcolor="#d1d1d1" />
  <defs
     id="defs2" />
  <g
     inkscape:label="Layer 1"
     inkscape:groupmode="layer"
     id="layer1"
     transform="translate(55.562499,-155.31042)">
    <path
       id="path291149"
       style="fill:#ffe5ff;fill-opacity:1;stroke:none;stroke-width:0.2;stroke-linecap:round;stroke-linejoin:round;stroke-dasharray:none"
       d="m -50.828189,155.31042 c -0.771833,-0.001 -1.426943,0.55884 -1.754753,1.22437 -0.545681,0.69334 -1.2755,0.76763 -1.652006,1.63169 -0.405589,0.9308 -1.505462,1.67594 -1.302886,2.74331 0.101703,0.70667 0.422529,1.55331 0.692792,2.18704 0.286446,0.79551 -0.364241,1.60504 -0.09637,2.39792 0.3153,0.47808 0.967089,0.11586 1.430757,0.23228 0.600014,0.0245 1.601132,-0.22269 1.951633,-0.83102 0.424602,-0.47237 1.012562,-1.11376 1.09731,-1.51138 0.08653,-0.36712 0.443234,-0.64955 0.825723,-0.59638 0.36908,0.0696 1.146518,-0.17015 1.693635,-0.4662 0.765723,-0.31071 1.387971,-1.03513 1.412486,-1.88479 0.08305,-0.74571 0.08038,-1.68352 -0.593923,-2.16842 -0.46776,-0.27558 -1.088482,-0.23485 -1.469361,-0.67672 -0.652544,-0.5854 -0.790961,-1.57397 -1.521925,-2.08093 -0.212333,-0.13314 -0.462983,-0.20097 -0.713116,-0.20077 z"
       sodipodi:nodetypes="ccscccccccccccccc" />
    <path
       id="path291151"
       style="fill:#ffccff;fill-opacity:1;stroke:none;stroke-width:0.2;stroke-linecap:round;stroke-linejoin:round;stroke-dasharray:none"
       d="m -49.089277,158.29319 c -0.486353,0.0837 -0.942138,0.40836 -1.455566,0.23273 -0.77951,-0.18962 -1.658628,-0.28781 -2.370226,0.16841 -0.457734,0.45079 -0.965323,0.76944 -1.619956,0.8398 -0.521058,0.21679 -0.416437,0.90168 -0.59946,1.35098 -0.22045,0.50235 0.335444,0.84631 0.769195,0.86658 0.610209,0.24459 1.253262,0.10731 1.773657,-0.25885 0.45113,-0.32079 0.965269,0.003 1.438403,0.0812 0.840673,0.24233 1.726051,0.40317 2.596178,0.22346 0.453647,-0.0445 1.142311,-0.13463 1.108302,-0.73952 -0.02855,-0.48161 -0.09418,-0.96084 -0.118608,-1.44294 -0.163148,-0.61647 -0.756302,-1.00313 -1.291474,-1.28111 l -0.113482,-0.0304 -0.116962,-0.0104 z m -4.797123,4.68395 c -0.409005,0.23064 -0.194091,0.85397 -0.522049,1.20164 -0.187423,0.52909 0.299021,0.88232 0.750315,1.00695 0.417077,0.2776 0.971833,0.24345 1.361378,-0.0664 0.390443,-0.13685 1.007852,-0.46396 0.695783,-0.96357 -0.297922,0.0367 -0.753328,0.42437 -1.013039,-0.0672 -0.15642,-0.39614 -0.729104,-0.48619 -0.754306,-0.92318 -0.157314,-0.0981 -0.339202,-0.14681 -0.518082,-0.18827 z" />
    <path
       id="path291153"
       style="fill:#ffb3ff;fill-opacity:1;stroke:none;stroke-width:0.2;stroke-linecap:round;stroke-linejoin:round;stroke-dasharray:none"
       d="m -49.469614,158.30817 c -0.527224,0.0568 -0.0398,0.71894 0.315349,0.49454 0.343496,0.0373 0.733026,0.0321 0.972136,0.32023 0.356918,0.1999 0.387254,0.59122 0.459916,0.94242 0.129553,0.31319 0.321489,-0.0306 0.195313,-0.21983 -0.03849,-0.35382 -0.07646,-0.74952 -0.398064,-0.96979 -0.421924,-0.33357 -0.966124,-0.45647 -1.481204,-0.56474 l -0.06345,-0.003 z m -2.50424,0.27027 c -0.430887,-0.12957 -0.383484,0.4938 -0.41392,0.58691 -0.497424,0.0882 -0.369437,0.7667 0.06434,0.83164 0.119298,0.25974 0.435697,0.7437 0.676336,0.30866 0.189519,-0.24019 0.424082,-0.7446 0.0182,-0.89903 -0.141922,-0.0561 -0.591383,-0.17923 -0.2111,-0.0996 0.468364,0.0674 0.958589,0.0463 1.398817,0.24547 0.328578,0.10073 0.917776,0.27472 1.055605,0.433 -0.356475,0.2735 -0.773047,0.26095 -1.208375,0.25066 -0.310937,0.0852 -0.744059,0.41083 -0.595117,0.77464 0.177879,0.2781 0.444921,0.51089 0.781198,0.56559 0.645621,0.12279 1.287507,-0.10853 1.933866,-0.1081 0.369804,0.16774 0.915374,-0.0398 0.896818,-0.49582 -0.03442,-0.44615 -0.687789,0.0689 -0.818782,-0.353 -0.05515,-0.18677 -0.337673,-0.51456 -0.304129,-0.57352 0.4394,-0.17645 0.246865,-0.81858 -0.221264,-0.7457 -0.458227,-0.002 -0.872002,-0.22139 -1.326765,-0.21232 -0.553201,0.022 -1.023104,-0.30066 -1.526022,-0.47402 -0.06522,-0.0181 -0.132109,-0.0308 -0.199704,-0.0354 z m -1.847949,1.27434 c -0.396135,-0.0719 -0.635508,0.70446 -0.119054,0.63999 0.394465,0.058 0.796773,0.0757 1.193261,0.0273 0.405063,-0.26521 -0.204186,-0.61632 -0.492477,-0.59268 -0.191987,-0.0373 -0.386122,-0.0665 -0.58173,-0.0746 z m -0.575159,0.80977 c -0.399509,0.0753 0.05602,0.41236 0.23848,0.4269 0.245689,0.28872 0.506806,0.75059 0.958959,0.63261 0.267042,-0.0213 0.656257,-0.49844 0.306896,-0.59267 -0.379964,0.10961 -0.774939,-0.0491 -1.052263,-0.31063 -0.130848,-0.094 -0.286722,-0.16955 -0.452072,-0.15621 z m 1.923397,1.17719 c -0.232498,0.2969 -0.347638,0.68187 -0.688808,0.88547 -0.151925,0.38606 -0.533929,0.5221 -0.787438,0.79411 -0.148101,0.38204 -0.204596,0.90585 0.142393,1.2019 0.277781,0.26373 0.928833,0.40912 0.880661,-0.17051 0.02881,-0.40097 -0.254755,-0.82172 -0.01789,-1.20424 0.119147,-0.42147 0.590221,-0.67436 0.614176,-1.12846 -4e-5,-0.13575 -0.02897,-0.29037 -0.143097,-0.37827 z" />
    <path
       style="display:inline;fill:none;stroke:#000000;stroke-width:0.1;stroke-linecap:round;stroke-linejoin:round;stroke-dasharray:none"
       d="m -53.349422,164.77423 c 0,0 -0.626907,-0.4515 -0.617395,-0.78401 0.0148,-0.51737 0.750578,-0.72633 1.028821,-1.16299 0.367111,-0.57614 0.646336,-1.21823 0.81818,-1.87991"
       id="path291157"
       sodipodi:nodetypes="caac" />
    <path
       style="display:inline;fill:none;stroke:#000000;stroke-width:0.1;stroke-linecap:round;stroke-linejoin:round;stroke-dasharray:none"
       d="m -52.752386,163.62481 c 0,0 -0.306754,0.41167 -0.325469,0.65464 -0.01988,0.25805 -0.005,0.64335 0.235116,0.74 0.276803,0.11143 0.584228,-0.20806 0.786571,-0.42737 0.44154,-0.47855 0.646508,-1.15078 0.79169,-1.78577 0.06686,-0.29244 0.09319,-1.05548 0.09149,-1.43408"
       id="path291159"
       sodipodi:nodetypes="caaasc" />
    <path
       style="display:inline;fill:none;stroke:#000000;stroke-width:0.1;stroke-linecap:round;stroke-linejoin:round;stroke-dasharray:none"
       d="m -51.190094,160.28457 c 0.0033,0.0475 0.66084,-0.26575 0.723751,-0.60351"
       id="path291161"
       sodipodi:nodetypes="cc" />
    <path
       style="display:inline;fill:none;stroke:#000000;stroke-width:0.1;stroke-linecap:round;stroke-linejoin:round;stroke-dasharray:none"
       d="m -50.604106,160.69811 c 0,0 0.555124,-0.042 0.822578,-0.11322 0.287073,-0.0765 0.8264,-0.33372 0.8264,-0.33372"
       id="path291163"
       sodipodi:nodetypes="cac" />
    <path
       style="display:inline;fill:none;stroke:#000000;stroke-width:0.1;stroke-linecap:round;stroke-linejoin:round;stroke-dasharray:none"
       d="m -50.809635,161.25206 c 0.0844,0.004 1.465033,0.20101 2.181494,0.0746 0.193104,-0.034 0.545598,-0.22022 0.545598,-0.22022"
       id="path291165"
       sodipodi:nodetypes="cac" />
    <path
       style="display:inline;fill:none;stroke:#000000;stroke-width:0.1;stroke-linecap:round;stroke-linejoin:round;stroke-dasharray:none"
       d="m -54.06981,161.03877 c 0,0 0.219285,0.10854 0.311878,0.18668 0.09922,0.0837 0.134096,0.24453 0.253363,0.29582 0.167903,0.0722 0.547627,-0.0275 0.547627,-0.0275"
       id="path291167"
       sodipodi:nodetypes="caac" />
    <path
       style="display:inline;fill:none;stroke:#000000;stroke-width:0.1;stroke-linecap:round;stroke-linejoin:round;stroke-dasharray:none"
       d="m -54.181021,160.09397 c 0,0 0.323126,0.15202 0.495768,0.19204 0.275953,0.064 0.846671,0.073 0.846671,0.073"
       id="path291169"
       sodipodi:nodetypes="cac" />
    <path
       style="display:inline;fill:none;stroke:#000000;stroke-width:0.1;stroke-linecap:round;stroke-linejoin:round;stroke-dasharray:none"
       d="m -53.501774,160.9998 c 0.02503,0.001 0.297403,-0.0767 0.44383,-0.12271 0.160721,-0.0505 0.476584,-0.16831 0.476584,-0.16831"
       id="path291171"
       sodipodi:nodetypes="cac" />
    <path
       style="display:inline;fill:none;stroke:#000000;stroke-width:0.1;stroke-linecap:round;stroke-linejoin:round;stroke-dasharray:none"
       d="m -52.911507,159.39631 c 0,0 0.116112,0.31425 0.208432,0.45217 0.073,0.10906 0.267729,0.28865 0.267729,0.28865"
       id="path291173"
       sodipodi:nodetypes="cac" />
    <path
       style="display:inline;fill:none;stroke:#000000;stroke-width:0.1;stroke-linecap:round;stroke-linejoin:round;stroke-dasharray:none"
       d="m -51.884207,159.24662 c -0.0014,0.0313 0.02567,0.33399 0.04335,0.50052 0.01356,0.12765 0.04808,0.38208 0.04808,0.38208"
       id="path291175"
       sodipodi:nodetypes="cac" />
    <path
       style="display:inline;fill:none;stroke:#000000;stroke-width:0.1;stroke-linecap:round;stroke-linejoin:round;stroke-dasharray:none"
       d="m -54.238312,161.41194 c 0,0 -0.492262,-0.1814 -0.580074,-0.39904 -0.124864,-0.30948 0.200126,-0.98095 0.200126,-0.98095"
       id="path291177"
       sodipodi:nodetypes="cac" />
    <path
       style="display:inline;fill:none;stroke:#000000;stroke-width:0.1;stroke-linecap:round;stroke-linejoin:round;stroke-dasharray:none"
       d="m -54.504167,159.7623 c 0.181271,-0.21202 0.652098,-0.839 0.855848,-1.01816 0.243759,-0.21433 0.348653,-0.16892 0.508725,-0.27685 0.189037,-0.12746 0.406335,-0.24178 0.528343,-0.43438 0.07523,-0.11876 0.102973,-0.409 0.102973,-0.409"
       id="path291179"
       sodipodi:nodetypes="csaac" />
    <path
       style="display:inline;fill:none;stroke:#000000;stroke-width:0.1;stroke-linecap:round;stroke-linejoin:round;stroke-dasharray:none"
       d="m -52.104622,157.64811 c 0,0 -0.0094,-0.31015 0.06764,-0.43507 0.132552,-0.21493 0.381346,-0.3484 0.616649,-0.44004 0.162037,-0.0631 0.350797,-0.11295 0.517737,-0.064 0.317129,0.0931 0.523454,0.40629 0.763585,0.63379 0.225108,0.21326 0.374065,0.51046 0.631927,0.68268 0.223507,0.14928 0.756406,0.2793 0.756406,0.2793"
       id="path291181"
       sodipodi:nodetypes="caaaaac" />
    <path
       style="display:inline;fill:none;stroke:#000000;stroke-width:0.1;stroke-linecap:round;stroke-linejoin:round;stroke-dasharray:none"
       d="m -49.448333,158.57651 c 0,0 0.48219,0.12699 0.723667,0.18901 0.223494,0.0574 0.477703,0.0437 0.671177,0.16948 0.238687,0.15514 0.406867,0.41385 0.527287,0.6718 0.118161,0.25311 0.21389,0.54358 0.173112,0.81992 -0.03513,0.2381 -0.346855,0.63327 -0.346855,0.63327"
       id="path291183"
       sodipodi:nodetypes="caaaac" />
    <path
       style="display:inline;fill:none;fill-opacity:1;stroke:#000000;stroke-width:0.1;stroke-linecap:round;stroke-linejoin:round;stroke-dasharray:none;stroke-opacity:1"
       d="m -53.854431,159.35591 c 0.474667,-0.0906 1.194535,-0.36568 1.809546,-0.36047 0.727291,0.006 2.132385,0.46243 2.132385,0.46243"
       id="path291185"
       sodipodi:nodetypes="cac" />
    <path
       style="display:inline;fill:none;fill-opacity:1;stroke:#000000;stroke-width:0.1;stroke-linecap:round;stroke-linejoin:round;stroke-dasharray:none;stroke-opacity:1"
       d="m -49.571646,159.52757 c 0,0 0.587282,0.19545 0.820782,0.38795 0.300703,0.24789 0.692053,0.9423 0.692053,0.9423"
       id="path291187"
       sodipodi:nodetypes="cac" />
    <path
       style="fill:none;stroke:#000000;stroke-width:0.1;stroke-linecap:round;stroke-linejoin:round;stroke-dasharray:none"
       d="m -52.358205,163.31237 c 0,0 0.375473,-0.55453 0.485851,-0.86683 0.100457,-0.28423 0.151758,-0.89156 0.151758,-0.89156"
       id="path291189"
       sodipodi:nodetypes="cac" />
  </g>
</svg>
