<?xml version="1.0" encoding="UTF-8" standalone="no"?>
<!-- Created with Inkscape (http://www.inkscape.org/) -->

<svg
   width="9.0697317mm"
   height="10.439808mm"
   viewBox="0 0 9.0697317 10.439808"
   version="1.1"
   id="svg5"
   inkscape:version="1.3 (0e150ed6c4, 2023-07-21)"
   sodipodi:docname="mushroom.svg"
   xmlns:inkscape="http://www.inkscape.org/namespaces/inkscape"
   xmlns:sodipodi="http://sodipodi.sourceforge.net/DTD/sodipodi-0.dtd"
   xmlns="http://www.w3.org/2000/svg"
   xmlns:svg="http://www.w3.org/2000/svg">
  <sodipodi:namedview
     id="namedview7"
     pagecolor="#ffffff"
     bordercolor="#666666"
     borderopacity="1.0"
     inkscape:pageshadow="2"
     inkscape:pageopacity="0"
     inkscape:pagecheckerboard="false"
     inkscape:document-units="mm"
     showgrid="false"
     inkscape:zoom="0.56569164"
     inkscape:cx="-26.516213"
     inkscape:cy="-23.864592"
     inkscape:window-width="636"
     inkscape:window-height="1037"
     inkscape:window-x="1280"
     inkscape:window-y="0"
     inkscape:window-maximized="1"
     inkscape:current-layer="layer1"
     inkscape:showpageshadow="2"
     inkscape:deskcolor="#d1d1d1" />
  <defs
     id="defs2" />
  <g
     inkscape:label="Layer 1"
     inkscape:groupmode="layer"
     id="layer1"
     transform="translate(55.562499,-155.31042)">
    <g
       id="g291155"
       inkscape:label="colors"
       transform="translate(-7.369879,52.435431)"
       style="stroke-width:1.05011">
      <path
         id="path291149"
         style="fill:#ffe5ff;fill-opacity:1;stroke:none;stroke-width:0.2;stroke-linecap:round;stroke-linejoin:round;stroke-dasharray:none"
         d="m -49.509377,91.87507 c -0.771833,-0.0014 -1.426943,0.558841 -1.754753,1.224369 -0.545681,0.693339 -1.2755,0.767628 -1.652006,1.631688 -0.405589,0.930804 -1.505462,1.675944 -1.302886,2.743315 0.101703,0.706664 0.422529,1.553303 0.692792,2.18704 0.286446,0.795508 -0.364241,1.605038 -0.09637,2.397918 0.3153,0.47808 0.967089,0.11586 1.430757,0.23228 0.600014,0.0245 1.601132,-0.22269 1.951633,-0.83102 0.424602,-0.47237 1.012562,-1.11376 1.09731,-1.51138 0.08653,-0.367125 0.443234,-0.649557 0.825723,-0.596382 0.36908,0.06963 1.146518,-0.170149 1.693634,-0.466201 0.765724,-0.310708 1.387972,-1.035134 1.412486,-1.884786 0.08305,-0.745715 0.08038,-1.683525 -0.593923,-2.168423 -0.46776,-0.27558 -1.088482,-0.234854 -1.469361,-0.676719 -0.652544,-0.585403 -0.790961,-1.573967 -1.521925,-2.080931 -0.212332,-0.133139 -0.462983,-0.200974 -0.713116,-0.200769 z"
         sodipodi:nodetypes="ccscccccccccccccc"
         transform="translate(6.0510675,10.999922)" />
      <path
         id="path291151"
         style="fill:#ffccff;fill-opacity:1;stroke:none;stroke-width:0.2;stroke-linecap:round;stroke-linejoin:round;stroke-dasharray:none"
         d="m -47.770465,94.857834 c -0.486353,0.08375 -0.942138,0.40836 -1.455566,0.232737 -0.779511,-0.189626 -1.658628,-0.287816 -2.370226,0.168408 -0.457734,0.450785 -0.965323,0.769443 -1.619956,0.839799 -0.521058,0.216793 -0.416437,0.901684 -0.59946,1.350975 -0.22045,0.502357 0.335444,0.846315 0.769195,0.866584 0.610209,0.244593 1.253261,0.107315 1.773656,-0.258847 0.45113,-0.320792 0.96527,0.0033 1.438403,0.08123 0.840673,0.242328 1.726051,0.40317 2.596178,0.223458 0.453647,-0.04448 1.142311,-0.134629 1.108302,-0.73952 -0.02855,-0.481614 -0.09418,-0.960837 -0.118608,-1.442938 -0.163148,-0.616472 -0.756302,-1.003137 -1.291474,-1.281112 l -0.113482,-0.03041 -0.116962,-0.01036 z m -4.797123,4.683952 c -0.409005,0.230646 -0.194092,0.853974 -0.522049,1.201644 -0.187423,0.52909 0.299021,0.88232 0.750315,1.00695 0.417077,0.2776 0.971833,0.24345 1.361378,-0.0664 0.390443,-0.13685 1.007852,-0.46396 0.695783,-0.96357 -0.297922,0.0367 -0.753328,0.42437 -1.01304,-0.0672 -0.15642,-0.39614 -0.729104,-0.48619 -0.754305,-0.923183 -0.157314,-0.09805 -0.339203,-0.146813 -0.518082,-0.188271 z"
         transform="translate(6.0510675,10.999922)" />
      <path
         id="path291153"
         style="fill:#ffb3ff;fill-opacity:1;stroke:none;stroke-width:0.2;stroke-linecap:round;stroke-linejoin:round;stroke-dasharray:none"
         d="m -42.099735,105.87274 c -0.527224,0.0568 -0.0398,0.71894 0.315349,0.49454 0.343496,0.0373 0.733026,0.0321 0.972136,0.32023 0.356918,0.1999 0.387254,0.59122 0.459916,0.94242 0.129553,0.31319 0.321489,-0.0306 0.195313,-0.21983 -0.03849,-0.35382 -0.07646,-0.74952 -0.398064,-0.96979 -0.421924,-0.33357 -0.966124,-0.45647 -1.481204,-0.56474 l -0.06345,-0.003 z m -2.50424,0.27027 c -0.430887,-0.12957 -0.383484,0.4938 -0.41392,0.58691 -0.497424,0.0882 -0.369437,0.7667 0.06434,0.83164 0.119298,0.25974 0.435697,0.7437 0.676336,0.30866 0.189519,-0.24019 0.424082,-0.7446 0.0182,-0.89903 -0.141922,-0.0561 -0.591383,-0.17923 -0.2111,-0.0996 0.468364,0.0674 0.958589,0.0463 1.398817,0.24547 0.328578,0.10073 0.917776,0.27472 1.055605,0.433 -0.356475,0.2735 -0.773047,0.26095 -1.208375,0.25066 -0.310937,0.0852 -0.744059,0.41083 -0.595117,0.77464 0.177879,0.2781 0.444921,0.51089 0.781198,0.56559 0.645621,0.12279 1.287507,-0.10853 1.933866,-0.1081 0.369804,0.16774 0.915374,-0.0398 0.896818,-0.49582 -0.03442,-0.44615 -0.687789,0.0689 -0.818782,-0.353 -0.05515,-0.18677 -0.337673,-0.51456 -0.304129,-0.57352 0.4394,-0.17645 0.246865,-0.81858 -0.221264,-0.7457 -0.458227,-0.002 -0.872002,-0.22139 -1.326765,-0.21232 -0.553201,0.022 -1.023104,-0.30066 -1.526022,-0.47402 -0.06522,-0.0181 -0.132109,-0.0308 -0.199704,-0.0354 z m -1.847949,1.27434 c -0.396135,-0.0719 -0.635508,0.70446 -0.119054,0.63999 0.394465,0.058 0.796773,0.0757 1.193261,0.0273 0.405063,-0.26521 -0.204186,-0.61632 -0.492477,-0.59268 -0.191987,-0.0373 -0.386122,-0.0665 -0.58173,-0.0746 z m -0.575159,0.80977 c -0.399509,0.0753 0.05602,0.41236 0.23848,0.4269 0.245689,0.28872 0.506806,0.75059 0.958959,0.63261 0.267042,-0.0213 0.656257,-0.49844 0.306896,-0.59267 -0.379964,0.10961 -0.774939,-0.0491 -1.052263,-0.31063 -0.130848,-0.094 -0.286722,-0.16955 -0.452072,-0.15621 z m 1.923397,1.17719 c -0.232498,0.2969 -0.347638,0.68187 -0.688808,0.88547 -0.151925,0.38606 -0.533929,0.5221 -0.787438,0.79411 -0.148101,0.38204 -0.204596,0.90585 0.142393,1.2019 0.277781,0.26373 0.928833,0.40912 0.880661,-0.17051 0.02881,-0.40097 -0.254755,-0.82172 -0.01789,-1.20424 0.119147,-0.42147 0.590221,-0.67436 0.614176,-1.12846 -4e-5,-0.13575 -0.02897,-0.29037 -0.143097,-0.37827 z" />
    </g>
    <g
       id="g291191"
       inkscape:label="lines"
       transform="translate(-7.369879,52.435431)"
       style="stroke-width:1.05011">
      <path
         style="display:inline;fill:none;stroke:#000000;stroke-width:0.2;stroke-linecap:round;stroke-linejoin:round;stroke-dasharray:none"
         d="m -46.247012,112.27113 c 0,0 -0.385573,-0.45298 -0.349926,-0.71634 0.06951,-0.51354 0.750578,-0.72633 1.028821,-1.16299 0.367111,-0.57614 0.646336,-1.21823 0.81818,-1.87991"
         id="path291157"
         sodipodi:nodetypes="caac" />
      <path
         style="display:inline;fill:none;stroke:#000000;stroke-width:0.2;stroke-linecap:round;stroke-linejoin:round;stroke-dasharray:none"
         d="m -45.382507,111.18938 c 0,0 -0.341647,0.41149 -0.325469,0.65464 0.01739,0.26133 0.184597,0.59262 0.439905,0.65101 0.218696,0.05 0.432066,-0.1713 0.581782,-0.33838 0.434532,-0.48493 0.646508,-1.15078 0.79169,-1.78577 0.06686,-0.29244 0.08212,-0.74025 0.08042,-1.11885"
         id="path291159"
         sodipodi:nodetypes="caaasc" />
      <path
         style="display:inline;fill:none;stroke:#000000;stroke-width:0.2;stroke-linecap:round;stroke-linejoin:round;stroke-dasharray:none"
         d="m -43.820215,107.84914 c 0,0 0.336639,-0.0266 0.408693,-0.23229"
         id="path291161"
         sodipodi:nodetypes="cc" />
      <path
         style="display:inline;fill:none;stroke:#000000;stroke-width:0.2;stroke-linecap:round;stroke-linejoin:round;stroke-dasharray:none"
         d="m -43.234227,108.26268 c 0,0 0.553741,-0.0474 0.822578,-0.11322 0.206115,-0.0505 0.599431,-0.21436 0.599431,-0.21436"
         id="path291163"
         sodipodi:nodetypes="cac" />
      <path
         style="display:inline;fill:none;stroke:#000000;stroke-width:0.2;stroke-linecap:round;stroke-linejoin:round;stroke-dasharray:none"
         d="m -43.439756,108.81663 c 0.0844,0.004 1.465033,0.20101 2.181494,0.0746 0.193104,-0.034 0.545598,-0.22022 0.545598,-0.22022"
         id="path291165"
         sodipodi:nodetypes="cac" />
      <path
         style="display:inline;fill:none;stroke:#000000;stroke-width:0.2;stroke-linecap:round;stroke-linejoin:round;stroke-dasharray:none"
         d="m -46.699931,108.60334 c 0,0 0.219285,0.10854 0.311878,0.18668 0.09922,0.0837 0.134096,0.24453 0.253363,0.29582 0.167903,0.0722 0.547627,-0.0275 0.547627,-0.0275"
         id="path291167"
         sodipodi:nodetypes="caac" />
      <path
         style="display:inline;fill:none;stroke:#000000;stroke-width:0.2;stroke-linecap:round;stroke-linejoin:round;stroke-dasharray:none"
         d="m -46.585242,107.76228 c 0,0 0.176648,0.0719 0.269868,0.0883 0.18657,0.0328 0.568,0.018 0.568,0.018"
         id="path291169"
         sodipodi:nodetypes="cac" />
      <path
         style="display:inline;fill:none;stroke:#000000;stroke-width:0.2;stroke-linecap:round;stroke-linejoin:round;stroke-dasharray:none"
         d="m -45.798399,108.46286 c 0.02503,10e-4 0.07419,-0.0114 0.110334,-0.0212 0.162606,-0.0441 0.476584,-0.16831 0.476584,-0.16831"
         id="path291171"
         sodipodi:nodetypes="cac" />
      <path
         style="display:inline;fill:none;stroke:#000000;stroke-width:0.2;stroke-linecap:round;stroke-linejoin:round;stroke-dasharray:none"
         d="m -45.352994,107.30424 c 0,0 0.08128,0.16496 0.135867,0.23833 0.04375,0.0588 0.15166,0.15913 0.15166,0.15913"
         id="path291173"
         sodipodi:nodetypes="cac" />
      <path
         style="display:inline;fill:none;stroke:#000000;stroke-width:0.2;stroke-linecap:round;stroke-linejoin:round;stroke-dasharray:none"
         d="m -44.48696,107.231 c -0.0014,0.0313 0.03055,0.18197 0.04283,0.27339 0.0085,0.063 0.02124,0.1894 0.02124,0.1894"
         id="path291175"
         sodipodi:nodetypes="cac" />
      <path
         style="display:inline;fill:none;stroke:#000000;stroke-width:0.2;stroke-linecap:round;stroke-linejoin:round;stroke-dasharray:none"
         d="m -47.157546,108.99004 c 0,0 -0.256458,-0.24786 -0.290961,-0.41257 -0.06842,-0.32663 0.200126,-0.98095 0.200126,-0.98095"
         id="path291177"
         sodipodi:nodetypes="cac" />
      <path
         style="display:inline;fill:none;stroke:#000000;stroke-width:0.2;stroke-linecap:round;stroke-linejoin:round;stroke-dasharray:none"
         d="m -46.965312,107.03381 c 0.181271,-0.21202 0.483122,-0.54594 0.686872,-0.7251 0.243759,-0.21433 0.356055,-0.15868 0.508725,-0.27685 0.167943,-0.12999 0.33345,-0.27893 0.435122,-0.46539 0.0673,-0.12343 0.102973,-0.409 0.102973,-0.409"
         id="path291179"
         sodipodi:nodetypes="csaac" />
      <path
         style="display:inline;fill:none;stroke:#000000;stroke-width:0.2;stroke-linecap:round;stroke-linejoin:round;stroke-dasharray:none"
         d="m -44.570037,105.1425 c 0,0 -0.0052,-0.30767 0.06764,-0.43507 0.09666,-0.16897 0.272981,-0.29326 0.451943,-0.36986 0.159865,-0.0684 0.350797,-0.11295 0.517737,-0.064 0.317129,0.0931 0.522174,0.40765 0.763585,0.63379 0.184629,0.17295 0.310637,0.41179 0.521799,0.5511 0.224346,0.14802 0.756406,0.2793 0.756406,0.2793"
         id="path291181"
         sodipodi:nodetypes="caaaaac" />
      <path
         style="display:inline;fill:none;stroke:#000000;stroke-width:0.2;stroke-linecap:round;stroke-linejoin:round;stroke-dasharray:none"
         d="m -42.065163,106.22276 c 0,0 0.479035,0.14092 0.723667,0.18901 0.217087,0.0427 0.465781,-0.0219 0.657886,0.0878 0.247185,0.1412 0.406867,0.41385 0.527287,0.6718 0.118161,0.25311 0.182771,0.54075 0.173112,0.81992 -0.0057,0.16521 -0.135744,0.477 -0.135744,0.477"
         id="path291183"
         sodipodi:nodetypes="caaaac" />
      <path
         style="display:inline;fill:none;fill-opacity:1;stroke:#000000;stroke-width:0.2;stroke-linecap:round;stroke-linejoin:round;stroke-dasharray:none;stroke-opacity:1"
         d="m -45.998751,106.82473 c 0.474667,-0.0906 0.873772,-0.26149 1.323745,-0.26472 0.554291,-0.004 1.635141,0.30265 1.635141,0.30265"
         id="path291185"
         sodipodi:nodetypes="cac" />
      <path
         style="display:inline;fill:none;fill-opacity:1;stroke:#000000;stroke-width:0.2;stroke-linecap:round;stroke-linejoin:round;stroke-dasharray:none;stroke-opacity:1"
         d="m -42.201767,107.09214 c 0,0 0.978095,0.25033 1.30156,0.60234 0.07158,0.0779 0.108512,0.29823 0.108512,0.29823"
         id="path291187"
         sodipodi:nodetypes="cac" />
      <path
         style="fill:none;stroke:#000000;stroke-width:0.2;stroke-linecap:round;stroke-linejoin:round;stroke-dasharray:none"
         d="m -44.880726,110.74528 c 0,0 0.194734,-0.23636 0.256847,-0.37435 0.08647,-0.19212 0.153026,-0.61325 0.153026,-0.61325"
         id="path291189"
         sodipodi:nodetypes="cac" />
    </g>
  </g>
</svg>
