<?xml version="1.0" encoding="UTF-8" standalone="no"?>
<!-- Created with Inkscape (http://www.inkscape.org/) -->

<svg
   width="7.9804816mm"
   height="8.7510281mm"
   viewBox="0 0 7.9804817 8.7510282"
   version="1.1"
   id="svg5"
   inkscape:version="1.3 (0e150ed6c4, 2023-07-21)"
   sodipodi:docname="mushroom.svg"
   xmlns:inkscape="http://www.inkscape.org/namespaces/inkscape"
   xmlns:sodipodi="http://sodipodi.sourceforge.net/DTD/sodipodi-0.dtd"
   xmlns="http://www.w3.org/2000/svg"
   xmlns:svg="http://www.w3.org/2000/svg">
  <sodipodi:namedview
     id="namedview7"
     pagecolor="#ffffff"
     bordercolor="#666666"
     borderopacity="1.0"
     inkscape:pageshadow="2"
     inkscape:pageopacity="0"
     inkscape:pagecheckerboard="false"
     inkscape:document-units="mm"
     showgrid="false"
     inkscape:zoom="3.2000352"
     inkscape:cx="-14.687338"
     inkscape:cy="35.780856"
     inkscape:window-width="956"
     inkscape:window-height="1037"
     inkscape:window-x="960"
     inkscape:window-y="0"
     inkscape:window-maximized="1"
     inkscape:current-layer="layer1"
     inkscape:showpageshadow="2"
     inkscape:deskcolor="#d1d1d1"
     showguides="true" />
  <defs
     id="defs2" />
  <g
     inkscape:label="Layer 1"
     inkscape:groupmode="layer"
     id="layer1"
     transform="translate(55.082605,-156.43667)">
    <path
       style="display:inline;fill:none;stroke:#00ff00;stroke-width:0.5;stroke-linecap:round;stroke-linejoin:round;stroke-dasharray:none"
       d="m -53.616891,164.70656 c 0,0 -0.385573,-0.45298 -0.349926,-0.71634 0.06951,-0.51354 0.750578,-0.72633 1.028821,-1.16299 0.367111,-0.57614 0.646336,-1.21823 0.81818,-1.87991"
       id="path291157"
       sodipodi:nodetypes="caac" />
    <path
       style="display:inline;fill:none;stroke:#00ff00;stroke-width:0.5;stroke-linecap:round;stroke-linejoin:round;stroke-dasharray:none"
       d="m -52.752386,163.62481 c 0,0 -0.341647,0.41149 -0.325469,0.65464 0.01739,0.26133 0.184597,0.59262 0.439905,0.65101 0.218696,0.05 0.432066,-0.1713 0.581782,-0.33838 0.434532,-0.48493 0.646508,-1.15078 0.79169,-1.78577 0.06686,-0.29244 0.08212,-0.74025 0.08042,-1.11885"
       id="path291159"
       sodipodi:nodetypes="caaasc" />
    <path
       style="display:inline;fill:none;stroke:#00ff00;stroke-width:0.5;stroke-linecap:round;stroke-linejoin:round;stroke-dasharray:none"
       d="m -51.190094,160.28457 c 0,0 0.336639,-0.0266 0.408693,-0.23229"
       id="path291161"
       sodipodi:nodetypes="cc" />
    <path
       style="display:inline;fill:none;stroke:#00ff00;stroke-width:0.5;stroke-linecap:round;stroke-linejoin:round;stroke-dasharray:none"
       d="m -50.604106,160.69811 c 0,0 0.553741,-0.0474 0.822578,-0.11322 0.206115,-0.0505 0.599431,-0.21436 0.599431,-0.21436"
       id="path291163"
       sodipodi:nodetypes="cac" />
    <path
       style="display:inline;fill:none;stroke:#00ff00;stroke-width:0.5;stroke-linecap:round;stroke-linejoin:round;stroke-dasharray:none"
       d="m -50.809635,161.25206 c 0.0844,0.004 1.465033,0.20101 2.181494,0.0746 0.193104,-0.034 0.545598,-0.22022 0.545598,-0.22022"
       id="path291165"
       sodipodi:nodetypes="cac" />
    <path
       style="display:inline;fill:none;stroke:#00ff00;stroke-width:0.5;stroke-linecap:round;stroke-linejoin:round;stroke-dasharray:none"
       d="m -54.06981,161.03877 c 0,0 0.219285,0.10854 0.311878,0.18668 0.09922,0.0837 0.134096,0.24453 0.253363,0.29582 0.167903,0.0722 0.547627,-0.0275 0.547627,-0.0275"
       id="path291167"
       sodipodi:nodetypes="caac" />
    <path
       style="display:inline;fill:none;stroke:#00ff00;stroke-width:0.5;stroke-linecap:round;stroke-linejoin:round;stroke-dasharray:none"
       d="m -53.955121,160.19771 c 0,0 0.176648,0.0719 0.269868,0.0883 0.18657,0.0328 0.568,0.018 0.568,0.018"
       id="path291169"
       sodipodi:nodetypes="cac" />
    <path
       style="display:inline;fill:none;stroke:#00ff00;stroke-width:0.5;stroke-linecap:round;stroke-linejoin:round;stroke-dasharray:none"
       d="m -53.168278,160.89829 c 0.02503,0.001 0.07419,-0.0114 0.110334,-0.0212 0.162606,-0.0441 0.476584,-0.16831 0.476584,-0.16831"
       id="path291171"
       sodipodi:nodetypes="cac" />
    <path
       style="display:inline;fill:none;stroke:#00ff00;stroke-width:0.5;stroke-linecap:round;stroke-linejoin:round;stroke-dasharray:none"
       d="m -52.722873,159.73967 c 0,0 0.08128,0.16496 0.135867,0.23833 0.04375,0.0588 0.15166,0.15913 0.15166,0.15913"
       id="path291173"
       sodipodi:nodetypes="cac" />
    <path
       style="display:inline;fill:none;stroke:#00ff00;stroke-width:0.5;stroke-linecap:round;stroke-linejoin:round;stroke-dasharray:none"
       d="m -51.856839,159.66643 c -0.0014,0.0313 0.03055,0.18197 0.04283,0.27339 0.0085,0.063 0.02124,0.1894 0.02124,0.1894"
       id="path291175"
       sodipodi:nodetypes="cac" />
    <path
       style="display:inline;fill:none;stroke:#00ff00;stroke-width:0.5;stroke-linecap:round;stroke-linejoin:round;stroke-dasharray:none"
       d="m -54.527425,161.42547 c 0,0 -0.256458,-0.24786 -0.290961,-0.41257 -0.06842,-0.32663 0.200126,-0.98095 0.200126,-0.98095"
       id="path291177"
       sodipodi:nodetypes="cac" />
    <path
       style="display:inline;fill:none;stroke:#00ff00;stroke-width:0.5;stroke-linecap:round;stroke-linejoin:round;stroke-dasharray:none"
       d="m -54.335191,159.46924 c 0.181271,-0.21202 0.483122,-0.54594 0.686872,-0.7251 0.243759,-0.21433 0.356055,-0.15868 0.508725,-0.27685 0.167943,-0.12999 0.33345,-0.27893 0.435122,-0.46539 0.0673,-0.12343 0.102973,-0.409 0.102973,-0.409"
       id="path291179"
       sodipodi:nodetypes="csaac" />
    <path
       style="display:inline;fill:none;stroke:#00ff00;stroke-width:0.5;stroke-linecap:round;stroke-linejoin:round;stroke-dasharray:none"
       d="m -51.939916,157.57793 c 0,0 -0.0052,-0.30767 0.06764,-0.43507 0.09666,-0.16897 0.272981,-0.29326 0.451943,-0.36986 0.159865,-0.0684 0.350797,-0.11295 0.517737,-0.064 0.317129,0.0931 0.522174,0.40765 0.763585,0.63379 0.184629,0.17295 0.310637,0.41179 0.521799,0.5511 0.224346,0.14802 0.756406,0.2793 0.756406,0.2793"
       id="path291181"
       sodipodi:nodetypes="caaaaac" />
    <path
       style="display:inline;fill:none;stroke:#00ff00;stroke-width:0.5;stroke-linecap:round;stroke-linejoin:round;stroke-dasharray:none"
       d="m -49.435042,158.65819 c 0,0 0.479035,0.14092 0.723667,0.18901 0.217087,0.0427 0.465781,-0.0219 0.657886,0.0878 0.247185,0.1412 0.406867,0.41385 0.527287,0.6718 0.118161,0.25311 0.182771,0.54075 0.173112,0.81992 -0.0057,0.16521 -0.135744,0.477 -0.135744,0.477"
       id="path291183"
       sodipodi:nodetypes="caaaac" />
    <path
       style="display:inline;fill:none;fill-opacity:1;stroke:#00ff00;stroke-width:0.5;stroke-linecap:round;stroke-linejoin:round;stroke-dasharray:none;stroke-opacity:1"
       d="m -53.36863,159.26016 c 0.474667,-0.0906 0.873772,-0.26149 1.323745,-0.26472 0.554291,-0.004 1.635141,0.30265 1.635141,0.30265"
       id="path291185"
       sodipodi:nodetypes="cac" />
    <path
       style="display:inline;fill:none;fill-opacity:1;stroke:#00ff00;stroke-width:0.5;stroke-linecap:round;stroke-linejoin:round;stroke-dasharray:none;stroke-opacity:1"
       d="m -49.571646,159.52757 c 0,0 0.978095,0.25033 1.30156,0.60234 0.07158,0.0779 0.108512,0.29823 0.108512,0.29823"
       id="path291187"
       sodipodi:nodetypes="cac" />
    <path
       style="fill:none;stroke:#00ff00;stroke-width:0.5;stroke-linecap:round;stroke-linejoin:round;stroke-dasharray:none"
       d="m -52.250605,163.18071 c 0,0 0.194734,-0.23636 0.256847,-0.37435 0.08647,-0.19212 0.153026,-0.61325 0.153026,-0.61325"
       id="path291189"
       sodipodi:nodetypes="cac" />
  </g>
</svg>
