<?xml version="1.0" encoding="UTF-8" standalone="no"?>
<!-- Created with Inkscape (http://www.inkscape.org/) -->

<svg
   width="10.489799mm"
   height="9.0755301mm"
   viewBox="0 0 10.489799 9.0755301"
   version="1.1"
   id="svg5"
   inkscape:version="1.2.2 (b0a8486541, 2022-12-01)"
   sodipodi:docname="reindeer.svg"
   xmlns:inkscape="http://www.inkscape.org/namespaces/inkscape"
   xmlns:sodipodi="http://sodipodi.sourceforge.net/DTD/sodipodi-0.dtd"
   xmlns="http://www.w3.org/2000/svg"
   xmlns:svg="http://www.w3.org/2000/svg">
  <sodipodi:namedview
     id="namedview7"
     pagecolor="#ffffff"
     bordercolor="#666666"
     borderopacity="1.0"
     inkscape:pageshadow="2"
     inkscape:pageopacity="0"
     inkscape:pagecheckerboard="false"
     inkscape:document-units="mm"
     showgrid="false"
     inkscape:zoom="6.4000703"
     inkscape:cx="27.655946"
     inkscape:cy="14.999835"
     inkscape:window-width="956"
     inkscape:window-height="1037"
     inkscape:window-x="960"
     inkscape:window-y="0"
     inkscape:window-maximized="1"
     inkscape:current-layer="layer1"
     inkscape:showpageshadow="2"
     inkscape:deskcolor="#ffffff" />
  <defs
     id="defs2" />
  <g
     inkscape:label="Layer 1"
     inkscape:groupmode="layer"
     id="layer1"
     transform="translate(31.904742,-135.7772)">
    <path
       style="fill:none;stroke:#00ff00;stroke-width:0.5;stroke-linecap:round;stroke-linejoin:round;stroke-dasharray:none"
       d="m -25.541872,139.72563 c -0.0028,0.24859 -0.472652,0.24869 -0.447283,-0.0123"
       id="path150865-3"
       sodipodi:nodetypes="caaac" />
    <path
       style="fill:none;stroke:#00ff00;stroke-width:0.5;stroke-linecap:round;stroke-linejoin:round;stroke-dasharray:none"
       d="m -26.259619,139.24589 c -0.05213,-0.16757 -0.115635,-0.33831 -0.102266,-0.51689"
       id="path150867-6"
       sodipodi:nodetypes="caac" />
    <path
       style="fill:none;stroke:#00ff00;stroke-width:0.5;stroke-linecap:round;stroke-linejoin:round;stroke-dasharray:none"
       d="m -25.245344,139.23864 c 0.127538,-0.12986 0.03134,-0.34462 0.153478,-0.47693"
       id="path150869-7"
       sodipodi:nodetypes="caac" />
    <path
       style="fill:none;stroke:#00ff00;stroke-width:0.5;stroke-linecap:round;stroke-linejoin:round;stroke-dasharray:none"
       d="m -24.528832,138.61355 c 0.166719,-0.0321 0.171554,-0.2854 0.351813,-0.29062"
       id="path150871-5"
       sodipodi:nodetypes="caac" />
    <path
       style="fill:none;stroke:#00ff00;stroke-width:0.5;stroke-linecap:round;stroke-linejoin:round;stroke-dasharray:none"
       d="m -26.938019,138.56767 c -0.197433,0.0337 -0.162139,-0.3691 -0.380182,-0.24851"
       id="path150873-3"
       sodipodi:nodetypes="caac" />
    <path
       style="fill:none;stroke:#00ff00;stroke-width:0.5;stroke-linecap:round;stroke-linejoin:round;stroke-dasharray:none"
       d="m -26.072957,138.15199 c 0,0 -0.105228,-0.2005 -0.124822,-0.31025 -0.03075,-0.17221 0.04195,-0.35163 0.01529,-0.52448 -0.01509,-0.0983 -0.09822,-0.28192 -0.09822,-0.28192"
       id="path150889-0"
       sodipodi:nodetypes="caac" />
    <path
       style="fill:none;stroke:#00ff00;stroke-width:0.5;stroke-linecap:round;stroke-linejoin:round;stroke-dasharray:none"
       d="m -26.759269,137.62695 c -0.04351,-0.0179 -0.293871,-0.24279 -0.373031,-0.40971 -0.0722,-0.15236 -0.08794,-0.33215 -0.07417,-0.50009 0.01866,-0.22701 0.209046,-0.65049 0.209046,-0.65049"
       id="path150891-9"
       sodipodi:nodetypes="caac" />
    <path
       style="fill:none;stroke:#00ff00;stroke-width:0.5;stroke-linecap:round;stroke-linejoin:round;stroke-dasharray:none"
       d="m -27.788154,136.49775 c -0.02513,-0.004 -0.127739,-0.0485 -0.172067,-0.0973 -0.07865,-0.0866 -0.142907,-0.32048 -0.142907,-0.32048"
       id="path150893-3"
       sodipodi:nodetypes="cac" />
    <path
       style="fill:none;stroke:#00ff00;stroke-width:0.5;stroke-linecap:round;stroke-linejoin:round;stroke-dasharray:none"
       d="m -27.564199,137.57122 c -0.07374,-0.0179 -0.220148,-0.0546 -0.306585,-0.12276 -0.09262,-0.0731 -0.157855,-0.18057 -0.20449,-0.28902 -0.02144,-0.0499 -0.03182,-0.1597 -0.03182,-0.1597"
       id="path150895-6"
       sodipodi:nodetypes="caac" />
    <path
       style="fill:none;stroke:#00ff00;stroke-width:0.5;stroke-linecap:round;stroke-linejoin:round;stroke-dasharray:none"
       d="m -28.564841,137.37854 c -0.07011,-0.006 -0.26501,-0.0745 -0.348348,-0.174 -0.121707,-0.14541 -0.176197,-0.35671 -0.160852,-0.54574 0.01231,-0.15138 0.110113,-0.28641 0.197596,-0.41052 0.05971,-0.0846 0.218497,-0.22109 0.218497,-0.22109"
       id="path150897-0"
       sodipodi:nodetypes="caaac" />
    <path
       style="fill:none;stroke:#00ff00;stroke-width:0.5;stroke-linecap:round;stroke-linejoin:round;stroke-dasharray:none"
       d="m -29.579067,137.11839 c 0,0 -0.127801,-0.10349 -0.151602,-0.1776 -0.05498,-0.17122 0.04577,-0.53758 0.04577,-0.53758"
       id="path150899-6"
       sodipodi:nodetypes="cac" />
    <path
       style="fill:none;stroke:#00ff00;stroke-width:0.5;stroke-linecap:round;stroke-linejoin:round;stroke-dasharray:none"
       d="m -26.395951,140.12371 c 0,0 -0.208066,0.25148 -0.354293,0.30565 -0.52752,0.19545 -1.125072,0.004 -1.687531,-0.004 -0.598041,-0.008 -1.20421,-0.14648 -1.793719,-0.0455 -0.378273,0.0648 -0.790998,0.15321 -1.075617,0.41063 -0.155008,0.14019 -0.216885,0.36154 -0.281111,0.56041 -0.04282,0.13259 -0.06652,0.41267 -0.06652,0.41267"
       id="path150905-1"
       sodipodi:nodetypes="caaaaac" />
    <path
       style="fill:none;stroke:#00ff00;stroke-width:0.5;stroke-linecap:round;stroke-linejoin:round;stroke-dasharray:none"
       d="m -30.738544,142.10018 c 0,0 0.09335,-0.2213 0.07552,-0.33406 -0.01487,-0.094 -0.08619,-0.17138 -0.145846,-0.2456 -0.03242,-0.0403 -0.05547,-0.0553 -0.113333,-0.1061"
       id="path150907-8"
       sodipodi:nodetypes="caac" />
    <path
       style="fill:none;stroke:#00ff00;stroke-width:0.5;stroke-linecap:round;stroke-linejoin:round;stroke-dasharray:none"
       d="m -25.756899,140.50224 c 0,0 -0.0173,0.39802 -0.09296,0.57786 -0.04982,0.11843 -0.09253,0.24288 -0.188633,0.3569"
       id="path150909-7"
       sodipodi:nodetypes="csc" />
    <path
       style="fill:none;stroke:#00ff00;stroke-width:0.5;stroke-linecap:round;stroke-linejoin:round;stroke-dasharray:none"
       d="m -26.942931,144.60272 c 0,0 -0.258909,-0.0472 -0.341986,-0.13764 -0.265235,-0.28906 -0.315905,-0.73415 -0.3441,-1.12541 -0.0303,-0.42046 0.192555,-1.24991 0.192555,-1.24991"
       id="path150911-9"
       sodipodi:nodetypes="caac" />
    <path
       style="fill:none;stroke:#00ff00;stroke-width:0.5;stroke-linecap:round;stroke-linejoin:round;stroke-dasharray:none"
       d="m -28.134397,142.44674 c 0,0 -0.246543,0.0347 -0.365336,0.008 -0.211591,-0.0479 -0.366334,-0.26264 -0.581107,-0.29313 -0.08756,-0.0119 -0.260766,0.0488 -0.260766,0.0488"
       id="path150913-2"
       sodipodi:nodetypes="caac" />
    <path
       style="fill:none;stroke:#00ff00;stroke-width:0.5;stroke-linecap:round;stroke-linejoin:round;stroke-dasharray:none"
       d="m -29.985296,144.5267 c 0,0 -0.168454,2.6e-4 -0.219357,-0.0554 -0.33567,-0.36707 -0.320998,-0.98372 -0.235726,-1.47389 0.06641,-0.38176 0.560456,-1.0185 0.560456,-1.0185"
       id="path150915-0"
       sodipodi:nodetypes="caac" />
    <path
       style="fill:none;stroke:#00ff00;stroke-width:0.5;stroke-linecap:round;stroke-linejoin:round;stroke-dasharray:none"
       d="m -28.879153,144.4976 c 0,0 -0.183232,-0.0148 -0.252229,-0.0679 -0.32907,-0.25326 -0.543248,-0.67201 -0.62092,-1.07989 -0.03548,-0.18631 0.08248,-0.56296 0.08248,-0.56296"
       id="path150917-2"
       sodipodi:nodetypes="caac" />
    <path
       style="fill:none;stroke:#00ff00;stroke-width:0.5;stroke-linecap:round;stroke-linejoin:round;stroke-dasharray:none"
       d="m -26.147274,144.03216 c 0,0 -0.117328,-0.34114 -0.08228,-0.50961 0.0754,-0.36239 0.655873,-0.56882 0.599539,-0.93474 -0.03561,-0.23125 -0.376151,-0.49558 -0.605659,-0.6197"
       id="path150919-3"
       sodipodi:nodetypes="casc" />
    <path
       style="fill:none;stroke:#00ff00;stroke-width:0.5;stroke-linecap:round;stroke-linejoin:round;stroke-dasharray:none"
       d="m -26.786293,142.1391 -0.09408,0.0368"
       id="path150921-7"
       sodipodi:nodetypes="cc" />
    <path
       style="fill:none;stroke:#00ff00;stroke-width:0.5;stroke-linecap:round;stroke-linejoin:round;stroke-dasharray:none"
       d="m -25.343661,138.15199 c 0,0 0.105229,-0.2005 0.124823,-0.31025 0.03075,-0.17221 -0.04195,-0.35163 -0.01529,-0.52448 0.01509,-0.0983 0.09822,-0.28192 0.09822,-0.28192"
       id="path13159"
       sodipodi:nodetypes="caac" />
    <path
       style="fill:none;stroke:#00ff00;stroke-width:0.5;stroke-linecap:round;stroke-linejoin:round;stroke-dasharray:none"
       d="m -24.657349,137.62695 c 0.04351,-0.0179 0.293872,-0.24279 0.373031,-0.40971 0.0722,-0.15236 0.08794,-0.33215 0.07417,-0.50009 -0.01866,-0.22701 -0.209046,-0.65049 -0.209046,-0.65049"
       id="path13161"
       sodipodi:nodetypes="caac" />
    <path
       style="fill:none;stroke:#00ff00;stroke-width:0.5;stroke-linecap:round;stroke-linejoin:round;stroke-dasharray:none"
       d="m -23.628463,136.49775 c 0.02513,-0.004 0.127739,-0.0485 0.172067,-0.0973 0.07865,-0.0866 0.142907,-0.32048 0.142907,-0.32048"
       id="path13163"
       sodipodi:nodetypes="cac" />
    <path
       style="fill:none;stroke:#00ff00;stroke-width:0.5;stroke-linecap:round;stroke-linejoin:round;stroke-dasharray:none"
       d="m -23.852418,137.57122 c 0.07374,-0.0179 0.220148,-0.0546 0.306585,-0.12276 0.09262,-0.0731 0.157855,-0.18057 0.20449,-0.28902 0.02144,-0.0499 0.03182,-0.1597 0.03182,-0.1597"
       id="path13165"
       sodipodi:nodetypes="caac" />
    <path
       style="fill:none;stroke:#00ff00;stroke-width:0.5;stroke-linecap:round;stroke-linejoin:round;stroke-dasharray:none"
       d="m -22.851776,137.37854 c 0.07011,-0.006 0.26501,-0.0745 0.348348,-0.174 0.121706,-0.14541 0.176197,-0.35671 0.160852,-0.54574 -0.01231,-0.15138 -0.110113,-0.28641 -0.197596,-0.41052 -0.05971,-0.0846 -0.218497,-0.22109 -0.218497,-0.22109"
       id="path13167"
       sodipodi:nodetypes="caaac" />
    <path
       style="fill:none;stroke:#00ff00;stroke-width:0.5;stroke-linecap:round;stroke-linejoin:round;stroke-dasharray:none"
       d="m -21.83755,137.11839 c 0,0 0.127801,-0.10349 0.151601,-0.1776 0.05498,-0.17122 -0.04577,-0.53758 -0.04577,-0.53758"
       id="path13169"
       sodipodi:nodetypes="cac" />
  </g>
</svg>
