<?xml version="1.0" encoding="UTF-8" standalone="no"?>
<!-- Created with Inkscape (http://www.inkscape.org/) -->

<svg
   width="11.235666mm"
   height="9.9481554mm"
   viewBox="0 0 11.235667 9.9481555"
   version="1.1"
   id="svg5"
   inkscape:version="1.3 (0e150ed6c4, 2023-07-21)"
   sodipodi:docname="reindeer_color.svg"
   xmlns:inkscape="http://www.inkscape.org/namespaces/inkscape"
   xmlns:sodipodi="http://sodipodi.sourceforge.net/DTD/sodipodi-0.dtd"
   xmlns="http://www.w3.org/2000/svg"
   xmlns:svg="http://www.w3.org/2000/svg">
  <sodipodi:namedview
     id="namedview7"
     pagecolor="#ffffff"
     bordercolor="#666666"
     borderopacity="1.0"
     inkscape:pageshadow="2"
     inkscape:pageopacity="0"
     inkscape:pagecheckerboard="false"
     inkscape:document-units="mm"
     showgrid="false"
     inkscape:zoom="3.0159327"
     inkscape:cx="97.316495"
     inkscape:cy="75.76429"
     inkscape:window-width="1920"
     inkscape:window-height="1080"
     inkscape:window-x="0"
     inkscape:window-y="0"
     inkscape:window-maximized="1"
     inkscape:current-layer="layer1"
     inkscape:showpageshadow="2"
     inkscape:deskcolor="#ffffff" />
  <defs
     id="defs2">
    <inkscape:path-effect
       effect="simplify"
       id="path-effect320649"
       is_visible="true"
       lpeversion="1"
       steps="1"
       threshold="0.0168421"
       smooth_angles="360"
       helper_size="0"
       simplify_individual_paths="false"
       simplify_just_coalesce="false" />
    <inkscape:path-effect
       effect="simplify"
       id="path-effect320581"
       is_visible="true"
       lpeversion="1"
       steps="1"
       threshold="0.0168421"
       smooth_angles="360"
       helper_size="0"
       simplify_individual_paths="false"
       simplify_just_coalesce="false" />
    <inkscape:path-effect
       effect="simplify"
       id="path-effect320577"
       is_visible="true"
       lpeversion="1"
       steps="1"
       threshold="0.0168421"
       smooth_angles="360"
       helper_size="0"
       simplify_individual_paths="false"
       simplify_just_coalesce="false" />
    <inkscape:path-effect
       effect="simplify"
       id="path-effect320439"
       is_visible="true"
       lpeversion="1"
       steps="1"
       threshold="0.0168421"
       smooth_angles="360"
       helper_size="0"
       simplify_individual_paths="false"
       simplify_just_coalesce="false" />
    <inkscape:path-effect
       effect="simplify"
       id="path-effect320435"
       is_visible="true"
       lpeversion="1"
       steps="1"
       threshold="0.0168421"
       smooth_angles="360"
       helper_size="0"
       simplify_individual_paths="false"
       simplify_just_coalesce="false" />
    <inkscape:path-effect
       effect="simplify"
       id="path-effect320431"
       is_visible="true"
       lpeversion="1"
       steps="1"
       threshold="0.0168421"
       smooth_angles="360"
       helper_size="0"
       simplify_individual_paths="false"
       simplify_just_coalesce="false" />
    <inkscape:path-effect
       effect="simplify"
       id="path-effect320427"
       is_visible="true"
       lpeversion="1"
       steps="1"
       threshold="0.0168421"
       smooth_angles="360"
       helper_size="0"
       simplify_individual_paths="false"
       simplify_just_coalesce="false" />
    <inkscape:path-effect
       effect="simplify"
       id="path-effect320423"
       is_visible="true"
       lpeversion="1"
       steps="1"
       threshold="0.0168421"
       smooth_angles="360"
       helper_size="0"
       simplify_individual_paths="false"
       simplify_just_coalesce="false" />
    <inkscape:path-effect
       effect="simplify"
       id="path-effect320419"
       is_visible="true"
       lpeversion="1"
       steps="1"
       threshold="0.0168421"
       smooth_angles="360"
       helper_size="0"
       simplify_individual_paths="false"
       simplify_just_coalesce="false" />
    <inkscape:path-effect
       effect="simplify"
       id="path-effect320415"
       is_visible="true"
       lpeversion="1"
       steps="1"
       threshold="0.0168421"
       smooth_angles="360"
       helper_size="0"
       simplify_individual_paths="false"
       simplify_just_coalesce="false" />
    <inkscape:path-effect
       effect="simplify"
       id="path-effect320411"
       is_visible="true"
       lpeversion="1"
       steps="1"
       threshold="0.0168421"
       smooth_angles="360"
       helper_size="0"
       simplify_individual_paths="false"
       simplify_just_coalesce="false" />
    <inkscape:path-effect
       effect="simplify"
       id="path-effect320407"
       is_visible="true"
       lpeversion="1"
       steps="1"
       threshold="0.0168421"
       smooth_angles="360"
       helper_size="0"
       simplify_individual_paths="false"
       simplify_just_coalesce="false" />
    <inkscape:path-effect
       effect="simplify"
       id="path-effect320403"
       is_visible="true"
       lpeversion="1"
       steps="1"
       threshold="0.0168421"
       smooth_angles="360"
       helper_size="0"
       simplify_individual_paths="false"
       simplify_just_coalesce="false" />
    <inkscape:path-effect
       effect="simplify"
       id="path-effect320338"
       is_visible="true"
       lpeversion="1"
       steps="1"
       threshold="0.0168421"
       smooth_angles="360"
       helper_size="0"
       simplify_individual_paths="false"
       simplify_just_coalesce="false" />
    <inkscape:path-effect
       effect="simplify"
       id="path-effect320334"
       is_visible="true"
       lpeversion="1"
       steps="1"
       threshold="0.0168421"
       smooth_angles="360"
       helper_size="0"
       simplify_individual_paths="false"
       simplify_just_coalesce="false" />
    <inkscape:path-effect
       effect="simplify"
       id="path-effect320089"
       is_visible="true"
       lpeversion="1"
       steps="1"
       threshold="0.0168421"
       smooth_angles="360"
       helper_size="0"
       simplify_individual_paths="false"
       simplify_just_coalesce="false" />
    <inkscape:path-effect
       effect="simplify"
       id="path-effect319953"
       is_visible="true"
       lpeversion="1"
       steps="1"
       threshold="0.0168421"
       smooth_angles="360"
       helper_size="0"
       simplify_individual_paths="false"
       simplify_just_coalesce="false" />
    <inkscape:path-effect
       effect="simplify"
       id="path-effect319453"
       is_visible="true"
       lpeversion="1"
       steps="1"
       threshold="0.0168421"
       smooth_angles="360"
       helper_size="0"
       simplify_individual_paths="false"
       simplify_just_coalesce="false" />
  </defs>
  <g
     inkscape:label="Layer 1"
     inkscape:groupmode="layer"
     id="layer1"
     transform="translate(32.281494,-135.2677)">
    <g
       id="g319958"
       inkscape:label="color">
      <path
         id="path319451"
         style="fill:#e1d1d1;fill-opacity:1;stroke:none;stroke-width:0.2;stroke-linecap:round;stroke-linejoin:round;stroke-dasharray:none"
         d="m -23.148171,135.27335 c -1.109067,-0.0688 -2.126441,0.4996 -2.911658,1.21441 -0.645879,-0.0557 -0.890166,-1.14068 -1.755553,-0.9149 -0.677919,0.14798 -1.403178,-0.0273 -2.053231,0.19287 -0.787875,0.68866 -0.11975,2.06349 0.844362,2.16596 0.886777,0.34983 1.717234,0.53243 1.6137,1.59363 -0.09731,0.99741 -0.896182,0.51977 -1.508405,0.39008 -0.951962,-0.40755 -2.011901,-0.0408 -2.835818,0.48299 -0.830775,0.4984 -0.58711,1.67017 0.09626,2.17774 0.653204,0.35448 0.88094,1.05405 0.916746,1.74246 0.498678,1.1775 1.773959,0.6789 2.651837,0.45568 0.631209,0.0157 1.26504,0.83461 1.82895,0.20222 0.673598,-0.72407 1.21555,-1.76716 0.864225,-2.76807 -0.245369,-0.75588 -0.05035,-1.55338 0.421005,-2.17559 0.65549,-0.976 1.548806,-1.82172 2.587611,-2.37277 0.637345,-0.16981 1.610003,-0.58068 1.273411,-1.41584 -0.298014,-0.80578 -1.287966,-0.94894 -2.033441,-0.97091 z"
         sodipodi:nodetypes="cccccscccccccccccc" />
      <path
         id="path319951"
         style="fill:#f5efef;fill-opacity:1;stroke:none;stroke-width:0.2;stroke-linecap:round;stroke-linejoin:round;stroke-dasharray:none"
         d="m -24.014784,137.89542 v 5.1e-4 c -0.155672,0.0694 -0.242076,0.23083 -0.388607,0.31471 0.07954,0.003 -0.122767,0.0959 -0.156063,0.13281 -0.135477,0.0827 -0.234215,0.28947 -0.12299,0.42788 0.09598,0.0853 0.236225,0.005 0.34985,0.004 0.145052,-0.0238 0.275933,-0.11112 0.342098,-0.24392 0.10699,-0.1742 0.04665,-0.38505 0.02429,-0.5736 -0.0066,-0.0238 -0.0154,-0.0651 -0.04858,-0.0625 z m -3.498495,0.17931 c -0.0081,-3e-5 -0.01613,4e-4 -0.02429,0.001 -0.07406,1.7e-4 -0.237265,-0.008 -0.10852,0.0879 0.108042,0.0916 0.217445,0.18341 0.283703,0.31161 0.11563,0.13826 0.289658,0.23881 0.473873,0.23616 0.111672,-0.002 0.210589,-0.0542 0.17415,-0.1726 0.002,-0.10392 0.0062,-0.25317 -0.116272,-0.29042 -0.170771,-0.0537 -0.344851,-0.095 -0.518831,-0.13695 -0.05283,-0.0202 -0.107326,-0.0365 -0.163815,-0.0367 z m 1.801441,1.15549 c -0.0478,9.7e-4 -0.09477,0.0153 -0.137976,0.0475 -0.07241,0.0541 -0.125762,0.15603 -0.221692,0.15503 -0.120522,-0.002 -0.183529,0.11868 -0.171049,0.22738 0.0127,0.11059 0.08004,0.19223 0.156579,0.25683 0.144569,0.12203 0.347767,0.21203 0.54312,0.16743 0.06575,-0.0209 0.175976,-0.0485 0.192236,-0.12299 0.02284,-0.10469 0.0027,-0.20884 0.04134,-0.30644 0.04748,-0.1199 -0.01472,-0.1981 -0.08785,-0.2713 -0.08361,-0.0837 -0.201501,-0.15577 -0.314709,-0.15348 z m -0.825273,0.36173 c -0.243051,0.0438 -0.372093,0.27583 -0.542603,0.4284 -0.08778,0.0849 -0.203927,0.13452 -0.324528,0.14573 -0.121215,0.029 -0.2357,0.13305 -0.219624,0.26768 0.01688,0.21799 0.16364,0.39577 0.217557,0.60307 0.128209,0.32449 0.486006,0.46822 0.653707,0.76533 0.217935,0.20285 0.518697,0.31629 0.815971,0.31264 0.09156,-0.007 0.216889,-0.009 0.238229,-0.12196 0.09794,-0.25806 -0.09158,-0.54156 0.03927,-0.79323 0.07737,-0.1066 0.152339,-0.22047 0.172082,-0.35399 0.04974,-0.23315 -0.04582,-0.51125 -0.275952,-0.60978 -0.160054,-0.034 -0.278077,-0.15799 -0.361735,-0.29197 -0.09958,-0.15111 -0.209162,-0.34081 -0.412378,-0.35192 z" />
      <path
         id="path320575"
         style="fill:#d7c1c1;fill-opacity:1;stroke:none;stroke-width:0.2;stroke-linecap:round;stroke-linejoin:round;stroke-dasharray:none"
         d="m -25.293259,137.89593 c -0.0054,3.8e-4 -0.01693,0.006 -0.01654,0.001 -0.09756,0.0143 -0.192964,0.0481 -0.293005,0.0393 -0.216889,-0.003 -0.442288,-0.075 -0.65319,0.005 -0.10018,0.0422 -0.187285,0.11647 -0.29714,0.13384 -0.107563,0.0556 -0.144018,0.19113 -0.135909,0.30386 0.02229,0.16463 0.112793,0.30841 0.166915,0.46302 0.0184,0.0639 0.140505,0.15363 0.181384,0.0754 0.0035,-0.0739 0.08397,-0.0794 0.138493,-0.0987 0.06861,-0.0171 0.137749,-0.0428 0.186552,-0.0961 0.07004,-0.0634 0.20459,-0.0938 0.255799,0.009 0.03764,0.0873 0.09668,0.16532 0.185518,0.20567 0.142915,0.074 0.307051,0.0885 0.464054,0.10697 0.09724,0.004 0.149271,-0.0875 0.161748,-0.17156 0.02016,-0.0947 0.03242,-0.19366 0.08216,-0.27854 0.05995,-0.16542 -0.0201,-0.3508 -0.150378,-0.45837 -0.08167,-0.0874 -0.143708,-0.21753 -0.273885,-0.23771 1.49e-4,-0.002 -7.78e-4,-0.002 -0.0026,-0.002 z m -1.051099,1.0542 5.17e-4,0.004 z m -3.223576,1.16427 v 5.2e-4 c -0.29569,-0.001 -0.652896,0.0543 -0.813387,0.33486 -0.03882,0.18197 0.225081,0.19481 0.350883,0.21911 0.201144,0.0241 0.39768,-0.0776 0.59738,-0.0191 0.192471,0.0528 0.386633,-0.0306 0.580843,0.007 0.205113,0.0223 0.409331,0.0769 0.617016,0.0574 0.192738,0.10207 0.410182,-0.14528 0.24598,-0.31213 -0.09399,-0.15946 -0.266596,-0.25844 -0.451135,-0.26458 -0.374103,-0.0425 -0.752412,-0.003 -1.12758,-0.0227 z m -1.115177,1.30845 c -0.22577,0.002 -0.474261,0.1952 -0.422713,0.43873 0.04071,0.2078 0.259557,0.32202 0.458886,0.30076 0.302395,-0.0135 0.617929,-0.11242 0.909506,0.0181 0.220586,0.0873 0.382803,0.28609 0.622184,0.33383 0.4756,0.14008 0.977406,0.15409 1.469678,0.14986 0.141331,-0.012 0.158549,-0.0741 0.294038,-0.0222 0.191978,0.0127 0.432556,-0.12679 0.401526,-0.34468 0.0091,-0.19875 -0.191386,-0.31096 -0.368969,-0.28836 -0.275178,0.0229 -0.550655,-0.005 -0.826307,5.2e-4 -0.230599,0.005 -0.455065,-0.0519 -0.665592,-0.14211 -0.413299,-0.13257 -0.881416,0.002 -1.268656,-0.22686 -0.182765,-0.097 -0.367491,-0.21695 -0.581877,-0.21704 -0.0072,-3.2e-4 -0.01442,-6e-4 -0.0217,-5.2e-4 z" />
      <path
         id="path320401"
         style="fill:#efe6e6;fill-opacity:1;stroke:none;stroke-width:0.2;stroke-linecap:round;stroke-linejoin:round;stroke-dasharray:none"
         d="m -28.257419,135.66661 c 0.03448,0.31187 -0.111519,0.97711 0.345371,0.9588 0.382805,-0.0332 0.605717,0.30002 0.50529,0.64119 0.04169,0.29766 -0.462048,0.12861 -0.653289,0.13646 -0.288727,-0.10379 -0.731147,-0.0749 -0.79094,-0.46528 -0.12337,-0.27984 0.228042,-0.7148 -0.163985,-0.88341 -0.308249,0.081 -0.304648,0.54325 -0.179091,0.79152 0.09092,0.41187 -0.36072,-0.0565 -0.309047,-0.25492 0.01832,-0.20648 -0.190958,-0.75516 -0.293592,-0.31779 -0.114748,0.28372 -0.274658,0.65 -0.03847,0.91568 0.289269,0.18118 0.670319,0.0906 0.96569,0.28407 0.38937,0.0707 0.765313,0.21591 1.160036,0.24897 0.388817,0.0221 0.79184,-0.0358 1.166454,0.0983 0.196781,0.16554 0.521953,0.66362 0.771216,0.31309 0.06861,-0.39506 -0.158141,-0.79324 -0.303893,-1.15005 -0.294805,-0.25894 -0.503503,0.16479 -0.292136,0.389 -0.01975,0.20235 -0.476117,0.34312 -0.339666,0.0679 -0.200649,-0.29165 -0.327442,-0.62735 -0.265233,-0.9831 0.03448,-0.21048 -0.183709,-0.3298 -0.201811,-0.0515 -0.157269,0.379 -0.584812,0.0618 -0.733267,-0.15872 -0.149981,-0.17191 -0.223268,-0.39668 -0.349636,-0.58031 z m 4.759916,0.25012 c 0.07787,0.28555 -0.207293,0.42431 -0.34576,0.60169 -0.01365,0.44699 0.660661,0.0113 0.515646,-0.30274 -0.01482,-0.11656 -0.07615,-0.22868 -0.169886,-0.29895 z m -0.876433,0.007 c -0.440063,0.14886 0.104346,0.63355 -0.145607,0.91257 -0.108456,0.2445 -0.140047,0.65153 -0.456032,0.69938 0.09102,-0.2453 0.108431,-0.6938 -0.27899,-0.68276 -0.339499,0.1934 -0.10291,0.62577 -0.169046,0.92683 -0.224769,0.18196 -0.176548,0.59516 0.181298,0.53106 0.216093,-0.055 0.186864,-0.40117 0.450382,-0.25134 0.366398,0.0894 0.425295,-0.43765 0.788169,-0.3323 0.388613,0.0286 0.759165,-0.11249 1.136363,-0.18289 0.269639,-0.14276 0.595416,-0.18528 0.907003,-0.25273 0.21457,-0.14751 0.473939,-0.27345 0.469067,-0.57499 0.01131,-0.25461 -0.429945,-0.36024 -0.308909,-0.0232 -0.122077,0.18859 -0.377468,0.43323 -0.220392,0.5809 -0.437097,-0.0479 -0.06175,-0.51219 -0.247014,-0.78067 -0.0033,-0.2673 -0.277798,-0.79711 -0.503441,-0.36057 -0.142742,0.33118 0.463189,0.46053 0.202131,0.82086 -0.15125,0.27869 -0.507745,0.34179 -0.758397,0.47925 0.09993,-0.15752 0.08323,-0.5851 -0.114628,-0.61238 -0.04243,0.32147 -0.25065,0.65073 -0.629342,0.66219 -0.437554,0.0479 0.09728,-0.40374 0.02339,-0.62243 -0.02687,-0.29632 -0.06495,-0.61518 -0.183253,-0.88597 -0.0376,-0.0382 -0.0915,-0.0515 -0.142754,-0.0508 z" />
    </g>
    <g
       id="g319306"
       inkscape:label="lines">
      <path
         style="fill:none;stroke:#000000;stroke-width:0.1;stroke-linecap:round;stroke-linejoin:round;stroke-dasharray:none"
         d="m -25.541872,139.72563 c -0.0028,0.24859 -0.472652,0.24869 -0.447283,-0.0123"
         id="path150865-3"
         sodipodi:nodetypes="caaac" />
      <path
         style="fill:none;stroke:#000000;stroke-width:0.1;stroke-linecap:round;stroke-linejoin:round;stroke-dasharray:none"
         d="m -26.176111,139.42459 c -0.0082,-0.37116 -0.296332,-0.52889 -0.248481,-0.984"
         id="path150867-6"
         sodipodi:nodetypes="cc" />
      <path
         style="fill:none;stroke:#000000;stroke-width:0.1;stroke-linecap:round;stroke-linejoin:round;stroke-dasharray:none"
         d="m -25.358643,139.42187 c 0.01132,-0.19414 0.295158,-0.61806 0.299948,-0.85815"
         id="path150869-7"
         sodipodi:nodetypes="cc" />
      <path
         style="fill:none;stroke:#000000;stroke-width:0.1;stroke-linecap:round;stroke-linejoin:round;stroke-dasharray:none"
         d="m -24.717527,138.65611 c 0.166719,-0.0321 0.360249,-0.32796 0.540508,-0.33318"
         id="path150871-5"
         sodipodi:nodetypes="cc" />
      <path
         style="fill:none;stroke:#000000;stroke-width:0.1;stroke-linecap:round;stroke-linejoin:round;stroke-dasharray:none"
         d="m -26.73277,138.66496 c -0.197433,0.0337 -0.367388,-0.46639 -0.585431,-0.3458"
         id="path150873-3"
         sodipodi:nodetypes="cc" />
      <path
         style="fill:none;stroke:#000000;stroke-width:0.1;stroke-linecap:round;stroke-linejoin:round;stroke-dasharray:none"
         d="m -26.072957,138.15199 c 0,0 -0.105228,-0.2005 -0.124822,-0.31025 -0.03075,-0.17221 0.04195,-0.35163 0.01529,-0.52448 -0.01509,-0.0983 -0.09822,-0.28192 -0.09822,-0.28192"
         id="path150889-0"
         sodipodi:nodetypes="caac" />
      <path
         style="fill:none;stroke:#000000;stroke-width:0.1;stroke-linecap:round;stroke-linejoin:round;stroke-dasharray:none"
         d="m -26.417816,137.73065 c -0.04351,-0.0179 -0.47375,-0.14655 -0.617321,-0.33059 -0.144351,-0.18505 -0.178974,-0.44834 -0.171333,-0.68291 0.0074,-0.22763 0.209046,-0.65049 0.209046,-0.65049"
         id="path150891-9"
         sodipodi:nodetypes="caac" />
      <path
         style="fill:none;stroke:#000000;stroke-width:0.1;stroke-linecap:round;stroke-linejoin:round;stroke-dasharray:none"
         d="m -27.456661,136.69336 c -0.02513,-0.004 -0.373818,-0.14843 -0.50356,-0.29291 -0.07815,-0.087 -0.142907,-0.32048 -0.142907,-0.32048"
         id="path150893-3"
         sodipodi:nodetypes="cac" />
      <path
         style="fill:none;stroke:#000000;stroke-width:0.1;stroke-linecap:round;stroke-linejoin:round;stroke-dasharray:none"
         d="m -27.185639,137.57565 c -0.07374,-0.0179 -0.489497,-0.002 -0.685145,-0.12719 -0.0994,-0.0636 -0.157174,-0.18091 -0.20449,-0.28902 -0.03207,-0.0733 -0.04986,-0.23474 -0.04986,-0.23474"
         id="path150895-6"
         sodipodi:nodetypes="caac" />
      <path
         style="fill:none;stroke:#000000;stroke-width:0.1;stroke-linecap:round;stroke-linejoin:round;stroke-dasharray:none"
         d="m -28.280101,137.44222 c -0.07011,-0.006 -0.479581,-0.0726 -0.633088,-0.23768 -0.129153,-0.13888 -0.176197,-0.35671 -0.160852,-0.54574 0.01231,-0.15138 0.110113,-0.28641 0.197596,-0.41052 0.05971,-0.0846 0.218497,-0.22109 0.218497,-0.22109"
         id="path150897-0"
         sodipodi:nodetypes="caaac" />
      <path
         style="fill:none;stroke:#000000;stroke-width:0.1;stroke-linecap:round;stroke-linejoin:round;stroke-dasharray:none"
         d="m -29.307341,137.17568 c 0,0 -0.275577,-0.0938 -0.344919,-0.20896 -0.09705,-0.16119 -0.03264,-0.56351 -0.03264,-0.56351"
         id="path150899-6"
         sodipodi:nodetypes="cac" />
      <path
         style="fill:none;stroke:#000000;stroke-width:0.1;stroke-linecap:round;stroke-linejoin:round;stroke-dasharray:none"
         d="m -26.395951,140.12371 c 0,0 -0.208066,0.25148 -0.354293,0.30565 -0.52752,0.19545 -1.125072,0.004 -1.687531,-0.004 -0.598041,-0.008 -1.20421,-0.14648 -1.793719,-0.0455 -0.378273,0.0648 -0.790998,0.15321 -1.075617,0.41063 -0.155008,0.14019 -0.221819,0.36001 -0.281111,0.56041 -0.05283,0.17854 -0.06153,0.55518 -0.06153,0.55518"
         id="path150905-1"
         sodipodi:nodetypes="caaaaac" />
      <path
         style="fill:none;stroke:#000000;stroke-width:0.1;stroke-linecap:round;stroke-linejoin:round;stroke-dasharray:none"
         d="m -31.102209,141.33249 c 0.05786,0.0508 0.17674,0.10591 0.252631,0.17461 0.06726,0.0609 0.155229,0.11918 0.176211,0.20745 0.02589,0.1089 -0.101919,0.21683 -0.07899,0.3264 0.01657,0.0791 0.07429,0.1574 0.146837,0.19312 0.04763,0.0234 0.159273,-8.9e-4 0.159273,-8.9e-4"
         id="path150907-8"
         sodipodi:nodetypes="caaaac" />
      <path
         style="fill:none;stroke:#000000;stroke-width:0.1;stroke-linecap:round;stroke-linejoin:round;stroke-dasharray:none"
         d="m -25.705594,140.34593 c 0,0 -0.05437,0.47086 -0.124189,0.69592 -0.06486,0.20909 -0.174693,0.4843 -0.270796,0.59832"
         id="path150909-7"
         sodipodi:nodetypes="cac" />
      <path
         style="fill:none;stroke:#000000;stroke-width:0.1;stroke-linecap:round;stroke-linejoin:round;stroke-dasharray:none"
         d="m -26.942931,144.60272 c 0,0 -0.258909,-0.0472 -0.341986,-0.13764 -0.265235,-0.28906 -0.315905,-0.73415 -0.3441,-1.12541 -0.0303,-0.42046 0.192555,-1.24991 0.192555,-1.24991"
         id="path150911-9"
         sodipodi:nodetypes="caac" />
      <path
         style="fill:none;stroke:#000000;stroke-width:0.1;stroke-linecap:round;stroke-linejoin:round;stroke-dasharray:none"
         d="m -27.806184,142.35317 c 0,0 -0.462918,0.139 -0.693549,0.10157 -0.214149,-0.0347 -0.36639,-0.26208 -0.581107,-0.29313 -0.161309,-0.0233 -0.481068,0.0875 -0.481068,0.0875"
         id="path150913-2"
         sodipodi:nodetypes="caac" />
      <path
         style="fill:none;stroke:#000000;stroke-width:0.1;stroke-linecap:round;stroke-linejoin:round;stroke-dasharray:none"
         d="m -29.985296,144.5267 c 0,0 -0.168454,2.6e-4 -0.219357,-0.0554 -0.33567,-0.36707 -0.320998,-0.98372 -0.235726,-1.47389 0.06641,-0.38176 0.560456,-1.0185 0.560456,-1.0185"
         id="path150915-0"
         sodipodi:nodetypes="caac" />
      <path
         style="fill:none;stroke:#000000;stroke-width:0.1;stroke-linecap:round;stroke-linejoin:round;stroke-dasharray:none"
         d="m -28.879153,144.4976 c 0,0 -0.183232,-0.0148 -0.252229,-0.0679 -0.32907,-0.25326 -0.543248,-0.67201 -0.62092,-1.07989 -0.03548,-0.18631 0.08248,-0.56296 0.08248,-0.56296"
         id="path150917-2"
         sodipodi:nodetypes="caac" />
      <path
         style="fill:none;stroke:#000000;stroke-width:0.1;stroke-linecap:round;stroke-linejoin:round;stroke-dasharray:none"
         d="m -26.147274,144.03216 c 0,0 -0.117328,-0.34114 -0.08228,-0.50961 0.0754,-0.36239 0.655873,-0.56882 0.599539,-0.93474 -0.03561,-0.23125 -0.416882,-0.52998 -0.64639,-0.6541"
         id="path150919-3"
         sodipodi:nodetypes="casc" />
      <path
         style="fill:none;stroke:#000000;stroke-width:0.1;stroke-linecap:round;stroke-linejoin:round;stroke-dasharray:none"
         d="m -26.591788,142.09797 c -0.191581,0.10161 -0.308823,0.11985 -0.496939,0.11241"
         id="path150921-7"
         sodipodi:nodetypes="cc" />
      <path
         style="fill:none;stroke:#000000;stroke-width:0.1;stroke-linecap:round;stroke-linejoin:round;stroke-dasharray:none"
         d="m -25.343661,138.15199 c 0,0 0.105229,-0.2005 0.124823,-0.31025 0.03075,-0.17221 -0.04195,-0.35163 -0.01529,-0.52448 0.01509,-0.0983 0.09822,-0.28192 0.09822,-0.28192"
         id="path13159"
         sodipodi:nodetypes="caac" />
      <path
         style="fill:none;stroke:#000000;stroke-width:0.1;stroke-linecap:round;stroke-linejoin:round;stroke-dasharray:none"
         d="m -24.947653,137.77385 c 0.04351,-0.0179 0.522439,-0.30469 0.663335,-0.55661 0.08226,-0.14708 0.08794,-0.33215 0.07417,-0.50009 -0.01866,-0.22701 -0.209046,-0.65049 -0.209046,-0.65049"
         id="path13161"
         sodipodi:nodetypes="caac" />
      <path
         style="fill:none;stroke:#000000;stroke-width:0.1;stroke-linecap:round;stroke-linejoin:round;stroke-dasharray:none"
         d="m -23.882618,136.667 c 0.02513,-0.004 0.287583,-0.10785 0.381902,-0.22062 0.07675,-0.0918 0.121747,-0.33761 0.121747,-0.33761"
         id="path13163"
         sodipodi:nodetypes="cac" />
      <path
         style="fill:none;stroke:#000000;stroke-width:0.1;stroke-linecap:round;stroke-linejoin:round;stroke-dasharray:none"
         d="m -24.284479,137.6013 c 0.07374,-0.0179 0.52827,-0.0152 0.738646,-0.15284 0.09874,-0.0646 0.157855,-0.18057 0.20449,-0.28902 0.02144,-0.0499 0.03182,-0.1597 0.03182,-0.1597"
         id="path13165"
         sodipodi:nodetypes="caac" />
      <path
         style="fill:none;stroke:#000000;stroke-width:0.1;stroke-linecap:round;stroke-linejoin:round;stroke-dasharray:none"
         d="m -23.228551,137.45569 c 0.07011,-0.006 0.54853,-0.0661 0.725123,-0.25115 0.130928,-0.1372 0.176197,-0.35671 0.160852,-0.54574 -0.01231,-0.15138 -0.110113,-0.28641 -0.197596,-0.41052 -0.05971,-0.0846 -0.218497,-0.22109 -0.218497,-0.22109"
         id="path13167"
         sodipodi:nodetypes="caaac" />
      <path
         style="fill:none;stroke:#000000;stroke-width:0.1;stroke-linecap:round;stroke-linejoin:round;stroke-dasharray:none"
         d="m -22.216908,137.22885 c 0,0 0.407749,-0.11352 0.502216,-0.28036 0.0896,-0.15824 -0.01703,-0.54528 -0.01703,-0.54528"
         id="path13169"
         sodipodi:nodetypes="cac" />
    </g>
  </g>
</svg>
