<?xml version="1.0" encoding="UTF-8" standalone="no"?>
<!-- Created with Inkscape (http://www.inkscape.org/) -->

<svg
   width="331.58701mm"
   height="296.39401mm"
   viewBox="0 0 331.58701 296.39403"
   version="1.1"
   id="svg5"
   inkscape:version="1.3 (0e150ed6c4, 2023-07-21)"
   sodipodi:docname="merge_color.svg"
   xml:space="preserve"
   xmlns:inkscape="http://www.inkscape.org/namespaces/inkscape"
   xmlns:sodipodi="http://sodipodi.sourceforge.net/DTD/sodipodi-0.dtd"
   xmlns="http://www.w3.org/2000/svg"
   xmlns:svg="http://www.w3.org/2000/svg"
   xmlns:ns0="svglink"
   xmlns:ns1="svglink:origin"><sodipodi:namedview
     id="namedview7"
     pagecolor="#ffffff"
     bordercolor="#666666"
     borderopacity="1.0"
     inkscape:pageshadow="2"
     inkscape:pageopacity="0"
     inkscape:pagecheckerboard="false"
     inkscape:document-units="mm"
     showgrid="false"
     inkscape:zoom="0.2000022"
     inkscape:cx="884.99026"
     inkscape:cy="682.49249"
     inkscape:window-width="956"
     inkscape:window-height="1037"
     inkscape:window-x="960"
     inkscape:window-y="0"
     inkscape:window-maximized="1"
     inkscape:current-layer="g19164"
     inkscape:showpageshadow="2"
     inkscape:deskcolor="#ffffff" /><defs
     id="defs2" /><g
     inkscape:label="Layer 1"
     inkscape:groupmode="layer"
     id="g19164"
     transform="translate(209.323,-5.05138)"><g
       inkscape:label="svglink:blueprint.svg"
       ns0:href="blueprint.svg"
       ns1:x="-134.75099"
       ns1:y="164.53099"
       ns0:image-svg-dpi="200"
       ns0:image-height="304.97464"
       ns0:image-width="340.08746"
       id="g677"
       transform="translate(-79.322,-164.22962)"><title
   transform="translate(-134.751, 164.531)"
   id="title1">Exported SVG</title>&#10;&#10;<style
   transform="translate(-134.751, 164.531)"
   id="style1"><![CDATA[
polygon {
shape-rendering:crispEdges;
stroke-width:0.341087;
}
.s0 {
stroke:#000000;
stroke-width:0.516078;
stroke-linecap:round;
stroke-linejoin:round;
fill:none;
}
.s1 {
stroke:#000000;
stroke-width:0.516078;
stroke-linecap:round;
stroke-linejoin:round;
fill:none;
}
.s2 {
stroke:#19b219;
stroke-width:0.516078;
stroke-linecap:round;
stroke-linejoin:round;
fill:none;
}
.s3 {
stroke:#7f4c00;
stroke-width:0.516078;
stroke-linecap:round;
stroke-linejoin:round;
fill:none;
}
.s4 {
stroke:#00cc00;
stroke-width:0.516078;
stroke-linecap:round;
stroke-linejoin:round;
fill:none;
}
.s5 {
stroke:#000000;
stroke-width:0.344052;
stroke-linecap:round;
stroke-linejoin:round;
fill:none;
}
.s6 {
stroke:#ff19ff;
stroke-width:0.344052;
stroke-linecap:round;
stroke-linejoin:round;
fill:none;
}
.s7 {
stroke:#ff0000;
stroke-width:0.516078;
stroke-linecap:round;
stroke-linejoin:round;
fill:none;
}
.s8 {
stroke:#ffff00;
stroke-width:0.516078;
stroke-linecap:round;
stroke-linejoin:round;
fill:none;
}
.s9 {
stroke:#001919;
stroke-width:0.344052;
stroke-linecap:round;
stroke-linejoin:round;
fill:none;
}
.sa {
stroke:#006666;
stroke-width:0.344052;
stroke-linecap:round;
stroke-linejoin:round;
fill:none;
}
.sb {
stroke:#00ffff;
stroke-width:1.032157;
stroke-linecap:round;
stroke-linejoin:round;
fill:none;
}
.sc {
stroke:#ff0000;
stroke-width:2.752418;
stroke-linecap:round;
stroke-linejoin:round;
fill:none;
}
.sd {
stroke:#191919;
stroke-width:0.344052;
stroke-linecap:round;
stroke-linejoin:round;
fill:none;
}
.se {
stroke:#000000;
stroke-width:0.344052;
stroke-linecap:round;
stroke-linejoin:round;
stroke-dasharray:5.161,5.161;
fill:none;
}
.sf {
stroke:#000000;
stroke-width:1.032157;
stroke-linecap:round;
stroke-linejoin:round;
fill:none;
}
.s100 {
stroke:#ff0000;
stroke-width:0.500000;
stroke-linecap:round;
stroke-linejoin:round;
fill:none;
}
.s101 {
stroke:#00ff00;
stroke-width:0.500000;
stroke-linecap:round;
stroke-linejoin:round;
fill:none;
}
]]></style>&#10;<path
   d="m 335.318,163.443 a 5.74,5.74 0 0 0 0.769,-2.87 v -15.252 a 5.74,5.74 0 0 0 -0.769,-2.87 L 262.021,15.496 A 5.74,5.74 0 0 0 259.92,13.395 L 246.711,5.769 A 5.74,5.74 0 0 0 243.841,5 H 97.246 a 5.74,5.74 0 0 0 -2.87,0.769 l -13.209,7.626 a 5.74,5.74 0 0 0 -2.1,2.101 L 5.769,142.451 A 5.74,5.74 0 0 0 5,145.321 v 15.252 a 5.74,5.74 0 0 0 0.769,2.87 l 73.298,126.955 a 5.74,5.74 0 0 0 2.1,2.101 l 13.209,7.626 a 5.74,5.74 0 0 0 2.87,0.769 h 146.595 a 5.74,5.74 0 0 0 2.87,-0.769 l 13.209,-7.626 a 5.74,5.74 0 0 0 2.101,-2.101 l 73.297,-126.955"
   class="s100"
   transform="translate(-134.751,164.531)"
   id="path1" />&#10;<path
   d="m 245.318,11.593 1.37,-2.373 10.254,5.92 -1.37,2.373 -10.254,-5.92"
   class="s100"
   transform="translate(-134.751,164.531)"
   id="path2" />&#10;<path
   d="m 220.245,10.74 h -11.84 V 8 h 11.84 v 2.74"
   class="s100"
   transform="translate(-134.751,164.531)"
   id="path3" />&#10;<path
   d="m 132.683,10.74 h -11.84 V 8 h 11.84 v 2.74"
   class="s100"
   transform="translate(-134.751,164.531)"
   id="path4" />&#10;<path
   d="m 176.464,10.74 h -11.84 V 8 h 11.84 v 2.74"
   class="s100"
   transform="translate(-134.751,164.531)"
   id="path5" />&#10;<path
   d="m 175.677,173.678 10.254,-5.92 0.685,1.187 0.685,1.186 -10.254,5.92 -0.685,-1.186 -0.685,-1.187"
   class="s100"
   transform="translate(-134.751,164.531)"
   id="path6" />&#10;<path
   d="m 191.064,158.867 v -11.84 h 1.37 1.37 v 11.84 h -1.37 -1.37"
   class="s100"
   transform="translate(-134.751,164.531)"
   id="path7" />&#10;<path
   d="m 185.931,138.136 -10.254,-5.92 0.685,-1.187 0.685,-1.186 10.254,5.92 -0.685,1.186 -0.685,1.187"
   class="s100"
   transform="translate(-134.751,164.531)"
   id="path8" />&#10;<path
   d="m 165.41,132.216 -10.254,5.92 -0.685,-1.187 -0.685,-1.186 10.254,-5.92 0.685,1.186 0.685,1.187"
   class="s100"
   transform="translate(-134.751,164.531)"
   id="path9" />&#10;<path
   d="m 150.023,147.027 v 11.84 h -1.37 -1.37 v -11.84 h 1.37 1.37"
   class="s100"
   transform="translate(-134.751,164.531)"
   id="path10" />&#10;<path
   d="m 155.156,167.758 10.254,5.92 -0.685,1.187 -0.685,1.186 -10.254,-5.92 0.685,-1.186 0.685,-1.187"
   class="s100"
   transform="translate(-134.751,164.531)"
   id="path11" />&#10;<path
   d="m 209.191,132.216 -10.254,5.92 -0.685,-1.187 -0.685,-1.186 10.254,-5.92 0.685,1.186 0.685,1.187"
   class="s100"
   transform="translate(-134.751,164.531)"
   id="path12" />&#10;<path
   d="m 198.937,167.758 10.254,5.92 -0.685,1.187 -0.685,1.186 -10.254,-5.92 0.685,-1.186 0.685,-1.187"
   class="s100"
   transform="translate(-134.751,164.531)"
   id="path13" />&#10;<path
   d="m 296.753,132.216 -10.254,5.92 -0.685,-1.187 -0.685,-1.186 10.254,-5.92 0.685,1.186 0.685,1.187"
   class="s100"
   transform="translate(-134.751,164.531)"
   id="path14" />&#10;<path
   d="m 281.366,147.027 v 11.84 h -1.37 -1.37 v -11.84 h 1.37 1.37"
   class="s100"
   transform="translate(-134.751,164.531)"
   id="path15" />&#10;<path
   d="m 286.499,167.758 10.254,5.92 -0.685,1.187 -0.685,1.186 -10.254,-5.92 0.685,-1.186 0.685,-1.187"
   class="s100"
   transform="translate(-134.751,164.531)"
   id="path16" />&#10;<path
   d="m 252.972,132.216 -10.254,5.92 -0.685,-1.187 -0.685,-1.186 10.254,-5.92 0.685,1.186 0.685,1.187"
   class="s100"
   transform="translate(-134.751,164.531)"
   id="path17" />&#10;<path
   d="m 237.585,147.027 v 11.84 h -1.37 -1.37 v -11.84 h 1.37 1.37"
   class="s100"
   transform="translate(-134.751,164.531)"
   id="path18" />&#10;<path
   d="m 242.718,167.758 10.254,5.92 -0.685,1.187 -0.685,1.186 -10.254,-5.92 0.685,-1.186 0.685,-1.187"
   class="s100"
   transform="translate(-134.751,164.531)"
   id="path19" />&#10;<path
   d="m 219.458,173.678 10.254,-5.92 0.685,1.187 0.685,1.186 -10.254,5.92 -0.685,-1.186 -0.685,-1.187"
   class="s100"
   transform="translate(-134.751,164.531)"
   id="path20" />&#10;<path
   d="m 229.712,138.136 -10.254,-5.92 0.685,-1.187 0.685,-1.186 10.254,5.92 -0.685,1.186 -0.685,1.187"
   class="s100"
   transform="translate(-134.751,164.531)"
   id="path21" />&#10;<path
   d="m 263.239,173.678 10.254,-5.92 0.685,1.187 0.685,1.186 -10.254,5.92 -0.685,-1.186 -0.685,-1.187"
   class="s100"
   transform="translate(-134.751,164.531)"
   id="path22" />&#10;<path
   d="m 273.493,138.136 -10.254,-5.92 0.685,-1.187 0.685,-1.186 10.254,5.92 -0.685,1.186 -0.685,1.187"
   class="s100"
   transform="translate(-134.751,164.531)"
   id="path23" />&#10;<path
   d="m 171.914,109.111 v 11.84 h -1.37 -1.37 v -11.84 h 1.37 1.37"
   class="s100"
   transform="translate(-134.751,164.531)"
   id="path24" />&#10;<path
   d="m 215.695,33.281 v 11.84 h -1.37 -1.37 v -11.84 h 1.37 1.37"
   class="s100"
   transform="translate(-134.751,164.531)"
   id="path25" />&#10;<path
   d="m 220.828,54.012 10.254,5.92 -0.685,1.186 -0.685,1.187 -10.254,-5.92 0.685,-1.187 0.685,-1.186"
   class="s100"
   transform="translate(-134.751,164.531)"
   id="path26" />&#10;<path
   d="m 241.348,59.932 10.254,-5.92 0.685,1.186 0.685,1.187 -10.254,5.92 -0.685,-1.187 -0.685,-1.186"
   class="s100"
   transform="translate(-134.751,164.531)"
   id="path27" />&#10;<path
   d="m 193.804,71.196 v 11.84 h -1.37 -1.37 v -11.84 h 1.37 1.37"
   class="s100"
   transform="translate(-134.751,164.531)"
   id="path28" />&#10;<path
   d="m 198.937,91.927 10.254,5.92 -0.685,1.187 -0.685,1.186 -10.254,-5.92 0.685,-1.186 0.685,-1.187"
   class="s100"
   transform="translate(-134.751,164.531)"
   id="path29" />&#10;<path
   d="m 219.458,97.847 10.254,-5.92 0.685,1.187 0.685,1.186 -10.254,5.92 -0.685,-1.186 -0.685,-1.187"
   class="s100"
   transform="translate(-134.751,164.531)"
   id="path30" />&#10;<path
   d="m 171.914,184.942 v 11.84 h -1.37 -1.37 v -11.84 h 1.37 1.37"
   class="s100"
   transform="translate(-134.751,164.531)"
   id="path31" />&#10;<path
   d="m 251.602,251.882 -10.254,-5.92 0.685,-1.186 0.685,-1.187 10.254,5.92 -0.685,1.187 -0.685,1.186"
   class="s100"
   transform="translate(-134.751,164.531)"
   id="path32" />&#10;<path
   d="m 231.082,245.962 -10.254,5.92 -0.685,-1.186 -0.685,-1.187 10.254,-5.92 0.685,1.187 0.685,1.186"
   class="s100"
   transform="translate(-134.751,164.531)"
   id="path33" />&#10;<path
   d="m 215.695,260.773 v 11.84 h -1.37 -1.37 v -11.84 h 1.37 1.37"
   class="s100"
   transform="translate(-134.751,164.531)"
   id="path34" />&#10;<path
   d="m 229.712,213.967 -10.254,-5.92 0.685,-1.187 0.685,-1.186 10.254,5.92 -0.685,1.186 -0.685,1.187"
   class="s100"
   transform="translate(-134.751,164.531)"
   id="path35" />&#10;<path
   d="m 209.191,208.047 -10.254,5.92 -0.685,-1.187 -0.685,-1.186 10.254,-5.92 0.685,1.186 0.685,1.187"
   class="s100"
   transform="translate(-134.751,164.531)"
   id="path36" />&#10;<path
   d="m 193.804,222.858 v 11.84 h -1.37 -1.37 v -11.84 h 1.37 1.37"
   class="s100"
   transform="translate(-134.751,164.531)"
   id="path37" />&#10;<path
   d="m 133.266,129.843 10.254,5.92 -0.685,1.186 -0.685,1.187 -10.254,-5.92 0.685,-1.187 0.685,-1.186"
   class="s100"
   transform="translate(-134.751,164.531)"
   id="path38" />&#10;<path
   d="m 89.485,54.012 10.254,5.92 -0.685,1.186 -0.685,1.187 -10.254,-5.92 0.685,-1.187 0.685,-1.186"
   class="s100"
   transform="translate(-134.751,164.531)"
   id="path39" />&#10;<path
   d="m 110.005,59.932 10.254,-5.92 0.685,1.186 0.685,1.187 -10.254,5.92 -0.685,-1.187 -0.685,-1.186"
   class="s100"
   transform="translate(-134.751,164.531)"
   id="path40" />&#10;<path
   d="m 125.393,45.121 v -11.84 h 1.37 1.37 v 11.84 h -1.37 -1.37"
   class="s100"
   transform="translate(-134.751,164.531)"
   id="path41" />&#10;<path
   d="m 111.375,91.927 10.254,5.92 -0.685,1.187 -0.685,1.186 -10.254,-5.92 0.685,-1.186 0.685,-1.187"
   class="s100"
   transform="translate(-134.751,164.531)"
   id="path42" />&#10;<path
   d="m 131.896,97.847 10.254,-5.92 0.685,1.187 0.685,1.186 -10.254,5.92 -0.685,-1.186 -0.685,-1.187"
   class="s100"
   transform="translate(-134.751,164.531)"
   id="path43" />&#10;<path
   d="m 147.283,83.036 v -11.84 h 1.37 1.37 v 11.84 h -1.37 -1.37"
   class="s100"
   transform="translate(-134.751,164.531)"
   id="path44" />&#10;<path
   d="m 131.896,173.678 10.254,-5.92 0.685,1.187 0.685,1.186 -10.254,5.92 -0.685,-1.186 -0.685,-1.187"
   class="s100"
   transform="translate(-134.751,164.531)"
   id="path45" />&#10;<path
   d="m 44.334,173.678 10.254,-5.92 0.685,1.187 0.685,1.186 -10.254,5.92 -0.685,-1.186 -0.685,-1.187"
   class="s100"
   transform="translate(-134.751,164.531)"
   id="path46" />&#10;<path
   d="m 59.721,158.867 v -11.84 h 1.37 1.37 v 11.84 h -1.37 -1.37"
   class="s100"
   transform="translate(-134.751,164.531)"
   id="path47" />&#10;<path
   d="m 54.588,138.136 -10.254,-5.92 0.685,-1.187 0.685,-1.186 10.254,5.92 -0.685,1.186 -0.685,1.187"
   class="s100"
   transform="translate(-134.751,164.531)"
   id="path48" />&#10;<path
   d="m 88.115,173.678 10.254,-5.92 0.685,1.187 0.685,1.186 -10.254,5.92 -0.685,-1.186 -0.685,-1.187"
   class="s100"
   transform="translate(-134.751,164.531)"
   id="path49" />&#10;<path
   d="m 103.502,158.867 v -11.84 h 1.37 1.37 v 11.84 h -1.37 -1.37"
   class="s100"
   transform="translate(-134.751,164.531)"
   id="path50" />&#10;<path
   d="m 98.369,138.136 -10.254,-5.92 0.685,-1.187 0.685,-1.186 10.254,5.92 -0.685,1.186 -0.685,1.187"
   class="s100"
   transform="translate(-134.751,164.531)"
   id="path51" />&#10;<path
   d="m 125.393,272.613 v -11.84 h 1.37 1.37 v 11.84 h -1.37 -1.37"
   class="s100"
   transform="translate(-134.751,164.531)"
   id="path52" />&#10;<path
   d="m 120.259,251.882 -10.254,-5.92 0.685,-1.186 0.685,-1.187 10.254,5.92 -0.685,1.187 -0.685,1.186"
   class="s100"
   transform="translate(-134.751,164.531)"
   id="path53" />&#10;<path
   d="m 99.739,245.962 -10.254,5.92 -0.685,-1.186 -0.685,-1.187 10.254,-5.92 0.685,1.187 0.685,1.186"
   class="s100"
   transform="translate(-134.751,164.531)"
   id="path54" />&#10;<path
   d="m 147.283,234.698 v -11.84 h 1.37 1.37 v 11.84 h -1.37 -1.37"
   class="s100"
   transform="translate(-134.751,164.531)"
   id="path55" />&#10;<path
   d="m 142.15,213.967 -10.254,-5.92 0.685,-1.187 0.685,-1.186 10.254,5.92 -0.685,1.186 -0.685,1.187"
   class="s100"
   transform="translate(-134.751,164.531)"
   id="path56" />&#10;<path
   d="m 121.629,208.047 -10.254,5.92 -0.685,-1.187 -0.685,-1.186 10.254,-5.92 0.685,1.186 0.685,1.187"
   class="s100"
   transform="translate(-134.751,164.531)"
   id="path57" />&#10;<path
   d="m 212.955,120.951 v -11.84 h 1.37 1.37 v 11.84 h -1.37 -1.37"
   class="s100"
   transform="translate(-134.751,164.531)"
   id="path58" />&#10;<path
   d="m 187.301,94.3 -10.254,5.92 -0.685,-1.186 -0.685,-1.187 10.254,-5.92 0.685,1.187 0.685,1.186"
   class="s100"
   transform="translate(-134.751,164.531)"
   id="path59" />&#10;<path
   d="m 234.845,83.036 v -11.84 h 1.37 1.37 v 11.84 h -1.37 -1.37"
   class="s100"
   transform="translate(-134.751,164.531)"
   id="path60" />&#10;<path
   d="m 209.191,56.385 -10.254,5.92 -0.685,-1.187 -0.685,-1.186 10.254,-5.92 0.685,1.186 0.685,1.187"
   class="s100"
   transform="translate(-134.751,164.531)"
   id="path61" />&#10;<path
   d="m 177.047,205.674 10.254,5.92 -0.685,1.186 -0.685,1.187 -10.254,-5.92 0.685,-1.187 0.685,-1.186"
   class="s100"
   transform="translate(-134.751,164.531)"
   id="path62" />&#10;<path
   d="m 212.955,196.782 v -11.84 h 1.37 1.37 v 11.84 h -1.37 -1.37"
   class="s100"
   transform="translate(-134.751,164.531)"
   id="path63" />&#10;<path
   d="m 198.937,243.589 10.254,5.92 -0.685,1.187 -0.685,1.186 -10.254,-5.92 0.685,-1.186 0.685,-1.187"
   class="s100"
   transform="translate(-134.751,164.531)"
   id="path64" />&#10;<path
   d="m 234.845,234.698 v -11.84 h 1.37 1.37 v 11.84 h -1.37 -1.37"
   class="s100"
   transform="translate(-134.751,164.531)"
   id="path65" />&#10;<path
   d="m 164.04,100.22 -10.254,-5.92 0.685,-1.186 0.685,-1.187 10.254,5.92 -0.685,1.187 -0.685,1.186"
   class="s100"
   transform="translate(-134.751,164.531)"
   id="path66" />&#10;<path
   d="m 128.133,109.111 v 11.84 h -1.37 -1.37 v -11.84 h 1.37 1.37"
   class="s100"
   transform="translate(-134.751,164.531)"
   id="path67" />&#10;<path
   d="m 142.15,62.305 -10.254,-5.92 0.685,-1.187 0.685,-1.186 10.254,5.92 -0.685,1.186 -0.685,1.187"
   class="s100"
   transform="translate(-134.751,164.531)"
   id="path68" />&#10;<path
   d="m 106.242,71.196 v 11.84 h -1.37 -1.37 v -11.84 h 1.37 1.37"
   class="s100"
   transform="translate(-134.751,164.531)"
   id="path69" />&#10;<path
   d="m 121.629,132.216 -10.254,5.92 -0.685,-1.187 -0.685,-1.186 10.254,-5.92 0.685,1.186 0.685,1.187"
   class="s100"
   transform="translate(-134.751,164.531)"
   id="path70" />&#10;<path
   d="m 111.375,167.758 10.254,5.92 -0.685,1.187 -0.685,1.186 -10.254,-5.92 0.685,-1.186 0.685,-1.187"
   class="s100"
   transform="translate(-134.751,164.531)"
   id="path71" />&#10;<path
   d="m 77.848,132.216 -10.254,5.92 -0.685,-1.187 -0.685,-1.186 10.254,-5.92 0.685,1.186 0.685,1.187"
   class="s100"
   transform="translate(-134.751,164.531)"
   id="path72" />&#10;<path
   d="m 67.594,167.758 10.254,5.92 -0.685,1.187 -0.685,1.186 -10.254,-5.92 0.685,-1.186 0.685,-1.187"
   class="s100"
   transform="translate(-134.751,164.531)"
   id="path73" />&#10;<path
   d="m 128.133,184.942 v 11.84 h -1.37 -1.37 v -11.84 h 1.37 1.37"
   class="s100"
   transform="translate(-134.751,164.531)"
   id="path74" />&#10;<path
   d="m 153.786,211.594 10.254,-5.92 0.685,1.186 0.685,1.187 -10.254,5.92 -0.685,-1.187 -0.685,-1.186"
   class="s100"
   transform="translate(-134.751,164.531)"
   id="path75" />&#10;<path
   d="m 106.242,222.858 v 11.84 h -1.37 -1.37 v -11.84 h 1.37 1.37"
   class="s100"
   transform="translate(-134.751,164.531)"
   id="path76" />&#10;<path
   d="m 131.896,249.509 10.254,-5.92 0.685,1.187 0.685,1.186 -10.254,5.92 -0.685,-1.186 -0.685,-1.187"
   class="s100"
   transform="translate(-134.751,164.531)"
   id="path77" />&#10;<path
   d="m 185.931,62.305 -10.254,-5.92 0.685,-1.187 0.685,-1.186 10.254,5.92 -0.685,1.186 -0.685,1.187"
   class="s100"
   transform="translate(-134.751,164.531)"
   id="path78" />&#10;<path
   d="m 99.739,94.3 -10.254,5.92 -0.685,-1.186 -0.685,-1.187 10.254,-5.92 0.685,1.187 0.685,1.186"
   class="s100"
   transform="translate(-134.751,164.531)"
   id="path79" />&#10;<path
   d="m 256.736,120.951 v -11.84 h 1.37 1.37 v 11.84 h -1.37 -1.37"
   class="s100"
   transform="translate(-134.751,164.531)"
   id="path80" />&#10;<path
   d="m 84.352,184.942 v 11.84 h -1.37 -1.37 v -11.84 h 1.37 1.37"
   class="s100"
   transform="translate(-134.751,164.531)"
   id="path81" />&#10;<path
   d="m 155.156,243.589 10.254,5.92 -0.685,1.187 -0.685,1.186 -10.254,-5.92 0.685,-1.186 0.685,-1.187"
   class="s100"
   transform="translate(-134.751,164.531)"
   id="path82" />&#10;<path
   d="m 241.348,211.594 10.254,-5.92 0.685,1.186 0.685,1.187 -10.254,5.92 -0.685,-1.187 -0.685,-1.186"
   class="s100"
   transform="translate(-134.751,164.531)"
   id="path83" />&#10;<path
   d="m 165.41,56.385 -10.254,5.92 -0.685,-1.187 -0.685,-1.186 10.254,-5.92 0.685,1.186 0.685,1.187"
   class="s100"
   transform="translate(-134.751,164.531)"
   id="path84" />&#10;<path
   d="m 84.352,109.111 v 11.84 h -1.37 -1.37 v -11.84 h 1.37 1.37"
   class="s100"
   transform="translate(-134.751,164.531)"
   id="path85" />&#10;<path
   d="m 251.602,100.22 -10.254,-5.92 0.685,-1.186 0.685,-1.187 10.254,5.92 -0.685,1.187 -0.685,1.186"
   class="s100"
   transform="translate(-134.751,164.531)"
   id="path86" />&#10;<path
   d="m 89.485,205.674 10.254,5.92 -0.685,1.186 -0.685,1.187 -10.254,-5.92 0.685,-1.187 0.685,-1.186"
   class="s100"
   transform="translate(-134.751,164.531)"
   id="path87" />&#10;<path
   d="m 175.677,249.509 10.254,-5.92 0.685,1.187 0.685,1.186 -10.254,5.92 -0.685,-1.186 -0.685,-1.187"
   class="s100"
   transform="translate(-134.751,164.531)"
   id="path88" />&#10;<path
   d="m 256.736,196.782 v -11.84 h 1.37 1.37 v 11.84 h -1.37 -1.37"
   class="s100"
   transform="translate(-134.751,164.531)"
   id="path89" />&#10;<path
   d="m 76.478,100.22 -10.254,-5.92 0.685,-1.186 0.685,-1.187 10.254,5.92 -0.685,1.187 -0.685,1.186"
   class="s100"
   transform="translate(-134.751,164.531)"
   id="path90" />&#10;<path
   d="m 77.848,208.047 -10.254,5.92 -0.685,-1.187 -0.685,-1.186 10.254,-5.92 0.685,1.186 0.685,1.187"
   class="s100"
   transform="translate(-134.751,164.531)"
   id="path91" />&#10;<path
   d="m 169.174,45.121 v -11.84 h 1.37 1.37 v 11.84 h -1.37 -1.37"
   class="s100"
   transform="translate(-134.751,164.531)"
   id="path92" />&#10;<path
   d="m 171.914,260.773 v 11.84 h -1.37 -1.37 v -11.84 h 1.37 1.37"
   class="s100"
   transform="translate(-134.751,164.531)"
   id="path93" />&#10;<path
   d="m 264.609,205.674 10.254,5.92 -0.685,1.186 -0.685,1.187 -10.254,-5.92 0.685,-1.187 0.685,-1.186"
   class="s100"
   transform="translate(-134.751,164.531)"
   id="path94" />&#10;<path
   d="m 263.239,97.847 10.254,-5.92 0.685,1.187 0.685,1.186 -10.254,5.92 -0.685,-1.186 -0.685,-1.187"
   class="s100"
   transform="translate(-134.751,164.531)"
   id="path95" />&#10;<path
   d="m 85.515,17.513 -1.37,-2.373 10.254,-5.92 1.37,2.373 -10.254,5.92"
   class="s100"
   transform="translate(-134.751,164.531)"
   id="path96" />&#10;<path
   d="m 72.239,38.801 -5.92,10.254 -2.373,-1.37 5.92,-10.254 2.373,1.37"
   class="s100"
   transform="translate(-134.751,164.531)"
   id="path97" />&#10;<path
   d="m 28.458,114.632 -5.92,10.254 -2.373,-1.37 5.92,-10.254 2.373,1.37"
   class="s100"
   transform="translate(-134.751,164.531)"
   id="path98" />&#10;<path
   d="m 330.347,147.027 h 2.74 v 11.84 h -2.74 v -11.84"
   class="s100"
   transform="translate(-134.751,164.531)"
   id="path99" />&#10;<path
   d="m 318.549,124.886 -5.92,-10.254 2.373,-1.37 5.92,10.254 -2.373,1.37"
   class="s100"
   transform="translate(-134.751,164.531)"
   id="path100" />&#10;<path
   d="m 274.768,49.055 -5.92,-10.254 2.373,-1.37 5.92,10.254 -2.373,1.37"
   class="s100"
   transform="translate(-134.751,164.531)"
   id="path101" />&#10;<path
   d="M 10.74,158.867 H 8 v -11.84 h 2.74 v 11.84"
   class="s100"
   transform="translate(-134.751,164.531)"
   id="path102" />&#10;<path
   d="m 22.538,181.008 5.92,10.254 -2.373,1.37 -5.92,-10.254 2.373,-1.37"
   class="s100"
   transform="translate(-134.751,164.531)"
   id="path103" />&#10;<path
   d="m 66.319,256.839 5.92,10.254 -2.373,1.37 -5.92,-10.254 2.373,-1.37"
   class="s100"
   transform="translate(-134.751,164.531)"
   id="path104" />&#10;<path
   d="m 95.769,294.301 -1.37,2.373 -10.254,-5.92 1.37,-2.373 10.254,5.92"
   class="s100"
   transform="translate(-134.751,164.531)"
   id="path105" />&#10;<path
   d="m 120.843,295.154 h 11.84 v 2.74 h -11.84 v -2.74"
   class="s100"
   transform="translate(-134.751,164.531)"
   id="path106" />&#10;<path
   d="m 208.405,295.154 h 11.84 v 2.74 h -11.84 v -2.74"
   class="s100"
   transform="translate(-134.751,164.531)"
   id="path107" />&#10;<path
   d="m 255.572,288.381 1.37,2.373 -10.254,5.92 -1.37,-2.373 10.254,-5.92"
   class="s100"
   transform="translate(-134.751,164.531)"
   id="path108" />&#10;<path
   d="m 268.848,267.093 5.92,-10.254 2.373,1.37 -5.92,10.254 -2.373,-1.37"
   class="s100"
   transform="translate(-134.751,164.531)"
   id="path109" />&#10;<path
   d="m 312.629,191.262 5.92,-10.254 2.373,1.37 -5.92,10.254 -2.373,-1.37"
   class="s100"
   transform="translate(-134.751,164.531)"
   id="path110" />&#10;<path
   d="m 50.349,76.717 -5.92,10.253 -2.373,-1.37 5.92,-10.253 2.373,1.37"
   class="s100"
   transform="translate(-134.751,164.531)"
   id="path111" />&#10;<path
   d="m 44.429,218.924 5.92,10.253 -2.373,1.37 -5.92,-10.253 2.373,-1.37"
   class="s100"
   transform="translate(-134.751,164.531)"
   id="path112" />&#10;<path
   d="m 164.624,295.154 h 11.84 v 2.74 h -11.84 v -2.74"
   class="s100"
   transform="translate(-134.751,164.531)"
   id="path113" />&#10;<path
   d="m 290.738,229.177 5.92,-10.253 2.373,1.37 -5.92,10.253 -2.373,-1.37"
   class="s100"
   transform="translate(-134.751,164.531)"
   id="path114" />&#10;<path
   d="m 296.658,86.97 -5.92,-10.253 2.373,-1.37 5.92,10.253 -2.373,1.37"
   class="s100"
   transform="translate(-134.751,164.531)"
   id="path115" />&#10;<path
   d="m 186.616,136.949 5.818,3.359 v 6.719"
   class="s101"
   transform="translate(-134.751,164.531)"
   id="path116" />&#10;<path
   d="m 192.434,140.308 5.818,-3.359"
   class="s101"
   transform="translate(-134.751,164.531)"
   id="path117" />&#10;<path
   d="m 208.506,131.029 5.819,-3.359 v -6.719"
   class="s101"
   transform="translate(-134.751,164.531)"
   id="path118" />&#10;<path
   d="m 214.325,127.67 5.818,3.359"
   class="s101"
   transform="translate(-134.751,164.531)"
   id="path119" />&#10;<path
   d="m 214.325,109.111 v -6.718 l -5.819,-3.359"
   class="s101"
   transform="translate(-134.751,164.531)"
   id="path120" />&#10;<path
   d="m 214.325,102.393 5.818,-3.359"
   class="s101"
   transform="translate(-134.751,164.531)"
   id="path121" />&#10;<path
   d="m 230.397,136.949 5.818,3.359 v 6.719"
   class="s101"
   transform="translate(-134.751,164.531)"
   id="path122" />&#10;<path
   d="m 236.215,140.308 5.818,-3.359"
   class="s101"
   transform="translate(-134.751,164.531)"
   id="path123" />&#10;<path
   d="m 252.287,131.029 5.819,-3.359 5.818,3.359"
   class="s101"
   transform="translate(-134.751,164.531)"
   id="path124" />&#10;<path
   d="m 258.106,127.67 v -6.719"
   class="s101"
   transform="translate(-134.751,164.531)"
   id="path125" />&#10;<path
   d="m 230.397,93.114 5.818,-3.36 v -6.718"
   class="s101"
   transform="translate(-134.751,164.531)"
   id="path126" />&#10;<path
   d="m 236.215,89.754 5.818,3.36"
   class="s101"
   transform="translate(-134.751,164.531)"
   id="path127" />&#10;<path
   d="m 258.106,109.111 v -6.718 l -5.819,-3.359"
   class="s101"
   transform="translate(-134.751,164.531)"
   id="path128" />&#10;<path
   d="m 258.106,102.393 5.818,-3.359"
   class="s101"
   transform="translate(-134.751,164.531)"
   id="path129" />&#10;<path
   d="m 236.215,71.196 v -6.719 l -5.818,-3.359"
   class="s101"
   transform="translate(-134.751,164.531)"
   id="path130" />&#10;<path
   d="m 236.215,64.477 5.818,-3.359"
   class="s101"
   transform="translate(-134.751,164.531)"
   id="path131" />&#10;<path
   d="m 274.178,136.949 5.818,3.359 v 6.719"
   class="s101"
   transform="translate(-134.751,164.531)"
   id="path132" />&#10;<path
   d="m 279.996,140.308 5.818,-3.359"
   class="s101"
   transform="translate(-134.751,164.531)"
   id="path133" />&#10;<path
   d="m 274.178,93.114 19.52,-11.271"
   class="s101"
   transform="translate(-134.751,164.531)"
   id="path134" />&#10;<path
   d="m 252.287,55.198 19.521,-11.27"
   class="s101"
   transform="translate(-134.751,164.531)"
   id="path135" />&#10;<path
   d="m 296.068,131.029 19.521,-11.27"
   class="s101"
   transform="translate(-134.751,164.531)"
   id="path136" />&#10;<path
   d="m 164.725,131.029 5.819,-3.359 5.818,3.359"
   class="s101"
   transform="translate(-134.751,164.531)"
   id="path137" />&#10;<path
   d="m 170.544,127.67 v -6.719"
   class="s101"
   transform="translate(-134.751,164.531)"
   id="path138" />&#10;<path
   d="m 170.544,109.111 v -6.718 l -5.819,-3.359"
   class="s101"
   transform="translate(-134.751,164.531)"
   id="path139" />&#10;<path
   d="m 170.544,102.393 5.818,-3.359"
   class="s101"
   transform="translate(-134.751,164.531)"
   id="path140" />&#10;<path
   d="m 154.471,93.114 -5.818,-3.36 -5.818,3.36"
   class="s101"
   transform="translate(-134.751,164.531)"
   id="path141" />&#10;<path
   d="M 148.653,89.754 V 83.036"
   class="s101"
   transform="translate(-134.751,164.531)"
   id="path142" />&#10;<path
   d="m 186.616,93.114 5.818,-3.36 5.818,3.36"
   class="s101"
   transform="translate(-134.751,164.531)"
   id="path143" />&#10;<path
   d="M 192.434,89.754 V 83.036"
   class="s101"
   transform="translate(-134.751,164.531)"
   id="path144" />&#10;<path
   d="m 192.434,71.196 v -6.719 l 5.818,-3.359"
   class="s101"
   transform="translate(-134.751,164.531)"
   id="path145" />&#10;<path
   d="m 192.434,64.477 -5.818,-3.359"
   class="s101"
   transform="translate(-134.751,164.531)"
   id="path146" />&#10;<path
   d="m 148.653,71.196 v -6.719 l -5.818,-3.359"
   class="s101"
   transform="translate(-134.751,164.531)"
   id="path147" />&#10;<path
   d="m 148.653,64.477 5.818,-3.359"
   class="s101"
   transform="translate(-134.751,164.531)"
   id="path148" />&#10;<path
   d="m 176.362,55.198 -5.818,-3.359 -5.819,3.359"
   class="s101"
   transform="translate(-134.751,164.531)"
   id="path149" />&#10;<path
   d="M 170.544,51.839 V 45.121"
   class="s101"
   transform="translate(-134.751,164.531)"
   id="path150" />&#10;<path
   d="m 132.581,55.198 -5.818,-3.359 -5.819,3.359"
   class="s101"
   transform="translate(-134.751,164.531)"
   id="path151" />&#10;<path
   d="M 126.763,51.839 V 45.121"
   class="s101"
   transform="translate(-134.751,164.531)"
   id="path152" />&#10;<path
   d="m 208.506,55.198 5.819,-3.359 5.818,3.359"
   class="s101"
   transform="translate(-134.751,164.531)"
   id="path153" />&#10;<path
   d="M 214.325,51.839 V 45.121"
   class="s101"
   transform="translate(-134.751,164.531)"
   id="path154" />&#10;<path
   d="M 170.544,33.281 V 10.74"
   class="s101"
   transform="translate(-134.751,164.531)"
   id="path155" />&#10;<path
   d="M 126.763,33.281 V 10.74"
   class="s101"
   transform="translate(-134.751,164.531)"
   id="path156" />&#10;<path
   d="M 214.325,33.281 V 10.74"
   class="s101"
   transform="translate(-134.751,164.531)"
   id="path157" />&#10;<path
   d="m 192.434,158.867 v 6.718 l -5.818,3.36"
   class="s101"
   transform="translate(-134.751,164.531)"
   id="path158" />&#10;<path
   d="m 192.434,165.585 5.818,3.36"
   class="s101"
   transform="translate(-134.751,164.531)"
   id="path159" />&#10;<path
   d="m 208.506,174.865 5.819,3.359 5.818,-3.359"
   class="s101"
   transform="translate(-134.751,164.531)"
   id="path160" />&#10;<path
   d="m 214.325,178.224 v 6.718"
   class="s101"
   transform="translate(-134.751,164.531)"
   id="path161" />&#10;<path
   d="m 230.397,168.945 5.818,-3.36 v -6.718"
   class="s101"
   transform="translate(-134.751,164.531)"
   id="path162" />&#10;<path
   d="m 236.215,165.585 5.818,3.36"
   class="s101"
   transform="translate(-134.751,164.531)"
   id="path163" />&#10;<path
   d="m 214.325,196.782 v 6.719 l -5.819,3.359"
   class="s101"
   transform="translate(-134.751,164.531)"
   id="path164" />&#10;<path
   d="m 214.325,203.501 5.818,3.359"
   class="s101"
   transform="translate(-134.751,164.531)"
   id="path165" />&#10;<path
   d="m 230.397,212.78 5.818,3.359 v 6.719"
   class="s101"
   transform="translate(-134.751,164.531)"
   id="path166" />&#10;<path
   d="m 236.215,216.139 5.818,-3.359"
   class="s101"
   transform="translate(-134.751,164.531)"
   id="path167" />&#10;<path
   d="m 252.287,174.865 5.819,3.359 5.818,-3.359"
   class="s101"
   transform="translate(-134.751,164.531)"
   id="path168" />&#10;<path
   d="m 258.106,178.224 v 6.718"
   class="s101"
   transform="translate(-134.751,164.531)"
   id="path169" />&#10;<path
   d="m 252.287,206.86 5.819,-3.359 v -6.719"
   class="s101"
   transform="translate(-134.751,164.531)"
   id="path170" />&#10;<path
   d="m 258.106,203.501 5.818,3.359"
   class="s101"
   transform="translate(-134.751,164.531)"
   id="path171" />&#10;<path
   d="m 274.178,168.945 5.818,-3.36 v -6.718"
   class="s101"
   transform="translate(-134.751,164.531)"
   id="path172" />&#10;<path
   d="m 279.996,165.585 5.818,3.36"
   class="s101"
   transform="translate(-134.751,164.531)"
   id="path173" />&#10;<path
   d="m 236.215,234.698 v 6.718 l -5.818,3.36"
   class="s101"
   transform="translate(-134.751,164.531)"
   id="path174" />&#10;<path
   d="m 236.215,241.416 5.818,3.36"
   class="s101"
   transform="translate(-134.751,164.531)"
   id="path175" />&#10;<path
   d="m 274.178,212.78 19.52,11.27"
   class="s101"
   transform="translate(-134.751,164.531)"
   id="path176" />&#10;<path
   d="m 296.068,174.865 19.521,11.27"
   class="s101"
   transform="translate(-134.751,164.531)"
   id="path177" />&#10;<path
   d="m 252.287,250.696 19.521,11.27"
   class="s101"
   transform="translate(-134.751,164.531)"
   id="path178" />&#10;<path
   d="m 148.653,147.027 v -6.719 l 5.818,-3.359"
   class="s101"
   transform="translate(-134.751,164.531)"
   id="path179" />&#10;<path
   d="m 148.653,140.308 -5.818,-3.359"
   class="s101"
   transform="translate(-134.751,164.531)"
   id="path180" />&#10;<path
   d="m 132.581,131.029 -5.818,-3.359 -5.819,3.359"
   class="s101"
   transform="translate(-134.751,164.531)"
   id="path181" />&#10;<path
   d="m 126.763,127.67 v -6.719"
   class="s101"
   transform="translate(-134.751,164.531)"
   id="path182" />&#10;<path
   d="m 110.69,136.949 -5.818,3.359 v 6.719"
   class="s101"
   transform="translate(-134.751,164.531)"
   id="path183" />&#10;<path
   d="m 104.872,140.308 -5.818,-3.359"
   class="s101"
   transform="translate(-134.751,164.531)"
   id="path184" />&#10;<path
   d="m 126.763,109.111 v -6.718 l 5.818,-3.359"
   class="s101"
   transform="translate(-134.751,164.531)"
   id="path185" />&#10;<path
   d="m 126.763,102.393 -5.819,-3.359"
   class="s101"
   transform="translate(-134.751,164.531)"
   id="path186" />&#10;<path
   d="m 110.69,93.114 -5.818,-3.36 v -6.718"
   class="s101"
   transform="translate(-134.751,164.531)"
   id="path187" />&#10;<path
   d="m 104.872,89.754 -5.818,3.36"
   class="s101"
   transform="translate(-134.751,164.531)"
   id="path188" />&#10;<path
   d="m 88.8,131.029 -5.818,-3.359 -5.819,3.359"
   class="s101"
   transform="translate(-134.751,164.531)"
   id="path189" />&#10;<path
   d="m 82.982,127.67 v -6.719"
   class="s101"
   transform="translate(-134.751,164.531)"
   id="path190" />&#10;<path
   d="m 88.8,99.034 -5.818,3.359 v 6.718"
   class="s101"
   transform="translate(-134.751,164.531)"
   id="path191" />&#10;<path
   d="M 82.982,102.393 77.163,99.034"
   class="s101"
   transform="translate(-134.751,164.531)"
   id="path192" />&#10;<path
   d="m 66.909,136.949 -5.818,3.359 v 6.719"
   class="s101"
   transform="translate(-134.751,164.531)"
   id="path193" />&#10;<path
   d="m 61.091,140.308 -5.818,-3.359"
   class="s101"
   transform="translate(-134.751,164.531)"
   id="path194" />&#10;<path
   d="m 104.872,71.196 v -6.719 l 5.818,-3.359"
   class="s101"
   transform="translate(-134.751,164.531)"
   id="path195" />&#10;<path
   d="M 104.872,64.477 99.054,61.118"
   class="s101"
   transform="translate(-134.751,164.531)"
   id="path196" />&#10;<path
   d="M 66.909,93.114 47.389,81.843"
   class="s101"
   transform="translate(-134.751,164.531)"
   id="path197" />&#10;<path
   d="M 45.019,131.029 25.498,119.759"
   class="s101"
   transform="translate(-134.751,164.531)"
   id="path198" />&#10;<path
   d="M 88.8,55.198 69.279,43.928"
   class="s101"
   transform="translate(-134.751,164.531)"
   id="path199" />&#10;<path
   d="m 154.471,168.945 -5.818,-3.36 v -6.718"
   class="s101"
   transform="translate(-134.751,164.531)"
   id="path200" />&#10;<path
   d="m 148.653,165.585 -5.818,3.36"
   class="s101"
   transform="translate(-134.751,164.531)"
   id="path201" />&#10;<path
   d="m 132.581,174.865 -5.818,3.359 v 6.718"
   class="s101"
   transform="translate(-134.751,164.531)"
   id="path202" />&#10;<path
   d="m 126.763,178.224 -5.819,-3.359"
   class="s101"
   transform="translate(-134.751,164.531)"
   id="path203" />&#10;<path
   d="m 126.763,196.782 v 6.719 l 5.818,3.359"
   class="s101"
   transform="translate(-134.751,164.531)"
   id="path204" />&#10;<path
   d="m 126.763,203.501 -5.819,3.359"
   class="s101"
   transform="translate(-134.751,164.531)"
   id="path205" />&#10;<path
   d="m 110.69,168.945 -5.818,-3.36 v -6.718"
   class="s101"
   transform="translate(-134.751,164.531)"
   id="path206" />&#10;<path
   d="m 104.872,165.585 -5.818,3.36"
   class="s101"
   transform="translate(-134.751,164.531)"
   id="path207" />&#10;<path
   d="m 88.8,174.865 -5.818,3.359 -5.819,-3.359"
   class="s101"
   transform="translate(-134.751,164.531)"
   id="path208" />&#10;<path
   d="m 82.982,178.224 v 6.718"
   class="s101"
   transform="translate(-134.751,164.531)"
   id="path209" />&#10;<path
   d="m 110.69,212.78 -5.818,3.359 v 6.719"
   class="s101"
   transform="translate(-134.751,164.531)"
   id="path210" />&#10;<path
   d="M 104.872,216.139 99.054,212.78"
   class="s101"
   transform="translate(-134.751,164.531)"
   id="path211" />&#10;<path
   d="m 82.982,196.782 v 6.719 l 5.818,3.359"
   class="s101"
   transform="translate(-134.751,164.531)"
   id="path212" />&#10;<path
   d="m 82.982,203.501 -5.819,3.359"
   class="s101"
   transform="translate(-134.751,164.531)"
   id="path213" />&#10;<path
   d="m 104.872,234.698 v 6.718 l 5.818,3.36"
   class="s101"
   transform="translate(-134.751,164.531)"
   id="path214" />&#10;<path
   d="m 104.872,241.416 -5.818,3.36"
   class="s101"
   transform="translate(-134.751,164.531)"
   id="path215" />&#10;<path
   d="m 66.909,168.945 -5.818,-3.36 v -6.718"
   class="s101"
   transform="translate(-134.751,164.531)"
   id="path216" />&#10;<path
   d="m 61.091,165.585 -5.818,3.36"
   class="s101"
   transform="translate(-134.751,164.531)"
   id="path217" />&#10;<path
   d="m 66.909,212.78 -19.52,11.27"
   class="s101"
   transform="translate(-134.751,164.531)"
   id="path218" />&#10;<path
   d="m 88.8,250.696 -19.521,11.27"
   class="s101"
   transform="translate(-134.751,164.531)"
   id="path219" />&#10;<path
   d="m 45.019,174.865 -19.521,11.27"
   class="s101"
   transform="translate(-134.751,164.531)"
   id="path220" />&#10;<path
   d="m 176.362,174.865 -5.818,3.359 -5.819,-3.359"
   class="s101"
   transform="translate(-134.751,164.531)"
   id="path221" />&#10;<path
   d="m 170.544,178.224 v 6.718"
   class="s101"
   transform="translate(-134.751,164.531)"
   id="path222" />&#10;<path
   d="m 170.544,196.782 v 6.719 l 5.818,3.359"
   class="s101"
   transform="translate(-134.751,164.531)"
   id="path223" />&#10;<path
   d="m 170.544,203.501 -5.819,3.359"
   class="s101"
   transform="translate(-134.751,164.531)"
   id="path224" />&#10;<path
   d="m 186.616,212.78 5.818,3.359 5.818,-3.359"
   class="s101"
   transform="translate(-134.751,164.531)"
   id="path225" />&#10;<path
   d="m 192.434,216.139 v 6.719"
   class="s101"
   transform="translate(-134.751,164.531)"
   id="path226" />&#10;<path
   d="m 154.471,212.78 -5.818,3.359 -5.818,-3.359"
   class="s101"
   transform="translate(-134.751,164.531)"
   id="path227" />&#10;<path
   d="m 148.653,216.139 v 6.719"
   class="s101"
   transform="translate(-134.751,164.531)"
   id="path228" />&#10;<path
   d="m 148.653,234.698 v 6.718 l -5.818,3.36"
   class="s101"
   transform="translate(-134.751,164.531)"
   id="path229" />&#10;<path
   d="m 148.653,241.416 5.818,3.36"
   class="s101"
   transform="translate(-134.751,164.531)"
   id="path230" />&#10;<path
   d="m 192.434,234.698 v 6.718 l 5.818,3.36"
   class="s101"
   transform="translate(-134.751,164.531)"
   id="path231" />&#10;<path
   d="m 192.434,241.416 -5.818,3.36"
   class="s101"
   transform="translate(-134.751,164.531)"
   id="path232" />&#10;<path
   d="m 164.725,250.696 5.819,3.359 5.818,-3.359"
   class="s101"
   transform="translate(-134.751,164.531)"
   id="path233" />&#10;<path
   d="m 170.544,254.055 v 6.718"
   class="s101"
   transform="translate(-134.751,164.531)"
   id="path234" />&#10;<path
   d="m 208.506,250.696 5.819,3.359 5.818,-3.359"
   class="s101"
   transform="translate(-134.751,164.531)"
   id="path235" />&#10;<path
   d="m 214.325,254.055 v 6.718"
   class="s101"
   transform="translate(-134.751,164.531)"
   id="path236" />&#10;<path
   d="m 132.581,250.696 -5.818,3.359 -5.819,-3.359"
   class="s101"
   transform="translate(-134.751,164.531)"
   id="path237" />&#10;<path
   d="m 126.763,254.055 v 6.718"
   class="s101"
   transform="translate(-134.751,164.531)"
   id="path238" />&#10;<path
   d="m 170.544,272.613 v 22.541"
   class="s101"
   transform="translate(-134.751,164.531)"
   id="path239" />&#10;<path
   d="m 214.325,272.613 v 22.541"
   class="s101"
   transform="translate(-134.751,164.531)"
   id="path240" />&#10;<path
   d="m 126.763,272.613 v 22.541"
   class="s101"
   transform="translate(-134.751,164.531)"
   id="path241" />&#10;&#10;</g></g></svg>
