<?xml version="1.0" encoding="UTF-8" standalone="no"?>
<!-- Created with Inkscape (http://www.inkscape.org/) -->

<svg
   width="16.072338mm"
   height="16.072338mm"
   viewBox="0 0 16.072338 16.072339"
   version="1.1"
   id="svg5"
   inkscape:version="1.2.2 (b0a8486541, 2022-12-01)"
   sodipodi:docname="balloon_3.svg"
   xmlns:inkscape="http://www.inkscape.org/namespaces/inkscape"
   xmlns:sodipodi="http://sodipodi.sourceforge.net/DTD/sodipodi-0.dtd"
   xmlns="http://www.w3.org/2000/svg"
   xmlns:svg="http://www.w3.org/2000/svg">
  <sodipodi:namedview
     id="namedview7"
     pagecolor="#4d4d4d"
     bordercolor="#666666"
     borderopacity="1.0"
     inkscape:pageshadow="2"
     inkscape:pageopacity="0"
     inkscape:pagecheckerboard="false"
     inkscape:document-units="mm"
     showgrid="false"
     inkscape:zoom="6.4000703"
     inkscape:cx="28.046567"
     inkscape:cy="44.218264"
     inkscape:window-width="1916"
     inkscape:window-height="1037"
     inkscape:window-x="0"
     inkscape:window-y="0"
     inkscape:window-maximized="1"
     inkscape:current-layer="layer1"
     inkscape:showpageshadow="2"
     inkscape:deskcolor="#4d4d4d" />
  <defs
     id="defs2" />
  <g
     inkscape:label="Layer 1"
     inkscape:groupmode="layer"
     id="layer1"
     transform="translate(77.949509,-113.28569)">
    <g
       id="g21215"
       transform="translate(-98.585616,92.484268)">
      <g
         id="g11455"
         transform="rotate(-9.9674355,20.830768,30.739106)"
         style="stroke:#000000">
        <g
           id="g9619"
           transform="matrix(0.13418266,-0.03186452,0.03068101,0.13935874,8.1804942,30.612435)"
           style="stroke:#000000;stroke-width:0.712884;stroke-dasharray:none">
          <path
             id="path3134"
             style="fill:none;fill-opacity:1;stroke:#000000;stroke-width:0.712885;stroke-linecap:round;stroke-linejoin:round;stroke-dasharray:none;stroke-opacity:1"
             d="m 118.01452,-39.065107 c 0.14061,0.14666 0.30591,0.301535 0.50795,0.353998 0.51748,0.134375 1.12172,0.07846 1.60306,-0.152598 0.18958,-0.09101 0.32269,-0.27655 0.43121,-0.449976"
             transform="matrix(0.96381222,0.26658206,-0.26466987,0.96433908,0,0)"
             sodipodi:nodetypes="caac" />
          <path
             id="path2171"
             style="fill:none;fill-opacity:1;stroke:#000000;stroke-width:0.712884;stroke-linecap:round;stroke-linejoin:round;stroke-dasharray:none;stroke-opacity:1"
             d="m 142.97231,-0.59306419 c -1.93578,-1.68523391 -6.2447,-3.66330901 -11.44483,-5.10166261 -5.02684,-1.3904923 -9.54977,-1.9068935 -12.09793,-1.5241545"
             sodipodi:nodetypes="ccc" />
          <path
             style="fill:none;fill-opacity:1;stroke:#000000;stroke-width:0.712884;stroke-linecap:round;stroke-linejoin:round;stroke-dasharray:none;stroke-opacity:1"
             d="M 121.03758,18.782363 119.39138,7.2391352"
             id="path2811-7"
             sodipodi:nodetypes="cc" />
          <path
             style="fill:none;fill-opacity:1;stroke:#000000;stroke-width:0.712884;stroke-linecap:round;stroke-linejoin:round;stroke-dasharray:none;stroke-opacity:1"
             d="m 129.84809,20.803096 5.7354,-9.081403"
             id="path2813-5"
             sodipodi:nodetypes="cc" />
          <path
             style="fill:none;fill-opacity:1;stroke:#000000;stroke-width:0.712884;stroke-linecap:round;stroke-linejoin:round;stroke-dasharray:none;stroke-opacity:1"
             d="M 125.08559,-1.7311777 123.52095,19.234517"
             id="path3036-3"
             sodipodi:nodetypes="cc" />
          <path
             style="fill:none;fill-opacity:1;stroke:#000000;stroke-width:0.712884;stroke-linecap:round;stroke-linejoin:round;stroke-dasharray:none;stroke-opacity:1"
             d="M 138.35336,-0.02631116 127.94236,20.265656"
             id="path3038-5"
             sodipodi:nodetypes="cc" />
          <path
             id="path3136"
             style="fill:none;fill-opacity:1;stroke:#000000;stroke-width:0.712885;stroke-linecap:round;stroke-linejoin:round;stroke-dasharray:none;stroke-opacity:1"
             d="m 132.26261,-39.209286 c 0.0214,0.337152 0.14069,0.716267 0.41136,0.928913 0.4839,0.380172 1.23289,0.517654 1.83852,0.361475 0.31685,-0.08171 0.59196,-0.466393 0.73893,-0.627716"
             transform="matrix(0.96381222,0.26658206,-0.26466987,0.96433908,0,0)"
             sodipodi:nodetypes="caac" />
          <path
             style="fill:none;fill-opacity:1;stroke:#000000;stroke-width:0.712884;stroke-linecap:round;stroke-linejoin:round;stroke-dasharray:none;stroke-opacity:1"
             d="m 118.07881,0.50402348 c 0.38663,0.23842716 0.8659,0.41481937 1.42822,0.39780453 2.16654,-0.0655561 4.20203,-3.19671941 5.20927,-5.01370131 m 1.05285,1.064562 c 0.569,1.8760715 1.87908,5.352916 4.02995,6.1298471 2.53805,0.9167888 4.88235,-0.4183438 6.61025,-1.8095132 m 2.2085,0.8344839 c 0.0679,1.3263274 0.33355,2.7380882 1.08742,3.3995303 0.2287,0.2006618 0.63663,0.2545601 1.04741,0.2461027"
             id="path3234"
             sodipodi:nodetypes="csccsccsc" />
          <path
             id="path15064"
             style="fill:none;fill-opacity:1;stroke:#000000;stroke-width:0.712884;stroke-linecap:round;stroke-linejoin:round;stroke-dasharray:none;stroke-opacity:1"
             d="m 128.30444,13.926644 1.4234,-2.653058 c 0.54682,0.04048 0.85706,0.0061 1.39283,-0.01611 m 2.86738,-0.320946 C 138.9509,9.7569198 142.96252,5.8972065 144.1248,0.74543535 145.78391,-6.6173454 141.07561,-13.984245 133.60836,-15.709212 c -7.46731,-1.724693 -14.86581,2.845711 -16.52521,10.2084295 -1.18137,5.25951388 0.88873,10.6219358 5.04532,13.847416 0.3699,0.2870404 0.46996,0.3804445 0.87209,0.6320594 m 2.23441,1.1938751 0.14973,3.079618"
             sodipodi:nodetypes="cccccccsccc" />
        </g>
        <g
           id="g10956"
           transform="matrix(0.57503673,0,0,0.57304849,11.675621,13.255146)"
           style="stroke:#000000;stroke-width:0.174203;stroke-dasharray:none;stroke-opacity:1">
          <path
             id="path5757-3"
             style="fill:none;fill-opacity:1;stroke:#000000;stroke-width:0.174203;stroke-linecap:round;stroke-linejoin:round;stroke-dasharray:none;stroke-opacity:1"
             d="m 25.218932,28.402868 -0.230405,1.76284 -1.453241,0.01511 -0.264695,-1.757692 z"
             sodipodi:nodetypes="ccccc" />
          <path
             style="fill:none;fill-opacity:1;stroke:#000000;stroke-width:0.174203;stroke-linecap:round;stroke-linejoin:round;stroke-dasharray:none;stroke-opacity:1"
             d="m 23.652333,28.990023 1.253584,-0.0014"
             id="path5763-5"
             sodipodi:nodetypes="cc" />
          <path
             style="fill:none;fill-opacity:1;stroke:#000000;stroke-width:0.174203;stroke-linecap:round;stroke-linejoin:round;stroke-dasharray:none;stroke-opacity:1"
             d="m 23.694126,29.695891 0.805764,-5.52e-4"
             id="path5765-6"
             sodipodi:nodetypes="cc" />
        </g>
      </g>
      <g
         id="g18078"
         transform="rotate(1.8679837,-34.329299,118.97163)"
         style="stroke:#000000">
        <g
           id="g18068"
           transform="matrix(0.13418266,-0.03186452,0.03068101,0.13935874,8.1804942,30.612435)"
           style="stroke:#000000;stroke-width:0.712884;stroke-dasharray:none">
          <path
             id="path18050"
             style="fill:none;fill-opacity:1;stroke:#000000;stroke-width:0.712885;stroke-linecap:round;stroke-linejoin:round;stroke-dasharray:none;stroke-opacity:1"
             d="m 118.01452,-39.065107 c 0.14061,0.14666 0.30591,0.301535 0.50795,0.353998 0.51748,0.134375 1.12172,0.07846 1.60306,-0.152598 0.18958,-0.09101 0.32269,-0.27655 0.43121,-0.449976"
             transform="matrix(0.96381222,0.26658206,-0.26466987,0.96433908,0,0)"
             sodipodi:nodetypes="caac" />
          <path
             id="path18052"
             style="fill:none;fill-opacity:1;stroke:#000000;stroke-width:0.712884;stroke-linecap:round;stroke-linejoin:round;stroke-dasharray:none;stroke-opacity:1"
             d="m 142.97231,-0.59306419 c -1.93578,-1.68523391 -6.2447,-3.66330901 -11.44483,-5.10166261 -5.02684,-1.3904923 -9.54977,-1.9068935 -12.09793,-1.5241545"
             sodipodi:nodetypes="ccc" />
          <path
             style="fill:none;fill-opacity:1;stroke:#000000;stroke-width:0.712884;stroke-linecap:round;stroke-linejoin:round;stroke-dasharray:none;stroke-opacity:1"
             d="M 121.03758,18.782363 119.39138,7.2391352"
             id="path18054"
             sodipodi:nodetypes="cc" />
          <path
             style="fill:none;fill-opacity:1;stroke:#000000;stroke-width:0.712884;stroke-linecap:round;stroke-linejoin:round;stroke-dasharray:none;stroke-opacity:1"
             d="m 129.84809,20.803096 5.7354,-9.081403"
             id="path18056"
             sodipodi:nodetypes="cc" />
          <path
             style="fill:none;fill-opacity:1;stroke:#000000;stroke-width:0.712884;stroke-linecap:round;stroke-linejoin:round;stroke-dasharray:none;stroke-opacity:1"
             d="M 125.08559,-1.7311777 123.52095,19.234517"
             id="path18058"
             sodipodi:nodetypes="cc" />
          <path
             style="fill:none;fill-opacity:1;stroke:#000000;stroke-width:0.712884;stroke-linecap:round;stroke-linejoin:round;stroke-dasharray:none;stroke-opacity:1"
             d="M 138.35336,-0.02631116 127.94236,20.265656"
             id="path18060"
             sodipodi:nodetypes="cc" />
          <path
             id="path18062"
             style="fill:none;fill-opacity:1;stroke:#000000;stroke-width:0.712885;stroke-linecap:round;stroke-linejoin:round;stroke-dasharray:none;stroke-opacity:1"
             d="m 132.26261,-39.209286 c 0.0214,0.337152 0.14069,0.716267 0.41136,0.928913 0.4839,0.380172 1.23289,0.517654 1.83852,0.361475 0.31685,-0.08171 0.59196,-0.466393 0.73893,-0.627716"
             transform="matrix(0.96381222,0.26658206,-0.26466987,0.96433908,0,0)"
             sodipodi:nodetypes="caac" />
          <path
             style="fill:none;fill-opacity:1;stroke:#000000;stroke-width:0.712884;stroke-linecap:round;stroke-linejoin:round;stroke-dasharray:none;stroke-opacity:1"
             d="m 118.07881,0.50402348 c 0.38663,0.23842716 0.8659,0.41481937 1.42822,0.39780453 2.16654,-0.0655561 4.20203,-3.19671941 5.20927,-5.01370131 m 1.05285,1.064562 c 0.569,1.8760715 1.87908,5.352916 4.02995,6.1298471 2.53805,0.9167888 4.88235,-0.4183438 6.61025,-1.8095132 m 2.2085,0.8344839 c 0.0679,1.3263274 0.33355,2.7380882 1.08742,3.3995303 0.2287,0.2006618 0.63663,0.2545601 1.04741,0.2461027"
             id="path18064"
             sodipodi:nodetypes="csccsccsc" />
          <path
             id="path18066"
             style="fill:none;fill-opacity:1;stroke:#000000;stroke-width:0.712884;stroke-linecap:round;stroke-linejoin:round;stroke-dasharray:none;stroke-opacity:1"
             d="m 128.30444,13.926644 1.4234,-2.653058 c 0.54682,0.04048 0.85706,0.0061 1.39283,-0.01611 m 2.86738,-0.320946 C 138.9509,9.7569198 142.96252,5.8972065 144.1248,0.74543535 145.78391,-6.6173454 141.07561,-13.984245 133.60836,-15.709212 c -7.46731,-1.724693 -14.86581,2.845711 -16.52521,10.2084295 -1.18137,5.25951388 0.88873,10.6219358 5.04532,13.847416 0.3699,0.2870404 0.46996,0.3804445 0.87209,0.6320594 m 2.23441,1.1938751 0.14973,3.079618"
             sodipodi:nodetypes="cccccccsccc" />
        </g>
        <g
           id="g18076"
           transform="matrix(0.57503673,0,0,0.57304849,11.675621,13.255146)"
           style="stroke:#000000;stroke-width:0.174203;stroke-dasharray:none;stroke-opacity:1">
          <path
             id="path18070"
             style="fill:none;fill-opacity:1;stroke:#000000;stroke-width:0.174203;stroke-linecap:round;stroke-linejoin:round;stroke-dasharray:none;stroke-opacity:1"
             d="m 25.218932,28.402868 -0.230405,1.76284 -1.453241,0.01511 -0.264695,-1.757692 z"
             sodipodi:nodetypes="ccccc" />
          <path
             style="fill:none;fill-opacity:1;stroke:#000000;stroke-width:0.174203;stroke-linecap:round;stroke-linejoin:round;stroke-dasharray:none;stroke-opacity:1"
             d="m 23.652333,28.990023 1.253584,-0.0014"
             id="path18072"
             sodipodi:nodetypes="cc" />
          <path
             style="fill:none;fill-opacity:1;stroke:#000000;stroke-width:0.174203;stroke-linecap:round;stroke-linejoin:round;stroke-dasharray:none;stroke-opacity:1"
             d="m 23.694126,29.695891 0.805764,-5.52e-4"
             id="path18074"
             sodipodi:nodetypes="cc" />
        </g>
      </g>
      <g
         id="g18108"
         transform="rotate(9.4282752,-2.310247,69.295796)"
         style="stroke:#000000">
        <g
           id="g18098"
           transform="matrix(0.13418266,-0.03186452,0.03068101,0.13935874,8.1804942,30.612435)"
           style="stroke:#000000;stroke-width:0.712884;stroke-dasharray:none">
          <path
             id="path18080"
             style="fill:none;fill-opacity:1;stroke:#000000;stroke-width:0.712885;stroke-linecap:round;stroke-linejoin:round;stroke-dasharray:none;stroke-opacity:1"
             d="m 118.01452,-39.065107 c 0.14061,0.14666 0.30591,0.301535 0.50795,0.353998 0.51748,0.134375 1.12172,0.07846 1.60306,-0.152598 0.18958,-0.09101 0.32269,-0.27655 0.43121,-0.449976"
             transform="matrix(0.96381222,0.26658206,-0.26466987,0.96433908,0,0)"
             sodipodi:nodetypes="caac" />
          <path
             id="path18082"
             style="fill:none;fill-opacity:1;stroke:#000000;stroke-width:0.712884;stroke-linecap:round;stroke-linejoin:round;stroke-dasharray:none;stroke-opacity:1"
             d="m 142.97231,-0.59306419 c -1.93578,-1.68523391 -6.2447,-3.66330901 -11.44483,-5.10166261 -5.02684,-1.3904923 -9.54977,-1.9068935 -12.09793,-1.5241545"
             sodipodi:nodetypes="ccc" />
          <path
             style="fill:none;fill-opacity:1;stroke:#000000;stroke-width:0.712884;stroke-linecap:round;stroke-linejoin:round;stroke-dasharray:none;stroke-opacity:1"
             d="M 121.03758,18.782363 119.39138,7.2391352"
             id="path18084"
             sodipodi:nodetypes="cc" />
          <path
             style="fill:none;fill-opacity:1;stroke:#000000;stroke-width:0.712884;stroke-linecap:round;stroke-linejoin:round;stroke-dasharray:none;stroke-opacity:1"
             d="m 129.84809,20.803096 5.7354,-9.081403"
             id="path18086"
             sodipodi:nodetypes="cc" />
          <path
             style="fill:none;fill-opacity:1;stroke:#000000;stroke-width:0.712884;stroke-linecap:round;stroke-linejoin:round;stroke-dasharray:none;stroke-opacity:1"
             d="M 125.08559,-1.7311777 123.52095,19.234517"
             id="path18088"
             sodipodi:nodetypes="cc" />
          <path
             style="fill:none;fill-opacity:1;stroke:#000000;stroke-width:0.712884;stroke-linecap:round;stroke-linejoin:round;stroke-dasharray:none;stroke-opacity:1"
             d="M 138.35336,-0.02631116 127.94236,20.265656"
             id="path18090"
             sodipodi:nodetypes="cc" />
          <path
             id="path18092"
             style="fill:none;fill-opacity:1;stroke:#000000;stroke-width:0.712885;stroke-linecap:round;stroke-linejoin:round;stroke-dasharray:none;stroke-opacity:1"
             d="m 132.26261,-39.209286 c 0.0214,0.337152 0.14069,0.716267 0.41136,0.928913 0.4839,0.380172 1.23289,0.517654 1.83852,0.361475 0.31685,-0.08171 0.59196,-0.466393 0.73893,-0.627716"
             transform="matrix(0.96381222,0.26658206,-0.26466987,0.96433908,0,0)"
             sodipodi:nodetypes="caac" />
          <path
             style="fill:none;fill-opacity:1;stroke:#000000;stroke-width:0.712884;stroke-linecap:round;stroke-linejoin:round;stroke-dasharray:none;stroke-opacity:1"
             d="m 118.07881,0.50402348 c 0.38663,0.23842716 0.8659,0.41481937 1.42822,0.39780453 2.16654,-0.0655561 4.20203,-3.19671941 5.20927,-5.01370131 m 1.05285,1.064562 c 0.569,1.8760715 1.87908,5.352916 4.02995,6.1298471 2.53805,0.9167888 4.88235,-0.4183438 6.61025,-1.8095132 m 2.2085,0.8344839 c 0.0679,1.3263274 0.33355,2.7380882 1.08742,3.3995303 0.2287,0.2006618 0.63663,0.2545601 1.04741,0.2461027"
             id="path18094"
             sodipodi:nodetypes="csccsccsc" />
          <path
             id="path18096"
             style="fill:none;fill-opacity:1;stroke:#000000;stroke-width:0.712884;stroke-linecap:round;stroke-linejoin:round;stroke-dasharray:none;stroke-opacity:1"
             d="m 128.30444,13.926644 1.4234,-2.653058 c 0.54682,0.04048 0.85706,0.0061 1.39283,-0.01611 m 2.86738,-0.320946 C 138.9509,9.7569198 142.96252,5.8972065 144.1248,0.74543535 145.78391,-6.6173454 141.07561,-13.984245 133.60836,-15.709212 c -7.46731,-1.724693 -14.86581,2.845711 -16.52521,10.2084295 -1.18137,5.25951388 0.88873,10.6219358 5.04532,13.847416 0.3699,0.2870404 0.46996,0.3804445 0.87209,0.6320594 m 2.23441,1.1938751 0.14973,3.079618"
             sodipodi:nodetypes="cccccccsccc" />
        </g>
        <g
           id="g18106"
           transform="matrix(0.57503673,0,0,0.57304849,11.675621,13.255146)"
           style="stroke:#000000;stroke-width:0.174203;stroke-dasharray:none;stroke-opacity:1">
          <path
             id="path18100"
             style="fill:none;fill-opacity:1;stroke:#000000;stroke-width:0.174203;stroke-linecap:round;stroke-linejoin:round;stroke-dasharray:none;stroke-opacity:1"
             d="m 25.218932,28.402868 -0.230405,1.76284 -1.453241,0.01511 -0.264695,-1.757692 z"
             sodipodi:nodetypes="ccccc" />
          <path
             style="fill:none;fill-opacity:1;stroke:#000000;stroke-width:0.174203;stroke-linecap:round;stroke-linejoin:round;stroke-dasharray:none;stroke-opacity:1"
             d="m 23.652333,28.990023 1.253584,-0.0014"
             id="path18102"
             sodipodi:nodetypes="cc" />
          <path
             style="fill:none;fill-opacity:1;stroke:#000000;stroke-width:0.174203;stroke-linecap:round;stroke-linejoin:round;stroke-dasharray:none;stroke-opacity:1"
             d="m 23.694126,29.695891 0.805764,-5.52e-4"
             id="path18104"
             sodipodi:nodetypes="cc" />
        </g>
      </g>
    </g>
  </g>
</svg>
