<?xml version="1.0" encoding="UTF-8" standalone="no"?>
<!-- Created with Inkscape (http://www.inkscape.org/) -->

<svg
   width="16.072338mm"
   height="16.072338mm"
   viewBox="0 0 16.072338 16.072339"
   version="1.1"
   id="svg5"
   inkscape:version="1.2.2 (b0a8486541, 2022-12-01)"
   sodipodi:docname="balloon_blimp.svg"
   xmlns:inkscape="http://www.inkscape.org/namespaces/inkscape"
   xmlns:sodipodi="http://sodipodi.sourceforge.net/DTD/sodipodi-0.dtd"
   xmlns="http://www.w3.org/2000/svg"
   xmlns:svg="http://www.w3.org/2000/svg">
  <sodipodi:namedview
     id="namedview7"
     pagecolor="#4d4d4d"
     bordercolor="#666666"
     borderopacity="1.0"
     inkscape:pageshadow="2"
     inkscape:pageopacity="0"
     inkscape:pagecheckerboard="false"
     inkscape:document-units="mm"
     showgrid="false"
     inkscape:zoom="9.0510662"
     inkscape:cx="14.197222"
     inkscape:cy="32.813814"
     inkscape:window-width="1916"
     inkscape:window-height="1037"
     inkscape:window-x="0"
     inkscape:window-y="0"
     inkscape:window-maximized="1"
     inkscape:current-layer="layer1"
     inkscape:showpageshadow="2"
     inkscape:deskcolor="#4d4d4d" />
  <defs
     id="defs2" />
  <g
     inkscape:label="Layer 1"
     inkscape:groupmode="layer"
     id="layer1"
     transform="translate(77.949509,-113.28569)">
    <g
       id="g17302"
       transform="rotate(9.8912245,-641.54776,-502.97252)">
      <path
         style="fill:none;stroke:#000000;stroke-width:0.1;stroke-linecap:round;stroke-linejoin:round;stroke-dasharray:none;stroke-opacity:1"
         d="m 26.657008,17.996738 c 0,0 -0.03098,0.549278 0.01846,0.817236 0.06225,0.337384 0.09037,0.740139 0.345501,0.969515 0.16983,0.152688 0.438026,0.148863 0.666117,0.160285 0.260945,0.01307 0.515931,-0.08817 0.776571,-0.106326 0.374,-0.02605 0.754286,0.05437 1.124715,-0.0034 0.313609,-0.04891 0.631096,-0.131808 0.907854,-0.287204 0.257284,-0.144462 0.485557,-0.349162 0.667334,-0.581587 0.179205,-0.229137 0.290031,-0.506528 0.397941,-0.776664 0.0351,-0.08786 0.08024,-0.272254 0.08024,-0.272254"
         id="path14385"
         sodipodi:nodetypes="caaaaaaaac" />
      <path
         style="fill:none;stroke:#000000;stroke-width:0.1;stroke-linecap:round;stroke-linejoin:round;stroke-dasharray:none;stroke-opacity:1"
         d="m 27.868025,17.11705 3.951246,0.272343 -0.02928,0.23648 -3.999611,-0.09421 c 0,0 -0.112761,0.285679 -0.227062,0.378166 -0.146461,0.118508 -0.351661,0.228433 -0.534609,0.183432 -0.192347,-0.04731 -0.408477,-0.43159 -0.408477,-0.43159"
         id="path14387"
         sodipodi:nodetypes="ccccaac" />
      <path
         style="fill:none;stroke:#000000;stroke-width:0.1;stroke-linecap:round;stroke-linejoin:round;stroke-dasharray:none;stroke-opacity:1"
         d="m 27.4862,17.238469 c 0,0 0.04759,0.227148 -0.138807,0.334763 -0.272389,0.157264 -0.424542,-0.0081 -0.424542,-0.0081 l -1.001974,-1.15362 c 0,0 -0.160563,-0.199323 -0.04057,-0.31932 0.120673,-0.120673 0.319834,-0.01378 0.319834,-0.01378 l 1.190921,0.934083"
         id="path14389"
         sodipodi:nodetypes="csccscc" />
      <path
         style="fill:none;stroke:#000000;stroke-width:0.1;stroke-linecap:round;stroke-linejoin:round;stroke-dasharray:none;stroke-opacity:1"
         d="m 25.758937,15.832969 -2.917136,-4.46998"
         id="path14391" />
      <path
         style="fill:none;stroke:#000000;stroke-width:0.1;stroke-linecap:round;stroke-linejoin:round;stroke-dasharray:none;stroke-opacity:1"
         d="m 22.255136,10.871771 c 0.01153,0.04351 0.02679,0.08567 0.04653,0.113024 0.05293,0.07336 0.139963,0.122545 0.226152,0.150018 0.05354,0.01707 0.113879,0.01848 0.16851,0.0053 0.06194,-0.01494 0.167302,-0.09245 0.167302,-0.09245"
         id="path14732"
         sodipodi:nodetypes="csaac" />
      <path
         style="fill:none;stroke:#000000;stroke-width:0.1;stroke-linecap:round;stroke-linejoin:round;stroke-dasharray:none;stroke-opacity:1"
         d="m 22.136329,10.633583 c 0,0 0.568507,0.265862 0.864064,0.22844 0.101453,-0.01285 0.16965,-0.120796 0.267696,-0.149862 0.08015,-0.02376 0.186094,-0.07015 0.250244,-0.01655 0.09092,0.07597 0.08359,0.243052 0.03995,0.353207 -0.03768,0.09509 -0.132437,0.186123 -0.233965,0.198551 -0.05306,0.0065 -0.11215,-0.02805 -0.143692,-0.07121 -0.02501,-0.03423 -0.0192,-0.125721 -0.0192,-0.125721"
         id="path14734"
         sodipodi:nodetypes="caaaaaac" />
      <path
         style="fill:none;stroke:#000000;stroke-width:0.1;stroke-linecap:round;stroke-linejoin:round;stroke-dasharray:none;stroke-opacity:1"
         d="m 23.510161,11.945076 c 0,0 0.26336,-0.148999 0.355569,-0.264372 0.154435,-0.193228 0.252964,-0.435737 0.300617,-0.678464 0.04212,-0.214539 0.05505,-0.45 -0.01926,-0.65562 -0.05122,-0.141726 -0.130645,-0.327749 -0.278672,-0.3559858 -0.125455,-0.023931 -0.234634,0.1093638 -0.330655,0.1935748 -0.08494,0.07449 -0.207931,0.267639 -0.207931,0.267639"
         id="path14736"
         sodipodi:nodetypes="caaaaac" />
      <path
         style="fill:none;stroke:#000000;stroke-width:0.1;stroke-linecap:round;stroke-linejoin:round;stroke-dasharray:none;stroke-opacity:1"
         d="m 23.096519,11.500037 c 0,0 -0.01344,-0.07873 -0.01558,-0.118512 -0.0018,-0.03329 0.0023,-0.09998 0.0023,-0.09998"
         id="path14738"
         sodipodi:nodetypes="cac" />
      <path
         style="fill:none;stroke:#000000;stroke-width:0.1;stroke-linecap:round;stroke-linejoin:round;stroke-dasharray:none;stroke-opacity:1"
         d="m 23.439859,12.678138 c 0,0 0.309617,0.631772 0.504483,0.923398 0.19461,0.291243 0.659212,0.818351 0.659212,0.818351"
         id="path15038"
         sodipodi:nodetypes="cac" />
      <path
         style="fill:none;stroke:#000000;stroke-width:0.1;stroke-linecap:round;stroke-linejoin:round;stroke-dasharray:none;stroke-opacity:1"
         d="m 24.09497,9.7831964 c 0,0 0.420667,-0.3057306 0.649527,-0.4273491 0.174574,-0.09277 0.547414,-0.2282108 0.547414,-0.2282108"
         id="path15040"
         sodipodi:nodetypes="cac" />
      <path
         style="fill:none;stroke:#000000;stroke-width:0.1;stroke-linecap:round;stroke-linejoin:round;stroke-dasharray:none;stroke-opacity:1"
         d="m 25.813475,15.479534 c 0,0 0.674576,0.428107 1.039331,0.58708 0.3042,0.132581 0.948711,0.301643 0.948711,0.301643"
         id="path15042"
         sodipodi:nodetypes="cac" />
      <path
         style="fill:none;stroke:#000000;stroke-width:0.1;stroke-linecap:round;stroke-linejoin:round;stroke-dasharray:none;stroke-opacity:1"
         d="M 26.7886,16.367508 26.75889,16.168441"
         id="path15044"
         sodipodi:nodetypes="cc" />
      <path
         style="fill:none;stroke:#000000;stroke-width:0.1;stroke-linecap:round;stroke-linejoin:round;stroke-dasharray:none;stroke-opacity:1"
         d="m 28.091582,16.854931 c 0,0 -0.246256,-1.377452 -0.315103,-2.072986 -0.09156,-0.925023 -0.122834,-1.8561 -0.129558,-2.785619 -0.0036,-0.494303 -0.007,-0.990885 0.04746,-1.482187 0.01635,-0.147414 0.08357,-0.437035 0.08357,-0.437035"
         id="path15046"
         sodipodi:nodetypes="caaac" />
      <path
         style="fill:none;stroke:#000000;stroke-width:0.1;stroke-linecap:round;stroke-linejoin:round;stroke-dasharray:none;stroke-opacity:1"
         d="m 25.602865,9.0287855 c 0,0 0.314084,-0.040982 0.471472,-0.05854 0.249603,-0.027846 0.498843,-0.084358 0.74979,-0.074224 0.163638,0.00661 0.341204,0.00647 0.483429,0.087665 0.154077,0.087963 0.202647,0.3010108 0.348025,0.4027096 0.144676,0.1012079 0.319795,0.1679424 0.49522,0.1879494 0.168626,0.019232 0.348425,-0.00212 0.504481,-0.068839 0.116472,-0.049792 0.234867,-0.1264667 0.297299,-0.2366812 0.0225,-0.039716 0.038,-0.094675 0.01807,-0.1357394 C 28.885188,8.9570137 28.650715,8.8969873 28.465446,8.8338945 28.036656,8.6878712 27.569549,8.6649992 27.116593,8.6688146 26.774734,8.6716942 26.10082,8.8105363 26.10082,8.8105363"
         id="path15048"
         sodipodi:nodetypes="caaaaaaaaaac" />
      <path
         style="fill:none;stroke:#000000;stroke-width:0.1;stroke-linecap:round;stroke-linejoin:round;stroke-dasharray:none;stroke-opacity:1"
         d="m 28.34338,9.7110897 c 0,0 -0.113445,0.079812 -0.179613,0.091527 -0.09699,0.017172 -0.203702,0.00521 -0.293344,-0.035616 -0.06846,-0.031175 -0.129077,-0.086512 -0.167575,-0.151134 -0.0116,-0.019479 -0.01601,-0.066111 -0.01601,-0.066111"
         id="path15050"
         sodipodi:nodetypes="caaac" />
      <path
         style="fill:none;stroke:#000000;stroke-width:0.1;stroke-linecap:round;stroke-linejoin:round;stroke-dasharray:none;stroke-opacity:1"
         d="m 28.22194,16.460817 c 0,0 0.656732,0.08128 0.986906,0.08548 0.409294,0.0052 0.821182,-0.01224 1.225703,-0.07479 0.357147,-0.05522 0.71096,-0.143092 1.051568,-0.263879 0.143742,-0.05097 0.414791,-0.193107 0.414791,-0.193107"
         id="path15052"
         sodipodi:nodetypes="caaac" />
      <path
         style="fill:none;stroke:#000000;stroke-width:0.1;stroke-linecap:round;stroke-linejoin:round;stroke-dasharray:none;stroke-opacity:1"
         d="m 33.309952,14.300769 c 0,0 0.162511,-0.795251 0.172103,-1.198851 0.007,-0.292733 -0.02812,-0.586927 -0.08338,-0.874481 -0.02277,-0.118459 -0.101632,-0.347315 -0.101632,-0.347315"
         id="path15054"
         sodipodi:nodetypes="caac" />
      <path
         style="fill:none;stroke:#000000;stroke-width:0.1;stroke-linecap:round;stroke-linejoin:round;stroke-dasharray:none;stroke-opacity:1"
         d="m 33.145947,11.661368 c 0,0 -0.109582,-0.0029 -0.149447,-0.03501 -0.05006,-0.04028 -0.07817,-0.109845 -0.08314,-0.173905 -0.0027,-0.03506 0.03028,-0.101064 0.03028,-0.101064"
         id="path15056"
         sodipodi:nodetypes="caac" />
      <path
         style="fill:none;stroke:#000000;stroke-width:0.1;stroke-linecap:round;stroke-linejoin:round;stroke-dasharray:none;stroke-opacity:1"
         d="m 33.047176,11.003484 c 0,0 0.429092,0.430532 0.559312,0.699041 0.241837,0.498659 0.356955,1.065611 0.376288,1.619481 0.01456,0.416988 -0.07185,0.838189 -0.197593,1.236032 -0.07752,0.245272 -0.338254,0.69361 -0.338254,0.69361"
         id="path15366"
         sodipodi:nodetypes="caaac" />
      <path
         style="fill:none;stroke:#000000;stroke-width:0.1;stroke-linecap:round;stroke-linejoin:round;stroke-dasharray:none;stroke-opacity:1"
         d="m 32.883924,13.810039 c 0,0 0.09931,-0.586183 0.121812,-0.882179 0.029,-0.381479 0.01669,-1.147618 0.01669,-1.147618"
         id="path15421"
         sodipodi:nodetypes="cac" />
      <path
         style="fill:none;stroke:#000000;stroke-width:0.1;stroke-linecap:round;stroke-linejoin:round;stroke-dasharray:none;stroke-opacity:1"
         d="m 31.529017,17.16478 c 0,0 0.311421,-0.511721 0.453954,-0.775005 0.130174,-0.240454 0.366008,-0.734103 0.366008,-0.734103"
         id="path15423"
         sodipodi:nodetypes="cac" />
      <path
         style="fill:none;stroke:#000000;stroke-width:0.1;stroke-linecap:round;stroke-linejoin:round;stroke-dasharray:none;stroke-opacity:1"
         d="m 31.829845,16.915103 0.225457,-0.188012 c 0,0 0.128542,-0.105072 0.214461,0.01304 0.05044,0.06934 -0.05077,0.197041 -0.05077,0.197041 l -0.332464,0.37517"
         id="path15425"
         sodipodi:nodetypes="ccscc" />
      <path
         style="fill:none;stroke:#000000;stroke-width:0.1;stroke-linecap:round;stroke-linejoin:round;stroke-dasharray:none;stroke-opacity:1"
         d="m 32.290054,16.520107 0.145752,-0.263659"
         id="path15427"
         sodipodi:nodetypes="cc" />
      <path
         style="fill:none;stroke:#000000;stroke-width:0.1;stroke-linecap:round;stroke-linejoin:round;stroke-dasharray:none;stroke-opacity:1"
         d="m 32.291276,16.147065 c 0,0 0.298191,-0.107095 0.433949,-0.186949 0.133483,-0.07851 0.367979,-0.283606 0.367979,-0.283606"
         id="path15429"
         sodipodi:nodetypes="csc" />
      <path
         style="fill:none;stroke:#000000;stroke-width:0.1;stroke-linecap:round;stroke-linejoin:round;stroke-dasharray:none;stroke-opacity:1"
         d="m 31.738346,16.235891 0.148517,-0.0084"
         id="path15431"
         sodipodi:nodetypes="cc" />
      <path
         style="fill:none;stroke:#000000;stroke-width:0.1;stroke-linecap:round;stroke-linejoin:round;stroke-dasharray:none;stroke-opacity:1"
         d="m 29.535236,13.572079 0.203676,0.623129"
         id="path16063" />
      <path
         style="fill:none;stroke:#000000;stroke-width:0.1;stroke-linecap:round;stroke-linejoin:round;stroke-dasharray:none;stroke-opacity:1"
         d="m 29.379341,13.692922 c 0,0 -0.07514,-0.10258 -0.07116,-0.161173 0.0054,-0.0788 0.05351,-0.166449 0.124124,-0.201817 0.05828,-0.02919 0.137625,-0.0137 0.194728,0.01772 0.04974,0.02737 0.08363,0.08196 0.103815,0.135027 0.01275,0.03352 0.0077,0.107308 0.0077,0.107308"
         id="path16065"
         sodipodi:nodetypes="caaaac" />
      <path
         style="fill:none;stroke:#000000;stroke-width:0.1;stroke-linecap:round;stroke-linejoin:round;stroke-dasharray:none;stroke-opacity:1"
         d="m 30.016259,14.297697 c 0,0 -0.145316,-0.01141 -0.196974,0.03036 -0.06491,0.05249 -0.114179,0.154417 -0.0891,0.234035 0.0223,0.0708 0.113648,0.10207 0.184203,0.125134 0.04505,0.01473 0.142108,0.005 0.142108,0.005"
         id="path16067"
         sodipodi:nodetypes="caaac" />
      <path
         style="fill:none;stroke:#000000;stroke-width:0.1;stroke-linecap:round;stroke-linejoin:round;stroke-dasharray:none;stroke-opacity:1"
         d="M 30.285695,14.389409 32.47858,13.86943"
         id="path16069" />
      <path
         style="fill:none;stroke:#000000;stroke-width:0.1;stroke-linecap:round;stroke-linejoin:round;stroke-dasharray:none;stroke-opacity:1"
         d="m 30.404919,14.534737 2.942606,0.192335"
         id="path16071" />
      <path
         style="fill:none;stroke:#000000;stroke-width:0.1;stroke-linecap:round;stroke-linejoin:round;stroke-dasharray:none;stroke-opacity:1"
         d="m 30.518208,14.69148 2.720459,0.857249"
         id="path16073" />
      <path
         style="fill:none;stroke:#000000;stroke-width:0.1;stroke-linecap:round;stroke-linejoin:round;stroke-dasharray:none;stroke-opacity:1"
         d="M 33.244247,15.343455 33.32898,14.92059"
         id="path16075" />
      <path
         style="fill:none;stroke:#000000;stroke-width:0.1;stroke-linecap:round;stroke-linejoin:round;stroke-dasharray:none;stroke-opacity:1"
         d="m 32.602095,14.025622 0.467979,0.506183"
         id="path16077"
         sodipodi:nodetypes="cc" />
      <path
         style="fill:none;stroke:#000000;stroke-width:0.1;stroke-linecap:round;stroke-linejoin:round;stroke-dasharray:none;stroke-opacity:1"
         d="m 29.891931,13.620628 1.985849,0.220021"
         id="path16079" />
      <path
         style="fill:none;stroke:#000000;stroke-width:0.1;stroke-linecap:round;stroke-linejoin:round;stroke-dasharray:none;stroke-opacity:1"
         d="m 29.786191,17.098993 -0.06282,-0.403065"
         id="path16081"
         sodipodi:nodetypes="cc" />
      <path
         style="fill:none;stroke:#000000;stroke-width:0.1;stroke-linecap:round;stroke-linejoin:round;stroke-dasharray:none;stroke-opacity:1"
         d="m 29.261601,9.2438903 c 0,0 0.481669,0.1822115 0.719889,0.2798658 0.152371,0.062462 0.453615,0.1957006 0.453615,0.1957006"
         id="path16083"
         sodipodi:nodetypes="cac" />
      <path
         style="fill:none;stroke:#000000;stroke-width:0.1;stroke-linecap:round;stroke-linejoin:round;stroke-dasharray:none;stroke-opacity:1"
         d="m 30.751436,9.9136231 0.03204,-0.4453962"
         id="path16411" />
      <path
         style="fill:none;stroke:#000000;stroke-width:0.1;stroke-linecap:round;stroke-linejoin:round;stroke-dasharray:none;stroke-opacity:1"
         d="m 31.004904,9.3080402 c 0,0 -0.121044,0.018452 -0.171362,-0.00874 -0.08245,-0.044553 -0.159463,-0.1335278 -0.165839,-0.2270263 -0.0056,-0.081773 0.05134,-0.1670053 0.116745,-0.2164067 0.04165,-0.03146 0.152888,-0.033829 0.152888,-0.033829"
         id="path16413"
         sodipodi:nodetypes="caaac" />
      <path
         style="fill:none;stroke:#000000;stroke-width:0.1;stroke-linecap:round;stroke-linejoin:round;stroke-dasharray:none;stroke-opacity:1"
         d="M 31.125609,8.835492 33.19105,7.0241598"
         id="path16415" />
      <path
         style="fill:none;stroke:#000000;stroke-width:0.1;stroke-linecap:round;stroke-linejoin:round;stroke-dasharray:none;stroke-opacity:1"
         d="M 31.156859,9.015125 33.558165,8.3257955"
         id="path16417" />
      <path
         style="fill:none;stroke:#000000;stroke-width:0.1;stroke-linecap:round;stroke-linejoin:round;stroke-dasharray:none;stroke-opacity:1"
         d="m 31.154769,9.2228526 2.226686,0.7017565"
         id="path16419" />
      <path
         style="fill:none;stroke:#000000;stroke-width:0.1;stroke-linecap:round;stroke-linejoin:round;stroke-dasharray:none;stroke-opacity:1"
         d="M 33.263035,10.099043 32.652221,11.006114 30.943859,9.871289"
         id="path16421"
         sodipodi:nodetypes="ccc" />
      <path
         style="fill:none;stroke:#000000;stroke-width:0.1;stroke-linecap:round;stroke-linejoin:round;stroke-dasharray:none;stroke-opacity:1"
         d="M 33.412871,9.7455597 33.563144,8.5320888"
         id="path16423" />
      <path
         style="fill:none;stroke:#000000;stroke-width:0.1;stroke-linecap:round;stroke-linejoin:round;stroke-dasharray:none;stroke-opacity:1"
         d="M 33.504573,8.1107419 33.243581,7.2695255"
         id="path16425"
         sodipodi:nodetypes="cc" />
      <path
         style="fill:none;stroke:#000000;stroke-width:0.1;stroke-linecap:round;stroke-linejoin:round;stroke-dasharray:none;stroke-opacity:1"
         d="m 24.499043,10.460713 c 0,0 0.78034,-0.324421 1.193688,-0.391399 0.570531,-0.092448 1.7339,-0.0077 1.7339,-0.0077"
         id="path16936"
         sodipodi:nodetypes="cac" />
      <path
         style="fill:none;stroke:#000000;stroke-width:0.1;stroke-linecap:round;stroke-linejoin:round;stroke-dasharray:none;stroke-opacity:1"
         d="m 28.25056,10.154652 c 0,0 1.272755,0.17452 1.876475,0.38178 0.605865,0.207997 1.158631,0.548303 1.721384,0.854316 0.258707,0.140679 0.75981,0.450743 0.75981,0.450743"
         id="path16938"
         sodipodi:nodetypes="caac" />
      <path
         style="fill:none;stroke:#000000;stroke-width:0.1;stroke-linecap:round;stroke-linejoin:round;stroke-dasharray:none;stroke-opacity:1"
         d="m 24.394949,11.341926 c 0,0 0.592986,0.378982 0.914145,0.519197 0.645239,0.281705 2.013553,0.637824 2.013553,0.637824"
         id="path16940"
         sodipodi:nodetypes="cac" />
      <path
         style="fill:none;stroke:#000000;stroke-width:0.1;stroke-linecap:round;stroke-linejoin:round;stroke-dasharray:none;stroke-opacity:1"
         d="m 27.923442,12.573598 c 0,0 1.170194,0.336893 1.763887,0.470344 0.713641,0.160413 1.431132,0.31688 2.158249,0.396356 0.198486,0.02169 0.598614,0.02163 0.598614,0.02163"
         id="path16942"
         sodipodi:nodetypes="caac" />
      <path
         style="fill:none;stroke:#000000;stroke-width:0.1;stroke-linecap:round;stroke-linejoin:round;stroke-dasharray:none;stroke-opacity:1"
         d="m 24.050804,12.011778 c 0,0 1.031963,1.565119 1.737598,2.162903 0.487731,0.413185 1.672059,0.938964 1.672059,0.938964"
         id="path16944"
         sodipodi:nodetypes="cac" />
      <path
         style="fill:none;stroke:#000000;stroke-width:0.1;stroke-linecap:round;stroke-linejoin:round;stroke-dasharray:none;stroke-opacity:1"
         d="m 28.118506,15.318554 c 0,0 1.563473,0.271612 2.352694,0.266285 0.540866,-0.0037 1.60973,-0.204239 1.60973,-0.204239"
         id="path16946"
         sodipodi:nodetypes="cac" />
    </g>
  </g>
</svg>
