<?xml version="1.0" encoding="UTF-8" standalone="no"?>
<!-- Created with Inkscape (http://www.inkscape.org/) -->

<svg
   width="147.095mm"
   height="30.620001mm"
   viewBox="0 0 147.095 30.620002"
   version="1.1"
   id="svg5"
   inkscape:version="1.3 (0e150ed6c4, 2023-07-21)"
   sodipodi:docname="merge_0.svg"
   xml:space="preserve"
   xmlns:inkscape="http://www.inkscape.org/namespaces/inkscape"
   xmlns:sodipodi="http://sodipodi.sourceforge.net/DTD/sodipodi-0.dtd"
   xmlns="http://www.w3.org/2000/svg"
   xmlns:svg="http://www.w3.org/2000/svg"
   xmlns:ns3="svglink"
   xmlns:ns4="svglink:origin"><sodipodi:namedview
     id="namedview7"
     pagecolor="#ffffff"
     bordercolor="#666666"
     borderopacity="1.0"
     inkscape:pageshadow="2"
     inkscape:pageopacity="0"
     inkscape:pagecheckerboard="false"
     inkscape:document-units="mm"
     showgrid="false"
     inkscape:zoom="3.5723513"
     inkscape:cx="356.76783"
     inkscape:cy="113.23075"
     inkscape:window-width="1916"
     inkscape:window-height="1037"
     inkscape:window-x="0"
     inkscape:window-y="0"
     inkscape:window-maximized="1"
     inkscape:current-layer="g10446"
     inkscape:showpageshadow="2"
     inkscape:deskcolor="#ffffff" /><defs
     id="defs2" /><g
     inkscape:label="Layer 1"
     inkscape:groupmode="layer"
     id="g10446"
     transform="translate(131.126,-176.799)"><g
       inkscape:label="svglink:../art_0.svg"
       ns3:href="../art_0.svg"
       ns4:x="-122.26554"
       ns4:y="195.09444"
       ns3:image-svg-dpi="200"
       ns3:image-height="23.685738"
       ns3:image-width="139.5341"
       id="g152"
       transform="translate(-2.0700591,-13.708587)"><sodipodi:namedview
         id="namedview4"
         pagecolor="#ffffff"
         bordercolor="#666666"
         borderopacity="1.0"
         inkscape:pageshadow="2"
         inkscape:pageopacity="0"
         inkscape:pagecheckerboard="false"
         inkscape:document-units="mm"
         showgrid="false"
         inkscape:zoom="0.97657589"
         inkscape:cx="153.59789"
         inkscape:cy="140.79807"
         inkscape:window-width="1920"
         inkscape:window-height="1080"
         inkscape:window-x="0"
         inkscape:window-y="0"
         inkscape:window-maximized="1"
         inkscape:current-layer="g50406"
         inkscape:showpageshadow="2"
         inkscape:deskcolor="#ffffff"
         transform="translate(-122.266, 195.094)" /><defs
         id="defs4"
         transform="translate(-122.266, 195.094)"><sodipodi:namedview
   id="namedview2"
   pagecolor="#ffffff"
   bordercolor="#666666"
   borderopacity="1.0"
   inkscape:pageshadow="2"
   inkscape:pageopacity="0"
   inkscape:pagecheckerboard="false"
   inkscape:document-units="mm"
   showgrid="false"
   inkscape:zoom="45.050496"
   inkscape:cx="13.573657"
   inkscape:cy="23.895408"
   inkscape:window-width="1920"
   inkscape:window-height="1080"
   inkscape:window-x="0"
   inkscape:window-y="0"
   inkscape:window-maximized="1"
   inkscape:current-layer="layer1"
   inkscape:showpageshadow="2"
   inkscape:deskcolor="#ffffff"
   transform="translate(-41.2965, 118.978)" />&#10;  <defs
   id="defs3"
   transform="translate(-41.2965, 118.978)">&#10;    <clipPath
   clipPathUnits="userSpaceOnUse"
   id="clipPath2">&#10;      <path
   d="m -89.348846,133.47717 17.321,10 17.32,-10 v -20 l -17.32,-10 -17.321,10 v 20"
   class="s1"
   id="path2"
   style="fill:none;fill-opacity:1;stroke:#000000;stroke-width:0.0999998;stroke-linecap:round;stroke-linejoin:round;stroke-dasharray:none" />&#10;    </clipPath>&#10;  </defs>&#10;  &#10;<sodipodi:namedview
   id="namedview1"
   pagecolor="#ffffff"
   bordercolor="#666666"
   borderopacity="1.0"
   inkscape:pageshadow="2"
   inkscape:pageopacity="0"
   inkscape:pagecheckerboard="false"
   inkscape:document-units="mm"
   showgrid="false"
   inkscape:zoom="31.855511"
   inkscape:cx="34.483829"
   inkscape:cy="15.460433"
   inkscape:window-width="1920"
   inkscape:window-height="1080"
   inkscape:window-x="0"
   inkscape:window-y="0"
   inkscape:window-maximized="1"
   inkscape:current-layer="layer1"
   inkscape:showpageshadow="2"
   inkscape:deskcolor="#ffffff"
   transform="translate(41.2244, 134.879)" /><defs
   id="defs1"
   transform="translate(41.2244, 134.879)"><clipPath
     clipPathUnits="userSpaceOnUse"
     id="clipPath4244"><path
       d="m -89.348846,133.47717 17.321,10 17.32,-10 v -20 l -17.32,-10 -17.321,10 v 20"
       class="s1"
       id="path4246"
       style="fill:none;fill-opacity:1;stroke:#000000;stroke-width:0.0999998;stroke-linecap:round;stroke-linejoin:round;stroke-dasharray:none" /></clipPath></defs>&#10;    &#10;    &#10;    &#10;    &#10;    &#10;    &#10;    &#10;    &#10;    &#10;    &#10;    &#10;    &#10;  </defs><g
         inkscape:label="Layer 1"
         inkscape:groupmode="layer"
         id="g50406"
         transform="translate(-7.34054,57.1904)"><path
           style="fill:none;stroke:#00ff00;stroke-width:0.5;stroke-linecap:round;stroke-linejoin:round;stroke-dasharray:none"
           d="m -112.25819,148.17161 h -2.41667 c 0,0 0.69557,-0.13911 0.98734,-0.32623 0.15882,-0.10185 0.22613,-0.31352 0.38558,-0.41438 0.14996,-0.0948 0.3357,-0.20508 0.50749,-0.16067 0.14279,0.0369 0.30424,0.32128 0.30424,0.32128"
           id="path19709"
           sodipodi:nodetypes="ccaaac" /><path
           style="fill:none;stroke:#00ff00;stroke-width:0.5;stroke-linecap:round;stroke-linejoin:round;stroke-dasharray:none"
           d="m -111.63445,147.70748 c 0,0 -0.29239,-0.1974 -0.26105,-0.33562 0.0368,-0.1623 0.28043,-0.23371 0.44653,-0.22333 0.24501,0.0153 0.36803,0.38715 0.61256,0.40885 0.16047,0.0142 0.37368,-0.0479 0.44296,-0.19332 0.098,-0.2058 -0.19974,-0.43173 -0.18257,-0.65903 0.0117,-0.15455 0.0535,-0.35102 0.19005,-0.42435 0.11002,-0.0591 0.27729,-0.0229 0.3696,0.0612 0.14955,0.13623 0.15438,0.58692 0.15438,0.58692"
           id="path19711"
           sodipodi:nodetypes="caaaaaaac" /><path
           style="fill:none;stroke:#00ff00;stroke-width:0.5;stroke-linecap:round;stroke-linejoin:round;stroke-dasharray:none"
           d="m -108.52025,146.63045 c 0,0 -0.4459,0.25014 -0.60487,0.11985 -0.11935,-0.0978 0.0657,-0.32378 -9.8e-4,-0.46293 -0.12112,-0.25265 -0.41082,-0.38897 -0.6542,-0.52778 -0.1154,-0.0658 -0.29429,-0.0328 -0.37332,-0.13958 -0.1359,-0.18363 -0.12368,-0.47073 -0.0419,-0.68405 0.0257,-0.0671 0.15349,-0.15114 0.15349,-0.15114"
           id="path19713"
           sodipodi:nodetypes="caaaaac" /><path
           style="fill:none;stroke:#00ff00;stroke-width:0.5;stroke-linecap:round;stroke-linejoin:round;stroke-dasharray:none"
           d="m -109.52641,145.19297 c 0,0 0.29421,-0.11406 0.41551,-0.0455 0.13041,0.0737 0.28434,0.29282 0.18851,0.40797"
           id="path19715"
           sodipodi:nodetypes="cac" /><path
           style="fill:none;stroke:#00ff00;stroke-width:0.5;stroke-linecap:round;stroke-linejoin:round;stroke-dasharray:none"
           d="m -108.7341,144.57128 c 0,0 -0.30413,0.066 -0.45197,0.0348 -0.12723,-0.0269 -0.27817,-0.0723 -0.34362,-0.18467 -0.0617,-0.10599 -0.0687,-0.27248 0.008,-0.36788 0.0991,-0.12262 0.30356,-0.0904 0.46001,-0.10982 0.15959,-0.0198 0.32324,0.017 0.4824,-0.006 0.16625,-0.024 0.38541,-0.001 0.48505,-0.13665 0.10553,-0.14323 -0.0312,-0.35647 -0.014,-0.53355 0.0165,-0.17021 0.004,-0.36764 0.11172,-0.5007 0.10686,-0.13237 0.29519,-0.18871 0.46347,-0.21368 0.19165,-0.0284 0.57576,0.0796 0.57576,0.0796"
           id="path19719"
           sodipodi:nodetypes="caaaaaaaaac" /><path
           style="fill:none;stroke:#00ff00;stroke-width:0.5;stroke-linecap:round;stroke-linejoin:round;stroke-dasharray:none"
           d="m -107.51887,143.53578 c 0.34246,0.0516 -0.0824,-0.57082 0.29071,-0.45412"
           id="path19721"
           sodipodi:nodetypes="caac" /><path
           style="fill:none;stroke:#00ff00;stroke-width:0.5;stroke-linecap:round;stroke-linejoin:round;stroke-dasharray:none"
           d="m -106.69992,143.22153 c 0,0 0.16935,-0.075 0.22306,-0.14566 0.0645,-0.085 -0.009,-0.28802 0.0967,-0.30516 0.30601,-0.0498 0.416,0.47107 0.54776,0.75172 0.1182,0.25178 0.23519,0.53238 0.20493,0.80888 -0.0186,0.16959 -0.0676,0.40519 -0.23004,0.4572 -0.0996,0.0319 -0.1863,-0.0954 -0.27768,-0.14638 -0.0844,-0.0471 -0.15314,-0.14379 -0.24969,-0.14715 -0.13908,-0.005 -0.24316,0.23519 -0.37353,0.18649 -0.12705,-0.0475 -0.1557,-0.37593 -0.1557,-0.37593"
           id="path19723"
           sodipodi:nodetypes="caaaaaaaac" /><path
           style="fill:none;stroke:#00ff00;stroke-width:0.5;stroke-linecap:round;stroke-linejoin:round;stroke-dasharray:none"
           d="m -106.55051,145.2752 c 0,0 -0.0135,0.3024 0.0966,0.36037 0.20789,0.10953 0.43124,-0.26048 0.66479,-0.23455 0.10631,0.0118 0.16496,0.16613 0.27183,0.17053 0.29515,0.0122 0.49185,-0.39299 0.78688,-0.40763 0.20787,-0.0103 0.48938,0.0436 0.5801,0.23089 0.12194,0.25175 -0.0431,0.60536 -0.23986,0.80417 -0.2356,0.23805 -0.72284,0.0605 -0.95985,0.29711 -0.0959,0.0957 -0.16122,0.25876 -0.12078,0.38805 0.0679,0.21715 0.3123,0.39212 0.53812,0.41993 0.17001,0.0209 0.46973,-0.20839 0.46973,-0.20839"
           id="path19725"
           sodipodi:nodetypes="caaaaaaaaac" /><path
           style="fill:none;stroke:#00ff00;stroke-width:0.5;stroke-linecap:round;stroke-linejoin:round;stroke-dasharray:none"
           d="m -108.31734,147.58374 c 0,0 0.41478,0.0113 0.52458,-0.13169 0.1027,-0.13376 -0.0979,-0.3634 -0.008,-0.50586 0.0831,-0.13109 0.30138,-0.0972 0.42391,-0.19245 0.12113,-0.0941 0.14331,-0.30762 0.28781,-0.35916 0.23226,-0.0828 0.56334,-0.0332 0.7235,0.15427 0.17759,0.20789 0.16986,0.57655 0.0436,0.81907 -0.0785,0.15079 -0.26757,0.31022 -0.43271,0.26989 -0.14232,-0.0348 -0.22371,-0.3783 -0.22371,-0.3783"
           id="path19727"
           sodipodi:nodetypes="caaaaaaac" /><path
           style="fill:none;stroke:#00ff00;stroke-width:0.5;stroke-linecap:round;stroke-linejoin:round;stroke-dasharray:none"
           d="m -103.93822,146.66198 c 0,0 0.17838,-0.16966 0.29159,-0.1748 0.14629,-0.007 0.31673,0.0675 0.39574,0.1908 0.0732,0.11425 0.0908,0.29998 0.007,0.40704 -0.0723,0.0928 -0.24555,0.0154 -0.34385,0.0801 -0.0721,0.0474 -0.15359,0.20829 -0.15359,0.20829"
           id="path19729"
           sodipodi:nodetypes="caaaac" /><path
           style="fill:none;stroke:#00ff00;stroke-width:0.5;stroke-linecap:round;stroke-linejoin:round;stroke-dasharray:none"
           d="m -102.7327,147.45442 c 0,0 0.27822,0.2146 0.41532,0.1584 0.20312,-0.0832 0.0572,-0.56213 0.27361,-0.59904 0.21374,-0.0365 0.29843,0.31467 0.45111,0.46863 0.13893,0.14009 0.25671,0.30784 0.423,0.41403 0.23859,0.15237 0.82304,0.30076 0.79424,0.30076 h -5.38946"
           id="path19731"
           sodipodi:nodetypes="caaaasc" /><path
           style="fill:none;stroke:#00ff00;stroke-width:0.5;stroke-linecap:round;stroke-linejoin:round;stroke-dasharray:none"
           d="m -111.44485,148.21401 h 4.745"
           id="path19733"
           sodipodi:nodetypes="cc" /><path
           style="fill:none;stroke:#00ff00;stroke-width:0.5;stroke-linecap:round;stroke-linejoin:round;stroke-dasharray:none"
           d="M 12.261274,152.27378 H 5.500679 c 0,0 0.535408,-0.111 0.682708,-0.31351 0.09203,-0.12653 -0.03386,-0.33737 0.05498,-0.46616 0.120541,-0.17475 0.354435,-0.32324 0.56475,-0.29437 0.115696,0.0159 0.212139,0.13125 0.255535,0.23967 0.02241,0.056 -0.01012,0.18065 -0.01012,0.18065"
           id="path19466"
           sodipodi:nodetypes="ccaaaac" /><path
           style="fill:none;stroke:#00ff00;stroke-width:0.5;stroke-linecap:round;stroke-linejoin:round;stroke-dasharray:none"
           d="m 7.652932,151.68558 c 0,0 0.167213,-0.20109 0.21944,-0.31916 0.08131,-0.18383 -0.04517,-0.5039 0.137823,-0.58707 0.186954,-0.085 0.38509,0.15879 0.544454,0.28831 0.08642,0.0702 0.1035,0.23903 0.213392,0.25704 0.194115,0.0318 0.453834,-0.11928 0.502157,-0.30996 0.0778,-0.30699 -0.413563,-0.51283 -0.47322,-0.82386 -0.04848,-0.25275 0.01298,-0.5257 0.109548,-0.76425 0.07951,-0.19642 0.181103,-0.42482 0.37294,-0.51483 0.179541,-0.0842 0.420193,-0.0566 0.593656,0.0395 0.219218,0.1215 0.410705,0.36082 0.439976,0.60974 0.01879,0.15981 -0.03728,0.38016 -0.183959,0.44632 -0.185013,0.0834 -0.575569,-0.19867 -0.575569,-0.19867"
           id="path19468"
           sodipodi:nodetypes="caaaaaaaaaaac" /><path
           style="fill:none;stroke:#00ff00;stroke-width:0.5;stroke-linecap:round;stroke-linejoin:round;stroke-dasharray:none"
           d="m 11.257565,148.96914 c 0,0 -0.260595,0.0551 -0.371529,0 -0.18354,-0.0911 -0.388887,-0.28536 -0.371754,-0.48954 0.01892,-0.22545 0.281249,-0.38993 0.494825,-0.46458 0.343374,-0.12002 0.75779,-0.0647 1.087624,0.0887 0.373502,0.17367 0.982523,0.48061 0.870546,0.877 -0.06898,0.24418 -0.657288,-0.0602 -0.739676,0.1798 -0.04559,0.13281 0.261913,0.32994 0.261913,0.32994"
           id="path19470"
           sodipodi:nodetypes="caaaaaac" /><path
           style="fill:none;stroke:#00ff00;stroke-width:0.5;stroke-linecap:round;stroke-linejoin:round;stroke-dasharray:none"
           d="m 11.74484,149.92216 c 0,0 0.410667,0.0296 0.549241,0.16072 0.07606,0.072 0.01597,0.24066 0.104784,0.2961 0.346556,0.21632 0.854834,-0.32815 1.217542,-0.14017 0.13567,0.0703 0.238804,0.25073 0.219722,0.40234 -0.01919,0.15251 -0.314417,0.33733 -0.314417,0.33733"
           id="path19472"
           sodipodi:nodetypes="caaaac" /><path
           style="fill:none;stroke:#00ff00;stroke-width:0.5;stroke-linecap:round;stroke-linejoin:round;stroke-dasharray:none"
           d="m 14.159279,151.43625 c 0,0 0.0988,-0.36798 0.250055,-0.38053 0.222401,-0.0185 0.232166,0.4763 0.454828,0.49128 0.191158,0.0129 0.252392,-0.35158 0.443464,-0.36565 0.09023,-0.007 0.186068,0.0624 0.232455,0.14012 0.06046,0.10124 0.0171,0.35333 0.0171,0.35333"
           id="path19474"
           sodipodi:nodetypes="caaaac" /><path
           style="fill:none;stroke:#00ff00;stroke-width:0.5;stroke-linecap:round;stroke-linejoin:round;stroke-dasharray:none"
           d="m 16.144461,151.70693 c 0,0 0.06387,-0.35962 0.207514,-0.42344 0.170687,-0.0758 0.378747,0.0578 0.538682,0.15425 0.164862,0.0994 0.239948,0.30948 0.399654,0.41701 0.312049,0.2101 1.048677,0.41706 1.048677,0.41706 h -1.966093"
           id="path19476"
           sodipodi:nodetypes="caaacc" /><path
           style="fill:none;stroke:#00ff00;stroke-width:0.5;stroke-linecap:round;stroke-linejoin:round;stroke-dasharray:none"
           d="M 15.459412,152.26984 H 13.262161"
           id="path19478"
           sodipodi:nodetypes="cc" /><path
           style="fill:none;stroke:#00ff00;stroke-width:0.5;stroke-linecap:round;stroke-linejoin:round;stroke-dasharray:none"
           d="m 10.664463,150.5498 c 0,0 -0.04674,0.2113 -0.116054,0.28828 -0.11361,0.12617 -0.422972,0.0709 -0.450038,0.23854 -0.02474,0.15318 0.321773,0.33638 0.321773,0.33638"
           id="path19480"
           sodipodi:nodetypes="caac" /><path
           style="fill:none;stroke:#00ff00;stroke-width:0.5;stroke-linecap:round;stroke-linejoin:round;stroke-dasharray:none"
           d="m 11.081303,151.63016 c 0,0 0.09333,-0.21765 0.153546,-0.31921 0.06947,-0.11716 0.107965,-0.29189 0.238107,-0.33209 0.137877,-0.0426 0.341904,0.0193 0.406738,0.14826 0.06134,0.12198 -0.188852,0.27656 -0.116865,0.39258 0.08904,0.1435 0.349896,0.16488 0.499274,0.0861 0.08144,-0.0429 0.03095,-0.21354 0.114989,-0.25116 0.08036,-0.036 0.252338,0.078 0.252338,0.078"
           id="path19482"
           sodipodi:nodetypes="caaaaaac" /><path
           style="fill:none;stroke:#00ff00;stroke-width:0.5;stroke-linecap:round;stroke-linejoin:round;stroke-dasharray:none"
           d="m -22.230104,145.40959 c 0,0 3.008025,0.0674 4.429737,-0.34881 1.405446,-0.41144 3.874585,-2.07143 3.874585,-2.07143"
           id="path42893"
           sodipodi:nodetypes="cac" /><path
           style="fill:none;stroke:#00ff00;stroke-width:0.5;stroke-linecap:round;stroke-linejoin:round;stroke-dasharray:none"
           d="m -18.263191,145.75178 -0.03622,5.5688"
           id="path42895"
           sodipodi:nodetypes="cc" /><path
           style="fill:none;stroke:#00ff00;stroke-width:0.5;stroke-linecap:round;stroke-linejoin:round;stroke-dasharray:none"
           d="m -21.234173,144.40022 c 0,0 1.515981,-0.0194 2.257076,-0.15642 0.642975,-0.11883 1.298365,-0.26821 1.873276,-0.57243 0.405169,-0.2144 1.065084,-0.85877 1.065084,-0.85877"
           id="path32782"
           sodipodi:nodetypes="caac" /><path
           style="fill:none;stroke:#00ff00;stroke-width:0.5;stroke-linecap:round;stroke-linejoin:round;stroke-dasharray:none"
           d="m -17.30948,149.93354 c 0,0 -0.0158,-1.81166 -0.03626,-2.71724 -0.0095,-0.4188 -0.03996,-1.25605 -0.03996,-1.25605 0,0 0.793729,-0.28197 1.165848,-0.47882 0.320586,-0.16959 0.910384,-0.6004 0.910384,-0.6004"
           id="path32784"
           sodipodi:nodetypes="cacac" /><path
           style="fill:none;stroke:#00ff00;stroke-width:0.5;stroke-linecap:round;stroke-linejoin:round;stroke-dasharray:none"
           d="m -19.221793,149.8271 0.02665,-3.70547 -1.157776,-0.005"
           id="path32786"
           sodipodi:nodetypes="ccc" /><path
           style="fill:none;stroke:#00ff00;stroke-width:0.5;stroke-linecap:round;stroke-linejoin:round;stroke-dasharray:none"
           d="m -19.167626,150.70186 -0.01513,1.35234"
           id="path32788"
           sodipodi:nodetypes="cc" /><path
           style="fill:none;stroke:#00ff00;stroke-width:0.5;stroke-linecap:round;stroke-linejoin:round;stroke-dasharray:none"
           d="m -17.238023,150.84589 0.04525,0.94667"
           id="path32790"
           sodipodi:nodetypes="cc" /><path
           style="fill:none;stroke:#00ff00;stroke-width:0.5;stroke-linecap:round;stroke-linejoin:round;stroke-dasharray:none"
           d="m -67.13549,153.69317 c 0.725663,-0.53384 0.01489,-11.45998 1.291006,-14.78566 0.638141,-1.66306 3.962061,-0.20907 5.42663,0.90135 0.938367,0.71146 1.836716,2.06701 1.514679,3.20707 -0.58333,2.06505 -5.369581,3.48697 -5.369581,3.48697"
           id="path42859"
           sodipodi:nodetypes="csaac" /><path
           style="fill:none;stroke:#00ff00;stroke-width:0.5;stroke-linecap:round;stroke-linejoin:round;stroke-dasharray:none"
           d="m -65.771,153.46798 c 0,0 0.03676,-5.16071 0.187179,-7.78418 0.05465,-0.95311 0.112902,-2.01495 0.154509,-2.78229"
           id="path30538"
           sodipodi:nodetypes="csc" /><path
           style="fill:none;stroke:#00ff00;stroke-width:0.5;stroke-linecap:round;stroke-linejoin:round;stroke-dasharray:none"
           d="m -61.360897,140.22038 c 0,0 0.847016,0.65284 1.082012,1.11429 0.233635,0.4588 0.442166,1.03924 0.263539,1.52215 -0.188735,0.51025 -1.257729,1.03917 -1.257729,1.03917"
           id="path30540"
           sodipodi:nodetypes="caac" /><path
           style="fill:none;stroke:#00ff00;stroke-width:0.5;stroke-linecap:round;stroke-linejoin:round;stroke-dasharray:none"
           d="m -65.415303,141.9442 c 0,0 0.164113,-0.95745 0.498332,-1.25782 0.386619,-0.34747 0.983675,-0.46023 1.498472,-0.40979 0.451574,0.0442 0.849901,0.34324 1.219886,0.60777 0.318312,0.22759 0.836697,0.82571 0.836697,0.82571"
           id="path30544"
           sodipodi:nodetypes="caaac" /><path
           style="fill:none;stroke:#00ff00;stroke-width:0.5;stroke-linecap:round;stroke-linejoin:round;stroke-dasharray:none"
           d="m -64.324792,145.42715 c 0.203468,-0.0803 2.138887,-0.92106 2.138887,-0.92106"
           id="path30546"
           sodipodi:nodetypes="cc" /><path
           style="fill:none;stroke:#00ff00;stroke-width:0.5;stroke-linecap:round;stroke-linejoin:round;stroke-dasharray:none"
           d="m -65.229262,139.63661 c 0,0 0.574143,-0.46913 0.922128,-0.54655 0.356859,-0.0794 0.736931,0.0156 1.090554,0.1075 0.295063,0.0767 0.839294,0.365 0.839294,0.365"
           id="path30548"
           sodipodi:nodetypes="caac" /><path
           style="fill:none;stroke:#00ff00;stroke-width:0.5;stroke-linecap:round;stroke-linejoin:round;stroke-dasharray:none"
           d="m -63.052,147.56134 c 0,0 -1.134727,4.16537 -0.07069,5.75331 0.279012,0.41639 0.90879,0.4308 1.394369,0.54462 0.40424,0.0948 1.240573,0.10951 1.240573,0.10951"
           id="path42875"
           sodipodi:nodetypes="caac" /><path
           style="fill:none;stroke:#00ff00;stroke-width:0.5;stroke-linecap:round;stroke-linejoin:round;stroke-dasharray:none"
           d="m -60.933876,153.21124 c 0,0 -0.836142,-0.0227 -1.13257,-0.27382 -0.310836,-0.26335 -0.411155,-0.72297 -0.479014,-1.12486 -0.172421,-1.02109 0.211076,-3.09952 0.211076,-3.09952"
           id="path31073"
           sodipodi:nodetypes="caac" /><path
           style="fill:none;stroke:#00ff00;stroke-width:0.5;stroke-linecap:round;stroke-linejoin:round;stroke-dasharray:none"
           d="m -59.645281,150.30701 c 0,0 -0.01276,1.90449 0.345016,2.67472 0.210284,0.4527 0.571652,0.85602 0.970659,0.95411 0.440354,0.10824 0.961987,-0.0812 1.302205,-0.46957 0.722616,-0.82491 0.841848,-2.26169 1.133589,-3.45413 0.114726,-0.46893 0.239372,-1.44214 0.239372,-1.44214"
           id="path42877"
           sodipodi:nodetypes="caaaac" /><path
           style="fill:none;stroke:#00ff00;stroke-width:0.5;stroke-linecap:round;stroke-linejoin:round;stroke-dasharray:none"
           d="m -58.801663,151.53516 c 0,0 9.8e-5,0.65645 0.134876,0.94244 0.105703,0.22427 0.267478,0.4687 0.499521,0.54525 0.166313,0.0549 0.375484,0.005 0.514989,-0.10281 0.238249,-0.18417 0.299016,-0.53129 0.40421,-0.81674 0.153628,-0.41687 0.326079,-1.29386 0.326079,-1.29386"
           id="path31602"
           sodipodi:nodetypes="caaaac" /><path
           style="fill:none;stroke:#00ff00;stroke-width:0.5;stroke-linecap:round;stroke-linejoin:round;stroke-dasharray:none"
           d="m -56.259726,153.77543 c 0,0 0.493241,-0.80656 0.649151,-1.24972 0.31457,-0.89412 0.390859,-1.85607 0.558727,-2.7894 0.08793,-0.4889 0.23482,-1.47165 0.23482,-1.47165"
           id="path31604"
           sodipodi:nodetypes="caac" /><path
           style="fill:none;stroke:#00ff00;stroke-width:0.5;stroke-linecap:round;stroke-linejoin:round;stroke-dasharray:none"
           d="m -53.748245,150.06954 0.652592,3.82704 c 0,0 0.812389,-0.58625 1.124336,-0.97195 0.405722,-0.50166 0.733309,-1.08343 0.933452,-1.69814 0.321273,-0.98675 0.394911,-3.08913 0.394911,-3.08913"
           id="path42879"
           sodipodi:nodetypes="ccaac" /><path
           style="fill:none;stroke:#00ff00;stroke-width:0.5;stroke-linecap:round;stroke-linejoin:round;stroke-dasharray:none"
           d="m -52.586917,152.12502 -0.775285,-3.86349"
           id="path31628"
           sodipodi:nodetypes="cc" /><path
           style="fill:none;stroke:#00ff00;stroke-width:0.5;stroke-linecap:round;stroke-linejoin:round;stroke-dasharray:none"
           d="m -51.850424,151.19866 c 0,0 0.270088,-0.98417 0.339426,-1.48832 0.107801,-0.78381 0.116581,-2.37069 0.116581,-2.37069"
           id="path31632"
           sodipodi:nodetypes="cac" /><path
           style="fill:none;stroke:#00ff00;stroke-width:0.5;stroke-linecap:round;stroke-linejoin:round;stroke-dasharray:none"
           d="m -48.52753,153.34254 -0.39445,-5.65838"
           id="path42881"
           sodipodi:nodetypes="cc" /><path
           style="fill:none;stroke:#00ff00;stroke-width:0.5;stroke-linecap:round;stroke-linejoin:round;stroke-dasharray:none"
           d="m -48.060488,148.01077 0.325856,4.93004"
           id="path31640" /><path
           style="fill:none;stroke:#00ff00;stroke-width:0.5;stroke-linecap:round;stroke-linejoin:round;stroke-dasharray:none"
           d="m -38.641507,153.28169 c 0,0 -1.495828,-5.89603 0.569853,-6.39924 2.284506,-0.55652 1.445551,6.47948 3.749146,6.01029 2.191124,-0.44627 1.101773,-6.66757 1.101773,-6.66757"
           id="path42885"
           sodipodi:nodetypes="caac" /><path
           style="fill:none;stroke:#00ff00;stroke-width:0.5;stroke-linecap:round;stroke-linejoin:round;stroke-dasharray:none"
           d="m -37.860454,153.12175 c -0.456988,-1.69771 -0.510208,-5.14735 -0.219517,-5.28837"
           id="path32193"
           sodipodi:nodetypes="cc" /><path
           style="fill:none;stroke:#00ff00;stroke-width:0.5;stroke-linecap:round;stroke-linejoin:round;stroke-dasharray:none"
           d="m -35.438863,149.60787 c 0,0 0.263976,2.12691 1.010205,2.0762 0.630062,-0.0428 0.563664,-1.20242 0.630591,-1.85379 0.123545,-1.20242 -0.442845,-3.59717 -0.442845,-3.59717"
           id="path32195"
           sodipodi:nodetypes="caac" /><path
           style="fill:none;stroke:#00ff00;stroke-width:0.5;stroke-linecap:round;stroke-linejoin:round;stroke-dasharray:none"
           d="m -38.945333,146.2879 c 0,0 0.716103,-0.42097 1.108665,-0.40174 0.496339,0.0243 1.006609,0.27879 1.345457,0.64257 0.299586,0.32163 0.482891,1.22741 0.482891,1.22741"
           id="path32205"
           sodipodi:nodetypes="caac" /><path
           style="fill:none;stroke:#00ff00;stroke-width:0.5;stroke-linecap:round;stroke-linejoin:round;stroke-dasharray:none"
           d="m -29.316603,150.07622 c 0,0 -1.571006,0.73844 -1.978064,0.15245 -0.323816,-0.46616 0.156012,-1.22885 0.473479,-1.70494 0.300556,-0.45072 0.761669,-0.81915 1.249673,-0.93216 0.319701,-0.074 0.682329,0.009 0.960878,0.19857 0.436155,0.29693 0.713136,0.84382 0.94504,1.3567 0.437608,0.96781 0.793318,3.13834 0.793318,3.13834"
           id="path42887"
           sodipodi:nodetypes="caaaaac" /><path
           style="fill:none;stroke:#00ff00;stroke-width:0.5;stroke-linecap:round;stroke-linejoin:round;stroke-dasharray:none"
           d="m -31.317968,150.84931 c -0.04158,0.6065 -0.09328,1.21284 -0.04201,1.8207"
           id="path42889"
           sodipodi:nodetypes="cc" /><path
           style="fill:none;stroke:#00ff00;stroke-width:0.5;stroke-linecap:round;stroke-linejoin:round;stroke-dasharray:none"
           d="m -30.000713,149.61728 c 0,0 -0.282717,0.0717 -0.37633,-0.0108 -0.08169,-0.072 -0.06917,-0.21532 -0.04705,-0.3214 0.06316,-0.30285 0.234524,-0.61348 0.490683,-0.79115 0.166184,-0.11527 0.396278,-0.15425 0.596288,-0.12112 0.177004,0.0293 0.462968,0.27129 0.462968,0.27129"
           id="path32752"
           sodipodi:nodetypes="caaaac" /><path
           style="fill:none;stroke:#00ff00;stroke-width:0.5;stroke-linecap:round;stroke-linejoin:round;stroke-dasharray:none"
           d="m -27.724174,152.23089 c 0,0 -0.163538,-1.18126 -0.310269,-1.75545 -0.09496,-0.3716 -0.36711,-1.0863 -0.36711,-1.0863"
           id="path32754"
           sodipodi:nodetypes="cac" /><path
           style="fill:none;stroke:#00ff00;stroke-width:0.5;stroke-linecap:round;stroke-linejoin:round;stroke-dasharray:none"
           d="m -30.32342,152.49385 c 0,0 -0.116398,0.0127 -0.157465,-0.0218 -0.17348,-0.14595 -0.216823,-0.42342 -0.222836,-0.65487 -0.0057,-0.21902 0.02403,-0.48091 0.178365,-0.63117 0.165956,-0.16157 0.447462,-0.0912 0.666274,-0.15671 0.107617,-0.0322 0.316925,-0.11579 0.316925,-0.11579"
           id="path32758"
           sodipodi:nodetypes="caaaac" /><path
           style="fill:none;stroke:#00ff00;stroke-width:0.5;stroke-linecap:round;stroke-linejoin:round;stroke-dasharray:none"
           d="m -25.519948,148.88762 c 0,0 -0.01242,1.8524 0.335487,2.60156 0.204483,0.44032 0.55588,0.83261 0.94388,0.92801 0.428207,0.10528 0.935451,-0.079 1.266286,-0.45672 0.702685,-0.80236 0.818633,-2.19984 1.102332,-3.35967 0.111562,-0.4561 0.232773,-1.40269 0.232773,-1.40269"
           id="path32768"
           sodipodi:nodetypes="caaaac" /><path
           style="fill:none;stroke:#00ff00;stroke-width:0.5;stroke-linecap:round;stroke-linejoin:round;stroke-dasharray:none"
           d="m -24.703686,149.91146 c 0,0 9.2e-5,0.67724 0.139364,0.97228 0.109216,0.23138 0.276381,0.48354 0.516152,0.56251 0.171852,0.0566 0.387992,0.005 0.532146,-0.10606 0.246181,-0.19 0.308973,-0.54812 0.417672,-0.84261 0.158748,-0.43008 0.336946,-1.33484 0.336946,-1.33484"
           id="path32770"
           sodipodi:nodetypes="caaaac" /><path
           style="fill:none;stroke:#00ff00;stroke-width:0.5;stroke-linecap:round;stroke-linejoin:round;stroke-dasharray:none"
           d="m -22.274113,152.31692 c 0,0 0.479638,-0.7845 0.631247,-1.21553 0.305894,-0.86967 0.380084,-1.80531 0.543326,-2.71311 0.08551,-0.47553 0.228346,-1.4314 0.228346,-1.4314"
           id="path32772"
           sodipodi:nodetypes="caac" /><path
           style="fill:none;stroke:#00ff00;stroke-width:0.5;stroke-linecap:round;stroke-linejoin:round;stroke-dasharray:none"
           d="m -12.52229,151.57117 c -0.322981,-0.0786 -0.625823,-0.17683 -0.854968,-0.29874 -0.640148,-0.34055 -1.322511,-0.8147 -1.648029,-1.55498 -0.20731,-0.47145 -0.212064,-1.08333 -0.08825,-1.59724 0.177646,-0.73734 0.589873,-1.45046 1.129267,-1.86999 0.379029,-0.29479 1.32586,-0.33435 1.32586,-0.33435"
           id="path11684"
           sodipodi:nodetypes="csaaac" /><path
           style="fill:none;stroke:#00ff00;stroke-width:0.5;stroke-linecap:round;stroke-linejoin:round;stroke-dasharray:none"
           d="m -14.671317,148.84121 1.85858,0.0421"
           id="path11694"
           sodipodi:nodetypes="cc" /><path
           style="fill:none;stroke:#00ff00;stroke-width:0.5;stroke-linecap:round;stroke-linejoin:round;stroke-dasharray:none"
           d="m -11.940213,150.89938 c -0.554414,-0.15004 -1.122064,-0.33532 -1.583863,-0.67245 -0.221756,-0.16189 -0.534644,-0.62265 -0.534644,-0.62265"
           id="path33428"
           sodipodi:nodetypes="cac" /><path
           style="fill:none;stroke:#00ff00;stroke-width:0.5;stroke-linecap:round;stroke-linejoin:round;stroke-dasharray:none"
           d="m -14.499881,148.09968 c 0,0 0.967881,0.006 1.451676,-0.005 0.195923,-0.004 0.587454,-0.0238 0.587454,-0.0238"
           id="path33432"
           sodipodi:nodetypes="cac" /><path
           style="fill:none;stroke:#00ff00;stroke-width:0.5;stroke-linecap:round;stroke-linejoin:round;stroke-dasharray:none"
           d="m -15.655794,147.27992 c 0,0 0.45432,-0.88678 0.789114,-1.24696 0.27725,-0.29827 0.605653,-0.57107 0.981623,-0.72644 0.477118,-0.19717 1.531306,-0.22571 1.531306,-0.22571"
           id="path33434"
           sodipodi:nodetypes="caac" /><path
           style="fill:none;stroke:#00ff00;stroke-width:0.5;stroke-linecap:round;stroke-linejoin:round;stroke-dasharray:none"
           d="m -11.808737,152.38204 c 1.4212,-0.20209 3.0543051,-0.22367 4.156273,-1.27692 0.5905228,-0.98568 -0.6251766,-1.79454 -1.4754076,-1.93831 -0.9001804,-0.14093 -2.0495504,-1.13725 -1.2124044,-2.04369 0.9600307,-1.00609 2.4619828,-1.19551 3.7770955,-1.21887"
           id="path42897"
           sodipodi:nodetypes="caaaaaaaac" /><path
           style="fill:none;stroke:#00ff00;stroke-width:0.5;stroke-linecap:round;stroke-linejoin:round;stroke-dasharray:none"
           d="m -10.863152,151.48678 c 0.75829,-0.11016 1.5546299,-0.20467 2.2132778,-0.6291 0.2277798,-0.24364 0.043083,-0.62274 -0.2045571,-0.77365 -0.2605874,-0.18187 -0.579998,-0.24061 -0.8806533,-0.32409"
           id="path34576"
           sodipodi:nodetypes="caaac" /><path
           style="fill:none;stroke:#00ff00;stroke-width:0.5;stroke-linecap:round;stroke-linejoin:round;stroke-dasharray:none"
           d="m -8.3143866,148.66786 c -0.4628772,-0.12969 -1.007022,-0.22348 -1.2947806,-0.65873 -0.1442112,-0.21162 -0.012533,-0.46444 0.1549347,-0.6136 0.3842981,-0.3711 0.9279712,-0.49026 1.4328534,-0.57964"
           id="path34578"
           sodipodi:nodetypes="caaac" /><path
           style="fill:none;stroke:#00ff00;stroke-width:0.5;stroke-linecap:round;stroke-linejoin:round;stroke-dasharray:none"
           d="m -11.044433,148.78054 c -0.270368,-0.51188 -0.406833,-1.24343 -0.147287,-1.77863 0.422823,-0.87189 2.4229866,-1.60404 2.4229866,-1.60404"
           id="path34580"
           sodipodi:nodetypes="cac" /><path
           style="fill:none;stroke:#00ff00;stroke-width:0.5;stroke-linecap:round;stroke-linejoin:round;stroke-dasharray:none"
           d="m -8.4604608,152.54419 c 0.6215044,-0.16398 1.2738488,-0.47358 1.6126987,-1.01004 0.2584009,-0.40909 0.1676663,-1.4422 0.1676663,-1.4422"
           id="path34582"
           sodipodi:nodetypes="cac" /><path
           style="fill:none;stroke:#00ff00;stroke-width:0.5;stroke-linecap:round;stroke-linejoin:round;stroke-dasharray:none"
           d="m -79.469566,153.48696 c 1.531912,-0.16697 3.285279,-0.13245 4.502718,-1.22547 0.666322,-1.03848 -0.611641,-1.95075 -1.519358,-2.13531 -0.96142,-0.18327 -2.162002,-1.29467 -1.233623,-2.23927 1.063558,-1.04736 2.681713,-1.19785 4.093869,-1.17649"
           id="path42897-1"
           sodipodi:nodetypes="caaaaaaaac" /><path
           style="fill:none;stroke:#00ff00;stroke-width:0.5;stroke-linecap:round;stroke-linejoin:round;stroke-dasharray:none"
           d="m -78.238189,152.54772 c 0.768738,-0.086 1.575386,-0.15503 2.253449,-0.56038 0.237539,-0.2376 0.06306,-0.62492 -0.182115,-0.78479 -0.257266,-0.19143 -0.577774,-0.26094 -0.878571,-0.35473"
           id="path34576-2"
           sodipodi:nodetypes="caaac" /><path
           style="fill:none;stroke:#00ff00;stroke-width:0.5;stroke-linecap:round;stroke-linejoin:round;stroke-dasharray:none"
           d="m -75.507062,149.64462 c -0.517855,-0.16345 -1.128653,-0.28946 -1.438348,-0.7908 -0.155428,-0.24392 0.0019,-0.52398 0.196024,-0.68586 0.446473,-0.40397 1.064091,-0.518 1.636912,-0.59992"
           id="path34578-7"
           sodipodi:nodetypes="caaac" /><path
           style="fill:none;stroke:#00ff00;stroke-width:0.5;stroke-linecap:round;stroke-linejoin:round;stroke-dasharray:none"
           d="m -78.679239,149.40532 c -0.273246,-0.55969 -0.468566,-1.29105 -0.08225,-1.84688 0.623288,-0.89048 1.725288,-1.2626 2.76269,-1.31691"
           id="path34580-0"
           sodipodi:nodetypes="caaac" /><path
           style="fill:none;stroke:#00ff00;stroke-width:0.5;stroke-linecap:round;stroke-linejoin:round;stroke-dasharray:none"
           d="m -76.011067,153.79694 c 0.67242,-0.15427 1.362873,-0.48386 1.734868,-1.04815 0.289357,-0.43893 0.303519,-1.0433 0.217982,-1.56241"
           id="path34582-9"
           sodipodi:nodetypes="caa" /><path
           style="fill:none;stroke:#00ff00;stroke-width:0.5;stroke-linecap:round;stroke-linejoin:round;stroke-dasharray:none"
           d="m -87.746044,141.6067 c 0,0 -1.163686,8.31107 1.258814,11.13768 0.674797,0.78737 1.967422,0.67569 2.992378,0.79825 0.853266,0.10203 2.577667,-0.0584 2.577667,-0.0584"
           id="path35155"
           sodipodi:nodetypes="caac" /><path
           style="fill:none;stroke:#00ff00;stroke-width:0.5;stroke-linecap:round;stroke-linejoin:round;stroke-dasharray:none"
           d="m -82.913899,152.66927 c 0,0 -1.72489,0.14617 -2.392499,-0.30295 -0.696016,-0.46823 -1.009772,-1.38626 -1.239664,-2.19612 -0.601305,-2.11825 -0.263044,-6.60487 -0.263044,-6.60487"
           id="path35157"
           sodipodi:nodetypes="caac" /><path
           style="fill:none;stroke:#00ff00;stroke-width:0.5;stroke-linecap:round;stroke-linejoin:round;stroke-dasharray:none"
           d="m -88.166456,152.34906 c 0,0 -0.700591,-2.8877 -0.844265,-4.36208 -0.178762,-1.83476 -0.01735,-5.53118 -0.01735,-5.53118"
           id="path35159"
           sodipodi:nodetypes="cac" /><path
           style="fill:none;stroke:#00ff00;stroke-width:0.5;stroke-linecap:round;stroke-linejoin:round;stroke-dasharray:none"
           d="m -78.550361,151.73006 c 0,0 -2.392404,-0.005 -3.488212,-0.50552 -0.793007,-0.36236 -1.645886,-0.88115 -2.0878,-1.74165 -0.281434,-0.54802 -0.328866,-1.27732 -0.215016,-1.89859 0.16335,-0.89138 0.610439,-1.76989 1.230469,-2.30699 0.435691,-0.37742 1.571573,-0.48927 1.571573,-0.48927"
           id="path11684-7"
           sodipodi:nodetypes="caaaac" /><path
           style="fill:none;stroke:#00ff00;stroke-width:0.5;stroke-linecap:round;stroke-linejoin:round;stroke-dasharray:none"
           d="m -83.79729,148.50421 2.237842,-0.0768"
           id="path11694-5"
           sodipodi:nodetypes="cc" /><path
           style="fill:none;stroke:#00ff00;stroke-width:0.5;stroke-linecap:round;stroke-linejoin:round;stroke-dasharray:none"
           d="m -78.777341,150.76931 c 0,0 -1.378123,-0.12599 -2.034787,-0.32977 -0.741261,-0.23004 -1.498936,-0.5094 -2.10779,-0.99467"
           id="path33428-3"
           sodipodi:nodetypes="cac" /><path
           style="fill:none;stroke:#00ff00;stroke-width:0.5;stroke-linecap:round;stroke-linejoin:round;stroke-dasharray:none"
           d="m -83.664299,147.72589 c 0,0 1.03799,-0.053 1.556005,-0.0939 0.209783,-0.0166 0.628344,-0.0613 0.628344,-0.0613"
           id="path33432-5"
           sodipodi:nodetypes="cac" /><path
           style="fill:none;stroke:#00ff00;stroke-width:0.5;stroke-linecap:round;stroke-linejoin:round;stroke-dasharray:none"
           d="m -85.090786,146.74949 c 0,0 0.48243,-1.10086 0.858173,-1.5582 0.311164,-0.37874 0.685287,-0.73022 1.124427,-0.94324 0.557286,-0.27033 1.816684,-0.37642 1.816684,-0.37642"
           id="path33434-6"
           sodipodi:nodetypes="caac" /><path
           style="fill:none;stroke:#00ff00;stroke-width:0.5;stroke-linecap:round;stroke-linejoin:round;stroke-dasharray:none"
           d="m -45.793755,158.11295 -0.185058,0.74877 c -0.01037,0.042 -0.07605,0.0611 -0.117927,0.052 -0.07005,-0.0154 -0.105195,-0.10038 -0.143316,-0.16157 m -0.346474,-0.55619 -0.5619,-0.90201 c -0.04342,-0.0697 -0.07882,-0.14611 -0.09897,-0.22591 -0.01283,-0.0508 -0.01548,-0.10433 -0.01292,-0.15668 h -10e-7 l 0.02667,-0.54377"
           id="path45027"
           sodipodi:nodetypes="csaccsassc" /><path
           style="fill:none;stroke:#00ff00;stroke-width:0.5;stroke-linecap:round;stroke-linejoin:round;stroke-dasharray:none"
           d="m -45.649217,151.58116 c 0.01088,0.032 0.02263,0.0632 0.03389,0.0929 0.219965,0.57982 0.901048,0.86481 1.448581,1.14125 0.460707,0.2326 0.977785,0.45689 1.491823,0.40828 0.08414,-0.008 0.150065,-0.0131 0.213882,-0.0227 m 1.477736,-1.01487 c 0.338699,-0.43916 0.561328,-0.93806 0.65849,-1.48717 m -0.443898,-1.81794 c -0.05437,-0.0636 -0.113898,-0.11995 -0.199798,-0.2052 -0.524406,-0.52049 -1.241263,-1.00887 -1.976768,-0.98345 -0.254943,0.009 -0.452098,0.009 -0.688506,0.0998 m -1.359779,0.9645 c -0.05386,0.0631 -0.098,0.13246 -0.158654,0.22025 -0.198146,0.28676 -0.388465,0.66374 -0.456127,1.03941"
           id="path37294-3"
           sodipodi:nodetypes="csasccccssccsc" /><path
           style="fill:none;stroke:#00ff00;stroke-width:0.5;stroke-linecap:round;stroke-linejoin:round;stroke-dasharray:none"
           d="m -44.360119,153.83797 c -0.07549,0.053 -0.208043,0.0282 -0.273148,-0.0371 -0.05487,-0.055 -0.06227,-0.15995 -0.03229,-0.23202 0.02318,-0.0557 0.09209,-0.0487 0.144514,-0.10793 0.03278,-0.037 0.06647,-0.1245 0.102357,-0.17353"
           id="path37298-9"
           sodipodi:nodetypes="caasc" /><path
           style="fill:none;stroke:#00ff00;stroke-width:0.5;stroke-linecap:round;stroke-linejoin:round;stroke-dasharray:none"
           d="m -41.590134,153.13948 c 0.08698,-0.0129 0.171147,-0.0799 0.213643,-0.15823 0.03795,-0.07 0.06557,-0.17793 0.01514,-0.23846"
           id="path37302-4"
           sodipodi:nodetypes="cac" /><path
           style="fill:none;stroke:#00ff00;stroke-width:0.5;stroke-linecap:round;stroke-linejoin:round;stroke-dasharray:none"
           d="m -40.272846,149.46796 c 0.04751,0.0189 0.08602,0.0643 0.107025,0.11134 0.03348,0.075 0.04829,0.16949 0.01839,0.24562"
           id="path37304-7"
           sodipodi:nodetypes="cac" /><path
           style="fill:none;stroke:#00ff00;stroke-width:0.5;stroke-linecap:round;stroke-linejoin:round;stroke-dasharray:none"
           d="m -44.163652,148.08294 c -0.01294,-0.0682 -0.104515,-0.10049 -0.171929,-0.11279 -0.08242,-0.015 -0.176826,0.007 -0.245281,0.0549 -0.06018,0.0425 -0.125063,0.11378 -0.117701,0.18713"
           id="path37306-8"
           sodipodi:nodetypes="caac" /><path
           style="fill:none;stroke:#00ff00;stroke-width:0.5;stroke-linecap:round;stroke-linejoin:round;stroke-dasharray:none"
           d="m -40.682576,149.80235 c -0.05566,0.0143 -0.123555,0.0743 -0.179001,0.0506"
           id="path37310-4"
           sodipodi:nodetypes="cc" /><path
           style="fill:none;stroke:#00ff00;stroke-width:0.5;stroke-linecap:round;stroke-linejoin:round;stroke-dasharray:none"
           d="m -41.276119,149.51063 c -0.04824,-0.0375 -0.127543,-0.0147 -0.18387,0.0107"
           id="path37312-5"
           sodipodi:nodetypes="cc" /><path
           style="fill:none;stroke:#00ff00;stroke-width:0.5;stroke-linecap:round;stroke-linejoin:round;stroke-dasharray:none"
           d="m -41.344889,150.09347 c 0,0 -0.09562,0.0269 -0.140303,0.013"
           id="path37314-0"
           sodipodi:nodetypes="cc" /><path
           style="fill:none;stroke:#00ff00;stroke-width:0.5;stroke-linecap:round;stroke-linejoin:round;stroke-dasharray:none"
           d="m -41.937781,149.7286 c -0.04868,-0.0143 -0.09635,-0.0345 -0.14525,-0.0579"
           id="path37316-3"
           sodipodi:nodetypes="cc" /><path
           style="fill:none;stroke:#00ff00;stroke-width:0.5;stroke-linecap:round;stroke-linejoin:round;stroke-dasharray:none"
           d="m -42.361311,149.20065 c -0.04884,-0.0553 -0.137532,-0.0823 -0.209501,-0.0672"
           id="path37318-6"
           sodipodi:nodetypes="cc" /><path
           style="fill:none;stroke:#00ff00;stroke-width:0.5;stroke-linecap:round;stroke-linejoin:round;stroke-dasharray:none"
           d="m -43.071892,149.389 c -0.06746,-0.0248 -0.10529,-0.0599 -0.160324,-0.095"
           id="path37320-1"
           sodipodi:nodetypes="cc" /><path
           style="fill:none;stroke:#00ff00;stroke-width:0.5;stroke-linecap:round;stroke-linejoin:round;stroke-dasharray:none"
           d="m -42.580286,149.86006 c -0.0463,0.001 -0.09792,-0.008 -0.133713,-0.0373"
           id="path37322-0"
           sodipodi:nodetypes="cc" /><path
           style="fill:none;stroke:#00ff00;stroke-width:0.5;stroke-linecap:round;stroke-linejoin:round;stroke-dasharray:none"
           d="m -43.418447,148.79404 c -0.01745,-0.0534 -0.05663,-0.0745 -0.09618,-0.0971 -0.04124,-0.0236 -0.08891,-0.0643 -0.138109,-0.035"
           id="path37324-6"
           sodipodi:nodetypes="cac" /><path
           style="fill:none;stroke:#00ff00;stroke-width:0.5;stroke-linecap:round;stroke-linejoin:round;stroke-dasharray:none"
           d="m -44.161532,148.7605 c -0.04324,-0.0397 -0.04924,-0.0347 -0.06075,-0.0927"
           id="path37326-3"
           sodipodi:nodetypes="cc" /><path
           style="fill:none;stroke:#00ff00;stroke-width:0.5;stroke-linecap:round;stroke-linejoin:round;stroke-dasharray:none"
           d="m -43.7666,149.31684 c 0,0 -0.08765,-0.0141 -0.125159,-0.036 -0.01735,-0.0101 -0.04305,-0.0422 -0.04305,-0.0422"
           id="path37328-2"
           sodipodi:nodetypes="cac" /><path
           style="fill:none;stroke:#00ff00;stroke-width:0.5;stroke-linecap:round;stroke-linejoin:round;stroke-dasharray:none"
           d="m -42.466522,152.11639 c -0.04316,-0.0474 -0.128558,-0.0581 -0.188008,-0.0343"
           id="path37330-0"
           sodipodi:nodetypes="cc" /><path
           style="fill:none;stroke:#00ff00;stroke-width:0.5;stroke-linecap:round;stroke-linejoin:round;stroke-dasharray:none"
           d="m -41.900655,152.69406 c 0,0 -0.158062,0.045 -0.254422,0.0383"
           id="path37332-6"
           sodipodi:nodetypes="cc" /><path
           style="fill:none;stroke:#00ff00;stroke-width:0.5;stroke-linecap:round;stroke-linejoin:round;stroke-dasharray:none"
           d="m -42.66694,152.70091 c -0.02624,-0.0113 -0.114229,0.01 -0.125043,-0.0172"
           id="path37334-1"
           sodipodi:nodetypes="cc" /><path
           style="fill:none;stroke:#00ff00;stroke-width:0.5;stroke-linecap:round;stroke-linejoin:round;stroke-dasharray:none"
           d="m -43.169565,152.48565 c -0.05307,-0.006 -0.03867,-0.003 -0.07669,-0.0158"
           id="path37336-5"
           sodipodi:nodetypes="cc" /><path
           style="fill:none;stroke:#00ff00;stroke-width:0.5;stroke-linecap:round;stroke-linejoin:round;stroke-dasharray:none"
           d="m -43.229476,151.89329 c 0.01036,-0.0497 -0.01352,-0.10842 -0.05086,-0.14211 -0.0286,-0.0258 -0.07383,-0.0233 -0.112194,-0.0275"
           id="path37338-5"
           sodipodi:nodetypes="cac" /><path
           style="fill:none;stroke:#00ff00;stroke-width:0.5;stroke-linecap:round;stroke-linejoin:round;stroke-dasharray:none"
           d="m -43.756826,152.39039 c -0.03409,0.001 -0.06739,-0.018 -0.09572,-0.0375"
           id="path37340-4"
           sodipodi:nodetypes="cc" /><path
           style="fill:none;stroke:#00ff00;stroke-width:0.5;stroke-linecap:round;stroke-linejoin:round;stroke-dasharray:none"
           d="m -43.937014,151.83545 c -0.01894,-0.009 -0.04415,-0.0231 -0.06465,-0.038"
           id="path37342-7"
           sodipodi:nodetypes="cc" /><path
           style="fill:none;stroke:#00ff00;stroke-width:0.5;stroke-linecap:round;stroke-linejoin:round;stroke-dasharray:none"
           d="m -44.096453,151.23719 c -0.02027,-0.0369 -0.04887,-0.0777 -0.08932,-0.0894 -0.03464,-0.01 -0.07664,0.002 -0.105515,0.0239"
           id="path37344-6"
           sodipodi:nodetypes="cac" /><path
           style="fill:none;stroke:#00ff00;stroke-width:0.5;stroke-linecap:round;stroke-linejoin:round;stroke-dasharray:none"
           d="m -44.763228,151.43128 c -0.08021,-0.0205 -0.105704,-0.009 -0.200319,-0.0723 -0.126563,-0.0846 -0.208937,-0.12355 -0.299708,-0.24604"
           id="path37346-5"
           sodipodi:nodetypes="csc" /><path
           style="fill:none;stroke:#00ff00;stroke-width:0.5;stroke-linecap:round;stroke-linejoin:round;stroke-dasharray:none"
           d="m -45.683908,150.56747 c -0.03349,-0.0113 -0.105496,8.8e-4 -0.144475,0.031 -0.02483,0.0192 -0.03331,0.054 -0.04234,0.0841 -0.01887,0.0629 -0.036,0.13122 -0.02297,0.19555 0.0096,0.0474 0.03523,0.10187 0.07161,0.12613"
           id="path37348-6"
           sodipodi:nodetypes="caaac" /><path
           style="fill:none;stroke:#00ff00;stroke-width:0.5;stroke-linecap:round;stroke-linejoin:round;stroke-dasharray:none"
           d="m -44.469874,152.02752 c -0.03544,0.009 -0.07706,0.007 -0.108943,-0.011 -0.03011,-0.0168 -0.0527,-0.049 -0.06296,-0.0821"
           id="path37350-9"
           sodipodi:nodetypes="cac" /><path
           style="fill:none;stroke:#00ff00;stroke-width:0.5;stroke-linecap:round;stroke-linejoin:round;stroke-dasharray:none"
           d="m -43.125236,153.79325 c -0.168296,0.0923 -0.414345,0.23362 -0.551969,0.34246 -0.105422,0.0834 -0.232888,0.20472 -0.358538,0.33241"
           id="path37775-3"
           sodipodi:nodetypes="csc" /><path
           style="fill:none;stroke:#00ff00;stroke-width:0.5;stroke-linecap:round;stroke-linejoin:round;stroke-dasharray:none"
           d="m -45.422093,154.24661 c 0.0376,-0.23885 0.09279,-0.62501 0.09742,-0.86048 0.0026,-0.13312 -0.01653,-0.34075 -0.03366,-0.49598"
           id="path37781-5"
           sodipodi:nodetypes="csc" /><path
           style="fill:none;stroke:#00ff00;stroke-width:0.5;stroke-linecap:round;stroke-linejoin:round;stroke-dasharray:none"
           d="m -45.591479,156.5049 c 0.06041,-0.0632 0.173326,-0.092 0.255045,-0.0618 0.08941,0.0331 0.145853,0.13918 0.165456,0.23224 0.0197,0.0935 0.0091,0.21241 -0.05777,0.28144"
           id="path42371"
           sodipodi:nodetypes="caac" /><path
           style="fill:none;stroke:#00ff00;stroke-width:0.5;stroke-linecap:round;stroke-linejoin:round;stroke-dasharray:none"
           d="m -44.189572,156.11636 c 0.04788,0.0769 0.03934,0.18932 6.06e-4,0.27085 -0.0442,0.093 -0.137313,0.18413 -0.240344,0.19538 -0.0869,0.009 -0.191844,-0.0412 -0.234914,-0.11702"
           id="path42397"
           sodipodi:nodetypes="caac" /><path
           style="fill:none;stroke:#00ff00;stroke-width:0.5;stroke-linecap:round;stroke-linejoin:round;stroke-dasharray:none"
           d="m -45.039351,155.3686 c 0.06928,-0.0483 0.179548,-0.0519 0.253124,-0.0111 0.07915,0.044 0.126206,0.14643 0.131883,0.23652 0.0065,0.10283 -0.03076,0.22769 -0.11539,0.28757"
           id="path42399"
           sodipodi:nodetypes="caac" /><path
           style="fill:none;stroke:#00ff00;stroke-width:0.5;stroke-linecap:round;stroke-linejoin:round;stroke-dasharray:none"
           d="m -45.542691,155.57611 c 0.03271,0.0896 -0.01146,0.20137 -0.06959,0.2766 -0.05839,0.0756 -0.155767,0.14456 -0.251646,0.13828 -0.08423,-0.006 -0.172715,-0.0715 -0.204743,-0.14937"
           id="path42401"
           sodipodi:nodetypes="caac" /><path
           style="fill:none;stroke:#00ff00;stroke-width:0.5;stroke-linecap:round;stroke-linejoin:round;stroke-dasharray:none"
           d="m -44.398524,157.14539 -0.730727,0.35735 c -0.09477,0.0463 -0.210239,0.0633 -0.313174,0.0413 -0.102588,-0.0219 -0.207713,-0.079 -0.268452,-0.16522 m -0.209246,-0.29683 -0.562196,-0.79753 m -0.157317,-0.22317 c -0.07133,-0.1012 -0.09351,-0.24177 -0.07572,-0.36476 0.01292,-0.0893 0.04589,-0.20169 0.127732,-0.2382 l 0.701562,-0.31298 m 0.284167,-0.12677 0.622956,-0.27792 c 0.113689,-0.0507 0.255408,-0.0278 0.372431,0.0141 0.108689,0.0389 0.20912,0.11528 0.276438,0.2097 l 0.578569,0.81144 m 0.301177,0.42239 c 0.07522,0.1055 0.08404,0.26887 0.03353,0.3886 -0.04035,0.0956 -0.147731,0.15072 -0.240458,0.19606"
           id="path42403"
           sodipodi:nodetypes="csaccccasccsasccac" /><path
           style="fill:none;stroke:#00ff00;stroke-width:0.5;stroke-linecap:round;stroke-linejoin:round;stroke-dasharray:none"
           d="m -43.32488,157.23817 -0.0853,0.23915 m -0.202861,0.56874 c -0.0251,0.0703 -0.08676,0.12252 -0.14092,0.17359 -0.07807,0.0736 -0.166025,0.13851 -0.261173,0.18758 m -0.654863,0.3377 -0.688991,0.3553"
           id="path43051"
           sodipodi:nodetypes="cccaccc" /><path
           style="fill:none;stroke:#00ff00;stroke-width:0.5;stroke-linecap:round;stroke-linejoin:round;stroke-dasharray:none"
           d="m -47.924408,155.62821 c -0.225595,-0.39509 -0.50994,-0.92128 -0.642923,-1.28168"
           id="path45029"
           sodipodi:nodetypes="cc" /><path
           style="fill:none;stroke:#00ff00;stroke-width:0.5;stroke-linecap:round;stroke-linejoin:round;stroke-dasharray:none"
           d="m -46.167592,152.37235 c -0.04458,-0.0907 -0.09545,-0.18975 -0.135836,-0.25594 -0.113859,-0.18662 -0.385277,-0.53016 -0.385277,-0.53016"
           id="path45031"
           sodipodi:nodetypes="csc" /><path
           style="fill:none;stroke:#00ff00;stroke-width:0.5;stroke-linecap:round;stroke-linejoin:round;stroke-dasharray:none"
           d="m -45.837324,148.39661 c -0.119928,-0.0645 -0.264792,-0.14097 -0.363197,-0.18795 -0.200838,-0.0959 -0.613417,-0.26329 -0.613417,-0.26329"
           id="path45033"
           sodipodi:nodetypes="csc" /></g></g><g
       inkscape:label="svglink:blueprint_closing.svg"
       ns3:href="blueprint_closing.svg"
       ns4:x="-130.61897"
       ns4:y="186.97728"
       ns3:image-svg-dpi="200"
       ns3:image-height="39.920067"
       ns3:image-width="156.24097"
       id="g1"
       transform="translate(-5.257,-14.928)"><title
   transform="translate(-130.619, 186.977)"
   id="title1">Exported SVG</title>&#10;&#10;<style
   transform="translate(-130.619, 186.977)"
   id="style1"><![CDATA[
polygon {
shape-rendering:crispEdges;
stroke-width:0.156595;
}
.s0 {
stroke:#000000;
stroke-width:0.360309;
stroke-linecap:round;
stroke-linejoin:round;
fill:none;
}
.s1 {
stroke:#000000;
stroke-width:0.360309;
stroke-linecap:round;
stroke-linejoin:round;
fill:none;
}
.s2 {
stroke:#19b219;
stroke-width:0.360309;
stroke-linecap:round;
stroke-linejoin:round;
fill:none;
}
.s3 {
stroke:#7f4c00;
stroke-width:0.360309;
stroke-linecap:round;
stroke-linejoin:round;
fill:none;
}
.s4 {
stroke:#00cc00;
stroke-width:0.360309;
stroke-linecap:round;
stroke-linejoin:round;
fill:none;
}
.s5 {
stroke:#000000;
stroke-width:0.240206;
stroke-linecap:round;
stroke-linejoin:round;
fill:none;
}
.s6 {
stroke:#ff19ff;
stroke-width:0.240206;
stroke-linecap:round;
stroke-linejoin:round;
fill:none;
}
.s7 {
stroke:#ff0000;
stroke-width:0.360309;
stroke-linecap:round;
stroke-linejoin:round;
fill:none;
}
.s8 {
stroke:#ffff00;
stroke-width:0.360309;
stroke-linecap:round;
stroke-linejoin:round;
fill:none;
}
.s9 {
stroke:#001919;
stroke-width:0.240206;
stroke-linecap:round;
stroke-linejoin:round;
fill:none;
}
.sa {
stroke:#006666;
stroke-width:0.240206;
stroke-linecap:round;
stroke-linejoin:round;
fill:none;
}
.sb {
stroke:#00ffff;
stroke-width:0.720617;
stroke-linecap:round;
stroke-linejoin:round;
fill:none;
}
.sc {
stroke:#ff0000;
stroke-width:1.921646;
stroke-linecap:round;
stroke-linejoin:round;
fill:none;
}
.sd {
stroke:#191919;
stroke-width:0.240206;
stroke-linecap:round;
stroke-linejoin:round;
fill:none;
}
.se {
stroke:#000000;
stroke-width:0.240206;
stroke-linecap:round;
stroke-linejoin:round;
stroke-dasharray:3.603,3.603;
fill:none;
}
.sf {
stroke:#000000;
stroke-width:0.720617;
stroke-linecap:round;
stroke-linejoin:round;
fill:none;
}
.s100 {
stroke:#ff0000;
stroke-width:0.500000;
stroke-linecap:round;
stroke-linejoin:round;
fill:none;
}
]]></style>&#10;<path
   d="m 5,8.06 v 24 -24"
   class="s100"
   transform="translate(-130.619,186.977)"
   id="path1" />&#10;<path
   d="m 84.472,5.945 v 0"
   class="s100"
   transform="translate(-130.619,186.977)"
   id="path3" />&#10;<path
   d="m 5,8.06 h 22.297 a 0.75,0.75 0 0 1 0.65,0.375 0.75,0.75 0 0 0 0.798,0.36 A 0.75,0.75 0 0 0 29.341,8.154 0.75,0.75 0 0 0 28.923,7.385 0.75,0.75 0 0 1 28.502,6.764 L 28.453,6.083 A 0.75,0.75 0 0 1 28.459,5.917 L 28.501,5.639 A 0.75,0.75 0 0 1 29.242,5 h 4.514 a 0.75,0.75 0 0 1 0.748,0.696 l 0.078,1.068 A 0.75,0.75 0 0 1 34.255,7.439 0.75,0.75 0 0 0 33.96,8.28 0.75,0.75 0 0 0 34.676,8.81 0.75,0.75 0 0 0 35.393,8.28 0.75,0.75 0 0 0 35.098,7.439 0.75,0.75 0 0 1 34.771,6.764 L 34.849,5.696 A 0.75,0.75 0 0 1 35.597,5 h 4.514 a 0.75,0.75 0 0 1 0.741,0.639 l 0.042,0.278 A 0.75,0.75 0 0 1 40.9,6.083 l -0.049,0.681 a 0.75,0.75 0 0 1 -0.421,0.621 0.75,0.75 0 0 0 -0.418,0.769 0.75,0.75 0 0 0 0.596,0.641 0.75,0.75 0 0 0 0.798,-0.36 0.75,0.75 0 0 1 0.65,-0.375 h 28.862 a 0.75,0.75 0 0 1 0.65,0.375 0.75,0.75 0 0 0 0.792,0.361 0.75,0.75 0 0 0 0.6,-0.63 A 0.75,0.75 0 0 0 72.561,7.393 0.75,0.75 0 0 1 72.155,6.762 L 72.12,6.056 A 0.75,0.75 0 0 1 72.123,5.945 L 72.15,5.675 A 0.75,0.75 0 0 1 72.896,5 h 4.538 a 0.75,0.75 0 0 1 0.75,0.714 l 0.011,0.227 A 0.75,0.75 0 0 1 77.73,6.672 1.5,1.5 0 0 0 76.826,8.349 1.5,1.5 0 0 0 78.297,9.56 1.5,1.5 0 0 0 79.769,8.349 1.5,1.5 0 0 0 78.865,6.672 0.75,0.75 0 0 1 78.4,5.941 L 78.411,5.714 A 0.75,0.75 0 0 1 79.161,5 h 4.587 a 0.75,0.75 0 0 1 0.595,0.294 0.75,0.75 0 0 1 0.129,0.651 0.75,0.75 0 0 1 0.003,0.111 L 84.44,6.762 a 0.75,0.75 0 0 1 -0.406,0.631 0.75,0.75 0 0 0 -0.399,0.773 0.75,0.75 0 0 0 0.6,0.63 0.75,0.75 0 0 0 0.792,-0.361 0.75,0.75 0 0 1 0.65,-0.375 h 28.862 a 0.75,0.75 0 0 1 0.65,0.375 0.75,0.75 0 0 0 0.798,0.36 0.75,0.75 0 0 0 0.596,-0.641 0.75,0.75 0 0 0 -0.418,-0.769 0.75,0.75 0 0 1 -0.421,-0.621 l -0.049,-0.681 a 0.75,0.75 0 0 1 0.006,-0.166 l 0.042,-0.278 A 0.75,0.75 0 0 1 116.484,5 h 4.514 a 0.75,0.75 0 0 1 0.748,0.696 l 0.078,1.068 a 0.75,0.75 0 0 1 -0.327,0.675 0.75,0.75 0 0 0 -0.295,0.841 0.75,0.75 0 0 0 0.717,0.53 0.75,0.75 0 0 0 0.716,-0.53 0.75,0.75 0 0 0 -0.295,-0.841 0.75,0.75 0 0 1 -0.327,-0.675 l 0.078,-1.068 A 0.75,0.75 0 0 1 122.839,5 h 4.514 a 0.75,0.75 0 0 1 0.741,0.639 l 0.042,0.278 a 0.75,0.75 0 0 1 0.006,0.166 l -0.049,0.681 a 0.75,0.75 0 0 1 -0.421,0.621 0.75,0.75 0 0 0 -0.418,0.769 0.75,0.75 0 0 0 0.596,0.641 0.75,0.75 0 0 0 0.798,-0.36 0.75,0.75 0 0 1 0.65,-0.375 h 22.297 v 24 h -22.297 a 0.75,0.75 0 0 1 -0.65,-0.375 0.75,0.75 0 0 0 -0.798,-0.36 0.75,0.75 0 0 0 -0.596,0.641 0.75,0.75 0 0 0 0.418,0.769 0.75,0.75 0 0 1 0.421,0.621 l 0.049,0.681 a 0.75,0.75 0 0 1 -0.006,0.166 l -0.042,0.278 a 0.75,0.75 0 0 1 -0.741,0.639 h -4.514 a 0.75,0.75 0 0 1 -0.748,-0.696 l -0.078,-1.068 a 0.75,0.75 0 0 1 0.327,-0.675 0.75,0.75 0 0 0 0.295,-0.841 0.75,0.75 0 0 0 -0.716,-0.53 0.75,0.75 0 0 0 -0.717,0.53 0.75,0.75 0 0 0 0.295,0.841 0.75,0.75 0 0 1 0.327,0.675 l -0.078,1.068 a 0.75,0.75 0 0 1 -0.748,0.696 h -4.514 a 0.75,0.75 0 0 1 -0.741,-0.639 l -0.042,-0.278 a 0.75,0.75 0 0 1 -0.006,-0.166 l 0.049,-0.681 a 0.75,0.75 0 0 1 0.421,-0.621 0.75,0.75 0 0 0 0.418,-0.769 0.75,0.75 0 0 0 -0.596,-0.641 0.75,0.75 0 0 0 -0.798,0.36 0.75,0.75 0 0 1 -0.65,0.375 H 85.677 a 0.75,0.75 0 0 1 -0.65,-0.375 0.75,0.75 0 0 0 -0.798,-0.36 0.75,0.75 0 0 0 -0.596,0.641 0.75,0.75 0 0 0 0.418,0.769 0.75,0.75 0 0 1 0.421,0.621 l 0.049,0.681 a 0.75,0.75 0 0 1 -0.006,0.166 l -0.042,0.278 A 0.75,0.75 0 0 1 83.732,35.12 H 79.218 A 0.75,0.75 0 0 1 78.47,34.424 l -0.078,-1.068 a 0.75,0.75 0 0 1 0.327,-0.675 0.75,0.75 0 0 0 0.295,-0.841 0.75,0.75 0 0 0 -0.717,-0.53 0.75,0.75 0 0 0 -0.716,0.53 0.75,0.75 0 0 0 0.295,0.841 0.75,0.75 0 0 1 0.327,0.675 l -0.078,1.068 A 0.75,0.75 0 0 1 77.377,35.12 H 72.863 A 0.75,0.75 0 0 1 72.122,34.481 L 72.08,34.203 a 0.75,0.75 0 0 1 -0.006,-0.166 l 0.049,-0.681 a 0.75,0.75 0 0 1 0.421,-0.621 0.75,0.75 0 0 0 0.418,-0.769 0.75,0.75 0 0 0 -0.596,-0.641 0.75,0.75 0 0 0 -0.798,0.36 0.75,0.75 0 0 1 -0.65,0.375 H 42.056 a 0.75,0.75 0 0 1 -0.65,-0.375 0.75,0.75 0 0 0 -0.798,-0.36 0.75,0.75 0 0 0 -0.596,0.641 0.75,0.75 0 0 0 0.418,0.769 0.75,0.75 0 0 1 0.421,0.621 l 0.049,0.681 a 0.75,0.75 0 0 1 -0.006,0.166 l -0.042,0.278 a 0.75,0.75 0 0 1 -0.741,0.639 h -4.514 a 0.75,0.75 0 0 1 -0.748,-0.696 l -0.078,-1.068 a 0.75,0.75 0 0 1 0.327,-0.675 0.75,0.75 0 0 0 0.295,-0.841 0.75,0.75 0 0 0 -0.717,-0.53 0.75,0.75 0 0 0 -0.716,0.53 0.75,0.75 0 0 0 0.295,0.841 0.75,0.75 0 0 1 0.327,0.675 l -0.078,1.068 a 0.75,0.75 0 0 1 -0.748,0.696 h -4.514 a 0.75,0.75 0 0 1 -0.741,-0.639 l -0.042,-0.278 a 0.75,0.75 0 0 1 -0.006,-0.166 l 0.049,-0.681 a 0.75,0.75 0 0 1 0.421,-0.621 0.75,0.75 0 0 0 0.418,-0.769 0.75,0.75 0 0 0 -0.596,-0.641 0.75,0.75 0 0 0 -0.798,0.36 0.75,0.75 0 0 1 -0.65,0.375 H 5"
   class="s100"
   transform="translate(-130.619,186.977)"
   id="path4" />&#10;<path
   d="m 28.502,6.764 a 0.75,0.75 0 0 0 0.421,0.621 0.75,0.75 0 0 1 0.418,0.769 0.75,0.75 0 0 1 -0.596,0.641 0.75,0.75 0 0 1 -0.798,-0.36 0.75,0.75 0 0 0 -0.65,-0.375 H 5"
   class="s100"
   transform="translate(-130.619,186.977)"
   id="path5" />&#10;<path
   d="m 115.744,6.764 a 0.75,0.75 0 0 0 0.421,0.621 0.75,0.75 0 0 1 0.418,0.769 0.75,0.75 0 0 1 -0.596,0.641 0.75,0.75 0 0 1 -0.798,-0.36 0.75,0.75 0 0 0 -0.65,-0.375 H 85.677"
   class="s100"
   transform="translate(-130.619,186.977)"
   id="path6" />&#10;<path
   d="M 34.255,7.439 A 0.75,0.75 0 0 0 34.582,6.764 L 34.504,5.696 A 0.75,0.75 0 0 0 33.756,5 h -4.514 a 0.75,0.75 0 0 0 -0.741,0.639 l -0.042,0.278 a 0.75,0.75 0 0 0 -0.006,0.166 l 0.049,0.681"
   class="s100"
   transform="translate(-130.619,186.977)"
   id="path7" />&#10;<path
   d="m 121.497,7.439 a 0.75,0.75 0 0 0 0.327,-0.675 L 121.746,5.696 A 0.75,0.75 0 0 0 120.998,5 h -4.514 a 0.75,0.75 0 0 0 -0.741,0.639 l -0.042,0.278 a 0.75,0.75 0 0 0 -0.006,0.166 l 0.049,0.681"
   class="s100"
   transform="translate(-130.619,186.977)"
   id="path8" />&#10;<path
   d="M 34.771,6.764 A 0.75,0.75 0 0 0 35.098,7.439 0.75,0.75 0 0 1 35.393,8.28 0.75,0.75 0 0 1 34.676,8.81 0.75,0.75 0 0 1 33.96,8.28 0.75,0.75 0 0 1 34.255,7.439"
   class="s100"
   transform="translate(-130.619,186.977)"
   id="path9" />&#10;<path
   d="m 122.013,6.764 a 0.75,0.75 0 0 0 0.327,0.675 0.75,0.75 0 0 1 0.295,0.841 0.75,0.75 0 0 1 -0.716,0.53 0.75,0.75 0 0 1 -0.717,-0.53 0.75,0.75 0 0 1 0.295,-0.841"
   class="s100"
   transform="translate(-130.619,186.977)"
   id="path10" />&#10;<path
   d="M 40.9,6.083 A 0.75,0.75 0 0 0 40.894,5.917 L 40.852,5.639 A 0.75,0.75 0 0 0 40.111,5 h -4.514 a 0.75,0.75 0 0 0 -0.748,0.696 l -0.078,1.068"
   class="s100"
   transform="translate(-130.619,186.977)"
   id="path11" />&#10;<path
   d="M 128.142,6.083 A 0.75,0.75 0 0 0 128.136,5.917 L 128.094,5.639 A 0.75,0.75 0 0 0 127.353,5 h -4.514 a 0.75,0.75 0 0 0 -0.748,0.696 l -0.078,1.068"
   class="s100"
   transform="translate(-130.619,186.977)"
   id="path12" />&#10;<path
   d="M 42.056,8.06 A 0.75,0.75 0 0 0 41.406,8.435 0.75,0.75 0 0 1 40.608,8.795 0.75,0.75 0 0 1 40.012,8.154 0.75,0.75 0 0 1 40.43,7.385 0.75,0.75 0 0 0 40.851,6.764 L 40.9,6.083"
   class="s100"
   transform="translate(-130.619,186.977)"
   id="path13" />&#10;<path
   d="m 129.298,8.06 a 0.75,0.75 0 0 0 -0.65,0.375 0.75,0.75 0 0 1 -0.798,0.36 0.75,0.75 0 0 1 -0.596,-0.641 0.75,0.75 0 0 1 0.418,-0.769 0.75,0.75 0 0 0 0.421,-0.621 l 0.049,-0.681"
   class="s100"
   transform="translate(-130.619,186.977)"
   id="path14" />&#10;<path
   d="m 129.298,8.06 h 22.297"
   class="s100"
   transform="translate(-130.619,186.977)"
   id="path15" />&#10;<path
   d="M 42.056,8.06 H 70.918"
   class="s100"
   transform="translate(-130.619,186.977)"
   id="path16" />&#10;&#10;</g></g></svg>
