<?xml version="1.0" encoding="UTF-8" standalone="no"?>
<!-- Created with Inkscape (http://www.inkscape.org/) -->

<svg
   width="147.095mm"
   height="30.620001mm"
   viewBox="0 0 147.095 30.620002"
   version="1.1"
   id="svg5"
   inkscape:version="1.3 (0e150ed6c4, 2023-07-21)"
   sodipodi:docname="merge_3.svg"
   xml:space="preserve"
   xmlns:inkscape="http://www.inkscape.org/namespaces/inkscape"
   xmlns:sodipodi="http://sodipodi.sourceforge.net/DTD/sodipodi-0.dtd"
   xmlns="http://www.w3.org/2000/svg"
   xmlns:svg="http://www.w3.org/2000/svg"
   xmlns:ns3="svglink"
   xmlns:ns4="svglink:origin"><sodipodi:namedview
     id="namedview7"
     pagecolor="#ffffff"
     bordercolor="#666666"
     borderopacity="1.0"
     inkscape:pageshadow="2"
     inkscape:pageopacity="0"
     inkscape:pagecheckerboard="false"
     inkscape:document-units="mm"
     showgrid="false"
     inkscape:zoom="2.1488963"
     inkscape:cx="264.08906"
     inkscape:cy="-18.381529"
     inkscape:window-width="1916"
     inkscape:window-height="1037"
     inkscape:window-x="0"
     inkscape:window-y="0"
     inkscape:window-maximized="1"
     inkscape:current-layer="g10446"
     inkscape:showpageshadow="2"
     inkscape:deskcolor="#ffffff" /><defs
     id="defs2" /><g
     inkscape:label="Layer 1"
     inkscape:groupmode="layer"
     id="g10446"
     transform="translate(131.126,-176.799)"><g
       inkscape:label="svglink:../art_3.svg"
       ns3:href="../art_3.svg"
       ns4:x="-133.3869"
       ns4:y="134.53955"
       ns3:image-svg-dpi="200"
       ns3:image-height="20.602337"
       ns3:image-width="144.99353"
       id="g1"
       transform="translate(4.132655,49.236459)"><sodipodi:namedview
         id="namedview1"
         pagecolor="#ffffff"
         bordercolor="#666666"
         borderopacity="1.0"
         inkscape:pageshadow="2"
         inkscape:pageopacity="0"
         inkscape:pagecheckerboard="false"
         inkscape:document-units="mm"
         showgrid="false"
         inkscape:zoom="0.351957"
         inkscape:cx="495.79921"
         inkscape:cy="-223.03861"
         inkscape:window-width="956"
         inkscape:window-height="1037"
         inkscape:window-x="0"
         inkscape:window-y="0"
         inkscape:window-maximized="1"
         inkscape:current-layer="layer1"
         inkscape:showpageshadow="2"
         inkscape:deskcolor="#ffffff"
         transform="translate(-133.387, 134.54)" /><defs
         id="defs1"
         transform="translate(-133.387, 134.54)"><clipPath
           clipPathUnits="userSpaceOnUse"
           id="clipPath12933">&#10;      <path
   d="m -89.348846,133.47717 17.321,10 17.32,-10 v -20 l -17.32,-10 -17.321,10 v 20"
   class="s1"
   id="path12931"
   style="fill:none;fill-opacity:1;stroke:#000000;stroke-width:0.0999998;stroke-linecap:round;stroke-linejoin:round;stroke-dasharray:none" />&#10;    </clipPath><clipPath
           clipPathUnits="userSpaceOnUse"
           id="clipPath12601"><path
             d="m -89.348846,133.47717 17.321,10 17.32,-10 v -20 l -17.32,-10 -17.321,10 v 20"
             class="s1"
             id="path12599"
             style="fill:none;fill-opacity:1;stroke:#000000;stroke-width:0.0999998;stroke-linecap:round;stroke-linejoin:round;stroke-dasharray:none" /></clipPath></defs><g
         inkscape:label="Layer 1"
         inkscape:groupmode="layer"
         id="layer1"
         transform="translate(-10.1099,-6.70345)"><path
           style="fill:none;stroke:#00ff00;stroke-width:0.5;stroke-linecap:round;stroke-linejoin:round;stroke-dasharray:none"
           d="m -65.533981,148.01761 0.457145,-0.53212 0.247599,0.46578"
           id="path5528-8" /><path
           style="fill:none;stroke:#00ff00;stroke-width:0.5;stroke-linecap:round;stroke-linejoin:round;stroke-dasharray:none"
           d="m -71.666054,150.02291 v -3.29685"
           id="path1973-8"
           sodipodi:nodetypes="cc" /><path
           style="fill:none;stroke:#00ff00;stroke-width:0.5;stroke-linecap:round;stroke-linejoin:round;stroke-dasharray:none"
           d="m -10.335764,147.5096 v 1.6524"
           id="path2673-1" /><path
           style="fill:none;stroke:#00ff00;stroke-width:0.5;stroke-linecap:round;stroke-linejoin:round;stroke-dasharray:none"
           d="m -10.354251,149.77269 v 0.29198"
           id="path2675-0" /><path
           style="fill:none;stroke:#00ff00;stroke-width:0.5;stroke-linecap:round;stroke-linejoin:round;stroke-dasharray:none"
           d="m -76.388345,149.32695 c 0,0 0.36216,0.0337 0.49613,-0.0657 0.11981,-0.0889 0.21671,-0.26188 0.18483,-0.40762 -0.0337,-0.15408 -0.20483,-0.2703 -0.35747,-0.31001 -0.31356,-0.0816 -0.7502,-0.0556 -0.95154,0.19822 -0.20575,0.25937 -0.14836,0.71027 0.0241,0.9929 0.14386,0.23583 0.46142,0.32264 0.72748,0.39698 0.18902,0.0528 0.58816,0.0267 0.58816,0.0267"
           id="path2693-9-4"
           sodipodi:nodetypes="caaaaaac" /><path
           style="fill:none;stroke:#00ff00;stroke-width:0.5;stroke-linecap:round;stroke-linejoin:round;stroke-dasharray:none"
           d="m -79.349335,148.49649 c 0,0 -0.01332,0.71715 0.132247,1.0319 0.102593,0.22183 0.262749,0.46233 0.493808,0.54198 0.08726,0.0301 0.27299,-0.0463 0.27299,-0.0463"
           id="path2687-7-0"
           sodipodi:nodetypes="caac" /><path
           style="fill:none;stroke:#00ff00;stroke-width:0.5;stroke-linecap:round;stroke-linejoin:round;stroke-dasharray:none"
           d="m -77.846152,150.13565 v -1.61327"
           id="path2689-0-7" /><path
           style="fill:none;stroke:#00ff00;stroke-width:0.5;stroke-linecap:round;stroke-linejoin:round;stroke-dasharray:none"
           d="m -79.97333,148.52282 v 3.30408"
           id="path3244-7" /><path
           style="fill:none;stroke:#00ff00;stroke-width:0.5;stroke-linecap:round;stroke-linejoin:round;stroke-dasharray:none"
           d="m -80.63269,150.17031 c 0,0 -0.45284,-0.0803 -0.63139,-0.21229 -0.20814,-0.15386 -0.458,-0.37229 -0.45247,-0.63107 0.006,-0.27821 0.28067,-0.50694 0.51497,-0.65708 0.18098,-0.11597 0.62732,-0.14935 0.62732,-0.14935"
           id="path3246-4"
           sodipodi:nodetypes="caaac" /><path
           style="fill:none;stroke:#00ff00;stroke-width:0.5;stroke-linecap:round;stroke-linejoin:round;stroke-dasharray:none"
           d="m -38.681691,150.03318 c 0,0 -0.09213,-1.36225 0.05506,-2.01933 0.06434,-0.28722 0.201889,-0.5571 0.354799,-0.8086 0.102683,-0.16889 0.372419,-0.46143 0.372419,-0.46143"
           id="path4284-9"
           sodipodi:nodetypes="caac" /><path
           style="fill:none;stroke:#00ff00;stroke-width:0.5;stroke-linecap:round;stroke-linejoin:round;stroke-dasharray:none"
           d="m -38.121602,148.39568 h 0.21998"
           id="path4286-5"
           sodipodi:nodetypes="cc" /><path
           style="fill:none;stroke:#00ff00;stroke-width:0.5;stroke-linecap:round;stroke-linejoin:round;stroke-dasharray:none"
           d="m -58.490306,148.39745 c 0,0 -0.0636,0.61835 -0.001,0.91792 0.0473,0.22769 0.0568,0.57047 0.27888,0.63951 0.23293,0.0724 0.4503,-0.21272 0.62126,-0.38671 0.2995,-0.3048 0.65826,-1.10004 0.65826,-1.10004"
           id="path2657-4-8"
           sodipodi:nodetypes="caaac" /><path
           style="fill:none;stroke:#00ff00;stroke-width:0.5;stroke-linecap:round;stroke-linejoin:round;stroke-dasharray:none"
           d="m -55.671906,150.01096 c -0.18835,0.0331 -0.41683,0.014 -0.5633,-0.10892 -0.15199,-0.12761 -0.21979,-0.35782 -0.21253,-0.55615 0.0115,-0.31556 0.13608,-0.68748 0.40198,-0.85781 0.16294,-0.10438 0.40435,-0.0841 0.58052,-0.004 0.20134,0.0915 0.36345,0.29285 0.43287,0.50284 0.0703,0.21271 0.069,0.47958 -0.0485,0.67036 -0.12038,0.19551 -0.36493,0.31391 -0.59106,0.35368 z"
           id="path2699-7-7-4"
           sodipodi:nodetypes="aaaaaaaa" /><path
           style="fill:none;stroke:#00ff00;stroke-width:0.5;stroke-linecap:round;stroke-linejoin:round;stroke-dasharray:none"
           d="m -68.763678,150.09169 c 0,0 0.405928,-0.018 0.582496,-0.10622 0.134471,-0.0672 0.329887,-0.15577 0.331145,-0.30608 0.003,-0.3556 -0.75716,-0.38182 -0.7712,-0.73715 -0.0064,-0.16269 0.180192,-0.29059 0.325364,-0.36431 0.232253,-0.11794 0.777703,-0.0764 0.777703,-0.0764"
           id="path5518-6"
           sodipodi:nodetypes="caaaac" /><path
           style="fill:none;stroke:#00ff00;stroke-width:0.5;stroke-linecap:round;stroke-linejoin:round;stroke-dasharray:none"
           d="m -52.819181,149.94178 c 0,0 -0.471072,-0.004 -0.643822,-0.13943 -0.151151,-0.1186 -0.25188,-0.32601 -0.252489,-0.51814 -8.27e-4,-0.26083 0.123682,-0.55737 0.338315,-0.70559 0.171525,-0.11845 0.623084,-0.0531 0.623084,-0.0531"
           id="path5606-1"
           sodipodi:nodetypes="caaac" /><path
           style="fill:none;stroke:#00ff00;stroke-width:0.5;stroke-linecap:round;stroke-linejoin:round;stroke-dasharray:none"
           d="m -52.175781,150.16953 v -1.75755"
           id="path5608-4" /><path
           style="fill:none;stroke:#00ff00;stroke-width:0.5;stroke-linecap:round;stroke-linejoin:round;stroke-dasharray:none"
           d="m -49.283548,150.04642 v -1.48991"
           id="path4432-7-8"
           sodipodi:nodetypes="cc" /><path
           style="fill:none;stroke:#00ff00;stroke-width:0.5;stroke-linecap:round;stroke-linejoin:round;stroke-dasharray:none"
           d="m -50.107368,147.99676 c 0,0 0.563529,-0.005 0.83199,-0.079 0.279134,-0.0773 0.783966,-0.37481 0.783966,-0.37481"
           id="path4434-2-9"
           sodipodi:nodetypes="csc" /><path
           style="fill:none;stroke:#00ff00;stroke-width:0.5;stroke-linecap:round;stroke-linejoin:round;stroke-dasharray:none"
           d="m -49.310964,147.27645 v -0.43432"
           id="path4436-7-2"
           sodipodi:nodetypes="cc" /><path
           style="fill:none;stroke:#00ff00;stroke-width:0.5;stroke-linecap:round;stroke-linejoin:round;stroke-dasharray:none"
           d="m -84.602546,150.12541 c -0.18835,0.0331 -0.41683,0.014 -0.5633,-0.10892 -0.152,-0.12761 -0.2198,-0.35782 -0.21253,-0.55615 0.0115,-0.31556 0.13608,-0.68748 0.40198,-0.8578 0.16294,-0.10439 0.40435,-0.0841 0.58052,-0.004 0.20134,0.0915 0.36345,0.29285 0.43287,0.50284 0.0703,0.21271 0.069,0.47958 -0.0485,0.67036 -0.12038,0.19552 -0.36493,0.31392 -0.59106,0.35368 z"
           id="path2699-7-78-4"
           sodipodi:nodetypes="aaaaaaaa" /><path
           style="fill:none;stroke:#00ff00;stroke-width:0.5;stroke-linecap:round;stroke-linejoin:round;stroke-dasharray:none"
           d="m -36.642946,150.0316 c 0,0 -0.471072,-0.004 -0.643822,-0.13943 -0.151151,-0.1186 -0.25188,-0.32601 -0.252489,-0.51814 -8.27e-4,-0.26083 0.123682,-0.55737 0.338315,-0.70559 0.171525,-0.11845 0.623084,-0.0531 0.623084,-0.0531"
           id="path8746-4-4"
           sodipodi:nodetypes="caaac" /><path
           style="fill:none;stroke:#00ff00;stroke-width:0.5;stroke-linecap:round;stroke-linejoin:round;stroke-dasharray:none"
           d="M -35.999546,150.25935 V 148.5018"
           id="path8748-9-8" /><path
           style="fill:none;stroke:#00ff00;stroke-width:0.5;stroke-linecap:round;stroke-linejoin:round;stroke-dasharray:none"
           d="m -51.494628,150.09383 0.0269,-1.56583"
           id="path5534-3-2" /><path
           style="fill:none;stroke:#00ff00;stroke-width:0.5;stroke-linecap:round;stroke-linejoin:round;stroke-dasharray:none"
           d="m -50.877765,148.58816 c 0,0 0.0944,-0.006 0.138816,0.008 0.14426,0.043 0.29297,0.11186 0.390797,0.22626 0.156794,0.18336 0.195548,0.44286 0.261017,0.67506 0.05304,0.18811 0.10536,0.57679 0.10536,0.57679"
           id="path5536-0-0"
           sodipodi:nodetypes="caaac" /><path
           style="fill:none;stroke:#00ff00;stroke-width:0.5;stroke-linecap:round;stroke-linejoin:round;stroke-dasharray:none"
           d="m -83.227959,150.20142 v -1.70811"
           id="path5632-9-2"
           sodipodi:nodetypes="cc" /><path
           style="fill:none;stroke:#00ff00;stroke-width:0.5;stroke-linecap:round;stroke-linejoin:round;stroke-dasharray:none"
           d="m -82.658322,148.61539 c 0,0 0.219808,-0.11255 0.33987,-0.12848 0.116051,-0.0154 0.349536,0.0342 0.349536,0.0342"
           id="path5634-2-5"
           sodipodi:nodetypes="cac" /><path
           style="fill:none;stroke:#00ff00;stroke-width:0.5;stroke-linecap:round;stroke-linejoin:round;stroke-dasharray:none"
           d="m -15.463725,150.19706 v -1.6524"
           id="path4402-0-2" /><path
           style="fill:none;stroke:#00ff00;stroke-width:0.5;stroke-linecap:round;stroke-linejoin:round;stroke-dasharray:none"
           d="m -15.482212,147.93397 v -0.29198"
           id="path4404-4-7" /><path
           style="fill:none;stroke:#00ff00;stroke-width:0.5;stroke-linecap:round;stroke-linejoin:round;stroke-dasharray:none"
           d="m -12.502448,150.24124 v -3.29685"
           id="path1973-9-8-2"
           sodipodi:nodetypes="cc" /><path
           style="fill:none;stroke:#00ff00;stroke-width:0.5;stroke-linecap:round;stroke-linejoin:round;stroke-dasharray:none"
           d="m -14.041816,149.34641 c 0,0 0.362165,0.0337 0.49613,-0.0657 0.119805,-0.0889 0.216707,-0.26188 0.184828,-0.40762 -0.0337,-0.15408 -0.204827,-0.2703 -0.357469,-0.31001 -0.313551,-0.0816 -0.750194,-0.0556 -0.951539,0.19822 -0.205742,0.25937 -0.148356,0.71027 0.02405,0.9929 0.14386,0.23583 0.461424,0.32264 0.727485,0.39698 0.189014,0.0528 0.588153,0.0267 0.588153,0.0267"
           id="path2045-6-9-2"
           sodipodi:nodetypes="caaaaaac" /><path
           style="fill:none;stroke:#00ff00;stroke-width:0.5;stroke-linecap:round;stroke-linejoin:round;stroke-dasharray:none"
           d="m -88.081822,150.05553 v -1.69715"
           id="path4837-9" /><path
           style="fill:none;stroke:#00ff00;stroke-width:0.5;stroke-linecap:round;stroke-linejoin:round;stroke-dasharray:none"
           d="m -87.482742,148.49332 c 0,0 0.238348,0.17367 0.338458,0.28074 0.16175,0.17299 0.324261,0.35766 0.415891,0.57605 0.08071,0.19235 0.105394,0.61686 0.105394,0.61686"
           id="path4839-3"
           sodipodi:nodetypes="caac" /><path
           style="fill:none;stroke:#00ff00;stroke-width:0.5;stroke-linecap:round;stroke-linejoin:round;stroke-dasharray:none"
           d="m -86.725908,148.39998 c 0,0 0.225547,0.0594 0.319167,0.12489 0.145523,0.10178 0.276669,0.23885 0.352554,0.3994 0.155981,0.33001 0.174344,1.08107 0.174344,1.08107"
           id="path4841-7"
           sodipodi:nodetypes="caac" /><path
           style="fill:none;stroke:#00ff00;stroke-width:0.5;stroke-linecap:round;stroke-linejoin:round;stroke-dasharray:none"
           d="m -92.564766,150.11832 -0.007,-2.36317 c 0,0 1.04687,-0.14273 1.44171,0.13488 0.10231,0.0719 0.18697,0.21775 0.1593,0.33972 -0.0585,0.25773 -0.38927,0.36229 -0.61341,0.5023 -0.11906,0.0744 -0.38269,0.17576 -0.38269,0.17576 l 1.02135,0.80009"
           id="path21159"
           sodipodi:nodetypes="ccaaacc" /><path
           style="fill:none;stroke:#00ff00;stroke-width:0.5;stroke-linecap:round;stroke-linejoin:round;stroke-dasharray:none"
           d="m -89.479936,149.24154 c 0,0 0.36216,0.0337 0.49613,-0.0657 0.11981,-0.0889 0.21671,-0.26188 0.18483,-0.40762 -0.0337,-0.15408 -0.20483,-0.2703 -0.35747,-0.31001 -0.31356,-0.0816 -0.7502,-0.0556 -0.95154,0.19822 -0.20575,0.25937 -0.14836,0.71027 0.0241,0.9929 0.14386,0.23583 0.46142,0.32264 0.72748,0.39698 0.18902,0.0528 0.58816,0.0267 0.58816,0.0267"
           id="path5514-4-5"
           sodipodi:nodetypes="caaaaaac" /><path
           style="fill:none;stroke:#00ff00;stroke-width:0.5;stroke-linecap:round;stroke-linejoin:round;stroke-dasharray:none"
           d="m -74.941222,148.55104 1.08099,-0.007 c -0.601884,0.47398 -0.964298,1.02386 -1.194749,1.563 l 1.160121,-0.003"
           id="path21936"
           sodipodi:nodetypes="cccc" /><path
           style="fill:none;stroke:#00ff00;stroke-width:0.5;stroke-linecap:round;stroke-linejoin:round;stroke-dasharray:none"
           d="m -70.259707,149.32695 c 0,0 0.36216,0.0337 0.49613,-0.0657 0.11981,-0.0889 0.21671,-0.26188 0.18483,-0.40762 -0.0337,-0.15408 -0.20483,-0.2703 -0.35747,-0.31001 -0.31356,-0.0816 -0.7502,-0.0556 -0.95154,0.19822 -0.20575,0.25937 -0.14836,0.71027 0.0241,0.9929 0.14386,0.23583 0.46142,0.32264 0.72748,0.39698 0.18902,0.0528 0.58816,0.0267 0.58816,0.0267"
           id="path22511"
           sodipodi:nodetypes="caaaaaac" /><path
           style="fill:none;stroke:#00ff00;stroke-width:0.5;stroke-linecap:round;stroke-linejoin:round;stroke-dasharray:none"
           d="M -21.907056,149.91035 V 146.6135"
           id="path1973-8-7"
           sodipodi:nodetypes="cc" /><path
           style="fill:none;stroke:#00ff00;stroke-width:0.5;stroke-linecap:round;stroke-linejoin:round;stroke-dasharray:none"
           d="m -20.500709,149.21439 c 0,0 0.36216,0.0337 0.49613,-0.0657 0.11981,-0.0889 0.21671,-0.26188 0.18483,-0.40762 -0.0337,-0.15408 -0.20483,-0.2703 -0.35747,-0.31001 -0.31356,-0.0816 -0.7502,-0.0556 -0.95154,0.19822 -0.20575,0.25937 -0.14836,0.71027 0.0241,0.9929 0.14386,0.23583 0.46142,0.32264 0.72748,0.39698 0.18902,0.0528 0.58816,0.0267 0.58816,0.0267"
           id="path22511-1"
           sodipodi:nodetypes="caaaaaac" /><path
           style="fill:none;stroke:#00ff00;stroke-width:0.5;stroke-linecap:round;stroke-linejoin:round;stroke-dasharray:none"
           d="m -65.201668,150.15601 v -1.49402"
           id="path22535"
           sodipodi:nodetypes="cc" /><path
           style="fill:none;stroke:#00ff00;stroke-width:0.5;stroke-linecap:round;stroke-linejoin:round;stroke-dasharray:none"
           d="m -64.300819,150.02291 v -3.29685"
           id="path22559"
           sodipodi:nodetypes="cc" /><path
           style="fill:none;stroke:#00ff00;stroke-width:0.5;stroke-linecap:round;stroke-linejoin:round;stroke-dasharray:none"
           d="m -62.77575,149.32695 c 0,0 0.36216,0.0337 0.49613,-0.0657 0.11981,-0.0889 0.21671,-0.26188 0.18483,-0.40762 -0.0337,-0.15408 -0.20483,-0.2703 -0.35747,-0.31001 -0.31356,-0.0816 -0.7502,-0.0556 -0.95154,0.19822 -0.20575,0.25937 -0.14836,0.71027 0.0241,0.9929 0.14386,0.23583 0.46142,0.32264 0.72748,0.39698 0.18902,0.0528 0.58816,0.0267 0.58816,0.0267"
           id="path22561"
           sodipodi:nodetypes="caaaaaac" /><path
           style="fill:none;stroke:#00ff00;stroke-width:0.5;stroke-linecap:round;stroke-linejoin:round;stroke-dasharray:none"
           d="m -47.81493,149.27321 c 0,0 0.36216,0.0337 0.49613,-0.0657 0.11981,-0.0889 0.21671,-0.26188 0.18483,-0.40762 -0.0337,-0.15408 -0.20483,-0.2703 -0.35747,-0.31001 -0.31356,-0.0816 -0.7502,-0.0556 -0.95154,0.19822 -0.20575,0.25937 -0.14836,0.71027 0.0241,0.9929 0.14386,0.23583 0.46142,0.32264 0.72748,0.39698 0.18902,0.0528 0.58816,0.0267 0.58816,0.0267"
           id="path22561-6"
           sodipodi:nodetypes="caaaaaac" /><path
           style="fill:none;stroke:#00ff00;stroke-width:0.5;stroke-linecap:round;stroke-linejoin:round;stroke-dasharray:none"
           d="m -61.293738,150.12092 c 0,0 0.405928,-0.018 0.582496,-0.10622 0.134471,-0.0672 0.329887,-0.15577 0.331145,-0.30608 0.003,-0.3556 -0.75716,-0.38182 -0.7712,-0.73715 -0.0064,-0.16269 0.180192,-0.29059 0.325364,-0.36431 0.232253,-0.11794 0.777703,-0.0764 0.777703,-0.0764"
           id="path22563"
           sodipodi:nodetypes="caaaac" /><path
           style="fill:none;stroke:#00ff00;stroke-width:0.5;stroke-linecap:round;stroke-linejoin:round;stroke-dasharray:none"
           d="m -46.369851,150.05329 c 0,0 0.405928,-0.018 0.582496,-0.10622 0.134471,-0.0672 0.329887,-0.15577 0.331145,-0.30608 0.003,-0.3556 -0.75716,-0.38182 -0.7712,-0.73715 -0.0064,-0.16269 0.180192,-0.29059 0.325364,-0.36431 0.232253,-0.11794 0.777703,-0.0764 0.777703,-0.0764"
           id="path22563-6"
           sodipodi:nodetypes="caaaac" /><path
           style="fill:none;stroke:#00ff00;stroke-width:0.5;stroke-linecap:round;stroke-linejoin:round;stroke-dasharray:none"
           d="m -54.320808,150.02291 v -3.29685"
           id="path22604"
           sodipodi:nodetypes="cc" /><path
           style="fill:none;stroke:#00ff00;stroke-width:0.5;stroke-linecap:round;stroke-linejoin:round;stroke-dasharray:none"
           d="m -42.562696,149.27321 c 0,0 0.36216,0.0337 0.49613,-0.0657 0.11981,-0.0889 0.21671,-0.26188 0.18483,-0.40762 -0.0337,-0.15408 -0.20483,-0.2703 -0.35747,-0.31001 -0.31356,-0.0816 -0.7502,-0.0556 -0.95154,0.19822 -0.20575,0.25937 -0.14836,0.71027 0.0241,0.9929 0.14386,0.23583 0.46142,0.32264 0.72748,0.39698 0.18902,0.0528 0.58816,0.0267 0.58816,0.0267"
           id="path22760"
           sodipodi:nodetypes="caaaaaac" /><path
           style="fill:none;stroke:#00ff00;stroke-width:0.5;stroke-linecap:round;stroke-linejoin:round;stroke-dasharray:none"
           d="m -40.932088,150.04642 v -1.48991"
           id="path22762"
           sodipodi:nodetypes="cc" /><path
           style="fill:none;stroke:#00ff00;stroke-width:0.5;stroke-linecap:round;stroke-linejoin:round;stroke-dasharray:none"
           d="m -41.755908,147.99676 c 0,0 0.563529,-0.005 0.83199,-0.079 0.279134,-0.0773 0.783966,-0.37481 0.783966,-0.37481"
           id="path22764"
           sodipodi:nodetypes="csc" /><path
           style="fill:none;stroke:#00ff00;stroke-width:0.5;stroke-linecap:round;stroke-linejoin:round;stroke-dasharray:none"
           d="m -40.959504,147.27645 v -0.43432"
           id="path22766"
           sodipodi:nodetypes="cc" /><path
           style="fill:none;stroke:#00ff00;stroke-width:0.5;stroke-linecap:round;stroke-linejoin:round;stroke-dasharray:none"
           d="m -33.945767,150.1476 c 0,0 -0.816201,0.008 -1.127649,-0.21444 -0.181485,-0.12951 -0.323371,-0.35796 -0.331827,-0.58076 -0.01053,-0.27737 0.142331,-0.57642 0.357108,-0.75224 0.09496,-0.0777 0.35723,-0.0891 0.35723,-0.0891"
           id="path23476"
           sodipodi:nodetypes="caaac" /><path
           style="fill:none;stroke:#00ff00;stroke-width:0.5;stroke-linecap:round;stroke-linejoin:round;stroke-dasharray:none"
           d="m -35.26186,150.90708 c 0,0 0.147445,0.42403 0.330975,0.50996 0.171928,0.0805 0.411133,0.0427 0.565467,-0.0678 0.08857,-0.0634 0.116941,-0.18854 0.14129,-0.29473 0.02173,-0.0948 0.0011,-0.29165 0.0011,-0.29165"
           id="path23478"
           sodipodi:nodetypes="caaac" /><path
           style="fill:none;stroke:#00ff00;stroke-width:0.5;stroke-linecap:round;stroke-linejoin:round;stroke-dasharray:none"
           d="m -32.800926,150.01096 c -0.18835,0.0331 -0.41683,0.014 -0.5633,-0.10892 -0.15199,-0.12761 -0.21979,-0.35782 -0.21253,-0.55615 0.0115,-0.31556 0.13608,-0.68748 0.40198,-0.85781 0.16294,-0.10438 0.40435,-0.0841 0.58052,-0.004 0.20134,0.0915 0.36345,0.29285 0.43287,0.50284 0.0703,0.21271 0.069,0.47958 -0.0485,0.67036 -0.12038,0.19551 -0.36493,0.31391 -0.59106,0.35368 z"
           id="path23484"
           sodipodi:nodetypes="aaaaaaaa" /><path
           style="fill:none;stroke:#00ff00;stroke-width:0.5;stroke-linecap:round;stroke-linejoin:round;stroke-dasharray:none"
           d="m -31.486518,150.09383 0.0269,-1.56583"
           id="path23486" /><path
           style="fill:none;stroke:#00ff00;stroke-width:0.5;stroke-linecap:round;stroke-linejoin:round;stroke-dasharray:none"
           d="m -30.869655,148.58816 c 0,0 0.0944,-0.006 0.138816,0.008 0.14426,0.043 0.29297,0.11186 0.390797,0.22626 0.156794,0.18336 0.195548,0.44286 0.261017,0.67506 0.05304,0.18811 0.10536,0.57679 0.10536,0.57679"
           id="path23488"
           sodipodi:nodetypes="caaac" /><path
           style="fill:none;stroke:#00ff00;stroke-width:0.5;stroke-linecap:round;stroke-linejoin:round;stroke-dasharray:none"
           d="m -29.439889,150.09383 0.0269,-1.56583"
           id="path23492" /><path
           style="fill:none;stroke:#00ff00;stroke-width:0.5;stroke-linecap:round;stroke-linejoin:round;stroke-dasharray:none"
           d="m -28.823026,148.58816 c 0,0 0.0944,-0.006 0.138816,0.008 0.14426,0.043 0.29297,0.11186 0.390797,0.22626 0.156794,0.18336 0.195548,0.44286 0.261017,0.67506 0.05304,0.18811 0.10536,0.57679 0.10536,0.57679"
           id="path23494"
           sodipodi:nodetypes="caaac" /><path
           style="fill:none;stroke:#00ff00;stroke-width:0.5;stroke-linecap:round;stroke-linejoin:round;stroke-dasharray:none"
           d="m -26.655339,149.27321 c 0,0 0.36216,0.0337 0.49613,-0.0657 0.11981,-0.0889 0.21671,-0.26188 0.18483,-0.40762 -0.0337,-0.15408 -0.20483,-0.2703 -0.35747,-0.31001 -0.31356,-0.0816 -0.7502,-0.0556 -0.95154,0.19822 -0.20575,0.25937 -0.14836,0.71027 0.0241,0.9929 0.14386,0.23583 0.46142,0.32264 0.72748,0.39698 0.18902,0.0528 0.58816,0.0267 0.58816,0.0267"
           id="path23498"
           sodipodi:nodetypes="caaaaaac" /><path
           style="fill:none;stroke:#00ff00;stroke-width:0.5;stroke-linecap:round;stroke-linejoin:round;stroke-dasharray:none"
           d="m -25.165931,148.55104 1.08099,-0.007 c -0.601884,0.47398 -0.964298,1.02386 -1.194749,1.563 l 1.160121,-0.003"
           id="path23500"
           sodipodi:nodetypes="cccc" /><path
           style="fill:none;stroke:#00ff00;stroke-width:0.5;stroke-linecap:round;stroke-linejoin:round;stroke-dasharray:none"
           d="m -16.029904,150.14759 c 0,0 -0.816201,0.008 -1.127649,-0.21444 -0.181485,-0.12951 -0.323371,-0.35796 -0.331827,-0.58076 -0.01053,-0.27737 0.142331,-0.57642 0.357108,-0.75224 0.09496,-0.0777 0.35723,-0.0891 0.35723,-0.0891"
           id="path23529"
           sodipodi:nodetypes="caaac" /><path
           style="fill:none;stroke:#00ff00;stroke-width:0.5;stroke-linecap:round;stroke-linejoin:round;stroke-dasharray:none"
           d="m -119.33793,153.29051 -0.0138,0.83643 c -7.8e-4,0.0469 0.0628,0.0852 0.10922,0.0872 0.0777,0.003 0.13816,-0.076 0.19511,-0.12962 m 0.51766,-0.48697 0.83951,-0.78976 c 0.0649,-0.061 0.1232,-0.13132 0.16648,-0.20939 0.0275,-0.0497 0.0452,-0.10509 0.057,-0.16069 v 0 l -0.0187,-0.64545"
           id="path45027-0"
           sodipodi:nodetypes="csaccsassc" /><path
           style="fill:none;stroke:#00ff00;stroke-width:0.5;stroke-linecap:round;stroke-linejoin:round;stroke-dasharray:none"
           d="m -117.67638,146.40201 c -0.0203,0.0305 -0.0413,0.06 -0.0613,0.088 -0.39157,0.54687 -1.18478,0.65662 -1.83558,0.79447 -0.5476,0.11599 -1.152,0.20762 -1.67746,0.014 -0.086,-0.0317 -0.15372,-0.0554 -0.21794,-0.0832 m -1.26765,-1.47426 c -0.23321,-0.55446 -0.32815,-1.13934 -0.2776,-1.74203 m 0.97004,-1.78284 c 0.0747,-0.0516 0.15272,-0.0941 0.26644,-0.15969 0.6943,-0.40014 1.58147,-0.71321 2.34557,-0.4824 0.26485,0.08 0.47143,0.13523 0.69416,0.29581 m 1.15796,1.3887 c 0.0389,0.0811 0.066,0.16608 0.10521,0.27496 0.12815,0.35566 0.22305,0.80375 0.18971,1.2164"
           id="path37294-3-9"
           sodipodi:nodetypes="csasccccssccsc" /><path
           style="fill:none;stroke:#00ff00;stroke-width:0.5;stroke-linecap:round;stroke-linejoin:round;stroke-dasharray:none"
           d="m -119.6544,148.41038 c 0.0644,0.0765 0.2103,0.0873 0.29669,0.0369 0.0728,-0.0425 0.10968,-0.1504 0.0982,-0.23429 -0.009,-0.0649 -0.083,-0.0767 -0.12155,-0.15328 -0.0241,-0.0479 -0.0351,-0.14898 -0.0592,-0.21036"
           id="path37298-9-3"
           sodipodi:nodetypes="caasc" /><path
           style="fill:none;stroke:#00ff00;stroke-width:0.5;stroke-linecap:round;stroke-linejoin:round;stroke-dasharray:none"
           d="m -122.36476,146.90914 c -0.0876,-0.0377 -0.15728,-0.13124 -0.18008,-0.2252 -0.0204,-0.0839 -0.0194,-0.20476 0.0503,-0.25422"
           id="path37302-4-6"
           sodipodi:nodetypes="cac" /><path
           style="fill:none;stroke:#00ff00;stroke-width:0.5;stroke-linecap:round;stroke-linejoin:round;stroke-dasharray:none"
           d="m -122.72675,142.694 c -0.0551,0.007 -0.10805,0.0436 -0.14312,0.087 -0.0559,0.0693 -0.0977,0.16429 -0.0875,0.25241"
           id="path37304-7-0"
           sodipodi:nodetypes="cac" /><path
           style="fill:none;stroke:#00ff00;stroke-width:0.5;stroke-linecap:round;stroke-linejoin:round;stroke-dasharray:none"
           d="m -118.2629,142.32186 c 0.0325,-0.0679 0.13747,-0.0763 0.21156,-0.0705 0.0906,0.007 0.18359,0.0559 0.24195,0.12559 0.0513,0.0613 0.0995,0.15401 0.0715,0.22887"
           id="path37306-8-6"
           sodipodi:nodetypes="caac" /><path
           style="fill:none;stroke:#00ff00;stroke-width:0.5;stroke-linecap:round;stroke-linejoin:round;stroke-dasharray:none"
           d="m -122.38998,143.15833 c 0.0544,0.0304 0.10892,0.11218 0.17363,0.10272"
           id="path37310-4-2"
           sodipodi:nodetypes="cc" /><path
           style="fill:none;stroke:#00ff00;stroke-width:0.5;stroke-linecap:round;stroke-linejoin:round;stroke-dasharray:none"
           d="m -121.6867,143.01723 c 0.061,-0.0259 0.13781,0.02 0.18983,0.0622"
           id="path37312-5-6"
           sodipodi:nodetypes="cc" /><path
           style="fill:none;stroke:#00ff00;stroke-width:0.5;stroke-linecap:round;stroke-linejoin:round;stroke-dasharray:none"
           d="m -121.77638,143.64741 c 0,0 0.0928,0.0548 0.14348,0.0526"
           id="path37314-0-1"
           sodipodi:nodetypes="cc" /><path
           style="fill:none;stroke:#00ff00;stroke-width:0.5;stroke-linecap:round;stroke-linejoin:round;stroke-dasharray:none"
           d="m -121.05347,143.42943 c 0.055,-0.002 0.11059,-0.009 0.16837,-0.0204"
           id="path37316-3-8"
           sodipodi:nodetypes="cc" /><path
           style="fill:none;stroke:#00ff00;stroke-width:0.5;stroke-linecap:round;stroke-linejoin:round;stroke-dasharray:none"
           d="m -120.46286,142.99345 c 0.0666,-0.0444 0.16704,-0.0481 0.2383,-0.0123"
           id="path37318-6-7"
           sodipodi:nodetypes="cc" /><path
           style="fill:none;stroke:#00ff00;stroke-width:0.5;stroke-linecap:round;stroke-linejoin:round;stroke-dasharray:none"
           d="m -119.77012,143.38818 c 0.0776,-0.007 0.12702,-0.0336 0.19446,-0.0551"
           id="path37320-1-9"
           sodipodi:nodetypes="cc" /><path
           style="fill:none;stroke:#00ff00;stroke-width:0.5;stroke-linecap:round;stroke-linejoin:round;stroke-dasharray:none"
           d="m -120.41631,143.74562 c 0.0483,0.0139 0.10481,0.0191 0.15055,-0.002"
           id="path37322-0-2"
           sodipodi:nodetypes="cc" /><path
           style="fill:none;stroke:#00ff00;stroke-width:0.5;stroke-linecap:round;stroke-linejoin:round;stroke-dasharray:none"
           d="m -119.24162,142.86058 c 0.0331,-0.0511 0.0801,-0.0624 0.12781,-0.0751 0.0498,-0.0133 0.11107,-0.0428 0.15451,0.002"
           id="path37324-6-0"
           sodipodi:nodetypes="cac" /><path
           style="fill:none;stroke:#00ff00;stroke-width:0.5;stroke-linecap:round;stroke-linejoin:round;stroke-dasharray:none"
           d="m -118.45321,143.03169 c 0.0564,-0.0296 0.0613,-0.0227 0.0894,-0.0803"
           id="path37326-3-2"
           sodipodi:nodetypes="cc" /><path
           style="fill:none;stroke:#00ff00;stroke-width:0.5;stroke-linecap:round;stroke-linejoin:round;stroke-dasharray:none"
           d="m -119.02171,143.50536 c 0,0 0.0958,0.01 0.14122,-0.003 0.021,-0.006 0.0568,-0.0323 0.0568,-0.0323"
           id="path37328-2-3"
           sodipodi:nodetypes="cac" /><path
           style="fill:none;stroke:#00ff00;stroke-width:0.5;stroke-linecap:round;stroke-linejoin:round;stroke-dasharray:none"
           d="m -121.1619,146.07972 c 0.0584,-0.0377 0.15092,-0.0253 0.20664,0.0162"
           id="path37330-0-7"
           sodipodi:nodetypes="cc" /><path
           style="fill:none;stroke:#00ff00;stroke-width:0.5;stroke-linecap:round;stroke-linejoin:round;stroke-dasharray:none"
           d="m -121.91555,146.52832 c 0,0 0.15324,0.091 0.25612,0.11078"
           id="path37332-6-5"
           sodipodi:nodetypes="cc" /><path
           style="fill:none;stroke:#00ff00;stroke-width:0.5;stroke-linecap:round;stroke-linejoin:round;stroke-dasharray:none"
           d="m -121.11402,146.74821 c 0.0306,-0.005 0.11711,0.0417 0.13588,0.0166"
           id="path37334-1-9"
           sodipodi:nodetypes="cc" /><path
           style="fill:none;stroke:#00ff00;stroke-width:0.5;stroke-linecap:round;stroke-linejoin:round;stroke-dasharray:none"
           d="m -120.52728,146.66203 c 0.0572,0.009 0.0414,0.008 0.0848,0.005"
           id="path37336-5-2"
           sodipodi:nodetypes="cc" /><path
           style="fill:none;stroke:#00ff00;stroke-width:0.5;stroke-linecap:round;stroke-linejoin:round;stroke-dasharray:none"
           d="m -120.30004,146.05759 c 0.003,-0.0549 0.0443,-0.10992 0.0928,-0.13487 0.0371,-0.0191 0.0839,-0.004 0.12527,0.002"
           id="path37338-5-2"
           sodipodi:nodetypes="cac" /><path
           style="fill:none;stroke:#00ff00;stroke-width:0.5;stroke-linecap:round;stroke-linejoin:round;stroke-dasharray:none"
           d="m -119.88512,146.72517 c 0.0354,0.0106 0.0757,-1.5e-4 0.11077,-0.0128"
           id="path37340-4-8"
           sodipodi:nodetypes="cc" /><path
           style="fill:none;stroke:#00ff00;stroke-width:0.5;stroke-linecap:round;stroke-linejoin:round;stroke-dasharray:none"
           d="m -119.54216,146.19336 c 0.0225,-0.005 0.0527,-0.012 0.0783,-0.0219"
           id="path37342-7-9"
           sodipodi:nodetypes="cc" /><path
           style="fill:none;stroke:#00ff00;stroke-width:0.5;stroke-linecap:round;stroke-linejoin:round;stroke-dasharray:none"
           d="m -119.20892,145.61035 c 0.0315,-0.0331 0.0728,-0.0679 0.11847,-0.069 0.0391,-9e-4 0.0797,0.0237 0.10399,0.0544"
           id="path37344-6-7"
           sodipodi:nodetypes="cac" /><path
           style="fill:none;stroke:#00ff00;stroke-width:0.5;stroke-linecap:round;stroke-linejoin:round;stroke-dasharray:none"
           d="m -118.56371,145.99893 c 0.0898,7.6e-4 0.11335,0.0198 0.23011,-0.0202 0.15619,-0.0536 0.25336,-0.0715 0.38253,-0.17477"
           id="path37346-5-3"
           sodipodi:nodetypes="csc" /><path
           style="fill:none;stroke:#00ff00;stroke-width:0.5;stroke-linecap:round;stroke-linejoin:round;stroke-dasharray:none"
           d="m -117.35862,145.34882 c 0.0383,-0.003 0.11036,0.0302 0.14287,0.0726 0.0207,0.027 0.0199,0.0659 0.021,0.1 0.002,0.0711 0.001,0.14757 -0.0302,0.21139 -0.0232,0.047 -0.0652,0.097 -0.11009,0.11237"
           id="path37348-6-6"
           sodipodi:nodetypes="caaac" /><path
           style="fill:none;stroke:#00ff00;stroke-width:0.5;stroke-linecap:round;stroke-linejoin:round;stroke-dasharray:none"
           d="m -119.03678,146.54265 c 0.0346,0.0195 0.0789,0.0285 0.11727,0.0187 0.0362,-0.009 0.0688,-0.0367 0.0888,-0.0686"
           id="path37350-9-1"
           sodipodi:nodetypes="cac" /><path
           style="fill:none;stroke:#00ff00;stroke-width:0.5;stroke-linecap:round;stroke-linejoin:round;stroke-dasharray:none"
           d="m -120.93673,148.02071 c 0.15084,0.14348 0.36958,0.35996 0.48366,0.51228 0.0874,0.11667 0.18735,0.27928 0.28365,0.44804"
           id="path37775-3-2"
           sodipodi:nodetypes="csc" /><path
           style="fill:none;stroke:#00ff00;stroke-width:0.5;stroke-linecap:round;stroke-linejoin:round;stroke-dasharray:none"
           d="m -118.65439,149.13361 c 0.0269,-0.26087 0.0762,-0.68106 0.13672,-0.92923 0.0342,-0.1403 0.11191,-0.35267 0.17296,-0.51067"
           id="path37781-5-9"
           sodipodi:nodetypes="csc" /><path
           style="fill:none;stroke:#00ff00;stroke-width:0.5;stroke-linecap:round;stroke-linejoin:round;stroke-dasharray:none"
           d="m -119.10365,151.54838 c -0.0458,-0.0831 -0.15618,-0.14462 -0.25026,-0.13557 -0.10294,0.01 -0.19156,0.10545 -0.23794,0.19758 -0.0466,0.0925 -0.0685,0.22016 -0.0175,0.31111"
           id="path42371-3"
           sodipodi:nodetypes="caac" /><path
           style="fill:none;stroke:#00ff00;stroke-width:0.5;stroke-linecap:round;stroke-linejoin:round;stroke-dasharray:none"
           d="m -120.46566,150.75186 c -0.0715,0.0673 -0.0938,0.18758 -0.0758,0.2838 0.0205,0.10984 0.0929,0.23118 0.19776,0.27157 0.0885,0.0341 0.21259,0.01 0.27879,-0.0575"
           id="path42397-1"
           sodipodi:nodetypes="caac" /><path
           style="fill:none;stroke:#00ff00;stroke-width:0.5;stroke-linecap:round;stroke-linejoin:round;stroke-dasharray:none"
           d="m -119.36713,150.20374 c -0.0592,-0.0698 -0.17383,-0.1043 -0.26232,-0.0819 -0.0952,0.0241 -0.17297,0.11849 -0.20393,0.21137 -0.0353,0.10602 -0.0309,0.24727 0.0412,0.33354"
           id="path42399-9"
           sodipodi:nodetypes="caac" /><path
           style="fill:none;stroke:#00ff00;stroke-width:0.5;stroke-linecap:round;stroke-linejoin:round;stroke-dasharray:none"
           d="m -118.89699,150.56103 c -0.0592,0.0849 -0.0439,0.2143 -0.004,0.30932 0.0402,0.0954 0.12319,0.1948 0.22546,0.21483 0.0898,0.0176 0.20092,-0.027 0.25612,-0.0998"
           id="path42401-4"
           sodipodi:nodetypes="caac" /><path
           style="fill:none;stroke:#00ff00;stroke-width:0.5;stroke-linecap:round;stroke-linejoin:round;stroke-dasharray:none"
           d="m -120.53222,151.88877 0.66696,0.5775 c 0.0865,0.0749 0.20287,0.12468 0.3169,0.13018 0.11365,0.005 0.23972,-0.0252 0.32732,-0.0987 m 0.30179,-0.25314 0.81082,-0.68014 m 0.22689,-0.19031 c 0.10288,-0.0863 0.16515,-0.22753 0.18064,-0.36142 0.0112,-0.0972 0.008,-0.2242 -0.0678,-0.2852 l -0.64869,-0.52289 m -0.26275,-0.2118 -0.57601,-0.46431 c -0.10512,-0.0847 -0.26007,-0.10004 -0.39439,-0.0886 -0.12476,0.0106 -0.25126,0.0628 -0.34805,0.14312 l -0.83185,0.69017 m -0.43302,0.35927 c -0.10815,0.0897 -0.16275,0.25857 -0.14302,0.39812 0.0157,0.11148 0.11305,0.19903 0.19769,0.27232"
           id="path42403-7"
           sodipodi:nodetypes="csaccccasccsasccac" /><path
           style="fill:none;stroke:#00ff00;stroke-width:0.5;stroke-linecap:round;stroke-linejoin:round;stroke-dasharray:none"
           d="m -121.68365,151.68802 0.023,0.27442 m 0.0548,0.65261 c 0.007,0.0807 0.057,0.15254 0.0996,0.22113 0.0614,0.0989 0.13562,0.19131 0.22176,0.26917 m 0.59286,0.53584 0.62377,0.56377"
           id="path43051-8"
           sodipodi:nodetypes="cccaccc" /><path
           style="fill:none;stroke:#00ff00;stroke-width:0.5;stroke-linecap:round;stroke-linejoin:round;stroke-dasharray:none"
           d="m -116.96977,151.23819 c 0,0 1.87185,0.0454 2.78808,-0.11493 1.37975,-0.24142 2.72976,-0.71971 4.00789,-1.26283 0.20444,-0.0869 0.61555,-0.31591 0.85243,-0.49311"
           id="path2928"
           sodipodi:nodetypes="casc" /><path
           style="fill:none;stroke:#00ff00;stroke-width:0.5;stroke-linecap:round;stroke-linejoin:round;stroke-dasharray:none"
           d="m -116.53209,151.99923 c 0,0 3.99142,0.82648 5.96697,1.32473 1.20702,0.30442 3.59346,1.01641 3.59346,1.01641"
           id="path2930"
           sodipodi:nodetypes="cac" /><path
           style="fill:none;stroke:#00ff00;stroke-width:0.5;stroke-linecap:round;stroke-linejoin:round;stroke-dasharray:none"
           d="m -106.81241,153.83148 0.86625,-0.49616"
           id="path2932"
           sodipodi:nodetypes="cc" /><path
           style="fill:none;stroke:#00ff00;stroke-width:0.5;stroke-linecap:round;stroke-linejoin:round;stroke-dasharray:none"
           d="m -106.45041,154.28029 0.73132,-0.41888"
           id="path2934"
           sodipodi:nodetypes="cc" /><path
           style="fill:none;stroke:#00ff00;stroke-width:0.5;stroke-linecap:round;stroke-linejoin:round;stroke-dasharray:none"
           d="m -106.15359,154.70083 c 0.0223,-0.0128 0.59512,-0.34086 0.59512,-0.34086"
           id="path2936"
           sodipodi:nodetypes="cc" /><path
           style="fill:none;stroke:#00ff00;stroke-width:0.5;stroke-linecap:round;stroke-linejoin:round;stroke-dasharray:none"
           d="m -105.62192,155.00615 0.77532,1.90838 0.80242,0.23753"
           id="path2968"
           sodipodi:nodetypes="ccc" /><path
           style="fill:none;stroke:#00ff00;stroke-width:0.5;stroke-linecap:round;stroke-linejoin:round;stroke-dasharray:none"
           d="m -106.63759,152.98573 0.15289,-1.16445 -1.16171,-1.00509 -0.1733,-1.13317"
           id="path2970"
           sodipodi:nodetypes="cccc" /><path
           style="fill:none;stroke:#00ff00;stroke-width:0.5;stroke-linecap:round;stroke-linejoin:round;stroke-dasharray:none"
           d="m -103.32883,157.39742 -0.43709,-4.69171 -0.54632,-2.44442"
           id="path2972"
           sodipodi:nodetypes="ccc" /><path
           style="fill:none;stroke:#00ff00;stroke-width:0.5;stroke-linecap:round;stroke-linejoin:round;stroke-dasharray:none"
           d="m -102.47337,157.53625 0.79793,0.12252 1.63636,-1.7339 0.35554,-4.60315"
           id="path2974"
           sodipodi:nodetypes="cccc" /><path
           style="fill:none;stroke:#00ff00;stroke-width:0.5;stroke-linecap:round;stroke-linejoin:round;stroke-dasharray:none"
           d="m -99.164314,154.40896 1.530049,-1.53401 -0.09229,-4.26456"
           id="path2976"
           sodipodi:nodetypes="ccc" /><path
           style="fill:none;stroke:#00ff00;stroke-width:0.5;stroke-linecap:round;stroke-linejoin:round;stroke-dasharray:none"
           d="m -101.87599,152.69149 0.0428,-2.21943 0.62078,-0.71503 0.55401,0.37899"
           id="path2978"
           sodipodi:nodetypes="cccc" /><path
           style="fill:none;stroke:#00ff00;stroke-width:0.5;stroke-linecap:round;stroke-linejoin:round;stroke-dasharray:none"
           d="m -108.98962,147.6667 c 0,0 -0.14156,-0.18991 -0.22325,-0.27529 -0.19142,-0.20006 -0.62157,-0.55125 -0.62157,-0.55125"
           id="path2980"
           sodipodi:nodetypes="cac" /><path
           style="fill:none;stroke:#00ff00;stroke-width:0.5;stroke-linecap:round;stroke-linejoin:round;stroke-dasharray:none"
           d="m -109.70536,147.86642 c 0,0 -0.96947,0.24244 -1.33098,-0.0143 -0.24299,-0.17255 -0.20256,-0.55988 -0.3023,-0.84037 -0.12233,-0.34404 -0.53481,-0.71106 -0.36321,-1.03346 0.0895,-0.16822 0.36608,-0.11083 0.55381,-0.1452 0.12424,-0.0227 0.37682,-0.04 0.37682,-0.04"
           id="path2982"
           sodipodi:nodetypes="caaaac" /><path
           style="fill:none;stroke:#00ff00;stroke-width:0.5;stroke-linecap:round;stroke-linejoin:round;stroke-dasharray:none"
           d="m -111.38094,144.97506 c 0,0 0.37038,-0.45424 0.57541,-0.66313 0.0984,-0.10024 0.17473,-0.25702 0.31307,-0.2821 0.35096,-0.0636 0.69106,0.20603 0.99575,0.39113 0.19279,0.11712 0.50964,0.4449 0.50964,0.4449"
           id="path2984"
           sodipodi:nodetypes="caaac" /><path
           style="fill:none;stroke:#00ff00;stroke-width:0.5;stroke-linecap:round;stroke-linejoin:round;stroke-dasharray:none"
           d="m -109.49618,145.60764 c 0,0 0.64351,-0.15431 0.89013,0.0104 0.25376,0.16944 0.31938,0.53874 0.35935,0.84082 0.0355,0.26816 -0.11395,0.80347 -0.11395,0.80347"
           id="path2986"
           sodipodi:nodetypes="caac" /><path
           style="fill:none;stroke:#00ff00;stroke-width:0.5;stroke-linecap:round;stroke-linejoin:round;stroke-dasharray:none"
           d="m -106.64986,148.51938 c 0,0 -0.22278,-0.5905 -0.27303,-0.89986 -0.0431,-0.26513 -0.0221,-0.80547 -0.0221,-0.80547"
           id="path2988"
           sodipodi:nodetypes="cac" /><path
           style="fill:none;stroke:#00ff00;stroke-width:0.5;stroke-linecap:round;stroke-linejoin:round;stroke-dasharray:none"
           d="m -108.28188,144.98596 c 0,0 0.0654,-0.67629 0.27103,-0.92235 0.0626,-0.0749 0.18666,-0.0694 0.26209,-0.13149 0.24534,-0.202 0.29088,-0.62791 0.58277,-0.754 0.30286,-0.13083 0.7088,-0.0841 0.98542,0.0955 0.37677,0.24465 0.36283,0.83796 0.66292,1.17195 0.12138,0.13509 0.44307,0.31751 0.44307,0.31751"
           id="path2990"
           sodipodi:nodetypes="caaaaac" /><path
           style="fill:none;stroke:#00ff00;stroke-width:0.5;stroke-linecap:round;stroke-linejoin:round;stroke-dasharray:none"
           d="m -106.20283,146.62673 c 0,0 0.48557,0.15758 0.71415,0.0854 0.28427,-0.0898 0.56229,-0.31747 0.66528,-0.59671 0.0796,-0.21573 -0.0919,-0.68351 -0.0919,-0.68351"
           id="path2992"
           sodipodi:nodetypes="caac" /><path
           style="fill:none;stroke:#00ff00;stroke-width:0.5;stroke-linecap:round;stroke-linejoin:round;stroke-dasharray:none"
           d="m -109.82304,143.45458 c 0,0 0.22861,-0.26506 0.3818,-0.33984 0.28486,-0.13905 0.62519,-0.23559 0.93571,-0.17137 0.16923,0.035 0.43077,0.28797 0.43077,0.28797"
           id="path2994"
           sodipodi:nodetypes="caac" /><path
           style="fill:none;stroke:#00ff00;stroke-width:0.5;stroke-linecap:round;stroke-linejoin:round;stroke-dasharray:none"
           d="m -108.46197,142.38123 c 0,0 0.5828,-0.34542 0.90932,-0.37245 0.2932,-0.0243 0.86059,0.19559 0.86059,0.19559"
           id="path2996"
           sodipodi:nodetypes="cac" /><path
           style="fill:none;stroke:#00ff00;stroke-width:0.5;stroke-linecap:round;stroke-linejoin:round;stroke-dasharray:none"
           d="m -106.27185,142.6342 c 0,0 0.41765,-0.37366 0.68018,-0.42257 0.29518,-0.055 0.63109,0.008 0.88501,0.16779"
           id="path2998"
           sodipodi:nodetypes="cac" /><path
           style="fill:none;stroke:#00ff00;stroke-width:0.5;stroke-linecap:round;stroke-linejoin:round;stroke-dasharray:none"
           d="m -102.16002,148.35759 c 0,0 0.0856,-0.74561 -0.0151,-1.09737 -0.0943,-0.32937 -0.53172,-0.88001 -0.53172,-0.88001"
           id="path3000"
           sodipodi:nodetypes="cac" /><path
           style="fill:none;stroke:#00ff00;stroke-width:0.5;stroke-linecap:round;stroke-linejoin:round;stroke-dasharray:none"
           d="m -102.04389,146.61678 0.23303,-0.30305"
           id="path3002"
           sodipodi:nodetypes="cc" /><path
           style="fill:none;stroke:#00ff00;stroke-width:0.5;stroke-linecap:round;stroke-linejoin:round;stroke-dasharray:none"
           d="m -103.22728,146.81215 c 0,0 -0.37985,-0.1932 -0.46477,-0.37247 -0.0866,-0.18269 0.0464,-0.40805 0.007,-0.60619 -0.1167,-0.58141 -0.64136,-1.04444 -0.70449,-1.63405 -0.0497,-0.46385 -0.0499,-1.03286 0.26956,-1.37337 0.21853,-0.23291 0.61521,-0.31523 0.92714,-0.24524 0.098,0.022 0.23021,0.19405 0.23021,0.19405"
           id="path3004"
           sodipodi:nodetypes="caaaaac" /><path
           style="fill:none;stroke:#00ff00;stroke-width:0.5;stroke-linecap:round;stroke-linejoin:round;stroke-dasharray:none"
           d="m -102.98487,143.42846 c 0,0 0.27963,-0.30403 0.46721,-0.31467 0.16107,-0.009 0.30361,0.12211 0.42928,0.22308 0.33997,0.27314 0.66509,0.60381 0.83873,1.00343 0.20351,0.46839 0.25829,1.01427 0.18837,1.52001 -0.039,0.28231 -0.33145,0.78839 -0.33145,0.78839"
           id="path3006"
           sodipodi:nodetypes="caaaac" /><path
           style="fill:none;stroke:#00ff00;stroke-width:0.5;stroke-linecap:round;stroke-linejoin:round;stroke-dasharray:none"
           d="m -103.12273,144.9603 c 0,0 0.22644,-0.28046 0.38996,-0.32115 0.16341,-0.0407 0.33318,0.0543 0.49505,0.10075 0.14138,0.0405 0.41329,0.15448 0.41329,0.15448"
           id="path3008"
           sodipodi:nodetypes="caac" /><path
           style="fill:none;stroke:#00ff00;stroke-width:0.5;stroke-linecap:round;stroke-linejoin:round;stroke-dasharray:none"
           d="m -101.49499,143.02615 c 0,0 0.19037,-0.18333 0.31118,-0.22692 0.22765,-0.0821 0.48549,-0.082 0.7248,-0.0455 0.25982,0.0396 0.736332,0.28139 0.736332,0.28139"
           id="path3010"
           sodipodi:nodetypes="caac" /><path
           style="fill:none;stroke:#00ff00;stroke-width:0.5;stroke-linecap:round;stroke-linejoin:round;stroke-dasharray:none"
           d="m -98.893938,147.21604 c 0,0 -0.07327,-0.73347 -0.138148,-1.09592 -0.05221,-0.29168 -0.201657,-0.86579 -0.201657,-0.86579"
           id="path3012"
           sodipodi:nodetypes="cac" /><path
           style="fill:none;stroke:#00ff00;stroke-width:0.5;stroke-linecap:round;stroke-linejoin:round;stroke-dasharray:none"
           d="m -99.55064,146.31362 -0.5412,-0.65818"
           id="path3014"
           sodipodi:nodetypes="cc" /><path
           style="fill:none;stroke:#00ff00;stroke-width:0.5;stroke-linecap:round;stroke-linejoin:round;stroke-dasharray:none"
           d="m -98.459339,146.1399 c 0,0 0.04446,-0.31305 0.155083,-0.40753 0.171461,-0.14645 0.662461,-0.13944 0.662461,-0.13944"
           id="path3016"
           sodipodi:nodetypes="cac" /><path
           style="fill:none;stroke:#00ff00;stroke-width:0.5;stroke-linecap:round;stroke-linejoin:round;stroke-dasharray:none"
           d="m -97.940705,145.04754 c 0.03296,-0.0496 0.239304,-0.56146 0.496521,-0.66153 0.252314,-0.0982 0.566431,0.01 0.798627,0.14877 0.245046,0.14677 0.416153,0.40916 0.535246,0.66843 0.103436,0.22519 0.210322,0.49367 0.137296,0.73042 -0.03665,0.11881 -0.263516,0.26443 -0.263516,0.26443"
           id="path3018"
           sodipodi:nodetypes="caaaac" /><path
           style="fill:none;stroke:#00ff00;stroke-width:0.5;stroke-linecap:round;stroke-linejoin:round;stroke-dasharray:none"
           d="m -98.001178,146.6989 c 0,0 0.54347,0.32892 0.849508,0.3808 0.246787,0.0418 0.523057,0.0451 0.748217,-0.0641 0.127396,-0.0618 0.290243,-0.30969 0.290243,-0.30969"
           id="path3020"
           sodipodi:nodetypes="caac" /><path
           style="fill:none;stroke:#00ff00;stroke-width:0.5;stroke-linecap:round;stroke-linejoin:round;stroke-dasharray:none"
           d="m -100.55938,145.15257 c 0,0 0.21199,-0.1672 0.33828,-0.17057 0.15682,-0.004 0.430784,0.18908 0.430784,0.18908"
           id="path3022"
           sodipodi:nodetypes="cac" /><path
           style="fill:none;stroke:#00ff00;stroke-width:0.5;stroke-linecap:round;stroke-linejoin:round;stroke-dasharray:none"
           d="m -100.25887,144.32943 c 0,0 0.15989,-0.48386 0.349781,-0.63239 0.264036,-0.20654 0.649371,-0.35379 0.971785,-0.26127 0.183476,0.0526 0.29429,0.25393 0.389427,0.41911 0.129461,0.22477 0.227087,0.74403 0.227087,0.74403"
           id="path3024"
           sodipodi:nodetypes="caaac" /><path
           style="fill:none;stroke:#00ff00;stroke-width:0.5;stroke-linecap:round;stroke-linejoin:round;stroke-dasharray:none"
           d="m -108.81912,149.07381 0.90119,-0.97071"
           id="path3026"
           sodipodi:nodetypes="cc" /><path
           style="fill:none;stroke:#00ff00;stroke-width:0.5;stroke-linecap:round;stroke-linejoin:round;stroke-dasharray:none"
           d="m -109.02766,148.4773 0.67557,-0.71794"
           id="path3028"
           sodipodi:nodetypes="cc" /><path
           style="fill:none;stroke:#00ff00;stroke-width:0.5;stroke-linecap:round;stroke-linejoin:round;stroke-dasharray:none"
           d="m -108.19987,149.26803 0.67557,-0.71794"
           id="path3030"
           sodipodi:nodetypes="cc" /><path
           style="fill:none;stroke:#00ff00;stroke-width:0.5;stroke-linecap:round;stroke-linejoin:round;stroke-dasharray:none"
           d="m -107.22427,149.22383 c 0,0 1.12278,-0.38632 1.70621,-0.4795 0.17165,-0.0274 0.52102,-0.0223 0.52102,-0.0223"
           id="path3032"
           sodipodi:nodetypes="cac" /><path
           style="fill:none;stroke:#00ff00;stroke-width:0.5;stroke-linecap:round;stroke-linejoin:round;stroke-dasharray:none"
           d="m -105.44951,147.96934 c 0,0 0.37181,-0.21504 0.57648,-0.27259 0.39477,-0.111 0.81426,-0.15934 1.22341,-0.13087 0.15021,0.0105 0.43811,0.1098 0.43811,0.1098"
           id="path3034"
           sodipodi:nodetypes="caac" /><path
           style="fill:none;stroke:#00ff00;stroke-width:0.5;stroke-linecap:round;stroke-linejoin:round;stroke-dasharray:none"
           d="m -104.07147,149.41192 c 0,0 0.72255,-0.40031 1.11966,-0.49414 0.76058,-0.17971 1.57375,-0.25698 2.34204,-0.11365 0.2442,0.0456 0.681073,0.30207 0.681073,0.30207"
           id="path3036"
           sodipodi:nodetypes="caac" /><path
           style="fill:none;stroke:#00ff00;stroke-width:0.5;stroke-linecap:round;stroke-linejoin:round;stroke-dasharray:none"
           d="m -100.61798,148.02451 c 0,0 1.162992,-0.0949 1.741543,-0.16859 0.570311,-0.0726 1.277575,-0.65464 1.703563,-0.26931 0.213493,0.19312 -0.05095,0.86118 -0.05095,0.86118"
           id="path3038"
           sodipodi:nodetypes="caac" /><path
           style="fill:none;stroke:#00ff00;stroke-width:0.5;stroke-linecap:round;stroke-linejoin:round;stroke-dasharray:none"
           d="m 16.13542,153.29051 0.0138,0.83643 c 7.8e-4,0.0469 -0.0628,0.0852 -0.10922,0.0872 -0.0777,0.003 -0.13816,-0.076 -0.19511,-0.12962 m -0.51766,-0.48697 -0.83951,-0.78976 c -0.0649,-0.061 -0.1232,-0.13132 -0.16648,-0.20939 -0.0275,-0.0497 -0.0452,-0.10509 -0.057,-0.16069 v 0 l 0.0187,-0.64545"
           id="path26259"
           sodipodi:nodetypes="csaccsassc" /><path
           style="fill:none;stroke:#00ff00;stroke-width:0.5;stroke-linecap:round;stroke-linejoin:round;stroke-dasharray:none"
           d="m 14.47387,146.40201 c 0.0203,0.0305 0.0413,0.06 0.0613,0.088 0.39157,0.54687 1.18478,0.65662 1.83558,0.79447 0.5476,0.11599 1.152,0.20762 1.67746,0.014 0.086,-0.0317 0.15372,-0.0554 0.21794,-0.0832 m 1.26765,-1.47426 c 0.23321,-0.55446 0.32815,-1.13934 0.2776,-1.74203 m -0.97004,-1.78284 c -0.0747,-0.0516 -0.15272,-0.0941 -0.26644,-0.15969 -0.6943,-0.40014 -1.58147,-0.71321 -2.34557,-0.4824 -0.26485,0.08 -0.47143,0.13523 -0.69416,0.29581 m -1.15796,1.3887 c -0.0389,0.0811 -0.066,0.16608 -0.10521,0.27496 -0.12815,0.35566 -0.22305,0.80375 -0.18971,1.2164"
           id="path26261"
           sodipodi:nodetypes="csasccccssccsc" /><path
           style="fill:none;stroke:#00ff00;stroke-width:0.5;stroke-linecap:round;stroke-linejoin:round;stroke-dasharray:none"
           d="m 16.45189,148.41038 c -0.0644,0.0765 -0.2103,0.0873 -0.29669,0.0369 -0.0728,-0.0425 -0.10968,-0.1504 -0.0982,-0.23429 0.009,-0.0649 0.083,-0.0767 0.12155,-0.15328 0.0241,-0.0479 0.0351,-0.14898 0.0592,-0.21036"
           id="path26263"
           sodipodi:nodetypes="caasc" /><path
           style="fill:none;stroke:#00ff00;stroke-width:0.5;stroke-linecap:round;stroke-linejoin:round;stroke-dasharray:none"
           d="m 19.16225,146.90914 c 0.0876,-0.0377 0.15728,-0.13124 0.18008,-0.2252 0.0204,-0.0839 0.0194,-0.20476 -0.0503,-0.25422"
           id="path26265"
           sodipodi:nodetypes="cac" /><path
           style="fill:none;stroke:#00ff00;stroke-width:0.5;stroke-linecap:round;stroke-linejoin:round;stroke-dasharray:none"
           d="m 19.52424,142.694 c 0.0551,0.007 0.10805,0.0436 0.14312,0.087 0.0559,0.0693 0.0977,0.16429 0.0875,0.25241"
           id="path26267"
           sodipodi:nodetypes="cac" /><path
           style="fill:none;stroke:#00ff00;stroke-width:0.5;stroke-linecap:round;stroke-linejoin:round;stroke-dasharray:none"
           d="m 15.06039,142.32186 c -0.0325,-0.0679 -0.13747,-0.0763 -0.21156,-0.0705 -0.0906,0.007 -0.18359,0.0559 -0.24195,0.12559 -0.0513,0.0613 -0.0995,0.15401 -0.0715,0.22887"
           id="path26269"
           sodipodi:nodetypes="caac" /><path
           style="fill:none;stroke:#00ff00;stroke-width:0.5;stroke-linecap:round;stroke-linejoin:round;stroke-dasharray:none"
           d="m 19.18747,143.15833 c -0.0544,0.0304 -0.10892,0.11218 -0.17363,0.10272"
           id="path26271"
           sodipodi:nodetypes="cc" /><path
           style="fill:none;stroke:#00ff00;stroke-width:0.5;stroke-linecap:round;stroke-linejoin:round;stroke-dasharray:none"
           d="m 18.48419,143.01723 c -0.061,-0.0259 -0.13781,0.02 -0.18983,0.0622"
           id="path26273"
           sodipodi:nodetypes="cc" /><path
           style="fill:none;stroke:#00ff00;stroke-width:0.5;stroke-linecap:round;stroke-linejoin:round;stroke-dasharray:none"
           d="m 18.57387,143.64741 c 0,0 -0.0928,0.0548 -0.14348,0.0526"
           id="path26275"
           sodipodi:nodetypes="cc" /><path
           style="fill:none;stroke:#00ff00;stroke-width:0.5;stroke-linecap:round;stroke-linejoin:round;stroke-dasharray:none"
           d="m 17.85096,143.42943 c -0.055,-0.002 -0.11059,-0.009 -0.16837,-0.0204"
           id="path26277"
           sodipodi:nodetypes="cc" /><path
           style="fill:none;stroke:#00ff00;stroke-width:0.5;stroke-linecap:round;stroke-linejoin:round;stroke-dasharray:none"
           d="m 17.26035,142.99345 c -0.0666,-0.0444 -0.16704,-0.0481 -0.2383,-0.0123"
           id="path26279"
           sodipodi:nodetypes="cc" /><path
           style="fill:none;stroke:#00ff00;stroke-width:0.5;stroke-linecap:round;stroke-linejoin:round;stroke-dasharray:none"
           d="m 16.56761,143.38818 c -0.0776,-0.007 -0.12702,-0.0336 -0.19446,-0.0551"
           id="path26281"
           sodipodi:nodetypes="cc" /><path
           style="fill:none;stroke:#00ff00;stroke-width:0.5;stroke-linecap:round;stroke-linejoin:round;stroke-dasharray:none"
           d="m 17.2138,143.74562 c -0.0483,0.0139 -0.10481,0.0191 -0.15055,-0.002"
           id="path26283"
           sodipodi:nodetypes="cc" /><path
           style="fill:none;stroke:#00ff00;stroke-width:0.5;stroke-linecap:round;stroke-linejoin:round;stroke-dasharray:none"
           d="m 16.03911,142.86058 c -0.0331,-0.0511 -0.0801,-0.0624 -0.12781,-0.0751 -0.0498,-0.0133 -0.11107,-0.0428 -0.15451,0.002"
           id="path26285"
           sodipodi:nodetypes="cac" /><path
           style="fill:none;stroke:#00ff00;stroke-width:0.5;stroke-linecap:round;stroke-linejoin:round;stroke-dasharray:none"
           d="m 15.2507,143.03169 c -0.0564,-0.0296 -0.0613,-0.0227 -0.0894,-0.0803"
           id="path26287"
           sodipodi:nodetypes="cc" /><path
           style="fill:none;stroke:#00ff00;stroke-width:0.5;stroke-linecap:round;stroke-linejoin:round;stroke-dasharray:none"
           d="m 15.8192,143.50536 c 0,0 -0.0958,0.01 -0.14122,-0.003 -0.021,-0.006 -0.0568,-0.0323 -0.0568,-0.0323"
           id="path26289"
           sodipodi:nodetypes="cac" /><path
           style="fill:none;stroke:#00ff00;stroke-width:0.5;stroke-linecap:round;stroke-linejoin:round;stroke-dasharray:none"
           d="m 17.95939,146.07972 c -0.0584,-0.0377 -0.15092,-0.0253 -0.20664,0.0162"
           id="path26291"
           sodipodi:nodetypes="cc" /><path
           style="fill:none;stroke:#00ff00;stroke-width:0.5;stroke-linecap:round;stroke-linejoin:round;stroke-dasharray:none"
           d="m 18.71304,146.52832 c 0,0 -0.15324,0.091 -0.25612,0.11078"
           id="path26293"
           sodipodi:nodetypes="cc" /><path
           style="fill:none;stroke:#00ff00;stroke-width:0.5;stroke-linecap:round;stroke-linejoin:round;stroke-dasharray:none"
           d="m 17.91151,146.74821 c -0.0306,-0.005 -0.11711,0.0417 -0.13588,0.0166"
           id="path26295"
           sodipodi:nodetypes="cc" /><path
           style="fill:none;stroke:#00ff00;stroke-width:0.5;stroke-linecap:round;stroke-linejoin:round;stroke-dasharray:none"
           d="m 17.32477,146.66203 c -0.0572,0.009 -0.0414,0.008 -0.0848,0.005"
           id="path26297"
           sodipodi:nodetypes="cc" /><path
           style="fill:none;stroke:#00ff00;stroke-width:0.5;stroke-linecap:round;stroke-linejoin:round;stroke-dasharray:none"
           d="m 17.09753,146.05759 c -0.003,-0.0549 -0.0443,-0.10992 -0.0928,-0.13487 -0.0371,-0.0191 -0.0839,-0.004 -0.12527,0.002"
           id="path26299"
           sodipodi:nodetypes="cac" /><path
           style="fill:none;stroke:#00ff00;stroke-width:0.5;stroke-linecap:round;stroke-linejoin:round;stroke-dasharray:none"
           d="m 16.68261,146.72517 c -0.0354,0.0106 -0.0757,-1.5e-4 -0.11077,-0.0128"
           id="path26301"
           sodipodi:nodetypes="cc" /><path
           style="fill:none;stroke:#00ff00;stroke-width:0.5;stroke-linecap:round;stroke-linejoin:round;stroke-dasharray:none"
           d="m 16.33965,146.19336 c -0.0225,-0.005 -0.0527,-0.012 -0.0783,-0.0219"
           id="path26303"
           sodipodi:nodetypes="cc" /><path
           style="fill:none;stroke:#00ff00;stroke-width:0.5;stroke-linecap:round;stroke-linejoin:round;stroke-dasharray:none"
           d="m 16.00641,145.61035 c -0.0315,-0.0331 -0.0728,-0.0679 -0.11847,-0.069 -0.0391,-9e-4 -0.0797,0.0237 -0.10399,0.0544"
           id="path26305"
           sodipodi:nodetypes="cac" /><path
           style="fill:none;stroke:#00ff00;stroke-width:0.5;stroke-linecap:round;stroke-linejoin:round;stroke-dasharray:none"
           d="m 15.3612,145.99893 c -0.0898,7.6e-4 -0.11335,0.0198 -0.23011,-0.0202 -0.15619,-0.0536 -0.25336,-0.0715 -0.38253,-0.17477"
           id="path26307"
           sodipodi:nodetypes="csc" /><path
           style="fill:none;stroke:#00ff00;stroke-width:0.5;stroke-linecap:round;stroke-linejoin:round;stroke-dasharray:none"
           d="m 14.15611,145.34882 c -0.0383,-0.003 -0.11036,0.0302 -0.14287,0.0726 -0.0207,0.027 -0.0199,0.0659 -0.021,0.1 -0.002,0.0711 -0.001,0.14757 0.0302,0.21139 0.0232,0.047 0.0652,0.097 0.11009,0.11237"
           id="path26309"
           sodipodi:nodetypes="caaac" /><path
           style="fill:none;stroke:#00ff00;stroke-width:0.5;stroke-linecap:round;stroke-linejoin:round;stroke-dasharray:none"
           d="m 15.83427,146.54265 c -0.0346,0.0195 -0.0789,0.0285 -0.11727,0.0187 -0.0362,-0.009 -0.0688,-0.0367 -0.0888,-0.0686"
           id="path26311"
           sodipodi:nodetypes="cac" /><path
           style="fill:none;stroke:#00ff00;stroke-width:0.5;stroke-linecap:round;stroke-linejoin:round;stroke-dasharray:none"
           d="m 17.73422,148.02071 c -0.15084,0.14348 -0.36958,0.35996 -0.48366,0.51228 -0.0874,0.11667 -0.18735,0.27928 -0.28365,0.44804"
           id="path26313"
           sodipodi:nodetypes="csc" /><path
           style="fill:none;stroke:#00ff00;stroke-width:0.5;stroke-linecap:round;stroke-linejoin:round;stroke-dasharray:none"
           d="m 15.45188,149.13361 c -0.0269,-0.26087 -0.0762,-0.68106 -0.13672,-0.92923 -0.0342,-0.1403 -0.11191,-0.35267 -0.17296,-0.51067"
           id="path26315"
           sodipodi:nodetypes="csc" /><path
           style="fill:none;stroke:#00ff00;stroke-width:0.5;stroke-linecap:round;stroke-linejoin:round;stroke-dasharray:none"
           d="m 15.90114,151.54838 c 0.0458,-0.0831 0.15618,-0.14462 0.25026,-0.13557 0.10294,0.01 0.19156,0.10545 0.23794,0.19758 0.0466,0.0925 0.0685,0.22016 0.0175,0.31111"
           id="path26317"
           sodipodi:nodetypes="caac" /><path
           style="fill:none;stroke:#00ff00;stroke-width:0.5;stroke-linecap:round;stroke-linejoin:round;stroke-dasharray:none"
           d="m 17.26315,150.75186 c 0.0715,0.0673 0.0938,0.18758 0.0758,0.2838 -0.0205,0.10984 -0.0929,0.23118 -0.19776,0.27157 -0.0885,0.0341 -0.21259,0.01 -0.27879,-0.0575"
           id="path26319"
           sodipodi:nodetypes="caac" /><path
           style="fill:none;stroke:#00ff00;stroke-width:0.5;stroke-linecap:round;stroke-linejoin:round;stroke-dasharray:none"
           d="m 16.16462,150.20374 c 0.0592,-0.0698 0.17383,-0.1043 0.26232,-0.0819 0.0952,0.0241 0.17297,0.11849 0.20393,0.21137 0.0353,0.10602 0.0309,0.24727 -0.0412,0.33354"
           id="path26321"
           sodipodi:nodetypes="caac" /><path
           style="fill:none;stroke:#00ff00;stroke-width:0.5;stroke-linecap:round;stroke-linejoin:round;stroke-dasharray:none"
           d="m 15.69448,150.56103 c 0.0592,0.0849 0.0439,0.2143 0.004,0.30932 -0.0402,0.0954 -0.12319,0.1948 -0.22546,0.21483 -0.0898,0.0176 -0.20092,-0.027 -0.25612,-0.0998"
           id="path26323"
           sodipodi:nodetypes="caac" /><path
           style="fill:none;stroke:#00ff00;stroke-width:0.5;stroke-linecap:round;stroke-linejoin:round;stroke-dasharray:none"
           d="m 17.32971,151.88877 -0.66696,0.5775 c -0.0865,0.0749 -0.20287,0.12468 -0.3169,0.13018 -0.11365,0.005 -0.23972,-0.0252 -0.32732,-0.0987 m -0.30179,-0.25314 -0.81082,-0.68014 m -0.22689,-0.19031 c -0.10288,-0.0863 -0.16515,-0.22753 -0.18064,-0.36142 -0.0112,-0.0972 -0.008,-0.2242 0.0678,-0.2852 l 0.64869,-0.52289 m 0.26275,-0.2118 0.57601,-0.46431 c 0.10512,-0.0847 0.26007,-0.10004 0.39439,-0.0886 0.12476,0.0106 0.25126,0.0628 0.34805,0.14312 l 0.83185,0.69017 m 0.43302,0.35927 c 0.10815,0.0897 0.16275,0.25857 0.14302,0.39812 -0.0157,0.11148 -0.11305,0.19903 -0.19769,0.27232"
           id="path26325"
           sodipodi:nodetypes="csaccccasccsasccac" /><path
           style="fill:none;stroke:#00ff00;stroke-width:0.5;stroke-linecap:round;stroke-linejoin:round;stroke-dasharray:none"
           d="m 18.48114,151.68802 -0.023,0.27442 m -0.0548,0.65261 c -0.007,0.0807 -0.057,0.15254 -0.0996,0.22113 -0.0614,0.0989 -0.13562,0.19131 -0.22176,0.26917 m -0.59286,0.53584 -0.62377,0.56377"
           id="path26327"
           sodipodi:nodetypes="cccaccc" /><path
           style="fill:none;stroke:#00ff00;stroke-width:0.500001;stroke-linecap:round;stroke-linejoin:round;stroke-dasharray:none"
           d="m 13.767259,151.23819 c 0,0 -1.871855,0.0454 -2.788087,-0.11493 -1.379748,-0.24142 -2.7297557,-0.71971 -4.0078833,-1.26284 -0.2044426,-0.0869 -0.6155493,-0.3159 -0.8524297,-0.4931"
           id="path26349"
           sodipodi:nodetypes="casc" /><path
           style="fill:none;stroke:#00ff00;stroke-width:0.500001;stroke-linecap:round;stroke-linejoin:round;stroke-dasharray:none"
           d="m 13.329581,151.99923 c 0,0 -3.9914206,0.82648 -5.9669763,1.32473 -1.2070138,0.30442 -3.5934537,1.01641 -3.5934537,1.01641"
           id="path26351"
           sodipodi:nodetypes="cac" /><path
           style="fill:none;stroke:#00ff00;stroke-width:0.500001;stroke-linecap:round;stroke-linejoin:round;stroke-dasharray:none"
           d="M 3.6098923,153.83148 2.7436417,153.33532"
           id="path26353"
           sodipodi:nodetypes="cc" /><path
           style="fill:none;stroke:#00ff00;stroke-width:0.500001;stroke-linecap:round;stroke-linejoin:round;stroke-dasharray:none"
           d="m 3.2478991,154.28029 -0.731322,-0.41888"
           id="path26355"
           sodipodi:nodetypes="cc" /><path
           style="fill:none;stroke:#00ff00;stroke-width:0.500001;stroke-linecap:round;stroke-linejoin:round;stroke-dasharray:none"
           d="m 2.9510724,154.70083 c -0.022266,-0.0128 -0.5951191,-0.34086 -0.5951191,-0.34086"
           id="path26357"
           sodipodi:nodetypes="cc" /><path
           style="fill:none;stroke:#00ff00;stroke-width:0.500001;stroke-linecap:round;stroke-linejoin:round;stroke-dasharray:none"
           d="m 2.4194063,155.00615 -0.7753225,1.90837 -0.80241799,0.23754"
           id="path26359"
           sodipodi:nodetypes="ccc" /><path
           style="fill:none;stroke:#00ff00;stroke-width:0.500001;stroke-linecap:round;stroke-linejoin:round;stroke-dasharray:none"
           d="m 3.4350774,152.98573 -0.152887,-1.16446 1.1617097,-1.00508 0.1732996,-1.13317"
           id="path26361"
           sodipodi:nodetypes="cccc" /><path
           style="fill:none;stroke:#00ff00;stroke-width:0.500001;stroke-linecap:round;stroke-linejoin:round;stroke-dasharray:none"
           d="m 0.12631705,157.39741 0.43709378,-4.6917 0.54631947,-2.44442"
           id="path26363"
           sodipodi:nodetypes="ccc" /><path
           style="fill:none;stroke:#00ff00;stroke-width:0.500001;stroke-linecap:round;stroke-linejoin:round;stroke-dasharray:none"
           d="m -0.72914117,157.53624 -0.79793673,0.12253 -1.6363583,-1.7339 -0.355537,-4.60316"
           id="path26365"
           sodipodi:nodetypes="cccc" /><path
           style="fill:none;stroke:#00ff00;stroke-width:0.500001;stroke-linecap:round;stroke-linejoin:round;stroke-dasharray:none"
           d="m -4.0381995,154.40896 -1.530049,-1.53401 0.092286,-4.26456"
           id="path26367"
           sodipodi:nodetypes="ccc" /><path
           style="fill:none;stroke:#00ff00;stroke-width:0.500001;stroke-linecap:round;stroke-linejoin:round;stroke-dasharray:none"
           d="m -1.3265194,152.69149 -0.042827,-2.21943 -0.6207769,-0.71503 -0.5540085,0.37898"
           id="path26369"
           sodipodi:nodetypes="cccc" /><path
           style="fill:none;stroke:#00ff00;stroke-width:0.500001;stroke-linecap:round;stroke-linejoin:round;stroke-dasharray:none"
           d="m 5.7871035,147.6667 c 0,0 0.1415594,-0.18991 0.2232525,-0.27529 0.1914254,-0.20006 0.6215682,-0.55125 0.6215682,-0.55125"
           id="path26371"
           sodipodi:nodetypes="cac" /><path
           style="fill:none;stroke:#00ff00;stroke-width:0.500001;stroke-linecap:round;stroke-linejoin:round;stroke-dasharray:none"
           d="m 6.502844,147.86642 c 0,0 0.969473,0.24244 1.330981,-0.0143 0.2429902,-0.17255 0.2025606,-0.55988 0.302297,-0.84037 0.1223349,-0.34404 0.5348108,-0.71106 0.3632124,-1.03346 -0.089537,-0.16822 -0.3660742,-0.11083 -0.553809,-0.1452 -0.124243,-0.0227 -0.3768237,-0.04 -0.3768237,-0.04"
           id="path26373"
           sodipodi:nodetypes="caaaac" /><path
           style="fill:none;stroke:#00ff00;stroke-width:0.500001;stroke-linecap:round;stroke-linejoin:round;stroke-dasharray:none"
           d="m 8.1784293,144.97506 c 0,0 -0.3703875,-0.45424 -0.5754098,-0.66314 -0.098384,-0.10024 -0.174736,-0.25701 -0.3130706,-0.28209 -0.3509574,-0.0636 -0.6910673,0.20602 -0.9957559,0.39113 -0.1927884,0.11712 -0.5096368,0.44489 -0.5096368,0.44489"
           id="path26375"
           sodipodi:nodetypes="caaac" /><path
           style="fill:none;stroke:#00ff00;stroke-width:0.500001;stroke-linecap:round;stroke-linejoin:round;stroke-dasharray:none"
           d="m 6.2936617,145.60764 c 0,0 -0.6435043,-0.15431 -0.8901258,0.0104 -0.2537585,0.16944 -0.3193786,0.53874 -0.3593456,0.84082 -0.03548,0.26816 0.1139424,0.80347 0.1139424,0.80347"
           id="path26377"
           sodipodi:nodetypes="caac" /><path
           style="fill:none;stroke:#00ff00;stroke-width:0.500001;stroke-linecap:round;stroke-linejoin:round;stroke-dasharray:none"
           d="m 3.4473506,148.51938 c 0,0 0.2227762,-0.5905 0.2730299,-0.89987 0.043067,-0.26512 0.022125,-0.80546 0.022125,-0.80546"
           id="path26379"
           sodipodi:nodetypes="cac" /><path
           style="fill:none;stroke:#00ff00;stroke-width:0.500001;stroke-linecap:round;stroke-linejoin:round;stroke-dasharray:none"
           d="m 5.079362,144.98596 c 0,0 -0.065404,-0.67629 -0.2710232,-0.92235 -0.062626,-0.0749 -0.1866639,-0.0694 -0.2620903,-0.13149 -0.245341,-0.202 -0.2908836,-0.62791 -0.5827694,-0.754 -0.3028637,-0.13083 -0.7088027,-0.0841 -0.985424,0.0955 -0.376771,0.24465 -0.3628267,0.83796 -0.6629159,1.17195 -0.1213852,0.13509 -0.4430724,0.3175 -0.4430724,0.3175"
           id="path26381"
           sodipodi:nodetypes="caaaaac" /><path
           style="fill:none;stroke:#00ff00;stroke-width:0.500001;stroke-linecap:round;stroke-linejoin:round;stroke-dasharray:none"
           d="m 3.0003127,146.62673 c 0,0 -0.4855637,0.15758 -0.7141471,0.0854 -0.2842697,-0.0898 -0.5622881,-0.31747 -0.6652764,-0.59671 -0.079563,-0.21573 0.091853,-0.68351 0.091853,-0.68351"
           id="path26383"
           sodipodi:nodetypes="caac" /><path
           style="fill:none;stroke:#00ff00;stroke-width:0.500001;stroke-linecap:round;stroke-linejoin:round;stroke-dasharray:none"
           d="m 6.6205298,143.45458 c 0,0 -0.2286143,-0.26506 -0.3818026,-0.33984 -0.2848626,-0.13905 -0.6251949,-0.23559 -0.9357081,-0.17137 -0.16923,0.035 -0.4307677,0.28797 -0.4307677,0.28797"
           id="path26385"
           sodipodi:nodetypes="caac" /><path
           style="fill:none;stroke:#00ff00;stroke-width:0.500001;stroke-linecap:round;stroke-linejoin:round;stroke-dasharray:none"
           d="m 5.2594542,142.38123 c 0,0 -0.5827992,-0.34542 -0.9093192,-0.37245 -0.2932006,-0.0243 -0.8605894,0.19559 -0.8605894,0.19559"
           id="path26387"
           sodipodi:nodetypes="cac" /><path
           style="fill:none;stroke:#00ff00;stroke-width:0.500001;stroke-linecap:round;stroke-linejoin:round;stroke-dasharray:none"
           d="m 3.0693392,142.6342 c 0,0 -0.417651,-0.37366 -0.6801865,-0.42257 -0.2951799,-0.055 -0.6310854,0.008 -0.8850057,0.16779"
           id="path26389"
           sodipodi:nodetypes="cac" /><path
           style="fill:none;stroke:#00ff00;stroke-width:0.500001;stroke-linecap:round;stroke-linejoin:round;stroke-dasharray:none"
           d="m -1.0424965,148.35759 c 0,0 -0.085553,-0.74561 0.015109,-1.09737 0.0942559,-0.32937 0.53172845,-0.88001 0.53172845,-0.88001"
           id="path26391"
           sodipodi:nodetypes="cac" /><path
           style="fill:none;stroke:#00ff00;stroke-width:0.500001;stroke-linecap:round;stroke-linejoin:round;stroke-dasharray:none"
           d="m -1.1586244,146.61678 -0.2330315,-0.30305"
           id="path26393"
           sodipodi:nodetypes="cc" /><path
           style="fill:none;stroke:#00ff00;stroke-width:0.500001;stroke-linecap:round;stroke-linejoin:round;stroke-dasharray:none"
           d="m 0.02476227,146.81215 c 0,0 0.37985055,-0.1932 0.46477851,-0.37247 0.0865476,-0.18269 -0.0464059,-0.40805 -0.006635,-0.60619 0.11670025,-0.58141 0.64136342,-1.04445 0.70449002,-1.63405 0.049663,-0.46385 0.049943,-1.03286 -0.26955511,-1.37337 -0.2185337,-0.23291 -0.61521328,-0.31523 -0.92714707,-0.24524 -0.09799741,0.022 -0.2302047,0.19405 -0.2302047,0.19405"
           id="path26395"
           sodipodi:nodetypes="caaaaac" /><path
           style="fill:none;stroke:#00ff00;stroke-width:0.500001;stroke-linecap:round;stroke-linejoin:round;stroke-dasharray:none"
           d="m -0.21763941,143.42845 c 0,0 -0.27962953,-0.30402 -0.46721067,-0.31467 -0.16107098,-0.009 -0.30361415,0.12212 -0.42928152,0.22309 -0.3399705,0.27314 -0.6650966,0.60381 -0.8387285,1.00343 -0.2035115,0.46839 -0.258293,1.01427 -0.1883772,1.52001 0.039029,0.28231 0.3314501,0.78839 0.3314501,0.78839"
           id="path26397"
           sodipodi:nodetypes="caaaac" /><path
           style="fill:none;stroke:#00ff00;stroke-width:0.500001;stroke-linecap:round;stroke-linejoin:round;stroke-dasharray:none"
           d="m -0.07978065,144.9603 c 0,0 -0.22644036,-0.28046 -0.38996467,-0.32115 -0.16340769,-0.0407 -0.33317992,0.0543 -0.49504337,0.10075 -0.14138891,0.0405 -0.41329161,0.15447 -0.41329161,0.15447"
           id="path26399"
           sodipodi:nodetypes="caac" /><path
           style="fill:none;stroke:#00ff00;stroke-width:0.500001;stroke-linecap:round;stroke-linejoin:round;stroke-dasharray:none"
           d="m -1.7075196,143.02615 c 0,0 -0.1903691,-0.18333 -0.3111831,-0.22692 -0.2276552,-0.0821 -0.4854939,-0.082 -0.724802,-0.0455 -0.2598153,0.0396 -0.736331,0.28139 -0.736331,0.28139"
           id="path26401"
           sodipodi:nodetypes="caac" /><path
           style="fill:none;stroke:#00ff00;stroke-width:0.500001;stroke-linecap:round;stroke-linejoin:round;stroke-dasharray:none"
           d="m -4.3085752,147.21604 c 0,0 0.073272,-0.73347 0.138148,-1.09592 0.052208,-0.29168 0.2016568,-0.86579 0.2016568,-0.86579"
           id="path26403"
           sodipodi:nodetypes="cac" /><path
           style="fill:none;stroke:#00ff00;stroke-width:0.500001;stroke-linecap:round;stroke-linejoin:round;stroke-dasharray:none"
           d="m -3.6518733,146.31362 0.5411952,-0.65818"
           id="path26405"
           sodipodi:nodetypes="cc" /><path
           style="fill:none;stroke:#00ff00;stroke-width:0.500001;stroke-linecap:round;stroke-linejoin:round;stroke-dasharray:none"
           d="m -4.743174,146.1399 c 0,0 -0.04446,-0.31305 -0.1550837,-0.40753 -0.171461,-0.14645 -0.6624609,-0.13944 -0.6624609,-0.13944"
           id="path26407"
           sodipodi:nodetypes="cac" /><path
           style="fill:none;stroke:#00ff00;stroke-width:0.500001;stroke-linecap:round;stroke-linejoin:round;stroke-dasharray:none"
           d="m -5.2618088,145.04754 c -0.032957,-0.0496 -0.2393034,-0.56147 -0.4965207,-0.66153 -0.2523144,-0.0982 -0.5664314,0.01 -0.7986271,0.14877 -0.2450454,0.14677 -0.4161529,0.40916 -0.5352455,0.66843 -0.1034361,0.22519 -0.2103227,0.49366 -0.1372963,0.73042 0.036646,0.11881 0.263516,0.26443 0.263516,0.26443"
           id="path26409"
           sodipodi:nodetypes="caaaac" /><path
           style="fill:none;stroke:#00ff00;stroke-width:0.500001;stroke-linecap:round;stroke-linejoin:round;stroke-dasharray:none"
           d="m -5.2013349,146.6989 c 0,0 -0.5434705,0.32892 -0.849509,0.3808 -0.2467868,0.0418 -0.5230561,0.0451 -0.7482162,-0.0641 -0.1273962,-0.0618 -0.2902435,-0.30969 -0.2902435,-0.30969"
           id="path26411"
           sodipodi:nodetypes="caac" /><path
           style="fill:none;stroke:#00ff00;stroke-width:0.500001;stroke-linecap:round;stroke-linejoin:round;stroke-dasharray:none"
           d="m -2.6431313,145.15257 c 0,0 -0.2119929,-0.1672 -0.3382851,-0.17058 -0.1568124,-0.004 -0.4307812,0.18909 -0.4307812,0.18909"
           id="path26413"
           sodipodi:nodetypes="cac" /><path
           style="fill:none;stroke:#00ff00;stroke-width:0.500001;stroke-linecap:round;stroke-linejoin:round;stroke-dasharray:none"
           d="m -2.9436484,144.32943 c 0,0 -0.1598881,-0.48386 -0.3497761,-0.6324 -0.2640357,-0.20653 -0.6493712,-0.35378 -0.9717854,-0.26126 -0.1834756,0.0526 -0.2942892,0.25393 -0.3894267,0.41911 -0.1294604,0.22477 -0.2270866,0.74403 -0.2270866,0.74403"
           id="path26415"
           sodipodi:nodetypes="caaac" /><path
           style="fill:none;stroke:#00ff00;stroke-width:0.500001;stroke-linecap:round;stroke-linejoin:round;stroke-dasharray:none"
           d="M 5.6166055,149.07381 4.7154125,148.1031"
           id="path26417"
           sodipodi:nodetypes="cc" /><path
           style="fill:none;stroke:#00ff00;stroke-width:0.500001;stroke-linecap:round;stroke-linejoin:round;stroke-dasharray:none"
           d="M 5.8251453,148.4773 5.1495751,147.75936"
           id="path26419"
           sodipodi:nodetypes="cc" /><path
           style="fill:none;stroke:#00ff00;stroke-width:0.500001;stroke-linecap:round;stroke-linejoin:round;stroke-dasharray:none"
           d="M 4.9973571,149.26803 4.3217869,148.55009"
           id="path26421"
           sodipodi:nodetypes="cc" /><path
           style="fill:none;stroke:#00ff00;stroke-width:0.500001;stroke-linecap:round;stroke-linejoin:round;stroke-dasharray:none"
           d="m 4.0217516,149.22383 c 0,0 -1.1227755,-0.38632 -1.7062068,-0.4795 -0.1716497,-0.0274 -0.5210221,-0.0223 -0.5210221,-0.0223"
           id="path26423"
           sodipodi:nodetypes="cac" /><path
           style="fill:none;stroke:#00ff00;stroke-width:0.500001;stroke-linecap:round;stroke-linejoin:round;stroke-dasharray:none"
           d="m 2.2470011,147.96934 c 0,0 -0.371811,-0.21504 -0.5764813,-0.27259 -0.3947713,-0.111 -0.8142675,-0.15934 -1.22341405,-0.13087 -0.15020447,0.0105 -0.43810472,0.1098 -0.43810472,0.1098"
           id="path26425"
           sodipodi:nodetypes="caac" /><path
           style="fill:none;stroke:#00ff00;stroke-width:0.500001;stroke-linecap:round;stroke-linejoin:round;stroke-dasharray:none"
           d="m 0.86896052,149.41192 c 0,0 -0.72255579,-0.40031 -1.11966469,-0.49414 -0.76057513,-0.17971 -1.57374473,-0.25699 -2.34203643,-0.11365 -0.2442046,0.0456 -0.6810756,0.30207 -0.6810756,0.30207"
           id="path26427"
           sodipodi:nodetypes="caac" /><path
           style="fill:none;stroke:#00ff00;stroke-width:0.500001;stroke-linecap:round;stroke-linejoin:round;stroke-dasharray:none"
           d="m -2.5845294,148.0245 c 0,0 -1.1629963,-0.0949 -1.7415468,-0.16858 -0.5703116,-0.0726 -1.2775755,-0.65465 -1.7035636,-0.26931 -0.2134923,0.19312 0.050951,0.86118 0.050951,0.86118"
           id="path26429"
           sodipodi:nodetypes="caac" /></g></g><g
       inkscape:label="svglink:blueprint_closing.svg"
       ns3:href="blueprint_closing.svg"
       ns4:x="-141.85518"
       ns4:y="165.8927"
       ns3:image-svg-dpi="200"
       ns3:image-height="39.920067"
       ns3:image-width="156.24097"
       id="g2"
       transform="translate(5.979,6.156)"><title
   transform="translate(-141.855, 165.893)"
   id="title1">Exported SVG</title>&#10;&#10;<style
   transform="translate(-141.855, 165.893)"
   id="style1"><![CDATA[
polygon {
shape-rendering:crispEdges;
stroke-width:0.156595;
}
.s0 {
stroke:#000000;
stroke-width:0.360309;
stroke-linecap:round;
stroke-linejoin:round;
fill:none;
}
.s1 {
stroke:#000000;
stroke-width:0.360309;
stroke-linecap:round;
stroke-linejoin:round;
fill:none;
}
.s2 {
stroke:#19b219;
stroke-width:0.360309;
stroke-linecap:round;
stroke-linejoin:round;
fill:none;
}
.s3 {
stroke:#7f4c00;
stroke-width:0.360309;
stroke-linecap:round;
stroke-linejoin:round;
fill:none;
}
.s4 {
stroke:#00cc00;
stroke-width:0.360309;
stroke-linecap:round;
stroke-linejoin:round;
fill:none;
}
.s5 {
stroke:#000000;
stroke-width:0.240206;
stroke-linecap:round;
stroke-linejoin:round;
fill:none;
}
.s6 {
stroke:#ff19ff;
stroke-width:0.240206;
stroke-linecap:round;
stroke-linejoin:round;
fill:none;
}
.s7 {
stroke:#ff0000;
stroke-width:0.360309;
stroke-linecap:round;
stroke-linejoin:round;
fill:none;
}
.s8 {
stroke:#ffff00;
stroke-width:0.360309;
stroke-linecap:round;
stroke-linejoin:round;
fill:none;
}
.s9 {
stroke:#001919;
stroke-width:0.240206;
stroke-linecap:round;
stroke-linejoin:round;
fill:none;
}
.sa {
stroke:#006666;
stroke-width:0.240206;
stroke-linecap:round;
stroke-linejoin:round;
fill:none;
}
.sb {
stroke:#00ffff;
stroke-width:0.720617;
stroke-linecap:round;
stroke-linejoin:round;
fill:none;
}
.sc {
stroke:#ff0000;
stroke-width:1.921646;
stroke-linecap:round;
stroke-linejoin:round;
fill:none;
}
.sd {
stroke:#191919;
stroke-width:0.240206;
stroke-linecap:round;
stroke-linejoin:round;
fill:none;
}
.se {
stroke:#000000;
stroke-width:0.240206;
stroke-linecap:round;
stroke-linejoin:round;
stroke-dasharray:3.603,3.603;
fill:none;
}
.sf {
stroke:#000000;
stroke-width:0.720617;
stroke-linecap:round;
stroke-linejoin:round;
fill:none;
}
.s100 {
stroke:#ff0000;
stroke-width:0.500000;
stroke-linecap:round;
stroke-linejoin:round;
fill:none;
}
]]></style>&#10;<path
   d="m 5,8.06 v 24 -24"
   class="s100"
   transform="translate(-141.855,165.893)"
   id="path1" />&#10;<path
   d="m 84.472,5.945 v 0"
   class="s100"
   transform="translate(-141.855,165.893)"
   id="path2" />&#10;<path
   d="m 5,8.06 h 22.297 a 0.75,0.75 0 0 1 0.65,0.375 0.75,0.75 0 0 0 0.798,0.36 A 0.75,0.75 0 0 0 29.341,8.154 0.75,0.75 0 0 0 28.923,7.385 0.75,0.75 0 0 1 28.502,6.764 L 28.453,6.083 A 0.75,0.75 0 0 1 28.459,5.917 L 28.501,5.639 A 0.75,0.75 0 0 1 29.242,5 h 4.514 a 0.75,0.75 0 0 1 0.748,0.696 l 0.078,1.068 A 0.75,0.75 0 0 1 34.255,7.439 0.75,0.75 0 0 0 33.96,8.28 0.75,0.75 0 0 0 34.676,8.81 0.75,0.75 0 0 0 35.393,8.28 0.75,0.75 0 0 0 35.098,7.439 0.75,0.75 0 0 1 34.771,6.764 L 34.849,5.696 A 0.75,0.75 0 0 1 35.597,5 h 4.514 a 0.75,0.75 0 0 1 0.741,0.639 l 0.042,0.278 A 0.75,0.75 0 0 1 40.9,6.083 l -0.049,0.681 a 0.75,0.75 0 0 1 -0.421,0.621 0.75,0.75 0 0 0 -0.418,0.769 0.75,0.75 0 0 0 0.596,0.641 0.75,0.75 0 0 0 0.798,-0.36 0.75,0.75 0 0 1 0.65,-0.375 h 28.862 a 0.75,0.75 0 0 1 0.65,0.375 0.75,0.75 0 0 0 0.792,0.361 0.75,0.75 0 0 0 0.6,-0.63 A 0.75,0.75 0 0 0 72.561,7.393 0.75,0.75 0 0 1 72.155,6.762 L 72.12,6.056 A 0.75,0.75 0 0 1 72.123,5.945 L 72.15,5.675 A 0.75,0.75 0 0 1 72.896,5 h 4.538 a 0.75,0.75 0 0 1 0.75,0.714 l 0.011,0.227 A 0.75,0.75 0 0 1 77.73,6.672 1.5,1.5 0 0 0 76.826,8.349 1.5,1.5 0 0 0 78.297,9.56 1.5,1.5 0 0 0 79.769,8.349 1.5,1.5 0 0 0 78.865,6.672 0.75,0.75 0 0 1 78.4,5.941 L 78.411,5.714 A 0.75,0.75 0 0 1 79.161,5 h 4.587 a 0.75,0.75 0 0 1 0.595,0.294 0.75,0.75 0 0 1 0.129,0.651 0.75,0.75 0 0 1 0.003,0.111 L 84.44,6.762 a 0.75,0.75 0 0 1 -0.406,0.631 0.75,0.75 0 0 0 -0.399,0.773 0.75,0.75 0 0 0 0.6,0.63 0.75,0.75 0 0 0 0.792,-0.361 0.75,0.75 0 0 1 0.65,-0.375 h 28.862 a 0.75,0.75 0 0 1 0.65,0.375 0.75,0.75 0 0 0 0.798,0.36 0.75,0.75 0 0 0 0.596,-0.641 0.75,0.75 0 0 0 -0.418,-0.769 0.75,0.75 0 0 1 -0.421,-0.621 l -0.049,-0.681 a 0.75,0.75 0 0 1 0.006,-0.166 l 0.042,-0.278 A 0.75,0.75 0 0 1 116.484,5 h 4.514 a 0.75,0.75 0 0 1 0.748,0.696 l 0.078,1.068 a 0.75,0.75 0 0 1 -0.327,0.675 0.75,0.75 0 0 0 -0.295,0.841 0.75,0.75 0 0 0 0.717,0.53 0.75,0.75 0 0 0 0.716,-0.53 0.75,0.75 0 0 0 -0.295,-0.841 0.75,0.75 0 0 1 -0.327,-0.675 l 0.078,-1.068 A 0.75,0.75 0 0 1 122.839,5 h 4.514 a 0.75,0.75 0 0 1 0.741,0.639 l 0.042,0.278 a 0.75,0.75 0 0 1 0.006,0.166 l -0.049,0.681 a 0.75,0.75 0 0 1 -0.421,0.621 0.75,0.75 0 0 0 -0.418,0.769 0.75,0.75 0 0 0 0.596,0.641 0.75,0.75 0 0 0 0.798,-0.36 0.75,0.75 0 0 1 0.65,-0.375 h 22.297 v 24 h -22.297 a 0.75,0.75 0 0 1 -0.65,-0.375 0.75,0.75 0 0 0 -0.798,-0.36 0.75,0.75 0 0 0 -0.596,0.641 0.75,0.75 0 0 0 0.418,0.769 0.75,0.75 0 0 1 0.421,0.621 l 0.049,0.681 a 0.75,0.75 0 0 1 -0.006,0.166 l -0.042,0.278 a 0.75,0.75 0 0 1 -0.741,0.639 h -4.514 a 0.75,0.75 0 0 1 -0.748,-0.696 l -0.078,-1.068 a 0.75,0.75 0 0 1 0.327,-0.675 0.75,0.75 0 0 0 0.295,-0.841 0.75,0.75 0 0 0 -0.716,-0.53 0.75,0.75 0 0 0 -0.717,0.53 0.75,0.75 0 0 0 0.295,0.841 0.75,0.75 0 0 1 0.327,0.675 l -0.078,1.068 a 0.75,0.75 0 0 1 -0.748,0.696 h -4.514 a 0.75,0.75 0 0 1 -0.741,-0.639 l -0.042,-0.278 a 0.75,0.75 0 0 1 -0.006,-0.166 l 0.049,-0.681 a 0.75,0.75 0 0 1 0.421,-0.621 0.75,0.75 0 0 0 0.418,-0.769 0.75,0.75 0 0 0 -0.596,-0.641 0.75,0.75 0 0 0 -0.798,0.36 0.75,0.75 0 0 1 -0.65,0.375 H 85.677 a 0.75,0.75 0 0 1 -0.65,-0.375 0.75,0.75 0 0 0 -0.798,-0.36 0.75,0.75 0 0 0 -0.596,0.641 0.75,0.75 0 0 0 0.418,0.769 0.75,0.75 0 0 1 0.421,0.621 l 0.049,0.681 a 0.75,0.75 0 0 1 -0.006,0.166 l -0.042,0.278 A 0.75,0.75 0 0 1 83.732,35.12 H 79.218 A 0.75,0.75 0 0 1 78.47,34.424 l -0.078,-1.068 a 0.75,0.75 0 0 1 0.327,-0.675 0.75,0.75 0 0 0 0.295,-0.841 0.75,0.75 0 0 0 -0.717,-0.53 0.75,0.75 0 0 0 -0.716,0.53 0.75,0.75 0 0 0 0.295,0.841 0.75,0.75 0 0 1 0.327,0.675 l -0.078,1.068 A 0.75,0.75 0 0 1 77.377,35.12 H 72.863 A 0.75,0.75 0 0 1 72.122,34.481 L 72.08,34.203 a 0.75,0.75 0 0 1 -0.006,-0.166 l 0.049,-0.681 a 0.75,0.75 0 0 1 0.421,-0.621 0.75,0.75 0 0 0 0.418,-0.769 0.75,0.75 0 0 0 -0.596,-0.641 0.75,0.75 0 0 0 -0.798,0.36 0.75,0.75 0 0 1 -0.65,0.375 H 42.056 a 0.75,0.75 0 0 1 -0.65,-0.375 0.75,0.75 0 0 0 -0.798,-0.36 0.75,0.75 0 0 0 -0.596,0.641 0.75,0.75 0 0 0 0.418,0.769 0.75,0.75 0 0 1 0.421,0.621 l 0.049,0.681 a 0.75,0.75 0 0 1 -0.006,0.166 l -0.042,0.278 a 0.75,0.75 0 0 1 -0.741,0.639 h -4.514 a 0.75,0.75 0 0 1 -0.748,-0.696 l -0.078,-1.068 a 0.75,0.75 0 0 1 0.327,-0.675 0.75,0.75 0 0 0 0.295,-0.841 0.75,0.75 0 0 0 -0.717,-0.53 0.75,0.75 0 0 0 -0.716,0.53 0.75,0.75 0 0 0 0.295,0.841 0.75,0.75 0 0 1 0.327,0.675 l -0.078,1.068 a 0.75,0.75 0 0 1 -0.748,0.696 h -4.514 a 0.75,0.75 0 0 1 -0.741,-0.639 l -0.042,-0.278 a 0.75,0.75 0 0 1 -0.006,-0.166 l 0.049,-0.681 a 0.75,0.75 0 0 1 0.421,-0.621 0.75,0.75 0 0 0 0.418,-0.769 0.75,0.75 0 0 0 -0.596,-0.641 0.75,0.75 0 0 0 -0.798,0.36 0.75,0.75 0 0 1 -0.65,0.375 H 5"
   class="s100"
   transform="translate(-141.855,165.893)"
   id="path3" />&#10;<path
   d="m 28.502,6.764 a 0.75,0.75 0 0 0 0.421,0.621 0.75,0.75 0 0 1 0.418,0.769 0.75,0.75 0 0 1 -0.596,0.641 0.75,0.75 0 0 1 -0.798,-0.36 0.75,0.75 0 0 0 -0.65,-0.375 H 5"
   class="s100"
   transform="translate(-141.855,165.893)"
   id="path4" />&#10;<path
   d="m 115.744,6.764 a 0.75,0.75 0 0 0 0.421,0.621 0.75,0.75 0 0 1 0.418,0.769 0.75,0.75 0 0 1 -0.596,0.641 0.75,0.75 0 0 1 -0.798,-0.36 0.75,0.75 0 0 0 -0.65,-0.375 H 85.677"
   class="s100"
   transform="translate(-141.855,165.893)"
   id="path5" />&#10;<path
   d="M 34.255,7.439 A 0.75,0.75 0 0 0 34.582,6.764 L 34.504,5.696 A 0.75,0.75 0 0 0 33.756,5 h -4.514 a 0.75,0.75 0 0 0 -0.741,0.639 l -0.042,0.278 a 0.75,0.75 0 0 0 -0.006,0.166 l 0.049,0.681"
   class="s100"
   transform="translate(-141.855,165.893)"
   id="path6" />&#10;<path
   d="m 121.497,7.439 a 0.75,0.75 0 0 0 0.327,-0.675 L 121.746,5.696 A 0.75,0.75 0 0 0 120.998,5 h -4.514 a 0.75,0.75 0 0 0 -0.741,0.639 l -0.042,0.278 a 0.75,0.75 0 0 0 -0.006,0.166 l 0.049,0.681"
   class="s100"
   transform="translate(-141.855,165.893)"
   id="path7" />&#10;<path
   d="M 34.771,6.764 A 0.75,0.75 0 0 0 35.098,7.439 0.75,0.75 0 0 1 35.393,8.28 0.75,0.75 0 0 1 34.676,8.81 0.75,0.75 0 0 1 33.96,8.28 0.75,0.75 0 0 1 34.255,7.439"
   class="s100"
   transform="translate(-141.855,165.893)"
   id="path8" />&#10;<path
   d="m 122.013,6.764 a 0.75,0.75 0 0 0 0.327,0.675 0.75,0.75 0 0 1 0.295,0.841 0.75,0.75 0 0 1 -0.716,0.53 0.75,0.75 0 0 1 -0.717,-0.53 0.75,0.75 0 0 1 0.295,-0.841"
   class="s100"
   transform="translate(-141.855,165.893)"
   id="path9" />&#10;<path
   d="M 40.9,6.083 A 0.75,0.75 0 0 0 40.894,5.917 L 40.852,5.639 A 0.75,0.75 0 0 0 40.111,5 h -4.514 a 0.75,0.75 0 0 0 -0.748,0.696 l -0.078,1.068"
   class="s100"
   transform="translate(-141.855,165.893)"
   id="path10" />&#10;<path
   d="M 128.142,6.083 A 0.75,0.75 0 0 0 128.136,5.917 L 128.094,5.639 A 0.75,0.75 0 0 0 127.353,5 h -4.514 a 0.75,0.75 0 0 0 -0.748,0.696 l -0.078,1.068"
   class="s100"
   transform="translate(-141.855,165.893)"
   id="path11" />&#10;<path
   d="M 42.056,8.06 A 0.75,0.75 0 0 0 41.406,8.435 0.75,0.75 0 0 1 40.608,8.795 0.75,0.75 0 0 1 40.012,8.154 0.75,0.75 0 0 1 40.43,7.385 0.75,0.75 0 0 0 40.851,6.764 L 40.9,6.083"
   class="s100"
   transform="translate(-141.855,165.893)"
   id="path12" />&#10;<path
   d="m 129.298,8.06 a 0.75,0.75 0 0 0 -0.65,0.375 0.75,0.75 0 0 1 -0.798,0.36 0.75,0.75 0 0 1 -0.596,-0.641 0.75,0.75 0 0 1 0.418,-0.769 0.75,0.75 0 0 0 0.421,-0.621 l 0.049,-0.681"
   class="s100"
   transform="translate(-141.855,165.893)"
   id="path13" />&#10;<path
   d="m 129.298,8.06 h 22.297"
   class="s100"
   transform="translate(-141.855,165.893)"
   id="path14" />&#10;<path
   d="M 42.056,8.06 H 70.918"
   class="s100"
   transform="translate(-141.855,165.893)"
   id="path15" />&#10;&#10;</g></g></svg>
