<?xml version="1.0" encoding="UTF-8" standalone="no"?>
<!-- Created with Inkscape (http://www.inkscape.org/) -->

<svg
   width="6.4144888mm"
   height="7.4886856mm"
   viewBox="0 0 6.4144888 7.4886856"
   version="1.1"
   id="svg5"
   inkscape:version="1.3 (0e150ed6c4, 2023-07-21)"
   sodipodi:docname="alpaca_color.svg"
   xmlns:inkscape="http://www.inkscape.org/namespaces/inkscape"
   xmlns:sodipodi="http://sodipodi.sourceforge.net/DTD/sodipodi-0.dtd"
   xmlns="http://www.w3.org/2000/svg"
   xmlns:svg="http://www.w3.org/2000/svg">
  <sodipodi:namedview
     id="namedview7"
     pagecolor="#ffffff"
     bordercolor="#666666"
     borderopacity="1.0"
     inkscape:pageshadow="2"
     inkscape:pageopacity="0"
     inkscape:pagecheckerboard="false"
     inkscape:document-units="mm"
     showgrid="false"
     inkscape:zoom="9.0510665"
     inkscape:cx="15.025854"
     inkscape:cy="29.002107"
     inkscape:window-width="636"
     inkscape:window-height="1037"
     inkscape:window-x="0"
     inkscape:window-y="0"
     inkscape:window-maximized="1"
     inkscape:current-layer="g3099"
     inkscape:showpageshadow="2"
     inkscape:deskcolor="#ffffff" />
  <defs
     id="defs2">
    <inkscape:path-effect
       effect="simplify"
       id="path-effect3725"
       is_visible="true"
       lpeversion="1"
       steps="1"
       threshold="0.0168421"
       smooth_angles="360"
       helper_size="0"
       simplify_individual_paths="false"
       simplify_just_coalesce="false" />
    <inkscape:path-effect
       effect="simplify"
       id="path-effect3721"
       is_visible="true"
       lpeversion="1"
       steps="1"
       threshold="0.0168421"
       smooth_angles="360"
       helper_size="0"
       simplify_individual_paths="false"
       simplify_just_coalesce="false" />
    <inkscape:path-effect
       effect="simplify"
       id="path-effect3654"
       is_visible="true"
       lpeversion="1"
       steps="1"
       threshold="0.0168421"
       smooth_angles="360"
       helper_size="0"
       simplify_individual_paths="false"
       simplify_just_coalesce="false" />
    <inkscape:path-effect
       effect="simplify"
       id="path-effect3599"
       is_visible="true"
       lpeversion="1"
       steps="1"
       threshold="0.0168421"
       smooth_angles="360"
       helper_size="0"
       simplify_individual_paths="false"
       simplify_just_coalesce="false" />
    <inkscape:path-effect
       effect="simplify"
       id="path-effect3595"
       is_visible="true"
       lpeversion="1"
       steps="1"
       threshold="0.0168421"
       smooth_angles="360"
       helper_size="0"
       simplify_individual_paths="false"
       simplify_just_coalesce="false" />
    <inkscape:path-effect
       effect="simplify"
       id="path-effect3528"
       is_visible="true"
       lpeversion="1"
       steps="1"
       threshold="0.0168421"
       smooth_angles="360"
       helper_size="0"
       simplify_individual_paths="false"
       simplify_just_coalesce="false" />
    <inkscape:path-effect
       effect="simplify"
       id="path-effect3126"
       is_visible="true"
       lpeversion="1"
       steps="1"
       threshold="0.0168421"
       smooth_angles="360"
       helper_size="0"
       simplify_individual_paths="false"
       simplify_just_coalesce="false" />
  </defs>
  <g
     inkscape:label="Layer 1"
     inkscape:groupmode="layer"
     id="layer1"
     transform="translate(54.818102,-114.64424)">
    <path
       id="path3124"
       style="fill:#fff5f8;fill-opacity:1;stroke:none;stroke-width:0.2;stroke-linecap:round;stroke-linejoin:round;stroke-dasharray:none"
       d="m -49.296288,114.64431 c -0.756107,0.0108 -1.001838,0.47532 -1.79605,0.22275 -0.955829,-0.30395 0.0642,1.25919 0.309306,1.7585 0.536878,1.09366 -1.403642,0.42014 -2.385479,0.4946 -1.274196,0.0967 -1.616067,0.3346 -1.648538,0.92277 -0.03109,0.56306 0.813024,1.36131 0.885646,2.45563 0.06692,1.00836 0.728657,1.53999 1.151423,1.40591 0.297637,-0.0944 0.828438,0.0837 1.107379,-0.0494 0.698709,-0.33327 0.887879,0.40939 1.677635,0.0773 1.087175,-0.45711 0.298269,-1.27408 0.625704,-1.94171 0.502699,-1.02499 0.491977,-1.99143 0.339689,-2.99677 -0.126793,-0.83704 1.145682,-1.24906 0.378244,-2.06126 -0.161782,-0.17121 -0.470472,-0.29087 -0.644959,-0.28837 z"
       sodipodi:nodetypes="cscccssscssscc" />
    <path
       id="path3526"
       style="fill:#ffd6e3;fill-opacity:1;stroke:none;stroke-width:0.2;stroke-linecap:round;stroke-linejoin:round;stroke-dasharray:none"
       d="m -50.518623,115.29433 c -0.301361,0.0563 -0.205709,0.428 -0.167998,0.64037 0.02941,0.24363 0.06848,0.51403 0.261554,0.68655 0.121222,0.27262 0.491331,0.43146 0.716933,0.18046 0.25508,-0.12137 0.28201,-0.48096 0.0053,-0.59629 -0.248041,-0.15912 -0.46457,-0.37923 -0.558887,-0.66395 -0.05202,-0.10403 -0.119959,-0.25033 -0.256918,-0.24714 z m 1.025261,1.48105 c -0.252191,0.21896 -0.1324,0.59855 -0.242101,0.88345 -0.09911,0.24091 -0.283513,0.43987 -0.345543,0.69828 -0.07834,0.24212 -0.226112,0.5171 -0.509035,0.54592 -0.526093,0.135 -1.047412,0.4459 -1.607409,0.31464 -0.40679,-0.0672 -0.761526,-0.31108 -1.164164,-0.38448 -0.323997,0.0831 -0.0092,0.37946 0.120512,0.49872 0.253162,0.29635 0.600273,0.38495 0.963328,0.4612 0.363055,0.0762 0.630408,-0.0335 1.066466,-0.0829 0.436058,-0.0494 0.946638,0.0613 1.341083,-0.0801 0.394446,-0.14142 0.47529,-0.26489 0.526494,-0.55162 0.12963,-0.3468 0.411343,-0.69272 0.29161,-1.08318 -0.109939,-0.3687 3.98e-4,-0.81317 -0.277741,-1.12184 -0.04573,-0.0437 -0.09575,-0.0951 -0.1635,-0.0981 z m -1.72651,0.70951 c -0.44952,-0.006 -0.913327,0.17206 -1.202702,0.52301 -0.01726,0.19999 0.32423,0.0757 0.459224,0.13081 0.305901,-0.0286 0.539907,0.16039 0.760987,0.33837 0.306684,0.1099 0.608104,-0.18798 0.697077,-0.46438 0.178762,-0.23047 0.08465,-0.55849 -0.251211,-0.51609 -0.15419,0.004 -0.308822,-0.0166 -0.463375,-0.0117 z"
       sodipodi:nodetypes="ccccccccccccccczzzccccccccccccc" />
    <path
       id="path3652"
       style="fill:#ffb3cb;fill-opacity:1;stroke:none;stroke-width:0.2;stroke-linecap:round;stroke-linejoin:round;stroke-dasharray:none"
       d="m -50.535159,115.91083 c -0.136187,0.19502 0.03448,0.41804 0.01658,0.62877 -0.01298,0.33359 0.378974,0.61143 0.691549,0.48163 0.17792,-0.0522 0.137542,-0.28328 0.02438,-0.381 -0.09965,-0.15189 -0.312025,-0.0937 -0.420958,-0.22547 -0.129601,-0.15103 -0.107176,-0.41707 -0.311549,-0.50393 z m 1.169954,1.48001 c -0.236338,0.16623 -0.219138,0.48623 -0.226247,0.74292 0.04552,0.26495 -0.122949,0.49031 -0.247812,0.70624 -0.09212,0.12969 -0.115191,0.31695 0.01168,0.43321 0.111961,0.1317 0.335102,0.15709 0.451392,0.0163 0.212804,-0.21464 0.155629,-0.54006 0.21308,-0.81125 0.01086,-0.33179 0.01759,-0.67326 -0.07606,-0.9943 -0.0252,-0.0474 -0.07053,-0.0884 -0.126035,-0.0931 z m -1.189591,1.6738 c -0.34083,0.0699 -0.589041,0.41263 -0.957427,0.37674 -0.299731,-0.0452 -0.617469,-0.0157 -0.890316,0.12261 -0.05548,0.16215 0.134214,0.26639 0.267136,0.29065 0.171201,0.06 0.320745,-0.0677 0.490367,-0.0338 0.269002,0.0156 0.540046,0.0351 0.807417,-0.007 0.210139,-0.0143 0.470428,-7.7e-4 0.615402,-0.18206 0.129359,-0.21482 -0.07451,-0.46611 -0.271248,-0.55001 0.0015,-0.026 -0.06155,0.005 -0.06133,-0.0169 z" />
    <g
       id="g3099"
       inkscape:label="lines">
      <path
         style="fill:none;stroke:#000000;stroke-width:0.1;stroke-linecap:round;stroke-linejoin:round;stroke-dasharray:none;stroke-opacity:1"
         d="m -49.969209,119.04891 c 0,0 0.269375,-0.0551 0.357757,-0.14735 0.08145,-0.085 0.06453,-0.0984 0.121078,-0.20405 0.03166,-0.0593 0.177362,-0.11274 0.180415,-0.19411 0.0023,-0.0596 -0.05314,-0.21611 -0.04253,-0.26334 0.03269,-0.1456 0.128822,-0.20862 0.108651,-0.3589 -0.007,-0.0523 -0.0692,-0.087 -0.105155,-0.16238 -0.03118,-0.0654 0.07478,-0.18906 0.07058,-0.23394 -0.01,-0.1075 -0.08663,-0.12883 -0.106116,-0.27006"
         id="path74550"
         sodipodi:nodetypes="csssssssc" />
      <path
         style="fill:none;stroke:#000000;stroke-width:0.1;stroke-linecap:round;stroke-linejoin:round;stroke-dasharray:none;stroke-opacity:1"
         d="m -49.370218,115.82307 c 0,0.0229 -0.04878,0.17577 -0.05298,0.26612 -0.0058,0.1248 0.09575,0.26168 0.03879,0.37292 -0.0656,0.12812 -0.230733,0.20898 -0.374541,0.21484 -0.128804,0.005 -0.275634,-0.0593 -0.349992,-0.16448 -0.06883,-0.0975 -0.0096,-0.23969 -0.03512,-0.35628 -0.01643,-0.075 -0.07516,-0.21783 -0.07516,-0.21783"
         id="path74552"
         sodipodi:nodetypes="caaaaac" />
      <path
         style="fill:none;stroke:#000000;stroke-width:0.1;stroke-linecap:round;stroke-linejoin:round;stroke-dasharray:none;stroke-opacity:1"
         d="m -49.067776,115.38959 c 0,0 0.06705,-0.1463 0.135621,-0.16011 0.09671,-0.0194 0.263556,0.13459 0.263556,0.13459"
         id="path74554"
         sodipodi:nodetypes="cac" />
      <path
         style="fill:none;stroke:#000000;stroke-width:0.1;stroke-linecap:round;stroke-linejoin:round;stroke-dasharray:none;stroke-opacity:1"
         d="m -50.563788,115.50488 c -0.0175,0 -0.145759,-0.15049 -0.237217,-0.14088 -0.101047,0.0105 -0.224148,0.20655 -0.224148,0.20655"
         id="path74556"
         sodipodi:nodetypes="cac" />
      <path
         style="fill:none;stroke:#000000;stroke-width:0.1;stroke-linecap:round;stroke-linejoin:round;stroke-dasharray:none;stroke-opacity:1"
         d="m -49.64991,115.30758 c 0,0 -0.106798,-0.0402 -0.16149,-0.0341 -0.07118,0.007 -0.195443,0.0892 -0.195443,0.0892"
         id="path74558"
         sodipodi:nodetypes="cac" />
      <path
         style="fill:none;stroke:#000000;stroke-width:0.1;stroke-linecap:round;stroke-linejoin:round;stroke-dasharray:none;stroke-opacity:1"
         d="m -50.096179,117.15284 c -0.04845,0.0926 -0.05911,0.2048 -0.02444,0.30396 0.02555,0.11344 -0.107375,0.15137 -0.191887,0.15014 -0.0685,0.0635 -0.129433,0.005 -0.146895,0.12638"
         id="path74560"
         sodipodi:nodetypes="cssc" />
      <path
         style="fill:none;stroke:#000000;stroke-width:0.1;stroke-linecap:round;stroke-linejoin:round;stroke-dasharray:none;stroke-opacity:1"
         d="m -51.014169,117.71364 c 0,0 -0.177025,-0.0236 -0.26493,-0.014 -0.198268,0.0219 -0.378109,0.13949 -0.576475,0.16046 -0.2746,0.0288 -0.826734,-0.0514 -0.826734,-0.0514"
         id="path74562"
         sodipodi:nodetypes="caac" />
      <path
         style="fill:none;stroke:#000000;stroke-width:0.1;stroke-linecap:round;stroke-linejoin:round;stroke-dasharray:none;stroke-opacity:1"
         d="m -53.290654,117.71196 c 0,0 -0.299021,-0.14997 -0.452427,-0.12113 -0.179251,0.0339 -0.363101,0.15941 -0.440705,0.32445 -0.08262,0.17579 -0.02388,0.39615 0.03338,0.58174 0.0312,0.1012 0.163588,0.27222 0.163588,0.27222"
         id="path74564"
         sodipodi:nodetypes="caaac" />
      <path
         style="fill:none;stroke:#000000;stroke-width:0.1;stroke-linecap:round;stroke-linejoin:round;stroke-dasharray:none;stroke-opacity:1"
         d="m -53.385644,118.43263 c 0,0 0.01101,0.2578 0.0559,0.37645 0.03454,0.0912 0.15948,0.24544 0.15948,0.24544"
         id="path74566"
         sodipodi:nodetypes="cac" />
      <path
         style="fill:none;stroke:#000000;stroke-width:0.1;stroke-linecap:round;stroke-linejoin:round;stroke-dasharray:none;stroke-opacity:1"
         d="m -51.214625,119.6293 c -0.110678,0.096 -0.219507,0.18808 -0.35344,0.19137 -0.111429,0.003 -0.19336,-0.11764 -0.301519,-0.14456 -0.08311,-0.0206 -0.25675,-0.0105 -0.25675,-0.0105"
         id="path74568"
         sodipodi:nodetypes="caac" />
      <path
         style="fill:none;stroke:#000000;stroke-width:0.1;stroke-linecap:round;stroke-linejoin:round;stroke-dasharray:none;stroke-opacity:1"
         d="m -50.579661,119.26105 c 0,0 -0.146003,0.66935 -0.23231,1.00074 -0.05055,0.1941 -0.129905,0.38097 -0.167136,0.57807 -0.03365,0.17806 -0.1531,0.39235 -0.04996,0.54135 0.04174,0.0603 0.212145,0.0582 0.212145,0.0582"
         id="path74570"
         sodipodi:nodetypes="caaac" />
      <path
         style="fill:none;stroke:#000000;stroke-width:0.1;stroke-linecap:round;stroke-linejoin:round;stroke-dasharray:none;stroke-opacity:1"
         d="m -49.971974,121.26855 c 0,0 -0.163081,0.0372 -0.208375,-0.0157 -0.239096,-0.2794 0.01189,-0.73993 0.08794,-1.0997 0.04008,-0.18951 0.192121,-0.54841 0.192121,-0.54841"
         id="path74572"
         sodipodi:nodetypes="caac" />
      <path
         style="fill:none;stroke:#000000;stroke-width:0.1;stroke-linecap:round;stroke-linejoin:round;stroke-dasharray:none;stroke-opacity:1"
         d="m -52.134208,121.44036 c 0,0 -0.118841,-0.0215 -0.161263,-0.0601 -0.287182,-0.26142 -0.450673,-0.66458 -0.507372,-1.04879 -0.05197,-0.3521 0.167503,-1.05452 0.167503,-1.05452"
         id="path74574"
         sodipodi:nodetypes="caac" />
      <path
         style="fill:none;stroke:#000000;stroke-width:0.1;stroke-linecap:round;stroke-linejoin:round;stroke-dasharray:none;stroke-opacity:1"
         d="m -53.376861,119.67372 c 0,0 -0.17217,0.3403 -0.186445,0.52567 -0.02297,0.2981 0.09241,0.59174 0.166821,0.88132 0.02234,0.0869 0.01,0.20461 0.08366,0.25586 0.04889,0.0341 0.178501,-0.007 0.178501,-0.007"
         id="path74576"
         sodipodi:nodetypes="caaac" />
    </g>
  </g>
</svg>
