<?xml version="1.0" encoding="UTF-8" standalone="no"?>
<!-- Created with Inkscape (http://www.inkscape.org/) -->

<svg
   width="6.0604401mm"
   height="6.7161474mm"
   viewBox="0 0 6.0604401 6.7161474"
   version="1.1"
   id="svg5"
   inkscape:version="1.2.2 (b0a8486541, 2022-12-01)"
   sodipodi:docname="alpaca.svg"
   xmlns:inkscape="http://www.inkscape.org/namespaces/inkscape"
   xmlns:sodipodi="http://sodipodi.sourceforge.net/DTD/sodipodi-0.dtd"
   xmlns="http://www.w3.org/2000/svg"
   xmlns:svg="http://www.w3.org/2000/svg">
  <sodipodi:namedview
     id="namedview7"
     pagecolor="#ffffff"
     bordercolor="#666666"
     borderopacity="1.0"
     inkscape:pageshadow="2"
     inkscape:pageopacity="0"
     inkscape:pagecheckerboard="false"
     inkscape:document-units="mm"
     showgrid="false"
     inkscape:zoom="0.56569164"
     inkscape:cx="-31.819456"
     inkscape:cy="127.27782"
     inkscape:window-width="636"
     inkscape:window-height="1037"
     inkscape:window-x="1280"
     inkscape:window-y="0"
     inkscape:window-maximized="1"
     inkscape:current-layer="layer1"
     inkscape:showpageshadow="2"
     inkscape:deskcolor="#ffffff" />
  <defs
     id="defs2" />
  <g
     inkscape:label="Layer 1"
     inkscape:groupmode="layer"
     id="layer1"
     transform="translate(54.479038,-114.97421)">
    <path
       style="fill:none;stroke:#00ff00;stroke-width:0.500001;stroke-linecap:round;stroke-linejoin:round;stroke-dasharray:none;stroke-opacity:1"
       d="m -49.969209,119.04891 c 0,0 0.269375,-0.0551 0.357757,-0.14735 0.08145,-0.085 0.06453,-0.0984 0.121078,-0.20405 0.03166,-0.0593 0.177362,-0.11274 0.180415,-0.19411 0.0023,-0.0596 -0.05314,-0.21611 -0.04253,-0.26334 0.03269,-0.1456 0.128822,-0.20862 0.108651,-0.3589 -0.007,-0.0523 -0.0692,-0.087 -0.105155,-0.16238 -0.03118,-0.0654 0.07478,-0.18906 0.07058,-0.23394 -0.01,-0.1075 -0.08663,-0.12883 -0.106116,-0.27006"
       id="path74550"
       sodipodi:nodetypes="csssssssc" />
    <path
       style="fill:none;stroke:#00ff00;stroke-width:0.500001;stroke-linecap:round;stroke-linejoin:round;stroke-dasharray:none;stroke-opacity:1"
       d="m -49.370218,115.82307 c 0,0.0229 -0.04878,0.17577 -0.05298,0.26612 -0.0058,0.1248 0.09575,0.26168 0.03879,0.37292 -0.0656,0.12812 -0.230733,0.20898 -0.374541,0.21484 -0.128804,0.005 -0.275634,-0.0593 -0.349992,-0.16448 -0.06883,-0.0975 -0.0096,-0.23969 -0.03512,-0.35628 -0.01643,-0.075 -0.07516,-0.21783 -0.07516,-0.21783"
       id="path74552"
       sodipodi:nodetypes="caaaaac" />
    <path
       style="fill:none;stroke:#00ff00;stroke-width:0.500001;stroke-linecap:round;stroke-linejoin:round;stroke-dasharray:none;stroke-opacity:1"
       d="m -49.067776,115.38959 c 0,0 0.06705,-0.1463 0.135621,-0.16011 0.09671,-0.0194 0.263556,0.13459 0.263556,0.13459"
       id="path74554"
       sodipodi:nodetypes="cac" />
    <path
       style="fill:none;stroke:#00ff00;stroke-width:0.500001;stroke-linecap:round;stroke-linejoin:round;stroke-dasharray:none;stroke-opacity:1"
       d="m -50.563788,115.50488 c -0.0175,0 -0.145759,-0.15049 -0.237217,-0.14088 -0.101047,0.0105 -0.224148,0.20655 -0.224148,0.20655"
       id="path74556"
       sodipodi:nodetypes="cac" />
    <path
       style="fill:none;stroke:#00ff00;stroke-width:0.500001;stroke-linecap:round;stroke-linejoin:round;stroke-dasharray:none;stroke-opacity:1"
       d="m -49.64991,115.30758 c 0,0 -0.106798,-0.0402 -0.16149,-0.0341 -0.07118,0.007 -0.195443,0.0892 -0.195443,0.0892"
       id="path74558"
       sodipodi:nodetypes="cac" />
    <path
       style="fill:none;stroke:#00ff00;stroke-width:0.500001;stroke-linecap:round;stroke-linejoin:round;stroke-dasharray:none;stroke-opacity:1"
       d="m -50.096179,117.15284 c -0.04845,0.0926 -0.05911,0.2048 -0.02444,0.30396 0.02555,0.11344 -0.107375,0.15137 -0.191887,0.15014 -0.0685,0.0635 -0.129433,0.005 -0.146895,0.12638"
       id="path74560"
       sodipodi:nodetypes="cssc" />
    <path
       style="fill:none;stroke:#00ff00;stroke-width:0.500001;stroke-linecap:round;stroke-linejoin:round;stroke-dasharray:none;stroke-opacity:1"
       d="m -51.014169,117.71364 c 0,0 -0.177025,-0.0236 -0.26493,-0.014 -0.198268,0.0219 -0.378109,0.13949 -0.576475,0.16046 -0.2746,0.0288 -0.826734,-0.0514 -0.826734,-0.0514"
       id="path74562"
       sodipodi:nodetypes="caac" />
    <path
       style="fill:none;stroke:#00ff00;stroke-width:0.500001;stroke-linecap:round;stroke-linejoin:round;stroke-dasharray:none;stroke-opacity:1"
       d="m -53.290654,117.71196 c 0,0 -0.299021,-0.14997 -0.452427,-0.12113 -0.179251,0.0339 -0.363101,0.15941 -0.440705,0.32445 -0.08262,0.17579 -0.02388,0.39615 0.03338,0.58174 0.0312,0.1012 0.163588,0.27222 0.163588,0.27222"
       id="path74564"
       sodipodi:nodetypes="caaac" />
    <path
       style="fill:none;stroke:#00ff00;stroke-width:0.500001;stroke-linecap:round;stroke-linejoin:round;stroke-dasharray:none;stroke-opacity:1"
       d="m -53.385644,118.43263 c 0,0 0.01101,0.2578 0.0559,0.37645 0.03454,0.0912 0.15948,0.24544 0.15948,0.24544"
       id="path74566"
       sodipodi:nodetypes="cac" />
    <path
       style="fill:none;stroke:#00ff00;stroke-width:0.500001;stroke-linecap:round;stroke-linejoin:round;stroke-dasharray:none;stroke-opacity:1"
       d="m -51.214625,119.6293 c -0.110678,0.096 -0.219507,0.18808 -0.35344,0.19137 -0.111429,0.003 -0.19336,-0.11764 -0.301519,-0.14456 -0.08311,-0.0206 -0.25675,-0.0105 -0.25675,-0.0105"
       id="path74568"
       sodipodi:nodetypes="caac" />
    <path
       style="fill:none;stroke:#00ff00;stroke-width:0.500001;stroke-linecap:round;stroke-linejoin:round;stroke-dasharray:none;stroke-opacity:1"
       d="m -50.579661,119.26105 c 0,0 -0.146003,0.66935 -0.23231,1.00074 -0.05055,0.1941 -0.129905,0.38097 -0.167136,0.57807 -0.03365,0.17806 -0.1531,0.39235 -0.04996,0.54135 0.04174,0.0603 0.212145,0.0582 0.212145,0.0582"
       id="path74570"
       sodipodi:nodetypes="caaac" />
    <path
       style="fill:none;stroke:#00ff00;stroke-width:0.500001;stroke-linecap:round;stroke-linejoin:round;stroke-dasharray:none;stroke-opacity:1"
       d="m -49.971974,121.26855 c 0,0 -0.163081,0.0372 -0.208375,-0.0157 -0.239096,-0.2794 0.01189,-0.73993 0.08794,-1.0997 0.04008,-0.18951 0.192121,-0.54841 0.192121,-0.54841"
       id="path74572"
       sodipodi:nodetypes="caac" />
    <path
       style="fill:none;stroke:#00ff00;stroke-width:0.500001;stroke-linecap:round;stroke-linejoin:round;stroke-dasharray:none;stroke-opacity:1"
       d="m -52.134208,121.44036 c 0,0 -0.118841,-0.0215 -0.161263,-0.0601 -0.287182,-0.26142 -0.450673,-0.66458 -0.507372,-1.04879 -0.05197,-0.3521 0.167503,-1.05452 0.167503,-1.05452"
       id="path74574"
       sodipodi:nodetypes="caac" />
    <path
       style="fill:none;stroke:#00ff00;stroke-width:0.500001;stroke-linecap:round;stroke-linejoin:round;stroke-dasharray:none;stroke-opacity:1"
       d="m -53.376861,119.67372 c 0,0 -0.17217,0.3403 -0.186445,0.52567 -0.02297,0.2981 0.09241,0.59174 0.166821,0.88132 0.02234,0.0869 0.01,0.20461 0.08366,0.25586 0.04889,0.0341 0.178501,-0.007 0.178501,-0.007"
       id="path74576"
       sodipodi:nodetypes="caaac" />
  </g>
</svg>
