<?xml version="1.0" encoding="UTF-8" standalone="no"?>
<!-- Created with Inkscape (http://www.inkscape.org/) -->

<svg
   xml:space="preserve"
   sodipodi:docname="art_0.svg"
   inkscape:version="1.2.2 (b0a8486541, 2022-12-01)"
   id="svg5"
   version="1.1"
   viewBox="0 0 35.140999 40.499993"
   height="40.499992mm"
   width="35.140999mm"
   xmlns:inkscape="http://www.inkscape.org/namespaces/inkscape"
   xmlns:sodipodi="http://sodipodi.sourceforge.net/DTD/sodipodi-0.dtd"
   xmlns="http://www.w3.org/2000/svg"
   xmlns:svg="http://www.w3.org/2000/svg"
   xmlns:ns3="svglink"
   xmlns:ns4="svglink:origin"><sodipodi:namedview
     id="namedview7"
     pagecolor="#ffffff"
     bordercolor="#666666"
     borderopacity="1.0"
     inkscape:pageshadow="2"
     inkscape:pageopacity="0"
     inkscape:pagecheckerboard="false"
     inkscape:document-units="mm"
     showgrid="false"
     inkscape:zoom="4.0188477"
     inkscape:cx="83.357227"
     inkscape:cy="29.610478"
     inkscape:window-width="1916"
     inkscape:window-height="1037"
     inkscape:window-x="0"
     inkscape:window-y="0"
     inkscape:window-maximized="1"
     inkscape:current-layer="g146935"
     inkscape:showpageshadow="2"
     inkscape:deskcolor="#ffffff" /><defs
     id="defs2"><clipPath
       clipPathUnits="userSpaceOnUse"
       id="clipPath4244"><path
         d="m -89.348846,133.47717 17.321,10 17.32,-10 v -20 l -17.32,-10 -17.321,10 v 20"
         class="s1"
         id="path4246"
         style="fill:none;fill-opacity:1;stroke:#000000;stroke-width:0.0999998;stroke-linecap:round;stroke-linejoin:round;stroke-dasharray:none" /></clipPath></defs><g
     inkscape:label="Layer 1"
     inkscape:groupmode="layer"
     id="g146935"
     transform="translate(89.6073,-103.4271)"><g
       inkscape:label="svglink:../blueprint.svg"
       ns3:href="../blueprint.svg"
       ns4:x="-86.848892"
       ns4:y="97.621033"
       id="g112103"
       transform="translate(-7.5084,1.0561)"
       style="stroke-width:0.977948"><title
   transform="translate(-86.8489, 97.621)"
   id="title112097">Exported SVG</title>

<style
   transform="translate(-86.8489, 97.621)"
   id="style112099"><![CDATA[
polygon {
shape-rendering:crispEdges;
stroke-width:0.050000;
}
.s0 {
stroke:#000000;
stroke-width:0.036427;
stroke-linecap:round;
stroke-linejoin:round;
fill:none;
}
.s1 {
stroke:#000000;
stroke-width:0.036427;
stroke-linecap:round;
stroke-linejoin:round;
fill:none;
}
.s2 {
stroke:#19b219;
stroke-width:0.036427;
stroke-linecap:round;
stroke-linejoin:round;
fill:none;
}
.s3 {
stroke:#7f4c00;
stroke-width:0.036427;
stroke-linecap:round;
stroke-linejoin:round;
fill:none;
}
.s4 {
stroke:#00cc00;
stroke-width:0.036427;
stroke-linecap:round;
stroke-linejoin:round;
fill:none;
}
.s5 {
stroke:#000000;
stroke-width:0.024285;
stroke-linecap:round;
stroke-linejoin:round;
fill:none;
}
.s6 {
stroke:#ff19ff;
stroke-width:0.024285;
stroke-linecap:round;
stroke-linejoin:round;
fill:none;
}
.s7 {
stroke:#ff0000;
stroke-width:0.036427;
stroke-linecap:round;
stroke-linejoin:round;
fill:none;
}
.s8 {
stroke:#ffff00;
stroke-width:0.036427;
stroke-linecap:round;
stroke-linejoin:round;
fill:none;
}
.s9 {
stroke:#001919;
stroke-width:0.024285;
stroke-linecap:round;
stroke-linejoin:round;
fill:none;
}
.sa {
stroke:#006666;
stroke-width:0.024285;
stroke-linecap:round;
stroke-linejoin:round;
fill:none;
}
.sb {
stroke:#00ffff;
stroke-width:0.072854;
stroke-linecap:round;
stroke-linejoin:round;
fill:none;
}
.sc {
stroke:#ff0000;
stroke-width:0.194278;
stroke-linecap:round;
stroke-linejoin:round;
fill:none;
}
.sd {
stroke:#191919;
stroke-width:0.024285;
stroke-linecap:round;
stroke-linejoin:round;
fill:none;
}
.se {
stroke:#000000;
stroke-width:0.024285;
stroke-linecap:round;
stroke-linejoin:round;
stroke-dasharray:0.364,0.364;
fill:none;
}
.sf {
stroke:#000000;
stroke-width:0.072854;
stroke-linecap:round;
stroke-linejoin:round;
fill:none;
}
.s100 {
stroke:#ff0000;
stroke-width:0.500000;
stroke-linecap:round;
stroke-linejoin:round;
fill:none;
}
]]></style>
<path
   d="M 5,35 22.321,45 39.641,35 V 15 L 22.321,5 5,15 v 20"
   class="s100"
   transform="translate(-86.8489,97.621)"
   id="path112101"
   style="fill:none;stroke:#ff0000;stroke-width:0.5;stroke-linecap:round;stroke-linejoin:round" />

</g><g
       inkscape:label="svglink:mountains.svg"
       ns3:href="mountains.svg"
       ns4:x="-50.422482"
       ns4:y="100.63585"
       id="g146931"
       transform="translate(-37.2075,8.1591507)"><sodipodi:namedview
         id="namedview146876"
         pagecolor="#ffffff"
         bordercolor="#666666"
         borderopacity="1.0"
         inkscape:pageshadow="2"
         inkscape:pageopacity="0"
         inkscape:pagecheckerboard="false"
         inkscape:document-units="mm"
         showgrid="false"
         inkscape:zoom="4.0188477"
         inkscape:cx="58.598886"
         inkscape:cy="45.286613"
         inkscape:window-width="1920"
         inkscape:window-height="1080"
         inkscape:window-x="0"
         inkscape:window-y="0"
         inkscape:window-maximized="1"
         inkscape:current-layer="layer1"
         inkscape:showpageshadow="2"
         inkscape:deskcolor="#ffffff"
         transform="translate(-50.4225, 100.636)" /><defs
         id="defs146882"
         transform="translate(-50.4225, 100.636)"><clipPath
           clipPathUnits="userSpaceOnUse"
           id="clipPath146880"><path
             d="m -89.348846,133.47717 17.321,10 17.32,-10 v -20 l -17.32,-10 -17.321,10 v 20"
             class="s1"
             id="path146878"
             style="fill:none;fill-opacity:1;stroke:#000000;stroke-width:0.0999998;stroke-linecap:round;stroke-linejoin:round;stroke-dasharray:none" /></clipPath></defs><g
         inkscape:label="Layer 1"
         inkscape:groupmode="layer"
         id="layer1"
         transform="translate(37.2075,-8.15915)"><path
           style="fill:none;stroke:#00ff00;stroke-width:0.5;stroke-linecap:round;stroke-linejoin:round;stroke-dasharray:none"
           d="m -69.14931,115.64808 0.343664,-0.67749 0.402345,0.10855 0.679559,-0.82871 c 0.113395,0.32663 0.286594,0.57303 0.509615,0.76298 0.464266,0.39544 0.968804,0.60573 1.378021,0.66703"
           id="path146884"
           sodipodi:nodetypes="ccccsc" /><path
           style="fill:none;stroke:#00ff00;stroke-width:0.5;stroke-linecap:round;stroke-linejoin:round;stroke-dasharray:none"
           d="m -68.325434,114.03013 c -0.221069,-0.009 -0.04005,-0.20997 -0.179841,-0.53352 l -0.23723,0.0944 -1.050313,-1.25636 c -0.220027,0.51805 -0.546255,0.81465 -0.972915,1.15113 l -0.429956,-0.2305 -0.988241,1.52995"
           id="path146886"
           sodipodi:nodetypes="ccccccc" /><path
           style="fill:none;stroke:#00ff00;stroke-width:0.5;stroke-linecap:round;stroke-linejoin:round;stroke-dasharray:none"
           d="m -72.140696,113.30461 -0.220557,-0.13784 -0.206681,-0.77855 -1.143915,1.7493 -0.468,-0.20721 c -0.496344,1.28331 -1.220498,1.53532 -1.994954,1.98161"
           id="path146888"
           sodipodi:nodetypes="cccccc" /><path
           style="fill:none;stroke:#00ff00;stroke-width:0.5;stroke-linecap:round;stroke-linejoin:round;stroke-dasharray:none"
           d="m -82.556006,113.39649 c -0.329784,-0.61238 -0.960562,-0.30245 -1.401199,-0.92027 l -0.178673,1.11618 -0.510944,-0.17106 -0.768748,1.07902"
           id="path146890"
           sodipodi:nodetypes="ccccc" /><path
           style="fill:none;stroke:#00ff00;stroke-width:0.5;stroke-linecap:round;stroke-linejoin:round;stroke-dasharray:none"
           d="m -82.568937,112.21863 0.476711,-0.59496 c 2.110568,-0.22557 2.414974,-1.0753 2.924959,-2.57874 l 0.855676,0.75212"
           id="path146892"
           sodipodi:nodetypes="cccc" /><path
           style="fill:none;stroke:#00ff00;stroke-width:0.5;stroke-linecap:round;stroke-linejoin:round;stroke-dasharray:none"
           d="m -78.819787,111.11304 c 0.626024,-0.3698 1.271204,-0.72552 1.531085,-1.36456 l 0.623112,1.1423 0.140601,-0.13472 1.070003,1.29693 0.152344,-0.43109 c 0.448226,0.73783 0.749658,0.94535 1.225353,1.17652"
           id="path146894"
           sodipodi:nodetypes="ccccccc" /><path
           style="fill:none;stroke:#00ff00;stroke-width:0.5;stroke-linecap:round;stroke-linejoin:round;stroke-dasharray:none"
           d="m -82.380794,125.02973 -0.688592,-0.84002 -0.55572,0.66311 -0.854102,-1.15027 c -0.324326,0.86817 -0.978758,2.59657 -1.617429,1.76632 l -1.283344,2.06983"
           id="path146896"
           sodipodi:nodetypes="cccccc" /><path
           style="fill:none;stroke:#00ff00;stroke-width:0.5;stroke-linecap:round;stroke-linejoin:round;stroke-dasharray:none"
           d="m -83.499879,123.22689 0.845851,-1.21837 0.974701,1.28685 0.295391,-0.31694 0.696707,0.91262 0.259802,-0.3279 c 0.317545,0.44295 0.547245,1.24493 0.932275,0.65696 l 0.849901,1.1206"
           id="path146898"
           sodipodi:nodetypes="cccccccc" /><path
           style="fill:none;stroke:#00ff00;stroke-width:0.5;stroke-linecap:round;stroke-linejoin:round;stroke-dasharray:none"
           d="m -78.556894,124.14567 0.473147,-0.72963 0.293751,0.3908 0.777674,-1.34163 c 0.684582,0.86229 2.248917,-2.32839 2.765498,-3.05787 l 1.123823,1.51849 0.234586,-0.38446 1.285223,1.40348"
           id="path146900"
           sodipodi:nodetypes="cccccccc" /><path
           style="fill:none;stroke:#00ff00;stroke-width:0.5;stroke-linecap:round;stroke-linejoin:round;stroke-dasharray:none"
           d="m -72.760154,119.55778 c 0.509476,-0.67491 0.844516,-1.47125 1.275126,-2.12735 0.744648,1.33157 1.694007,2.54738 2.857448,3.64213 m 1.410098,0.28702 2.033462,2.75055 0.528688,-0.83302 c 0.665772,1.2169 1.096579,1.81247 1.792366,1.16041 l 1.940149,2.04232"
           id="path146902"
           sodipodi:nodetypes="cccccccc" /><path
           style="fill:none;stroke:#00ff00;stroke-width:0.5;stroke-linecap:round;stroke-linejoin:round;stroke-dasharray:none"
           d="m -62.138091,124.65591 0.527246,-0.68543 0.293291,0.31559 0.990348,-1.33488 m 0.312047,0.79751 c 0.408978,0.97009 0.991633,1.9962 1.563395,1.2523 l 1.488063,2.40204"
           id="path146904"
           sodipodi:nodetypes="ccccccc" /><path
           style="fill:none;stroke:#00ff00;stroke-width:0.5;stroke-linecap:round;stroke-linejoin:round;stroke-dasharray:none"
           d="m -57.27716,125.32302 0.658601,1.14369"
           id="path146906"
           sodipodi:nodetypes="cc" /><path
           style="fill:none;stroke:#00ff00;stroke-width:0.5;stroke-linecap:round;stroke-linejoin:round;stroke-dasharray:none"
           d="m -82.960405,125.53097 0.654765,0.91677"
           id="path146908" /><path
           style="fill:none;stroke:#00ff00;stroke-width:0.5;stroke-linecap:round;stroke-linejoin:round;stroke-dasharray:none"
           d="m -86.129746,127.3047 0.3524,-0.63055"
           id="path146910" /><path
           style="fill:none;stroke:#00ff00;stroke-width:0.5;stroke-linecap:round;stroke-linejoin:round;stroke-dasharray:none"
           d="m -68.696922,119.78877 c 0,0 0.436479,0.55181 0.744022,0.69568 0.178951,0.0837 0.588194,0.0729 0.588194,0.0729"
           id="path146912"
           sodipodi:nodetypes="cac" /><path
           style="fill:none;stroke:#00ff00;stroke-width:0.5;stroke-linecap:round;stroke-linejoin:round;stroke-dasharray:none"
           d="m -68.779015,136.47867 0.86862,-1.61915 c 0.53039,0.46542 1.19112,-1.01015 1.5218,-1.43243 l 0.53521,0.34536 1.5507,-2.64545 1.16578,1.16705"
           id="path146914" /><path
           style="fill:none;stroke:#00ff00;stroke-width:0.5;stroke-linecap:round;stroke-linejoin:round;stroke-dasharray:none"
           d="m -63.439699,131.11997 c 0.68241,-0.44125 1.253056,-1.35542 1.513372,-2.12827 l 1.284027,1.74704 m 0.679131,0.27008 0.589922,0.0378 1.4009,2.51158"
           id="path146916"
           sodipodi:nodetypes="cccccc" /><path
           style="fill:none;stroke:#00ff00;stroke-width:0.5;stroke-linecap:round;stroke-linejoin:round;stroke-dasharray:none"
           d="m -57.827579,132.36201 0.489799,-0.58896 0.9323,1.4374"
           id="path146918"
           sodipodi:nodetypes="ccc" /><path
           style="fill:none;stroke:#00ff00;stroke-width:0.5;stroke-linecap:round;stroke-linejoin:round;stroke-dasharray:none"
           d="m -77.548052,136.01527 0.445602,-1.08172 c 1.022337,0.31325 1.313339,-0.92234 1.559455,-2.20613 0.502019,0.53451 0.695641,0.85342 1.216047,0.55444 l 0.73999,0.83019"
           id="path146920" /><path
           style="fill:none;stroke:#00ff00;stroke-width:0.5;stroke-linecap:round;stroke-linejoin:round;stroke-dasharray:none"
           d="m -74.176219,132.3134 0.316895,0.3785 1.256744,-1.64872 m 0.423933,0.55674 c 0.345213,0.92111 0.959519,1.90496 1.265893,0.93909 l 0.910829,2.0268"
           id="path146922"
           sodipodi:nodetypes="cccccc" /><path
           style="fill:none;stroke:#00ff00;stroke-width:0.5;stroke-linecap:round;stroke-linejoin:round;stroke-dasharray:none"
           d="m -69.566926,133.60209 c 0.215805,0.57347 0.483779,0.95019 0.875046,1.18749"
           id="path146924"
           sodipodi:nodetypes="cc" /><path
           style="fill:none;stroke:#00ff00;stroke-width:0.5;stroke-linecap:round;stroke-linejoin:round;stroke-dasharray:none;stroke-opacity:1"
           d="m -60.453872,129.79079 c 0,0 0.224867,0.32116 0.392467,0.40776 0.164101,0.0848 0.547969,0.0824 0.547969,0.0824"
           id="path146926"
           sodipodi:nodetypes="cac" /><path
           style="fill:none;stroke:#00ff00;stroke-width:0.5;stroke-linecap:round;stroke-linejoin:round;stroke-dasharray:none;stroke-opacity:1"
           d="m -62.291865,131.45391 c 0,0 0.106044,-0.1375 0.150389,-0.2119 0.07325,-0.1229 0.189685,-0.38503 0.189685,-0.38503"
           id="path146928"
           sodipodi:nodetypes="cac" /></g></g></g></svg>
