<?xml version="1.0" encoding="UTF-8" standalone="no"?>
<!-- Created with Inkscape (http://www.inkscape.org/) -->

<svg
   xml:space="preserve"
   sodipodi:docname="art_2.svg"
   inkscape:version="1.3 (0e150ed6c4, 2023-07-21)"
   id="svg5"
   version="1.1"
   viewBox="0 0 31.677 36.433018"
   height="36.433018mm"
   width="31.677mm"
   xmlns:inkscape="http://www.inkscape.org/namespaces/inkscape"
   xmlns:sodipodi="http://sodipodi.sourceforge.net/DTD/sodipodi-0.dtd"
   xmlns="http://www.w3.org/2000/svg"
   xmlns:svg="http://www.w3.org/2000/svg"
   xmlns:ns3="svglink"
   xmlns:ns4="svglink:origin"><sodipodi:namedview
     id="namedview7"
     pagecolor="#ffffff"
     bordercolor="#666666"
     borderopacity="1.0"
     inkscape:pageshadow="2"
     inkscape:pageopacity="0"
     inkscape:pagecheckerboard="false"
     inkscape:document-units="mm"
     showgrid="false"
     inkscape:zoom="2.0984408"
     inkscape:cx="-35.026007"
     inkscape:cy="58.376678"
     inkscape:window-width="1916"
     inkscape:window-height="1037"
     inkscape:window-x="0"
     inkscape:window-y="0"
     inkscape:window-maximized="1"
     inkscape:current-layer="g146935"
     inkscape:showpageshadow="2"
     inkscape:deskcolor="#ffffff" /><defs
     id="defs2"><clipPath
       clipPathUnits="userSpaceOnUse"
       id="clipPath4244"><path
         d="m -89.348846,133.47717 17.321,10 17.32,-10 v -20 l -17.32,-10 -17.321,10 v 20"
         class="s1"
         id="path4246"
         style="fill:none;fill-opacity:1;stroke:#000000;stroke-width:0.0999998;stroke-linecap:round;stroke-linejoin:round;stroke-dasharray:none" /></clipPath><sodipodi:namedview
       id="namedview1"
       pagecolor="#ffffff"
       bordercolor="#666666"
       borderopacity="1.0"
       inkscape:pageshadow="2"
       inkscape:pageopacity="0"
       inkscape:pagecheckerboard="false"
       inkscape:document-units="mm"
       showgrid="false"
       inkscape:zoom="4.0188477"
       inkscape:cx="58.598886"
       inkscape:cy="45.286613"
       inkscape:window-width="1920"
       inkscape:window-height="1080"
       inkscape:window-x="0"
       inkscape:window-y="0"
       inkscape:window-maximized="1"
       inkscape:current-layer="layer1"
       inkscape:showpageshadow="2"
       inkscape:deskcolor="#ffffff"
       transform="translate(-84.7218, 106.596)" /><defs
       id="defs1"
       transform="translate(-84.7218, 106.596)"><clipPath
         clipPathUnits="userSpaceOnUse"
         id="clipPath1"><path
           d="m -89.348846,133.47717 17.321,10 17.32,-10 v -20 l -17.32,-10 -17.321,10 v 20"
           class="s1"
           id="path1"
           style="fill:none;fill-opacity:1;stroke:#000000;stroke-width:0.0999998;stroke-linecap:round;stroke-linejoin:round;stroke-dasharray:none" /></clipPath></defs></defs><g
     inkscape:label="Layer 1"
     inkscape:groupmode="layer"
     id="g146935"
     transform="translate(89.6073,-103.46059)"><g
       inkscape:label="svglink:crystal_1.svg"
       ns3:href="crystal_1.svg"
       ns4:x="-72.670967"
       ns4:y="118.86562"
       ns3:image-svg-dpi="200"
       ns3:image-height="7.8751907"
       ns3:image-width="8.5209856"
       id="g61"
       transform="translate(-2.6587359,-12.788861)"><sodipodi:namedview
   id="namedview2"
   pagecolor="#ffffff"
   bordercolor="#666666"
   borderopacity="1.0"
   inkscape:pageshadow="2"
   inkscape:pageopacity="0"
   inkscape:pagecheckerboard="false"
   inkscape:document-units="mm"
   showgrid="false"
   inkscape:zoom="3.6283816"
   inkscape:cx="22.875212"
   inkscape:cy="25.769064"
   inkscape:window-width="956"
   inkscape:window-height="1037"
   inkscape:window-x="960"
   inkscape:window-y="0"
   inkscape:window-maximized="1"
   inkscape:current-layer="layer1"
   inkscape:showpageshadow="2"
   inkscape:deskcolor="#d1d1d1"
   transform="translate(-72.671, 118.866)" />&#10;  <defs
   id="defs3"
   transform="translate(-72.671, 118.866)" />&#10;  <g
   inkscape:label="Layer 1"
   inkscape:groupmode="layer"
   id="g3"
   transform="translate(-9.73707,-42.5294)">&#10;    <path
   style="fill:none;stroke:#00ff00;stroke-width:0.5;stroke-linecap:round;stroke-linejoin:round;stroke-dasharray:none"
   d="m -61.508013,166.6052 -1.175924,-1.60661 0.944457,-0.2082 1.543555,1.01835"
   id="path10951"
   sodipodi:nodetypes="cccc" />&#10;    <path
   style="fill:none;stroke:#00ff00;stroke-width:0.5;stroke-linecap:round;stroke-linejoin:round;stroke-dasharray:none"
   d="m -61.885419,164.06565 -0.214482,-0.6453 0.410935,-0.96593 1.081651,0.74992 0.92736,2.07496"
   id="path11067" />&#10;    <path
   style="fill:none;stroke:#00ff00;stroke-width:0.5;stroke-linecap:round;stroke-linejoin:round;stroke-dasharray:none"
   d="m -59.640543,166.49002 -7.94e-4,-0.48024 0.577324,-0.3834 0.440946,0.46788 5.29e-4,0.32332"
   id="path11069"
   sodipodi:nodetypes="ccccc" />&#10;    <path
   style="fill:none;stroke:#00ff00;stroke-width:0.5;stroke-linecap:round;stroke-linejoin:round;stroke-dasharray:none"
   d="m -58.676439,167.61167 -0.08255,-0.48425 0.448493,-0.16831 0.472379,0.36481"
   id="path11071" />&#10;    <path
   style="fill:none;stroke:#00ff00;stroke-width:0.5;stroke-linecap:round;stroke-linejoin:round;stroke-dasharray:none"
   d="m -59.905207,163.20586 0.0865,-0.65744 0.632269,0.84345 0.07308,0.86937 -0.223016,0.29201"
   id="path11073"
   sodipodi:nodetypes="ccccc" />&#10;    <path
   style="fill:none;stroke:#00ff00;stroke-width:0.5;stroke-linecap:round;stroke-linejoin:round;stroke-dasharray:none"
   d="m -59.027784,162.69792 1.357683,-1.05267 0.712113,1.51315 -0.230397,0.88663"
   id="path11124" />&#10;    <path
   style="fill:none;stroke:#00ff00;stroke-width:0.5;stroke-linecap:round;stroke-linejoin:round;stroke-dasharray:none"
   d="m -58.197623,165.56079 0.303348,-0.33811 0.309108,-0.64237 0.482213,0.0382 0.270233,1.19229 -0.70743,0.93632"
   id="path11126"
   sodipodi:nodetypes="cccccc" />&#10;  </g>&#10;</g><g
       inkscape:label="svglink:crystal_0.svg"
       ns3:href="crystal_0.svg"
       ns4:x="-72.574448"
       ns4:y="118.63439"
       ns3:image-svg-dpi="200"
       ns3:image-height="8.337656"
       ns3:image-width="8.3279457"
       id="g79"
       transform="translate(-13.523092,7.9658526)"><sodipodi:namedview
   id="namedview4"
   pagecolor="#ffffff"
   bordercolor="#666666"
   borderopacity="1.0"
   inkscape:pageshadow="2"
   inkscape:pageopacity="0"
   inkscape:pagecheckerboard="false"
   inkscape:document-units="mm"
   showgrid="false"
   inkscape:zoom="4.2250095"
   inkscape:cx="16.804696"
   inkscape:cy="-6.9822328"
   inkscape:window-width="956"
   inkscape:window-height="1037"
   inkscape:window-x="960"
   inkscape:window-y="0"
   inkscape:window-maximized="1"
   inkscape:current-layer="layer1"
   inkscape:showpageshadow="2"
   inkscape:deskcolor="#d1d1d1"
   transform="translate(-72.5744, 118.634)" />&#10;  <defs
   id="defs5"
   transform="translate(-72.5744, 118.634)" />&#10;  <g
   inkscape:label="Layer 1"
   inkscape:groupmode="layer"
   id="g12"
   transform="translate(-12.7932,-44.9746)">&#10;    <path
   style="fill:none;stroke:#00ff00;stroke-width:0.5;stroke-linecap:round;stroke-linejoin:round;stroke-dasharray:none"
   d="m -58.355261,168.81854 -1.175924,-1.60661 0.944457,-0.2082 1.543555,1.01835"
   id="path5"
   sodipodi:nodetypes="cccc" />&#10;    <path
   style="fill:none;stroke:#00ff00;stroke-width:0.5;stroke-linecap:round;stroke-linejoin:round;stroke-dasharray:none"
   d="m -57.73196,169.22379 -0.610507,0.42876 0.610515,0.18279 0.645459,-0.12078 -0.07404,-0.23507"
   id="path6" />&#10;    <path
   style="fill:none;stroke:#00ff00;stroke-width:0.5;stroke-linecap:round;stroke-linejoin:round;stroke-dasharray:none"
   d="m -58.732667,166.27899 -0.214482,-0.6453 0.410935,-0.96593 1.081651,0.74992 0.92736,2.07496"
   id="path7" />&#10;    <path
   style="fill:none;stroke:#00ff00;stroke-width:0.5;stroke-linecap:round;stroke-linejoin:round;stroke-dasharray:none"
   d="m -56.182057,169.43235 -0.305734,-0.72899 -7.94e-4,-0.48024 0.577324,-0.3834 0.440946,0.46788 5.29e-4,0.32332"
   id="path8" />&#10;    <path
   style="fill:none;stroke:#00ff00;stroke-width:0.5;stroke-linecap:round;stroke-linejoin:round;stroke-dasharray:none"
   d="m -55.523687,169.82501 -0.08255,-0.48425 0.448493,-0.16831 0.472379,0.36481"
   id="path9" />&#10;    <path
   style="fill:none;stroke:#00ff00;stroke-width:0.5;stroke-linecap:round;stroke-linejoin:round;stroke-dasharray:none"
   d="m -56.752455,165.4192 0.0865,-0.65744 0.632269,0.84345 0.07308,0.86937 -0.223016,0.29201"
   id="path10"
   sodipodi:nodetypes="ccccc" />&#10;    <path
   style="fill:none;stroke:#00ff00;stroke-width:0.5;stroke-linecap:round;stroke-linejoin:round;stroke-dasharray:none"
   d="m -55.875032,164.91126 1.357683,-1.05267 0.712113,1.51315 -0.230397,0.88663"
   id="path11" />&#10;    <path
   style="fill:none;stroke:#00ff00;stroke-width:0.5;stroke-linecap:round;stroke-linejoin:round;stroke-dasharray:none"
   d="m -55.044871,167.77413 0.303348,-0.33811 0.309108,-0.64237 0.482213,0.0382 0.270233,1.19229 -0.70743,0.93632"
   id="path12"
   sodipodi:nodetypes="cccccc" />&#10;  </g>&#10;</g><g
       inkscape:label="svglink:alpaca.svg"
       ns3:href="alpaca.svg"
       ns4:x="-90.208061"
       ns4:y="100.06606"
       ns3:image-svg-dpi="200"
       ns3:image-height="7.488687"
       ns3:image-width="6.4144788"
       id="g105"
       transform="translate(5.8637355,13.638154)"><sodipodi:namedview
   id="namedview12"
   pagecolor="#ffffff"
   bordercolor="#666666"
   borderopacity="1.0"
   inkscape:pageshadow="2"
   inkscape:pageopacity="0"
   inkscape:pagecheckerboard="false"
   inkscape:document-units="mm"
   showgrid="false"
   inkscape:zoom="0.56569164"
   inkscape:cx="-31.819456"
   inkscape:cy="127.27782"
   inkscape:window-width="636"
   inkscape:window-height="1037"
   inkscape:window-x="1280"
   inkscape:window-y="0"
   inkscape:window-maximized="1"
   inkscape:current-layer="layer1"
   inkscape:showpageshadow="2"
   inkscape:deskcolor="#ffffff"
   transform="translate(-90.2081, 100.066)" />&#10;  <defs
   id="defs12"
   transform="translate(-90.2081, 100.066)" />&#10;  <g
   inkscape:label="Layer 1"
   inkscape:groupmode="layer"
   id="g13"
   transform="translate(-35.7291,-14.9079)">&#10;    <path
   style="fill:none;stroke:#00ff00;stroke-width:0.500001;stroke-linecap:round;stroke-linejoin:round;stroke-dasharray:none;stroke-opacity:1"
   d="m -49.969209,119.04891 c 0,0 0.269375,-0.0551 0.357757,-0.14735 0.08145,-0.085 0.06453,-0.0984 0.121078,-0.20405 0.03166,-0.0593 0.177362,-0.11274 0.180415,-0.19411 0.0023,-0.0596 -0.05314,-0.21611 -0.04253,-0.26334 0.03269,-0.1456 0.128822,-0.20862 0.108651,-0.3589 -0.007,-0.0523 -0.0692,-0.087 -0.105155,-0.16238 -0.03118,-0.0654 0.07478,-0.18906 0.07058,-0.23394 -0.01,-0.1075 -0.08663,-0.12883 -0.106116,-0.27006"
   id="path74550"
   sodipodi:nodetypes="csssssssc" />&#10;    <path
   style="fill:none;stroke:#00ff00;stroke-width:0.500001;stroke-linecap:round;stroke-linejoin:round;stroke-dasharray:none;stroke-opacity:1"
   d="m -49.370218,115.82307 c 0,0.0229 -0.04878,0.17577 -0.05298,0.26612 -0.0058,0.1248 0.09575,0.26168 0.03879,0.37292 -0.0656,0.12812 -0.230733,0.20898 -0.374541,0.21484 -0.128804,0.005 -0.275634,-0.0593 -0.349992,-0.16448 -0.06883,-0.0975 -0.0096,-0.23969 -0.03512,-0.35628 -0.01643,-0.075 -0.07516,-0.21783 -0.07516,-0.21783"
   id="path74552"
   sodipodi:nodetypes="caaaaac" />&#10;    <path
   style="fill:none;stroke:#00ff00;stroke-width:0.500001;stroke-linecap:round;stroke-linejoin:round;stroke-dasharray:none;stroke-opacity:1"
   d="m -49.067776,115.38959 c 0,0 0.06705,-0.1463 0.135621,-0.16011 0.09671,-0.0194 0.263556,0.13459 0.263556,0.13459"
   id="path74554"
   sodipodi:nodetypes="cac" />&#10;    <path
   style="fill:none;stroke:#00ff00;stroke-width:0.500001;stroke-linecap:round;stroke-linejoin:round;stroke-dasharray:none;stroke-opacity:1"
   d="m -50.563788,115.50488 c -0.0175,0 -0.145759,-0.15049 -0.237217,-0.14088 -0.101047,0.0105 -0.224148,0.20655 -0.224148,0.20655"
   id="path74556"
   sodipodi:nodetypes="cac" />&#10;    <path
   style="fill:none;stroke:#00ff00;stroke-width:0.500001;stroke-linecap:round;stroke-linejoin:round;stroke-dasharray:none;stroke-opacity:1"
   d="m -49.64991,115.30758 c 0,0 -0.106798,-0.0402 -0.16149,-0.0341 -0.07118,0.007 -0.195443,0.0892 -0.195443,0.0892"
   id="path74558"
   sodipodi:nodetypes="cac" />&#10;    <path
   style="fill:none;stroke:#00ff00;stroke-width:0.500001;stroke-linecap:round;stroke-linejoin:round;stroke-dasharray:none;stroke-opacity:1"
   d="m -50.096179,117.15284 c -0.04845,0.0926 -0.05911,0.2048 -0.02444,0.30396 0.02555,0.11344 -0.107375,0.15137 -0.191887,0.15014 -0.0685,0.0635 -0.129433,0.005 -0.146895,0.12638"
   id="path74560"
   sodipodi:nodetypes="cssc" />&#10;    <path
   style="fill:none;stroke:#00ff00;stroke-width:0.500001;stroke-linecap:round;stroke-linejoin:round;stroke-dasharray:none;stroke-opacity:1"
   d="m -51.014169,117.71364 c 0,0 -0.177025,-0.0236 -0.26493,-0.014 -0.198268,0.0219 -0.378109,0.13949 -0.576475,0.16046 -0.2746,0.0288 -0.826734,-0.0514 -0.826734,-0.0514"
   id="path74562"
   sodipodi:nodetypes="caac" />&#10;    <path
   style="fill:none;stroke:#00ff00;stroke-width:0.500001;stroke-linecap:round;stroke-linejoin:round;stroke-dasharray:none;stroke-opacity:1"
   d="m -53.290654,117.71196 c 0,0 -0.299021,-0.14997 -0.452427,-0.12113 -0.179251,0.0339 -0.363101,0.15941 -0.440705,0.32445 -0.08262,0.17579 -0.02388,0.39615 0.03338,0.58174 0.0312,0.1012 0.163588,0.27222 0.163588,0.27222"
   id="path74564"
   sodipodi:nodetypes="caaac" />&#10;    <path
   style="fill:none;stroke:#00ff00;stroke-width:0.500001;stroke-linecap:round;stroke-linejoin:round;stroke-dasharray:none;stroke-opacity:1"
   d="m -53.385644,118.43263 c 0,0 0.01101,0.2578 0.0559,0.37645 0.03454,0.0912 0.15948,0.24544 0.15948,0.24544"
   id="path74566"
   sodipodi:nodetypes="cac" />&#10;    <path
   style="fill:none;stroke:#00ff00;stroke-width:0.500001;stroke-linecap:round;stroke-linejoin:round;stroke-dasharray:none;stroke-opacity:1"
   d="m -51.214625,119.6293 c -0.110678,0.096 -0.219507,0.18808 -0.35344,0.19137 -0.111429,0.003 -0.19336,-0.11764 -0.301519,-0.14456 -0.08311,-0.0206 -0.25675,-0.0105 -0.25675,-0.0105"
   id="path74568"
   sodipodi:nodetypes="caac" />&#10;    <path
   style="fill:none;stroke:#00ff00;stroke-width:0.500001;stroke-linecap:round;stroke-linejoin:round;stroke-dasharray:none;stroke-opacity:1"
   d="m -50.579661,119.26105 c 0,0 -0.146003,0.66935 -0.23231,1.00074 -0.05055,0.1941 -0.129905,0.38097 -0.167136,0.57807 -0.03365,0.17806 -0.1531,0.39235 -0.04996,0.54135 0.04174,0.0603 0.212145,0.0582 0.212145,0.0582"
   id="path74570"
   sodipodi:nodetypes="caaac" />&#10;    <path
   style="fill:none;stroke:#00ff00;stroke-width:0.500001;stroke-linecap:round;stroke-linejoin:round;stroke-dasharray:none;stroke-opacity:1"
   d="m -49.971974,121.26855 c 0,0 -0.163081,0.0372 -0.208375,-0.0157 -0.239096,-0.2794 0.01189,-0.73993 0.08794,-1.0997 0.04008,-0.18951 0.192121,-0.54841 0.192121,-0.54841"
   id="path74572"
   sodipodi:nodetypes="caac" />&#10;    <path
   style="fill:none;stroke:#00ff00;stroke-width:0.500001;stroke-linecap:round;stroke-linejoin:round;stroke-dasharray:none;stroke-opacity:1"
   d="m -52.134208,121.44036 c 0,0 -0.118841,-0.0215 -0.161263,-0.0601 -0.287182,-0.26142 -0.450673,-0.66458 -0.507372,-1.04879 -0.05197,-0.3521 0.167503,-1.05452 0.167503,-1.05452"
   id="path74574"
   sodipodi:nodetypes="caac" />&#10;    <path
   style="fill:none;stroke:#00ff00;stroke-width:0.500001;stroke-linecap:round;stroke-linejoin:round;stroke-dasharray:none;stroke-opacity:1"
   d="m -53.376861,119.67372 c 0,0 -0.17217,0.3403 -0.186445,0.52567 -0.02297,0.2981 0.09241,0.59174 0.166821,0.88132 0.02234,0.0869 0.01,0.20461 0.08366,0.25586 0.04889,0.0341 0.178501,-0.007 0.178501,-0.007"
   id="path74576"
   sodipodi:nodetypes="caaac" />&#10;  </g>&#10;</g><g
       inkscape:label="svglink:alpaca.svg"
       ns3:href="alpaca.svg"
       ns4:x="-90.208061"
       ns4:y="100.06606"
       ns3:image-svg-dpi="200"
       ns3:image-height="7.488687"
       ns3:image-width="6.4144788"
       id="g28"
       transform="translate(13.986634,21.769006)"><sodipodi:namedview
   id="namedview14"
   pagecolor="#ffffff"
   bordercolor="#666666"
   borderopacity="1.0"
   inkscape:pageshadow="2"
   inkscape:pageopacity="0"
   inkscape:pagecheckerboard="false"
   inkscape:document-units="mm"
   showgrid="false"
   inkscape:zoom="0.56569164"
   inkscape:cx="-31.819456"
   inkscape:cy="127.27782"
   inkscape:window-width="636"
   inkscape:window-height="1037"
   inkscape:window-x="1280"
   inkscape:window-y="0"
   inkscape:window-maximized="1"
   inkscape:current-layer="layer1"
   inkscape:showpageshadow="2"
   inkscape:deskcolor="#ffffff"
   transform="translate(-90.2081, 100.066)" />&#10;  <defs
   id="defs14"
   transform="translate(-90.2081, 100.066)" />&#10;  <g
   inkscape:label="Layer 1"
   inkscape:groupmode="layer"
   id="g27"
   transform="translate(-35.7291,-14.9079)">&#10;    <path
   style="fill:none;stroke:#00ff00;stroke-width:0.500001;stroke-linecap:round;stroke-linejoin:round;stroke-dasharray:none;stroke-opacity:1"
   d="m -49.969209,119.04891 c 0,0 0.269375,-0.0551 0.357757,-0.14735 0.08145,-0.085 0.06453,-0.0984 0.121078,-0.20405 0.03166,-0.0593 0.177362,-0.11274 0.180415,-0.19411 0.0023,-0.0596 -0.05314,-0.21611 -0.04253,-0.26334 0.03269,-0.1456 0.128822,-0.20862 0.108651,-0.3589 -0.007,-0.0523 -0.0692,-0.087 -0.105155,-0.16238 -0.03118,-0.0654 0.07478,-0.18906 0.07058,-0.23394 -0.01,-0.1075 -0.08663,-0.12883 -0.106116,-0.27006"
   id="path14"
   sodipodi:nodetypes="csssssssc" />&#10;    <path
   style="fill:none;stroke:#00ff00;stroke-width:0.500001;stroke-linecap:round;stroke-linejoin:round;stroke-dasharray:none;stroke-opacity:1"
   d="m -49.370218,115.82307 c 0,0.0229 -0.04878,0.17577 -0.05298,0.26612 -0.0058,0.1248 0.09575,0.26168 0.03879,0.37292 -0.0656,0.12812 -0.230733,0.20898 -0.374541,0.21484 -0.128804,0.005 -0.275634,-0.0593 -0.349992,-0.16448 -0.06883,-0.0975 -0.0096,-0.23969 -0.03512,-0.35628 -0.01643,-0.075 -0.07516,-0.21783 -0.07516,-0.21783"
   id="path15"
   sodipodi:nodetypes="caaaaac" />&#10;    <path
   style="fill:none;stroke:#00ff00;stroke-width:0.500001;stroke-linecap:round;stroke-linejoin:round;stroke-dasharray:none;stroke-opacity:1"
   d="m -49.067776,115.38959 c 0,0 0.06705,-0.1463 0.135621,-0.16011 0.09671,-0.0194 0.263556,0.13459 0.263556,0.13459"
   id="path16"
   sodipodi:nodetypes="cac" />&#10;    <path
   style="fill:none;stroke:#00ff00;stroke-width:0.500001;stroke-linecap:round;stroke-linejoin:round;stroke-dasharray:none;stroke-opacity:1"
   d="m -50.563788,115.50488 c -0.0175,0 -0.145759,-0.15049 -0.237217,-0.14088 -0.101047,0.0105 -0.224148,0.20655 -0.224148,0.20655"
   id="path17"
   sodipodi:nodetypes="cac" />&#10;    <path
   style="fill:none;stroke:#00ff00;stroke-width:0.500001;stroke-linecap:round;stroke-linejoin:round;stroke-dasharray:none;stroke-opacity:1"
   d="m -49.64991,115.30758 c 0,0 -0.106798,-0.0402 -0.16149,-0.0341 -0.07118,0.007 -0.195443,0.0892 -0.195443,0.0892"
   id="path18"
   sodipodi:nodetypes="cac" />&#10;    <path
   style="fill:none;stroke:#00ff00;stroke-width:0.500001;stroke-linecap:round;stroke-linejoin:round;stroke-dasharray:none;stroke-opacity:1"
   d="m -50.096179,117.15284 c -0.04845,0.0926 -0.05911,0.2048 -0.02444,0.30396 0.02555,0.11344 -0.107375,0.15137 -0.191887,0.15014 -0.0685,0.0635 -0.129433,0.005 -0.146895,0.12638"
   id="path19"
   sodipodi:nodetypes="cssc" />&#10;    <path
   style="fill:none;stroke:#00ff00;stroke-width:0.500001;stroke-linecap:round;stroke-linejoin:round;stroke-dasharray:none;stroke-opacity:1"
   d="m -51.014169,117.71364 c 0,0 -0.177025,-0.0236 -0.26493,-0.014 -0.198268,0.0219 -0.378109,0.13949 -0.576475,0.16046 -0.2746,0.0288 -0.826734,-0.0514 -0.826734,-0.0514"
   id="path20"
   sodipodi:nodetypes="caac" />&#10;    <path
   style="fill:none;stroke:#00ff00;stroke-width:0.500001;stroke-linecap:round;stroke-linejoin:round;stroke-dasharray:none;stroke-opacity:1"
   d="m -53.290654,117.71196 c 0,0 -0.299021,-0.14997 -0.452427,-0.12113 -0.179251,0.0339 -0.363101,0.15941 -0.440705,0.32445 -0.08262,0.17579 -0.02388,0.39615 0.03338,0.58174 0.0312,0.1012 0.163588,0.27222 0.163588,0.27222"
   id="path21"
   sodipodi:nodetypes="caaac" />&#10;    <path
   style="fill:none;stroke:#00ff00;stroke-width:0.500001;stroke-linecap:round;stroke-linejoin:round;stroke-dasharray:none;stroke-opacity:1"
   d="m -53.385644,118.43263 c 0,0 0.01101,0.2578 0.0559,0.37645 0.03454,0.0912 0.15948,0.24544 0.15948,0.24544"
   id="path22"
   sodipodi:nodetypes="cac" />&#10;    <path
   style="fill:none;stroke:#00ff00;stroke-width:0.500001;stroke-linecap:round;stroke-linejoin:round;stroke-dasharray:none;stroke-opacity:1"
   d="m -51.214625,119.6293 c -0.110678,0.096 -0.219507,0.18808 -0.35344,0.19137 -0.111429,0.003 -0.19336,-0.11764 -0.301519,-0.14456 -0.08311,-0.0206 -0.25675,-0.0105 -0.25675,-0.0105"
   id="path23"
   sodipodi:nodetypes="caac" />&#10;    <path
   style="fill:none;stroke:#00ff00;stroke-width:0.500001;stroke-linecap:round;stroke-linejoin:round;stroke-dasharray:none;stroke-opacity:1"
   d="m -50.579661,119.26105 c 0,0 -0.146003,0.66935 -0.23231,1.00074 -0.05055,0.1941 -0.129905,0.38097 -0.167136,0.57807 -0.03365,0.17806 -0.1531,0.39235 -0.04996,0.54135 0.04174,0.0603 0.212145,0.0582 0.212145,0.0582"
   id="path24"
   sodipodi:nodetypes="caaac" />&#10;    <path
   style="fill:none;stroke:#00ff00;stroke-width:0.500001;stroke-linecap:round;stroke-linejoin:round;stroke-dasharray:none;stroke-opacity:1"
   d="m -49.971974,121.26855 c 0,0 -0.163081,0.0372 -0.208375,-0.0157 -0.239096,-0.2794 0.01189,-0.73993 0.08794,-1.0997 0.04008,-0.18951 0.192121,-0.54841 0.192121,-0.54841"
   id="path25"
   sodipodi:nodetypes="caac" />&#10;    <path
   style="fill:none;stroke:#00ff00;stroke-width:0.500001;stroke-linecap:round;stroke-linejoin:round;stroke-dasharray:none;stroke-opacity:1"
   d="m -52.134208,121.44036 c 0,0 -0.118841,-0.0215 -0.161263,-0.0601 -0.287182,-0.26142 -0.450673,-0.66458 -0.507372,-1.04879 -0.05197,-0.3521 0.167503,-1.05452 0.167503,-1.05452"
   id="path26"
   sodipodi:nodetypes="caac" />&#10;    <path
   style="fill:none;stroke:#00ff00;stroke-width:0.500001;stroke-linecap:round;stroke-linejoin:round;stroke-dasharray:none;stroke-opacity:1"
   d="m -53.376861,119.67372 c 0,0 -0.17217,0.3403 -0.186445,0.52567 -0.02297,0.2981 0.09241,0.59174 0.166821,0.88132 0.02234,0.0869 0.01,0.20461 0.08366,0.25586 0.04889,0.0341 0.178501,-0.007 0.178501,-0.007"
   id="path27"
   sodipodi:nodetypes="caaac" />&#10;  </g>&#10;</g><g
       inkscape:label="svglink:alpaca.svg"
       ns3:href="alpaca.svg"
       ns4:x="-90.208061"
       ns4:y="100.06606"
       ns3:image-svg-dpi="200"
       ns3:image-height="7.488687"
       ns3:image-width="6.4144788"
       id="g42"
       transform="translate(23.274474,14.338582)"><sodipodi:namedview
   id="namedview28"
   pagecolor="#ffffff"
   bordercolor="#666666"
   borderopacity="1.0"
   inkscape:pageshadow="2"
   inkscape:pageopacity="0"
   inkscape:pagecheckerboard="false"
   inkscape:document-units="mm"
   showgrid="false"
   inkscape:zoom="0.56569164"
   inkscape:cx="-31.819456"
   inkscape:cy="127.27782"
   inkscape:window-width="636"
   inkscape:window-height="1037"
   inkscape:window-x="1280"
   inkscape:window-y="0"
   inkscape:window-maximized="1"
   inkscape:current-layer="layer1"
   inkscape:showpageshadow="2"
   inkscape:deskcolor="#ffffff"
   transform="translate(-90.2081, 100.066)" />&#10;  <defs
   id="defs28"
   transform="translate(-90.2081, 100.066)" />&#10;  <g
   inkscape:label="Layer 1"
   inkscape:groupmode="layer"
   id="g41"
   transform="translate(-35.7291,-14.9079)">&#10;    <path
   style="fill:none;stroke:#00ff00;stroke-width:0.500001;stroke-linecap:round;stroke-linejoin:round;stroke-dasharray:none;stroke-opacity:1"
   d="m -49.969209,119.04891 c 0,0 0.269375,-0.0551 0.357757,-0.14735 0.08145,-0.085 0.06453,-0.0984 0.121078,-0.20405 0.03166,-0.0593 0.177362,-0.11274 0.180415,-0.19411 0.0023,-0.0596 -0.05314,-0.21611 -0.04253,-0.26334 0.03269,-0.1456 0.128822,-0.20862 0.108651,-0.3589 -0.007,-0.0523 -0.0692,-0.087 -0.105155,-0.16238 -0.03118,-0.0654 0.07478,-0.18906 0.07058,-0.23394 -0.01,-0.1075 -0.08663,-0.12883 -0.106116,-0.27006"
   id="path28"
   sodipodi:nodetypes="csssssssc" />&#10;    <path
   style="fill:none;stroke:#00ff00;stroke-width:0.500001;stroke-linecap:round;stroke-linejoin:round;stroke-dasharray:none;stroke-opacity:1"
   d="m -49.370218,115.82307 c 0,0.0229 -0.04878,0.17577 -0.05298,0.26612 -0.0058,0.1248 0.09575,0.26168 0.03879,0.37292 -0.0656,0.12812 -0.230733,0.20898 -0.374541,0.21484 -0.128804,0.005 -0.275634,-0.0593 -0.349992,-0.16448 -0.06883,-0.0975 -0.0096,-0.23969 -0.03512,-0.35628 -0.01643,-0.075 -0.07516,-0.21783 -0.07516,-0.21783"
   id="path29"
   sodipodi:nodetypes="caaaaac" />&#10;    <path
   style="fill:none;stroke:#00ff00;stroke-width:0.500001;stroke-linecap:round;stroke-linejoin:round;stroke-dasharray:none;stroke-opacity:1"
   d="m -49.067776,115.38959 c 0,0 0.06705,-0.1463 0.135621,-0.16011 0.09671,-0.0194 0.263556,0.13459 0.263556,0.13459"
   id="path30"
   sodipodi:nodetypes="cac" />&#10;    <path
   style="fill:none;stroke:#00ff00;stroke-width:0.500001;stroke-linecap:round;stroke-linejoin:round;stroke-dasharray:none;stroke-opacity:1"
   d="m -50.563788,115.50488 c -0.0175,0 -0.145759,-0.15049 -0.237217,-0.14088 -0.101047,0.0105 -0.224148,0.20655 -0.224148,0.20655"
   id="path31"
   sodipodi:nodetypes="cac" />&#10;    <path
   style="fill:none;stroke:#00ff00;stroke-width:0.500001;stroke-linecap:round;stroke-linejoin:round;stroke-dasharray:none;stroke-opacity:1"
   d="m -49.64991,115.30758 c 0,0 -0.106798,-0.0402 -0.16149,-0.0341 -0.07118,0.007 -0.195443,0.0892 -0.195443,0.0892"
   id="path32"
   sodipodi:nodetypes="cac" />&#10;    <path
   style="fill:none;stroke:#00ff00;stroke-width:0.500001;stroke-linecap:round;stroke-linejoin:round;stroke-dasharray:none;stroke-opacity:1"
   d="m -50.096179,117.15284 c -0.04845,0.0926 -0.05911,0.2048 -0.02444,0.30396 0.02555,0.11344 -0.107375,0.15137 -0.191887,0.15014 -0.0685,0.0635 -0.129433,0.005 -0.146895,0.12638"
   id="path33"
   sodipodi:nodetypes="cssc" />&#10;    <path
   style="fill:none;stroke:#00ff00;stroke-width:0.500001;stroke-linecap:round;stroke-linejoin:round;stroke-dasharray:none;stroke-opacity:1"
   d="m -51.014169,117.71364 c 0,0 -0.177025,-0.0236 -0.26493,-0.014 -0.198268,0.0219 -0.378109,0.13949 -0.576475,0.16046 -0.2746,0.0288 -0.826734,-0.0514 -0.826734,-0.0514"
   id="path34"
   sodipodi:nodetypes="caac" />&#10;    <path
   style="fill:none;stroke:#00ff00;stroke-width:0.500001;stroke-linecap:round;stroke-linejoin:round;stroke-dasharray:none;stroke-opacity:1"
   d="m -53.290654,117.71196 c 0,0 -0.299021,-0.14997 -0.452427,-0.12113 -0.179251,0.0339 -0.363101,0.15941 -0.440705,0.32445 -0.08262,0.17579 -0.02388,0.39615 0.03338,0.58174 0.0312,0.1012 0.163588,0.27222 0.163588,0.27222"
   id="path35"
   sodipodi:nodetypes="caaac" />&#10;    <path
   style="fill:none;stroke:#00ff00;stroke-width:0.500001;stroke-linecap:round;stroke-linejoin:round;stroke-dasharray:none;stroke-opacity:1"
   d="m -53.385644,118.43263 c 0,0 0.01101,0.2578 0.0559,0.37645 0.03454,0.0912 0.15948,0.24544 0.15948,0.24544"
   id="path36"
   sodipodi:nodetypes="cac" />&#10;    <path
   style="fill:none;stroke:#00ff00;stroke-width:0.500001;stroke-linecap:round;stroke-linejoin:round;stroke-dasharray:none;stroke-opacity:1"
   d="m -51.214625,119.6293 c -0.110678,0.096 -0.219507,0.18808 -0.35344,0.19137 -0.111429,0.003 -0.19336,-0.11764 -0.301519,-0.14456 -0.08311,-0.0206 -0.25675,-0.0105 -0.25675,-0.0105"
   id="path37"
   sodipodi:nodetypes="caac" />&#10;    <path
   style="fill:none;stroke:#00ff00;stroke-width:0.500001;stroke-linecap:round;stroke-linejoin:round;stroke-dasharray:none;stroke-opacity:1"
   d="m -50.579661,119.26105 c 0,0 -0.146003,0.66935 -0.23231,1.00074 -0.05055,0.1941 -0.129905,0.38097 -0.167136,0.57807 -0.03365,0.17806 -0.1531,0.39235 -0.04996,0.54135 0.04174,0.0603 0.212145,0.0582 0.212145,0.0582"
   id="path38"
   sodipodi:nodetypes="caaac" />&#10;    <path
   style="fill:none;stroke:#00ff00;stroke-width:0.500001;stroke-linecap:round;stroke-linejoin:round;stroke-dasharray:none;stroke-opacity:1"
   d="m -49.971974,121.26855 c 0,0 -0.163081,0.0372 -0.208375,-0.0157 -0.239096,-0.2794 0.01189,-0.73993 0.08794,-1.0997 0.04008,-0.18951 0.192121,-0.54841 0.192121,-0.54841"
   id="path39"
   sodipodi:nodetypes="caac" />&#10;    <path
   style="fill:none;stroke:#00ff00;stroke-width:0.500001;stroke-linecap:round;stroke-linejoin:round;stroke-dasharray:none;stroke-opacity:1"
   d="m -52.134208,121.44036 c 0,0 -0.118841,-0.0215 -0.161263,-0.0601 -0.287182,-0.26142 -0.450673,-0.66458 -0.507372,-1.04879 -0.05197,-0.3521 0.167503,-1.05452 0.167503,-1.05452"
   id="path40"
   sodipodi:nodetypes="caac" />&#10;    <path
   style="fill:none;stroke:#00ff00;stroke-width:0.500001;stroke-linecap:round;stroke-linejoin:round;stroke-dasharray:none;stroke-opacity:1"
   d="m -53.376861,119.67372 c 0,0 -0.17217,0.3403 -0.186445,0.52567 -0.02297,0.2981 0.09241,0.59174 0.166821,0.88132 0.02234,0.0869 0.01,0.20461 0.08366,0.25586 0.04889,0.0341 0.178501,-0.007 0.178501,-0.007"
   id="path41"
   sodipodi:nodetypes="caaac" />&#10;  </g>&#10;</g><g
       inkscape:label="svglink:../blueprint_small.svg"
       ns3:href="../blueprint_small.svg"
       ns4:x="-85.853928"
       ns4:y="102.90191"
       ns3:image-svg-dpi="200"
       ns3:image-height="49.999901"
       ns3:image-width="44.641029"
       id="g1"
       transform="translate(-8.5034,-4.2249)"><title
   transform="translate(-85.8539, 102.902)"
   id="title1">Exported SVG</title>&#10;&#10;<style
   transform="translate(-85.8539, 102.902)"
   id="style1"><![CDATA[
polygon {
shape-rendering:crispEdges;
stroke-width:0.046000;
}
.s0 {
stroke:#000000;
stroke-width:0.058940;
stroke-linecap:round;
stroke-linejoin:round;
fill:none;
}
.s1 {
stroke:#000000;
stroke-width:0.058940;
stroke-linecap:round;
stroke-linejoin:round;
fill:none;
}
.s2 {
stroke:#19b219;
stroke-width:0.058940;
stroke-linecap:round;
stroke-linejoin:round;
fill:none;
}
.s3 {
stroke:#7f4c00;
stroke-width:0.058940;
stroke-linecap:round;
stroke-linejoin:round;
fill:none;
}
.s4 {
stroke:#00cc00;
stroke-width:0.058940;
stroke-linecap:round;
stroke-linejoin:round;
fill:none;
}
.s5 {
stroke:#000000;
stroke-width:0.039293;
stroke-linecap:round;
stroke-linejoin:round;
fill:none;
}
.s6 {
stroke:#ff19ff;
stroke-width:0.039293;
stroke-linecap:round;
stroke-linejoin:round;
fill:none;
}
.s7 {
stroke:#ff0000;
stroke-width:0.058940;
stroke-linecap:round;
stroke-linejoin:round;
fill:none;
}
.s8 {
stroke:#ffff00;
stroke-width:0.058940;
stroke-linecap:round;
stroke-linejoin:round;
fill:none;
}
.s9 {
stroke:#001919;
stroke-width:0.039293;
stroke-linecap:round;
stroke-linejoin:round;
fill:none;
}
.sa {
stroke:#006666;
stroke-width:0.039293;
stroke-linecap:round;
stroke-linejoin:round;
fill:none;
}
.sb {
stroke:#00ffff;
stroke-width:0.117880;
stroke-linecap:round;
stroke-linejoin:round;
fill:none;
}
.sc {
stroke:#ff0000;
stroke-width:0.314346;
stroke-linecap:round;
stroke-linejoin:round;
fill:none;
}
.sd {
stroke:#191919;
stroke-width:0.039293;
stroke-linecap:round;
stroke-linejoin:round;
fill:none;
}
.se {
stroke:#000000;
stroke-width:0.039293;
stroke-linecap:round;
stroke-linejoin:round;
stroke-dasharray:0.589,0.589;
fill:none;
}
.sf {
stroke:#000000;
stroke-width:0.117880;
stroke-linecap:round;
stroke-linejoin:round;
fill:none;
}
.s100 {
stroke:#ff0000;
stroke-width:0.500000;
stroke-linecap:round;
stroke-linejoin:round;
fill:none;
}
]]></style>&#10;<path
   d="m 5,32 15.588,9 15.589,-9 V 14 L 20.588,5 5,14 v 18"
   class="s100"
   transform="translate(-85.8539,102.902)"
   id="path2" />&#10;&#10;</g><g
       id="g2"
       inkscape:label="mountains"
       transform="translate(-32.857207,14.551788)"><path
         style="fill:none;stroke:#00ff00;stroke-width:0.5;stroke-linecap:round;stroke-linejoin:round;stroke-dasharray:none"
         d="m -35.955464,101.01981 0.343664,-0.67749 0.402345,0.10855 0.679559,-0.828707 c 0.113395,0.32663 0.286594,0.573027 0.509615,0.762977 0.464266,0.39544 0.968804,0.60573 1.378021,0.66703"
         id="path56378-7"
         sodipodi:nodetypes="ccccsc" /><path
         style="fill:none;stroke:#00ff00;stroke-width:0.5;stroke-linecap:round;stroke-linejoin:round;stroke-dasharray:none"
         d="m -35.131588,99.401863 c -0.221069,-0.009 -0.04005,-0.20997 -0.179841,-0.53352 l -0.23723,0.0944 -1.050313,-1.25636 c -0.220027,0.51805 -0.546255,0.81465 -0.972915,1.15113 l -0.429956,-0.2305 -0.988241,1.529947"
         id="path56376-0"
         sodipodi:nodetypes="ccccccc" /><path
         style="fill:none;stroke:#00ff00;stroke-width:0.5;stroke-linecap:round;stroke-linejoin:round;stroke-dasharray:none"
         d="m -38.94685,98.676343 -0.220557,-0.13784 -0.206681,-0.77855 -1.143915,1.7493 -0.468,-0.20721 c -0.496344,1.283307 -1.220498,1.535317 -1.994954,1.981607"
         id="path56374-9"
         sodipodi:nodetypes="cccccc" /><path
         style="fill:none;stroke:#00ff00;stroke-width:0.5;stroke-linecap:round;stroke-linejoin:round;stroke-dasharray:none"
         d="m -49.36216,98.768223 c -0.329784,-0.61238 -0.960562,-0.30245 -1.401199,-0.92027 l -0.178673,1.11618 -0.510944,-0.17106 -0.768748,1.07902"
         id="path56372-6"
         sodipodi:nodetypes="ccccc" /><path
         style="fill:none;stroke:#00ff00;stroke-width:0.5;stroke-linecap:round;stroke-linejoin:round;stroke-dasharray:none"
         d="m -49.375091,97.590363 0.476711,-0.59496 c 2.110568,-0.22557 2.414974,-1.0753 2.924959,-2.57874 l 0.855676,0.75212"
         id="path56370-0"
         sodipodi:nodetypes="cccc" /><path
         style="fill:none;stroke:#00ff00;stroke-width:0.5;stroke-linecap:round;stroke-linejoin:round;stroke-dasharray:none"
         d="m -45.625941,96.484773 c 0.626024,-0.3698 1.271204,-0.72552 1.531085,-1.36456 l 0.623112,1.1423 0.140601,-0.13472 1.070003,1.29693 0.152344,-0.43109 c 0.448226,0.73783 0.749658,0.94535 1.225353,1.17652"
         id="path56353-6"
         sodipodi:nodetypes="ccccccc" /><path
         style="fill:none;stroke:#00ff00;stroke-width:0.5;stroke-linecap:round;stroke-linejoin:round;stroke-dasharray:none"
         d="m -51.285196,109.21576 -0.688592,-0.84002 -0.55572,0.66311 -0.854102,-1.15027 c -0.324326,0.86817 -0.978758,2.59657 -1.617429,1.76632 l -1.283344,2.06983"
         id="path56392-7"
         sodipodi:nodetypes="cccccc" /><path
         style="fill:none;stroke:#00ff00;stroke-width:0.5;stroke-linecap:round;stroke-linejoin:round;stroke-dasharray:none"
         d="m -52.404281,107.41292 0.845851,-1.21837 0.974701,1.28685 0.295391,-0.31694 0.696707,0.91262 0.259802,-0.3279 c 0.317545,0.44295 0.547245,1.24493 0.932275,0.65696 l 0.849901,1.1206"
         id="path56390-5"
         sodipodi:nodetypes="cccccccc" /><path
         style="fill:none;stroke:#00ff00;stroke-width:0.5;stroke-linecap:round;stroke-linejoin:round;stroke-dasharray:none"
         d="m -47.461296,108.3317 0.473147,-0.72963 0.293751,0.3908 0.777674,-1.34163 c 0.684582,0.86229 2.248917,-2.32839 2.765498,-3.05787 l 1.123823,1.51849 0.234586,-0.38446 1.285223,1.40348"
         id="path56388-5-1"
         sodipodi:nodetypes="cccccccc" /><path
         style="fill:none;stroke:#00ff00;stroke-width:0.5;stroke-linecap:round;stroke-linejoin:round;stroke-dasharray:none"
         d="m -41.664556,103.74381 c 0.509476,-0.67491 0.844516,-1.47125 1.275126,-2.12735 0.744648,1.33157 1.694007,2.54738 2.857448,3.64213 m 1.410098,0.28702 2.033462,2.75055 0.528688,-0.83302 c 0.665772,1.2169 1.096579,1.81247 1.792366,1.16041 l 1.940149,2.04232"
         id="path56386-6"
         sodipodi:nodetypes="cccccccc" /><path
         style="fill:none;stroke:#00ff00;stroke-width:0.5;stroke-linecap:round;stroke-linejoin:round;stroke-dasharray:none"
         d="m -31.042493,108.84194 0.527246,-0.68543 0.293291,0.31559 0.990348,-1.33488 m 0.312047,0.79751 c 0.408978,0.97009 0.991633,1.9962 1.563395,1.2523 l 1.488063,2.40204"
         id="path56650-9"
         sodipodi:nodetypes="ccccccc" /><path
         style="fill:none;stroke:#00ff00;stroke-width:0.5;stroke-linecap:round;stroke-linejoin:round;stroke-dasharray:none"
         d="m -26.181562,109.50905 0.658601,1.14369"
         id="path12285"
         sodipodi:nodetypes="cc" /><path
         style="fill:none;stroke:#00ff00;stroke-width:0.5;stroke-linecap:round;stroke-linejoin:round;stroke-dasharray:none"
         d="m -51.864807,109.717 0.654765,0.91677"
         id="path12951" /><path
         style="fill:none;stroke:#00ff00;stroke-width:0.5;stroke-linecap:round;stroke-linejoin:round;stroke-dasharray:none"
         d="m -55.034148,111.49073 0.3524,-0.63055"
         id="path12957" /><path
         style="fill:none;stroke:#00ff00;stroke-width:0.5;stroke-linecap:round;stroke-linejoin:round;stroke-dasharray:none"
         d="m -37.601324,103.9748 c 0,0 0.436479,0.55181 0.744022,0.69568 0.178951,0.0837 0.588194,0.0729 0.588194,0.0729"
         id="path13614"
         sodipodi:nodetypes="cac" /><path
         style="fill:none;stroke:#00ff00;stroke-width:0.5;stroke-linecap:round;stroke-linejoin:round;stroke-dasharray:none"
         d="m -39.006733,119.94289 0.86862,-1.61915 c 0.53039,0.46542 1.19112,-1.01015 1.5218,-1.43243 l 0.53521,0.34536 1.5507,-2.64545 1.16578,1.16705"
         id="path56398" /><path
         style="fill:none;stroke:#00ff00;stroke-width:0.5;stroke-linecap:round;stroke-linejoin:round;stroke-dasharray:none"
         d="m -33.667417,114.58419 c 0.68241,-0.44125 1.253056,-1.35542 1.513372,-2.12827 l 1.284027,1.74704 m 0.679131,0.27008 0.589922,0.0378 1.4009,2.51158"
         id="path56396"
         sodipodi:nodetypes="cccccc" /><path
         style="fill:none;stroke:#00ff00;stroke-width:0.5;stroke-linecap:round;stroke-linejoin:round;stroke-dasharray:none"
         d="m -28.055297,115.82623 0.489799,-0.58896 0.9323,1.4374"
         id="path56394"
         sodipodi:nodetypes="ccc" /><path
         style="fill:none;stroke:#00ff00;stroke-width:0.5;stroke-linecap:round;stroke-linejoin:round;stroke-dasharray:none"
         d="m -47.77577,119.47949 0.445602,-1.08172 c 1.022337,0.31325 1.313339,-0.92234 1.559455,-2.20613 0.502019,0.53451 0.695641,0.85342 1.216047,0.55444 l 0.73999,0.83019"
         id="path56384" /><path
         style="fill:none;stroke:#00ff00;stroke-width:0.5;stroke-linecap:round;stroke-linejoin:round;stroke-dasharray:none"
         d="m -44.403937,115.77762 0.316895,0.3785 1.256744,-1.64872 m 0.423933,0.55674 c 0.345213,0.92111 0.959519,1.90496 1.265893,0.93909 l 0.910829,2.0268"
         id="path56382"
         sodipodi:nodetypes="cccccc" /><path
         style="fill:none;stroke:#00ff00;stroke-width:0.5;stroke-linecap:round;stroke-linejoin:round;stroke-dasharray:none"
         d="m -39.794644,117.06631 c 0.215805,0.57347 0.483779,0.95019 0.875046,1.18749"
         id="path56380"
         sodipodi:nodetypes="cc" /><path
         style="fill:none;stroke:#00ff00;stroke-width:0.5;stroke-linecap:round;stroke-linejoin:round;stroke-dasharray:none;stroke-opacity:1"
         d="m -30.68159,113.25501 c 0,0 0.224867,0.32116 0.392467,0.40776 0.164101,0.0848 0.547969,0.0824 0.547969,0.0824"
         id="path16469"
         sodipodi:nodetypes="cac" /><path
         style="fill:none;stroke:#00ff00;stroke-width:0.5;stroke-linecap:round;stroke-linejoin:round;stroke-dasharray:none;stroke-opacity:1"
         d="m -32.519583,114.91813 c 0,0 0.106044,-0.1375 0.150389,-0.2119 0.07325,-0.1229 0.189685,-0.38503 0.189685,-0.38503"
         id="path16744"
         sodipodi:nodetypes="cac" /></g></g></svg>
