<?xml version="1.0" encoding="UTF-8" standalone="no"?>
<!-- Created with Inkscape (http://www.inkscape.org/) -->

<svg
   xml:space="preserve"
   sodipodi:docname="art_3_color.svg"
   inkscape:version="1.3 (0e150ed6c4, 2023-07-21)"
   id="svg5"
   version="1.1"
   viewBox="0 0 35.140999 40.499993"
   height="40.499992mm"
   width="35.140999mm"
   xmlns:inkscape="http://www.inkscape.org/namespaces/inkscape"
   xmlns:sodipodi="http://sodipodi.sourceforge.net/DTD/sodipodi-0.dtd"
   xmlns="http://www.w3.org/2000/svg"
   xmlns:svg="http://www.w3.org/2000/svg"
   xmlns:ns3="svglink"
   xmlns:ns4="svglink:origin"><sodipodi:namedview
     id="namedview7"
     pagecolor="#ffffff"
     bordercolor="#666666"
     borderopacity="1.0"
     inkscape:pageshadow="2"
     inkscape:pageopacity="0"
     inkscape:pagecheckerboard="false"
     inkscape:document-units="mm"
     showgrid="false"
     inkscape:zoom="4.8809214"
     inkscape:cx="119.0349"
     inkscape:cy="80.210265"
     inkscape:window-width="1916"
     inkscape:window-height="1037"
     inkscape:window-x="0"
     inkscape:window-y="0"
     inkscape:window-maximized="1"
     inkscape:current-layer="g146935"
     inkscape:showpageshadow="2"
     inkscape:deskcolor="#ffffff" /><defs
     id="defs2"><clipPath
       clipPathUnits="userSpaceOnUse"
       id="clipPath4244"><path
         d="m -89.348846,133.47717 17.321,10 17.32,-10 v -20 l -17.32,-10 -17.321,10 v 20"
         class="s1"
         id="path4246"
         style="fill:none;fill-opacity:1;stroke:#000000;stroke-width:0.0999998;stroke-linecap:round;stroke-linejoin:round;stroke-dasharray:none" /></clipPath></defs><g
     inkscape:label="Layer 1"
     inkscape:groupmode="layer"
     id="g146935"
     transform="translate(89.6073,-103.4271)"><g
       inkscape:label="svglink:mountains_color.svg"
       ns3:href="mountains_color.svg"
       ns4:x="-84.721771"
       ns4:y="106.59617"
       ns3:image-svg-dpi="200"
       ns3:image-height="32.414104"
       ns3:image-width="32.622597"
       id="g60"
       transform="translate(-3.103432,1.0370607)"><sodipodi:namedview
         id="namedview1"
         pagecolor="#ffffff"
         bordercolor="#666666"
         borderopacity="1.0"
         inkscape:pageshadow="2"
         inkscape:pageopacity="0"
         inkscape:pagecheckerboard="false"
         inkscape:document-units="mm"
         showgrid="false"
         inkscape:zoom="3.4513326"
         inkscape:cx="27.815343"
         inkscape:cy="73.449889"
         inkscape:window-width="1916"
         inkscape:window-height="1037"
         inkscape:window-x="0"
         inkscape:window-y="0"
         inkscape:window-maximized="1"
         inkscape:current-layer="g161461"
         inkscape:showpageshadow="2"
         inkscape:deskcolor="#ffffff"
         transform="translate(-84.7218, 106.596)" /><defs
         id="defs32"
         transform="translate(-84.7218, 106.596)"><inkscape:path-effect
           effect="simplify"
           id="path-effect1"
           is_visible="true"
           lpeversion="1"
           steps="1"
           threshold="0.0168421"
           smooth_angles="360"
           helper_size="0"
           simplify_individual_paths="false"
           simplify_just_coalesce="false" /><inkscape:path-effect
           effect="simplify"
           id="path-effect2"
           is_visible="true"
           lpeversion="1"
           steps="1"
           threshold="0.0168421"
           smooth_angles="360"
           helper_size="0"
           simplify_individual_paths="false"
           simplify_just_coalesce="false" /><inkscape:path-effect
           effect="simplify"
           id="path-effect3"
           is_visible="true"
           lpeversion="1"
           steps="1"
           threshold="0.0168421"
           smooth_angles="360"
           helper_size="0"
           simplify_individual_paths="false"
           simplify_just_coalesce="false" /><inkscape:path-effect
           effect="simplify"
           id="path-effect4"
           is_visible="true"
           lpeversion="1"
           steps="1"
           threshold="0.0168421"
           smooth_angles="360"
           helper_size="0"
           simplify_individual_paths="false"
           simplify_just_coalesce="false" /><inkscape:path-effect
           effect="simplify"
           id="path-effect5"
           is_visible="true"
           lpeversion="1"
           steps="1"
           threshold="0.0168421"
           smooth_angles="360"
           helper_size="0"
           simplify_individual_paths="false"
           simplify_just_coalesce="false" /><inkscape:path-effect
           effect="simplify"
           id="path-effect6"
           is_visible="true"
           lpeversion="1"
           steps="1"
           threshold="0.0168421"
           smooth_angles="360"
           helper_size="0"
           simplify_individual_paths="false"
           simplify_just_coalesce="false" /><inkscape:path-effect
           effect="simplify"
           id="path-effect7"
           is_visible="true"
           lpeversion="1"
           steps="1"
           threshold="0.0168421"
           smooth_angles="360"
           helper_size="0"
           simplify_individual_paths="false"
           simplify_just_coalesce="false" /><inkscape:path-effect
           effect="simplify"
           id="path-effect8"
           is_visible="true"
           lpeversion="1"
           steps="1"
           threshold="0.0168421"
           smooth_angles="360"
           helper_size="0"
           simplify_individual_paths="false"
           simplify_just_coalesce="false" /><inkscape:path-effect
           effect="simplify"
           id="path-effect9"
           is_visible="true"
           lpeversion="1"
           steps="1"
           threshold="0.0168421"
           smooth_angles="360"
           helper_size="0"
           simplify_individual_paths="false"
           simplify_just_coalesce="false" /><inkscape:path-effect
           effect="simplify"
           id="path-effect10"
           is_visible="true"
           lpeversion="1"
           steps="1"
           threshold="0.0168421"
           smooth_angles="360"
           helper_size="0"
           simplify_individual_paths="false"
           simplify_just_coalesce="false" /><inkscape:path-effect
           effect="simplify"
           id="path-effect11"
           is_visible="true"
           lpeversion="1"
           steps="1"
           threshold="0.0168421"
           smooth_angles="360"
           helper_size="0"
           simplify_individual_paths="false"
           simplify_just_coalesce="false" /><inkscape:path-effect
           effect="simplify"
           id="path-effect12"
           is_visible="true"
           lpeversion="1"
           steps="1"
           threshold="0.0168421"
           smooth_angles="360"
           helper_size="0"
           simplify_individual_paths="false"
           simplify_just_coalesce="false" /><inkscape:path-effect
           effect="simplify"
           id="path-effect13"
           is_visible="true"
           lpeversion="1"
           steps="1"
           threshold="0.0168421"
           smooth_angles="360"
           helper_size="0"
           simplify_individual_paths="false"
           simplify_just_coalesce="false" /><inkscape:path-effect
           effect="simplify"
           id="path-effect14"
           is_visible="true"
           lpeversion="1"
           steps="1"
           threshold="0.0168421"
           smooth_angles="360"
           helper_size="0"
           simplify_individual_paths="false"
           simplify_just_coalesce="false" /><inkscape:path-effect
           effect="simplify"
           id="path-effect15"
           is_visible="true"
           lpeversion="1"
           steps="1"
           threshold="0.0168421"
           smooth_angles="360"
           helper_size="0"
           simplify_individual_paths="false"
           simplify_just_coalesce="false" /><inkscape:path-effect
           effect="simplify"
           id="path-effect16"
           is_visible="true"
           lpeversion="1"
           steps="1"
           threshold="0.0168421"
           smooth_angles="360"
           helper_size="0"
           simplify_individual_paths="false"
           simplify_just_coalesce="false" /><inkscape:path-effect
           effect="simplify"
           id="path-effect17"
           is_visible="true"
           lpeversion="1"
           steps="1"
           threshold="0.0168421"
           smooth_angles="360"
           helper_size="0"
           simplify_individual_paths="false"
           simplify_just_coalesce="false" /><inkscape:path-effect
           effect="simplify"
           id="path-effect18"
           is_visible="true"
           lpeversion="1"
           steps="1"
           threshold="0.0168421"
           smooth_angles="360"
           helper_size="0"
           simplify_individual_paths="false"
           simplify_just_coalesce="false" /><inkscape:path-effect
           effect="simplify"
           id="path-effect19"
           is_visible="true"
           lpeversion="1"
           steps="1"
           threshold="0.0168421"
           smooth_angles="360"
           helper_size="0"
           simplify_individual_paths="false"
           simplify_just_coalesce="false" /><inkscape:path-effect
           effect="simplify"
           id="path-effect20"
           is_visible="true"
           lpeversion="1"
           steps="1"
           threshold="0.0168421"
           smooth_angles="360"
           helper_size="0"
           simplify_individual_paths="false"
           simplify_just_coalesce="false" /><inkscape:path-effect
           effect="simplify"
           id="path-effect21"
           is_visible="true"
           lpeversion="1"
           steps="1"
           threshold="0.0168421"
           smooth_angles="360"
           helper_size="0"
           simplify_individual_paths="false"
           simplify_just_coalesce="false" /><inkscape:path-effect
           effect="simplify"
           id="path-effect22"
           is_visible="true"
           lpeversion="1"
           steps="1"
           threshold="0.0168421"
           smooth_angles="360"
           helper_size="0"
           simplify_individual_paths="false"
           simplify_just_coalesce="false" /><inkscape:path-effect
           effect="simplify"
           id="path-effect23"
           is_visible="true"
           lpeversion="1"
           steps="1"
           threshold="0.0168421"
           smooth_angles="360"
           helper_size="0"
           simplify_individual_paths="false"
           simplify_just_coalesce="false" /><inkscape:path-effect
           effect="simplify"
           id="path-effect24"
           is_visible="true"
           lpeversion="1"
           steps="1"
           threshold="0.0168421"
           smooth_angles="360"
           helper_size="0"
           simplify_individual_paths="false"
           simplify_just_coalesce="false" /><inkscape:path-effect
           effect="simplify"
           id="path-effect25"
           is_visible="true"
           lpeversion="1"
           steps="1"
           threshold="0.0168421"
           smooth_angles="360"
           helper_size="0"
           simplify_individual_paths="false"
           simplify_just_coalesce="false" /><inkscape:path-effect
           effect="simplify"
           id="path-effect26"
           is_visible="true"
           lpeversion="1"
           steps="1"
           threshold="0.0168421"
           smooth_angles="360"
           helper_size="0"
           simplify_individual_paths="false"
           simplify_just_coalesce="false" /><inkscape:path-effect
           effect="simplify"
           id="path-effect27"
           is_visible="true"
           lpeversion="1"
           steps="1"
           threshold="0.0168421"
           smooth_angles="360"
           helper_size="0"
           simplify_individual_paths="false"
           simplify_just_coalesce="false" /><inkscape:path-effect
           effect="simplify"
           id="path-effect28"
           is_visible="true"
           lpeversion="1"
           steps="1"
           threshold="0.0168421"
           smooth_angles="360"
           helper_size="0"
           simplify_individual_paths="false"
           simplify_just_coalesce="false" /><inkscape:path-effect
           effect="simplify"
           id="path-effect29"
           is_visible="true"
           lpeversion="1"
           steps="1"
           threshold="0.0168421"
           smooth_angles="360"
           helper_size="0"
           simplify_individual_paths="false"
           simplify_just_coalesce="false" /><inkscape:path-effect
           effect="simplify"
           id="path-effect30"
           is_visible="true"
           lpeversion="1"
           steps="1"
           threshold="0.0168421"
           smooth_angles="360"
           helper_size="0"
           simplify_individual_paths="false"
           simplify_just_coalesce="false" /><inkscape:path-effect
           effect="simplify"
           id="path-effect31"
           is_visible="true"
           lpeversion="1"
           steps="1"
           threshold="0.0168421"
           smooth_angles="360"
           helper_size="0"
           simplify_individual_paths="false"
           simplify_just_coalesce="false" /><inkscape:path-effect
           effect="simplify"
           id="path-effect32"
           is_visible="true"
           lpeversion="1"
           steps="1"
           threshold="0.0168421"
           smooth_angles="360"
           helper_size="0"
           simplify_individual_paths="false"
           simplify_just_coalesce="false" /><clipPath
           clipPathUnits="userSpaceOnUse"
           id="clipPath32"><path
             d="m -89.348846,133.47717 17.321,10 17.32,-10 v -20 l -17.32,-10 -17.321,10 v 20"
             class="s1"
             id="path32"
             style="fill:none;fill-opacity:1;stroke:#000000;stroke-width:0.0999998;stroke-linecap:round;stroke-linejoin:round;stroke-dasharray:none" /></clipPath></defs><g
         inkscape:label="Layer 1"
         inkscape:groupmode="layer"
         id="g59"
         transform="translate(3.20603,-1.07483)"><g
           id="g168605"
           inkscape:label="colors"><path
             id="path33"
             style="fill:#dbdeef;fill-opacity:1;stroke:none;stroke-width:0.2;stroke-linecap:round;stroke-linejoin:round;stroke-dasharray:none"
             d="m -79.011386,107.6715 c -1.758897,0.40645 -1.427434,2.84909 -3.400117,2.80377 -2.423191,-0.0557 -5.02859,2.5594 -4.484032,4.66837 0.302927,1.32541 3.956998,-0.12457 5.187266,0.99549 1.24644,0.59311 2.561246,0.97129 3.899142,1.24229 2.42043,0.15674 4.340318,-2.35922 6.825485,-1.58076 1.689029,0.58 3.442956,1.62853 5.281945,1.00454 1.722091,-0.97967 0.0888,-3.35897 -1.003088,-4.24371 -1.624986,-0.3215 -2.882018,-2.54769 -4.595678,-1.81158 -1.662383,1.56427 -3.660122,-0.4292 -4.957522,-1.47811 -1.263732,-0.052 -1.763238,-1.15991 -2.753401,-1.6003 z m 3.261761,11.90911 c -0.776217,1.07034 -1.285615,2.68824 -2.823597,2.82788 -1.454514,0.20433 -2.806942,-0.56719 -3.913648,-1.42154 -1.787337,-0.0845 -2.750541,1.89657 -3.743181,3.10808 -0.696377,1.24417 -2.155958,2.6046 -1.556524,4.13886 1.385101,0.77997 3.253796,0.15231 4.847608,0.32201 2.048194,-0.26 4.129302,-1.19354 6.195094,-0.46979 1.42257,0.86237 3.011167,0.57174 4.455007,-0.0494 1.754237,-0.34435 2.243826,-1.45793 3.648607,-2.28707 1.507518,-0.88977 2.565308,0.97872 4.233947,1.50278 1.454426,0.56575 3.076609,-0.33484 4.472351,0.6623 1.172724,0.42322 2.840806,1.49653 3.887837,0.29667 1.096328,-1.4417 0.0023,-3.2591 -1.202468,-4.21907 -1.291347,-0.95325 -2.566378,-2.43113 -4.326066,-2.24707 -1.847883,0.46309 -2.759639,-1.52094 -4.303378,-2.04848 -1.880786,-0.83278 -3.085633,-0.72219 -4.362571,-2.49298 -0.16429,-0.22783 -1.325485,-0.6201 -1.599431,-0.55187 -0.583684,0.14537 -2.484599,0.97501 -3.909587,2.92869 z m 13.498109,8.54265 c -2.053334,0.23171 -2.888411,1.43343 -4.258463,2.90685 -0.94446,1.01573 -2.552458,2.05326 -3.482087,0.70606 -0.912671,-1.32263 -2.851449,-3.00533 -4.11223,-1.79594 -1.184041,1.27105 -2.735122,1.98407 -4.016926,3.00699 -0.725024,1.05963 -3.231561,4.25548 -1.664406,4.46282 1.267975,0.16776 4.665148,1.88625 5.576919,0.45792 1.61457,-1.21735 3.861037,0.12308 4.607083,1.73545 1.198294,1.36916 2.893693,-0.56452 4.151156,-1.03391 1.316699,-0.98407 2.747401,-1.34037 4.172298,-1.65116 1.556664,-0.33953 0.933647,-2.32891 2.862061,-1.91461 2.113019,0.55376 2.953317,-1.28411 2.785665,-2.48917 -0.249472,-1.79318 -1.080746,-2.76972 -2.762826,-3.06331 -1.138603,-0.19873 -2.75564,-1.45242 -3.858246,-1.32799 z"
             sodipodi:nodetypes="cccccccccccccccccccccccccccccsssccscccccssss" /><path
             id="path34"
             style="fill:#cacfe8;fill-opacity:1;stroke:none;stroke-width:0.2;stroke-linecap:round;stroke-linejoin:round;stroke-dasharray:none"
             d="m -79.658544,109.08278 c -0.40872,1.28081 -1.549914,2.06416 -2.53628,2.57866 1.272155,1.51976 2.74008,0.0332 2.878378,-1.45676 0.08186,-0.39043 0.06097,-0.90902 -0.342098,-1.1219 z m 2.130619,0.38706 c -0.617581,0.80854 -2.841244,2.05769 -1.206645,2.93936 1.769171,-0.43003 3.210658,0.94249 4.90461,0.84077 0.742948,-1.27946 -1.112335,-2.32841 -2.264978,-2.52698 -0.515499,-0.35918 -0.792121,-1.09285 -1.432987,-1.25315 z m -5.896281,1.9513 c -1.40083,0.74472 -0.715843,3.18211 0.956531,3.14193 0.601948,0.31054 2.555527,1.08867 1.765784,-0.29972 -1.548072,-0.52506 -1.069996,-2.49484 -2.722315,-2.84221 z m 13.562996,0.53795 c -1.177596,0.88263 0.09772,2.68871 0.503329,3.72277 1.077997,0.42554 2.320137,0.04 3.429248,0.41445 0.993629,-0.44759 -1.698749,-1.21482 -1.543058,-2.22209 -1.168881,-0.21738 -1.466298,-1.41886 -2.389519,-1.91513 z m -2.233972,0.60307 c -0.662955,0.74494 -0.918867,3.28008 0.784449,2.4598 1.462049,-0.57791 -0.548955,-1.43702 -0.63407,-2.34198 z m -1.39423,0.89193 c -1.441121,0.0677 -2.356781,1.74332 -3.877283,1.36529 -1.113636,-0.6108 -3.506247,0.46189 -1.666564,1.49552 1.855445,0.66123 3.664847,-0.39641 5.351611,-1.05265 0.590135,-0.30655 0.921631,-1.51107 0.192236,-1.80816 z m 1.910478,4.26641 c -1.381433,0.11964 -1.566172,1.81283 -1.562695,2.90783 -0.03452,1.47783 1.448555,2.21834 2.746602,2.19677 1.774059,0.0221 3.274064,1.11075 4.552177,2.23397 1.179455,0.37039 2.430654,0.53682 3.45767,1.28209 0.76001,0.43503 3.353631,1.39014 2.241207,-0.28008 -0.864697,-0.75604 -0.8383,-2.2524 -1.997294,-2.62672 -1.203822,-0.25352 -2.684964,-0.10621 -3.497461,-1.23713 -0.599524,-1.08299 -1.438563,-2.08672 -2.530078,-2.70526 -1.556103,0.37216 -2.102823,-1.62249 -3.410128,-1.77147 z m -3.009119,1.74253 c -0.0093,-2.5e-4 -0.01864,2e-5 -0.02791,0.001 -0.582668,0.0635 -0.734371,0.91395 -1.119828,1.35547 -0.416344,0.47692 -0.815836,0.97433 -1.287777,1.3963 -0.386502,0.34558 -1.20708,0.40399 -1.25367,0.92036 -0.0482,0.53419 0.57138,1.12428 1.105875,1.16892 0.633311,0.0529 1.100794,-0.67225 1.521871,-1.14825 0.427822,-0.48362 0.730176,-1.07718 0.96945,-1.6769 0.22103,-0.554 0.613293,-1.1774 0.416512,-1.74046 -0.04612,-0.13198 -0.185161,-0.27268 -0.324528,-0.27647 z m -8.007263,2.2319 c -1.773916,0.30482 -0.40975,2.36349 0.870231,2.19832 1.203817,0.46478 2.358944,1.04589 3.353801,1.86965 1.345062,0.37945 -0.332779,-2.28864 -1.208712,-2.29443 -1.139356,-0.38102 -1.883602,-1.46058 -3.01532,-1.77354 z m -1.545125,0.92966 c -0.65082,1.42651 0.0015,2.81421 1.059367,3.80545 0.530219,0.56295 2.908063,1.10718 1.473295,-0.002 -0.762891,-1.30866 -1.562991,-2.72181 -2.532662,-3.80339 z m 24.057446,0.0331 c -1.026677,1.35949 1.063711,2.27367 1.508952,3.29902 -0.04779,0.97734 2.298238,2.77601 2.070674,1.03766 0.09385,-1.43733 -1.053983,-2.264 -2.170926,-2.92178 -0.615324,-0.33991 -0.671178,-1.28842 -1.4087,-1.4149 z m -24.599015,0.55552 c -0.558483,-0.0112 -0.74051,1.12094 -1.142049,1.61282 -0.381045,0.46677 -1.04841,0.7903 -1.165821,1.38131 -0.09044,0.45525 -0.01597,1.17641 0.42323,1.32653 0.469978,0.16064 0.930001,-0.44667 1.226799,-0.84491 0.409585,-0.54958 0.491986,-1.28594 0.63407,-1.95647 0.104141,-0.49147 0.469081,-1.10525 0.156579,-1.49861 -0.0034,-0.004 -0.01221,0.002 -0.01602,-0.002 v -5.2e-4 c -0.04075,-0.0114 -0.07956,-0.0173 -0.116788,-0.0181 z m 22.937618,5.18883 c -0.705967,1.2446 -2.372598,0.52853 -2.667021,2.14922 -0.872069,1.52047 -2.547166,2.05674 -3.782715,3.1657 -0.747358,-0.4439 -1.990427,-1.70593 -2.987931,-2.41794 -0.754727,-0.47258 -1.830105,-1.62405 -2.310453,-0.22893 -1.750618,1.44747 0.597068,3.35023 2.163175,3.39773 1.325439,0.36186 1.643758,2.24107 3.185335,2.18798 1.453022,0.21623 0.07859,-2.02047 1.454175,-1.29243 1.165295,-0.55047 2.73471,-1.17802 2.898531,-2.67632 0.946001,1.15286 2.397291,0.63684 3.639571,0.73484 1.129029,0.6004 3.219531,2.38927 4.098458,0.54932 0.241166,-1.40631 -0.6744,-2.72686 -1.882572,-3.36931 -1.188684,-0.85995 -2.388554,-1.76413 -3.808553,-2.19986 z m -13.993461,4.00699 c -1.181641,0.54313 -1.39984,2.12423 -2.343527,3.00447 -0.720393,1.85364 2.152697,1.057 2.570386,-0.0357 0.544589,-0.83259 0.911523,-2.42889 -0.155546,-2.9683 z" /><path
             id="path35"
             style="fill:#b8bee0;fill-opacity:1;stroke:none;stroke-width:0.2;stroke-linecap:round;stroke-linejoin:round;stroke-dasharray:none"
             d="m -76.517134,110.35454 c -0.0075,3e-4 -0.01477,0.002 -0.02067,0.006 -0.264354,0.17441 -0.341378,0.54642 -0.415995,0.85421 -0.074,0.30526 -0.186198,0.6748 -0.02119,0.94206 0.260606,0.4221 1.041249,0.24457 1.345137,0.63666 0.119599,0.15431 -0.04644,0.45915 0.110588,0.57516 0.342408,0.25297 1.15669,0.27247 1.26969,-0.13798 0.04013,-0.14575 -0.297303,-0.13634 -0.362252,-0.27285 -0.137823,-0.28967 0.201395,-0.68705 0.03566,-0.9617 -0.211489,-0.35047 -0.791873,-0.27039 -1.106909,-0.53175 -0.352024,-0.29204 -0.39935,-0.90931 -0.812354,-1.10588 -0.0064,-0.003 -0.01418,-0.004 -0.0217,-0.004 z m 5.558317,2.37453 c -0.279934,-0.0264 -0.579073,0.37537 -0.836125,0.56173 -0.329435,0.23882 -0.709896,0.47067 -0.889868,0.8356 -0.16952,0.34374 -0.09515,0.76133 -0.114205,1.14412 v 5.2e-4 c 0.13021,0.13118 0.377808,0.0584 0.554488,0.004 0.398223,-0.12237 0.648786,-0.53897 1.028878,-0.70952 0.265983,-0.11934 0.63099,-0.0148 0.849561,-0.20774 0.289569,-0.25558 0.543069,-0.71899 0.412894,-1.08262 -0.114727,-0.32048 -0.715876,-0.21204 -0.886767,-0.50643 v -5.1e-4 c -0.03902,-0.0231 -0.07886,-0.0355 -0.118856,-0.0393 z m 2.137337,0.24805 c -0.01127,0.001 -0.02307,0.005 -0.03256,0.009 -0.23559,0.10209 -0.509922,0.28983 -0.545186,0.54415 -0.04356,0.31412 0.288882,0.56627 0.465088,0.82993 0.263474,0.39424 0.501136,0.83285 0.880566,1.11724 0.428135,0.3209 1.024391,0.86567 1.488798,0.59997 0.255938,-0.14644 0.21098,-0.59115 0.130741,-0.87489 -0.115535,-0.40856 -0.516946,-0.67735 -0.820104,-0.97461 -0.470685,-0.46154 -1.253859,-0.64846 -1.537891,-1.24334 v -5.2e-4 c -0.0074,-0.007 -0.01818,-0.009 -0.02946,-0.007 z m -13.522688,0.19379 c -0.0027,2e-5 -0.0057,6.8e-4 -0.0078,0.002 -0.269313,0.17873 -0.354293,0.57105 -0.376721,0.89349 -0.02087,0.29998 0.01037,0.66857 0.232027,0.87178 0.503627,0.4617 1.551476,0.8517 2.018998,0.35347 0.09543,-0.1017 -0.0053,-0.30268 -0.09819,-0.4067 -0.18149,-0.20322 -0.525914,-0.15489 -0.767912,-0.28008 -0.250389,-0.12954 -0.528447,-0.25407 -0.695565,-0.48111 -0.196877,-0.26747 -0.03002,-0.75419 -0.297656,-0.95085 -0.002,-0.001 -0.0045,-0.002 -0.0072,-0.002 z m 7.685319,0.99632 c -0.25095,0.11285 -0.3278,0.45223 -0.547771,0.61753 -0.36989,0.27796 -0.826527,0.41799 -1.25367,0.59583 -0.498386,0.2075 -1.470492,0.0111 -1.523938,0.54829 -0.04025,0.40458 0.641272,0.57416 1.043864,0.63097 0.586491,0.0828 1.217731,-0.14174 1.715658,-0.46251 0.481417,-0.31013 1.09731,-0.75285 1.092956,-1.3255 -0.002,-0.26455 -0.274038,-0.4936 -0.51418,-0.60461 -0.0039,-0.002 -0.009,-0.002 -0.01292,0 z m 2.147672,4.39921 c -0.0304,-0.002 -0.06159,0.002 -0.09353,0.015 -0.716556,0.29119 -0.444658,1.62539 -0.100769,2.3182 0.249602,0.50286 0.922845,1.27869 1.384411,0.95912 0.76577,-0.53019 -0.209578,-1.90669 -0.681095,-2.70991 -0.122208,-0.20818 -0.296203,-0.56578 -0.509013,-0.5824 z m 3.591512,0.46871 c -0.07552,0.002 -0.15188,0.0253 -0.228927,0.0755 -0.714516,0.46469 0.321359,1.71584 0.777214,2.43602 0.496559,0.78449 1.262218,1.38765 2.036051,1.90066 0.181751,0.12049 0.450414,0.42775 0.59738,0.26665 0.808517,-0.88626 -1.009227,-2.20396 -1.76165,-3.13831 -0.403512,-0.50108 -0.89146,-1.55366 -1.420068,-1.54047 z m -7.338053,2.1146 c -0.07671,-0.004 -0.158999,0.014 -0.223759,0.0553 -0.302084,0.19283 -0.541938,0.50477 -0.673344,0.83819 -0.08962,0.22739 -0.08985,0.48942 -0.05426,0.73122 0.04376,0.29735 0.116094,0.6238 0.322977,0.84181 0.224267,0.23633 0.625369,0.21156 0.892969,0.39739 0.222308,0.15439 0.312658,0.49132 0.568441,0.57981 0.139038,0.0481 0.335511,0.049 0.437699,-0.0568 0.186148,-0.19281 0.09073,-0.5329 0.07545,-0.80047 -0.0319,-0.55858 -0.116106,-1.13253 -0.346749,-1.64227 -0.136424,-0.30151 -0.328947,-0.59752 -0.594279,-0.7953 -0.115351,-0.086 -0.261489,-0.14094 -0.405143,-0.14883 z m -5.268929,1.4919 c -0.02984,0.005 -0.0588,0.0198 -0.08682,0.0481 -0.630444,0.63586 1.039705,2.59259 1.74563,2.04174 0.460165,-0.35908 -0.618718,-0.99821 -1.014408,-1.4273 -0.188848,-0.20479 -0.435543,-0.69467 -0.644405,-0.66249 z m -1.989026,0.28628 c -0.02502,0.002 -0.04727,0.0106 -0.05529,0.0305 -0.157988,0.39233 0.437719,1.24404 0.782381,0.99891 0.328552,-0.23368 -0.288107,-0.84927 -0.65474,-1.01699 -0.01954,-0.009 -0.04733,-0.0142 -0.07235,-0.0124 z m -0.800468,0.74983 c -0.0087,8e-4 -0.01661,0.004 -0.02274,0.0108 -0.523344,0.58998 -0.208548,2.452 0.564824,2.29753 0.739401,-0.14767 0.113122,-1.6368 -0.345199,-2.23552 -0.02428,-0.0317 -0.07105,-0.0379 -0.109554,-0.0486 -0.02672,-0.007 -0.06128,-0.0267 -0.08733,-0.0243 z m 21.324796,0.0672 c -0.0083,0.002 -0.01571,0.005 -0.0217,0.0114 -0.334119,0.34586 -0.102243,1.02199 0.143144,1.43557 0.518993,0.87471 1.776421,2.41505 2.519743,1.72082 0.474154,-0.44283 -0.580029,-1.17195 -0.98547,-1.67845 -0.448811,-0.56068 -0.914892,-1.18611 -1.574064,-1.47123 -0.02377,-0.0103 -0.05663,-0.0229 -0.08165,-0.0181 z m 4.44469,0.56017 c -0.005,-0.001 -0.0099,-9.4e-4 -0.01344,0.002 v 5.1e-4 c 0.129644,0.87492 0.02007,2.06961 0.769463,2.53938 0.238482,0.1495 0.720086,0.12559 0.834057,-0.13177 0.387994,-0.87613 -0.769456,-1.88686 -1.576131,-2.40399 -0.0039,-0.002 -0.009,-0.005 -0.01395,-0.006 z m -3.365686,4.35891 c -0.490536,0.55647 -0.116562,1.44709 0.331246,1.91926 0.703599,0.74716 1.740418,1.13684 2.324923,1.99574 0.23613,0.80992 0.923489,1.59066 1.850533,1.28726 0.923991,-0.10331 0.744836,-0.97597 0.683162,-1.61592 0.269504,-0.83895 -0.577119,-0.81079 -1.149283,-0.7369 -1.013527,-0.009 -0.558373,-1.39919 -1.425236,-1.66915 -0.779718,-0.43225 -1.617506,-0.71993 -2.417941,-1.11001 l -0.09819,-0.0367 z m -2.486153,1.73271 c -0.75357,0.41045 -0.329929,1.65808 0.388607,1.8898 0.734807,0.37996 1.125644,1.31967 2.04432,1.29863 0.471403,-0.0459 1.250464,0.24227 1.545642,-0.11782 -0.749928,-0.17773 -1.24963,-0.72697 -1.907894,-1.10071 -0.71497,-0.40834 -0.577153,-1.47516 -1.402499,-1.78232 -0.206618,-0.10763 -0.43566,-0.17229 -0.668176,-0.18758 z m -7.704439,1.13688 c -0.752269,0.59839 -0.146858,1.63885 0.641304,1.82056 0.883383,0.41821 0.927901,1.6023 1.83503,1.94665 0.584023,0.42208 1.529067,-0.0804 0.891936,-0.74052 -0.09916,-0.93517 -0.852475,-1.40037 -1.677417,-1.62626 -0.678263,-0.1656 -0.568029,-1.05924 -1.229383,-1.25315 -0.146396,-0.069 -0.302375,-0.11777 -0.46147,-0.14728 z m -2.331641,1.14412 c -0.813863,0.0434 -1.245158,1.32784 -0.223759,1.47536 0.58913,0.12427 1.072054,1.51387 1.615406,0.9064 -0.07514,-0.57565 0.138931,-1.30718 -0.445451,-1.65209 -0.367245,-0.16008 -0.358313,-0.73554 -0.781348,-0.72141 -0.02862,-0.004 -0.05686,-0.007 -0.08475,-0.008 -0.02701,-0.001 -0.05385,-0.001 -0.0801,0 z m 10.31875,0.94309 c -0.831242,0.0362 -1.125845,1.22016 -2.036051,1.19889 -0.532673,0.13227 -1.523517,0.41874 -1.592151,0.85525 0.703919,0.0815 1.41916,-0.0358 2.119767,0.0806 0.820261,-0.0976 1.144158,-0.9851 1.966805,-1.06918 0.546407,-0.23586 0.333462,-1.14678 -0.284737,-1.05678 -0.06053,-0.008 -0.118217,-0.0112 -0.173633,-0.009 z" /></g><g
           id="g58"
           inkscape:label="lines"><path
             style="fill:none;stroke:#000000;stroke-width:0.1;stroke-linecap:round;stroke-linejoin:round;stroke-dasharray:none"
             d="m -69.14931,115.64808 0.343664,-0.67749 0.402345,0.10855 0.679559,-0.82871 c 0.113395,0.32663 0.286594,0.57303 0.509615,0.76298 0.464266,0.39544 0.968804,0.60573 1.378021,0.66703"
             id="path36"
             sodipodi:nodetypes="ccccsc" /><path
             style="fill:none;stroke:#000000;stroke-width:0.1;stroke-linecap:round;stroke-linejoin:round;stroke-dasharray:none"
             d="m -68.325434,114.03013 c -0.221069,-0.009 -0.04005,-0.20997 -0.179841,-0.53352 l -0.23723,0.0944 -1.050313,-1.25636 c -0.220027,0.51805 -0.546255,0.81465 -0.972915,1.15113 l -0.429956,-0.2305 -0.988241,1.52995"
             id="path37"
             sodipodi:nodetypes="ccccccc" /><path
             style="fill:none;stroke:#000000;stroke-width:0.1;stroke-linecap:round;stroke-linejoin:round;stroke-dasharray:none"
             d="m -72.140696,113.30461 -0.220557,-0.13784 -0.206681,-0.77855 -1.143915,1.7493 -0.468,-0.20721 c -0.496344,1.28331 -1.220498,1.53532 -1.994954,1.98161"
             id="path38"
             sodipodi:nodetypes="cccccc" /><path
             style="fill:none;stroke:#000000;stroke-width:0.1;stroke-linecap:round;stroke-linejoin:round;stroke-dasharray:none"
             d="m -82.556006,113.39649 c -0.329784,-0.61238 -0.960562,-0.30245 -1.401199,-0.92027 l -0.178673,1.11618 -0.510944,-0.17106 -0.768748,1.07902"
             id="path39"
             sodipodi:nodetypes="ccccc" /><path
             style="fill:none;stroke:#000000;stroke-width:0.1;stroke-linecap:round;stroke-linejoin:round;stroke-dasharray:none"
             d="m -82.568937,112.21863 0.476711,-0.59496 c 2.110568,-0.22557 2.414974,-1.0753 2.924959,-2.57874 l 0.855676,0.75212"
             id="path40"
             sodipodi:nodetypes="cccc" /><path
             style="fill:none;stroke:#000000;stroke-width:0.1;stroke-linecap:round;stroke-linejoin:round;stroke-dasharray:none"
             d="m -78.819787,111.11304 c 0.626024,-0.3698 1.271204,-0.72552 1.531085,-1.36456 l 0.623112,1.1423 0.140601,-0.13472 1.070003,1.29693 0.152344,-0.43109 c 0.448226,0.73783 0.749658,0.94535 1.225353,1.17652"
             id="path41"
             sodipodi:nodetypes="ccccccc" /><path
             style="fill:none;stroke:#000000;stroke-width:0.1;stroke-linecap:round;stroke-linejoin:round;stroke-dasharray:none"
             d="m -82.380794,125.02973 -0.688592,-0.84002 -0.55572,0.66311 -0.854102,-1.15027 c -0.324326,0.86817 -0.978758,2.59657 -1.617429,1.76632 l -1.283344,2.06983"
             id="path42"
             sodipodi:nodetypes="cccccc" /><path
             style="fill:none;stroke:#000000;stroke-width:0.1;stroke-linecap:round;stroke-linejoin:round;stroke-dasharray:none"
             d="m -83.499879,123.22689 0.845851,-1.21837 0.974701,1.28685 0.295391,-0.31694 0.696707,0.91262 0.259802,-0.3279 c 0.317545,0.44295 0.547245,1.24493 0.932275,0.65696 l 0.849901,1.1206"
             id="path43"
             sodipodi:nodetypes="cccccccc" /><path
             style="fill:none;stroke:#000000;stroke-width:0.1;stroke-linecap:round;stroke-linejoin:round;stroke-dasharray:none"
             d="m -78.556894,124.14567 0.473147,-0.72963 0.293751,0.3908 0.777674,-1.34163 c 0.684582,0.86229 2.248917,-2.32839 2.765498,-3.05787 l 1.123823,1.51849 0.234586,-0.38446 1.285223,1.40348"
             id="path44"
             sodipodi:nodetypes="cccccccc" /><path
             style="fill:none;stroke:#000000;stroke-width:0.1;stroke-linecap:round;stroke-linejoin:round;stroke-dasharray:none"
             d="m -72.760154,119.55778 c 0.509476,-0.67491 0.844516,-1.47125 1.275126,-2.12735 0.744648,1.33157 1.694007,2.54738 2.857448,3.64213 m 1.410098,0.28702 2.033462,2.75055 0.528688,-0.83302 c 0.665772,1.2169 1.096579,1.81247 1.792366,1.16041 l 1.940149,2.04232"
             id="path45"
             sodipodi:nodetypes="cccccccc" /><path
             style="fill:none;stroke:#000000;stroke-width:0.1;stroke-linecap:round;stroke-linejoin:round;stroke-dasharray:none"
             d="m -62.138091,124.65591 0.527246,-0.68543 0.293291,0.31559 0.990348,-1.33488 m 0.312047,0.79751 c 0.408978,0.97009 0.991633,1.9962 1.563395,1.2523 l 1.488063,2.40204"
             id="path46"
             sodipodi:nodetypes="ccccccc" /><path
             style="fill:none;stroke:#000000;stroke-width:0.1;stroke-linecap:round;stroke-linejoin:round;stroke-dasharray:none"
             d="m -57.27716,125.32302 0.658601,1.14369"
             id="path47"
             sodipodi:nodetypes="cc" /><path
             style="fill:none;stroke:#000000;stroke-width:0.1;stroke-linecap:round;stroke-linejoin:round;stroke-dasharray:none"
             d="m -82.960405,125.53097 0.654765,0.91677"
             id="path48" /><path
             style="fill:none;stroke:#000000;stroke-width:0.1;stroke-linecap:round;stroke-linejoin:round;stroke-dasharray:none"
             d="m -86.129746,127.3047 0.3524,-0.63055"
             id="path49" /><path
             style="fill:none;stroke:#000000;stroke-width:0.1;stroke-linecap:round;stroke-linejoin:round;stroke-dasharray:none"
             d="m -68.696922,119.78877 c 0,0 0.436479,0.55181 0.744022,0.69568 0.178951,0.0837 0.588194,0.0729 0.588194,0.0729"
             id="path50"
             sodipodi:nodetypes="cac" /><path
             style="fill:none;stroke:#000000;stroke-width:0.1;stroke-linecap:round;stroke-linejoin:round;stroke-dasharray:none"
             d="m -68.779015,136.47867 0.86862,-1.61915 c 0.53039,0.46542 1.19112,-1.01015 1.5218,-1.43243 l 0.53521,0.34536 1.5507,-2.64545 1.16578,1.16705"
             id="path51" /><path
             style="fill:none;stroke:#000000;stroke-width:0.1;stroke-linecap:round;stroke-linejoin:round;stroke-dasharray:none"
             d="m -63.439699,131.11997 c 0.68241,-0.44125 1.253056,-1.35542 1.513372,-2.12827 l 1.284027,1.74704 m 0.679131,0.27008 0.589922,0.0378 1.4009,2.51158"
             id="path52"
             sodipodi:nodetypes="cccccc" /><path
             style="fill:none;stroke:#000000;stroke-width:0.1;stroke-linecap:round;stroke-linejoin:round;stroke-dasharray:none"
             d="m -57.827579,132.36201 0.489799,-0.58896 0.9323,1.4374"
             id="path53"
             sodipodi:nodetypes="ccc" /><path
             style="fill:none;stroke:#000000;stroke-width:0.1;stroke-linecap:round;stroke-linejoin:round;stroke-dasharray:none"
             d="m -77.548052,136.01527 0.445602,-1.08172 c 1.022337,0.31325 1.313339,-0.92234 1.559455,-2.20613 0.502019,0.53451 0.695641,0.85342 1.216047,0.55444 l 0.73999,0.83019"
             id="path54" /><path
             style="fill:none;stroke:#000000;stroke-width:0.1;stroke-linecap:round;stroke-linejoin:round;stroke-dasharray:none"
             d="m -74.176219,132.3134 0.316895,0.3785 1.256744,-1.64872 m 0.423933,0.55674 c 0.345213,0.92111 0.959519,1.90496 1.265893,0.93909 l 0.910829,2.0268"
             id="path55"
             sodipodi:nodetypes="cccccc" /><path
             style="fill:none;stroke:#000000;stroke-width:0.1;stroke-linecap:round;stroke-linejoin:round;stroke-dasharray:none"
             d="m -69.566926,133.60209 c 0.215805,0.57347 0.483779,0.95019 0.875046,1.18749"
             id="path56"
             sodipodi:nodetypes="cc" /><path
             style="fill:none;stroke:#000000;stroke-width:0.1;stroke-linecap:round;stroke-linejoin:round;stroke-dasharray:none;stroke-opacity:1"
             d="m -60.453872,129.79079 c 0,0 0.224867,0.32116 0.392467,0.40776 0.164101,0.0848 0.547969,0.0824 0.547969,0.0824"
             id="path57"
             sodipodi:nodetypes="cac" /><path
             style="fill:none;stroke:#000000;stroke-width:0.1;stroke-linecap:round;stroke-linejoin:round;stroke-dasharray:none;stroke-opacity:1"
             d="m -62.291865,131.45391 c 0,0 0.106044,-0.1375 0.150389,-0.2119 0.07325,-0.1229 0.189685,-0.38503 0.189685,-0.38503"
             id="path58"
             sodipodi:nodetypes="cac" /></g></g></g><g
       inkscape:label="svglink:../blueprint.svg"
       ns3:href="../blueprint.svg"
       ns4:x="-85.853928"
       ns4:y="102.90191"
       ns3:image-svg-dpi="200"
       ns3:image-height="49.999901"
       ns3:image-width="44.641029"
       id="g1"
       transform="translate(-8.5034,-4.2249)"><title
   transform="translate(-85.8539, 102.902)"
   id="title1">Exported SVG</title>&#10;&#10;<style
   transform="translate(-85.8539, 102.902)"
   id="style1"><![CDATA[
polygon {
shape-rendering:crispEdges;
stroke-width:0.050000;
}
.s0 {
stroke:#000000;
stroke-width:0.036427;
stroke-linecap:round;
stroke-linejoin:round;
fill:none;
}
.s1 {
stroke:#000000;
stroke-width:0.036427;
stroke-linecap:round;
stroke-linejoin:round;
fill:none;
}
.s2 {
stroke:#19b219;
stroke-width:0.036427;
stroke-linecap:round;
stroke-linejoin:round;
fill:none;
}
.s3 {
stroke:#7f4c00;
stroke-width:0.036427;
stroke-linecap:round;
stroke-linejoin:round;
fill:none;
}
.s4 {
stroke:#00cc00;
stroke-width:0.036427;
stroke-linecap:round;
stroke-linejoin:round;
fill:none;
}
.s5 {
stroke:#000000;
stroke-width:0.024285;
stroke-linecap:round;
stroke-linejoin:round;
fill:none;
}
.s6 {
stroke:#ff19ff;
stroke-width:0.024285;
stroke-linecap:round;
stroke-linejoin:round;
fill:none;
}
.s7 {
stroke:#ff0000;
stroke-width:0.036427;
stroke-linecap:round;
stroke-linejoin:round;
fill:none;
}
.s8 {
stroke:#ffff00;
stroke-width:0.036427;
stroke-linecap:round;
stroke-linejoin:round;
fill:none;
}
.s9 {
stroke:#001919;
stroke-width:0.024285;
stroke-linecap:round;
stroke-linejoin:round;
fill:none;
}
.sa {
stroke:#006666;
stroke-width:0.024285;
stroke-linecap:round;
stroke-linejoin:round;
fill:none;
}
.sb {
stroke:#00ffff;
stroke-width:0.072854;
stroke-linecap:round;
stroke-linejoin:round;
fill:none;
}
.sc {
stroke:#ff0000;
stroke-width:0.194278;
stroke-linecap:round;
stroke-linejoin:round;
fill:none;
}
.sd {
stroke:#191919;
stroke-width:0.024285;
stroke-linecap:round;
stroke-linejoin:round;
fill:none;
}
.se {
stroke:#000000;
stroke-width:0.024285;
stroke-linecap:round;
stroke-linejoin:round;
stroke-dasharray:0.364,0.364;
fill:none;
}
.sf {
stroke:#000000;
stroke-width:0.072854;
stroke-linecap:round;
stroke-linejoin:round;
fill:none;
}
.s100 {
stroke:#ff0000;
stroke-width:0.500000;
stroke-linecap:round;
stroke-linejoin:round;
fill:none;
}
]]></style>&#10;<path
   d="M 5,35 22.321,45 39.641,35 V 15 L 22.321,5 5,15 v 20"
   class="s100"
   transform="translate(-85.8539,102.902)"
   id="path1" />&#10;&#10;</g><g
       inkscape:label="svglink:crystal_1_color.svg"
       ns3:href="crystal_1_color.svg"
       ns4:x="-72.670967"
       ns4:y="118.86562"
       ns3:image-svg-dpi="200"
       ns3:image-height="7.8751907"
       ns3:image-width="8.5209856"
       id="g61"
       transform="translate(-4.044706,-13.731194)"><sodipodi:namedview
   id="namedview60"
   pagecolor="#ffffff"
   bordercolor="#666666"
   borderopacity="1.0"
   inkscape:pageshadow="2"
   inkscape:pageopacity="0"
   inkscape:pagecheckerboard="false"
   inkscape:document-units="mm"
   showgrid="false"
   inkscape:zoom="10.262613"
   inkscape:cx="56.32094"
   inkscape:cy="33.568449"
   inkscape:window-width="1916"
   inkscape:window-height="1037"
   inkscape:window-x="0"
   inkscape:window-y="0"
   inkscape:window-maximized="1"
   inkscape:current-layer="g11136"
   inkscape:showpageshadow="2"
   inkscape:deskcolor="#d1d1d1"
   transform="translate(-72.671, 118.866)" />&#10;  <defs
   id="defs60"
   transform="translate(-72.671, 118.866)" />&#10;  <g
   inkscape:label="Layer 1"
   inkscape:groupmode="layer"
   id="layer1"
   transform="translate(-8.64177,-41.2074)">&#10;    <g
   id="g2"
   transform="translate(12.819474,54.949818)">&#10;      <g
   id="g171142"
   inkscape:label="crystal">&#10;        <path
   id="path169729"
   style="fill:#e5fff2;fill-opacity:1;stroke:none;stroke-width:0.2;stroke-linecap:round;stroke-linejoin:round;stroke-dasharray:none"
   d="m -69.787083,105.12312 c -0.930437,0.0183 -1.703345,0.59043 -2.453094,1.07127 -0.369212,0.18682 -0.781555,0.29678 -1.187702,0.35003 -0.471156,-0.10562 -0.815704,-0.48587 -1.258825,-0.65924 -0.364735,-0.25805 -0.805826,-0.0705 -1.004424,0.29505 -0.419628,0.40953 0.08768,0.84975 0.05495,1.3012 -0.103427,0.50307 -0.04595,1.11887 -0.460469,1.49199 -0.270969,0.1635 -0.86446,-0.0279 -0.73333,0.50902 0.04649,0.57824 0.626792,0.83991 1.011625,1.17857 0.348823,0.23898 0.597401,0.57584 0.780669,0.95017 0.359527,0.53121 0.928495,1.09922 1.62651,1.0033 0.409132,-0.0235 0.740912,-0.89846 1.147033,-0.30788 0.294343,0.3534 0.660178,0.7505 1.182424,0.68443 0.736501,-0.18707 1.001962,-0.89203 1.533643,-1.38755 0.267156,-0.34546 0.80027,-0.441 0.817429,-0.93573 0.217422,-0.79379 0.140327,-1.62267 0.101893,-2.43228 -0.04939,-0.47367 0.491826,-0.90368 0.228433,-1.34883 -0.43038,-0.29248 -0.641101,-0.71831 -0.698347,-1.22583 -0.185098,-0.3 -0.408564,-0.54024 -0.688418,-0.53769 z"
   sodipodi:nodetypes="ccccccccccscccccccc" />&#10;        <path
   id="path169923"
   style="fill:#ccffe5;fill-opacity:1;stroke:none;stroke-width:0.2;stroke-linecap:round;stroke-linejoin:round;stroke-dasharray:none"
   d="m -70.370811,105.8095 c -0.64275,-0.005 -1.317115,1.02872 -2.074543,1.08863 -0.65688,0.052 -0.358064,0.59076 -0.858337,0.46996 -0.516488,-0.12472 -1.319509,-1.40707 -1.593396,-0.29677 -0.199229,0.80765 -0.499314,1.45589 -0.945193,2.1362 -0.417892,0.63762 -0.297515,0.70731 0.0021,1.09709 0.442688,0.57597 1.038331,1.50493 1.804572,1.70543 0.432999,0.9974 1.188785,-0.38685 1.904277,0.0382 0.706568,0.41984 1.077344,1.13025 1.662947,0.51108 0.577188,-0.61027 1.348902,-1.17453 1.033529,-2.11718 -0.277801,-0.83036 0.22213,-1.28396 0.31781,-2.01177 0.09599,-0.73018 -0.219998,-2.04602 -0.90285,-2.50877 -0.114828,-0.0778 -0.231856,-0.11127 -0.350883,-0.11214 z"
   sodipodi:nodetypes="cccscsccsscsc" />&#10;        <path
   id="path170054"
   style="fill:#b3ffd8;fill-opacity:1;stroke:none;stroke-width:0.2;stroke-linecap:round;stroke-linejoin:round;stroke-dasharray:none"
   d="m -70.464799,106.48893 c -0.308389,0.10858 -0.507417,0.40558 -0.787415,0.56901 -0.280007,0.24671 -0.650034,0.17167 -0.983191,0.12562 -0.291172,-0.04 -0.671747,0.0187 -0.774959,0.34123 -0.03814,0.21257 -0.05743,0.50338 -0.312277,0.24747 -0.399856,-0.27261 -0.809924,-0.63803 -1.329787,-0.59046 -0.318917,0.0388 -0.347927,0.41113 -0.415886,0.65698 -0.224564,0.49752 0.0808,1.01313 0.05462,1.52181 -0.01503,0.38355 -0.450144,0.3603 -0.716452,0.44657 -0.340848,0.13107 -0.123631,0.54133 0.08207,0.69204 0.253208,0.25083 0.641382,0.29999 0.863383,0.59239 0.323544,0.33133 0.610393,0.82087 1.119581,0.85872 0.542452,-0.21 1.270388,-0.29522 1.701609,0.18112 0.174438,0.26346 0.386231,0.64941 0.772781,0.49561 0.506871,-0.17682 0.892983,-0.6007 1.167859,-1.04816 0.383981,-0.63538 -0.137107,-1.38425 0.173098,-2.03694 0.153764,-0.40755 0.568935,-0.75145 0.492354,-1.22133 -0.133928,-0.43638 -0.576934,-0.66878 -0.805486,-1.04922 -0.21164,-0.21264 -0.133938,-0.60078 -0.301893,-0.78246 z" />&#10;        <path
   id="path170185"
   style="fill:#99ffcb;fill-opacity:1;stroke:none;stroke-width:0.2;stroke-linecap:round;stroke-linejoin:round;stroke-dasharray:none"
   d="m -70.499422,106.41348 c -0.670281,0.15646 -1.237721,0.63207 -1.58543,1.21799 -0.194318,-0.20784 -0.555344,-0.53095 -0.830122,-0.26859 -0.157997,0.35448 -0.09907,0.78486 -0.154547,1.16968 0.02837,0.29742 -0.201843,-0.21269 -0.313378,-0.28261 -0.268331,-0.32136 -0.547769,-0.71012 -0.979865,-0.80539 -0.328744,-0.0117 -0.350044,0.41018 -0.470382,0.63215 -0.172985,0.41651 -0.104787,0.89548 0.114343,1.28129 0.07829,0.11808 0.397806,0.18531 0.499714,0.38494 -0.256762,-0.19301 -0.627816,-0.32332 -0.918168,-0.12114 -0.205,0.14823 -0.797156,0.19776 -0.483609,0.56387 0.344957,0.45932 0.705421,0.91225 0.983198,1.41607 0.230949,0.31284 0.634669,0.35507 0.949593,0.16125 0.267152,-0.18686 0.501425,-0.43167 0.717344,-0.67493 0.169454,-0.12179 0.04011,-0.4684 0.06933,-0.48172 0.377918,0.14416 0.526492,-0.28149 0.412061,-0.57445 0.01858,-0.20681 -0.128474,-0.56842 -0.09892,-0.6617 0.3103,0.13078 0.577031,0.37777 0.940784,0.35322 0.182627,0.0325 0.263824,0.038 0.21337,-0.16536 0.173387,-0.3378 0.021,-0.69433 -0.218172,-0.95134 -0.09189,-0.13202 -0.345724,-0.52035 -0.04252,-0.2792 0.193986,0.0386 0.17024,0.0407 0.105138,0.20222 0.106982,0.32841 0.338622,0.63548 0.600098,0.85908 0.142703,0.15228 0.629309,-0.0437 0.319143,0.21307 -0.2184,0.18992 -0.399176,0.41262 -0.424412,0.71203 -0.176526,0.31931 0.06727,0.66492 0.09288,0.9834 0.220982,0.16137 0.372875,0.3896 0.570357,0.5733 0.292483,0.11644 0.669643,-0.0692 0.800395,-0.34882 0.110236,-0.33301 0.137817,-0.69373 0.315634,-1.00278 0.09389,-0.45652 -0.301704,-0.7942 -0.513626,-1.14969 0.200305,-0.27165 0.195909,-0.65221 0.258084,-0.97743 0.08862,-0.53439 -0.271149,-0.9811 -0.456724,-1.45031 -0.113106,-0.19247 -0.226382,-0.48515 -0.471602,-0.5281 z m -1.376144,3.78582 c -0.336779,0.0687 -0.63115,0.39443 -0.684664,0.73245 -0.11489,0.25112 -0.408769,0.49669 -0.251592,0.79827 0.22838,0.14109 0.529954,0.22838 0.797768,0.24191 0.249293,-0.12265 0.44121,-0.3372 0.700951,-0.44498 0.201516,-0.2227 -0.08051,-0.52898 -0.01776,-0.8001 -0.0042,-0.2754 -0.330054,-0.42869 -0.544706,-0.52756 z m 0.965833,1.55649 c -0.338318,0.0612 -0.953259,0.10163 -0.901674,0.58184 -0.04563,0.46738 0.524838,0.48803 0.780934,0.22779 0.210438,-0.0893 0.662039,-0.17862 0.353536,-0.47403 -0.09952,-0.14238 0.06569,-0.38789 -0.232796,-0.3356 z" />&#10;        <path
   id="path170910"
   style="fill:#ccffe5;fill-opacity:1;stroke:none;stroke-width:0.2;stroke-linecap:round;stroke-linejoin:round;stroke-dasharray:none"
   d="m -70.569702,107.00311 c -0.152132,0.3458 0.109708,0.68641 0.219064,1.00374 0.09758,0.29778 0.632918,0.2951 0.495427,-0.0739 -0.134024,-0.30451 -0.21209,-0.7094 -0.548494,-0.85472 -0.05481,-0.0262 -0.110796,-0.0499 -0.165997,-0.0751 z m -3.829224,0.88005 c -0.07344,0.25892 -0.288359,0.55113 -0.137167,0.81619 0.06368,0.15192 0.339403,0.47456 0.453317,0.30954 -0.0139,-0.34956 -0.07941,-0.71022 -0.235894,-1.02479 -0.023,-0.0364 -0.04969,-0.0706 -0.08026,-0.10094 z m 3.153813,0.24081 c -0.41852,-0.0311 -0.193682,0.52264 -0.283799,0.76767 -0.01302,0.24694 0.377511,0.47617 0.342903,0.0994 -0.0051,-0.26524 0.361282,-0.80829 -0.0591,-0.86707 z m -1.109493,0.13023 c 0.04244,0.32425 0.129587,0.6493 0.01815,0.96505 0.07003,0.31871 0.483775,0.0986 0.304391,-0.16367 -0.105951,-0.2435 -0.09586,-0.56058 -0.148464,-0.77472 -0.0553,-0.0233 -0.115902,-0.0194 -0.174081,-0.0267 z m -1.143083,0.13745 c -0.0052,0.11468 0.02213,0.0789 0,0 z m 0.01085,0.10853 c 0.07904,0.36031 -0.08617,0.75517 0.128609,1.08821 0.103383,0.23136 0.296163,0.56221 0.477485,0.64466 -0.110332,-0.23328 -0.194138,-0.47474 -0.257816,-0.72457 -0.103792,-0.34016 -0.215728,-0.67816 -0.348278,-1.0083 z m 3.235461,1.42575 c -0.04635,0.22763 0.08871,0.61915 0.36111,0.60051 -0.03564,-0.2331 0.01927,-0.68266 -0.36111,-0.60051 z m 0.0078,0.1974 c -0.01847,0.0608 0.03364,0.0881 0,0 z m -4.294312,-0.13797 c -0.13895,0.0877 -0.609649,0.069 -0.507586,0.2717 0.192956,0.0764 0.460386,0.42765 0.623449,0.31453 -0.03103,-0.19016 0.08629,-0.46244 -0.115863,-0.58623 z m 0.361219,0.33589 c 0.05335,0.37086 0.405445,0.57607 0.69835,0.75112 0.109817,0.25648 0.598995,0.05 0.281169,-0.1447 -0.298755,-0.17627 -0.559378,-0.41489 -0.858929,-0.58211 -0.03895,-0.0131 -0.07955,-0.0217 -0.12059,-0.0243 z m 4.037996,0.50333 c -0.124737,0.31108 -0.248897,0.63797 -0.494458,0.87631 0.04499,0.37118 0.515747,-0.0181 0.578497,-0.21881 0.140942,-0.21412 0.23103,-0.54635 -0.08404,-0.6575 z m -1.797306,0.0977 c -0.05372,0.2519 0.288317,0.56198 0.414898,0.59729 0.13446,-0.24762 -0.07208,-0.44615 -0.286928,-0.53291 -0.04099,-0.0246 -0.08354,-0.0467 -0.12797,-0.0644 z m 0.630969,1.2299 c -0.169218,0.0932 -0.03358,0.6838 0.06646,0.31921 0.130591,-0.13083 0.22255,-0.34302 -0.06646,-0.31921 z m -0.03772,0.53072 c -0.09662,0.0202 0.03582,0.0702 0,0 z" />&#10;      </g>&#10;      <g
   id="g11136"
   transform="translate(-8.2248438,1.9018251)">&#10;        <path
   style="fill:none;stroke:#000000;stroke-width:0.1;stroke-linecap:round;stroke-linejoin:round;stroke-dasharray:none"
   d="m -66.102643,109.75356 -1.175924,-1.60661 0.944457,-0.2082 1.543555,1.01835"
   id="path10951"
   sodipodi:nodetypes="cccc" />&#10;        <path
   style="fill:none;stroke:#000000;stroke-width:0.1;stroke-linecap:round;stroke-linejoin:round;stroke-dasharray:none"
   d="m -66.480049,107.21401 -0.214482,-0.6453 0.410935,-0.96593 1.081651,0.74992 0.92736,2.07496"
   id="path11067" />&#10;        <path
   style="fill:none;stroke:#000000;stroke-width:0.1;stroke-linecap:round;stroke-linejoin:round;stroke-dasharray:none"
   d="m -64.235173,109.63838 -7.94e-4,-0.48024 0.577324,-0.3834 0.440946,0.46788 5.29e-4,0.32332"
   id="path11069"
   sodipodi:nodetypes="ccccc" />&#10;        <path
   style="fill:none;stroke:#000000;stroke-width:0.1;stroke-linecap:round;stroke-linejoin:round;stroke-dasharray:none"
   d="m -63.271069,110.76003 -0.08255,-0.48425 0.448493,-0.16831 0.472379,0.36481"
   id="path11071" />&#10;        <path
   style="fill:none;stroke:#000000;stroke-width:0.1;stroke-linecap:round;stroke-linejoin:round;stroke-dasharray:none"
   d="m -64.499837,106.35422 0.0865,-0.65744 0.632269,0.84345 0.07308,0.86937 -0.223016,0.29201"
   id="path11073"
   sodipodi:nodetypes="ccccc" />&#10;        <path
   style="fill:none;stroke:#000000;stroke-width:0.1;stroke-linecap:round;stroke-linejoin:round;stroke-dasharray:none"
   d="m -63.622414,105.84628 1.357683,-1.05267 0.712113,1.51315 -0.230397,0.88663"
   id="path11124" />&#10;        <path
   style="fill:none;stroke:#000000;stroke-width:0.1;stroke-linecap:round;stroke-linejoin:round;stroke-dasharray:none"
   d="m -62.792253,108.70915 0.303348,-0.33811 0.309108,-0.64237 0.482213,0.0382 0.270233,1.19229 -0.70743,0.93632"
   id="path11126"
   sodipodi:nodetypes="cccccc" />&#10;      </g>&#10;    </g>&#10;  </g>&#10;</g><g
       inkscape:label="svglink:alpaca_color.svg"
       ns3:href="alpaca_color.svg"
       ns4:x="-90.208061"
       ns4:y="100.06606"
       ns3:image-svg-dpi="200"
       ns3:image-height="7.488687"
       ns3:image-width="6.4144788"
       id="g81"
       transform="translate(17.423278,23.074575)"><sodipodi:namedview
   id="namedview79"
   pagecolor="#ffffff"
   bordercolor="#666666"
   borderopacity="1.0"
   inkscape:pageshadow="2"
   inkscape:pageopacity="0"
   inkscape:pagecheckerboard="false"
   inkscape:document-units="mm"
   showgrid="false"
   inkscape:zoom="9.0510665"
   inkscape:cx="15.025854"
   inkscape:cy="29.002107"
   inkscape:window-width="636"
   inkscape:window-height="1037"
   inkscape:window-x="0"
   inkscape:window-y="0"
   inkscape:window-maximized="1"
   inkscape:current-layer="g3099"
   inkscape:showpageshadow="2"
   inkscape:deskcolor="#ffffff"
   transform="translate(-90.2081, 100.066)" />&#10;  <defs
   id="defs79"
   transform="translate(-90.2081, 100.066)">&#10;    <inkscape:path-effect
   effect="simplify"
   id="path-effect3725"
   is_visible="true"
   lpeversion="1"
   steps="1"
   threshold="0.0168421"
   smooth_angles="360"
   helper_size="0"
   simplify_individual_paths="false"
   simplify_just_coalesce="false" />&#10;    <inkscape:path-effect
   effect="simplify"
   id="path-effect3721"
   is_visible="true"
   lpeversion="1"
   steps="1"
   threshold="0.0168421"
   smooth_angles="360"
   helper_size="0"
   simplify_individual_paths="false"
   simplify_just_coalesce="false" />&#10;    <inkscape:path-effect
   effect="simplify"
   id="path-effect3654"
   is_visible="true"
   lpeversion="1"
   steps="1"
   threshold="0.0168421"
   smooth_angles="360"
   helper_size="0"
   simplify_individual_paths="false"
   simplify_just_coalesce="false" />&#10;    <inkscape:path-effect
   effect="simplify"
   id="path-effect3599"
   is_visible="true"
   lpeversion="1"
   steps="1"
   threshold="0.0168421"
   smooth_angles="360"
   helper_size="0"
   simplify_individual_paths="false"
   simplify_just_coalesce="false" />&#10;    <inkscape:path-effect
   effect="simplify"
   id="path-effect3595"
   is_visible="true"
   lpeversion="1"
   steps="1"
   threshold="0.0168421"
   smooth_angles="360"
   helper_size="0"
   simplify_individual_paths="false"
   simplify_just_coalesce="false" />&#10;    <inkscape:path-effect
   effect="simplify"
   id="path-effect3528"
   is_visible="true"
   lpeversion="1"
   steps="1"
   threshold="0.0168421"
   smooth_angles="360"
   helper_size="0"
   simplify_individual_paths="false"
   simplify_just_coalesce="false" />&#10;    <inkscape:path-effect
   effect="simplify"
   id="path-effect3126"
   is_visible="true"
   lpeversion="1"
   steps="1"
   threshold="0.0168421"
   smooth_angles="360"
   helper_size="0"
   simplify_individual_paths="false"
   simplify_just_coalesce="false" />&#10;  </defs>&#10;  <g
   inkscape:label="Layer 1"
   inkscape:groupmode="layer"
   id="g80"
   transform="translate(-35.39,-14.5779)">&#10;    <path
   id="path3124"
   style="fill:#fff5f8;fill-opacity:1;stroke:none;stroke-width:0.2;stroke-linecap:round;stroke-linejoin:round;stroke-dasharray:none"
   d="m -49.296288,114.64431 c -0.756107,0.0108 -1.001838,0.47532 -1.79605,0.22275 -0.955829,-0.30395 0.0642,1.25919 0.309306,1.7585 0.536878,1.09366 -1.403642,0.42014 -2.385479,0.4946 -1.274196,0.0967 -1.616067,0.3346 -1.648538,0.92277 -0.03109,0.56306 0.813024,1.36131 0.885646,2.45563 0.06692,1.00836 0.728657,1.53999 1.151423,1.40591 0.297637,-0.0944 0.828438,0.0837 1.107379,-0.0494 0.698709,-0.33327 0.887879,0.40939 1.677635,0.0773 1.087175,-0.45711 0.298269,-1.27408 0.625704,-1.94171 0.502699,-1.02499 0.491977,-1.99143 0.339689,-2.99677 -0.126793,-0.83704 1.145682,-1.24906 0.378244,-2.06126 -0.161782,-0.17121 -0.470472,-0.29087 -0.644959,-0.28837 z"
   sodipodi:nodetypes="cscccssscssscc" />&#10;    <path
   id="path3526"
   style="fill:#ffd6e3;fill-opacity:1;stroke:none;stroke-width:0.2;stroke-linecap:round;stroke-linejoin:round;stroke-dasharray:none"
   d="m -50.518623,115.29433 c -0.301361,0.0563 -0.205709,0.428 -0.167998,0.64037 0.02941,0.24363 0.06848,0.51403 0.261554,0.68655 0.121222,0.27262 0.491331,0.43146 0.716933,0.18046 0.25508,-0.12137 0.28201,-0.48096 0.0053,-0.59629 -0.248041,-0.15912 -0.46457,-0.37923 -0.558887,-0.66395 -0.05202,-0.10403 -0.119959,-0.25033 -0.256918,-0.24714 z m 1.025261,1.48105 c -0.252191,0.21896 -0.1324,0.59855 -0.242101,0.88345 -0.09911,0.24091 -0.283513,0.43987 -0.345543,0.69828 -0.07834,0.24212 -0.226112,0.5171 -0.509035,0.54592 -0.526093,0.135 -1.047412,0.4459 -1.607409,0.31464 -0.40679,-0.0672 -0.761526,-0.31108 -1.164164,-0.38448 -0.323997,0.0831 -0.0092,0.37946 0.120512,0.49872 0.253162,0.29635 0.600273,0.38495 0.963328,0.4612 0.363055,0.0762 0.630408,-0.0335 1.066466,-0.0829 0.436058,-0.0494 0.946638,0.0613 1.341083,-0.0801 0.394446,-0.14142 0.47529,-0.26489 0.526494,-0.55162 0.12963,-0.3468 0.411343,-0.69272 0.29161,-1.08318 -0.109939,-0.3687 3.98e-4,-0.81317 -0.277741,-1.12184 -0.04573,-0.0437 -0.09575,-0.0951 -0.1635,-0.0981 z m -1.72651,0.70951 c -0.44952,-0.006 -0.913327,0.17206 -1.202702,0.52301 -0.01726,0.19999 0.32423,0.0757 0.459224,0.13081 0.305901,-0.0286 0.539907,0.16039 0.760987,0.33837 0.306684,0.1099 0.608104,-0.18798 0.697077,-0.46438 0.178762,-0.23047 0.08465,-0.55849 -0.251211,-0.51609 -0.15419,0.004 -0.308822,-0.0166 -0.463375,-0.0117 z"
   sodipodi:nodetypes="ccccccccccccccczzzccccccccccccc" />&#10;    <path
   id="path3652"
   style="fill:#ffb3cb;fill-opacity:1;stroke:none;stroke-width:0.2;stroke-linecap:round;stroke-linejoin:round;stroke-dasharray:none"
   d="m -50.535159,115.91083 c -0.136187,0.19502 0.03448,0.41804 0.01658,0.62877 -0.01298,0.33359 0.378974,0.61143 0.691549,0.48163 0.17792,-0.0522 0.137542,-0.28328 0.02438,-0.381 -0.09965,-0.15189 -0.312025,-0.0937 -0.420958,-0.22547 -0.129601,-0.15103 -0.107176,-0.41707 -0.311549,-0.50393 z m 1.169954,1.48001 c -0.236338,0.16623 -0.219138,0.48623 -0.226247,0.74292 0.04552,0.26495 -0.122949,0.49031 -0.247812,0.70624 -0.09212,0.12969 -0.115191,0.31695 0.01168,0.43321 0.111961,0.1317 0.335102,0.15709 0.451392,0.0163 0.212804,-0.21464 0.155629,-0.54006 0.21308,-0.81125 0.01086,-0.33179 0.01759,-0.67326 -0.07606,-0.9943 -0.0252,-0.0474 -0.07053,-0.0884 -0.126035,-0.0931 z m -1.189591,1.6738 c -0.34083,0.0699 -0.589041,0.41263 -0.957427,0.37674 -0.299731,-0.0452 -0.617469,-0.0157 -0.890316,0.12261 -0.05548,0.16215 0.134214,0.26639 0.267136,0.29065 0.171201,0.06 0.320745,-0.0677 0.490367,-0.0338 0.269002,0.0156 0.540046,0.0351 0.807417,-0.007 0.210139,-0.0143 0.470428,-7.7e-4 0.615402,-0.18206 0.129359,-0.21482 -0.07451,-0.46611 -0.271248,-0.55001 0.0015,-0.026 -0.06155,0.005 -0.06133,-0.0169 z" />&#10;    <g
   id="g3099"
   inkscape:label="lines">&#10;      <path
   style="fill:none;stroke:#000000;stroke-width:0.1;stroke-linecap:round;stroke-linejoin:round;stroke-dasharray:none;stroke-opacity:1"
   d="m -49.969209,119.04891 c 0,0 0.269375,-0.0551 0.357757,-0.14735 0.08145,-0.085 0.06453,-0.0984 0.121078,-0.20405 0.03166,-0.0593 0.177362,-0.11274 0.180415,-0.19411 0.0023,-0.0596 -0.05314,-0.21611 -0.04253,-0.26334 0.03269,-0.1456 0.128822,-0.20862 0.108651,-0.3589 -0.007,-0.0523 -0.0692,-0.087 -0.105155,-0.16238 -0.03118,-0.0654 0.07478,-0.18906 0.07058,-0.23394 -0.01,-0.1075 -0.08663,-0.12883 -0.106116,-0.27006"
   id="path74550"
   sodipodi:nodetypes="csssssssc" />&#10;      <path
   style="fill:none;stroke:#000000;stroke-width:0.1;stroke-linecap:round;stroke-linejoin:round;stroke-dasharray:none;stroke-opacity:1"
   d="m -49.370218,115.82307 c 0,0.0229 -0.04878,0.17577 -0.05298,0.26612 -0.0058,0.1248 0.09575,0.26168 0.03879,0.37292 -0.0656,0.12812 -0.230733,0.20898 -0.374541,0.21484 -0.128804,0.005 -0.275634,-0.0593 -0.349992,-0.16448 -0.06883,-0.0975 -0.0096,-0.23969 -0.03512,-0.35628 -0.01643,-0.075 -0.07516,-0.21783 -0.07516,-0.21783"
   id="path74552"
   sodipodi:nodetypes="caaaaac" />&#10;      <path
   style="fill:none;stroke:#000000;stroke-width:0.1;stroke-linecap:round;stroke-linejoin:round;stroke-dasharray:none;stroke-opacity:1"
   d="m -49.067776,115.38959 c 0,0 0.06705,-0.1463 0.135621,-0.16011 0.09671,-0.0194 0.263556,0.13459 0.263556,0.13459"
   id="path74554"
   sodipodi:nodetypes="cac" />&#10;      <path
   style="fill:none;stroke:#000000;stroke-width:0.1;stroke-linecap:round;stroke-linejoin:round;stroke-dasharray:none;stroke-opacity:1"
   d="m -50.563788,115.50488 c -0.0175,0 -0.145759,-0.15049 -0.237217,-0.14088 -0.101047,0.0105 -0.224148,0.20655 -0.224148,0.20655"
   id="path74556"
   sodipodi:nodetypes="cac" />&#10;      <path
   style="fill:none;stroke:#000000;stroke-width:0.1;stroke-linecap:round;stroke-linejoin:round;stroke-dasharray:none;stroke-opacity:1"
   d="m -49.64991,115.30758 c 0,0 -0.106798,-0.0402 -0.16149,-0.0341 -0.07118,0.007 -0.195443,0.0892 -0.195443,0.0892"
   id="path74558"
   sodipodi:nodetypes="cac" />&#10;      <path
   style="fill:none;stroke:#000000;stroke-width:0.1;stroke-linecap:round;stroke-linejoin:round;stroke-dasharray:none;stroke-opacity:1"
   d="m -50.096179,117.15284 c -0.04845,0.0926 -0.05911,0.2048 -0.02444,0.30396 0.02555,0.11344 -0.107375,0.15137 -0.191887,0.15014 -0.0685,0.0635 -0.129433,0.005 -0.146895,0.12638"
   id="path74560"
   sodipodi:nodetypes="cssc" />&#10;      <path
   style="fill:none;stroke:#000000;stroke-width:0.1;stroke-linecap:round;stroke-linejoin:round;stroke-dasharray:none;stroke-opacity:1"
   d="m -51.014169,117.71364 c 0,0 -0.177025,-0.0236 -0.26493,-0.014 -0.198268,0.0219 -0.378109,0.13949 -0.576475,0.16046 -0.2746,0.0288 -0.826734,-0.0514 -0.826734,-0.0514"
   id="path74562"
   sodipodi:nodetypes="caac" />&#10;      <path
   style="fill:none;stroke:#000000;stroke-width:0.1;stroke-linecap:round;stroke-linejoin:round;stroke-dasharray:none;stroke-opacity:1"
   d="m -53.290654,117.71196 c 0,0 -0.299021,-0.14997 -0.452427,-0.12113 -0.179251,0.0339 -0.363101,0.15941 -0.440705,0.32445 -0.08262,0.17579 -0.02388,0.39615 0.03338,0.58174 0.0312,0.1012 0.163588,0.27222 0.163588,0.27222"
   id="path74564"
   sodipodi:nodetypes="caaac" />&#10;      <path
   style="fill:none;stroke:#000000;stroke-width:0.1;stroke-linecap:round;stroke-linejoin:round;stroke-dasharray:none;stroke-opacity:1"
   d="m -53.385644,118.43263 c 0,0 0.01101,0.2578 0.0559,0.37645 0.03454,0.0912 0.15948,0.24544 0.15948,0.24544"
   id="path74566"
   sodipodi:nodetypes="cac" />&#10;      <path
   style="fill:none;stroke:#000000;stroke-width:0.1;stroke-linecap:round;stroke-linejoin:round;stroke-dasharray:none;stroke-opacity:1"
   d="m -51.214625,119.6293 c -0.110678,0.096 -0.219507,0.18808 -0.35344,0.19137 -0.111429,0.003 -0.19336,-0.11764 -0.301519,-0.14456 -0.08311,-0.0206 -0.25675,-0.0105 -0.25675,-0.0105"
   id="path74568"
   sodipodi:nodetypes="caac" />&#10;      <path
   style="fill:none;stroke:#000000;stroke-width:0.1;stroke-linecap:round;stroke-linejoin:round;stroke-dasharray:none;stroke-opacity:1"
   d="m -50.579661,119.26105 c 0,0 -0.146003,0.66935 -0.23231,1.00074 -0.05055,0.1941 -0.129905,0.38097 -0.167136,0.57807 -0.03365,0.17806 -0.1531,0.39235 -0.04996,0.54135 0.04174,0.0603 0.212145,0.0582 0.212145,0.0582"
   id="path74570"
   sodipodi:nodetypes="caaac" />&#10;      <path
   style="fill:none;stroke:#000000;stroke-width:0.1;stroke-linecap:round;stroke-linejoin:round;stroke-dasharray:none;stroke-opacity:1"
   d="m -49.971974,121.26855 c 0,0 -0.163081,0.0372 -0.208375,-0.0157 -0.239096,-0.2794 0.01189,-0.73993 0.08794,-1.0997 0.04008,-0.18951 0.192121,-0.54841 0.192121,-0.54841"
   id="path74572"
   sodipodi:nodetypes="caac" />&#10;      <path
   style="fill:none;stroke:#000000;stroke-width:0.1;stroke-linecap:round;stroke-linejoin:round;stroke-dasharray:none;stroke-opacity:1"
   d="m -52.134208,121.44036 c 0,0 -0.118841,-0.0215 -0.161263,-0.0601 -0.287182,-0.26142 -0.450673,-0.66458 -0.507372,-1.04879 -0.05197,-0.3521 0.167503,-1.05452 0.167503,-1.05452"
   id="path74574"
   sodipodi:nodetypes="caac" />&#10;      <path
   style="fill:none;stroke:#000000;stroke-width:0.1;stroke-linecap:round;stroke-linejoin:round;stroke-dasharray:none;stroke-opacity:1"
   d="m -53.376861,119.67372 c 0,0 -0.17217,0.3403 -0.186445,0.52567 -0.02297,0.2981 0.09241,0.59174 0.166821,0.88132 0.02234,0.0869 0.01,0.20461 0.08366,0.25586 0.04889,0.0341 0.178501,-0.007 0.178501,-0.007"
   id="path74576"
   sodipodi:nodetypes="caaac" />&#10;    </g>&#10;  </g>&#10;</g><g
       inkscape:label="svglink:alpaca_color.svg"
       ns3:href="alpaca_color.svg"
       ns4:x="-90.208061"
       ns4:y="100.06606"
       ns3:image-svg-dpi="200"
       ns3:image-height="7.488687"
       ns3:image-width="6.4144788"
       id="g105"
       transform="translate(5.5111237,13.108277)"><sodipodi:namedview
   id="namedview81"
   pagecolor="#ffffff"
   bordercolor="#666666"
   borderopacity="1.0"
   inkscape:pageshadow="2"
   inkscape:pageopacity="0"
   inkscape:pagecheckerboard="false"
   inkscape:document-units="mm"
   showgrid="false"
   inkscape:zoom="9.0510665"
   inkscape:cx="15.025854"
   inkscape:cy="29.002107"
   inkscape:window-width="636"
   inkscape:window-height="1037"
   inkscape:window-x="0"
   inkscape:window-y="0"
   inkscape:window-maximized="1"
   inkscape:current-layer="g3099"
   inkscape:showpageshadow="2"
   inkscape:deskcolor="#ffffff"
   transform="translate(-90.2081, 100.066)" />&#10;  <defs
   id="defs87"
   transform="translate(-90.2081, 100.066)">&#10;    <inkscape:path-effect
   effect="simplify"
   id="path-effect81"
   is_visible="true"
   lpeversion="1"
   steps="1"
   threshold="0.0168421"
   smooth_angles="360"
   helper_size="0"
   simplify_individual_paths="false"
   simplify_just_coalesce="false" />&#10;    <inkscape:path-effect
   effect="simplify"
   id="path-effect82"
   is_visible="true"
   lpeversion="1"
   steps="1"
   threshold="0.0168421"
   smooth_angles="360"
   helper_size="0"
   simplify_individual_paths="false"
   simplify_just_coalesce="false" />&#10;    <inkscape:path-effect
   effect="simplify"
   id="path-effect83"
   is_visible="true"
   lpeversion="1"
   steps="1"
   threshold="0.0168421"
   smooth_angles="360"
   helper_size="0"
   simplify_individual_paths="false"
   simplify_just_coalesce="false" />&#10;    <inkscape:path-effect
   effect="simplify"
   id="path-effect84"
   is_visible="true"
   lpeversion="1"
   steps="1"
   threshold="0.0168421"
   smooth_angles="360"
   helper_size="0"
   simplify_individual_paths="false"
   simplify_just_coalesce="false" />&#10;    <inkscape:path-effect
   effect="simplify"
   id="path-effect85"
   is_visible="true"
   lpeversion="1"
   steps="1"
   threshold="0.0168421"
   smooth_angles="360"
   helper_size="0"
   simplify_individual_paths="false"
   simplify_just_coalesce="false" />&#10;    <inkscape:path-effect
   effect="simplify"
   id="path-effect86"
   is_visible="true"
   lpeversion="1"
   steps="1"
   threshold="0.0168421"
   smooth_angles="360"
   helper_size="0"
   simplify_individual_paths="false"
   simplify_just_coalesce="false" />&#10;    <inkscape:path-effect
   effect="simplify"
   id="path-effect87"
   is_visible="true"
   lpeversion="1"
   steps="1"
   threshold="0.0168421"
   smooth_angles="360"
   helper_size="0"
   simplify_individual_paths="false"
   simplify_just_coalesce="false" />&#10;  </defs>&#10;  <g
   inkscape:label="Layer 1"
   inkscape:groupmode="layer"
   id="g104"
   transform="translate(-35.39,-14.5779)">&#10;    <path
   id="path87"
   style="fill:#fff5f8;fill-opacity:1;stroke:none;stroke-width:0.2;stroke-linecap:round;stroke-linejoin:round;stroke-dasharray:none"
   d="m -49.296288,114.64431 c -0.756107,0.0108 -1.001838,0.47532 -1.79605,0.22275 -0.955829,-0.30395 0.0642,1.25919 0.309306,1.7585 0.536878,1.09366 -1.403642,0.42014 -2.385479,0.4946 -1.274196,0.0967 -1.616067,0.3346 -1.648538,0.92277 -0.03109,0.56306 0.813024,1.36131 0.885646,2.45563 0.06692,1.00836 0.728657,1.53999 1.151423,1.40591 0.297637,-0.0944 0.828438,0.0837 1.107379,-0.0494 0.698709,-0.33327 0.887879,0.40939 1.677635,0.0773 1.087175,-0.45711 0.298269,-1.27408 0.625704,-1.94171 0.502699,-1.02499 0.491977,-1.99143 0.339689,-2.99677 -0.126793,-0.83704 1.145682,-1.24906 0.378244,-2.06126 -0.161782,-0.17121 -0.470472,-0.29087 -0.644959,-0.28837 z"
   sodipodi:nodetypes="cscccssscssscc" />&#10;    <path
   id="path88"
   style="fill:#ffd6e3;fill-opacity:1;stroke:none;stroke-width:0.2;stroke-linecap:round;stroke-linejoin:round;stroke-dasharray:none"
   d="m -50.518623,115.29433 c -0.301361,0.0563 -0.205709,0.428 -0.167998,0.64037 0.02941,0.24363 0.06848,0.51403 0.261554,0.68655 0.121222,0.27262 0.491331,0.43146 0.716933,0.18046 0.25508,-0.12137 0.28201,-0.48096 0.0053,-0.59629 -0.248041,-0.15912 -0.46457,-0.37923 -0.558887,-0.66395 -0.05202,-0.10403 -0.119959,-0.25033 -0.256918,-0.24714 z m 1.025261,1.48105 c -0.252191,0.21896 -0.1324,0.59855 -0.242101,0.88345 -0.09911,0.24091 -0.283513,0.43987 -0.345543,0.69828 -0.07834,0.24212 -0.226112,0.5171 -0.509035,0.54592 -0.526093,0.135 -1.047412,0.4459 -1.607409,0.31464 -0.40679,-0.0672 -0.761526,-0.31108 -1.164164,-0.38448 -0.323997,0.0831 -0.0092,0.37946 0.120512,0.49872 0.253162,0.29635 0.600273,0.38495 0.963328,0.4612 0.363055,0.0762 0.630408,-0.0335 1.066466,-0.0829 0.436058,-0.0494 0.946638,0.0613 1.341083,-0.0801 0.394446,-0.14142 0.47529,-0.26489 0.526494,-0.55162 0.12963,-0.3468 0.411343,-0.69272 0.29161,-1.08318 -0.109939,-0.3687 3.98e-4,-0.81317 -0.277741,-1.12184 -0.04573,-0.0437 -0.09575,-0.0951 -0.1635,-0.0981 z m -1.72651,0.70951 c -0.44952,-0.006 -0.913327,0.17206 -1.202702,0.52301 -0.01726,0.19999 0.32423,0.0757 0.459224,0.13081 0.305901,-0.0286 0.539907,0.16039 0.760987,0.33837 0.306684,0.1099 0.608104,-0.18798 0.697077,-0.46438 0.178762,-0.23047 0.08465,-0.55849 -0.251211,-0.51609 -0.15419,0.004 -0.308822,-0.0166 -0.463375,-0.0117 z"
   sodipodi:nodetypes="ccccccccccccccczzzccccccccccccc" />&#10;    <path
   id="path89"
   style="fill:#ffb3cb;fill-opacity:1;stroke:none;stroke-width:0.2;stroke-linecap:round;stroke-linejoin:round;stroke-dasharray:none"
   d="m -50.535159,115.91083 c -0.136187,0.19502 0.03448,0.41804 0.01658,0.62877 -0.01298,0.33359 0.378974,0.61143 0.691549,0.48163 0.17792,-0.0522 0.137542,-0.28328 0.02438,-0.381 -0.09965,-0.15189 -0.312025,-0.0937 -0.420958,-0.22547 -0.129601,-0.15103 -0.107176,-0.41707 -0.311549,-0.50393 z m 1.169954,1.48001 c -0.236338,0.16623 -0.219138,0.48623 -0.226247,0.74292 0.04552,0.26495 -0.122949,0.49031 -0.247812,0.70624 -0.09212,0.12969 -0.115191,0.31695 0.01168,0.43321 0.111961,0.1317 0.335102,0.15709 0.451392,0.0163 0.212804,-0.21464 0.155629,-0.54006 0.21308,-0.81125 0.01086,-0.33179 0.01759,-0.67326 -0.07606,-0.9943 -0.0252,-0.0474 -0.07053,-0.0884 -0.126035,-0.0931 z m -1.189591,1.6738 c -0.34083,0.0699 -0.589041,0.41263 -0.957427,0.37674 -0.299731,-0.0452 -0.617469,-0.0157 -0.890316,0.12261 -0.05548,0.16215 0.134214,0.26639 0.267136,0.29065 0.171201,0.06 0.320745,-0.0677 0.490367,-0.0338 0.269002,0.0156 0.540046,0.0351 0.807417,-0.007 0.210139,-0.0143 0.470428,-7.7e-4 0.615402,-0.18206 0.129359,-0.21482 -0.07451,-0.46611 -0.271248,-0.55001 0.0015,-0.026 -0.06155,0.005 -0.06133,-0.0169 z" />&#10;    <g
   id="g103"
   inkscape:label="lines">&#10;      <path
   style="fill:none;stroke:#000000;stroke-width:0.1;stroke-linecap:round;stroke-linejoin:round;stroke-dasharray:none;stroke-opacity:1"
   d="m -49.969209,119.04891 c 0,0 0.269375,-0.0551 0.357757,-0.14735 0.08145,-0.085 0.06453,-0.0984 0.121078,-0.20405 0.03166,-0.0593 0.177362,-0.11274 0.180415,-0.19411 0.0023,-0.0596 -0.05314,-0.21611 -0.04253,-0.26334 0.03269,-0.1456 0.128822,-0.20862 0.108651,-0.3589 -0.007,-0.0523 -0.0692,-0.087 -0.105155,-0.16238 -0.03118,-0.0654 0.07478,-0.18906 0.07058,-0.23394 -0.01,-0.1075 -0.08663,-0.12883 -0.106116,-0.27006"
   id="path90"
   sodipodi:nodetypes="csssssssc" />&#10;      <path
   style="fill:none;stroke:#000000;stroke-width:0.1;stroke-linecap:round;stroke-linejoin:round;stroke-dasharray:none;stroke-opacity:1"
   d="m -49.370218,115.82307 c 0,0.0229 -0.04878,0.17577 -0.05298,0.26612 -0.0058,0.1248 0.09575,0.26168 0.03879,0.37292 -0.0656,0.12812 -0.230733,0.20898 -0.374541,0.21484 -0.128804,0.005 -0.275634,-0.0593 -0.349992,-0.16448 -0.06883,-0.0975 -0.0096,-0.23969 -0.03512,-0.35628 -0.01643,-0.075 -0.07516,-0.21783 -0.07516,-0.21783"
   id="path91"
   sodipodi:nodetypes="caaaaac" />&#10;      <path
   style="fill:none;stroke:#000000;stroke-width:0.1;stroke-linecap:round;stroke-linejoin:round;stroke-dasharray:none;stroke-opacity:1"
   d="m -49.067776,115.38959 c 0,0 0.06705,-0.1463 0.135621,-0.16011 0.09671,-0.0194 0.263556,0.13459 0.263556,0.13459"
   id="path92"
   sodipodi:nodetypes="cac" />&#10;      <path
   style="fill:none;stroke:#000000;stroke-width:0.1;stroke-linecap:round;stroke-linejoin:round;stroke-dasharray:none;stroke-opacity:1"
   d="m -50.563788,115.50488 c -0.0175,0 -0.145759,-0.15049 -0.237217,-0.14088 -0.101047,0.0105 -0.224148,0.20655 -0.224148,0.20655"
   id="path93"
   sodipodi:nodetypes="cac" />&#10;      <path
   style="fill:none;stroke:#000000;stroke-width:0.1;stroke-linecap:round;stroke-linejoin:round;stroke-dasharray:none;stroke-opacity:1"
   d="m -49.64991,115.30758 c 0,0 -0.106798,-0.0402 -0.16149,-0.0341 -0.07118,0.007 -0.195443,0.0892 -0.195443,0.0892"
   id="path94"
   sodipodi:nodetypes="cac" />&#10;      <path
   style="fill:none;stroke:#000000;stroke-width:0.1;stroke-linecap:round;stroke-linejoin:round;stroke-dasharray:none;stroke-opacity:1"
   d="m -50.096179,117.15284 c -0.04845,0.0926 -0.05911,0.2048 -0.02444,0.30396 0.02555,0.11344 -0.107375,0.15137 -0.191887,0.15014 -0.0685,0.0635 -0.129433,0.005 -0.146895,0.12638"
   id="path95"
   sodipodi:nodetypes="cssc" />&#10;      <path
   style="fill:none;stroke:#000000;stroke-width:0.1;stroke-linecap:round;stroke-linejoin:round;stroke-dasharray:none;stroke-opacity:1"
   d="m -51.014169,117.71364 c 0,0 -0.177025,-0.0236 -0.26493,-0.014 -0.198268,0.0219 -0.378109,0.13949 -0.576475,0.16046 -0.2746,0.0288 -0.826734,-0.0514 -0.826734,-0.0514"
   id="path96"
   sodipodi:nodetypes="caac" />&#10;      <path
   style="fill:none;stroke:#000000;stroke-width:0.1;stroke-linecap:round;stroke-linejoin:round;stroke-dasharray:none;stroke-opacity:1"
   d="m -53.290654,117.71196 c 0,0 -0.299021,-0.14997 -0.452427,-0.12113 -0.179251,0.0339 -0.363101,0.15941 -0.440705,0.32445 -0.08262,0.17579 -0.02388,0.39615 0.03338,0.58174 0.0312,0.1012 0.163588,0.27222 0.163588,0.27222"
   id="path97"
   sodipodi:nodetypes="caaac" />&#10;      <path
   style="fill:none;stroke:#000000;stroke-width:0.1;stroke-linecap:round;stroke-linejoin:round;stroke-dasharray:none;stroke-opacity:1"
   d="m -53.385644,118.43263 c 0,0 0.01101,0.2578 0.0559,0.37645 0.03454,0.0912 0.15948,0.24544 0.15948,0.24544"
   id="path98"
   sodipodi:nodetypes="cac" />&#10;      <path
   style="fill:none;stroke:#000000;stroke-width:0.1;stroke-linecap:round;stroke-linejoin:round;stroke-dasharray:none;stroke-opacity:1"
   d="m -51.214625,119.6293 c -0.110678,0.096 -0.219507,0.18808 -0.35344,0.19137 -0.111429,0.003 -0.19336,-0.11764 -0.301519,-0.14456 -0.08311,-0.0206 -0.25675,-0.0105 -0.25675,-0.0105"
   id="path99"
   sodipodi:nodetypes="caac" />&#10;      <path
   style="fill:none;stroke:#000000;stroke-width:0.1;stroke-linecap:round;stroke-linejoin:round;stroke-dasharray:none;stroke-opacity:1"
   d="m -50.579661,119.26105 c 0,0 -0.146003,0.66935 -0.23231,1.00074 -0.05055,0.1941 -0.129905,0.38097 -0.167136,0.57807 -0.03365,0.17806 -0.1531,0.39235 -0.04996,0.54135 0.04174,0.0603 0.212145,0.0582 0.212145,0.0582"
   id="path100"
   sodipodi:nodetypes="caaac" />&#10;      <path
   style="fill:none;stroke:#000000;stroke-width:0.1;stroke-linecap:round;stroke-linejoin:round;stroke-dasharray:none;stroke-opacity:1"
   d="m -49.971974,121.26855 c 0,0 -0.163081,0.0372 -0.208375,-0.0157 -0.239096,-0.2794 0.01189,-0.73993 0.08794,-1.0997 0.04008,-0.18951 0.192121,-0.54841 0.192121,-0.54841"
   id="path101"
   sodipodi:nodetypes="caac" />&#10;      <path
   style="fill:none;stroke:#000000;stroke-width:0.1;stroke-linecap:round;stroke-linejoin:round;stroke-dasharray:none;stroke-opacity:1"
   d="m -52.134208,121.44036 c 0,0 -0.118841,-0.0215 -0.161263,-0.0601 -0.287182,-0.26142 -0.450673,-0.66458 -0.507372,-1.04879 -0.05197,-0.3521 0.167503,-1.05452 0.167503,-1.05452"
   id="path102"
   sodipodi:nodetypes="caac" />&#10;      <path
   style="fill:none;stroke:#000000;stroke-width:0.1;stroke-linecap:round;stroke-linejoin:round;stroke-dasharray:none;stroke-opacity:1"
   d="m -53.376861,119.67372 c 0,0 -0.17217,0.3403 -0.186445,0.52567 -0.02297,0.2981 0.09241,0.59174 0.166821,0.88132 0.02234,0.0869 0.01,0.20461 0.08366,0.25586 0.04889,0.0341 0.178501,-0.007 0.178501,-0.007"
   id="path103"
   sodipodi:nodetypes="caaac" />&#10;    </g>&#10;  </g>&#10;</g><g
       inkscape:label="svglink:alpaca_color.svg"
       ns3:href="alpaca_color.svg"
       ns4:x="-90.208061"
       ns4:y="100.06606"
       ns3:image-svg-dpi="200"
       ns3:image-height="7.488687"
       ns3:image-width="6.4144788"
       id="g129"
       transform="translate(26.15044,13.01355)"><sodipodi:namedview
   id="namedview105"
   pagecolor="#ffffff"
   bordercolor="#666666"
   borderopacity="1.0"
   inkscape:pageshadow="2"
   inkscape:pageopacity="0"
   inkscape:pagecheckerboard="false"
   inkscape:document-units="mm"
   showgrid="false"
   inkscape:zoom="9.0510665"
   inkscape:cx="15.025854"
   inkscape:cy="29.002107"
   inkscape:window-width="636"
   inkscape:window-height="1037"
   inkscape:window-x="0"
   inkscape:window-y="0"
   inkscape:window-maximized="1"
   inkscape:current-layer="g3099"
   inkscape:showpageshadow="2"
   inkscape:deskcolor="#ffffff"
   transform="translate(-90.2081, 100.066)" />&#10;  <defs
   id="defs111"
   transform="translate(-90.2081, 100.066)">&#10;    <inkscape:path-effect
   effect="simplify"
   id="path-effect105"
   is_visible="true"
   lpeversion="1"
   steps="1"
   threshold="0.0168421"
   smooth_angles="360"
   helper_size="0"
   simplify_individual_paths="false"
   simplify_just_coalesce="false" />&#10;    <inkscape:path-effect
   effect="simplify"
   id="path-effect106"
   is_visible="true"
   lpeversion="1"
   steps="1"
   threshold="0.0168421"
   smooth_angles="360"
   helper_size="0"
   simplify_individual_paths="false"
   simplify_just_coalesce="false" />&#10;    <inkscape:path-effect
   effect="simplify"
   id="path-effect107"
   is_visible="true"
   lpeversion="1"
   steps="1"
   threshold="0.0168421"
   smooth_angles="360"
   helper_size="0"
   simplify_individual_paths="false"
   simplify_just_coalesce="false" />&#10;    <inkscape:path-effect
   effect="simplify"
   id="path-effect108"
   is_visible="true"
   lpeversion="1"
   steps="1"
   threshold="0.0168421"
   smooth_angles="360"
   helper_size="0"
   simplify_individual_paths="false"
   simplify_just_coalesce="false" />&#10;    <inkscape:path-effect
   effect="simplify"
   id="path-effect109"
   is_visible="true"
   lpeversion="1"
   steps="1"
   threshold="0.0168421"
   smooth_angles="360"
   helper_size="0"
   simplify_individual_paths="false"
   simplify_just_coalesce="false" />&#10;    <inkscape:path-effect
   effect="simplify"
   id="path-effect110"
   is_visible="true"
   lpeversion="1"
   steps="1"
   threshold="0.0168421"
   smooth_angles="360"
   helper_size="0"
   simplify_individual_paths="false"
   simplify_just_coalesce="false" />&#10;    <inkscape:path-effect
   effect="simplify"
   id="path-effect111"
   is_visible="true"
   lpeversion="1"
   steps="1"
   threshold="0.0168421"
   smooth_angles="360"
   helper_size="0"
   simplify_individual_paths="false"
   simplify_just_coalesce="false" />&#10;  </defs>&#10;  <g
   inkscape:label="Layer 1"
   inkscape:groupmode="layer"
   id="g128"
   transform="translate(-35.39,-14.5779)">&#10;    <path
   id="path111"
   style="fill:#fff5f8;fill-opacity:1;stroke:none;stroke-width:0.2;stroke-linecap:round;stroke-linejoin:round;stroke-dasharray:none"
   d="m -49.296288,114.64431 c -0.756107,0.0108 -1.001838,0.47532 -1.79605,0.22275 -0.955829,-0.30395 0.0642,1.25919 0.309306,1.7585 0.536878,1.09366 -1.403642,0.42014 -2.385479,0.4946 -1.274196,0.0967 -1.616067,0.3346 -1.648538,0.92277 -0.03109,0.56306 0.813024,1.36131 0.885646,2.45563 0.06692,1.00836 0.728657,1.53999 1.151423,1.40591 0.297637,-0.0944 0.828438,0.0837 1.107379,-0.0494 0.698709,-0.33327 0.887879,0.40939 1.677635,0.0773 1.087175,-0.45711 0.298269,-1.27408 0.625704,-1.94171 0.502699,-1.02499 0.491977,-1.99143 0.339689,-2.99677 -0.126793,-0.83704 1.145682,-1.24906 0.378244,-2.06126 -0.161782,-0.17121 -0.470472,-0.29087 -0.644959,-0.28837 z"
   sodipodi:nodetypes="cscccssscssscc" />&#10;    <path
   id="path112"
   style="fill:#ffd6e3;fill-opacity:1;stroke:none;stroke-width:0.2;stroke-linecap:round;stroke-linejoin:round;stroke-dasharray:none"
   d="m -50.518623,115.29433 c -0.301361,0.0563 -0.205709,0.428 -0.167998,0.64037 0.02941,0.24363 0.06848,0.51403 0.261554,0.68655 0.121222,0.27262 0.491331,0.43146 0.716933,0.18046 0.25508,-0.12137 0.28201,-0.48096 0.0053,-0.59629 -0.248041,-0.15912 -0.46457,-0.37923 -0.558887,-0.66395 -0.05202,-0.10403 -0.119959,-0.25033 -0.256918,-0.24714 z m 1.025261,1.48105 c -0.252191,0.21896 -0.1324,0.59855 -0.242101,0.88345 -0.09911,0.24091 -0.283513,0.43987 -0.345543,0.69828 -0.07834,0.24212 -0.226112,0.5171 -0.509035,0.54592 -0.526093,0.135 -1.047412,0.4459 -1.607409,0.31464 -0.40679,-0.0672 -0.761526,-0.31108 -1.164164,-0.38448 -0.323997,0.0831 -0.0092,0.37946 0.120512,0.49872 0.253162,0.29635 0.600273,0.38495 0.963328,0.4612 0.363055,0.0762 0.630408,-0.0335 1.066466,-0.0829 0.436058,-0.0494 0.946638,0.0613 1.341083,-0.0801 0.394446,-0.14142 0.47529,-0.26489 0.526494,-0.55162 0.12963,-0.3468 0.411343,-0.69272 0.29161,-1.08318 -0.109939,-0.3687 3.98e-4,-0.81317 -0.277741,-1.12184 -0.04573,-0.0437 -0.09575,-0.0951 -0.1635,-0.0981 z m -1.72651,0.70951 c -0.44952,-0.006 -0.913327,0.17206 -1.202702,0.52301 -0.01726,0.19999 0.32423,0.0757 0.459224,0.13081 0.305901,-0.0286 0.539907,0.16039 0.760987,0.33837 0.306684,0.1099 0.608104,-0.18798 0.697077,-0.46438 0.178762,-0.23047 0.08465,-0.55849 -0.251211,-0.51609 -0.15419,0.004 -0.308822,-0.0166 -0.463375,-0.0117 z"
   sodipodi:nodetypes="ccccccccccccccczzzccccccccccccc" />&#10;    <path
   id="path113"
   style="fill:#ffb3cb;fill-opacity:1;stroke:none;stroke-width:0.2;stroke-linecap:round;stroke-linejoin:round;stroke-dasharray:none"
   d="m -50.535159,115.91083 c -0.136187,0.19502 0.03448,0.41804 0.01658,0.62877 -0.01298,0.33359 0.378974,0.61143 0.691549,0.48163 0.17792,-0.0522 0.137542,-0.28328 0.02438,-0.381 -0.09965,-0.15189 -0.312025,-0.0937 -0.420958,-0.22547 -0.129601,-0.15103 -0.107176,-0.41707 -0.311549,-0.50393 z m 1.169954,1.48001 c -0.236338,0.16623 -0.219138,0.48623 -0.226247,0.74292 0.04552,0.26495 -0.122949,0.49031 -0.247812,0.70624 -0.09212,0.12969 -0.115191,0.31695 0.01168,0.43321 0.111961,0.1317 0.335102,0.15709 0.451392,0.0163 0.212804,-0.21464 0.155629,-0.54006 0.21308,-0.81125 0.01086,-0.33179 0.01759,-0.67326 -0.07606,-0.9943 -0.0252,-0.0474 -0.07053,-0.0884 -0.126035,-0.0931 z m -1.189591,1.6738 c -0.34083,0.0699 -0.589041,0.41263 -0.957427,0.37674 -0.299731,-0.0452 -0.617469,-0.0157 -0.890316,0.12261 -0.05548,0.16215 0.134214,0.26639 0.267136,0.29065 0.171201,0.06 0.320745,-0.0677 0.490367,-0.0338 0.269002,0.0156 0.540046,0.0351 0.807417,-0.007 0.210139,-0.0143 0.470428,-7.7e-4 0.615402,-0.18206 0.129359,-0.21482 -0.07451,-0.46611 -0.271248,-0.55001 0.0015,-0.026 -0.06155,0.005 -0.06133,-0.0169 z" />&#10;    <g
   id="g127"
   inkscape:label="lines">&#10;      <path
   style="fill:none;stroke:#000000;stroke-width:0.1;stroke-linecap:round;stroke-linejoin:round;stroke-dasharray:none;stroke-opacity:1"
   d="m -49.969209,119.04891 c 0,0 0.269375,-0.0551 0.357757,-0.14735 0.08145,-0.085 0.06453,-0.0984 0.121078,-0.20405 0.03166,-0.0593 0.177362,-0.11274 0.180415,-0.19411 0.0023,-0.0596 -0.05314,-0.21611 -0.04253,-0.26334 0.03269,-0.1456 0.128822,-0.20862 0.108651,-0.3589 -0.007,-0.0523 -0.0692,-0.087 -0.105155,-0.16238 -0.03118,-0.0654 0.07478,-0.18906 0.07058,-0.23394 -0.01,-0.1075 -0.08663,-0.12883 -0.106116,-0.27006"
   id="path114"
   sodipodi:nodetypes="csssssssc" />&#10;      <path
   style="fill:none;stroke:#000000;stroke-width:0.1;stroke-linecap:round;stroke-linejoin:round;stroke-dasharray:none;stroke-opacity:1"
   d="m -49.370218,115.82307 c 0,0.0229 -0.04878,0.17577 -0.05298,0.26612 -0.0058,0.1248 0.09575,0.26168 0.03879,0.37292 -0.0656,0.12812 -0.230733,0.20898 -0.374541,0.21484 -0.128804,0.005 -0.275634,-0.0593 -0.349992,-0.16448 -0.06883,-0.0975 -0.0096,-0.23969 -0.03512,-0.35628 -0.01643,-0.075 -0.07516,-0.21783 -0.07516,-0.21783"
   id="path115"
   sodipodi:nodetypes="caaaaac" />&#10;      <path
   style="fill:none;stroke:#000000;stroke-width:0.1;stroke-linecap:round;stroke-linejoin:round;stroke-dasharray:none;stroke-opacity:1"
   d="m -49.067776,115.38959 c 0,0 0.06705,-0.1463 0.135621,-0.16011 0.09671,-0.0194 0.263556,0.13459 0.263556,0.13459"
   id="path116"
   sodipodi:nodetypes="cac" />&#10;      <path
   style="fill:none;stroke:#000000;stroke-width:0.1;stroke-linecap:round;stroke-linejoin:round;stroke-dasharray:none;stroke-opacity:1"
   d="m -50.563788,115.50488 c -0.0175,0 -0.145759,-0.15049 -0.237217,-0.14088 -0.101047,0.0105 -0.224148,0.20655 -0.224148,0.20655"
   id="path117"
   sodipodi:nodetypes="cac" />&#10;      <path
   style="fill:none;stroke:#000000;stroke-width:0.1;stroke-linecap:round;stroke-linejoin:round;stroke-dasharray:none;stroke-opacity:1"
   d="m -49.64991,115.30758 c 0,0 -0.106798,-0.0402 -0.16149,-0.0341 -0.07118,0.007 -0.195443,0.0892 -0.195443,0.0892"
   id="path118"
   sodipodi:nodetypes="cac" />&#10;      <path
   style="fill:none;stroke:#000000;stroke-width:0.1;stroke-linecap:round;stroke-linejoin:round;stroke-dasharray:none;stroke-opacity:1"
   d="m -50.096179,117.15284 c -0.04845,0.0926 -0.05911,0.2048 -0.02444,0.30396 0.02555,0.11344 -0.107375,0.15137 -0.191887,0.15014 -0.0685,0.0635 -0.129433,0.005 -0.146895,0.12638"
   id="path119"
   sodipodi:nodetypes="cssc" />&#10;      <path
   style="fill:none;stroke:#000000;stroke-width:0.1;stroke-linecap:round;stroke-linejoin:round;stroke-dasharray:none;stroke-opacity:1"
   d="m -51.014169,117.71364 c 0,0 -0.177025,-0.0236 -0.26493,-0.014 -0.198268,0.0219 -0.378109,0.13949 -0.576475,0.16046 -0.2746,0.0288 -0.826734,-0.0514 -0.826734,-0.0514"
   id="path120"
   sodipodi:nodetypes="caac" />&#10;      <path
   style="fill:none;stroke:#000000;stroke-width:0.1;stroke-linecap:round;stroke-linejoin:round;stroke-dasharray:none;stroke-opacity:1"
   d="m -53.290654,117.71196 c 0,0 -0.299021,-0.14997 -0.452427,-0.12113 -0.179251,0.0339 -0.363101,0.15941 -0.440705,0.32445 -0.08262,0.17579 -0.02388,0.39615 0.03338,0.58174 0.0312,0.1012 0.163588,0.27222 0.163588,0.27222"
   id="path121"
   sodipodi:nodetypes="caaac" />&#10;      <path
   style="fill:none;stroke:#000000;stroke-width:0.1;stroke-linecap:round;stroke-linejoin:round;stroke-dasharray:none;stroke-opacity:1"
   d="m -53.385644,118.43263 c 0,0 0.01101,0.2578 0.0559,0.37645 0.03454,0.0912 0.15948,0.24544 0.15948,0.24544"
   id="path122"
   sodipodi:nodetypes="cac" />&#10;      <path
   style="fill:none;stroke:#000000;stroke-width:0.1;stroke-linecap:round;stroke-linejoin:round;stroke-dasharray:none;stroke-opacity:1"
   d="m -51.214625,119.6293 c -0.110678,0.096 -0.219507,0.18808 -0.35344,0.19137 -0.111429,0.003 -0.19336,-0.11764 -0.301519,-0.14456 -0.08311,-0.0206 -0.25675,-0.0105 -0.25675,-0.0105"
   id="path123"
   sodipodi:nodetypes="caac" />&#10;      <path
   style="fill:none;stroke:#000000;stroke-width:0.1;stroke-linecap:round;stroke-linejoin:round;stroke-dasharray:none;stroke-opacity:1"
   d="m -50.579661,119.26105 c 0,0 -0.146003,0.66935 -0.23231,1.00074 -0.05055,0.1941 -0.129905,0.38097 -0.167136,0.57807 -0.03365,0.17806 -0.1531,0.39235 -0.04996,0.54135 0.04174,0.0603 0.212145,0.0582 0.212145,0.0582"
   id="path124"
   sodipodi:nodetypes="caaac" />&#10;      <path
   style="fill:none;stroke:#000000;stroke-width:0.1;stroke-linecap:round;stroke-linejoin:round;stroke-dasharray:none;stroke-opacity:1"
   d="m -49.971974,121.26855 c 0,0 -0.163081,0.0372 -0.208375,-0.0157 -0.239096,-0.2794 0.01189,-0.73993 0.08794,-1.0997 0.04008,-0.18951 0.192121,-0.54841 0.192121,-0.54841"
   id="path125"
   sodipodi:nodetypes="caac" />&#10;      <path
   style="fill:none;stroke:#000000;stroke-width:0.1;stroke-linecap:round;stroke-linejoin:round;stroke-dasharray:none;stroke-opacity:1"
   d="m -52.134208,121.44036 c 0,0 -0.118841,-0.0215 -0.161263,-0.0601 -0.287182,-0.26142 -0.450673,-0.66458 -0.507372,-1.04879 -0.05197,-0.3521 0.167503,-1.05452 0.167503,-1.05452"
   id="path126"
   sodipodi:nodetypes="caac" />&#10;      <path
   style="fill:none;stroke:#000000;stroke-width:0.1;stroke-linecap:round;stroke-linejoin:round;stroke-dasharray:none;stroke-opacity:1"
   d="m -53.376861,119.67372 c 0,0 -0.17217,0.3403 -0.186445,0.52567 -0.02297,0.2981 0.09241,0.59174 0.166821,0.88132 0.02234,0.0869 0.01,0.20461 0.08366,0.25586 0.04889,0.0341 0.178501,-0.007 0.178501,-0.007"
   id="path127"
   sodipodi:nodetypes="caaac" />&#10;    </g>&#10;  </g>&#10;</g></g></svg>
