<?xml version="1.0" encoding="UTF-8" standalone="no"?>
<!-- Created with Inkscape (http://www.inkscape.org/) -->

<svg
   xml:space="preserve"
   sodipodi:docname="art_0_color.svg"
   inkscape:version="1.3 (0e150ed6c4, 2023-07-21)"
   id="svg5"
   version="1.1"
   viewBox="0 0 32.333828 36.433018"
   height="36.433018mm"
   width="32.333828mm"
   xmlns:inkscape="http://www.inkscape.org/namespaces/inkscape"
   xmlns:sodipodi="http://sodipodi.sourceforge.net/DTD/sodipodi-0.dtd"
   xmlns="http://www.w3.org/2000/svg"
   xmlns:svg="http://www.w3.org/2000/svg"
   xmlns:ns3="svglink"
   xmlns:ns4="svglink:origin"><sodipodi:namedview
     id="namedview7"
     pagecolor="#ffffff"
     bordercolor="#666666"
     borderopacity="1.0"
     inkscape:pageshadow="2"
     inkscape:pageopacity="0"
     inkscape:pagecheckerboard="false"
     inkscape:document-units="mm"
     showgrid="false"
     inkscape:zoom="12.624463"
     inkscape:cx="77.508245"
     inkscape:cy="36.318375"
     inkscape:window-width="1916"
     inkscape:window-height="1037"
     inkscape:window-x="0"
     inkscape:window-y="0"
     inkscape:window-maximized="1"
     inkscape:current-layer="g146935"
     inkscape:showpageshadow="2"
     inkscape:deskcolor="#ffffff" /><defs
     id="defs2"><clipPath
       clipPathUnits="userSpaceOnUse"
       id="clipPath4244"><path
         d="m -89.348846,133.47717 17.321,10 17.32,-10 v -20 l -17.32,-10 -17.321,10 v 20"
         class="s1"
         id="path4246"
         style="fill:none;fill-opacity:1;stroke:#000000;stroke-width:0.0999998;stroke-linecap:round;stroke-linejoin:round;stroke-dasharray:none" /></clipPath></defs><g
     inkscape:label="Layer 1"
     inkscape:groupmode="layer"
     id="g146935"
     transform="translate(89.940718,-103.46059)"><g
       inkscape:label="svglink:mountains_color.svg"
       ns3:href="mountains_color.svg"
       ns4:x="-84.721771"
       ns4:y="106.59617"
       ns3:image-svg-dpi="200"
       ns3:image-height="32.414104"
       ns3:image-width="32.622597"
       id="g60"
       transform="translate(-5.2189832,0.80320707)"><sodipodi:namedview
         id="namedview1"
         pagecolor="#ffffff"
         bordercolor="#666666"
         borderopacity="1.0"
         inkscape:pageshadow="2"
         inkscape:pageopacity="0"
         inkscape:pagecheckerboard="false"
         inkscape:document-units="mm"
         showgrid="false"
         inkscape:zoom="3.1408067"
         inkscape:cx="44.096952"
         inkscape:cy="94.4025"
         inkscape:window-width="1916"
         inkscape:window-height="1037"
         inkscape:window-x="0"
         inkscape:window-y="0"
         inkscape:window-maximized="1"
         inkscape:current-layer="layer1"
         inkscape:showpageshadow="2"
         inkscape:deskcolor="#ffffff"
         transform="translate(-84.7218, 106.596)" /><defs
         id="defs3"
         transform="translate(-84.7218, 106.596)"><inkscape:path-effect
           effect="simplify"
           id="path-effect165099"
           is_visible="true"
           lpeversion="1"
           steps="1"
           threshold="0.0168421"
           smooth_angles="360"
           helper_size="0"
           simplify_individual_paths="false"
           simplify_just_coalesce="false" /><inkscape:path-effect
           effect="simplify"
           id="path-effect165095"
           is_visible="true"
           lpeversion="1"
           steps="1"
           threshold="0.0168421"
           smooth_angles="360"
           helper_size="0"
           simplify_individual_paths="false"
           simplify_just_coalesce="false" /><inkscape:path-effect
           effect="simplify"
           id="path-effect165091"
           is_visible="true"
           lpeversion="1"
           steps="1"
           threshold="0.0168421"
           smooth_angles="360"
           helper_size="0"
           simplify_individual_paths="false"
           simplify_just_coalesce="false" /><inkscape:path-effect
           effect="simplify"
           id="path-effect165087"
           is_visible="true"
           lpeversion="1"
           steps="1"
           threshold="0.0168421"
           smooth_angles="360"
           helper_size="0"
           simplify_individual_paths="false"
           simplify_just_coalesce="false" /><inkscape:path-effect
           effect="simplify"
           id="path-effect165083"
           is_visible="true"
           lpeversion="1"
           steps="1"
           threshold="0.0168421"
           smooth_angles="360"
           helper_size="0"
           simplify_individual_paths="false"
           simplify_just_coalesce="false" /><inkscape:path-effect
           effect="simplify"
           id="path-effect165017"
           is_visible="true"
           lpeversion="1"
           steps="1"
           threshold="0.0168421"
           smooth_angles="360"
           helper_size="0"
           simplify_individual_paths="false"
           simplify_just_coalesce="false" /><inkscape:path-effect
           effect="simplify"
           id="path-effect164888"
           is_visible="true"
           lpeversion="1"
           steps="1"
           threshold="0.0168421"
           smooth_angles="360"
           helper_size="0"
           simplify_individual_paths="false"
           simplify_just_coalesce="false" /><inkscape:path-effect
           effect="simplify"
           id="path-effect164884"
           is_visible="true"
           lpeversion="1"
           steps="1"
           threshold="0.0168421"
           smooth_angles="360"
           helper_size="0"
           simplify_individual_paths="false"
           simplify_just_coalesce="false" /><inkscape:path-effect
           effect="simplify"
           id="path-effect164281"
           is_visible="true"
           lpeversion="1"
           steps="1"
           threshold="0.0168421"
           smooth_angles="360"
           helper_size="0"
           simplify_individual_paths="false"
           simplify_just_coalesce="false" /><inkscape:path-effect
           effect="simplify"
           id="path-effect164277"
           is_visible="true"
           lpeversion="1"
           steps="1"
           threshold="0.0168421"
           smooth_angles="360"
           helper_size="0"
           simplify_individual_paths="false"
           simplify_just_coalesce="false" /><inkscape:path-effect
           effect="simplify"
           id="path-effect164273"
           is_visible="true"
           lpeversion="1"
           steps="1"
           threshold="0.0168421"
           smooth_angles="360"
           helper_size="0"
           simplify_individual_paths="false"
           simplify_just_coalesce="false" /><inkscape:path-effect
           effect="simplify"
           id="path-effect163974"
           is_visible="true"
           lpeversion="1"
           steps="1"
           threshold="0.0168421"
           smooth_angles="360"
           helper_size="0"
           simplify_individual_paths="false"
           simplify_just_coalesce="false" /><inkscape:path-effect
           effect="simplify"
           id="path-effect163970"
           is_visible="true"
           lpeversion="1"
           steps="1"
           threshold="0.0168421"
           smooth_angles="360"
           helper_size="0"
           simplify_individual_paths="false"
           simplify_just_coalesce="false" /><inkscape:path-effect
           effect="simplify"
           id="path-effect163966"
           is_visible="true"
           lpeversion="1"
           steps="1"
           threshold="0.0168421"
           smooth_angles="360"
           helper_size="0"
           simplify_individual_paths="false"
           simplify_just_coalesce="false" /><inkscape:path-effect
           effect="simplify"
           id="path-effect163962"
           is_visible="true"
           lpeversion="1"
           steps="1"
           threshold="0.0168421"
           smooth_angles="360"
           helper_size="0"
           simplify_individual_paths="false"
           simplify_just_coalesce="false" /><inkscape:path-effect
           effect="simplify"
           id="path-effect163958"
           is_visible="true"
           lpeversion="1"
           steps="1"
           threshold="0.0168421"
           smooth_angles="360"
           helper_size="0"
           simplify_individual_paths="false"
           simplify_just_coalesce="false" /><inkscape:path-effect
           effect="simplify"
           id="path-effect163954"
           is_visible="true"
           lpeversion="1"
           steps="1"
           threshold="0.0168421"
           smooth_angles="360"
           helper_size="0"
           simplify_individual_paths="false"
           simplify_just_coalesce="false" /><inkscape:path-effect
           effect="simplify"
           id="path-effect163743"
           is_visible="true"
           lpeversion="1"
           steps="1"
           threshold="0.0168421"
           smooth_angles="360"
           helper_size="0"
           simplify_individual_paths="false"
           simplify_just_coalesce="false" /><inkscape:path-effect
           effect="simplify"
           id="path-effect163150"
           is_visible="true"
           lpeversion="1"
           steps="1"
           threshold="0.0168421"
           smooth_angles="360"
           helper_size="0"
           simplify_individual_paths="false"
           simplify_just_coalesce="false" /><inkscape:path-effect
           effect="simplify"
           id="path-effect163146"
           is_visible="true"
           lpeversion="1"
           steps="1"
           threshold="0.0168421"
           smooth_angles="360"
           helper_size="0"
           simplify_individual_paths="false"
           simplify_just_coalesce="false" /><inkscape:path-effect
           effect="simplify"
           id="path-effect163142"
           is_visible="true"
           lpeversion="1"
           steps="1"
           threshold="0.0168421"
           smooth_angles="360"
           helper_size="0"
           simplify_individual_paths="false"
           simplify_just_coalesce="false" /><inkscape:path-effect
           effect="simplify"
           id="path-effect163138"
           is_visible="true"
           lpeversion="1"
           steps="1"
           threshold="0.0168421"
           smooth_angles="360"
           helper_size="0"
           simplify_individual_paths="false"
           simplify_just_coalesce="false" /><inkscape:path-effect
           effect="simplify"
           id="path-effect163134"
           is_visible="true"
           lpeversion="1"
           steps="1"
           threshold="0.0168421"
           smooth_angles="360"
           helper_size="0"
           simplify_individual_paths="false"
           simplify_just_coalesce="false" /><inkscape:path-effect
           effect="simplify"
           id="path-effect162653"
           is_visible="true"
           lpeversion="1"
           steps="1"
           threshold="0.0168421"
           smooth_angles="360"
           helper_size="0"
           simplify_individual_paths="false"
           simplify_just_coalesce="false" /><inkscape:path-effect
           effect="simplify"
           id="path-effect162604"
           is_visible="true"
           lpeversion="1"
           steps="1"
           threshold="0.0168421"
           smooth_angles="360"
           helper_size="0"
           simplify_individual_paths="false"
           simplify_just_coalesce="false" /><inkscape:path-effect
           effect="simplify"
           id="path-effect162559"
           is_visible="true"
           lpeversion="1"
           steps="1"
           threshold="0.0168421"
           smooth_angles="360"
           helper_size="0"
           simplify_individual_paths="false"
           simplify_just_coalesce="false" /><inkscape:path-effect
           effect="simplify"
           id="path-effect162555"
           is_visible="true"
           lpeversion="1"
           steps="1"
           threshold="0.0168421"
           smooth_angles="360"
           helper_size="0"
           simplify_individual_paths="false"
           simplify_just_coalesce="false" /><inkscape:path-effect
           effect="simplify"
           id="path-effect162551"
           is_visible="true"
           lpeversion="1"
           steps="1"
           threshold="0.0168421"
           smooth_angles="360"
           helper_size="0"
           simplify_individual_paths="false"
           simplify_just_coalesce="false" /><inkscape:path-effect
           effect="simplify"
           id="path-effect162547"
           is_visible="true"
           lpeversion="1"
           steps="1"
           threshold="0.0168421"
           smooth_angles="360"
           helper_size="0"
           simplify_individual_paths="false"
           simplify_just_coalesce="false" /><inkscape:path-effect
           effect="simplify"
           id="path-effect162375"
           is_visible="true"
           lpeversion="1"
           steps="1"
           threshold="0.0168421"
           smooth_angles="360"
           helper_size="0"
           simplify_individual_paths="false"
           simplify_just_coalesce="false" /><inkscape:path-effect
           effect="simplify"
           id="path-effect162371"
           is_visible="true"
           lpeversion="1"
           steps="1"
           threshold="0.0168421"
           smooth_angles="360"
           helper_size="0"
           simplify_individual_paths="false"
           simplify_just_coalesce="false" /><inkscape:path-effect
           effect="simplify"
           id="path-effect162367"
           is_visible="true"
           lpeversion="1"
           steps="1"
           threshold="0.0168421"
           smooth_angles="360"
           helper_size="0"
           simplify_individual_paths="false"
           simplify_just_coalesce="false" /><clipPath
           clipPathUnits="userSpaceOnUse"
           id="clipPath2"><path
             d="m -89.348846,133.47717 17.321,10 17.32,-10 v -20 l -17.32,-10 -17.321,10 v 20"
             class="s1"
             id="path2"
             style="fill:none;fill-opacity:1;stroke:#000000;stroke-width:0.0999998;stroke-linecap:round;stroke-linejoin:round;stroke-dasharray:none" /></clipPath></defs><g
         inkscape:label="Layer 1"
         inkscape:groupmode="layer"
         id="g3"
         transform="translate(3.20623,-2.26083)"><g
           id="g33"
           inkscape:label="colors"><path
             id="path3"
             style="fill:#dbdeef;fill-opacity:1;stroke:none;stroke-width:0.2;stroke-linecap:round;stroke-linejoin:round;stroke-dasharray:none"
             d="m -76.912975,108.85696 c -1.758896,0.40645 -1.427629,2.84928 -3.40031,2.80396 -2.423188,-0.0557 -5.028521,2.55948 -4.483964,4.66845 0.302927,1.32541 3.957014,-0.12477 5.187281,0.99529 1.246438,0.59311 2.561092,0.9713 3.898986,1.2423 0.304535,0.0197 0.601126,-0.003 0.891936,-0.0558 -0.319775,0.31193 -0.635791,0.66539 -0.930693,1.0697 -0.776216,1.07034 -1.28562,2.6881 -2.8236,2.82773 -1.454513,0.20433 -2.806752,-0.56726 -3.913456,-1.42161 -1.787336,-0.0845 -2.750802,1.89631 -3.743441,3.10782 -0.696377,1.24417 -2.155928,2.60502 -1.556494,4.13928 1.385099,0.77997 3.253955,0.15224 4.847766,0.32194 2.048192,-0.26 4.129181,-1.19348 6.19497,-0.46974 1.422569,0.86237 3.011187,0.57153 4.455026,-0.0496 1.754235,-0.34435 2.244093,-1.45806 3.648873,-2.2872 1.507516,-0.88977 2.565212,0.97869 4.23385,1.50275 0.22918,0.0891 0.462697,0.13949 0.698665,0.16898 -1.954963,0.26861 -2.786446,1.44671 -4.125846,2.88716 -0.944459,1.01573 -2.55233,2.0531 -3.481958,0.7059 -0.91267,-1.32263 -2.851631,-3.00514 -4.112411,-1.79575 -1.18404,1.27104 -2.735006,1.98413 -4.016809,3.00705 -0.725023,1.05963 -3.231651,4.25543 -1.664498,4.46277 1.267974,0.16776 4.665151,1.88619 5.576921,0.45786 1.614568,-1.21735 3.861425,0.12292 4.607471,1.73529 1.198292,1.36916 2.893706,-0.56465 4.151167,-1.03404 1.316698,-0.98407 2.746943,-1.34028 4.171839,-1.65107 1.556662,-0.33953 0.933945,-2.32891 2.862357,-1.91461 2.113017,0.55376 2.953012,-1.28419 2.78536,-2.48925 -0.249472,-1.79318 -1.080544,-2.76927 -2.762622,-3.06286 -0.941297,-0.1643 -2.20893,-1.04793 -3.243213,-1.27951 1.031026,-0.0204 2.079925,-0.21108 3.025655,0.46457 1.172723,0.42322 2.841105,1.49648 3.888135,0.29662 1.096327,-1.4417 0.0023,-3.25889 -1.202511,-4.21886 -1.291345,-0.95325 -2.566664,-2.43147 -4.326351,-2.24741 -1.847881,0.46309 -2.759359,-1.52091 -4.303096,-2.04845 -1.880784,-0.83278 -3.085588,-0.72209 -4.362525,-2.49288 -0.05665,-0.0786 -0.245517,-0.17357 -0.461987,-0.26561 0.580574,-0.1328 1.180057,-0.15144 1.816944,0.0481 1.689027,0.58 3.443377,1.62858 5.282364,1.00459 1.72209,-0.97967 0.08833,-3.35893 -1.003556,-4.24367 -1.624984,-0.3215 -2.881927,-2.54737 -4.595585,-1.81126 -1.662381,1.56427 -3.659921,-0.42955 -4.95732,-1.47846 -1.263731,-0.052 -1.763158,-1.16003 -2.75332,-1.60042 z" /><path
             id="path33"
             style="fill:#cacfe8;fill-opacity:1;stroke:none;stroke-width:0.2;stroke-linecap:round;stroke-linejoin:round;stroke-dasharray:none"
             d="m -77.560481,110.26824 c -0.40872,1.28081 -1.549914,2.06416 -2.536279,2.57865 1.272153,1.51976 2.740079,0.0332 2.878377,-1.45675 0.08186,-0.39043 0.06097,-0.90902 -0.342098,-1.1219 z m 2.130619,0.38706 c -0.61758,0.80854 -2.841242,2.05768 -1.206645,2.93935 1.76917,-0.43003 3.21066,0.9425 4.904611,0.84078 0.742947,-1.27946 -1.112337,-2.32841 -2.264978,-2.52698 -0.515499,-0.35918 -0.792122,-1.09285 -1.432988,-1.25315 z m -5.896281,1.9513 c -1.400828,0.74472 -0.715841,3.18211 0.956531,3.14193 0.601947,0.31054 2.555526,1.08866 1.765784,-0.29973 -1.548071,-0.52506 -1.069997,-2.49483 -2.722315,-2.8422 z m 13.562997,0.53795 c -1.177595,0.88263 0.09772,2.68871 0.503328,3.72277 1.077996,0.42554 2.320138,0.04 3.429248,0.41445 0.993628,-0.44759 -1.698749,-1.21482 -1.543058,-2.22209 -1.16888,-0.21738 -1.466298,-1.41886 -2.389518,-1.91513 z m -2.233973,0.60306 c -0.662954,0.74494 -0.918866,3.28008 0.784449,2.4598 1.462047,-0.57791 -0.548955,-1.43701 -0.63407,-2.34197 z m -1.39423,0.89194 c -1.441119,0.0677 -2.356782,1.74332 -3.877282,1.36529 -1.113635,-0.6108 -3.506246,0.46189 -1.666565,1.49552 1.855443,0.66123 3.664849,-0.39641 5.351611,-1.05265 0.590134,-0.30655 0.921631,-1.51107 0.192236,-1.80816 z m -0.187585,3.08095 c -1.381432,0.11964 -1.566172,1.81283 -1.562695,2.90783 -0.03452,1.47783 1.448556,2.21834 2.746602,2.19677 1.774057,0.0221 3.274065,1.11075 4.552177,2.23397 1.179454,0.37039 2.430655,0.53682 3.45767,1.28209 0.760009,0.43503 3.35363,1.39013 2.241207,-0.28008 -0.864696,-0.75604 -0.838301,-2.2524 -1.997294,-2.62672 -1.203821,-0.25352 -2.684965,-0.10621 -3.497461,-1.23713 -0.599524,-1.08299 -1.438564,-2.08672 -2.530078,-2.70526 -1.556102,0.37216 -2.102824,-1.62249 -3.410128,-1.77147 z m -3.009119,1.74253 c -0.0093,-2.5e-4 -0.01864,5e-5 -0.02791,10e-4 -0.582667,0.0635 -0.734372,0.91396 -1.119828,1.35547 -0.416344,0.47692 -0.815836,0.97433 -1.287777,1.3963 -0.386502,0.34558 -1.20708,0.40399 -1.25367,0.92036 -0.0482,0.53419 0.571381,1.12428 1.105875,1.16892 0.633311,0.0529 1.100795,-0.67225 1.521871,-1.14825 0.427822,-0.48362 0.730176,-1.07718 0.96945,-1.6769 0.22103,-0.554 0.613293,-1.1774 0.416512,-1.74046 -0.04612,-0.13198 -0.185161,-0.27268 -0.324528,-0.27647 z m -8.007263,2.2319 c -1.773914,0.30482 -0.409749,2.36349 0.870231,2.19832 1.203816,0.46478 2.358945,1.04589 3.353801,1.86965 1.34506,0.37945 -0.33278,-2.28864 -1.208712,-2.29443 -1.139355,-0.38102 -1.883603,-1.46058 -3.01532,-1.77354 z m -1.545125,0.92966 c -0.65082,1.42651 0.0015,2.81422 1.059367,3.80545 0.530218,0.56295 2.908061,1.10712 1.473295,-0.002 -0.762891,-1.30866 -1.562992,-2.72181 -2.532662,-3.80339 z m 24.057446,0.0331 c -1.026676,1.35948 1.063711,2.27367 1.508952,3.29902 -0.04779,0.97734 2.298238,2.77601 2.070674,1.03766 0.09385,-1.43733 -1.053985,-2.264 -2.170926,-2.92178 -0.615324,-0.33991 -0.671179,-1.28842 -1.4087,-1.4149 z m -24.599015,0.55552 c -0.558483,-0.0112 -0.740511,1.12094 -1.142049,1.61282 -0.381045,0.46677 -1.04841,0.7903 -1.165821,1.38131 -0.09044,0.45525 -0.01597,1.17641 0.42323,1.32653 0.469978,0.16064 0.930001,-0.44667 1.226799,-0.84491 0.409584,-0.54958 0.491986,-1.28594 0.63407,-1.95647 0.10414,-0.49147 0.469081,-1.10525 0.156579,-1.49861 -0.0034,-0.004 -0.01221,0.002 -0.01602,-0.002 v -5.2e-4 c -0.04075,-0.0114 -0.07956,-0.0173 -0.116788,-0.0181 z m 21.614184,4.46691 c -0.705966,1.2446 -2.372598,0.52853 -2.66702,2.14922 -0.872069,1.52047 -2.547167,2.05674 -3.782715,3.1657 -0.747357,-0.4439 -1.990429,-1.70593 -2.987932,-2.41794 -0.754726,-0.47258 -1.830105,-1.62405 -2.310453,-0.22893 -1.750616,1.44747 0.59707,3.35023 2.163176,3.39773 1.325437,0.36186 1.643759,2.24107 3.185335,2.18798 1.45302,0.21623 0.07859,-2.02047 1.454175,-1.29243 1.165294,-0.55047 2.73471,-1.17802 2.898531,-2.67632 0.946,1.15286 2.397292,0.63684 3.639571,0.73484 1.129028,0.6004 3.219532,2.38927 4.098458,0.54932 0.241166,-1.40631 -0.674402,-2.72686 -1.882573,-3.36931 -1.188682,-0.85995 -2.388555,-1.76413 -3.808553,-2.19986 z m -13.993461,4.00699 c -1.18164,0.54313 -1.39984,2.12423 -2.343526,3.00447 -0.720392,1.85363 2.152697,1.05704 2.570386,-0.0357 0.544588,-0.83259 0.911522,-2.42889 -0.155546,-2.96829 z" /><path
             id="path20"
             style="fill:#b8bee0;fill-opacity:1;stroke:none;stroke-width:0.2;stroke-linecap:round;stroke-linejoin:round;stroke-dasharray:none"
             d="m -74.419071,111.54 c -0.0075,3e-4 -0.01477,0.002 -0.02067,0.006 -0.264354,0.17441 -0.341379,0.54642 -0.415996,0.85421 -0.074,0.30526 -0.186195,0.6748 -0.02119,0.94206 0.260606,0.4221 1.04125,0.24457 1.345138,0.63666 0.119598,0.15431 -0.04644,0.45914 0.110587,0.57515 0.342408,0.25297 1.15669,0.27248 1.26969,-0.13797 0.04013,-0.14575 -0.297303,-0.13634 -0.362252,-0.27285 -0.137823,-0.28967 0.201392,-0.68705 0.03566,-0.9617 -0.211489,-0.35047 -0.791874,-0.27039 -1.106909,-0.53175 -0.352024,-0.29204 -0.39935,-0.90931 -0.812354,-1.10588 -0.0064,-0.003 -0.01418,-0.004 -0.0217,-0.004 z m 5.531962,2.3735 c -0.27229,-2.6e-4 -0.560751,0.38222 -0.809769,0.56275 -0.329435,0.23882 -0.709897,0.47068 -0.889869,0.83561 -0.169519,0.34374 -0.09515,0.76133 -0.114205,1.14412 v 5.1e-4 c 0.13021,0.13118 0.377809,0.0585 0.554489,0.004 0.398222,-0.12237 0.648786,-0.53897 1.028877,-0.70952 0.265983,-0.11934 0.63099,-0.0148 0.849561,-0.20774 0.289569,-0.25558 0.543069,-0.71899 0.412895,-1.08262 -0.114727,-0.32048 -0.715877,-0.21204 -0.886768,-0.50643 v -5.2e-4 c -0.03902,-0.0231 -0.07886,-0.0355 -0.118856,-0.0393 -0.0087,-8.3e-4 -0.01757,-0.001 -0.02635,-0.001 z m 2.163692,0.24908 c -0.01127,10e-4 -0.02307,0.005 -0.03256,0.009 -0.235589,0.10209 -0.509922,0.28983 -0.545186,0.54415 -0.04356,0.31412 0.288882,0.56627 0.465088,0.82992 0.263474,0.39424 0.501137,0.83286 0.880566,1.11725 0.428135,0.3209 1.024392,0.86566 1.488798,0.59996 0.255938,-0.14644 0.210981,-0.59114 0.130742,-0.87488 -0.115535,-0.40856 -0.516948,-0.67736 -0.820105,-0.97462 -0.470685,-0.46154 -1.253859,-0.64845 -1.537891,-1.24333 v -5.2e-4 c -0.0074,-0.007 -0.01818,-0.009 -0.02946,-0.007 z m -13.522688,0.19378 c -0.0027,2e-5 -0.0057,7.5e-4 -0.0078,0.002 -0.269313,0.17873 -0.354293,0.57105 -0.376721,0.89349 -0.02087,0.29998 0.01037,0.66857 0.232027,0.87178 0.503627,0.4617 1.551477,0.85169 2.018998,0.35346 0.09543,-0.1017 -0.0053,-0.30267 -0.09819,-0.40669 -0.18149,-0.20322 -0.525914,-0.1549 -0.767912,-0.28009 -0.250388,-0.12954 -0.528447,-0.25406 -0.695564,-0.4811 -0.196877,-0.26747 -0.03002,-0.75419 -0.297657,-0.95085 -0.002,-0.001 -0.0045,-0.002 -0.0072,-0.002 z m 7.692037,0.99529 c -0.0023,0 -0.0048,3e-5 -0.0067,10e-4 -0.25095,0.11285 -0.3278,0.45224 -0.547771,0.61754 -0.369889,0.27796 -0.826527,0.41799 -1.25367,0.59583 -0.498385,0.2075 -1.470492,0.0111 -1.523938,0.54828 -0.04025,0.40458 0.641273,0.57416 1.043864,0.63097 0.586491,0.0828 1.217731,-0.14173 1.715658,-0.4625 0.481416,-0.31013 1.09731,-0.75285 1.092956,-1.3255 -0.002,-0.26455 -0.274038,-0.49361 -0.51418,-0.60462 -0.002,-10e-4 -0.0039,-10e-4 -0.0062,-10e-4 z m 0.02015,3.21428 c -0.02309,8.9e-4 -0.04684,0.006 -0.0708,0.0155 -0.716556,0.29119 -0.444658,1.62539 -0.100769,2.3182 0.249601,0.50286 0.922846,1.27869 1.384411,0.95912 0.76577,-0.53019 -0.209579,-1.9067 -0.681095,-2.70991 -0.122208,-0.20818 -0.296203,-0.56578 -0.509013,-0.5824 -0.0076,-5e-4 -0.01504,-8.1e-4 -0.02274,-5.1e-4 z m 3.61425,0.46922 c -0.07552,0.002 -0.15188,0.0252 -0.228927,0.0755 -0.714515,0.46468 0.321359,1.71584 0.777214,2.43602 0.496559,0.78449 1.262219,1.38765 2.036051,1.90066 0.181751,0.12049 0.450414,0.42775 0.59738,0.26665 0.808516,-0.88626 -1.009227,-2.20396 -1.76165,-3.13831 -0.403511,-0.50108 -0.89146,-1.55366 -1.420068,-1.54047 z m -7.338053,2.1146 c -0.07671,-0.004 -0.158999,0.014 -0.223759,0.0553 -0.302084,0.19283 -0.541938,0.50477 -0.673344,0.83819 -0.08962,0.22739 -0.08985,0.48942 -0.05426,0.73122 0.04376,0.29735 0.116094,0.6238 0.322977,0.84181 0.224267,0.23633 0.625369,0.21157 0.892969,0.39739 0.222308,0.15439 0.312658,0.49132 0.568441,0.57981 0.139038,0.0481 0.335511,0.049 0.437699,-0.0568 0.186148,-0.19281 0.09073,-0.5329 0.07545,-0.80047 -0.0319,-0.55858 -0.116106,-1.13254 -0.346749,-1.64227 -0.136424,-0.30151 -0.328947,-0.59753 -0.594279,-0.7953 -0.115351,-0.086 -0.261489,-0.14094 -0.405143,-0.14883 z m -5.249292,1.49035 c -0.0066,1e-5 -0.01311,5.4e-4 -0.01964,0.002 -0.02984,0.005 -0.0588,0.0198 -0.08682,0.0481 -0.630443,0.63586 1.039706,2.59259 1.74563,2.04174 0.460165,-0.35908 -0.618719,-0.99821 -1.014408,-1.4273 -0.182947,-0.19839 -0.420233,-0.66437 -0.624768,-0.66404 z m -2.008663,0.28783 c -0.02502,0.002 -0.04727,0.0106 -0.05529,0.0305 -0.157988,0.39233 0.43772,1.24404 0.782381,0.99891 0.328552,-0.23368 -0.288108,-0.84927 -0.65474,-1.01699 -0.01954,-0.009 -0.04733,-0.0142 -0.07235,-0.0124 z m -0.800468,0.74983 c -0.0087,8e-4 -0.01661,0.004 -0.02274,0.0108 -0.523343,0.58998 -0.208548,2.452 0.564824,2.29753 0.7394,-0.14767 0.113122,-1.6368 -0.345199,-2.23552 -0.02428,-0.0317 -0.07105,-0.0379 -0.109554,-0.0486 -0.02672,-0.007 -0.06128,-0.0267 -0.08733,-0.0243 z m 21.34495,0.0667 c -0.007,-6.7e-4 -0.0139,-6.8e-4 -0.02015,5.2e-4 -0.0083,0.002 -0.01571,0.005 -0.0217,0.0114 -0.334118,0.34586 -0.102243,1.02199 0.143144,1.43557 0.518992,0.87471 1.776422,2.41505 2.519743,1.72082 0.474153,-0.44283 -0.580029,-1.17195 -0.98547,-1.67845 -0.44881,-0.56068 -0.914892,-1.18611 -1.574064,-1.47123 -0.01783,-0.008 -0.04058,-0.0166 -0.0615,-0.0186 z m 4.417302,0.56017 c -0.0023,2.6e-4 -0.0044,10e-4 -0.0062,0.003 v 5.1e-4 c 0.129644,0.87492 0.02007,2.06961 0.769463,2.53938 0.238481,0.1495 0.720086,0.12559 0.834057,-0.13177 0.387994,-0.87613 -0.769457,-1.88686 -1.576131,-2.40399 -0.0039,-0.002 -0.009,-0.005 -0.01395,-0.006 -0.0025,-5e-4 -0.0049,-7.7e-4 -0.0072,-5.2e-4 z m -4.681885,3.63751 c -0.490536,0.55647 -0.116562,1.44709 0.331246,1.91926 0.703598,0.74716 1.740418,1.13684 2.324922,1.99574 0.23613,0.80992 0.92349,1.59066 1.850534,1.28726 0.92399,-0.10331 0.744836,-0.97597 0.683162,-1.61592 0.269504,-0.83895 -0.57712,-0.81079 -1.149284,-0.7369 -1.013526,-0.009 -0.558374,-1.39919 -1.425236,-1.66915 -0.779717,-0.43225 -1.617506,-0.71993 -2.41794,-1.11001 l -0.09819,-0.0367 z m -2.486153,1.73271 c -0.75357,0.41045 -0.329929,1.65809 0.388606,1.88981 0.734807,0.37995 1.125645,1.31966 2.04432,1.29862 0.471403,-0.0459 1.250465,0.24227 1.545642,-0.11782 -0.749927,-0.17773 -1.24963,-0.72697 -1.907894,-1.10071 -0.714969,-0.40834 -0.577153,-1.47516 -1.402498,-1.78232 -0.206618,-0.10763 -0.435661,-0.17229 -0.668176,-0.18758 z m -7.70444,1.13688 c -0.752268,0.59839 -0.146856,1.63885 0.641305,1.82056 0.883382,0.41821 0.927902,1.6023 1.83503,1.94665 0.584022,0.42208 1.529066,-0.0804 0.891935,-0.74052 -0.09916,-0.93517 -0.852476,-1.40037 -1.677417,-1.62626 -0.678262,-0.1656 -0.568029,-1.05924 -1.229382,-1.25315 -0.146396,-0.069 -0.302376,-0.11777 -0.461471,-0.14728 z m -2.33164,1.14412 c -0.813862,0.0434 -1.245157,1.32784 -0.223759,1.47536 0.589129,0.12427 1.072054,1.51387 1.615405,0.9064 -0.07514,-0.57565 0.138931,-1.30718 -0.445451,-1.65209 -0.367244,-0.16008 -0.358313,-0.73554 -0.781347,-0.72141 -0.02862,-0.004 -0.05686,-0.007 -0.08475,-0.008 -0.02701,-0.001 -0.05385,-0.001 -0.0801,0 z m 10.31875,0.94309 c -0.831241,0.0362 -1.125847,1.22016 -2.036052,1.19889 -0.532672,0.13227 -1.523517,0.41874 -1.592151,0.85525 0.703919,0.0815 1.419161,-0.0358 2.119768,0.0806 0.82026,-0.0976 1.144159,-0.9851 1.966805,-1.06918 0.546406,-0.23586 0.333461,-1.14678 -0.284737,-1.05678 -0.06053,-0.008 -0.118217,-0.011 -0.173633,-0.009 z" /></g><g
           id="g34"
           inkscape:label="lines"><path
             style="fill:none;stroke:#000000;stroke-width:0.1;stroke-linecap:round;stroke-linejoin:round;stroke-dasharray:none"
             d="m -67.051062,116.83378 0.343664,-0.67749 0.402345,0.10855 0.679559,-0.82871 c 0.113395,0.32663 0.286594,0.57303 0.509615,0.76298 0.464266,0.39544 0.968804,0.60573 1.378021,0.66703"
             id="path56378-7"
             sodipodi:nodetypes="ccccsc" /><path
             style="fill:none;stroke:#000000;stroke-width:0.1;stroke-linecap:round;stroke-linejoin:round;stroke-dasharray:none"
             d="m -66.227186,115.21583 c -0.221069,-0.009 -0.04005,-0.20997 -0.179841,-0.53352 l -0.23723,0.0944 -1.050313,-1.25636 c -0.220027,0.51805 -0.546255,0.81465 -0.972915,1.15113 l -0.429956,-0.2305 -0.988241,1.52995"
             id="path56376-0"
             sodipodi:nodetypes="ccccccc" /><path
             style="fill:none;stroke:#000000;stroke-width:0.1;stroke-linecap:round;stroke-linejoin:round;stroke-dasharray:none"
             d="m -70.042448,114.49031 -0.220557,-0.13784 -0.206681,-0.77855 -1.143915,1.7493 -0.468,-0.20721 c -0.496344,1.28331 -1.220498,1.53532 -1.994954,1.98161"
             id="path56374-9"
             sodipodi:nodetypes="cccccc" /><path
             style="fill:none;stroke:#000000;stroke-width:0.1;stroke-linecap:round;stroke-linejoin:round;stroke-dasharray:none"
             d="m -80.457758,114.58219 c -0.329784,-0.61238 -0.960562,-0.30245 -1.401199,-0.92027 l -0.178673,1.11618 -0.510944,-0.17106 -0.768748,1.07902"
             id="path56372-6"
             sodipodi:nodetypes="ccccc" /><path
             style="fill:none;stroke:#000000;stroke-width:0.1;stroke-linecap:round;stroke-linejoin:round;stroke-dasharray:none"
             d="m -80.470689,113.40433 0.476711,-0.59496 c 2.110568,-0.22557 2.414974,-1.0753 2.924959,-2.57874 l 0.855676,0.75212"
             id="path56370-0"
             sodipodi:nodetypes="cccc" /><path
             style="fill:none;stroke:#000000;stroke-width:0.1;stroke-linecap:round;stroke-linejoin:round;stroke-dasharray:none"
             d="m -76.721539,112.29874 c 0.626024,-0.3698 1.271204,-0.72552 1.531085,-1.36456 l 0.623112,1.1423 0.140601,-0.13472 1.070003,1.29693 0.152344,-0.43109 c 0.448226,0.73783 0.749658,0.94535 1.225353,1.17652"
             id="path56353-6"
             sodipodi:nodetypes="ccccccc" /><path
             style="fill:none;stroke:#000000;stroke-width:0.1;stroke-linecap:round;stroke-linejoin:round;stroke-dasharray:none"
             d="m -82.380794,125.02973 -0.688592,-0.84002 -0.55572,0.66311 -0.854102,-1.15027 c -0.324326,0.86817 -0.978758,2.59657 -1.617429,1.76632 l -1.283344,2.06983"
             id="path56392-7"
             sodipodi:nodetypes="cccccc" /><path
             style="fill:none;stroke:#000000;stroke-width:0.1;stroke-linecap:round;stroke-linejoin:round;stroke-dasharray:none"
             d="m -83.499879,123.22689 0.845851,-1.21837 0.974701,1.28685 0.295391,-0.31694 0.696707,0.91262 0.259802,-0.3279 c 0.317545,0.44295 0.547245,1.24493 0.932275,0.65696 l 0.849901,1.1206"
             id="path56390-5"
             sodipodi:nodetypes="cccccccc" /><path
             style="fill:none;stroke:#000000;stroke-width:0.1;stroke-linecap:round;stroke-linejoin:round;stroke-dasharray:none"
             d="m -78.556894,124.14567 0.473147,-0.72963 0.293751,0.3908 0.777674,-1.34163 c 0.684582,0.86229 2.248917,-2.32839 2.765498,-3.05787 l 1.123823,1.51849 0.234586,-0.38446 1.285223,1.40348"
             id="path56388-5"
             sodipodi:nodetypes="cccccccc" /><path
             style="fill:none;stroke:#000000;stroke-width:0.1;stroke-linecap:round;stroke-linejoin:round;stroke-dasharray:none"
             d="m -72.760154,119.55778 c 0.509476,-0.67491 0.844516,-1.47125 1.275126,-2.12735 0.744648,1.33157 1.694007,2.54738 2.857448,3.64213 m 1.410098,0.28702 2.033462,2.75055 0.528688,-0.83302 c 0.665772,1.2169 1.096579,1.81247 1.792366,1.16041 l 1.940149,2.04232"
             id="path56386-6"
             sodipodi:nodetypes="cccccccc" /><path
             style="fill:none;stroke:#000000;stroke-width:0.1;stroke-linecap:round;stroke-linejoin:round;stroke-dasharray:none"
             d="m -62.138091,124.65591 0.527246,-0.68543 0.293291,0.31559 0.990348,-1.33488 m 0.312047,0.79751 c 0.408978,0.97009 0.991633,1.9962 1.563395,1.2523 l 1.488063,2.40204"
             id="path56650-9"
             sodipodi:nodetypes="ccccccc" /><path
             style="fill:none;stroke:#000000;stroke-width:0.1;stroke-linecap:round;stroke-linejoin:round;stroke-dasharray:none"
             d="m -57.27716,125.32302 0.658601,1.14369"
             id="path12285"
             sodipodi:nodetypes="cc" /><path
             style="fill:none;stroke:#000000;stroke-width:0.1;stroke-linecap:round;stroke-linejoin:round;stroke-dasharray:none"
             d="m -82.960405,125.53097 0.654765,0.91677"
             id="path12951" /><path
             style="fill:none;stroke:#000000;stroke-width:0.1;stroke-linecap:round;stroke-linejoin:round;stroke-dasharray:none"
             d="m -86.129746,127.3047 0.3524,-0.63055"
             id="path12957" /><path
             style="fill:none;stroke:#000000;stroke-width:0.1;stroke-linecap:round;stroke-linejoin:round;stroke-dasharray:none"
             d="m -68.696922,119.78877 c 0,0 0.436479,0.55181 0.744022,0.69568 0.178951,0.0837 0.588194,0.0729 0.588194,0.0729"
             id="path13614"
             sodipodi:nodetypes="cac" /><path
             style="fill:none;stroke:#000000;stroke-width:0.1;stroke-linecap:round;stroke-linejoin:round;stroke-dasharray:none"
             d="m -70.102331,135.75686 0.86862,-1.61915 c 0.53039,0.46542 1.19112,-1.01015 1.5218,-1.43243 l 0.53521,0.34536 1.5507,-2.64545 1.16578,1.16705"
             id="path56398" /><path
             style="fill:none;stroke:#000000;stroke-width:0.1;stroke-linecap:round;stroke-linejoin:round;stroke-dasharray:none"
             d="m -64.763015,130.39816 c 0.68241,-0.44125 1.253056,-1.35542 1.513372,-2.12827 l 1.284027,1.74704 m 0.679131,0.27008 0.589922,0.0378 1.4009,2.51158"
             id="path56396"
             sodipodi:nodetypes="cccccc" /><path
             style="fill:none;stroke:#000000;stroke-width:0.1;stroke-linecap:round;stroke-linejoin:round;stroke-dasharray:none"
             d="m -59.150895,131.6402 0.489799,-0.58896 0.9323,1.4374"
             id="path56394"
             sodipodi:nodetypes="ccc" /><path
             style="fill:none;stroke:#000000;stroke-width:0.1;stroke-linecap:round;stroke-linejoin:round;stroke-dasharray:none"
             d="m -78.871368,135.29346 0.445602,-1.08172 c 1.022337,0.31325 1.313339,-0.92234 1.559455,-2.20613 0.502019,0.53451 0.695641,0.85342 1.216047,0.55444 l 0.73999,0.83019"
             id="path56384" /><path
             style="fill:none;stroke:#000000;stroke-width:0.1;stroke-linecap:round;stroke-linejoin:round;stroke-dasharray:none"
             d="m -75.499535,131.59159 0.316895,0.3785 1.256744,-1.64872 m 0.423933,0.55674 c 0.345213,0.92111 0.959519,1.90496 1.265893,0.93909 l 0.910829,2.0268"
             id="path56382"
             sodipodi:nodetypes="cccccc" /><path
             style="fill:none;stroke:#000000;stroke-width:0.1;stroke-linecap:round;stroke-linejoin:round;stroke-dasharray:none"
             d="m -70.890242,132.88028 c 0.215805,0.57347 0.483779,0.95019 0.875046,1.18749"
             id="path56380"
             sodipodi:nodetypes="cc" /><path
             style="fill:none;stroke:#000000;stroke-width:0.1;stroke-linecap:round;stroke-linejoin:round;stroke-dasharray:none;stroke-opacity:1"
             d="m -61.777188,129.06898 c 0,0 0.224867,0.32116 0.392467,0.40776 0.164101,0.0848 0.547969,0.0824 0.547969,0.0824"
             id="path16469"
             sodipodi:nodetypes="cac" /><path
             style="fill:none;stroke:#000000;stroke-width:0.1;stroke-linecap:round;stroke-linejoin:round;stroke-dasharray:none;stroke-opacity:1"
             d="m -63.615181,130.7321 c 0,0 0.106044,-0.1375 0.150389,-0.2119 0.07325,-0.1229 0.189685,-0.38503 0.189685,-0.38503"
             id="path16744"
             sodipodi:nodetypes="cac" /></g></g></g><g
       inkscape:label="svglink:crystal_1_color.svg"
       ns3:href="crystal_1_color.svg"
       ns4:x="-72.670967"
       ns4:y="118.86562"
       ns3:image-svg-dpi="200"
       ns3:image-height="7.8751907"
       ns3:image-width="8.5209856"
       id="g61"
       transform="translate(-4.154016,-14.105788)"><sodipodi:namedview
   id="namedview60"
   pagecolor="#ffffff"
   bordercolor="#666666"
   borderopacity="1.0"
   inkscape:pageshadow="2"
   inkscape:pageopacity="0"
   inkscape:pagecheckerboard="false"
   inkscape:document-units="mm"
   showgrid="false"
   inkscape:zoom="10.262613"
   inkscape:cx="56.32094"
   inkscape:cy="33.568449"
   inkscape:window-width="1916"
   inkscape:window-height="1037"
   inkscape:window-x="0"
   inkscape:window-y="0"
   inkscape:window-maximized="1"
   inkscape:current-layer="g11136"
   inkscape:showpageshadow="2"
   inkscape:deskcolor="#d1d1d1"
   transform="translate(-72.671, 118.866)" />&#10;  <defs
   id="defs60"
   transform="translate(-72.671, 118.866)" />&#10;  <g
   inkscape:label="Layer 1"
   inkscape:groupmode="layer"
   id="layer1"
   transform="translate(-8.64177,-41.2074)">&#10;    <g
   id="g2"
   transform="translate(12.819474,54.949818)">&#10;      <g
   id="g171142"
   inkscape:label="crystal">&#10;        <path
   id="path169729"
   style="fill:#e5fff2;fill-opacity:1;stroke:none;stroke-width:0.2;stroke-linecap:round;stroke-linejoin:round;stroke-dasharray:none"
   d="m -69.787083,105.12312 c -0.930437,0.0183 -1.703345,0.59043 -2.453094,1.07127 -0.369212,0.18682 -0.781555,0.29678 -1.187702,0.35003 -0.471156,-0.10562 -0.815704,-0.48587 -1.258825,-0.65924 -0.364735,-0.25805 -0.805826,-0.0705 -1.004424,0.29505 -0.419628,0.40953 0.08768,0.84975 0.05495,1.3012 -0.103427,0.50307 -0.04595,1.11887 -0.460469,1.49199 -0.270969,0.1635 -0.86446,-0.0279 -0.73333,0.50902 0.04649,0.57824 0.626792,0.83991 1.011625,1.17857 0.348823,0.23898 0.597401,0.57584 0.780669,0.95017 0.359527,0.53121 0.928495,1.09922 1.62651,1.0033 0.409132,-0.0235 0.740912,-0.89846 1.147033,-0.30788 0.294343,0.3534 0.660178,0.7505 1.182424,0.68443 0.736501,-0.18707 1.001962,-0.89203 1.533643,-1.38755 0.267156,-0.34546 0.80027,-0.441 0.817429,-0.93573 0.217422,-0.79379 0.140327,-1.62267 0.101893,-2.43228 -0.04939,-0.47367 0.491826,-0.90368 0.228433,-1.34883 -0.43038,-0.29248 -0.641101,-0.71831 -0.698347,-1.22583 -0.185098,-0.3 -0.408564,-0.54024 -0.688418,-0.53769 z"
   sodipodi:nodetypes="ccccccccccscccccccc" />&#10;        <path
   id="path169923"
   style="fill:#ccffe5;fill-opacity:1;stroke:none;stroke-width:0.2;stroke-linecap:round;stroke-linejoin:round;stroke-dasharray:none"
   d="m -70.370811,105.8095 c -0.64275,-0.005 -1.317115,1.02872 -2.074543,1.08863 -0.65688,0.052 -0.358064,0.59076 -0.858337,0.46996 -0.516488,-0.12472 -1.319509,-1.40707 -1.593396,-0.29677 -0.199229,0.80765 -0.499314,1.45589 -0.945193,2.1362 -0.417892,0.63762 -0.297515,0.70731 0.0021,1.09709 0.442688,0.57597 1.038331,1.50493 1.804572,1.70543 0.432999,0.9974 1.188785,-0.38685 1.904277,0.0382 0.706568,0.41984 1.077344,1.13025 1.662947,0.51108 0.577188,-0.61027 1.348902,-1.17453 1.033529,-2.11718 -0.277801,-0.83036 0.22213,-1.28396 0.31781,-2.01177 0.09599,-0.73018 -0.219998,-2.04602 -0.90285,-2.50877 -0.114828,-0.0778 -0.231856,-0.11127 -0.350883,-0.11214 z"
   sodipodi:nodetypes="cccscsccsscsc" />&#10;        <path
   id="path170054"
   style="fill:#b3ffd8;fill-opacity:1;stroke:none;stroke-width:0.2;stroke-linecap:round;stroke-linejoin:round;stroke-dasharray:none"
   d="m -70.464799,106.48893 c -0.308389,0.10858 -0.507417,0.40558 -0.787415,0.56901 -0.280007,0.24671 -0.650034,0.17167 -0.983191,0.12562 -0.291172,-0.04 -0.671747,0.0187 -0.774959,0.34123 -0.03814,0.21257 -0.05743,0.50338 -0.312277,0.24747 -0.399856,-0.27261 -0.809924,-0.63803 -1.329787,-0.59046 -0.318917,0.0388 -0.347927,0.41113 -0.415886,0.65698 -0.224564,0.49752 0.0808,1.01313 0.05462,1.52181 -0.01503,0.38355 -0.450144,0.3603 -0.716452,0.44657 -0.340848,0.13107 -0.123631,0.54133 0.08207,0.69204 0.253208,0.25083 0.641382,0.29999 0.863383,0.59239 0.323544,0.33133 0.610393,0.82087 1.119581,0.85872 0.542452,-0.21 1.270388,-0.29522 1.701609,0.18112 0.174438,0.26346 0.386231,0.64941 0.772781,0.49561 0.506871,-0.17682 0.892983,-0.6007 1.167859,-1.04816 0.383981,-0.63538 -0.137107,-1.38425 0.173098,-2.03694 0.153764,-0.40755 0.568935,-0.75145 0.492354,-1.22133 -0.133928,-0.43638 -0.576934,-0.66878 -0.805486,-1.04922 -0.21164,-0.21264 -0.133938,-0.60078 -0.301893,-0.78246 z" />&#10;        <path
   id="path170185"
   style="fill:#99ffcb;fill-opacity:1;stroke:none;stroke-width:0.2;stroke-linecap:round;stroke-linejoin:round;stroke-dasharray:none"
   d="m -70.499422,106.41348 c -0.670281,0.15646 -1.237721,0.63207 -1.58543,1.21799 -0.194318,-0.20784 -0.555344,-0.53095 -0.830122,-0.26859 -0.157997,0.35448 -0.09907,0.78486 -0.154547,1.16968 0.02837,0.29742 -0.201843,-0.21269 -0.313378,-0.28261 -0.268331,-0.32136 -0.547769,-0.71012 -0.979865,-0.80539 -0.328744,-0.0117 -0.350044,0.41018 -0.470382,0.63215 -0.172985,0.41651 -0.104787,0.89548 0.114343,1.28129 0.07829,0.11808 0.397806,0.18531 0.499714,0.38494 -0.256762,-0.19301 -0.627816,-0.32332 -0.918168,-0.12114 -0.205,0.14823 -0.797156,0.19776 -0.483609,0.56387 0.344957,0.45932 0.705421,0.91225 0.983198,1.41607 0.230949,0.31284 0.634669,0.35507 0.949593,0.16125 0.267152,-0.18686 0.501425,-0.43167 0.717344,-0.67493 0.169454,-0.12179 0.04011,-0.4684 0.06933,-0.48172 0.377918,0.14416 0.526492,-0.28149 0.412061,-0.57445 0.01858,-0.20681 -0.128474,-0.56842 -0.09892,-0.6617 0.3103,0.13078 0.577031,0.37777 0.940784,0.35322 0.182627,0.0325 0.263824,0.038 0.21337,-0.16536 0.173387,-0.3378 0.021,-0.69433 -0.218172,-0.95134 -0.09189,-0.13202 -0.345724,-0.52035 -0.04252,-0.2792 0.193986,0.0386 0.17024,0.0407 0.105138,0.20222 0.106982,0.32841 0.338622,0.63548 0.600098,0.85908 0.142703,0.15228 0.629309,-0.0437 0.319143,0.21307 -0.2184,0.18992 -0.399176,0.41262 -0.424412,0.71203 -0.176526,0.31931 0.06727,0.66492 0.09288,0.9834 0.220982,0.16137 0.372875,0.3896 0.570357,0.5733 0.292483,0.11644 0.669643,-0.0692 0.800395,-0.34882 0.110236,-0.33301 0.137817,-0.69373 0.315634,-1.00278 0.09389,-0.45652 -0.301704,-0.7942 -0.513626,-1.14969 0.200305,-0.27165 0.195909,-0.65221 0.258084,-0.97743 0.08862,-0.53439 -0.271149,-0.9811 -0.456724,-1.45031 -0.113106,-0.19247 -0.226382,-0.48515 -0.471602,-0.5281 z m -1.376144,3.78582 c -0.336779,0.0687 -0.63115,0.39443 -0.684664,0.73245 -0.11489,0.25112 -0.408769,0.49669 -0.251592,0.79827 0.22838,0.14109 0.529954,0.22838 0.797768,0.24191 0.249293,-0.12265 0.44121,-0.3372 0.700951,-0.44498 0.201516,-0.2227 -0.08051,-0.52898 -0.01776,-0.8001 -0.0042,-0.2754 -0.330054,-0.42869 -0.544706,-0.52756 z m 0.965833,1.55649 c -0.338318,0.0612 -0.953259,0.10163 -0.901674,0.58184 -0.04563,0.46738 0.524838,0.48803 0.780934,0.22779 0.210438,-0.0893 0.662039,-0.17862 0.353536,-0.47403 -0.09952,-0.14238 0.06569,-0.38789 -0.232796,-0.3356 z" />&#10;        <path
   id="path170910"
   style="fill:#ccffe5;fill-opacity:1;stroke:none;stroke-width:0.2;stroke-linecap:round;stroke-linejoin:round;stroke-dasharray:none"
   d="m -70.569702,107.00311 c -0.152132,0.3458 0.109708,0.68641 0.219064,1.00374 0.09758,0.29778 0.632918,0.2951 0.495427,-0.0739 -0.134024,-0.30451 -0.21209,-0.7094 -0.548494,-0.85472 -0.05481,-0.0262 -0.110796,-0.0499 -0.165997,-0.0751 z m -3.829224,0.88005 c -0.07344,0.25892 -0.288359,0.55113 -0.137167,0.81619 0.06368,0.15192 0.339403,0.47456 0.453317,0.30954 -0.0139,-0.34956 -0.07941,-0.71022 -0.235894,-1.02479 -0.023,-0.0364 -0.04969,-0.0706 -0.08026,-0.10094 z m 3.153813,0.24081 c -0.41852,-0.0311 -0.193682,0.52264 -0.283799,0.76767 -0.01302,0.24694 0.377511,0.47617 0.342903,0.0994 -0.0051,-0.26524 0.361282,-0.80829 -0.0591,-0.86707 z m -1.109493,0.13023 c 0.04244,0.32425 0.129587,0.6493 0.01815,0.96505 0.07003,0.31871 0.483775,0.0986 0.304391,-0.16367 -0.105951,-0.2435 -0.09586,-0.56058 -0.148464,-0.77472 -0.0553,-0.0233 -0.115902,-0.0194 -0.174081,-0.0267 z m -1.143083,0.13745 c -0.0052,0.11468 0.02213,0.0789 0,0 z m 0.01085,0.10853 c 0.07904,0.36031 -0.08617,0.75517 0.128609,1.08821 0.103383,0.23136 0.296163,0.56221 0.477485,0.64466 -0.110332,-0.23328 -0.194138,-0.47474 -0.257816,-0.72457 -0.103792,-0.34016 -0.215728,-0.67816 -0.348278,-1.0083 z m 3.235461,1.42575 c -0.04635,0.22763 0.08871,0.61915 0.36111,0.60051 -0.03564,-0.2331 0.01927,-0.68266 -0.36111,-0.60051 z m 0.0078,0.1974 c -0.01847,0.0608 0.03364,0.0881 0,0 z m -4.294312,-0.13797 c -0.13895,0.0877 -0.609649,0.069 -0.507586,0.2717 0.192956,0.0764 0.460386,0.42765 0.623449,0.31453 -0.03103,-0.19016 0.08629,-0.46244 -0.115863,-0.58623 z m 0.361219,0.33589 c 0.05335,0.37086 0.405445,0.57607 0.69835,0.75112 0.109817,0.25648 0.598995,0.05 0.281169,-0.1447 -0.298755,-0.17627 -0.559378,-0.41489 -0.858929,-0.58211 -0.03895,-0.0131 -0.07955,-0.0217 -0.12059,-0.0243 z m 4.037996,0.50333 c -0.124737,0.31108 -0.248897,0.63797 -0.494458,0.87631 0.04499,0.37118 0.515747,-0.0181 0.578497,-0.21881 0.140942,-0.21412 0.23103,-0.54635 -0.08404,-0.6575 z m -1.797306,0.0977 c -0.05372,0.2519 0.288317,0.56198 0.414898,0.59729 0.13446,-0.24762 -0.07208,-0.44615 -0.286928,-0.53291 -0.04099,-0.0246 -0.08354,-0.0467 -0.12797,-0.0644 z m 0.630969,1.2299 c -0.169218,0.0932 -0.03358,0.6838 0.06646,0.31921 0.130591,-0.13083 0.22255,-0.34302 -0.06646,-0.31921 z m -0.03772,0.53072 c -0.09662,0.0202 0.03582,0.0702 0,0 z" />&#10;      </g>&#10;      <g
   id="g11136"
   transform="translate(-8.2248438,1.9018251)">&#10;        <path
   style="fill:none;stroke:#000000;stroke-width:0.1;stroke-linecap:round;stroke-linejoin:round;stroke-dasharray:none"
   d="m -66.102643,109.75356 -1.175924,-1.60661 0.944457,-0.2082 1.543555,1.01835"
   id="path10951"
   sodipodi:nodetypes="cccc" />&#10;        <path
   style="fill:none;stroke:#000000;stroke-width:0.1;stroke-linecap:round;stroke-linejoin:round;stroke-dasharray:none"
   d="m -66.480049,107.21401 -0.214482,-0.6453 0.410935,-0.96593 1.081651,0.74992 0.92736,2.07496"
   id="path11067" />&#10;        <path
   style="fill:none;stroke:#000000;stroke-width:0.1;stroke-linecap:round;stroke-linejoin:round;stroke-dasharray:none"
   d="m -64.235173,109.63838 -7.94e-4,-0.48024 0.577324,-0.3834 0.440946,0.46788 5.29e-4,0.32332"
   id="path11069"
   sodipodi:nodetypes="ccccc" />&#10;        <path
   style="fill:none;stroke:#000000;stroke-width:0.1;stroke-linecap:round;stroke-linejoin:round;stroke-dasharray:none"
   d="m -63.271069,110.76003 -0.08255,-0.48425 0.448493,-0.16831 0.472379,0.36481"
   id="path11071" />&#10;        <path
   style="fill:none;stroke:#000000;stroke-width:0.1;stroke-linecap:round;stroke-linejoin:round;stroke-dasharray:none"
   d="m -64.499837,106.35422 0.0865,-0.65744 0.632269,0.84345 0.07308,0.86937 -0.223016,0.29201"
   id="path11073"
   sodipodi:nodetypes="ccccc" />&#10;        <path
   style="fill:none;stroke:#000000;stroke-width:0.1;stroke-linecap:round;stroke-linejoin:round;stroke-dasharray:none"
   d="m -63.622414,105.84628 1.357683,-1.05267 0.712113,1.51315 -0.230397,0.88663"
   id="path11124" />&#10;        <path
   style="fill:none;stroke:#000000;stroke-width:0.1;stroke-linecap:round;stroke-linejoin:round;stroke-dasharray:none"
   d="m -62.792253,108.70915 0.303348,-0.33811 0.309108,-0.64237 0.482213,0.0382 0.270233,1.19229 -0.70743,0.93632"
   id="path11126"
   sodipodi:nodetypes="cccccc" />&#10;      </g>&#10;    </g>&#10;  </g>&#10;</g><g
       inkscape:label="svglink:crystal_0_color.svg"
       ns3:href="crystal_0_color.svg"
       ns4:x="-72.574448"
       ns4:y="118.63439"
       ns3:image-svg-dpi="200"
       ns3:image-height="8.337656"
       ns3:image-width="8.3279457"
       id="g64"
       transform="translate(-9.2288797,-1.5791698)"><sodipodi:namedview
   id="namedview61"
   pagecolor="#ffffff"
   bordercolor="#666666"
   borderopacity="1.0"
   inkscape:pageshadow="2"
   inkscape:pageopacity="0"
   inkscape:pagecheckerboard="false"
   inkscape:document-units="mm"
   showgrid="false"
   inkscape:zoom="16.900038"
   inkscape:cx="11.893464"
   inkscape:cy="15.828367"
   inkscape:window-width="956"
   inkscape:window-height="1037"
   inkscape:window-x="0"
   inkscape:window-y="0"
   inkscape:window-maximized="1"
   inkscape:current-layer="g11172"
   inkscape:showpageshadow="2"
   inkscape:deskcolor="#d1d1d1"
   transform="translate(-72.5744, 118.634)" />&#10;  <defs
   id="defs61"
   transform="translate(-72.5744, 118.634)" />&#10;  <g
   inkscape:label="Layer 1"
   inkscape:groupmode="layer"
   id="g63"
   transform="translate(-11.7202,-43.8196)">&#10;    <g
   id="g62"
   transform="translate(23.775236,33.801817)">&#10;      <g
   id="g171579"
   inkscape:label="crystal"
   transform="translate(-7.7807635,23.466984)">&#10;        <path
   id="path171569"
   style="fill:#e5fff2;fill-opacity:1;stroke:none;stroke-width:0.2;stroke-linecap:round;stroke-linejoin:round;stroke-dasharray:none"
   d="m -70.80867,105.23137 c -0.930437,0.0183 -0.681758,0.48218 -1.431507,0.96302 -0.369212,0.18682 -0.781555,0.29678 -1.187702,0.35003 -0.471156,-0.10562 -0.815704,-0.48587 -1.258825,-0.65924 -0.364735,-0.25805 -0.805826,-0.0705 -1.004424,0.29505 -0.419628,0.40953 0.08768,0.84975 0.05495,1.3012 -0.103427,0.50307 -0.04595,1.11887 -0.460469,1.49199 -0.270969,0.1635 -0.86446,-0.0279 -0.73333,0.50902 0.04649,0.57824 0.626792,0.83991 1.011625,1.17857 0.348823,0.23898 0.496675,1.43501 0.710956,1.79249 0.329781,0.55017 2.020791,1.15535 2.718806,1.05943 0.409132,-0.0235 0.389686,-0.0919 0.609107,-0.17724 0.21942,-0.0854 0.181691,-0.24087 0.697767,-0.34466 0.744972,-0.14982 1.001962,-0.89203 1.533643,-1.38755 0.267156,-0.34546 0.80027,-0.441 0.817429,-0.93573 0.217422,-0.79379 0.1858,-1.48446 0.13046,-2.29309 -0.03252,-0.47513 0.158433,-1.20542 0.0407,-1.70908 -0.09635,-0.41218 -0.852122,-0.78185 -0.998925,-1.27103 -0.101326,-0.33764 -0.970403,-0.16573 -1.250257,-0.16318 z"
   sodipodi:nodetypes="cccccccccsszsccsssc" />&#10;        <path
   id="path171571"
   style="fill:#ccffe5;fill-opacity:1;stroke:none;stroke-width:0.2;stroke-linecap:round;stroke-linejoin:round;stroke-dasharray:none"
   d="m -70.370811,105.8095 c -0.64275,-0.005 -1.317115,1.02872 -2.074543,1.08863 -0.65688,0.052 -0.358064,0.59076 -0.858337,0.46996 -0.516488,-0.12472 -1.319509,-1.40707 -1.593396,-0.29677 -0.199229,0.80765 -0.499314,1.45589 -0.945193,2.1362 -0.417892,0.63762 -0.297515,0.70731 0.0021,1.09709 0.442688,0.57597 0.986769,1.96916 1.547138,2.5289 0.769291,0.76843 1.177457,0.19494 1.768261,0.16009 0.699369,-0.0413 1.470794,0.18489 2.056397,-0.43428 0.577188,-0.61027 1.744268,-1.44922 1.428895,-2.39187 -0.277801,-0.83036 0.359201,-1.351 0.08464,-2.03179 -0.43171,-1.07045 -0.496984,-1.75822 -1.065048,-2.21406 -0.108178,-0.0868 -0.231856,-0.11127 -0.350883,-0.11214 z"
   sodipodi:nodetypes="cccscssasssscc" />&#10;        <path
   id="path171573"
   style="fill:#b3ffd8;fill-opacity:1;stroke:none;stroke-width:0.2;stroke-linecap:round;stroke-linejoin:round;stroke-dasharray:none"
   d="m -70.464799,106.48893 c -0.308389,0.10858 -0.507417,0.40558 -0.787415,0.56901 -0.280007,0.24671 -0.650034,0.17167 -0.983191,0.12562 -0.291172,-0.04 -0.671747,0.0187 -0.774959,0.34123 -0.03814,0.21257 -0.05743,0.50338 -0.312277,0.24747 -0.399856,-0.27261 -0.809924,-0.63803 -1.329787,-0.59046 -0.318917,0.0388 -0.347927,0.41113 -0.415886,0.65698 -0.224564,0.49752 0.0808,1.01313 0.05462,1.52181 -0.01503,0.38355 -0.450144,0.3603 -0.716452,0.44657 -0.340848,0.13107 -0.123631,0.54133 0.08207,0.69204 0.253208,0.25083 0.375615,0.46829 0.617315,0.74463 0.304883,0.34858 0.387397,1.51204 1.643231,1.68303 0.576364,0.0785 0.682652,-0.17632 1.03101,-0.22523 0.385612,-0.0541 0.779248,0.0792 1.165798,-0.0746 0.506871,-0.17682 0.892983,-0.6007 1.167859,-1.04816 0.383981,-0.63538 -0.137107,-1.38425 0.173098,-2.03694 0.153764,-0.40755 0.426558,-1.13798 0.349977,-1.60786 -0.133928,-0.43638 -0.434557,-0.28225 -0.663109,-0.66269 -0.21164,-0.21264 -0.133938,-0.60078 -0.301893,-0.78246 z"
   sodipodi:nodetypes="scccccccccssaccccccs" />&#10;        <path
   id="path171575"
   style="fill:#99ffcb;fill-opacity:1;stroke:none;stroke-width:0.2;stroke-linecap:round;stroke-linejoin:round;stroke-dasharray:none"
   d="m -70.499418,106.41364 c -0.670946,0.15712 -1.238009,0.63214 -1.585433,1.21801 -0.180686,-0.25849 -0.745739,-0.59225 -0.87965,-0.13247 -0.101749,0.36543 -0.05459,0.75489 -0.113641,1.12354 -0.179355,-0.18441 -0.325191,-0.4272 -0.510351,-0.62099 -0.217595,-0.24971 -0.482156,-0.53348 -0.832389,-0.55441 -0.329126,0.0987 -0.330319,0.52383 -0.465868,0.7881 -0.09837,0.39121 -0.02849,0.83745 0.207721,1.165 0.122069,0.0695 0.502994,0.29433 0.410505,0.30734 -0.321694,-0.26526 -0.753032,-0.21155 -1.075008,0.0131 -0.301545,0.0334 -0.497248,0.34115 -0.212698,0.55072 0.344787,0.44318 0.671882,0.90181 0.960699,1.38237 0.08125,0.17366 0.574862,0.19382 0.19572,0.32128 -0.220733,0.0212 -0.787526,0.15252 -0.458053,0.45021 0.380507,0.20367 0.780606,0.44078 1.230473,0.40225 0.266999,0.007 0.655501,-0.0529 0.699057,-0.37635 -0.01937,-0.32628 -0.0073,-0.79504 -0.398815,-0.90364 -0.101367,-0.0846 0.255399,-0.28583 0.331491,-0.43126 0.267795,-0.12346 -0.09347,-0.62761 0.282473,-0.48465 0.387099,-0.11512 0.230373,-0.58557 0.192854,-0.87552 -0.0332,-0.15232 -0.169488,-0.52202 0.103007,-0.30294 0.27834,0.15991 0.715168,0.4029 0.996705,0.22102 0.112548,-0.38927 0.04793,-0.8326 -0.272333,-1.12736 -0.08575,-0.0903 -0.245994,-0.43066 -0.0017,-0.21926 0.289026,-0.003 0.01142,0.30617 0.207091,0.44335 0.186745,0.27859 0.395092,0.71075 0.787423,0.68469 0.336431,0.0117 -0.196865,0.27872 -0.225398,0.41789 -0.187349,0.31005 -0.304458,0.70363 -0.163364,1.05647 0.01278,0.3802 0.329159,0.56153 0.550224,0.83321 0.252141,0.30868 0.765964,0.0712 0.907466,-0.24149 0.08732,-0.383 0.216812,-0.76029 0.329797,-1.12841 2e-4,-0.4091 -0.025,-0.98912 -0.219484,-1.31688 0.221518,-0.32967 0.04497,-1.11355 0.104486,-1.49212 -0.0019,-0.50633 -0.465102,-0.2695 -0.653846,-0.71887 -0.10021,-0.17964 -0.204757,-0.40876 -0.42913,-0.45192 z m -1.376143,3.78582 c -0.438137,0.0777 -0.625725,0.50883 -0.76407,0.87334 -0.239741,0.24021 -0.34181,0.74007 0.109895,0.79227 0.318826,0.1584 0.661441,0.1151 0.904054,-0.15193 0.283745,-0.11628 0.505263,-0.35671 0.325908,-0.67254 -0.01078,-0.3242 -0.0851,-0.66914 -0.446174,-0.77934 -0.04273,-0.0216 -0.08613,-0.0418 -0.129613,-0.0618 z m 1.038179,1.54926 c -0.323663,0.0597 -0.739425,0.0535 -0.939033,0.36211 -0.172656,0.33133 0.126255,0.76731 0.509298,0.59413 0.176719,-0.19181 0.829371,-0.19484 0.639111,-0.56084 -0.169331,-0.0833 0.01329,-0.39258 -0.209376,-0.3954 z"
   sodipodi:nodetypes="ccccccccccccccccccccccccccccccccccsccccccccccccc" />&#10;        <path
   id="path171577"
   style="fill:#ccffe5;fill-opacity:1;stroke:none;stroke-width:0.2;stroke-linecap:round;stroke-linejoin:round;stroke-dasharray:none"
   d="m -70.569698,107.00327 c -0.152132,0.3458 0.109752,0.68623 0.219108,1.00355 0.09758,0.29778 0.633068,0.29511 0.495577,-0.0739 -0.134024,-0.30451 -0.2124,-0.70941 -0.548804,-0.85473 -0.05481,-0.0262 -0.11068,-0.0497 -0.165881,-0.0749 z m -3.829224,0.88005 c -0.07344,0.25892 -0.288134,0.55091 -0.136942,0.81597 0.06368,0.15192 0.339288,0.47456 0.453202,0.30954 -0.0139,-0.34956 -0.07968,-0.71017 -0.236161,-1.02474 -0.023,-0.0364 -0.04953,-0.0704 -0.0801,-0.10077 z m 3.116606,0.23926 c -0.367394,0.004 -0.159196,0.53157 -0.246497,0.76895 -0.01302,0.24694 0.377223,0.4765 0.342615,0.0997 -0.0051,-0.26524 0.361471,-0.80835 -0.05891,-0.86713 -0.01308,-9.7e-4 -0.02536,-0.002 -0.03721,-0.002 z m -1.072286,0.13177 c 0.04244,0.32425 0.129524,0.64905 0.01809,0.9648 0.07003,0.31871 0.483758,0.0985 0.304374,-0.16381 -0.105951,-0.2435 -0.09571,-0.56049 -0.148311,-0.77463 -0.0553,-0.0233 -0.115971,-0.0191 -0.17415,-0.0264 z m -1.143083,0.13746 c -0.0052,0.11468 0.02213,0.0789 0,0 z m 0.01085,0.10852 c 0.07904,0.36031 -0.0861,0.75527 0.128675,1.08831 0.103383,0.23136 0.296168,0.56196 0.47749,0.64441 -0.110332,-0.23328 -0.194188,-0.47468 -0.257866,-0.72451 -0.103791,-0.34016 -0.215749,-0.67807 -0.348299,-1.00821 z m 3.33158,1.41594 c -0.02844,-10e-4 -0.06046,0.002 -0.09612,0.01 -0.01312,0.0644 -0.01134,0.14193 0.0036,0.21962 -5.81e-4,0.0131 0.0023,0.0234 0.0057,0.0289 0.04406,0.18669 0.166183,0.36463 0.351916,0.35192 -0.0323,-0.21125 0.0098,-0.60036 -0.2651,-0.6103 z m -4.382678,0.0692 c -0.13895,0.0877 -0.609526,0.0686 -0.507463,0.2713 0.192956,0.0764 0.460155,0.42783 0.623218,0.31471 -0.03103,-0.19016 0.0864,-0.46222 -0.115755,-0.58601 z m 0.361218,0.33589 c 0.05335,0.37086 0.405244,0.57581 0.698149,0.75086 0.109816,0.25648 0.599462,0.05 0.281636,-0.14469 -0.298755,-0.17627 -0.559828,-0.41466 -0.859379,-0.58188 -0.03895,-0.0131 -0.07937,-0.0217 -0.120406,-0.0243 z m 4.037996,0.50333 c -0.124736,0.31108 -0.248982,0.63758 -0.494543,0.87592 0.04499,0.37118 0.516026,-0.0179 0.578776,-0.2186 0.140942,-0.21411 0.230836,-0.54617 -0.08423,-0.65732 z m -1.797306,0.0977 c -0.05372,0.2519 0.288381,0.56207 0.414962,0.59738 0.13446,-0.24762 -0.07196,-0.44654 -0.286804,-0.5333 -0.04099,-0.0246 -0.08373,-0.0464 -0.128158,-0.0641 z m -1.307414,1.15652 c -0.0012,1e-4 -0.0024,2.5e-4 -0.0036,5.1e-4 -0.05827,0.0207 -0.100335,0.0754 -0.165881,0.0785 -0.102995,0.02 -0.210871,0.021 -0.307992,0.0651 -0.08923,0.032 -0.175357,0.0888 -0.273885,0.0806 -0.05319,-0.009 -0.135183,0.0354 -0.09715,0.0966 0.03659,0.0461 0.100961,0.0565 0.151929,0.0811 0.02458,0.01 0.01666,0.0117 0.02532,5.1e-4 0.05603,-0.007 0.11249,-0.0305 0.171566,-0.0134 0.07709,0.0172 0.155055,0.0287 0.234094,0.031 0.11047,0.006 0.227154,0.0129 0.331763,-0.0289 0.07222,-0.049 0.07555,-0.1538 0.04703,-0.22893 -0.02247,-0.0455 -0.04125,-0.0937 -0.06873,-0.13643 -0.01083,-0.0127 -0.02661,-0.0279 -0.04444,-0.0263 z m 1.987993,0.0713 c -0.01517,-2.8e-4 -0.03155,5.8e-4 -0.04961,0.002 -0.169218,0.0932 -0.03338,0.68343 0.06666,0.31884 0.122429,-0.12265 0.210502,-0.31674 -0.01705,-0.32091 z m -0.08733,0.53279 c -0.09662,0.0202 0.03582,0.0702 0,0 z" />&#10;      </g>&#10;      <g
   id="g11172"
   transform="translate(-16.027854,25.263163)">&#10;        <path
   style="fill:none;stroke:#000000;stroke-width:0.1;stroke-linecap:round;stroke-linejoin:round;stroke-dasharray:none"
   d="m -66.102643,109.75356 -1.175924,-1.60661 0.944457,-0.2082 1.543555,1.01835"
   id="path11156"
   sodipodi:nodetypes="cccc" />&#10;        <path
   style="fill:none;stroke:#000000;stroke-width:0.1;stroke-linecap:round;stroke-linejoin:round;stroke-dasharray:none"
   d="m -65.479342,110.15881 -0.610507,0.42876 0.610515,0.18279 0.645459,-0.12078 -0.07404,-0.23507"
   id="path11158" />&#10;        <path
   style="fill:none;stroke:#000000;stroke-width:0.1;stroke-linecap:round;stroke-linejoin:round;stroke-dasharray:none"
   d="m -66.480049,107.21401 -0.214482,-0.6453 0.410935,-0.96593 1.081651,0.74992 0.92736,2.07496"
   id="path11160" />&#10;        <path
   style="fill:none;stroke:#000000;stroke-width:0.1;stroke-linecap:round;stroke-linejoin:round;stroke-dasharray:none"
   d="m -63.929439,110.36737 -0.305734,-0.72899 -7.94e-4,-0.48024 0.577324,-0.3834 0.440946,0.46788 5.29e-4,0.32332"
   id="path11162" />&#10;        <path
   style="fill:none;stroke:#000000;stroke-width:0.1;stroke-linecap:round;stroke-linejoin:round;stroke-dasharray:none"
   d="m -63.271069,110.76003 -0.08255,-0.48425 0.448493,-0.16831 0.472379,0.36481"
   id="path11164" />&#10;        <path
   style="fill:none;stroke:#000000;stroke-width:0.1;stroke-linecap:round;stroke-linejoin:round;stroke-dasharray:none"
   d="m -64.499837,106.35422 0.0865,-0.65744 0.632269,0.84345 0.07308,0.86937 -0.223016,0.29201"
   id="path11166"
   sodipodi:nodetypes="ccccc" />&#10;        <path
   style="fill:none;stroke:#000000;stroke-width:0.1;stroke-linecap:round;stroke-linejoin:round;stroke-dasharray:none"
   d="m -63.622414,105.84628 1.357683,-1.05267 0.712113,1.51315 -0.230397,0.88663"
   id="path11168" />&#10;        <path
   style="fill:none;stroke:#000000;stroke-width:0.1;stroke-linecap:round;stroke-linejoin:round;stroke-dasharray:none"
   d="m -62.792253,108.70915 0.303348,-0.33811 0.309108,-0.64237 0.482213,0.0382 0.270233,1.19229 -0.70743,0.93632"
   id="path11170"
   sodipodi:nodetypes="cccccc" />&#10;      </g>&#10;    </g>&#10;  </g>&#10;</g><g
       inkscape:label="svglink:crystal_0_color.svg"
       ns3:href="crystal_0_color.svg"
       ns4:x="-72.574448"
       ns4:y="118.63439"
       ns3:image-svg-dpi="200"
       ns3:image-height="8.337656"
       ns3:image-width="8.3279457"
       id="g79"
       transform="translate(-14.97197,6.5727931)"><sodipodi:namedview
   id="namedview64"
   pagecolor="#ffffff"
   bordercolor="#666666"
   borderopacity="1.0"
   inkscape:pageshadow="2"
   inkscape:pageopacity="0"
   inkscape:pagecheckerboard="false"
   inkscape:document-units="mm"
   showgrid="false"
   inkscape:zoom="16.900038"
   inkscape:cx="11.893464"
   inkscape:cy="15.828367"
   inkscape:window-width="956"
   inkscape:window-height="1037"
   inkscape:window-x="0"
   inkscape:window-y="0"
   inkscape:window-maximized="1"
   inkscape:current-layer="g11172"
   inkscape:showpageshadow="2"
   inkscape:deskcolor="#d1d1d1"
   transform="translate(-72.5744, 118.634)" />&#10;  <defs
   id="defs64"
   transform="translate(-72.5744, 118.634)" />&#10;  <g
   inkscape:label="Layer 1"
   inkscape:groupmode="layer"
   id="g78"
   transform="translate(-11.7202,-43.8196)">&#10;    <g
   id="g77"
   transform="translate(23.775236,33.801817)">&#10;      <g
   id="g68"
   inkscape:label="crystal"
   transform="translate(-7.7807635,23.466984)">&#10;        <path
   id="path64"
   style="fill:#e5fff2;fill-opacity:1;stroke:none;stroke-width:0.2;stroke-linecap:round;stroke-linejoin:round;stroke-dasharray:none"
   d="m -70.80867,105.23137 c -0.930437,0.0183 -0.681758,0.48218 -1.431507,0.96302 -0.369212,0.18682 -0.781555,0.29678 -1.187702,0.35003 -0.471156,-0.10562 -0.815704,-0.48587 -1.258825,-0.65924 -0.364735,-0.25805 -0.805826,-0.0705 -1.004424,0.29505 -0.419628,0.40953 0.08768,0.84975 0.05495,1.3012 -0.103427,0.50307 -0.04595,1.11887 -0.460469,1.49199 -0.270969,0.1635 -0.86446,-0.0279 -0.73333,0.50902 0.04649,0.57824 0.626792,0.83991 1.011625,1.17857 0.348823,0.23898 0.496675,1.43501 0.710956,1.79249 0.329781,0.55017 2.020791,1.15535 2.718806,1.05943 0.409132,-0.0235 0.389686,-0.0919 0.609107,-0.17724 0.21942,-0.0854 0.181691,-0.24087 0.697767,-0.34466 0.744972,-0.14982 1.001962,-0.89203 1.533643,-1.38755 0.267156,-0.34546 0.80027,-0.441 0.817429,-0.93573 0.217422,-0.79379 0.1858,-1.48446 0.13046,-2.29309 -0.03252,-0.47513 0.158433,-1.20542 0.0407,-1.70908 -0.09635,-0.41218 -0.852122,-0.78185 -0.998925,-1.27103 -0.101326,-0.33764 -0.970403,-0.16573 -1.250257,-0.16318 z"
   sodipodi:nodetypes="cccccccccsszsccsssc" />&#10;        <path
   id="path65"
   style="fill:#ccffe5;fill-opacity:1;stroke:none;stroke-width:0.2;stroke-linecap:round;stroke-linejoin:round;stroke-dasharray:none"
   d="m -70.370811,105.8095 c -0.64275,-0.005 -1.317115,1.02872 -2.074543,1.08863 -0.65688,0.052 -0.358064,0.59076 -0.858337,0.46996 -0.516488,-0.12472 -1.319509,-1.40707 -1.593396,-0.29677 -0.199229,0.80765 -0.499314,1.45589 -0.945193,2.1362 -0.417892,0.63762 -0.297515,0.70731 0.0021,1.09709 0.442688,0.57597 0.986769,1.96916 1.547138,2.5289 0.769291,0.76843 1.177457,0.19494 1.768261,0.16009 0.699369,-0.0413 1.470794,0.18489 2.056397,-0.43428 0.577188,-0.61027 1.744268,-1.44922 1.428895,-2.39187 -0.277801,-0.83036 0.359201,-1.351 0.08464,-2.03179 -0.43171,-1.07045 -0.496984,-1.75822 -1.065048,-2.21406 -0.108178,-0.0868 -0.231856,-0.11127 -0.350883,-0.11214 z"
   sodipodi:nodetypes="cccscssasssscc" />&#10;        <path
   id="path66"
   style="fill:#b3ffd8;fill-opacity:1;stroke:none;stroke-width:0.2;stroke-linecap:round;stroke-linejoin:round;stroke-dasharray:none"
   d="m -70.464799,106.48893 c -0.308389,0.10858 -0.507417,0.40558 -0.787415,0.56901 -0.280007,0.24671 -0.650034,0.17167 -0.983191,0.12562 -0.291172,-0.04 -0.671747,0.0187 -0.774959,0.34123 -0.03814,0.21257 -0.05743,0.50338 -0.312277,0.24747 -0.399856,-0.27261 -0.809924,-0.63803 -1.329787,-0.59046 -0.318917,0.0388 -0.347927,0.41113 -0.415886,0.65698 -0.224564,0.49752 0.0808,1.01313 0.05462,1.52181 -0.01503,0.38355 -0.450144,0.3603 -0.716452,0.44657 -0.340848,0.13107 -0.123631,0.54133 0.08207,0.69204 0.253208,0.25083 0.375615,0.46829 0.617315,0.74463 0.304883,0.34858 0.387397,1.51204 1.643231,1.68303 0.576364,0.0785 0.682652,-0.17632 1.03101,-0.22523 0.385612,-0.0541 0.779248,0.0792 1.165798,-0.0746 0.506871,-0.17682 0.892983,-0.6007 1.167859,-1.04816 0.383981,-0.63538 -0.137107,-1.38425 0.173098,-2.03694 0.153764,-0.40755 0.426558,-1.13798 0.349977,-1.60786 -0.133928,-0.43638 -0.434557,-0.28225 -0.663109,-0.66269 -0.21164,-0.21264 -0.133938,-0.60078 -0.301893,-0.78246 z"
   sodipodi:nodetypes="scccccccccssaccccccs" />&#10;        <path
   id="path67"
   style="fill:#99ffcb;fill-opacity:1;stroke:none;stroke-width:0.2;stroke-linecap:round;stroke-linejoin:round;stroke-dasharray:none"
   d="m -70.499418,106.41364 c -0.670946,0.15712 -1.238009,0.63214 -1.585433,1.21801 -0.180686,-0.25849 -0.745739,-0.59225 -0.87965,-0.13247 -0.101749,0.36543 -0.05459,0.75489 -0.113641,1.12354 -0.179355,-0.18441 -0.325191,-0.4272 -0.510351,-0.62099 -0.217595,-0.24971 -0.482156,-0.53348 -0.832389,-0.55441 -0.329126,0.0987 -0.330319,0.52383 -0.465868,0.7881 -0.09837,0.39121 -0.02849,0.83745 0.207721,1.165 0.122069,0.0695 0.502994,0.29433 0.410505,0.30734 -0.321694,-0.26526 -0.753032,-0.21155 -1.075008,0.0131 -0.301545,0.0334 -0.497248,0.34115 -0.212698,0.55072 0.344787,0.44318 0.671882,0.90181 0.960699,1.38237 0.08125,0.17366 0.574862,0.19382 0.19572,0.32128 -0.220733,0.0212 -0.787526,0.15252 -0.458053,0.45021 0.380507,0.20367 0.780606,0.44078 1.230473,0.40225 0.266999,0.007 0.655501,-0.0529 0.699057,-0.37635 -0.01937,-0.32628 -0.0073,-0.79504 -0.398815,-0.90364 -0.101367,-0.0846 0.255399,-0.28583 0.331491,-0.43126 0.267795,-0.12346 -0.09347,-0.62761 0.282473,-0.48465 0.387099,-0.11512 0.230373,-0.58557 0.192854,-0.87552 -0.0332,-0.15232 -0.169488,-0.52202 0.103007,-0.30294 0.27834,0.15991 0.715168,0.4029 0.996705,0.22102 0.112548,-0.38927 0.04793,-0.8326 -0.272333,-1.12736 -0.08575,-0.0903 -0.245994,-0.43066 -0.0017,-0.21926 0.289026,-0.003 0.01142,0.30617 0.207091,0.44335 0.186745,0.27859 0.395092,0.71075 0.787423,0.68469 0.336431,0.0117 -0.196865,0.27872 -0.225398,0.41789 -0.187349,0.31005 -0.304458,0.70363 -0.163364,1.05647 0.01278,0.3802 0.329159,0.56153 0.550224,0.83321 0.252141,0.30868 0.765964,0.0712 0.907466,-0.24149 0.08732,-0.383 0.216812,-0.76029 0.329797,-1.12841 2e-4,-0.4091 -0.025,-0.98912 -0.219484,-1.31688 0.221518,-0.32967 0.04497,-1.11355 0.104486,-1.49212 -0.0019,-0.50633 -0.465102,-0.2695 -0.653846,-0.71887 -0.10021,-0.17964 -0.204757,-0.40876 -0.42913,-0.45192 z m -1.376143,3.78582 c -0.438137,0.0777 -0.625725,0.50883 -0.76407,0.87334 -0.239741,0.24021 -0.34181,0.74007 0.109895,0.79227 0.318826,0.1584 0.661441,0.1151 0.904054,-0.15193 0.283745,-0.11628 0.505263,-0.35671 0.325908,-0.67254 -0.01078,-0.3242 -0.0851,-0.66914 -0.446174,-0.77934 -0.04273,-0.0216 -0.08613,-0.0418 -0.129613,-0.0618 z m 1.038179,1.54926 c -0.323663,0.0597 -0.739425,0.0535 -0.939033,0.36211 -0.172656,0.33133 0.126255,0.76731 0.509298,0.59413 0.176719,-0.19181 0.829371,-0.19484 0.639111,-0.56084 -0.169331,-0.0833 0.01329,-0.39258 -0.209376,-0.3954 z"
   sodipodi:nodetypes="ccccccccccccccccccccccccccccccccccsccccccccccccc" />&#10;        <path
   id="path68"
   style="fill:#ccffe5;fill-opacity:1;stroke:none;stroke-width:0.2;stroke-linecap:round;stroke-linejoin:round;stroke-dasharray:none"
   d="m -70.569698,107.00327 c -0.152132,0.3458 0.109752,0.68623 0.219108,1.00355 0.09758,0.29778 0.633068,0.29511 0.495577,-0.0739 -0.134024,-0.30451 -0.2124,-0.70941 -0.548804,-0.85473 -0.05481,-0.0262 -0.11068,-0.0497 -0.165881,-0.0749 z m -3.829224,0.88005 c -0.07344,0.25892 -0.288134,0.55091 -0.136942,0.81597 0.06368,0.15192 0.339288,0.47456 0.453202,0.30954 -0.0139,-0.34956 -0.07968,-0.71017 -0.236161,-1.02474 -0.023,-0.0364 -0.04953,-0.0704 -0.0801,-0.10077 z m 3.116606,0.23926 c -0.367394,0.004 -0.159196,0.53157 -0.246497,0.76895 -0.01302,0.24694 0.377223,0.4765 0.342615,0.0997 -0.0051,-0.26524 0.361471,-0.80835 -0.05891,-0.86713 -0.01308,-9.7e-4 -0.02536,-0.002 -0.03721,-0.002 z m -1.072286,0.13177 c 0.04244,0.32425 0.129524,0.64905 0.01809,0.9648 0.07003,0.31871 0.483758,0.0985 0.304374,-0.16381 -0.105951,-0.2435 -0.09571,-0.56049 -0.148311,-0.77463 -0.0553,-0.0233 -0.115971,-0.0191 -0.17415,-0.0264 z m -1.143083,0.13746 c -0.0052,0.11468 0.02213,0.0789 0,0 z m 0.01085,0.10852 c 0.07904,0.36031 -0.0861,0.75527 0.128675,1.08831 0.103383,0.23136 0.296168,0.56196 0.47749,0.64441 -0.110332,-0.23328 -0.194188,-0.47468 -0.257866,-0.72451 -0.103791,-0.34016 -0.215749,-0.67807 -0.348299,-1.00821 z m 3.33158,1.41594 c -0.02844,-10e-4 -0.06046,0.002 -0.09612,0.01 -0.01312,0.0644 -0.01134,0.14193 0.0036,0.21962 -5.81e-4,0.0131 0.0023,0.0234 0.0057,0.0289 0.04406,0.18669 0.166183,0.36463 0.351916,0.35192 -0.0323,-0.21125 0.0098,-0.60036 -0.2651,-0.6103 z m -4.382678,0.0692 c -0.13895,0.0877 -0.609526,0.0686 -0.507463,0.2713 0.192956,0.0764 0.460155,0.42783 0.623218,0.31471 -0.03103,-0.19016 0.0864,-0.46222 -0.115755,-0.58601 z m 0.361218,0.33589 c 0.05335,0.37086 0.405244,0.57581 0.698149,0.75086 0.109816,0.25648 0.599462,0.05 0.281636,-0.14469 -0.298755,-0.17627 -0.559828,-0.41466 -0.859379,-0.58188 -0.03895,-0.0131 -0.07937,-0.0217 -0.120406,-0.0243 z m 4.037996,0.50333 c -0.124736,0.31108 -0.248982,0.63758 -0.494543,0.87592 0.04499,0.37118 0.516026,-0.0179 0.578776,-0.2186 0.140942,-0.21411 0.230836,-0.54617 -0.08423,-0.65732 z m -1.797306,0.0977 c -0.05372,0.2519 0.288381,0.56207 0.414962,0.59738 0.13446,-0.24762 -0.07196,-0.44654 -0.286804,-0.5333 -0.04099,-0.0246 -0.08373,-0.0464 -0.128158,-0.0641 z m -1.307414,1.15652 c -0.0012,1e-4 -0.0024,2.5e-4 -0.0036,5.1e-4 -0.05827,0.0207 -0.100335,0.0754 -0.165881,0.0785 -0.102995,0.02 -0.210871,0.021 -0.307992,0.0651 -0.08923,0.032 -0.175357,0.0888 -0.273885,0.0806 -0.05319,-0.009 -0.135183,0.0354 -0.09715,0.0966 0.03659,0.0461 0.100961,0.0565 0.151929,0.0811 0.02458,0.01 0.01666,0.0117 0.02532,5.1e-4 0.05603,-0.007 0.11249,-0.0305 0.171566,-0.0134 0.07709,0.0172 0.155055,0.0287 0.234094,0.031 0.11047,0.006 0.227154,0.0129 0.331763,-0.0289 0.07222,-0.049 0.07555,-0.1538 0.04703,-0.22893 -0.02247,-0.0455 -0.04125,-0.0937 -0.06873,-0.13643 -0.01083,-0.0127 -0.02661,-0.0279 -0.04444,-0.0263 z m 1.987993,0.0713 c -0.01517,-2.8e-4 -0.03155,5.8e-4 -0.04961,0.002 -0.169218,0.0932 -0.03338,0.68343 0.06666,0.31884 0.122429,-0.12265 0.210502,-0.31674 -0.01705,-0.32091 z m -0.08733,0.53279 c -0.09662,0.0202 0.03582,0.0702 0,0 z" />&#10;      </g>&#10;      <g
   id="g76"
   transform="translate(-16.027854,25.263163)">&#10;        <path
   style="fill:none;stroke:#000000;stroke-width:0.1;stroke-linecap:round;stroke-linejoin:round;stroke-dasharray:none"
   d="m -66.102643,109.75356 -1.175924,-1.60661 0.944457,-0.2082 1.543555,1.01835"
   id="path69"
   sodipodi:nodetypes="cccc" />&#10;        <path
   style="fill:none;stroke:#000000;stroke-width:0.1;stroke-linecap:round;stroke-linejoin:round;stroke-dasharray:none"
   d="m -65.479342,110.15881 -0.610507,0.42876 0.610515,0.18279 0.645459,-0.12078 -0.07404,-0.23507"
   id="path70" />&#10;        <path
   style="fill:none;stroke:#000000;stroke-width:0.1;stroke-linecap:round;stroke-linejoin:round;stroke-dasharray:none"
   d="m -66.480049,107.21401 -0.214482,-0.6453 0.410935,-0.96593 1.081651,0.74992 0.92736,2.07496"
   id="path71" />&#10;        <path
   style="fill:none;stroke:#000000;stroke-width:0.1;stroke-linecap:round;stroke-linejoin:round;stroke-dasharray:none"
   d="m -63.929439,110.36737 -0.305734,-0.72899 -7.94e-4,-0.48024 0.577324,-0.3834 0.440946,0.46788 5.29e-4,0.32332"
   id="path72" />&#10;        <path
   style="fill:none;stroke:#000000;stroke-width:0.1;stroke-linecap:round;stroke-linejoin:round;stroke-dasharray:none"
   d="m -63.271069,110.76003 -0.08255,-0.48425 0.448493,-0.16831 0.472379,0.36481"
   id="path73" />&#10;        <path
   style="fill:none;stroke:#000000;stroke-width:0.1;stroke-linecap:round;stroke-linejoin:round;stroke-dasharray:none"
   d="m -64.499837,106.35422 0.0865,-0.65744 0.632269,0.84345 0.07308,0.86937 -0.223016,0.29201"
   id="path74"
   sodipodi:nodetypes="ccccc" />&#10;        <path
   style="fill:none;stroke:#000000;stroke-width:0.1;stroke-linecap:round;stroke-linejoin:round;stroke-dasharray:none"
   d="m -63.622414,105.84628 1.357683,-1.05267 0.712113,1.51315 -0.230397,0.88663"
   id="path75" />&#10;        <path
   style="fill:none;stroke:#000000;stroke-width:0.1;stroke-linecap:round;stroke-linejoin:round;stroke-dasharray:none"
   d="m -62.792253,108.70915 0.303348,-0.33811 0.309108,-0.64237 0.482213,0.0382 0.270233,1.19229 -0.70743,0.93632"
   id="path76"
   sodipodi:nodetypes="cccccc" />&#10;      </g>&#10;    </g>&#10;  </g>&#10;</g><g
       inkscape:label="svglink:alpaca_color.svg"
       ns3:href="alpaca_color.svg"
       ns4:x="-90.208061"
       ns4:y="100.06606"
       ns3:image-svg-dpi="200"
       ns3:image-height="7.488687"
       ns3:image-width="6.4144788"
       id="g105"
       transform="translate(15.245372,21.79081)"><sodipodi:namedview
   id="namedview81"
   pagecolor="#ffffff"
   bordercolor="#666666"
   borderopacity="1.0"
   inkscape:pageshadow="2"
   inkscape:pageopacity="0"
   inkscape:pagecheckerboard="false"
   inkscape:document-units="mm"
   showgrid="false"
   inkscape:zoom="9.0510665"
   inkscape:cx="15.025854"
   inkscape:cy="29.002107"
   inkscape:window-width="636"
   inkscape:window-height="1037"
   inkscape:window-x="0"
   inkscape:window-y="0"
   inkscape:window-maximized="1"
   inkscape:current-layer="g3099"
   inkscape:showpageshadow="2"
   inkscape:deskcolor="#ffffff"
   transform="translate(-90.2081, 100.066)" />&#10;  <defs
   id="defs87"
   transform="translate(-90.2081, 100.066)">&#10;    <inkscape:path-effect
   effect="simplify"
   id="path-effect81"
   is_visible="true"
   lpeversion="1"
   steps="1"
   threshold="0.0168421"
   smooth_angles="360"
   helper_size="0"
   simplify_individual_paths="false"
   simplify_just_coalesce="false" />&#10;    <inkscape:path-effect
   effect="simplify"
   id="path-effect82"
   is_visible="true"
   lpeversion="1"
   steps="1"
   threshold="0.0168421"
   smooth_angles="360"
   helper_size="0"
   simplify_individual_paths="false"
   simplify_just_coalesce="false" />&#10;    <inkscape:path-effect
   effect="simplify"
   id="path-effect83"
   is_visible="true"
   lpeversion="1"
   steps="1"
   threshold="0.0168421"
   smooth_angles="360"
   helper_size="0"
   simplify_individual_paths="false"
   simplify_just_coalesce="false" />&#10;    <inkscape:path-effect
   effect="simplify"
   id="path-effect84"
   is_visible="true"
   lpeversion="1"
   steps="1"
   threshold="0.0168421"
   smooth_angles="360"
   helper_size="0"
   simplify_individual_paths="false"
   simplify_just_coalesce="false" />&#10;    <inkscape:path-effect
   effect="simplify"
   id="path-effect85"
   is_visible="true"
   lpeversion="1"
   steps="1"
   threshold="0.0168421"
   smooth_angles="360"
   helper_size="0"
   simplify_individual_paths="false"
   simplify_just_coalesce="false" />&#10;    <inkscape:path-effect
   effect="simplify"
   id="path-effect86"
   is_visible="true"
   lpeversion="1"
   steps="1"
   threshold="0.0168421"
   smooth_angles="360"
   helper_size="0"
   simplify_individual_paths="false"
   simplify_just_coalesce="false" />&#10;    <inkscape:path-effect
   effect="simplify"
   id="path-effect87"
   is_visible="true"
   lpeversion="1"
   steps="1"
   threshold="0.0168421"
   smooth_angles="360"
   helper_size="0"
   simplify_individual_paths="false"
   simplify_just_coalesce="false" />&#10;  </defs>&#10;  <g
   inkscape:label="Layer 1"
   inkscape:groupmode="layer"
   id="g104"
   transform="translate(-35.39,-14.5779)">&#10;    <path
   id="path87"
   style="fill:#fff5f8;fill-opacity:1;stroke:none;stroke-width:0.2;stroke-linecap:round;stroke-linejoin:round;stroke-dasharray:none"
   d="m -49.296288,114.64431 c -0.756107,0.0108 -1.001838,0.47532 -1.79605,0.22275 -0.955829,-0.30395 0.0642,1.25919 0.309306,1.7585 0.536878,1.09366 -1.403642,0.42014 -2.385479,0.4946 -1.274196,0.0967 -1.616067,0.3346 -1.648538,0.92277 -0.03109,0.56306 0.813024,1.36131 0.885646,2.45563 0.06692,1.00836 0.728657,1.53999 1.151423,1.40591 0.297637,-0.0944 0.828438,0.0837 1.107379,-0.0494 0.698709,-0.33327 0.887879,0.40939 1.677635,0.0773 1.087175,-0.45711 0.298269,-1.27408 0.625704,-1.94171 0.502699,-1.02499 0.491977,-1.99143 0.339689,-2.99677 -0.126793,-0.83704 1.145682,-1.24906 0.378244,-2.06126 -0.161782,-0.17121 -0.470472,-0.29087 -0.644959,-0.28837 z"
   sodipodi:nodetypes="cscccssscssscc" />&#10;    <path
   id="path88"
   style="fill:#ffd6e3;fill-opacity:1;stroke:none;stroke-width:0.2;stroke-linecap:round;stroke-linejoin:round;stroke-dasharray:none"
   d="m -50.518623,115.29433 c -0.301361,0.0563 -0.205709,0.428 -0.167998,0.64037 0.02941,0.24363 0.06848,0.51403 0.261554,0.68655 0.121222,0.27262 0.491331,0.43146 0.716933,0.18046 0.25508,-0.12137 0.28201,-0.48096 0.0053,-0.59629 -0.248041,-0.15912 -0.46457,-0.37923 -0.558887,-0.66395 -0.05202,-0.10403 -0.119959,-0.25033 -0.256918,-0.24714 z m 1.025261,1.48105 c -0.252191,0.21896 -0.1324,0.59855 -0.242101,0.88345 -0.09911,0.24091 -0.283513,0.43987 -0.345543,0.69828 -0.07834,0.24212 -0.226112,0.5171 -0.509035,0.54592 -0.526093,0.135 -1.047412,0.4459 -1.607409,0.31464 -0.40679,-0.0672 -0.761526,-0.31108 -1.164164,-0.38448 -0.323997,0.0831 -0.0092,0.37946 0.120512,0.49872 0.253162,0.29635 0.600273,0.38495 0.963328,0.4612 0.363055,0.0762 0.630408,-0.0335 1.066466,-0.0829 0.436058,-0.0494 0.946638,0.0613 1.341083,-0.0801 0.394446,-0.14142 0.47529,-0.26489 0.526494,-0.55162 0.12963,-0.3468 0.411343,-0.69272 0.29161,-1.08318 -0.109939,-0.3687 3.98e-4,-0.81317 -0.277741,-1.12184 -0.04573,-0.0437 -0.09575,-0.0951 -0.1635,-0.0981 z m -1.72651,0.70951 c -0.44952,-0.006 -0.913327,0.17206 -1.202702,0.52301 -0.01726,0.19999 0.32423,0.0757 0.459224,0.13081 0.305901,-0.0286 0.539907,0.16039 0.760987,0.33837 0.306684,0.1099 0.608104,-0.18798 0.697077,-0.46438 0.178762,-0.23047 0.08465,-0.55849 -0.251211,-0.51609 -0.15419,0.004 -0.308822,-0.0166 -0.463375,-0.0117 z"
   sodipodi:nodetypes="ccccccccccccccczzzccccccccccccc" />&#10;    <path
   id="path89"
   style="fill:#ffb3cb;fill-opacity:1;stroke:none;stroke-width:0.2;stroke-linecap:round;stroke-linejoin:round;stroke-dasharray:none"
   d="m -50.535159,115.91083 c -0.136187,0.19502 0.03448,0.41804 0.01658,0.62877 -0.01298,0.33359 0.378974,0.61143 0.691549,0.48163 0.17792,-0.0522 0.137542,-0.28328 0.02438,-0.381 -0.09965,-0.15189 -0.312025,-0.0937 -0.420958,-0.22547 -0.129601,-0.15103 -0.107176,-0.41707 -0.311549,-0.50393 z m 1.169954,1.48001 c -0.236338,0.16623 -0.219138,0.48623 -0.226247,0.74292 0.04552,0.26495 -0.122949,0.49031 -0.247812,0.70624 -0.09212,0.12969 -0.115191,0.31695 0.01168,0.43321 0.111961,0.1317 0.335102,0.15709 0.451392,0.0163 0.212804,-0.21464 0.155629,-0.54006 0.21308,-0.81125 0.01086,-0.33179 0.01759,-0.67326 -0.07606,-0.9943 -0.0252,-0.0474 -0.07053,-0.0884 -0.126035,-0.0931 z m -1.189591,1.6738 c -0.34083,0.0699 -0.589041,0.41263 -0.957427,0.37674 -0.299731,-0.0452 -0.617469,-0.0157 -0.890316,0.12261 -0.05548,0.16215 0.134214,0.26639 0.267136,0.29065 0.171201,0.06 0.320745,-0.0677 0.490367,-0.0338 0.269002,0.0156 0.540046,0.0351 0.807417,-0.007 0.210139,-0.0143 0.470428,-7.7e-4 0.615402,-0.18206 0.129359,-0.21482 -0.07451,-0.46611 -0.271248,-0.55001 0.0015,-0.026 -0.06155,0.005 -0.06133,-0.0169 z" />&#10;    <g
   id="g103"
   inkscape:label="lines">&#10;      <path
   style="fill:none;stroke:#000000;stroke-width:0.1;stroke-linecap:round;stroke-linejoin:round;stroke-dasharray:none;stroke-opacity:1"
   d="m -49.969209,119.04891 c 0,0 0.269375,-0.0551 0.357757,-0.14735 0.08145,-0.085 0.06453,-0.0984 0.121078,-0.20405 0.03166,-0.0593 0.177362,-0.11274 0.180415,-0.19411 0.0023,-0.0596 -0.05314,-0.21611 -0.04253,-0.26334 0.03269,-0.1456 0.128822,-0.20862 0.108651,-0.3589 -0.007,-0.0523 -0.0692,-0.087 -0.105155,-0.16238 -0.03118,-0.0654 0.07478,-0.18906 0.07058,-0.23394 -0.01,-0.1075 -0.08663,-0.12883 -0.106116,-0.27006"
   id="path90"
   sodipodi:nodetypes="csssssssc" />&#10;      <path
   style="fill:none;stroke:#000000;stroke-width:0.1;stroke-linecap:round;stroke-linejoin:round;stroke-dasharray:none;stroke-opacity:1"
   d="m -49.370218,115.82307 c 0,0.0229 -0.04878,0.17577 -0.05298,0.26612 -0.0058,0.1248 0.09575,0.26168 0.03879,0.37292 -0.0656,0.12812 -0.230733,0.20898 -0.374541,0.21484 -0.128804,0.005 -0.275634,-0.0593 -0.349992,-0.16448 -0.06883,-0.0975 -0.0096,-0.23969 -0.03512,-0.35628 -0.01643,-0.075 -0.07516,-0.21783 -0.07516,-0.21783"
   id="path91"
   sodipodi:nodetypes="caaaaac" />&#10;      <path
   style="fill:none;stroke:#000000;stroke-width:0.1;stroke-linecap:round;stroke-linejoin:round;stroke-dasharray:none;stroke-opacity:1"
   d="m -49.067776,115.38959 c 0,0 0.06705,-0.1463 0.135621,-0.16011 0.09671,-0.0194 0.263556,0.13459 0.263556,0.13459"
   id="path92"
   sodipodi:nodetypes="cac" />&#10;      <path
   style="fill:none;stroke:#000000;stroke-width:0.1;stroke-linecap:round;stroke-linejoin:round;stroke-dasharray:none;stroke-opacity:1"
   d="m -50.563788,115.50488 c -0.0175,0 -0.145759,-0.15049 -0.237217,-0.14088 -0.101047,0.0105 -0.224148,0.20655 -0.224148,0.20655"
   id="path93"
   sodipodi:nodetypes="cac" />&#10;      <path
   style="fill:none;stroke:#000000;stroke-width:0.1;stroke-linecap:round;stroke-linejoin:round;stroke-dasharray:none;stroke-opacity:1"
   d="m -49.64991,115.30758 c 0,0 -0.106798,-0.0402 -0.16149,-0.0341 -0.07118,0.007 -0.195443,0.0892 -0.195443,0.0892"
   id="path94"
   sodipodi:nodetypes="cac" />&#10;      <path
   style="fill:none;stroke:#000000;stroke-width:0.1;stroke-linecap:round;stroke-linejoin:round;stroke-dasharray:none;stroke-opacity:1"
   d="m -50.096179,117.15284 c -0.04845,0.0926 -0.05911,0.2048 -0.02444,0.30396 0.02555,0.11344 -0.107375,0.15137 -0.191887,0.15014 -0.0685,0.0635 -0.129433,0.005 -0.146895,0.12638"
   id="path95"
   sodipodi:nodetypes="cssc" />&#10;      <path
   style="fill:none;stroke:#000000;stroke-width:0.1;stroke-linecap:round;stroke-linejoin:round;stroke-dasharray:none;stroke-opacity:1"
   d="m -51.014169,117.71364 c 0,0 -0.177025,-0.0236 -0.26493,-0.014 -0.198268,0.0219 -0.378109,0.13949 -0.576475,0.16046 -0.2746,0.0288 -0.826734,-0.0514 -0.826734,-0.0514"
   id="path96"
   sodipodi:nodetypes="caac" />&#10;      <path
   style="fill:none;stroke:#000000;stroke-width:0.1;stroke-linecap:round;stroke-linejoin:round;stroke-dasharray:none;stroke-opacity:1"
   d="m -53.290654,117.71196 c 0,0 -0.299021,-0.14997 -0.452427,-0.12113 -0.179251,0.0339 -0.363101,0.15941 -0.440705,0.32445 -0.08262,0.17579 -0.02388,0.39615 0.03338,0.58174 0.0312,0.1012 0.163588,0.27222 0.163588,0.27222"
   id="path97"
   sodipodi:nodetypes="caaac" />&#10;      <path
   style="fill:none;stroke:#000000;stroke-width:0.1;stroke-linecap:round;stroke-linejoin:round;stroke-dasharray:none;stroke-opacity:1"
   d="m -53.385644,118.43263 c 0,0 0.01101,0.2578 0.0559,0.37645 0.03454,0.0912 0.15948,0.24544 0.15948,0.24544"
   id="path98"
   sodipodi:nodetypes="cac" />&#10;      <path
   style="fill:none;stroke:#000000;stroke-width:0.1;stroke-linecap:round;stroke-linejoin:round;stroke-dasharray:none;stroke-opacity:1"
   d="m -51.214625,119.6293 c -0.110678,0.096 -0.219507,0.18808 -0.35344,0.19137 -0.111429,0.003 -0.19336,-0.11764 -0.301519,-0.14456 -0.08311,-0.0206 -0.25675,-0.0105 -0.25675,-0.0105"
   id="path99"
   sodipodi:nodetypes="caac" />&#10;      <path
   style="fill:none;stroke:#000000;stroke-width:0.1;stroke-linecap:round;stroke-linejoin:round;stroke-dasharray:none;stroke-opacity:1"
   d="m -50.579661,119.26105 c 0,0 -0.146003,0.66935 -0.23231,1.00074 -0.05055,0.1941 -0.129905,0.38097 -0.167136,0.57807 -0.03365,0.17806 -0.1531,0.39235 -0.04996,0.54135 0.04174,0.0603 0.212145,0.0582 0.212145,0.0582"
   id="path100"
   sodipodi:nodetypes="caaac" />&#10;      <path
   style="fill:none;stroke:#000000;stroke-width:0.1;stroke-linecap:round;stroke-linejoin:round;stroke-dasharray:none;stroke-opacity:1"
   d="m -49.971974,121.26855 c 0,0 -0.163081,0.0372 -0.208375,-0.0157 -0.239096,-0.2794 0.01189,-0.73993 0.08794,-1.0997 0.04008,-0.18951 0.192121,-0.54841 0.192121,-0.54841"
   id="path101"
   sodipodi:nodetypes="caac" />&#10;      <path
   style="fill:none;stroke:#000000;stroke-width:0.1;stroke-linecap:round;stroke-linejoin:round;stroke-dasharray:none;stroke-opacity:1"
   d="m -52.134208,121.44036 c 0,0 -0.118841,-0.0215 -0.161263,-0.0601 -0.287182,-0.26142 -0.450673,-0.66458 -0.507372,-1.04879 -0.05197,-0.3521 0.167503,-1.05452 0.167503,-1.05452"
   id="path102"
   sodipodi:nodetypes="caac" />&#10;      <path
   style="fill:none;stroke:#000000;stroke-width:0.1;stroke-linecap:round;stroke-linejoin:round;stroke-dasharray:none;stroke-opacity:1"
   d="m -53.376861,119.67372 c 0,0 -0.17217,0.3403 -0.186445,0.52567 -0.02297,0.2981 0.09241,0.59174 0.166821,0.88132 0.02234,0.0869 0.01,0.20461 0.08366,0.25586 0.04889,0.0341 0.178501,-0.007 0.178501,-0.007"
   id="path103"
   sodipodi:nodetypes="caaac" />&#10;    </g>&#10;  </g>&#10;</g><g
       inkscape:label="svglink:../blueprint_small.svg"
       ns3:href="../blueprint_small.svg"
       ns4:x="-85.853928"
       ns4:y="102.90191"
       ns3:image-svg-dpi="200"
       ns3:image-height="49.999901"
       ns3:image-width="44.641029"
       id="g1"
       transform="translate(-8.5034,-4.2249)"><title
   transform="translate(-85.8539, 102.902)"
   id="title1">Exported SVG</title>&#10;&#10;<style
   transform="translate(-85.8539, 102.902)"
   id="style1"><![CDATA[
polygon {
shape-rendering:crispEdges;
stroke-width:0.046000;
}
.s0 {
stroke:#000000;
stroke-width:0.058940;
stroke-linecap:round;
stroke-linejoin:round;
fill:none;
}
.s1 {
stroke:#000000;
stroke-width:0.058940;
stroke-linecap:round;
stroke-linejoin:round;
fill:none;
}
.s2 {
stroke:#19b219;
stroke-width:0.058940;
stroke-linecap:round;
stroke-linejoin:round;
fill:none;
}
.s3 {
stroke:#7f4c00;
stroke-width:0.058940;
stroke-linecap:round;
stroke-linejoin:round;
fill:none;
}
.s4 {
stroke:#00cc00;
stroke-width:0.058940;
stroke-linecap:round;
stroke-linejoin:round;
fill:none;
}
.s5 {
stroke:#000000;
stroke-width:0.039293;
stroke-linecap:round;
stroke-linejoin:round;
fill:none;
}
.s6 {
stroke:#ff19ff;
stroke-width:0.039293;
stroke-linecap:round;
stroke-linejoin:round;
fill:none;
}
.s7 {
stroke:#ff0000;
stroke-width:0.058940;
stroke-linecap:round;
stroke-linejoin:round;
fill:none;
}
.s8 {
stroke:#ffff00;
stroke-width:0.058940;
stroke-linecap:round;
stroke-linejoin:round;
fill:none;
}
.s9 {
stroke:#001919;
stroke-width:0.039293;
stroke-linecap:round;
stroke-linejoin:round;
fill:none;
}
.sa {
stroke:#006666;
stroke-width:0.039293;
stroke-linecap:round;
stroke-linejoin:round;
fill:none;
}
.sb {
stroke:#00ffff;
stroke-width:0.117880;
stroke-linecap:round;
stroke-linejoin:round;
fill:none;
}
.sc {
stroke:#ff0000;
stroke-width:0.314346;
stroke-linecap:round;
stroke-linejoin:round;
fill:none;
}
.sd {
stroke:#191919;
stroke-width:0.039293;
stroke-linecap:round;
stroke-linejoin:round;
fill:none;
}
.se {
stroke:#000000;
stroke-width:0.039293;
stroke-linecap:round;
stroke-linejoin:round;
stroke-dasharray:0.589,0.589;
fill:none;
}
.sf {
stroke:#000000;
stroke-width:0.117880;
stroke-linecap:round;
stroke-linejoin:round;
fill:none;
}
.s100 {
stroke:#ff0000;
stroke-width:0.500000;
stroke-linecap:round;
stroke-linejoin:round;
fill:none;
}
]]></style>&#10;<path
   d="m 5,32 15.588,9 15.589,-9 V 14 L 20.588,5 5,14 v 18"
   class="s100"
   transform="translate(-85.8539,102.902)"
   id="path1" />&#10;&#10;</g></g></svg>
