<?xml version="1.0" encoding="UTF-8" standalone="no"?>
<!-- Created with Inkscape (http://www.inkscape.org/) -->

<svg
   width="8.5209742mm"
   height="7.8751941mm"
   viewBox="0 0 8.5209741 7.8751941"
   version="1.1"
   id="svg5"
   inkscape:version="1.3 (0e150ed6c4, 2023-07-21)"
   sodipodi:docname="crystal_1_color.svg"
   xmlns:inkscape="http://www.inkscape.org/namespaces/inkscape"
   xmlns:sodipodi="http://sodipodi.sourceforge.net/DTD/sodipodi-0.dtd"
   xmlns="http://www.w3.org/2000/svg"
   xmlns:svg="http://www.w3.org/2000/svg">
  <sodipodi:namedview
     id="namedview7"
     pagecolor="#ffffff"
     bordercolor="#666666"
     borderopacity="1.0"
     inkscape:pageshadow="2"
     inkscape:pageopacity="0"
     inkscape:pagecheckerboard="false"
     inkscape:document-units="mm"
     showgrid="false"
     inkscape:zoom="10.262613"
     inkscape:cx="56.32094"
     inkscape:cy="33.568449"
     inkscape:window-width="1916"
     inkscape:window-height="1037"
     inkscape:window-x="0"
     inkscape:window-y="0"
     inkscape:window-maximized="1"
     inkscape:current-layer="g11136"
     inkscape:showpageshadow="2"
     inkscape:deskcolor="#d1d1d1" />
  <defs
     id="defs2" />
  <g
     inkscape:label="Layer 1"
     inkscape:groupmode="layer"
     id="layer1"
     transform="translate(64.029164,-160.07292)">
    <g
       id="g2"
       transform="translate(12.819474,54.949818)">
      <g
         id="g171142"
         inkscape:label="crystal">
        <path
           id="path169729"
           style="fill:#e5fff2;fill-opacity:1;stroke:none;stroke-width:0.2;stroke-linecap:round;stroke-linejoin:round;stroke-dasharray:none"
           d="m -69.787083,105.12312 c -0.930437,0.0183 -1.703345,0.59043 -2.453094,1.07127 -0.369212,0.18682 -0.781555,0.29678 -1.187702,0.35003 -0.471156,-0.10562 -0.815704,-0.48587 -1.258825,-0.65924 -0.364735,-0.25805 -0.805826,-0.0705 -1.004424,0.29505 -0.419628,0.40953 0.08768,0.84975 0.05495,1.3012 -0.103427,0.50307 -0.04595,1.11887 -0.460469,1.49199 -0.270969,0.1635 -0.86446,-0.0279 -0.73333,0.50902 0.04649,0.57824 0.626792,0.83991 1.011625,1.17857 0.348823,0.23898 0.597401,0.57584 0.780669,0.95017 0.359527,0.53121 0.928495,1.09922 1.62651,1.0033 0.409132,-0.0235 0.740912,-0.89846 1.147033,-0.30788 0.294343,0.3534 0.660178,0.7505 1.182424,0.68443 0.736501,-0.18707 1.001962,-0.89203 1.533643,-1.38755 0.267156,-0.34546 0.80027,-0.441 0.817429,-0.93573 0.217422,-0.79379 0.140327,-1.62267 0.101893,-2.43228 -0.04939,-0.47367 0.491826,-0.90368 0.228433,-1.34883 -0.43038,-0.29248 -0.641101,-0.71831 -0.698347,-1.22583 -0.185098,-0.3 -0.408564,-0.54024 -0.688418,-0.53769 z"
           sodipodi:nodetypes="ccccccccccscccccccc" />
        <path
           id="path169923"
           style="fill:#ccffe5;fill-opacity:1;stroke:none;stroke-width:0.2;stroke-linecap:round;stroke-linejoin:round;stroke-dasharray:none"
           d="m -70.370811,105.8095 c -0.64275,-0.005 -1.317115,1.02872 -2.074543,1.08863 -0.65688,0.052 -0.358064,0.59076 -0.858337,0.46996 -0.516488,-0.12472 -1.319509,-1.40707 -1.593396,-0.29677 -0.199229,0.80765 -0.499314,1.45589 -0.945193,2.1362 -0.417892,0.63762 -0.297515,0.70731 0.0021,1.09709 0.442688,0.57597 1.038331,1.50493 1.804572,1.70543 0.432999,0.9974 1.188785,-0.38685 1.904277,0.0382 0.706568,0.41984 1.077344,1.13025 1.662947,0.51108 0.577188,-0.61027 1.348902,-1.17453 1.033529,-2.11718 -0.277801,-0.83036 0.22213,-1.28396 0.31781,-2.01177 0.09599,-0.73018 -0.219998,-2.04602 -0.90285,-2.50877 -0.114828,-0.0778 -0.231856,-0.11127 -0.350883,-0.11214 z"
           sodipodi:nodetypes="cccscsccsscsc" />
        <path
           id="path170054"
           style="fill:#b3ffd8;fill-opacity:1;stroke:none;stroke-width:0.2;stroke-linecap:round;stroke-linejoin:round;stroke-dasharray:none"
           d="m -70.464799,106.48893 c -0.308389,0.10858 -0.507417,0.40558 -0.787415,0.56901 -0.280007,0.24671 -0.650034,0.17167 -0.983191,0.12562 -0.291172,-0.04 -0.671747,0.0187 -0.774959,0.34123 -0.03814,0.21257 -0.05743,0.50338 -0.312277,0.24747 -0.399856,-0.27261 -0.809924,-0.63803 -1.329787,-0.59046 -0.318917,0.0388 -0.347927,0.41113 -0.415886,0.65698 -0.224564,0.49752 0.0808,1.01313 0.05462,1.52181 -0.01503,0.38355 -0.450144,0.3603 -0.716452,0.44657 -0.340848,0.13107 -0.123631,0.54133 0.08207,0.69204 0.253208,0.25083 0.641382,0.29999 0.863383,0.59239 0.323544,0.33133 0.610393,0.82087 1.119581,0.85872 0.542452,-0.21 1.270388,-0.29522 1.701609,0.18112 0.174438,0.26346 0.386231,0.64941 0.772781,0.49561 0.506871,-0.17682 0.892983,-0.6007 1.167859,-1.04816 0.383981,-0.63538 -0.137107,-1.38425 0.173098,-2.03694 0.153764,-0.40755 0.568935,-0.75145 0.492354,-1.22133 -0.133928,-0.43638 -0.576934,-0.66878 -0.805486,-1.04922 -0.21164,-0.21264 -0.133938,-0.60078 -0.301893,-0.78246 z" />
        <path
           id="path170185"
           style="fill:#99ffcb;fill-opacity:1;stroke:none;stroke-width:0.2;stroke-linecap:round;stroke-linejoin:round;stroke-dasharray:none"
           d="m -70.499422,106.41348 c -0.670281,0.15646 -1.237721,0.63207 -1.58543,1.21799 -0.194318,-0.20784 -0.555344,-0.53095 -0.830122,-0.26859 -0.157997,0.35448 -0.09907,0.78486 -0.154547,1.16968 0.02837,0.29742 -0.201843,-0.21269 -0.313378,-0.28261 -0.268331,-0.32136 -0.547769,-0.71012 -0.979865,-0.80539 -0.328744,-0.0117 -0.350044,0.41018 -0.470382,0.63215 -0.172985,0.41651 -0.104787,0.89548 0.114343,1.28129 0.07829,0.11808 0.397806,0.18531 0.499714,0.38494 -0.256762,-0.19301 -0.627816,-0.32332 -0.918168,-0.12114 -0.205,0.14823 -0.797156,0.19776 -0.483609,0.56387 0.344957,0.45932 0.705421,0.91225 0.983198,1.41607 0.230949,0.31284 0.634669,0.35507 0.949593,0.16125 0.267152,-0.18686 0.501425,-0.43167 0.717344,-0.67493 0.169454,-0.12179 0.04011,-0.4684 0.06933,-0.48172 0.377918,0.14416 0.526492,-0.28149 0.412061,-0.57445 0.01858,-0.20681 -0.128474,-0.56842 -0.09892,-0.6617 0.3103,0.13078 0.577031,0.37777 0.940784,0.35322 0.182627,0.0325 0.263824,0.038 0.21337,-0.16536 0.173387,-0.3378 0.021,-0.69433 -0.218172,-0.95134 -0.09189,-0.13202 -0.345724,-0.52035 -0.04252,-0.2792 0.193986,0.0386 0.17024,0.0407 0.105138,0.20222 0.106982,0.32841 0.338622,0.63548 0.600098,0.85908 0.142703,0.15228 0.629309,-0.0437 0.319143,0.21307 -0.2184,0.18992 -0.399176,0.41262 -0.424412,0.71203 -0.176526,0.31931 0.06727,0.66492 0.09288,0.9834 0.220982,0.16137 0.372875,0.3896 0.570357,0.5733 0.292483,0.11644 0.669643,-0.0692 0.800395,-0.34882 0.110236,-0.33301 0.137817,-0.69373 0.315634,-1.00278 0.09389,-0.45652 -0.301704,-0.7942 -0.513626,-1.14969 0.200305,-0.27165 0.195909,-0.65221 0.258084,-0.97743 0.08862,-0.53439 -0.271149,-0.9811 -0.456724,-1.45031 -0.113106,-0.19247 -0.226382,-0.48515 -0.471602,-0.5281 z m -1.376144,3.78582 c -0.336779,0.0687 -0.63115,0.39443 -0.684664,0.73245 -0.11489,0.25112 -0.408769,0.49669 -0.251592,0.79827 0.22838,0.14109 0.529954,0.22838 0.797768,0.24191 0.249293,-0.12265 0.44121,-0.3372 0.700951,-0.44498 0.201516,-0.2227 -0.08051,-0.52898 -0.01776,-0.8001 -0.0042,-0.2754 -0.330054,-0.42869 -0.544706,-0.52756 z m 0.965833,1.55649 c -0.338318,0.0612 -0.953259,0.10163 -0.901674,0.58184 -0.04563,0.46738 0.524838,0.48803 0.780934,0.22779 0.210438,-0.0893 0.662039,-0.17862 0.353536,-0.47403 -0.09952,-0.14238 0.06569,-0.38789 -0.232796,-0.3356 z" />
        <path
           id="path170910"
           style="fill:#ccffe5;fill-opacity:1;stroke:none;stroke-width:0.2;stroke-linecap:round;stroke-linejoin:round;stroke-dasharray:none"
           d="m -70.569702,107.00311 c -0.152132,0.3458 0.109708,0.68641 0.219064,1.00374 0.09758,0.29778 0.632918,0.2951 0.495427,-0.0739 -0.134024,-0.30451 -0.21209,-0.7094 -0.548494,-0.85472 -0.05481,-0.0262 -0.110796,-0.0499 -0.165997,-0.0751 z m -3.829224,0.88005 c -0.07344,0.25892 -0.288359,0.55113 -0.137167,0.81619 0.06368,0.15192 0.339403,0.47456 0.453317,0.30954 -0.0139,-0.34956 -0.07941,-0.71022 -0.235894,-1.02479 -0.023,-0.0364 -0.04969,-0.0706 -0.08026,-0.10094 z m 3.153813,0.24081 c -0.41852,-0.0311 -0.193682,0.52264 -0.283799,0.76767 -0.01302,0.24694 0.377511,0.47617 0.342903,0.0994 -0.0051,-0.26524 0.361282,-0.80829 -0.0591,-0.86707 z m -1.109493,0.13023 c 0.04244,0.32425 0.129587,0.6493 0.01815,0.96505 0.07003,0.31871 0.483775,0.0986 0.304391,-0.16367 -0.105951,-0.2435 -0.09586,-0.56058 -0.148464,-0.77472 -0.0553,-0.0233 -0.115902,-0.0194 -0.174081,-0.0267 z m -1.143083,0.13745 c -0.0052,0.11468 0.02213,0.0789 0,0 z m 0.01085,0.10853 c 0.07904,0.36031 -0.08617,0.75517 0.128609,1.08821 0.103383,0.23136 0.296163,0.56221 0.477485,0.64466 -0.110332,-0.23328 -0.194138,-0.47474 -0.257816,-0.72457 -0.103792,-0.34016 -0.215728,-0.67816 -0.348278,-1.0083 z m 3.235461,1.42575 c -0.04635,0.22763 0.08871,0.61915 0.36111,0.60051 -0.03564,-0.2331 0.01927,-0.68266 -0.36111,-0.60051 z m 0.0078,0.1974 c -0.01847,0.0608 0.03364,0.0881 0,0 z m -4.294312,-0.13797 c -0.13895,0.0877 -0.609649,0.069 -0.507586,0.2717 0.192956,0.0764 0.460386,0.42765 0.623449,0.31453 -0.03103,-0.19016 0.08629,-0.46244 -0.115863,-0.58623 z m 0.361219,0.33589 c 0.05335,0.37086 0.405445,0.57607 0.69835,0.75112 0.109817,0.25648 0.598995,0.05 0.281169,-0.1447 -0.298755,-0.17627 -0.559378,-0.41489 -0.858929,-0.58211 -0.03895,-0.0131 -0.07955,-0.0217 -0.12059,-0.0243 z m 4.037996,0.50333 c -0.124737,0.31108 -0.248897,0.63797 -0.494458,0.87631 0.04499,0.37118 0.515747,-0.0181 0.578497,-0.21881 0.140942,-0.21412 0.23103,-0.54635 -0.08404,-0.6575 z m -1.797306,0.0977 c -0.05372,0.2519 0.288317,0.56198 0.414898,0.59729 0.13446,-0.24762 -0.07208,-0.44615 -0.286928,-0.53291 -0.04099,-0.0246 -0.08354,-0.0467 -0.12797,-0.0644 z m 0.630969,1.2299 c -0.169218,0.0932 -0.03358,0.6838 0.06646,0.31921 0.130591,-0.13083 0.22255,-0.34302 -0.06646,-0.31921 z m -0.03772,0.53072 c -0.09662,0.0202 0.03582,0.0702 0,0 z" />
      </g>
      <g
         id="g11136"
         transform="translate(-8.2248438,1.9018251)">
        <path
           style="fill:none;stroke:#000000;stroke-width:0.1;stroke-linecap:round;stroke-linejoin:round;stroke-dasharray:none"
           d="m -66.102643,109.75356 -1.175924,-1.60661 0.944457,-0.2082 1.543555,1.01835"
           id="path10951"
           sodipodi:nodetypes="cccc" />
        <path
           style="fill:none;stroke:#000000;stroke-width:0.1;stroke-linecap:round;stroke-linejoin:round;stroke-dasharray:none"
           d="m -66.480049,107.21401 -0.214482,-0.6453 0.410935,-0.96593 1.081651,0.74992 0.92736,2.07496"
           id="path11067" />
        <path
           style="fill:none;stroke:#000000;stroke-width:0.1;stroke-linecap:round;stroke-linejoin:round;stroke-dasharray:none"
           d="m -64.235173,109.63838 -7.94e-4,-0.48024 0.577324,-0.3834 0.440946,0.46788 5.29e-4,0.32332"
           id="path11069"
           sodipodi:nodetypes="ccccc" />
        <path
           style="fill:none;stroke:#000000;stroke-width:0.1;stroke-linecap:round;stroke-linejoin:round;stroke-dasharray:none"
           d="m -63.271069,110.76003 -0.08255,-0.48425 0.448493,-0.16831 0.472379,0.36481"
           id="path11071" />
        <path
           style="fill:none;stroke:#000000;stroke-width:0.1;stroke-linecap:round;stroke-linejoin:round;stroke-dasharray:none"
           d="m -64.499837,106.35422 0.0865,-0.65744 0.632269,0.84345 0.07308,0.86937 -0.223016,0.29201"
           id="path11073"
           sodipodi:nodetypes="ccccc" />
        <path
           style="fill:none;stroke:#000000;stroke-width:0.1;stroke-linecap:round;stroke-linejoin:round;stroke-dasharray:none"
           d="m -63.622414,105.84628 1.357683,-1.05267 0.712113,1.51315 -0.230397,0.88663"
           id="path11124" />
        <path
           style="fill:none;stroke:#000000;stroke-width:0.1;stroke-linecap:round;stroke-linejoin:round;stroke-dasharray:none"
           d="m -62.792253,108.70915 0.303348,-0.33811 0.309108,-0.64237 0.482213,0.0382 0.270233,1.19229 -0.70743,0.93632"
           id="path11126"
           sodipodi:nodetypes="cccccc" />
      </g>
    </g>
  </g>
</svg>
