<?xml version="1.0" encoding="UTF-8" standalone="no"?>
<!-- Created with Inkscape (http://www.inkscape.org/) -->

<svg
   width="8.3279371mm"
   height="8.3376608mm"
   viewBox="0 0 8.3279371 8.3376608"
   version="1.1"
   id="svg5"
   inkscape:version="1.3 (0e150ed6c4, 2023-07-21)"
   sodipodi:docname="crystal_0_color.svg"
   xmlns:inkscape="http://www.inkscape.org/namespaces/inkscape"
   xmlns:sodipodi="http://sodipodi.sourceforge.net/DTD/sodipodi-0.dtd"
   xmlns="http://www.w3.org/2000/svg"
   xmlns:svg="http://www.w3.org/2000/svg">
  <sodipodi:namedview
     id="namedview7"
     pagecolor="#ffffff"
     bordercolor="#666666"
     borderopacity="1.0"
     inkscape:pageshadow="2"
     inkscape:pageopacity="0"
     inkscape:pagecheckerboard="false"
     inkscape:document-units="mm"
     showgrid="false"
     inkscape:zoom="16.900038"
     inkscape:cx="11.893464"
     inkscape:cy="15.828367"
     inkscape:window-width="956"
     inkscape:window-height="1037"
     inkscape:window-x="0"
     inkscape:window-y="0"
     inkscape:window-maximized="1"
     inkscape:current-layer="g11172"
     inkscape:showpageshadow="2"
     inkscape:deskcolor="#d1d1d1" />
  <defs
     id="defs2" />
  <g
     inkscape:label="Layer 1"
     inkscape:groupmode="layer"
     id="layer1"
     transform="translate(60.854165,-162.45417)">
    <g
       id="g2"
       transform="translate(23.775236,33.801817)">
      <g
         id="g171579"
         inkscape:label="crystal"
         transform="translate(-7.7807635,23.466984)">
        <path
           id="path171569"
           style="fill:#e5fff2;fill-opacity:1;stroke:none;stroke-width:0.2;stroke-linecap:round;stroke-linejoin:round;stroke-dasharray:none"
           d="m -70.80867,105.23137 c -0.930437,0.0183 -0.681758,0.48218 -1.431507,0.96302 -0.369212,0.18682 -0.781555,0.29678 -1.187702,0.35003 -0.471156,-0.10562 -0.815704,-0.48587 -1.258825,-0.65924 -0.364735,-0.25805 -0.805826,-0.0705 -1.004424,0.29505 -0.419628,0.40953 0.08768,0.84975 0.05495,1.3012 -0.103427,0.50307 -0.04595,1.11887 -0.460469,1.49199 -0.270969,0.1635 -0.86446,-0.0279 -0.73333,0.50902 0.04649,0.57824 0.626792,0.83991 1.011625,1.17857 0.348823,0.23898 0.496675,1.43501 0.710956,1.79249 0.329781,0.55017 2.020791,1.15535 2.718806,1.05943 0.409132,-0.0235 0.389686,-0.0919 0.609107,-0.17724 0.21942,-0.0854 0.181691,-0.24087 0.697767,-0.34466 0.744972,-0.14982 1.001962,-0.89203 1.533643,-1.38755 0.267156,-0.34546 0.80027,-0.441 0.817429,-0.93573 0.217422,-0.79379 0.1858,-1.48446 0.13046,-2.29309 -0.03252,-0.47513 0.158433,-1.20542 0.0407,-1.70908 -0.09635,-0.41218 -0.852122,-0.78185 -0.998925,-1.27103 -0.101326,-0.33764 -0.970403,-0.16573 -1.250257,-0.16318 z"
           sodipodi:nodetypes="cccccccccsszsccsssc" />
        <path
           id="path171571"
           style="fill:#ccffe5;fill-opacity:1;stroke:none;stroke-width:0.2;stroke-linecap:round;stroke-linejoin:round;stroke-dasharray:none"
           d="m -70.370811,105.8095 c -0.64275,-0.005 -1.317115,1.02872 -2.074543,1.08863 -0.65688,0.052 -0.358064,0.59076 -0.858337,0.46996 -0.516488,-0.12472 -1.319509,-1.40707 -1.593396,-0.29677 -0.199229,0.80765 -0.499314,1.45589 -0.945193,2.1362 -0.417892,0.63762 -0.297515,0.70731 0.0021,1.09709 0.442688,0.57597 0.986769,1.96916 1.547138,2.5289 0.769291,0.76843 1.177457,0.19494 1.768261,0.16009 0.699369,-0.0413 1.470794,0.18489 2.056397,-0.43428 0.577188,-0.61027 1.744268,-1.44922 1.428895,-2.39187 -0.277801,-0.83036 0.359201,-1.351 0.08464,-2.03179 -0.43171,-1.07045 -0.496984,-1.75822 -1.065048,-2.21406 -0.108178,-0.0868 -0.231856,-0.11127 -0.350883,-0.11214 z"
           sodipodi:nodetypes="cccscssasssscc" />
        <path
           id="path171573"
           style="fill:#b3ffd8;fill-opacity:1;stroke:none;stroke-width:0.2;stroke-linecap:round;stroke-linejoin:round;stroke-dasharray:none"
           d="m -70.464799,106.48893 c -0.308389,0.10858 -0.507417,0.40558 -0.787415,0.56901 -0.280007,0.24671 -0.650034,0.17167 -0.983191,0.12562 -0.291172,-0.04 -0.671747,0.0187 -0.774959,0.34123 -0.03814,0.21257 -0.05743,0.50338 -0.312277,0.24747 -0.399856,-0.27261 -0.809924,-0.63803 -1.329787,-0.59046 -0.318917,0.0388 -0.347927,0.41113 -0.415886,0.65698 -0.224564,0.49752 0.0808,1.01313 0.05462,1.52181 -0.01503,0.38355 -0.450144,0.3603 -0.716452,0.44657 -0.340848,0.13107 -0.123631,0.54133 0.08207,0.69204 0.253208,0.25083 0.375615,0.46829 0.617315,0.74463 0.304883,0.34858 0.387397,1.51204 1.643231,1.68303 0.576364,0.0785 0.682652,-0.17632 1.03101,-0.22523 0.385612,-0.0541 0.779248,0.0792 1.165798,-0.0746 0.506871,-0.17682 0.892983,-0.6007 1.167859,-1.04816 0.383981,-0.63538 -0.137107,-1.38425 0.173098,-2.03694 0.153764,-0.40755 0.426558,-1.13798 0.349977,-1.60786 -0.133928,-0.43638 -0.434557,-0.28225 -0.663109,-0.66269 -0.21164,-0.21264 -0.133938,-0.60078 -0.301893,-0.78246 z"
           sodipodi:nodetypes="scccccccccssaccccccs" />
        <path
           id="path171575"
           style="fill:#99ffcb;fill-opacity:1;stroke:none;stroke-width:0.2;stroke-linecap:round;stroke-linejoin:round;stroke-dasharray:none"
           d="m -70.499418,106.41364 c -0.670946,0.15712 -1.238009,0.63214 -1.585433,1.21801 -0.180686,-0.25849 -0.745739,-0.59225 -0.87965,-0.13247 -0.101749,0.36543 -0.05459,0.75489 -0.113641,1.12354 -0.179355,-0.18441 -0.325191,-0.4272 -0.510351,-0.62099 -0.217595,-0.24971 -0.482156,-0.53348 -0.832389,-0.55441 -0.329126,0.0987 -0.330319,0.52383 -0.465868,0.7881 -0.09837,0.39121 -0.02849,0.83745 0.207721,1.165 0.122069,0.0695 0.502994,0.29433 0.410505,0.30734 -0.321694,-0.26526 -0.753032,-0.21155 -1.075008,0.0131 -0.301545,0.0334 -0.497248,0.34115 -0.212698,0.55072 0.344787,0.44318 0.671882,0.90181 0.960699,1.38237 0.08125,0.17366 0.574862,0.19382 0.19572,0.32128 -0.220733,0.0212 -0.787526,0.15252 -0.458053,0.45021 0.380507,0.20367 0.780606,0.44078 1.230473,0.40225 0.266999,0.007 0.655501,-0.0529 0.699057,-0.37635 -0.01937,-0.32628 -0.0073,-0.79504 -0.398815,-0.90364 -0.101367,-0.0846 0.255399,-0.28583 0.331491,-0.43126 0.267795,-0.12346 -0.09347,-0.62761 0.282473,-0.48465 0.387099,-0.11512 0.230373,-0.58557 0.192854,-0.87552 -0.0332,-0.15232 -0.169488,-0.52202 0.103007,-0.30294 0.27834,0.15991 0.715168,0.4029 0.996705,0.22102 0.112548,-0.38927 0.04793,-0.8326 -0.272333,-1.12736 -0.08575,-0.0903 -0.245994,-0.43066 -0.0017,-0.21926 0.289026,-0.003 0.01142,0.30617 0.207091,0.44335 0.186745,0.27859 0.395092,0.71075 0.787423,0.68469 0.336431,0.0117 -0.196865,0.27872 -0.225398,0.41789 -0.187349,0.31005 -0.304458,0.70363 -0.163364,1.05647 0.01278,0.3802 0.329159,0.56153 0.550224,0.83321 0.252141,0.30868 0.765964,0.0712 0.907466,-0.24149 0.08732,-0.383 0.216812,-0.76029 0.329797,-1.12841 2e-4,-0.4091 -0.025,-0.98912 -0.219484,-1.31688 0.221518,-0.32967 0.04497,-1.11355 0.104486,-1.49212 -0.0019,-0.50633 -0.465102,-0.2695 -0.653846,-0.71887 -0.10021,-0.17964 -0.204757,-0.40876 -0.42913,-0.45192 z m -1.376143,3.78582 c -0.438137,0.0777 -0.625725,0.50883 -0.76407,0.87334 -0.239741,0.24021 -0.34181,0.74007 0.109895,0.79227 0.318826,0.1584 0.661441,0.1151 0.904054,-0.15193 0.283745,-0.11628 0.505263,-0.35671 0.325908,-0.67254 -0.01078,-0.3242 -0.0851,-0.66914 -0.446174,-0.77934 -0.04273,-0.0216 -0.08613,-0.0418 -0.129613,-0.0618 z m 1.038179,1.54926 c -0.323663,0.0597 -0.739425,0.0535 -0.939033,0.36211 -0.172656,0.33133 0.126255,0.76731 0.509298,0.59413 0.176719,-0.19181 0.829371,-0.19484 0.639111,-0.56084 -0.169331,-0.0833 0.01329,-0.39258 -0.209376,-0.3954 z"
           sodipodi:nodetypes="ccccccccccccccccccccccccccccccccccsccccccccccccc" />
        <path
           id="path171577"
           style="fill:#ccffe5;fill-opacity:1;stroke:none;stroke-width:0.2;stroke-linecap:round;stroke-linejoin:round;stroke-dasharray:none"
           d="m -70.569698,107.00327 c -0.152132,0.3458 0.109752,0.68623 0.219108,1.00355 0.09758,0.29778 0.633068,0.29511 0.495577,-0.0739 -0.134024,-0.30451 -0.2124,-0.70941 -0.548804,-0.85473 -0.05481,-0.0262 -0.11068,-0.0497 -0.165881,-0.0749 z m -3.829224,0.88005 c -0.07344,0.25892 -0.288134,0.55091 -0.136942,0.81597 0.06368,0.15192 0.339288,0.47456 0.453202,0.30954 -0.0139,-0.34956 -0.07968,-0.71017 -0.236161,-1.02474 -0.023,-0.0364 -0.04953,-0.0704 -0.0801,-0.10077 z m 3.116606,0.23926 c -0.367394,0.004 -0.159196,0.53157 -0.246497,0.76895 -0.01302,0.24694 0.377223,0.4765 0.342615,0.0997 -0.0051,-0.26524 0.361471,-0.80835 -0.05891,-0.86713 -0.01308,-9.7e-4 -0.02536,-0.002 -0.03721,-0.002 z m -1.072286,0.13177 c 0.04244,0.32425 0.129524,0.64905 0.01809,0.9648 0.07003,0.31871 0.483758,0.0985 0.304374,-0.16381 -0.105951,-0.2435 -0.09571,-0.56049 -0.148311,-0.77463 -0.0553,-0.0233 -0.115971,-0.0191 -0.17415,-0.0264 z m -1.143083,0.13746 c -0.0052,0.11468 0.02213,0.0789 0,0 z m 0.01085,0.10852 c 0.07904,0.36031 -0.0861,0.75527 0.128675,1.08831 0.103383,0.23136 0.296168,0.56196 0.47749,0.64441 -0.110332,-0.23328 -0.194188,-0.47468 -0.257866,-0.72451 -0.103791,-0.34016 -0.215749,-0.67807 -0.348299,-1.00821 z m 3.33158,1.41594 c -0.02844,-10e-4 -0.06046,0.002 -0.09612,0.01 -0.01312,0.0644 -0.01134,0.14193 0.0036,0.21962 -5.81e-4,0.0131 0.0023,0.0234 0.0057,0.0289 0.04406,0.18669 0.166183,0.36463 0.351916,0.35192 -0.0323,-0.21125 0.0098,-0.60036 -0.2651,-0.6103 z m -4.382678,0.0692 c -0.13895,0.0877 -0.609526,0.0686 -0.507463,0.2713 0.192956,0.0764 0.460155,0.42783 0.623218,0.31471 -0.03103,-0.19016 0.0864,-0.46222 -0.115755,-0.58601 z m 0.361218,0.33589 c 0.05335,0.37086 0.405244,0.57581 0.698149,0.75086 0.109816,0.25648 0.599462,0.05 0.281636,-0.14469 -0.298755,-0.17627 -0.559828,-0.41466 -0.859379,-0.58188 -0.03895,-0.0131 -0.07937,-0.0217 -0.120406,-0.0243 z m 4.037996,0.50333 c -0.124736,0.31108 -0.248982,0.63758 -0.494543,0.87592 0.04499,0.37118 0.516026,-0.0179 0.578776,-0.2186 0.140942,-0.21411 0.230836,-0.54617 -0.08423,-0.65732 z m -1.797306,0.0977 c -0.05372,0.2519 0.288381,0.56207 0.414962,0.59738 0.13446,-0.24762 -0.07196,-0.44654 -0.286804,-0.5333 -0.04099,-0.0246 -0.08373,-0.0464 -0.128158,-0.0641 z m -1.307414,1.15652 c -0.0012,1e-4 -0.0024,2.5e-4 -0.0036,5.1e-4 -0.05827,0.0207 -0.100335,0.0754 -0.165881,0.0785 -0.102995,0.02 -0.210871,0.021 -0.307992,0.0651 -0.08923,0.032 -0.175357,0.0888 -0.273885,0.0806 -0.05319,-0.009 -0.135183,0.0354 -0.09715,0.0966 0.03659,0.0461 0.100961,0.0565 0.151929,0.0811 0.02458,0.01 0.01666,0.0117 0.02532,5.1e-4 0.05603,-0.007 0.11249,-0.0305 0.171566,-0.0134 0.07709,0.0172 0.155055,0.0287 0.234094,0.031 0.11047,0.006 0.227154,0.0129 0.331763,-0.0289 0.07222,-0.049 0.07555,-0.1538 0.04703,-0.22893 -0.02247,-0.0455 -0.04125,-0.0937 -0.06873,-0.13643 -0.01083,-0.0127 -0.02661,-0.0279 -0.04444,-0.0263 z m 1.987993,0.0713 c -0.01517,-2.8e-4 -0.03155,5.8e-4 -0.04961,0.002 -0.169218,0.0932 -0.03338,0.68343 0.06666,0.31884 0.122429,-0.12265 0.210502,-0.31674 -0.01705,-0.32091 z m -0.08733,0.53279 c -0.09662,0.0202 0.03582,0.0702 0,0 z" />
      </g>
      <g
         id="g11172"
         transform="translate(-16.027854,25.263163)">
        <path
           style="fill:none;stroke:#000000;stroke-width:0.1;stroke-linecap:round;stroke-linejoin:round;stroke-dasharray:none"
           d="m -66.102643,109.75356 -1.175924,-1.60661 0.944457,-0.2082 1.543555,1.01835"
           id="path11156"
           sodipodi:nodetypes="cccc" />
        <path
           style="fill:none;stroke:#000000;stroke-width:0.1;stroke-linecap:round;stroke-linejoin:round;stroke-dasharray:none"
           d="m -65.479342,110.15881 -0.610507,0.42876 0.610515,0.18279 0.645459,-0.12078 -0.07404,-0.23507"
           id="path11158" />
        <path
           style="fill:none;stroke:#000000;stroke-width:0.1;stroke-linecap:round;stroke-linejoin:round;stroke-dasharray:none"
           d="m -66.480049,107.21401 -0.214482,-0.6453 0.410935,-0.96593 1.081651,0.74992 0.92736,2.07496"
           id="path11160" />
        <path
           style="fill:none;stroke:#000000;stroke-width:0.1;stroke-linecap:round;stroke-linejoin:round;stroke-dasharray:none"
           d="m -63.929439,110.36737 -0.305734,-0.72899 -7.94e-4,-0.48024 0.577324,-0.3834 0.440946,0.46788 5.29e-4,0.32332"
           id="path11162" />
        <path
           style="fill:none;stroke:#000000;stroke-width:0.1;stroke-linecap:round;stroke-linejoin:round;stroke-dasharray:none"
           d="m -63.271069,110.76003 -0.08255,-0.48425 0.448493,-0.16831 0.472379,0.36481"
           id="path11164" />
        <path
           style="fill:none;stroke:#000000;stroke-width:0.1;stroke-linecap:round;stroke-linejoin:round;stroke-dasharray:none"
           d="m -64.499837,106.35422 0.0865,-0.65744 0.632269,0.84345 0.07308,0.86937 -0.223016,0.29201"
           id="path11166"
           sodipodi:nodetypes="ccccc" />
        <path
           style="fill:none;stroke:#000000;stroke-width:0.1;stroke-linecap:round;stroke-linejoin:round;stroke-dasharray:none"
           d="m -63.622414,105.84628 1.357683,-1.05267 0.712113,1.51315 -0.230397,0.88663"
           id="path11168" />
        <path
           style="fill:none;stroke:#000000;stroke-width:0.1;stroke-linecap:round;stroke-linejoin:round;stroke-dasharray:none"
           d="m -62.792253,108.70915 0.303348,-0.33811 0.309108,-0.64237 0.482213,0.0382 0.270233,1.19229 -0.70743,0.93632"
           id="path11170"
           sodipodi:nodetypes="cccccc" />
      </g>
    </g>
  </g>
</svg>
