<?xml version="1.0" encoding="UTF-8" standalone="no"?>
<!-- Created with Inkscape (http://www.inkscape.org/) -->

<svg
   xml:space="preserve"
   sodipodi:docname="mountains_color.svg"
   inkscape:version="1.3 (0e150ed6c4, 2023-07-21)"
   id="svg5"
   version="1.1"
   viewBox="0 0 32.622483 32.414071"
   height="32.41407mm"
   width="32.622482mm"
   xmlns:inkscape="http://www.inkscape.org/namespaces/inkscape"
   xmlns:sodipodi="http://sodipodi.sourceforge.net/DTD/sodipodi-0.dtd"
   xmlns="http://www.w3.org/2000/svg"
   xmlns:svg="http://www.w3.org/2000/svg"><sodipodi:namedview
     id="namedview7"
     pagecolor="#ffffff"
     bordercolor="#666666"
     borderopacity="1.0"
     inkscape:pageshadow="2"
     inkscape:pageopacity="0"
     inkscape:pagecheckerboard="false"
     inkscape:document-units="mm"
     showgrid="false"
     inkscape:zoom="3.4513326"
     inkscape:cx="27.815343"
     inkscape:cy="73.449889"
     inkscape:window-width="1916"
     inkscape:window-height="1037"
     inkscape:window-x="0"
     inkscape:window-y="0"
     inkscape:window-maximized="1"
     inkscape:current-layer="g161461"
     inkscape:showpageshadow="2"
     inkscape:deskcolor="#ffffff" /><defs
     id="defs2"><inkscape:path-effect
       effect="simplify"
       id="path-effect165099"
       is_visible="true"
       lpeversion="1"
       steps="1"
       threshold="0.0168421"
       smooth_angles="360"
       helper_size="0"
       simplify_individual_paths="false"
       simplify_just_coalesce="false" /><inkscape:path-effect
       effect="simplify"
       id="path-effect165095"
       is_visible="true"
       lpeversion="1"
       steps="1"
       threshold="0.0168421"
       smooth_angles="360"
       helper_size="0"
       simplify_individual_paths="false"
       simplify_just_coalesce="false" /><inkscape:path-effect
       effect="simplify"
       id="path-effect165091"
       is_visible="true"
       lpeversion="1"
       steps="1"
       threshold="0.0168421"
       smooth_angles="360"
       helper_size="0"
       simplify_individual_paths="false"
       simplify_just_coalesce="false" /><inkscape:path-effect
       effect="simplify"
       id="path-effect165087"
       is_visible="true"
       lpeversion="1"
       steps="1"
       threshold="0.0168421"
       smooth_angles="360"
       helper_size="0"
       simplify_individual_paths="false"
       simplify_just_coalesce="false" /><inkscape:path-effect
       effect="simplify"
       id="path-effect165083"
       is_visible="true"
       lpeversion="1"
       steps="1"
       threshold="0.0168421"
       smooth_angles="360"
       helper_size="0"
       simplify_individual_paths="false"
       simplify_just_coalesce="false" /><inkscape:path-effect
       effect="simplify"
       id="path-effect165017"
       is_visible="true"
       lpeversion="1"
       steps="1"
       threshold="0.0168421"
       smooth_angles="360"
       helper_size="0"
       simplify_individual_paths="false"
       simplify_just_coalesce="false" /><inkscape:path-effect
       effect="simplify"
       id="path-effect164888"
       is_visible="true"
       lpeversion="1"
       steps="1"
       threshold="0.0168421"
       smooth_angles="360"
       helper_size="0"
       simplify_individual_paths="false"
       simplify_just_coalesce="false" /><inkscape:path-effect
       effect="simplify"
       id="path-effect164884"
       is_visible="true"
       lpeversion="1"
       steps="1"
       threshold="0.0168421"
       smooth_angles="360"
       helper_size="0"
       simplify_individual_paths="false"
       simplify_just_coalesce="false" /><inkscape:path-effect
       effect="simplify"
       id="path-effect164281"
       is_visible="true"
       lpeversion="1"
       steps="1"
       threshold="0.0168421"
       smooth_angles="360"
       helper_size="0"
       simplify_individual_paths="false"
       simplify_just_coalesce="false" /><inkscape:path-effect
       effect="simplify"
       id="path-effect164277"
       is_visible="true"
       lpeversion="1"
       steps="1"
       threshold="0.0168421"
       smooth_angles="360"
       helper_size="0"
       simplify_individual_paths="false"
       simplify_just_coalesce="false" /><inkscape:path-effect
       effect="simplify"
       id="path-effect164273"
       is_visible="true"
       lpeversion="1"
       steps="1"
       threshold="0.0168421"
       smooth_angles="360"
       helper_size="0"
       simplify_individual_paths="false"
       simplify_just_coalesce="false" /><inkscape:path-effect
       effect="simplify"
       id="path-effect163974"
       is_visible="true"
       lpeversion="1"
       steps="1"
       threshold="0.0168421"
       smooth_angles="360"
       helper_size="0"
       simplify_individual_paths="false"
       simplify_just_coalesce="false" /><inkscape:path-effect
       effect="simplify"
       id="path-effect163970"
       is_visible="true"
       lpeversion="1"
       steps="1"
       threshold="0.0168421"
       smooth_angles="360"
       helper_size="0"
       simplify_individual_paths="false"
       simplify_just_coalesce="false" /><inkscape:path-effect
       effect="simplify"
       id="path-effect163966"
       is_visible="true"
       lpeversion="1"
       steps="1"
       threshold="0.0168421"
       smooth_angles="360"
       helper_size="0"
       simplify_individual_paths="false"
       simplify_just_coalesce="false" /><inkscape:path-effect
       effect="simplify"
       id="path-effect163962"
       is_visible="true"
       lpeversion="1"
       steps="1"
       threshold="0.0168421"
       smooth_angles="360"
       helper_size="0"
       simplify_individual_paths="false"
       simplify_just_coalesce="false" /><inkscape:path-effect
       effect="simplify"
       id="path-effect163958"
       is_visible="true"
       lpeversion="1"
       steps="1"
       threshold="0.0168421"
       smooth_angles="360"
       helper_size="0"
       simplify_individual_paths="false"
       simplify_just_coalesce="false" /><inkscape:path-effect
       effect="simplify"
       id="path-effect163954"
       is_visible="true"
       lpeversion="1"
       steps="1"
       threshold="0.0168421"
       smooth_angles="360"
       helper_size="0"
       simplify_individual_paths="false"
       simplify_just_coalesce="false" /><inkscape:path-effect
       effect="simplify"
       id="path-effect163743"
       is_visible="true"
       lpeversion="1"
       steps="1"
       threshold="0.0168421"
       smooth_angles="360"
       helper_size="0"
       simplify_individual_paths="false"
       simplify_just_coalesce="false" /><inkscape:path-effect
       effect="simplify"
       id="path-effect163150"
       is_visible="true"
       lpeversion="1"
       steps="1"
       threshold="0.0168421"
       smooth_angles="360"
       helper_size="0"
       simplify_individual_paths="false"
       simplify_just_coalesce="false" /><inkscape:path-effect
       effect="simplify"
       id="path-effect163146"
       is_visible="true"
       lpeversion="1"
       steps="1"
       threshold="0.0168421"
       smooth_angles="360"
       helper_size="0"
       simplify_individual_paths="false"
       simplify_just_coalesce="false" /><inkscape:path-effect
       effect="simplify"
       id="path-effect163142"
       is_visible="true"
       lpeversion="1"
       steps="1"
       threshold="0.0168421"
       smooth_angles="360"
       helper_size="0"
       simplify_individual_paths="false"
       simplify_just_coalesce="false" /><inkscape:path-effect
       effect="simplify"
       id="path-effect163138"
       is_visible="true"
       lpeversion="1"
       steps="1"
       threshold="0.0168421"
       smooth_angles="360"
       helper_size="0"
       simplify_individual_paths="false"
       simplify_just_coalesce="false" /><inkscape:path-effect
       effect="simplify"
       id="path-effect163134"
       is_visible="true"
       lpeversion="1"
       steps="1"
       threshold="0.0168421"
       smooth_angles="360"
       helper_size="0"
       simplify_individual_paths="false"
       simplify_just_coalesce="false" /><inkscape:path-effect
       effect="simplify"
       id="path-effect162653"
       is_visible="true"
       lpeversion="1"
       steps="1"
       threshold="0.0168421"
       smooth_angles="360"
       helper_size="0"
       simplify_individual_paths="false"
       simplify_just_coalesce="false" /><inkscape:path-effect
       effect="simplify"
       id="path-effect162604"
       is_visible="true"
       lpeversion="1"
       steps="1"
       threshold="0.0168421"
       smooth_angles="360"
       helper_size="0"
       simplify_individual_paths="false"
       simplify_just_coalesce="false" /><inkscape:path-effect
       effect="simplify"
       id="path-effect162559"
       is_visible="true"
       lpeversion="1"
       steps="1"
       threshold="0.0168421"
       smooth_angles="360"
       helper_size="0"
       simplify_individual_paths="false"
       simplify_just_coalesce="false" /><inkscape:path-effect
       effect="simplify"
       id="path-effect162555"
       is_visible="true"
       lpeversion="1"
       steps="1"
       threshold="0.0168421"
       smooth_angles="360"
       helper_size="0"
       simplify_individual_paths="false"
       simplify_just_coalesce="false" /><inkscape:path-effect
       effect="simplify"
       id="path-effect162551"
       is_visible="true"
       lpeversion="1"
       steps="1"
       threshold="0.0168421"
       smooth_angles="360"
       helper_size="0"
       simplify_individual_paths="false"
       simplify_just_coalesce="false" /><inkscape:path-effect
       effect="simplify"
       id="path-effect162547"
       is_visible="true"
       lpeversion="1"
       steps="1"
       threshold="0.0168421"
       smooth_angles="360"
       helper_size="0"
       simplify_individual_paths="false"
       simplify_just_coalesce="false" /><inkscape:path-effect
       effect="simplify"
       id="path-effect162375"
       is_visible="true"
       lpeversion="1"
       steps="1"
       threshold="0.0168421"
       smooth_angles="360"
       helper_size="0"
       simplify_individual_paths="false"
       simplify_just_coalesce="false" /><inkscape:path-effect
       effect="simplify"
       id="path-effect162371"
       is_visible="true"
       lpeversion="1"
       steps="1"
       threshold="0.0168421"
       smooth_angles="360"
       helper_size="0"
       simplify_individual_paths="false"
       simplify_just_coalesce="false" /><inkscape:path-effect
       effect="simplify"
       id="path-effect162367"
       is_visible="true"
       lpeversion="1"
       steps="1"
       threshold="0.0168421"
       smooth_angles="360"
       helper_size="0"
       simplify_individual_paths="false"
       simplify_just_coalesce="false" /><clipPath
       clipPathUnits="userSpaceOnUse"
       id="clipPath4244"><path
         d="m -89.348846,133.47717 17.321,10 17.32,-10 v -20 l -17.32,-10 -17.321,10 v 20"
         class="s1"
         id="path4246"
         style="fill:none;fill-opacity:1;stroke:#000000;stroke-width:0.0999998;stroke-linecap:round;stroke-linejoin:round;stroke-dasharray:none" /></clipPath></defs><g
     inkscape:label="Layer 1"
     inkscape:groupmode="layer"
     id="layer1"
     transform="translate(87.927807,-107.6715)"><g
       id="g168605"
       inkscape:label="colors"><path
         id="path162369"
         style="fill:#dbdeef;fill-opacity:1;stroke:none;stroke-width:0.2;stroke-linecap:round;stroke-linejoin:round;stroke-dasharray:none"
         d="m -79.011386,107.6715 c -1.758897,0.40645 -1.427434,2.84909 -3.400117,2.80377 -2.423191,-0.0557 -5.02859,2.5594 -4.484032,4.66837 0.302927,1.32541 3.956998,-0.12457 5.187266,0.99549 1.24644,0.59311 2.561246,0.97129 3.899142,1.24229 2.42043,0.15674 4.340318,-2.35922 6.825485,-1.58076 1.689029,0.58 3.442956,1.62853 5.281945,1.00454 1.722091,-0.97967 0.0888,-3.35897 -1.003088,-4.24371 -1.624986,-0.3215 -2.882018,-2.54769 -4.595678,-1.81158 -1.662383,1.56427 -3.660122,-0.4292 -4.957522,-1.47811 -1.263732,-0.052 -1.763238,-1.15991 -2.753401,-1.6003 z m 3.261761,11.90911 c -0.776217,1.07034 -1.285615,2.68824 -2.823597,2.82788 -1.454514,0.20433 -2.806942,-0.56719 -3.913648,-1.42154 -1.787337,-0.0845 -2.750541,1.89657 -3.743181,3.10808 -0.696377,1.24417 -2.155958,2.6046 -1.556524,4.13886 1.385101,0.77997 3.253796,0.15231 4.847608,0.32201 2.048194,-0.26 4.129302,-1.19354 6.195094,-0.46979 1.42257,0.86237 3.011167,0.57174 4.455007,-0.0494 1.754237,-0.34435 2.243826,-1.45793 3.648607,-2.28707 1.507518,-0.88977 2.565308,0.97872 4.233947,1.50278 1.454426,0.56575 3.076609,-0.33484 4.472351,0.6623 1.172724,0.42322 2.840806,1.49653 3.887837,0.29667 1.096328,-1.4417 0.0023,-3.2591 -1.202468,-4.21907 -1.291347,-0.95325 -2.566378,-2.43113 -4.326066,-2.24707 -1.847883,0.46309 -2.759639,-1.52094 -4.303378,-2.04848 -1.880786,-0.83278 -3.085633,-0.72219 -4.362571,-2.49298 -0.16429,-0.22783 -1.325485,-0.6201 -1.599431,-0.55187 -0.583684,0.14537 -2.484599,0.97501 -3.909587,2.92869 z m 13.498109,8.54265 c -2.053334,0.23171 -2.888411,1.43343 -4.258463,2.90685 -0.94446,1.01573 -2.552458,2.05326 -3.482087,0.70606 -0.912671,-1.32263 -2.851449,-3.00533 -4.11223,-1.79594 -1.184041,1.27105 -2.735122,1.98407 -4.016926,3.00699 -0.725024,1.05963 -3.231561,4.25548 -1.664406,4.46282 1.267975,0.16776 4.665148,1.88625 5.576919,0.45792 1.61457,-1.21735 3.861037,0.12308 4.607083,1.73545 1.198294,1.36916 2.893693,-0.56452 4.151156,-1.03391 1.316699,-0.98407 2.747401,-1.34037 4.172298,-1.65116 1.556664,-0.33953 0.933647,-2.32891 2.862061,-1.91461 2.113019,0.55376 2.953317,-1.28411 2.785665,-2.48917 -0.249472,-1.79318 -1.080746,-2.76972 -2.762826,-3.06331 -1.138603,-0.19873 -2.75564,-1.45242 -3.858246,-1.32799 z"
         sodipodi:nodetypes="cccccccccccccccccccccccccccccsssccscccccssss" /><path
         id="path164271"
         style="fill:#cacfe8;fill-opacity:1;stroke:none;stroke-width:0.2;stroke-linecap:round;stroke-linejoin:round;stroke-dasharray:none"
         d="M -79.658544 109.08278 C -80.067264 110.36359 -81.208458 111.14694 -82.194824 111.66144 C -80.922669 113.1812 -79.454744 111.69469 -79.316446 110.20468 C -79.234586 109.81425 -79.255472 109.29566 -79.658544 109.08278 z M -77.527925 109.46984 C -78.145506 110.27838 -80.369169 111.52753 -78.73457 112.4092 C -76.965399 111.97917 -75.523912 113.35169 -73.82996 113.24997 C -73.087012 111.97051 -74.942295 110.92156 -76.094938 110.72299 C -76.610437 110.36381 -76.887059 109.63014 -77.527925 109.46984 z M -83.424206 111.42114 C -84.825036 112.16586 -84.140049 114.60325 -82.467675 114.56307 C -81.865727 114.87361 -79.912148 115.65174 -80.701891 114.26335 C -82.249963 113.73829 -81.771887 111.76851 -83.424206 111.42114 z M -69.86121 111.95909 C -71.038806 112.84172 -69.76349 114.6478 -69.357881 115.68186 C -68.279884 116.1074 -67.037744 115.72183 -65.928633 116.09631 C -64.935004 115.64872 -67.627382 114.88149 -67.471691 113.87422 C -68.640572 113.65684 -68.937989 112.45536 -69.86121 111.95909 z M -72.095182 112.56216 C -72.758137 113.3071 -73.014049 115.84224 -71.310733 115.02196 C -69.848684 114.44405 -71.859688 113.58494 -71.944803 112.67998 L -72.095182 112.56216 z M -73.489412 113.45409 C -74.930533 113.52179 -75.846193 115.19741 -77.366695 114.81938 C -78.480331 114.20858 -80.872942 115.28127 -79.033259 116.3149 C -77.177814 116.97613 -75.368412 115.91849 -73.681648 115.26225 C -73.091513 114.9557 -72.760017 113.75118 -73.489412 113.45409 z M -71.578934 117.7205 C -72.960367 117.84014 -73.145106 119.53333 -73.141629 120.62833 C -73.176149 122.10616 -71.693074 122.84667 -70.395027 122.8251 C -68.620968 122.8472 -67.120963 123.93585 -65.84285 125.05907 C -64.663395 125.42946 -63.412196 125.59589 -62.38518 126.34116 C -61.62517 126.77619 -59.031549 127.7313 -60.143973 126.06108 C -61.00867 125.30504 -60.982273 123.80868 -62.141267 123.43436 C -63.345089 123.18084 -64.826231 123.32815 -65.638728 122.19723 C -66.238252 121.11424 -67.077291 120.11051 -68.168806 119.49197 C -69.724909 119.86413 -70.271629 117.86948 -71.578934 117.7205 z M -74.588053 119.46303 C -74.597344 119.46278 -74.606692 119.46305 -74.615958 119.46406 C -75.198626 119.52751 -75.350329 120.37801 -75.735786 120.81953 C -76.15213 121.29645 -76.551622 121.79386 -77.023563 122.21583 C -77.410065 122.56141 -78.230643 122.61982 -78.277233 123.13619 C -78.325431 123.67038 -77.705853 124.26047 -77.171358 124.30511 C -76.538047 124.35801 -76.070564 123.63286 -75.649487 123.15686 C -75.221665 122.67324 -74.919311 122.07968 -74.680037 121.47996 C -74.459007 120.92596 -74.066744 120.30256 -74.263525 119.7395 C -74.309648 119.60752 -74.448686 119.46682 -74.588053 119.46303 z M -82.595316 121.69493 C -84.369232 121.99975 -83.005066 124.05842 -81.725085 123.89325 C -80.521268 124.35803 -79.366141 124.93914 -78.371284 125.7629 C -77.026222 126.14235 -78.704063 123.47426 -79.579996 123.46847 C -80.719352 123.08745 -81.463598 122.00789 -82.595316 121.69493 z M -84.140441 122.62459 C -84.791261 124.0511 -84.138944 125.4388 -83.081074 126.43004 C -82.550855 126.99299 -80.173011 127.53722 -81.607779 126.42798 C -82.37067 125.11932 -83.17077 123.70617 -84.140441 122.62459 z M -60.082995 122.65767 C -61.109672 124.01716 -59.019284 124.93134 -58.574043 125.95669 C -58.621833 126.93403 -56.275805 128.7327 -56.503369 126.99435 C -56.409519 125.55702 -57.557352 124.73035 -58.674295 124.07257 C -59.289619 123.73266 -59.345473 122.78415 -60.082995 122.65767 z M -84.68201 123.21319 C -85.240493 123.20197 -85.42252 124.33413 -85.824059 124.82601 C -86.205104 125.29278 -86.872469 125.61631 -86.98988 126.20732 C -87.080321 126.66257 -87.005849 127.38373 -86.56665 127.53385 C -86.096672 127.69449 -85.636649 127.08718 -85.339851 126.68894 C -84.930266 126.13936 -84.847865 125.403 -84.705781 124.73247 C -84.60164 124.241 -84.2367 123.62722 -84.549202 123.23386 C -84.552558 123.22963 -84.561413 123.23561 -84.565222 123.23179 L -84.565222 123.23127 C -84.605977 123.21983 -84.644778 123.21393 -84.68201 123.21319 z M -61.744392 128.40202 C -62.450359 129.64662 -64.11699 128.93055 -64.411413 130.55124 C -65.283482 132.07171 -66.958579 132.60798 -68.194128 133.71694 C -68.941486 133.27304 -70.184555 132.01101 -71.182059 131.299 C -71.936786 130.82642 -73.012164 129.67495 -73.492512 131.07007 C -75.24313 132.51754 -72.895444 134.4203 -71.329337 134.4678 C -70.003898 134.82966 -69.685579 136.70887 -68.144002 136.65578 C -66.69098 136.87201 -68.065414 134.63531 -66.689827 135.36335 C -65.524532 134.81288 -63.955117 134.18533 -63.791296 132.68703 C -62.845295 133.83989 -61.394005 133.32387 -60.151725 133.42187 C -59.022696 134.02227 -56.932194 135.81114 -56.053267 133.97119 C -55.812101 132.56488 -56.727667 131.24433 -57.935839 130.60188 C -59.124523 129.74193 -60.324393 128.83775 -61.744392 128.40202 z M -75.737853 132.40901 C -76.919494 132.95214 -77.137693 134.53324 -78.08138 135.41348 C -78.801773 137.26712 -75.928683 136.47048 -75.510994 135.37782 C -74.966405 134.54523 -74.599471 132.94893 -75.66654 132.40952 L -75.737853 132.40901 z " /><path
         id="path162697"
         style="fill:#b8bee0;fill-opacity:1;stroke:none;stroke-width:0.2;stroke-linecap:round;stroke-linejoin:round;stroke-dasharray:none"
         d="M -76.517134 110.35454 C -76.524656 110.35484 -76.531902 110.35685 -76.537805 110.36074 C -76.802159 110.53515 -76.879183 110.90716 -76.9538 111.21495 C -77.027802 111.52021 -77.139998 111.88975 -76.974987 112.15701 C -76.714381 112.57911 -75.933738 112.40158 -75.62985 112.79367 C -75.510251 112.94798 -75.676287 113.25282 -75.519262 113.36883 C -75.176854 113.6218 -74.362572 113.6413 -74.249572 113.23085 C -74.209447 113.0851 -74.546875 113.09451 -74.611824 112.958 C -74.749647 112.66833 -74.410429 112.27095 -74.576167 111.9963 C -74.787656 111.64583 -75.36804 111.72591 -75.683076 111.46455 C -76.0351 111.17251 -76.082426 110.55524 -76.49543 110.35867 C -76.501815 110.35564 -76.509612 110.35424 -76.517134 110.35454 z M -70.958817 112.72907 C -71.238751 112.70268 -71.53789 113.10444 -71.794942 113.2908 C -72.124377 113.52962 -72.504838 113.76147 -72.68481 114.1264 C -72.85433 114.47014 -72.779957 114.88773 -72.799015 115.27052 L -72.799015 115.27104 C -72.668805 115.40222 -72.421207 115.32946 -72.244527 115.27517 C -71.846304 115.1528 -71.595741 114.7362 -71.215649 114.56565 C -70.949666 114.44631 -70.584659 114.55083 -70.366088 114.35791 C -70.076519 114.10233 -69.823019 113.63892 -69.953194 113.27529 C -70.067921 112.95481 -70.66907 113.06325 -70.839961 112.76886 L -70.839961 112.76835 C -70.878977 112.74522 -70.918826 112.73284 -70.958817 112.72907 z M -68.82148 112.97712 C -68.832752 112.97841 -68.844547 112.98231 -68.854036 112.98642 C -69.089626 113.08851 -69.363958 113.27625 -69.399222 113.53057 C -69.442777 113.84469 -69.11034 114.09684 -68.934134 114.3605 C -68.67066 114.75474 -68.432998 115.19335 -68.053568 115.47774 C -67.625433 115.79864 -67.029177 116.34341 -66.56477 116.07771 C -66.308832 115.93127 -66.35379 115.48656 -66.434029 115.20282 C -66.549564 114.79426 -66.950975 114.52547 -67.254133 114.22821 C -67.724818 113.76667 -68.507992 113.57975 -68.792024 112.98487 L -68.792024 112.98435 C -68.799457 112.97716 -68.810207 112.97583 -68.82148 112.97712 z M -82.344168 113.17091 C -82.346892 113.17093 -82.349839 113.17159 -82.35192 113.17297 C -82.621233 113.3517 -82.706213 113.74402 -82.728641 114.06646 C -82.749507 114.36644 -82.718274 114.73503 -82.496614 114.93824 C -81.992987 115.39994 -80.945138 115.78994 -80.477616 115.29171 C -80.382186 115.19001 -80.482905 114.98903 -80.575801 114.88501 C -80.757291 114.68179 -81.101715 114.73012 -81.343713 114.60493 C -81.594102 114.47539 -81.87216 114.35086 -82.039278 114.12382 C -82.236155 113.85635 -82.069302 113.36963 -82.336934 113.17297 C -82.338947 113.17149 -82.341445 113.17088 -82.344168 113.17091 z M -74.658849 114.16723 C -74.909799 114.28008 -74.986649 114.61946 -75.20662 114.78476 C -75.57651 115.06272 -76.033147 115.20275 -76.46029 115.38059 C -76.958676 115.58809 -77.930782 115.39167 -77.984228 115.92888 C -78.024479 116.33346 -77.342956 116.50304 -76.940364 116.55985 C -76.353873 116.64261 -75.722633 116.41811 -75.224706 116.09734 C -74.743289 115.78721 -74.127396 115.34449 -74.13175 114.77184 C -74.133761 114.50729 -74.405788 114.27824 -74.64593 114.16723 C -74.649839 114.16542 -74.654922 114.16546 -74.658849 114.16723 z M -72.511177 118.56644 C -72.541578 118.56407 -72.572763 118.56845 -72.604711 118.58143 C -73.321267 118.87262 -73.049369 120.20682 -72.70548 120.89963 C -72.455878 121.40249 -71.782635 122.17832 -71.321069 121.85875 C -70.555299 121.32856 -71.530647 119.95206 -72.002164 119.14884 C -72.124372 118.94066 -72.298367 118.58306 -72.511177 118.56644 z M -68.919665 119.03515 C -68.99518 119.03703 -69.071545 119.06049 -69.148592 119.1106 C -69.863108 119.57529 -68.827233 120.82644 -68.371378 121.54662 C -67.874819 122.33111 -67.10916 122.93427 -66.335327 123.44728 C -66.153576 123.56777 -65.884913 123.87503 -65.737947 123.71393 C -64.92943 122.82767 -66.747174 121.50997 -67.499597 120.57562 C -67.903109 120.07454 -68.391057 119.02196 -68.919665 119.03515 z M -76.257718 121.14975 C -76.334432 121.14553 -76.416717 121.1637 -76.481477 121.20504 C -76.783561 121.39787 -77.023415 121.70981 -77.154821 122.04323 C -77.244437 122.27062 -77.244673 122.53265 -77.209081 122.77445 C -77.165316 123.0718 -77.092987 123.39825 -76.886104 123.61626 C -76.661837 123.85259 -76.260735 123.82782 -75.993135 124.01365 C -75.770827 124.16804 -75.680477 124.50497 -75.424694 124.59346 C -75.285656 124.64157 -75.089183 124.64247 -74.986995 124.53662 C -74.800847 124.34381 -74.896265 124.00372 -74.911547 123.73615 C -74.943451 123.17757 -75.027653 122.60362 -75.258296 122.09388 C -75.39472 121.79237 -75.587243 121.49636 -75.852575 121.29858 C -75.967926 121.21259 -76.114064 121.15764 -76.257718 121.14975 z M -81.526647 122.64165 C -81.556485 122.64624 -81.585444 122.66144 -81.613464 122.6897 C -82.243908 123.32556 -80.573759 125.28229 -79.867834 124.73144 C -79.407669 124.37236 -80.486552 123.73323 -80.882242 123.30414 C -81.07109 123.09935 -81.317785 122.60947 -81.526647 122.64165 z M -83.515673 122.92793 C -83.540692 122.9297 -83.562941 122.93849 -83.570967 122.95842 C -83.728955 123.35075 -83.133248 124.20246 -82.788586 123.95733 C -82.460034 123.72365 -83.076693 123.10806 -83.443326 122.94034 C -83.462865 122.9314 -83.490654 122.92616 -83.515673 122.92793 z M -84.316141 123.67776 C -84.324827 123.67856 -84.332747 123.6817 -84.338879 123.68861 C -84.862223 124.27859 -84.547427 126.14061 -83.774055 125.98614 C -83.034654 125.83847 -83.660933 124.34934 -84.119254 123.75062 C -84.143535 123.7189 -84.190303 123.71268 -84.228808 123.70205 C -84.25553 123.69467 -84.290085 123.67534 -84.316141 123.67776 z M -62.991345 123.74494 C -62.999683 123.74654 -63.007052 123.7501 -63.013049 123.75631 C -63.347168 124.10217 -63.115292 124.7783 -62.869905 125.19188 C -62.350912 126.06659 -61.093484 127.60693 -60.350162 126.9127 C -59.876008 126.46987 -60.930191 125.74075 -61.335632 125.23425 C -61.784443 124.67357 -62.250524 124.04814 -62.909696 123.76302 C -62.933461 123.75275 -62.96633 123.74012 -62.991345 123.74494 z M -58.546655 124.30511 C -58.551655 124.30395 -58.556591 124.30417 -58.560091 124.30718 L -58.560091 124.30769 C -58.430447 125.18261 -58.540023 126.3773 -57.790628 126.84707 C -57.552146 126.99657 -57.070542 126.97266 -56.956571 126.7153 C -56.568577 125.83917 -57.726027 124.82844 -58.532702 124.31131 C -58.536588 124.30882 -58.541654 124.30627 -58.546655 124.30511 z M -61.912341 128.66402 C -62.402877 129.22049 -62.028903 130.11111 -61.581095 130.58328 C -60.877496 131.33044 -59.840677 131.72012 -59.256172 132.57902 C -59.020042 133.38894 -58.332683 134.16968 -57.405639 133.86628 C -56.481648 133.76297 -56.660803 132.89031 -56.722477 132.25036 C -56.452973 131.41141 -57.299596 131.43957 -57.87176 131.51346 C -58.885287 131.50446 -58.430133 130.11427 -59.296996 129.84431 C -60.076714 129.41206 -60.914502 129.12438 -61.714937 128.7343 L -61.813122 128.69761 L -61.912341 128.66402 z M -64.398494 130.39673 C -65.152064 130.80718 -64.728423 132.05481 -64.009887 132.28653 C -63.27508 132.66649 -62.884243 133.6062 -61.965567 133.58516 C -61.494164 133.53926 -60.715103 133.82743 -60.419925 133.46734 C -61.169853 133.28961 -61.669555 132.74037 -62.327819 132.36663 C -63.042789 131.95829 -62.904972 130.89147 -63.730318 130.58431 C -63.936936 130.47668 -64.165978 130.41202 -64.398494 130.39673 z M -72.102933 131.53361 C -72.855202 132.132 -72.249791 133.17246 -71.461629 133.35417 C -70.578246 133.77238 -70.533728 134.95647 -69.626599 135.30082 C -69.042576 135.7229 -68.097532 135.22042 -68.734663 134.5603 C -68.833823 133.62513 -69.587138 133.15993 -70.41208 132.93404 C -71.090343 132.76844 -70.980109 131.8748 -71.641463 131.68089 C -71.787859 131.61189 -71.943838 131.56312 -72.102933 131.53361 z M -74.434574 132.67773 C -75.248437 132.72111 -75.679732 134.00557 -74.658333 134.15309 C -74.069203 134.27736 -73.586279 135.66696 -73.042927 135.05949 C -73.118067 134.48384 -72.903996 133.75231 -73.488378 133.4074 C -73.855623 133.24732 -73.846691 132.67186 -74.269726 132.68599 C -74.298343 132.68168 -74.32659 132.67903 -74.354475 132.67773 C -74.381489 132.67646 -74.40832 132.67633 -74.434574 132.67773 z M -64.115824 133.62082 C -64.947066 133.65702 -65.241669 134.84098 -66.151875 134.81971 C -66.684548 134.95198 -67.675392 135.23845 -67.744026 135.67496 C -67.040107 135.75646 -66.324866 135.63917 -65.624259 135.75557 C -64.803998 135.65797 -64.480101 134.77047 -63.657454 134.68639 C -63.111047 134.45053 -63.323992 133.53961 -63.942191 133.62961 C -64.00272 133.62112 -64.060408 133.61841 -64.115824 133.62082 z " /></g><g
       id="g161461"
       inkscape:label="lines"><path
         style="fill:none;stroke:#000000;stroke-width:0.1;stroke-linecap:round;stroke-linejoin:round;stroke-dasharray:none"
         d="m -69.14931,115.64808 0.343664,-0.67749 0.402345,0.10855 0.679559,-0.82871 c 0.113395,0.32663 0.286594,0.57303 0.509615,0.76298 0.464266,0.39544 0.968804,0.60573 1.378021,0.66703"
         id="path56378-7"
         sodipodi:nodetypes="ccccsc" /><path
         style="fill:none;stroke:#000000;stroke-width:0.1;stroke-linecap:round;stroke-linejoin:round;stroke-dasharray:none"
         d="m -68.325434,114.03013 c -0.221069,-0.009 -0.04005,-0.20997 -0.179841,-0.53352 l -0.23723,0.0944 -1.050313,-1.25636 c -0.220027,0.51805 -0.546255,0.81465 -0.972915,1.15113 l -0.429956,-0.2305 -0.988241,1.52995"
         id="path56376-0"
         sodipodi:nodetypes="ccccccc" /><path
         style="fill:none;stroke:#000000;stroke-width:0.1;stroke-linecap:round;stroke-linejoin:round;stroke-dasharray:none"
         d="m -72.140696,113.30461 -0.220557,-0.13784 -0.206681,-0.77855 -1.143915,1.7493 -0.468,-0.20721 c -0.496344,1.28331 -1.220498,1.53532 -1.994954,1.98161"
         id="path56374-9"
         sodipodi:nodetypes="cccccc" /><path
         style="fill:none;stroke:#000000;stroke-width:0.1;stroke-linecap:round;stroke-linejoin:round;stroke-dasharray:none"
         d="m -82.556006,113.39649 c -0.329784,-0.61238 -0.960562,-0.30245 -1.401199,-0.92027 l -0.178673,1.11618 -0.510944,-0.17106 -0.768748,1.07902"
         id="path56372-6"
         sodipodi:nodetypes="ccccc" /><path
         style="fill:none;stroke:#000000;stroke-width:0.1;stroke-linecap:round;stroke-linejoin:round;stroke-dasharray:none"
         d="m -82.568937,112.21863 0.476711,-0.59496 c 2.110568,-0.22557 2.414974,-1.0753 2.924959,-2.57874 l 0.855676,0.75212"
         id="path56370-0"
         sodipodi:nodetypes="cccc" /><path
         style="fill:none;stroke:#000000;stroke-width:0.1;stroke-linecap:round;stroke-linejoin:round;stroke-dasharray:none"
         d="m -78.819787,111.11304 c 0.626024,-0.3698 1.271204,-0.72552 1.531085,-1.36456 l 0.623112,1.1423 0.140601,-0.13472 1.070003,1.29693 0.152344,-0.43109 c 0.448226,0.73783 0.749658,0.94535 1.225353,1.17652"
         id="path56353-6"
         sodipodi:nodetypes="ccccccc" /><path
         style="fill:none;stroke:#000000;stroke-width:0.1;stroke-linecap:round;stroke-linejoin:round;stroke-dasharray:none"
         d="m -82.380794,125.02973 -0.688592,-0.84002 -0.55572,0.66311 -0.854102,-1.15027 c -0.324326,0.86817 -0.978758,2.59657 -1.617429,1.76632 l -1.283344,2.06983"
         id="path56392-7"
         sodipodi:nodetypes="cccccc" /><path
         style="fill:none;stroke:#000000;stroke-width:0.1;stroke-linecap:round;stroke-linejoin:round;stroke-dasharray:none"
         d="m -83.499879,123.22689 0.845851,-1.21837 0.974701,1.28685 0.295391,-0.31694 0.696707,0.91262 0.259802,-0.3279 c 0.317545,0.44295 0.547245,1.24493 0.932275,0.65696 l 0.849901,1.1206"
         id="path56390-5"
         sodipodi:nodetypes="cccccccc" /><path
         style="fill:none;stroke:#000000;stroke-width:0.1;stroke-linecap:round;stroke-linejoin:round;stroke-dasharray:none"
         d="m -78.556894,124.14567 0.473147,-0.72963 0.293751,0.3908 0.777674,-1.34163 c 0.684582,0.86229 2.248917,-2.32839 2.765498,-3.05787 l 1.123823,1.51849 0.234586,-0.38446 1.285223,1.40348"
         id="path56388-5"
         sodipodi:nodetypes="cccccccc" /><path
         style="fill:none;stroke:#000000;stroke-width:0.1;stroke-linecap:round;stroke-linejoin:round;stroke-dasharray:none"
         d="m -72.760154,119.55778 c 0.509476,-0.67491 0.844516,-1.47125 1.275126,-2.12735 0.744648,1.33157 1.694007,2.54738 2.857448,3.64213 m 1.410098,0.28702 2.033462,2.75055 0.528688,-0.83302 c 0.665772,1.2169 1.096579,1.81247 1.792366,1.16041 l 1.940149,2.04232"
         id="path56386-6"
         sodipodi:nodetypes="cccccccc" /><path
         style="fill:none;stroke:#000000;stroke-width:0.1;stroke-linecap:round;stroke-linejoin:round;stroke-dasharray:none"
         d="m -62.138091,124.65591 0.527246,-0.68543 0.293291,0.31559 0.990348,-1.33488 m 0.312047,0.79751 c 0.408978,0.97009 0.991633,1.9962 1.563395,1.2523 l 1.488063,2.40204"
         id="path56650-9"
         sodipodi:nodetypes="ccccccc" /><path
         style="fill:none;stroke:#000000;stroke-width:0.1;stroke-linecap:round;stroke-linejoin:round;stroke-dasharray:none"
         d="m -57.27716,125.32302 0.658601,1.14369"
         id="path12285"
         sodipodi:nodetypes="cc" /><path
         style="fill:none;stroke:#000000;stroke-width:0.1;stroke-linecap:round;stroke-linejoin:round;stroke-dasharray:none"
         d="m -82.960405,125.53097 0.654765,0.91677"
         id="path12951" /><path
         style="fill:none;stroke:#000000;stroke-width:0.1;stroke-linecap:round;stroke-linejoin:round;stroke-dasharray:none"
         d="m -86.129746,127.3047 0.3524,-0.63055"
         id="path12957" /><path
         style="fill:none;stroke:#000000;stroke-width:0.1;stroke-linecap:round;stroke-linejoin:round;stroke-dasharray:none"
         d="m -68.696922,119.78877 c 0,0 0.436479,0.55181 0.744022,0.69568 0.178951,0.0837 0.588194,0.0729 0.588194,0.0729"
         id="path13614"
         sodipodi:nodetypes="cac" /><path
         style="fill:none;stroke:#000000;stroke-width:0.1;stroke-linecap:round;stroke-linejoin:round;stroke-dasharray:none"
         d="m -68.779015,136.47867 0.86862,-1.61915 c 0.53039,0.46542 1.19112,-1.01015 1.5218,-1.43243 l 0.53521,0.34536 1.5507,-2.64545 1.16578,1.16705"
         id="path56398" /><path
         style="fill:none;stroke:#000000;stroke-width:0.1;stroke-linecap:round;stroke-linejoin:round;stroke-dasharray:none"
         d="m -63.439699,131.11997 c 0.68241,-0.44125 1.253056,-1.35542 1.513372,-2.12827 l 1.284027,1.74704 m 0.679131,0.27008 0.589922,0.0378 1.4009,2.51158"
         id="path56396"
         sodipodi:nodetypes="cccccc" /><path
         style="fill:none;stroke:#000000;stroke-width:0.1;stroke-linecap:round;stroke-linejoin:round;stroke-dasharray:none"
         d="m -57.827579,132.36201 0.489799,-0.58896 0.9323,1.4374"
         id="path56394"
         sodipodi:nodetypes="ccc" /><path
         style="fill:none;stroke:#000000;stroke-width:0.1;stroke-linecap:round;stroke-linejoin:round;stroke-dasharray:none"
         d="m -77.548052,136.01527 0.445602,-1.08172 c 1.022337,0.31325 1.313339,-0.92234 1.559455,-2.20613 0.502019,0.53451 0.695641,0.85342 1.216047,0.55444 l 0.73999,0.83019"
         id="path56384" /><path
         style="fill:none;stroke:#000000;stroke-width:0.1;stroke-linecap:round;stroke-linejoin:round;stroke-dasharray:none"
         d="m -74.176219,132.3134 0.316895,0.3785 1.256744,-1.64872 m 0.423933,0.55674 c 0.345213,0.92111 0.959519,1.90496 1.265893,0.93909 l 0.910829,2.0268"
         id="path56382"
         sodipodi:nodetypes="cccccc" /><path
         style="fill:none;stroke:#000000;stroke-width:0.1;stroke-linecap:round;stroke-linejoin:round;stroke-dasharray:none"
         d="m -69.566926,133.60209 c 0.215805,0.57347 0.483779,0.95019 0.875046,1.18749"
         id="path56380"
         sodipodi:nodetypes="cc" /><path
         style="fill:none;stroke:#000000;stroke-width:0.1;stroke-linecap:round;stroke-linejoin:round;stroke-dasharray:none;stroke-opacity:1"
         d="m -60.453872,129.79079 c 0,0 0.224867,0.32116 0.392467,0.40776 0.164101,0.0848 0.547969,0.0824 0.547969,0.0824"
         id="path16469"
         sodipodi:nodetypes="cac" /><path
         style="fill:none;stroke:#000000;stroke-width:0.1;stroke-linecap:round;stroke-linejoin:round;stroke-dasharray:none;stroke-opacity:1"
         d="m -62.291865,131.45391 c 0,0 0.106044,-0.1375 0.150389,-0.2119 0.07325,-0.1229 0.189685,-0.38503 0.189685,-0.38503"
         id="path16744"
         sodipodi:nodetypes="cac" /></g></g></svg>
