<?xml version="1.0" encoding="UTF-8" standalone="no"?>
<!-- Created with Inkscape (http://www.inkscape.org/) -->

<svg
   xml:space="preserve"
   sodipodi:docname="mountains_fill.svg"
   inkscape:version="1.3.2 (091e20ef0f, 2023-11-25, custom)"
   id="svg5"
   version="1.1"
   viewBox="0 0 30.455815 25.73439"
   height="25.73439mm"
   width="30.455814mm"
   xmlns:inkscape="http://www.inkscape.org/namespaces/inkscape"
   xmlns:sodipodi="http://sodipodi.sourceforge.net/DTD/sodipodi-0.dtd"
   xmlns="http://www.w3.org/2000/svg"
   xmlns:svg="http://www.w3.org/2000/svg"><sodipodi:namedview
     id="namedview7"
     pagecolor="#ffffff"
     bordercolor="#666666"
     borderopacity="1.0"
     inkscape:pageshadow="2"
     inkscape:pageopacity="0"
     inkscape:pagecheckerboard="false"
     inkscape:document-units="mm"
     showgrid="false"
     inkscape:zoom="2.4295671"
     inkscape:cx="51.861091"
     inkscape:cy="22.43198"
     inkscape:window-width="380"
     inkscape:window-height="1037"
     inkscape:window-x="1152"
     inkscape:window-y="0"
     inkscape:window-maximized="1"
     inkscape:current-layer="layer1"
     inkscape:showpageshadow="2"
     inkscape:deskcolor="#ffffff" /><defs
     id="defs2"><inkscape:path-effect
       effect="simplify"
       id="path-effect165099"
       is_visible="true"
       lpeversion="1"
       steps="1"
       threshold="0.0168421"
       smooth_angles="360"
       helper_size="0"
       simplify_individual_paths="false"
       simplify_just_coalesce="false" /><inkscape:path-effect
       effect="simplify"
       id="path-effect165095"
       is_visible="true"
       lpeversion="1"
       steps="1"
       threshold="0.0168421"
       smooth_angles="360"
       helper_size="0"
       simplify_individual_paths="false"
       simplify_just_coalesce="false" /><inkscape:path-effect
       effect="simplify"
       id="path-effect165091"
       is_visible="true"
       lpeversion="1"
       steps="1"
       threshold="0.0168421"
       smooth_angles="360"
       helper_size="0"
       simplify_individual_paths="false"
       simplify_just_coalesce="false" /><inkscape:path-effect
       effect="simplify"
       id="path-effect165087"
       is_visible="true"
       lpeversion="1"
       steps="1"
       threshold="0.0168421"
       smooth_angles="360"
       helper_size="0"
       simplify_individual_paths="false"
       simplify_just_coalesce="false" /><inkscape:path-effect
       effect="simplify"
       id="path-effect165083"
       is_visible="true"
       lpeversion="1"
       steps="1"
       threshold="0.0168421"
       smooth_angles="360"
       helper_size="0"
       simplify_individual_paths="false"
       simplify_just_coalesce="false" /><inkscape:path-effect
       effect="simplify"
       id="path-effect165017"
       is_visible="true"
       lpeversion="1"
       steps="1"
       threshold="0.0168421"
       smooth_angles="360"
       helper_size="0"
       simplify_individual_paths="false"
       simplify_just_coalesce="false" /><inkscape:path-effect
       effect="simplify"
       id="path-effect164888"
       is_visible="true"
       lpeversion="1"
       steps="1"
       threshold="0.0168421"
       smooth_angles="360"
       helper_size="0"
       simplify_individual_paths="false"
       simplify_just_coalesce="false" /><inkscape:path-effect
       effect="simplify"
       id="path-effect164884"
       is_visible="true"
       lpeversion="1"
       steps="1"
       threshold="0.0168421"
       smooth_angles="360"
       helper_size="0"
       simplify_individual_paths="false"
       simplify_just_coalesce="false" /><inkscape:path-effect
       effect="simplify"
       id="path-effect164281"
       is_visible="true"
       lpeversion="1"
       steps="1"
       threshold="0.0168421"
       smooth_angles="360"
       helper_size="0"
       simplify_individual_paths="false"
       simplify_just_coalesce="false" /><inkscape:path-effect
       effect="simplify"
       id="path-effect164277"
       is_visible="true"
       lpeversion="1"
       steps="1"
       threshold="0.0168421"
       smooth_angles="360"
       helper_size="0"
       simplify_individual_paths="false"
       simplify_just_coalesce="false" /><inkscape:path-effect
       effect="simplify"
       id="path-effect164273"
       is_visible="true"
       lpeversion="1"
       steps="1"
       threshold="0.0168421"
       smooth_angles="360"
       helper_size="0"
       simplify_individual_paths="false"
       simplify_just_coalesce="false" /><inkscape:path-effect
       effect="simplify"
       id="path-effect163974"
       is_visible="true"
       lpeversion="1"
       steps="1"
       threshold="0.0168421"
       smooth_angles="360"
       helper_size="0"
       simplify_individual_paths="false"
       simplify_just_coalesce="false" /><inkscape:path-effect
       effect="simplify"
       id="path-effect163970"
       is_visible="true"
       lpeversion="1"
       steps="1"
       threshold="0.0168421"
       smooth_angles="360"
       helper_size="0"
       simplify_individual_paths="false"
       simplify_just_coalesce="false" /><inkscape:path-effect
       effect="simplify"
       id="path-effect163966"
       is_visible="true"
       lpeversion="1"
       steps="1"
       threshold="0.0168421"
       smooth_angles="360"
       helper_size="0"
       simplify_individual_paths="false"
       simplify_just_coalesce="false" /><inkscape:path-effect
       effect="simplify"
       id="path-effect163962"
       is_visible="true"
       lpeversion="1"
       steps="1"
       threshold="0.0168421"
       smooth_angles="360"
       helper_size="0"
       simplify_individual_paths="false"
       simplify_just_coalesce="false" /><inkscape:path-effect
       effect="simplify"
       id="path-effect163958"
       is_visible="true"
       lpeversion="1"
       steps="1"
       threshold="0.0168421"
       smooth_angles="360"
       helper_size="0"
       simplify_individual_paths="false"
       simplify_just_coalesce="false" /><inkscape:path-effect
       effect="simplify"
       id="path-effect163954"
       is_visible="true"
       lpeversion="1"
       steps="1"
       threshold="0.0168421"
       smooth_angles="360"
       helper_size="0"
       simplify_individual_paths="false"
       simplify_just_coalesce="false" /><inkscape:path-effect
       effect="simplify"
       id="path-effect163743"
       is_visible="true"
       lpeversion="1"
       steps="1"
       threshold="0.0168421"
       smooth_angles="360"
       helper_size="0"
       simplify_individual_paths="false"
       simplify_just_coalesce="false" /><inkscape:path-effect
       effect="simplify"
       id="path-effect163150"
       is_visible="true"
       lpeversion="1"
       steps="1"
       threshold="0.0168421"
       smooth_angles="360"
       helper_size="0"
       simplify_individual_paths="false"
       simplify_just_coalesce="false" /><inkscape:path-effect
       effect="simplify"
       id="path-effect163146"
       is_visible="true"
       lpeversion="1"
       steps="1"
       threshold="0.0168421"
       smooth_angles="360"
       helper_size="0"
       simplify_individual_paths="false"
       simplify_just_coalesce="false" /><inkscape:path-effect
       effect="simplify"
       id="path-effect163142"
       is_visible="true"
       lpeversion="1"
       steps="1"
       threshold="0.0168421"
       smooth_angles="360"
       helper_size="0"
       simplify_individual_paths="false"
       simplify_just_coalesce="false" /><inkscape:path-effect
       effect="simplify"
       id="path-effect163138"
       is_visible="true"
       lpeversion="1"
       steps="1"
       threshold="0.0168421"
       smooth_angles="360"
       helper_size="0"
       simplify_individual_paths="false"
       simplify_just_coalesce="false" /><inkscape:path-effect
       effect="simplify"
       id="path-effect163134"
       is_visible="true"
       lpeversion="1"
       steps="1"
       threshold="0.0168421"
       smooth_angles="360"
       helper_size="0"
       simplify_individual_paths="false"
       simplify_just_coalesce="false" /><inkscape:path-effect
       effect="simplify"
       id="path-effect162653"
       is_visible="true"
       lpeversion="1"
       steps="1"
       threshold="0.0168421"
       smooth_angles="360"
       helper_size="0"
       simplify_individual_paths="false"
       simplify_just_coalesce="false" /><inkscape:path-effect
       effect="simplify"
       id="path-effect162604"
       is_visible="true"
       lpeversion="1"
       steps="1"
       threshold="0.0168421"
       smooth_angles="360"
       helper_size="0"
       simplify_individual_paths="false"
       simplify_just_coalesce="false" /><inkscape:path-effect
       effect="simplify"
       id="path-effect162559"
       is_visible="true"
       lpeversion="1"
       steps="1"
       threshold="0.0168421"
       smooth_angles="360"
       helper_size="0"
       simplify_individual_paths="false"
       simplify_just_coalesce="false" /><inkscape:path-effect
       effect="simplify"
       id="path-effect162555"
       is_visible="true"
       lpeversion="1"
       steps="1"
       threshold="0.0168421"
       smooth_angles="360"
       helper_size="0"
       simplify_individual_paths="false"
       simplify_just_coalesce="false" /><inkscape:path-effect
       effect="simplify"
       id="path-effect162551"
       is_visible="true"
       lpeversion="1"
       steps="1"
       threshold="0.0168421"
       smooth_angles="360"
       helper_size="0"
       simplify_individual_paths="false"
       simplify_just_coalesce="false" /><inkscape:path-effect
       effect="simplify"
       id="path-effect162547"
       is_visible="true"
       lpeversion="1"
       steps="1"
       threshold="0.0168421"
       smooth_angles="360"
       helper_size="0"
       simplify_individual_paths="false"
       simplify_just_coalesce="false" /><inkscape:path-effect
       effect="simplify"
       id="path-effect162375"
       is_visible="true"
       lpeversion="1"
       steps="1"
       threshold="0.0168421"
       smooth_angles="360"
       helper_size="0"
       simplify_individual_paths="false"
       simplify_just_coalesce="false" /><inkscape:path-effect
       effect="simplify"
       id="path-effect162371"
       is_visible="true"
       lpeversion="1"
       steps="1"
       threshold="0.0168421"
       smooth_angles="360"
       helper_size="0"
       simplify_individual_paths="false"
       simplify_just_coalesce="false" /><inkscape:path-effect
       effect="simplify"
       id="path-effect162367"
       is_visible="true"
       lpeversion="1"
       steps="1"
       threshold="0.0168421"
       smooth_angles="360"
       helper_size="0"
       simplify_individual_paths="false"
       simplify_just_coalesce="false" /><clipPath
       clipPathUnits="userSpaceOnUse"
       id="clipPath4244"><path
         d="m -89.348846,133.47717 17.321,10 17.32,-10 v -20 l -17.32,-10 -17.321,10 v 20"
         class="s1"
         id="path4246"
         style="fill:none;fill-opacity:1;stroke:#000000;stroke-width:0.0999998;stroke-linecap:round;stroke-linejoin:round;stroke-dasharray:none" /></clipPath></defs><g
     inkscape:label="Layer 1"
     inkscape:groupmode="layer"
     id="layer1"
     transform="translate(68.315395,-132.99939)"><path
       id="path13-5"
       style="color:#000000;fill:#000000;stroke-linecap:round;-inkscape-stroke:none"
       d="m -57.912096,134.66546 0.19327,0.0253 0.687813,-0.50384 -0.670243,-0.77567 -0.669727,-0.41186 -0.06459,0.16795 -0.503845,1.31465 -0.59583,0.57619 -0.925525,0.43925 -0.843876,0.10335 -0.595829,0.70901 0.167948,0.23667 1.009758,-0.3948 1.004073,-0.17984 1.22185,-1.25847 m 0.13929,0.76444 -0.784965,1.02526 0.189136,0.2248 0.603581,-0.32608 0.414445,-0.22479 0.251664,-0.13643 0.794783,-0.80305 0.500228,-0.0351 0.390674,0.75809 -0.06046,1.19735 0.415995,0.88625 1.247986,0.0646 0.763777,-0.81649 1.033012,-0.37103 -0.964799,-0.40205 -0.781347,-1.01802 -0.259933,0.40049 -0.716752,-1.06247 -0.374654,-0.16019 -0.713135,-1.13068 -0.127124,0.20308 -0.339514,0.54467 -0.683679,0.55708 -0.359151,0.25735 m 9.028906,1.03352 -0.113171,0.16227 -0.814421,1.16789 -0.427881,-0.17777 -0.451135,0.16588 -0.617017,-0.27544 -0.392741,-0.96479 -0.56844,0.86919 -0.585494,0.96118 -0.535368,-0.14262 -0.398426,0.89452 -1.228348,0.89452 -0.685747,0.4625 0.113172,0.27182 1.476395,-0.28112 1.054716,-1.27744 0.336414,0.0155 0.644405,-0.67386 0.314193,-0.50178 0.07235,0.31419 -0.02739,0.98651 -0.523482,1.06608 0.224793,0.18604 1.388545,-1.0511 0.234611,-0.68937 0.519348,-0.0822 0.664043,-0.38654 0.384989,-0.56431 0.296623,0.35709 0.12299,0.68161 -0.478524,0.58808 -0.04651,0.76171 0.634587,0.44751 0.505912,-0.79891 0.646472,-0.27751 0.14056,-0.23822 0.0956,0.36535 0.250114,0.77928 0.931726,0.30282 1.566313,0.22841 -0.738456,-0.95704 -1.281059,-0.58395 -0.3514,-0.94929 -0.791166,-0.13695 -0.08217,-0.55448 -0.605131,-0.30645 z m -14.246159,0.1819 -0.05064,0.22066 -0.197404,0.8785 -0.423747,-0.0465 -0.767395,1.00201 -0.558622,1.13636 0.220659,0.18966 0.685746,-0.49041 0.642338,-1.11725 0.443384,0.0429 0.343648,-0.3514 0.222725,0.58188 0.0956,1.17409 0.863513,0.38086 1.769401,-0.17984 -0.21084,-0.69505 -1.588017,-1.94923 -0.722436,-0.22686 z m 10.346139,3.81218 -0.115239,0.21859 -0.642855,1.21491 -0.818554,1.34565 1.758032,-0.69918 1.610435,1.77279 0.392858,2.01583 0.69528,1.20484 2.781909,0.43136 3.236298,1.80214 0.01189,0.0233 1.589567,0.73432 0.412378,-1.49242 -0.628902,-0.54673 -0.269751,-0.32608 0.353467,-0.0858 0.7953,-0.28525 0.265617,1.11518 0.314193,1.58595 1.152384,0.7462 2.035018,-0.33227 -0.293006,-2.27325 -1.361157,-0.41238 -2.105298,-2.27893 -0.820621,1.27537 -0.373104,-0.23047 -1.108976,0.69711 -0.968934,-0.0527 -0.773596,-1.11517 -0.687296,0.44545 -0.800985,-0.99219 -1.79679,-2.24638 -1.14825,-0.0486 -1.656229,-1.72083 z m -2.660303,1.82211 -0.125057,0.20308 -0.443384,0.73071 -0.623218,1.16582 -1.005623,1.24023 -0.425814,-0.0444 -0.21084,0.0465 -0.670243,1.15652 -0.261483,-0.22893 -0.716752,0.92811 1.406116,0.1757 0.253731,-0.30644 0.17415,-0.21136 0.310575,-0.37465 0.591695,-0.36329 0.927592,-1.32033 0.789099,-1.22886 0.378789,1.25418 0.02945,1.34979 0.586011,1.60921 1.783354,-0.84181 0.794783,-0.92966 -0.734322,-1.1095 -1.240234,-1.33997 -0.531234,0.0372 z m -8.476485,2.75228 -0.115239,0.1757 -0.482658,0.74983 -0.543119,0.70538 0.199471,0.21859 0.939478,-0.59583 0.243912,0.50592 0.748275,0.66042 0.591695,1.20871 0.896586,1.01389 1.091923,0.18346 h 0.862997 l -0.01964,-1.24231 -1.173572,-1.22266 -0.29714,0.094 -0.534851,-0.77928 -0.402559,0.13849 -0.574125,-0.73639 -0.494027,0.11938 z m -1.838131,1.57045 -0.09353,0.28887 -0.164331,0.49816 -0.382406,0.75189 -0.449585,0.5762 -0.576192,-0.20309 -0.349333,0.74414 -0.536194,1.16891 0.71261,-0.58433 0.414388,-0.61971 0.899028,0.37672 0.65629,-0.67386 0.287321,0.68575 0.931726,0.9157 1.163754,0.82631 1.584399,-0.52555 -1.072286,-1.82625 -1.015959,-1.22628 -0.650089,-0.58963 -0.490409,0.68162 z m 21.228678,4.55063 -0.0801,0.21652 -0.373104,1.0237 -1.394747,1.44126 1.467094,-0.045 0.879016,-0.87282 1.097608,1.96061 0.730188,1.78748 1.532982,-0.48245 1.50378,-0.32167 0.542213,-0.78242 -0.941927,-1.23757 -1.301213,0.74 -1.238167,-2.05103 -1.122929,-0.10542 z m -10.308414,1.83605 -0.172083,0.17157 -0.83199,0.83612 -0.695565,1.22266 0.219108,0.19534 1.056266,-0.76171 0.443384,0.70693 0.81442,0.29663 0.45527,1.23455 1.031461,0.58394 1.400432,0.47491 -0.539502,-1.80299 -0.94878,0.0176 -0.72657,-1.6521 -1.00614,-0.0527 z m 7.927681,0.37104 -0.09973,0.16019 -1.48053,2.40606 -0.568441,-0.16227 -0.962732,1.56838 -0.521415,-0.31057 -0.875399,1.84795 0.228927,0.18345 0.876949,-0.69143 0.552421,-0.20722 1.056783,-1.1405 0.847493,-0.2341 1.097608,-1.68982 0.302824,1.27951 0.998388,2.10737 1.732194,-0.0393 -0.630969,-2.97243 -1.491898,-1.05885 z m -11.346077,1.80247 -0.205156,1.16634 -0.569991,0.99374 -0.72657,-0.30231 -1.027328,1.9668 1.548743,-0.84387 0.857312,-0.0196 0.593762,-0.92552 0.468705,-0.0765 0.611332,1.02165 1.627291,0.58601 -0.205155,-1.39475 -1.415934,-1.76578 -0.513664,0.20722 -0.68833,-0.40463 -0.206706,-0.1819 -0.0098,0.0548 z"
       sodipodi:nodetypes="cccccccccccccccccccccccccccccccccccccccccccccccccccccccccccccccccccccccccccccccccccccccccccccccccccccccccccccccccccccccccccccccccccccccccccccccccccccccccccccccccccccccccccccccccccccccccccccccccccccccccccccccccccccccccccccccccccccccccccccccccccccccccccccccccccccccccccccccccccc"
       inkscape:label="mountains" /></g></svg>
