<?xml version="1.0" encoding="UTF-8" standalone="no"?>
<!-- Created with Inkscape (http://www.inkscape.org/) -->

<svg
   xml:space="preserve"
   sodipodi:docname="mountains_color.svg"
   inkscape:version="1.3 (0e150ed6c4, 2023-07-21)"
   id="svg5"
   version="1.1"
   viewBox="0 0 32.333821 30.506661"
   height="30.50666mm"
   width="32.33382mm"
   xmlns:inkscape="http://www.inkscape.org/namespaces/inkscape"
   xmlns:sodipodi="http://sodipodi.sourceforge.net/DTD/sodipodi-0.dtd"
   xmlns="http://www.w3.org/2000/svg"
   xmlns:svg="http://www.w3.org/2000/svg"><sodipodi:namedview
     id="namedview7"
     pagecolor="#ffffff"
     bordercolor="#666666"
     borderopacity="1.0"
     inkscape:pageshadow="2"
     inkscape:pageopacity="0"
     inkscape:pagecheckerboard="false"
     inkscape:document-units="mm"
     showgrid="false"
     inkscape:zoom="3.1408067"
     inkscape:cx="44.096952"
     inkscape:cy="94.4025"
     inkscape:window-width="1916"
     inkscape:window-height="1037"
     inkscape:window-x="0"
     inkscape:window-y="0"
     inkscape:window-maximized="1"
     inkscape:current-layer="layer1"
     inkscape:showpageshadow="2"
     inkscape:deskcolor="#ffffff" /><defs
     id="defs2"><inkscape:path-effect
       effect="simplify"
       id="path-effect165099"
       is_visible="true"
       lpeversion="1"
       steps="1"
       threshold="0.0168421"
       smooth_angles="360"
       helper_size="0"
       simplify_individual_paths="false"
       simplify_just_coalesce="false" /><inkscape:path-effect
       effect="simplify"
       id="path-effect165095"
       is_visible="true"
       lpeversion="1"
       steps="1"
       threshold="0.0168421"
       smooth_angles="360"
       helper_size="0"
       simplify_individual_paths="false"
       simplify_just_coalesce="false" /><inkscape:path-effect
       effect="simplify"
       id="path-effect165091"
       is_visible="true"
       lpeversion="1"
       steps="1"
       threshold="0.0168421"
       smooth_angles="360"
       helper_size="0"
       simplify_individual_paths="false"
       simplify_just_coalesce="false" /><inkscape:path-effect
       effect="simplify"
       id="path-effect165087"
       is_visible="true"
       lpeversion="1"
       steps="1"
       threshold="0.0168421"
       smooth_angles="360"
       helper_size="0"
       simplify_individual_paths="false"
       simplify_just_coalesce="false" /><inkscape:path-effect
       effect="simplify"
       id="path-effect165083"
       is_visible="true"
       lpeversion="1"
       steps="1"
       threshold="0.0168421"
       smooth_angles="360"
       helper_size="0"
       simplify_individual_paths="false"
       simplify_just_coalesce="false" /><inkscape:path-effect
       effect="simplify"
       id="path-effect165017"
       is_visible="true"
       lpeversion="1"
       steps="1"
       threshold="0.0168421"
       smooth_angles="360"
       helper_size="0"
       simplify_individual_paths="false"
       simplify_just_coalesce="false" /><inkscape:path-effect
       effect="simplify"
       id="path-effect164888"
       is_visible="true"
       lpeversion="1"
       steps="1"
       threshold="0.0168421"
       smooth_angles="360"
       helper_size="0"
       simplify_individual_paths="false"
       simplify_just_coalesce="false" /><inkscape:path-effect
       effect="simplify"
       id="path-effect164884"
       is_visible="true"
       lpeversion="1"
       steps="1"
       threshold="0.0168421"
       smooth_angles="360"
       helper_size="0"
       simplify_individual_paths="false"
       simplify_just_coalesce="false" /><inkscape:path-effect
       effect="simplify"
       id="path-effect164281"
       is_visible="true"
       lpeversion="1"
       steps="1"
       threshold="0.0168421"
       smooth_angles="360"
       helper_size="0"
       simplify_individual_paths="false"
       simplify_just_coalesce="false" /><inkscape:path-effect
       effect="simplify"
       id="path-effect164277"
       is_visible="true"
       lpeversion="1"
       steps="1"
       threshold="0.0168421"
       smooth_angles="360"
       helper_size="0"
       simplify_individual_paths="false"
       simplify_just_coalesce="false" /><inkscape:path-effect
       effect="simplify"
       id="path-effect164273"
       is_visible="true"
       lpeversion="1"
       steps="1"
       threshold="0.0168421"
       smooth_angles="360"
       helper_size="0"
       simplify_individual_paths="false"
       simplify_just_coalesce="false" /><inkscape:path-effect
       effect="simplify"
       id="path-effect163974"
       is_visible="true"
       lpeversion="1"
       steps="1"
       threshold="0.0168421"
       smooth_angles="360"
       helper_size="0"
       simplify_individual_paths="false"
       simplify_just_coalesce="false" /><inkscape:path-effect
       effect="simplify"
       id="path-effect163970"
       is_visible="true"
       lpeversion="1"
       steps="1"
       threshold="0.0168421"
       smooth_angles="360"
       helper_size="0"
       simplify_individual_paths="false"
       simplify_just_coalesce="false" /><inkscape:path-effect
       effect="simplify"
       id="path-effect163966"
       is_visible="true"
       lpeversion="1"
       steps="1"
       threshold="0.0168421"
       smooth_angles="360"
       helper_size="0"
       simplify_individual_paths="false"
       simplify_just_coalesce="false" /><inkscape:path-effect
       effect="simplify"
       id="path-effect163962"
       is_visible="true"
       lpeversion="1"
       steps="1"
       threshold="0.0168421"
       smooth_angles="360"
       helper_size="0"
       simplify_individual_paths="false"
       simplify_just_coalesce="false" /><inkscape:path-effect
       effect="simplify"
       id="path-effect163958"
       is_visible="true"
       lpeversion="1"
       steps="1"
       threshold="0.0168421"
       smooth_angles="360"
       helper_size="0"
       simplify_individual_paths="false"
       simplify_just_coalesce="false" /><inkscape:path-effect
       effect="simplify"
       id="path-effect163954"
       is_visible="true"
       lpeversion="1"
       steps="1"
       threshold="0.0168421"
       smooth_angles="360"
       helper_size="0"
       simplify_individual_paths="false"
       simplify_just_coalesce="false" /><inkscape:path-effect
       effect="simplify"
       id="path-effect163743"
       is_visible="true"
       lpeversion="1"
       steps="1"
       threshold="0.0168421"
       smooth_angles="360"
       helper_size="0"
       simplify_individual_paths="false"
       simplify_just_coalesce="false" /><inkscape:path-effect
       effect="simplify"
       id="path-effect163150"
       is_visible="true"
       lpeversion="1"
       steps="1"
       threshold="0.0168421"
       smooth_angles="360"
       helper_size="0"
       simplify_individual_paths="false"
       simplify_just_coalesce="false" /><inkscape:path-effect
       effect="simplify"
       id="path-effect163146"
       is_visible="true"
       lpeversion="1"
       steps="1"
       threshold="0.0168421"
       smooth_angles="360"
       helper_size="0"
       simplify_individual_paths="false"
       simplify_just_coalesce="false" /><inkscape:path-effect
       effect="simplify"
       id="path-effect163142"
       is_visible="true"
       lpeversion="1"
       steps="1"
       threshold="0.0168421"
       smooth_angles="360"
       helper_size="0"
       simplify_individual_paths="false"
       simplify_just_coalesce="false" /><inkscape:path-effect
       effect="simplify"
       id="path-effect163138"
       is_visible="true"
       lpeversion="1"
       steps="1"
       threshold="0.0168421"
       smooth_angles="360"
       helper_size="0"
       simplify_individual_paths="false"
       simplify_just_coalesce="false" /><inkscape:path-effect
       effect="simplify"
       id="path-effect163134"
       is_visible="true"
       lpeversion="1"
       steps="1"
       threshold="0.0168421"
       smooth_angles="360"
       helper_size="0"
       simplify_individual_paths="false"
       simplify_just_coalesce="false" /><inkscape:path-effect
       effect="simplify"
       id="path-effect162653"
       is_visible="true"
       lpeversion="1"
       steps="1"
       threshold="0.0168421"
       smooth_angles="360"
       helper_size="0"
       simplify_individual_paths="false"
       simplify_just_coalesce="false" /><inkscape:path-effect
       effect="simplify"
       id="path-effect162604"
       is_visible="true"
       lpeversion="1"
       steps="1"
       threshold="0.0168421"
       smooth_angles="360"
       helper_size="0"
       simplify_individual_paths="false"
       simplify_just_coalesce="false" /><inkscape:path-effect
       effect="simplify"
       id="path-effect162559"
       is_visible="true"
       lpeversion="1"
       steps="1"
       threshold="0.0168421"
       smooth_angles="360"
       helper_size="0"
       simplify_individual_paths="false"
       simplify_just_coalesce="false" /><inkscape:path-effect
       effect="simplify"
       id="path-effect162555"
       is_visible="true"
       lpeversion="1"
       steps="1"
       threshold="0.0168421"
       smooth_angles="360"
       helper_size="0"
       simplify_individual_paths="false"
       simplify_just_coalesce="false" /><inkscape:path-effect
       effect="simplify"
       id="path-effect162551"
       is_visible="true"
       lpeversion="1"
       steps="1"
       threshold="0.0168421"
       smooth_angles="360"
       helper_size="0"
       simplify_individual_paths="false"
       simplify_just_coalesce="false" /><inkscape:path-effect
       effect="simplify"
       id="path-effect162547"
       is_visible="true"
       lpeversion="1"
       steps="1"
       threshold="0.0168421"
       smooth_angles="360"
       helper_size="0"
       simplify_individual_paths="false"
       simplify_just_coalesce="false" /><inkscape:path-effect
       effect="simplify"
       id="path-effect162375"
       is_visible="true"
       lpeversion="1"
       steps="1"
       threshold="0.0168421"
       smooth_angles="360"
       helper_size="0"
       simplify_individual_paths="false"
       simplify_just_coalesce="false" /><inkscape:path-effect
       effect="simplify"
       id="path-effect162371"
       is_visible="true"
       lpeversion="1"
       steps="1"
       threshold="0.0168421"
       smooth_angles="360"
       helper_size="0"
       simplify_individual_paths="false"
       simplify_just_coalesce="false" /><inkscape:path-effect
       effect="simplify"
       id="path-effect162367"
       is_visible="true"
       lpeversion="1"
       steps="1"
       threshold="0.0168421"
       smooth_angles="360"
       helper_size="0"
       simplify_individual_paths="false"
       simplify_just_coalesce="false" /><clipPath
       clipPathUnits="userSpaceOnUse"
       id="clipPath4244"><path
         d="m -89.348846,133.47717 17.321,10 17.32,-10 v -20 l -17.32,-10 -17.321,10 v 20"
         class="s1"
         id="path4246"
         style="fill:none;fill-opacity:1;stroke:#000000;stroke-width:0.0999998;stroke-linecap:round;stroke-linejoin:round;stroke-dasharray:none" /></clipPath></defs><g
     inkscape:label="Layer 1"
     inkscape:groupmode="layer"
     id="layer1"
     transform="translate(87.927965,-108.85696)"><g
       id="g33"
       inkscape:label="colors"><path
         id="path3"
         style="fill:#dbdeef;fill-opacity:1;stroke:none;stroke-width:0.2;stroke-linecap:round;stroke-linejoin:round;stroke-dasharray:none"
         d="m -76.912975,108.85696 c -1.758896,0.40645 -1.427629,2.84928 -3.40031,2.80396 -2.423188,-0.0557 -5.028521,2.55948 -4.483964,4.66845 0.302927,1.32541 3.957014,-0.12477 5.187281,0.99529 1.246438,0.59311 2.561092,0.9713 3.898986,1.2423 0.304535,0.0197 0.601126,-0.003 0.891936,-0.0558 -0.319775,0.31193 -0.635791,0.66539 -0.930693,1.0697 -0.776216,1.07034 -1.28562,2.6881 -2.8236,2.82773 -1.454513,0.20433 -2.806752,-0.56726 -3.913456,-1.42161 -1.787336,-0.0845 -2.750802,1.89631 -3.743441,3.10782 -0.696377,1.24417 -2.155928,2.60502 -1.556494,4.13928 1.385099,0.77997 3.253955,0.15224 4.847766,0.32194 2.048192,-0.26 4.129181,-1.19348 6.19497,-0.46974 1.422569,0.86237 3.011187,0.57153 4.455026,-0.0496 1.754235,-0.34435 2.244093,-1.45806 3.648873,-2.2872 1.507516,-0.88977 2.565212,0.97869 4.23385,1.50275 0.22918,0.0891 0.462697,0.13949 0.698665,0.16898 -1.954963,0.26861 -2.786446,1.44671 -4.125846,2.88716 -0.944459,1.01573 -2.55233,2.0531 -3.481958,0.7059 -0.91267,-1.32263 -2.851631,-3.00514 -4.112411,-1.79575 -1.18404,1.27104 -2.735006,1.98413 -4.016809,3.00705 -0.725023,1.05963 -3.231651,4.25543 -1.664498,4.46277 1.267974,0.16776 4.665151,1.88619 5.576921,0.45786 1.614568,-1.21735 3.861425,0.12292 4.607471,1.73529 1.198292,1.36916 2.893706,-0.56465 4.151167,-1.03404 1.316698,-0.98407 2.746943,-1.34028 4.171839,-1.65107 1.556662,-0.33953 0.933945,-2.32891 2.862357,-1.91461 2.113017,0.55376 2.953012,-1.28419 2.78536,-2.48925 -0.249472,-1.79318 -1.080544,-2.76927 -2.762622,-3.06286 -0.941297,-0.1643 -2.20893,-1.04793 -3.243213,-1.27951 1.031026,-0.0204 2.079925,-0.21108 3.025655,0.46457 1.172723,0.42322 2.841105,1.49648 3.888135,0.29662 1.096327,-1.4417 0.0023,-3.25889 -1.202511,-4.21886 -1.291345,-0.95325 -2.566664,-2.43147 -4.326351,-2.24741 -1.847881,0.46309 -2.759359,-1.52091 -4.303096,-2.04845 -1.880784,-0.83278 -3.085588,-0.72209 -4.362525,-2.49288 -0.05665,-0.0786 -0.245517,-0.17357 -0.461987,-0.26561 0.580574,-0.1328 1.180057,-0.15144 1.816944,0.0481 1.689027,0.58 3.443377,1.62858 5.282364,1.00459 1.72209,-0.97967 0.08833,-3.35893 -1.003556,-4.24367 -1.624984,-0.3215 -2.881927,-2.54737 -4.595585,-1.81126 -1.662381,1.56427 -3.659921,-0.42955 -4.95732,-1.47846 -1.263731,-0.052 -1.763158,-1.16003 -2.75332,-1.60042 z" /><path
         id="path33"
         style="fill:#cacfe8;fill-opacity:1;stroke:none;stroke-width:0.2;stroke-linecap:round;stroke-linejoin:round;stroke-dasharray:none"
         d="m -77.560481,110.26824 c -0.40872,1.28081 -1.549914,2.06416 -2.536279,2.57865 1.272153,1.51976 2.740079,0.0332 2.878377,-1.45675 0.08186,-0.39043 0.06097,-0.90902 -0.342098,-1.1219 z m 2.130619,0.38706 c -0.61758,0.80854 -2.841242,2.05768 -1.206645,2.93935 1.76917,-0.43003 3.21066,0.9425 4.904611,0.84078 0.742947,-1.27946 -1.112337,-2.32841 -2.264978,-2.52698 -0.515499,-0.35918 -0.792122,-1.09285 -1.432988,-1.25315 z m -5.896281,1.9513 c -1.400828,0.74472 -0.715841,3.18211 0.956531,3.14193 0.601947,0.31054 2.555526,1.08866 1.765784,-0.29973 -1.548071,-0.52506 -1.069997,-2.49483 -2.722315,-2.8422 z m 13.562997,0.53795 c -1.177595,0.88263 0.09772,2.68871 0.503328,3.72277 1.077996,0.42554 2.320138,0.04 3.429248,0.41445 0.993628,-0.44759 -1.698749,-1.21482 -1.543058,-2.22209 -1.16888,-0.21738 -1.466298,-1.41886 -2.389518,-1.91513 z m -2.233973,0.60306 c -0.662954,0.74494 -0.918866,3.28008 0.784449,2.4598 1.462047,-0.57791 -0.548955,-1.43701 -0.63407,-2.34197 z m -1.39423,0.89194 c -1.441119,0.0677 -2.356782,1.74332 -3.877282,1.36529 -1.113635,-0.6108 -3.506246,0.46189 -1.666565,1.49552 1.855443,0.66123 3.664849,-0.39641 5.351611,-1.05265 0.590134,-0.30655 0.921631,-1.51107 0.192236,-1.80816 z m -0.187585,3.08095 c -1.381432,0.11964 -1.566172,1.81283 -1.562695,2.90783 -0.03452,1.47783 1.448556,2.21834 2.746602,2.19677 1.774057,0.0221 3.274065,1.11075 4.552177,2.23397 1.179454,0.37039 2.430655,0.53682 3.45767,1.28209 0.760009,0.43503 3.35363,1.39013 2.241207,-0.28008 -0.864696,-0.75604 -0.838301,-2.2524 -1.997294,-2.62672 -1.203821,-0.25352 -2.684965,-0.10621 -3.497461,-1.23713 -0.599524,-1.08299 -1.438564,-2.08672 -2.530078,-2.70526 -1.556102,0.37216 -2.102824,-1.62249 -3.410128,-1.77147 z m -3.009119,1.74253 c -0.0093,-2.5e-4 -0.01864,5e-5 -0.02791,10e-4 -0.582667,0.0635 -0.734372,0.91396 -1.119828,1.35547 -0.416344,0.47692 -0.815836,0.97433 -1.287777,1.3963 -0.386502,0.34558 -1.20708,0.40399 -1.25367,0.92036 -0.0482,0.53419 0.571381,1.12428 1.105875,1.16892 0.633311,0.0529 1.100795,-0.67225 1.521871,-1.14825 0.427822,-0.48362 0.730176,-1.07718 0.96945,-1.6769 0.22103,-0.554 0.613293,-1.1774 0.416512,-1.74046 -0.04612,-0.13198 -0.185161,-0.27268 -0.324528,-0.27647 z m -8.007263,2.2319 c -1.773914,0.30482 -0.409749,2.36349 0.870231,2.19832 1.203816,0.46478 2.358945,1.04589 3.353801,1.86965 1.34506,0.37945 -0.33278,-2.28864 -1.208712,-2.29443 -1.139355,-0.38102 -1.883603,-1.46058 -3.01532,-1.77354 z m -1.545125,0.92966 c -0.65082,1.42651 0.0015,2.81422 1.059367,3.80545 0.530218,0.56295 2.908061,1.10712 1.473295,-0.002 -0.762891,-1.30866 -1.562992,-2.72181 -2.532662,-3.80339 z m 24.057446,0.0331 c -1.026676,1.35948 1.063711,2.27367 1.508952,3.29902 -0.04779,0.97734 2.298238,2.77601 2.070674,1.03766 0.09385,-1.43733 -1.053985,-2.264 -2.170926,-2.92178 -0.615324,-0.33991 -0.671179,-1.28842 -1.4087,-1.4149 z m -24.599015,0.55552 c -0.558483,-0.0112 -0.740511,1.12094 -1.142049,1.61282 -0.381045,0.46677 -1.04841,0.7903 -1.165821,1.38131 -0.09044,0.45525 -0.01597,1.17641 0.42323,1.32653 0.469978,0.16064 0.930001,-0.44667 1.226799,-0.84491 0.409584,-0.54958 0.491986,-1.28594 0.63407,-1.95647 0.10414,-0.49147 0.469081,-1.10525 0.156579,-1.49861 -0.0034,-0.004 -0.01221,0.002 -0.01602,-0.002 v -5.2e-4 c -0.04075,-0.0114 -0.07956,-0.0173 -0.116788,-0.0181 z m 21.614184,4.46691 c -0.705966,1.2446 -2.372598,0.52853 -2.66702,2.14922 -0.872069,1.52047 -2.547167,2.05674 -3.782715,3.1657 -0.747357,-0.4439 -1.990429,-1.70593 -2.987932,-2.41794 -0.754726,-0.47258 -1.830105,-1.62405 -2.310453,-0.22893 -1.750616,1.44747 0.59707,3.35023 2.163176,3.39773 1.325437,0.36186 1.643759,2.24107 3.185335,2.18798 1.45302,0.21623 0.07859,-2.02047 1.454175,-1.29243 1.165294,-0.55047 2.73471,-1.17802 2.898531,-2.67632 0.946,1.15286 2.397292,0.63684 3.639571,0.73484 1.129028,0.6004 3.219532,2.38927 4.098458,0.54932 0.241166,-1.40631 -0.674402,-2.72686 -1.882573,-3.36931 -1.188682,-0.85995 -2.388555,-1.76413 -3.808553,-2.19986 z m -13.993461,4.00699 c -1.18164,0.54313 -1.39984,2.12423 -2.343526,3.00447 -0.720392,1.85363 2.152697,1.05704 2.570386,-0.0357 0.544588,-0.83259 0.911522,-2.42889 -0.155546,-2.96829 z" /><path
         id="path20"
         style="fill:#b8bee0;fill-opacity:1;stroke:none;stroke-width:0.2;stroke-linecap:round;stroke-linejoin:round;stroke-dasharray:none"
         d="m -74.419071,111.54 c -0.0075,3e-4 -0.01477,0.002 -0.02067,0.006 -0.264354,0.17441 -0.341379,0.54642 -0.415996,0.85421 -0.074,0.30526 -0.186195,0.6748 -0.02119,0.94206 0.260606,0.4221 1.04125,0.24457 1.345138,0.63666 0.119598,0.15431 -0.04644,0.45914 0.110587,0.57515 0.342408,0.25297 1.15669,0.27248 1.26969,-0.13797 0.04013,-0.14575 -0.297303,-0.13634 -0.362252,-0.27285 -0.137823,-0.28967 0.201392,-0.68705 0.03566,-0.9617 -0.211489,-0.35047 -0.791874,-0.27039 -1.106909,-0.53175 -0.352024,-0.29204 -0.39935,-0.90931 -0.812354,-1.10588 -0.0064,-0.003 -0.01418,-0.004 -0.0217,-0.004 z m 5.531962,2.3735 c -0.27229,-2.6e-4 -0.560751,0.38222 -0.809769,0.56275 -0.329435,0.23882 -0.709897,0.47068 -0.889869,0.83561 -0.169519,0.34374 -0.09515,0.76133 -0.114205,1.14412 v 5.1e-4 c 0.13021,0.13118 0.377809,0.0585 0.554489,0.004 0.398222,-0.12237 0.648786,-0.53897 1.028877,-0.70952 0.265983,-0.11934 0.63099,-0.0148 0.849561,-0.20774 0.289569,-0.25558 0.543069,-0.71899 0.412895,-1.08262 -0.114727,-0.32048 -0.715877,-0.21204 -0.886768,-0.50643 v -5.2e-4 c -0.03902,-0.0231 -0.07886,-0.0355 -0.118856,-0.0393 -0.0087,-8.3e-4 -0.01757,-0.001 -0.02635,-0.001 z m 2.163692,0.24908 c -0.01127,10e-4 -0.02307,0.005 -0.03256,0.009 -0.235589,0.10209 -0.509922,0.28983 -0.545186,0.54415 -0.04356,0.31412 0.288882,0.56627 0.465088,0.82992 0.263474,0.39424 0.501137,0.83286 0.880566,1.11725 0.428135,0.3209 1.024392,0.86566 1.488798,0.59996 0.255938,-0.14644 0.210981,-0.59114 0.130742,-0.87488 -0.115535,-0.40856 -0.516948,-0.67736 -0.820105,-0.97462 -0.470685,-0.46154 -1.253859,-0.64845 -1.537891,-1.24333 v -5.2e-4 c -0.0074,-0.007 -0.01818,-0.009 -0.02946,-0.007 z m -13.522688,0.19378 c -0.0027,2e-5 -0.0057,7.5e-4 -0.0078,0.002 -0.269313,0.17873 -0.354293,0.57105 -0.376721,0.89349 -0.02087,0.29998 0.01037,0.66857 0.232027,0.87178 0.503627,0.4617 1.551477,0.85169 2.018998,0.35346 0.09543,-0.1017 -0.0053,-0.30267 -0.09819,-0.40669 -0.18149,-0.20322 -0.525914,-0.1549 -0.767912,-0.28009 -0.250388,-0.12954 -0.528447,-0.25406 -0.695564,-0.4811 -0.196877,-0.26747 -0.03002,-0.75419 -0.297657,-0.95085 -0.002,-0.001 -0.0045,-0.002 -0.0072,-0.002 z m 7.692037,0.99529 c -0.0023,0 -0.0048,3e-5 -0.0067,10e-4 -0.25095,0.11285 -0.3278,0.45224 -0.547771,0.61754 -0.369889,0.27796 -0.826527,0.41799 -1.25367,0.59583 -0.498385,0.2075 -1.470492,0.0111 -1.523938,0.54828 -0.04025,0.40458 0.641273,0.57416 1.043864,0.63097 0.586491,0.0828 1.217731,-0.14173 1.715658,-0.4625 0.481416,-0.31013 1.09731,-0.75285 1.092956,-1.3255 -0.002,-0.26455 -0.274038,-0.49361 -0.51418,-0.60462 -0.002,-10e-4 -0.0039,-10e-4 -0.0062,-10e-4 z m 0.02015,3.21428 c -0.02309,8.9e-4 -0.04684,0.006 -0.0708,0.0155 -0.716556,0.29119 -0.444658,1.62539 -0.100769,2.3182 0.249601,0.50286 0.922846,1.27869 1.384411,0.95912 0.76577,-0.53019 -0.209579,-1.9067 -0.681095,-2.70991 -0.122208,-0.20818 -0.296203,-0.56578 -0.509013,-0.5824 -0.0076,-5e-4 -0.01504,-8.1e-4 -0.02274,-5.1e-4 z m 3.61425,0.46922 c -0.07552,0.002 -0.15188,0.0252 -0.228927,0.0755 -0.714515,0.46468 0.321359,1.71584 0.777214,2.43602 0.496559,0.78449 1.262219,1.38765 2.036051,1.90066 0.181751,0.12049 0.450414,0.42775 0.59738,0.26665 0.808516,-0.88626 -1.009227,-2.20396 -1.76165,-3.13831 -0.403511,-0.50108 -0.89146,-1.55366 -1.420068,-1.54047 z m -7.338053,2.1146 c -0.07671,-0.004 -0.158999,0.014 -0.223759,0.0553 -0.302084,0.19283 -0.541938,0.50477 -0.673344,0.83819 -0.08962,0.22739 -0.08985,0.48942 -0.05426,0.73122 0.04376,0.29735 0.116094,0.6238 0.322977,0.84181 0.224267,0.23633 0.625369,0.21157 0.892969,0.39739 0.222308,0.15439 0.312658,0.49132 0.568441,0.57981 0.139038,0.0481 0.335511,0.049 0.437699,-0.0568 0.186148,-0.19281 0.09073,-0.5329 0.07545,-0.80047 -0.0319,-0.55858 -0.116106,-1.13254 -0.346749,-1.64227 -0.136424,-0.30151 -0.328947,-0.59753 -0.594279,-0.7953 -0.115351,-0.086 -0.261489,-0.14094 -0.405143,-0.14883 z m -5.249292,1.49035 c -0.0066,1e-5 -0.01311,5.4e-4 -0.01964,0.002 -0.02984,0.005 -0.0588,0.0198 -0.08682,0.0481 -0.630443,0.63586 1.039706,2.59259 1.74563,2.04174 0.460165,-0.35908 -0.618719,-0.99821 -1.014408,-1.4273 -0.182947,-0.19839 -0.420233,-0.66437 -0.624768,-0.66404 z m -2.008663,0.28783 c -0.02502,0.002 -0.04727,0.0106 -0.05529,0.0305 -0.157988,0.39233 0.43772,1.24404 0.782381,0.99891 0.328552,-0.23368 -0.288108,-0.84927 -0.65474,-1.01699 -0.01954,-0.009 -0.04733,-0.0142 -0.07235,-0.0124 z m -0.800468,0.74983 c -0.0087,8e-4 -0.01661,0.004 -0.02274,0.0108 -0.523343,0.58998 -0.208548,2.452 0.564824,2.29753 0.7394,-0.14767 0.113122,-1.6368 -0.345199,-2.23552 -0.02428,-0.0317 -0.07105,-0.0379 -0.109554,-0.0486 -0.02672,-0.007 -0.06128,-0.0267 -0.08733,-0.0243 z m 21.34495,0.0667 c -0.007,-6.7e-4 -0.0139,-6.8e-4 -0.02015,5.2e-4 -0.0083,0.002 -0.01571,0.005 -0.0217,0.0114 -0.334118,0.34586 -0.102243,1.02199 0.143144,1.43557 0.518992,0.87471 1.776422,2.41505 2.519743,1.72082 0.474153,-0.44283 -0.580029,-1.17195 -0.98547,-1.67845 -0.44881,-0.56068 -0.914892,-1.18611 -1.574064,-1.47123 -0.01783,-0.008 -0.04058,-0.0166 -0.0615,-0.0186 z m 4.417302,0.56017 c -0.0023,2.6e-4 -0.0044,10e-4 -0.0062,0.003 v 5.1e-4 c 0.129644,0.87492 0.02007,2.06961 0.769463,2.53938 0.238481,0.1495 0.720086,0.12559 0.834057,-0.13177 0.387994,-0.87613 -0.769457,-1.88686 -1.576131,-2.40399 -0.0039,-0.002 -0.009,-0.005 -0.01395,-0.006 -0.0025,-5e-4 -0.0049,-7.7e-4 -0.0072,-5.2e-4 z m -4.681885,3.63751 c -0.490536,0.55647 -0.116562,1.44709 0.331246,1.91926 0.703598,0.74716 1.740418,1.13684 2.324922,1.99574 0.23613,0.80992 0.92349,1.59066 1.850534,1.28726 0.92399,-0.10331 0.744836,-0.97597 0.683162,-1.61592 0.269504,-0.83895 -0.57712,-0.81079 -1.149284,-0.7369 -1.013526,-0.009 -0.558374,-1.39919 -1.425236,-1.66915 -0.779717,-0.43225 -1.617506,-0.71993 -2.41794,-1.11001 l -0.09819,-0.0367 z m -2.486153,1.73271 c -0.75357,0.41045 -0.329929,1.65809 0.388606,1.88981 0.734807,0.37995 1.125645,1.31966 2.04432,1.29862 0.471403,-0.0459 1.250465,0.24227 1.545642,-0.11782 -0.749927,-0.17773 -1.24963,-0.72697 -1.907894,-1.10071 -0.714969,-0.40834 -0.577153,-1.47516 -1.402498,-1.78232 -0.206618,-0.10763 -0.435661,-0.17229 -0.668176,-0.18758 z m -7.70444,1.13688 c -0.752268,0.59839 -0.146856,1.63885 0.641305,1.82056 0.883382,0.41821 0.927902,1.6023 1.83503,1.94665 0.584022,0.42208 1.529066,-0.0804 0.891935,-0.74052 -0.09916,-0.93517 -0.852476,-1.40037 -1.677417,-1.62626 -0.678262,-0.1656 -0.568029,-1.05924 -1.229382,-1.25315 -0.146396,-0.069 -0.302376,-0.11777 -0.461471,-0.14728 z m -2.33164,1.14412 c -0.813862,0.0434 -1.245157,1.32784 -0.223759,1.47536 0.589129,0.12427 1.072054,1.51387 1.615405,0.9064 -0.07514,-0.57565 0.138931,-1.30718 -0.445451,-1.65209 -0.367244,-0.16008 -0.358313,-0.73554 -0.781347,-0.72141 -0.02862,-0.004 -0.05686,-0.007 -0.08475,-0.008 -0.02701,-0.001 -0.05385,-0.001 -0.0801,0 z m 10.31875,0.94309 c -0.831241,0.0362 -1.125847,1.22016 -2.036052,1.19889 -0.532672,0.13227 -1.523517,0.41874 -1.592151,0.85525 0.703919,0.0815 1.419161,-0.0358 2.119768,0.0806 0.82026,-0.0976 1.144159,-0.9851 1.966805,-1.06918 0.546406,-0.23586 0.333461,-1.14678 -0.284737,-1.05678 -0.06053,-0.008 -0.118217,-0.011 -0.173633,-0.009 z" /></g><g
       id="g34"
       inkscape:label="lines"><path
         style="fill:none;stroke:#000000;stroke-width:0.1;stroke-linecap:round;stroke-linejoin:round;stroke-dasharray:none"
         d="m -67.051062,116.83378 0.343664,-0.67749 0.402345,0.10855 0.679559,-0.82871 c 0.113395,0.32663 0.286594,0.57303 0.509615,0.76298 0.464266,0.39544 0.968804,0.60573 1.378021,0.66703"
         id="path56378-7"
         sodipodi:nodetypes="ccccsc" /><path
         style="fill:none;stroke:#000000;stroke-width:0.1;stroke-linecap:round;stroke-linejoin:round;stroke-dasharray:none"
         d="m -66.227186,115.21583 c -0.221069,-0.009 -0.04005,-0.20997 -0.179841,-0.53352 l -0.23723,0.0944 -1.050313,-1.25636 c -0.220027,0.51805 -0.546255,0.81465 -0.972915,1.15113 l -0.429956,-0.2305 -0.988241,1.52995"
         id="path56376-0"
         sodipodi:nodetypes="ccccccc" /><path
         style="fill:none;stroke:#000000;stroke-width:0.1;stroke-linecap:round;stroke-linejoin:round;stroke-dasharray:none"
         d="m -70.042448,114.49031 -0.220557,-0.13784 -0.206681,-0.77855 -1.143915,1.7493 -0.468,-0.20721 c -0.496344,1.28331 -1.220498,1.53532 -1.994954,1.98161"
         id="path56374-9"
         sodipodi:nodetypes="cccccc" /><path
         style="fill:none;stroke:#000000;stroke-width:0.1;stroke-linecap:round;stroke-linejoin:round;stroke-dasharray:none"
         d="m -80.457758,114.58219 c -0.329784,-0.61238 -0.960562,-0.30245 -1.401199,-0.92027 l -0.178673,1.11618 -0.510944,-0.17106 -0.768748,1.07902"
         id="path56372-6"
         sodipodi:nodetypes="ccccc" /><path
         style="fill:none;stroke:#000000;stroke-width:0.1;stroke-linecap:round;stroke-linejoin:round;stroke-dasharray:none"
         d="m -80.470689,113.40433 0.476711,-0.59496 c 2.110568,-0.22557 2.414974,-1.0753 2.924959,-2.57874 l 0.855676,0.75212"
         id="path56370-0"
         sodipodi:nodetypes="cccc" /><path
         style="fill:none;stroke:#000000;stroke-width:0.1;stroke-linecap:round;stroke-linejoin:round;stroke-dasharray:none"
         d="m -76.721539,112.29874 c 0.626024,-0.3698 1.271204,-0.72552 1.531085,-1.36456 l 0.623112,1.1423 0.140601,-0.13472 1.070003,1.29693 0.152344,-0.43109 c 0.448226,0.73783 0.749658,0.94535 1.225353,1.17652"
         id="path56353-6"
         sodipodi:nodetypes="ccccccc" /><path
         style="fill:none;stroke:#000000;stroke-width:0.1;stroke-linecap:round;stroke-linejoin:round;stroke-dasharray:none"
         d="m -82.380794,125.02973 -0.688592,-0.84002 -0.55572,0.66311 -0.854102,-1.15027 c -0.324326,0.86817 -0.978758,2.59657 -1.617429,1.76632 l -1.283344,2.06983"
         id="path56392-7"
         sodipodi:nodetypes="cccccc" /><path
         style="fill:none;stroke:#000000;stroke-width:0.1;stroke-linecap:round;stroke-linejoin:round;stroke-dasharray:none"
         d="m -83.499879,123.22689 0.845851,-1.21837 0.974701,1.28685 0.295391,-0.31694 0.696707,0.91262 0.259802,-0.3279 c 0.317545,0.44295 0.547245,1.24493 0.932275,0.65696 l 0.849901,1.1206"
         id="path56390-5"
         sodipodi:nodetypes="cccccccc" /><path
         style="fill:none;stroke:#000000;stroke-width:0.1;stroke-linecap:round;stroke-linejoin:round;stroke-dasharray:none"
         d="m -78.556894,124.14567 0.473147,-0.72963 0.293751,0.3908 0.777674,-1.34163 c 0.684582,0.86229 2.248917,-2.32839 2.765498,-3.05787 l 1.123823,1.51849 0.234586,-0.38446 1.285223,1.40348"
         id="path56388-5"
         sodipodi:nodetypes="cccccccc" /><path
         style="fill:none;stroke:#000000;stroke-width:0.1;stroke-linecap:round;stroke-linejoin:round;stroke-dasharray:none"
         d="m -72.760154,119.55778 c 0.509476,-0.67491 0.844516,-1.47125 1.275126,-2.12735 0.744648,1.33157 1.694007,2.54738 2.857448,3.64213 m 1.410098,0.28702 2.033462,2.75055 0.528688,-0.83302 c 0.665772,1.2169 1.096579,1.81247 1.792366,1.16041 l 1.940149,2.04232"
         id="path56386-6"
         sodipodi:nodetypes="cccccccc" /><path
         style="fill:none;stroke:#000000;stroke-width:0.1;stroke-linecap:round;stroke-linejoin:round;stroke-dasharray:none"
         d="m -62.138091,124.65591 0.527246,-0.68543 0.293291,0.31559 0.990348,-1.33488 m 0.312047,0.79751 c 0.408978,0.97009 0.991633,1.9962 1.563395,1.2523 l 1.488063,2.40204"
         id="path56650-9"
         sodipodi:nodetypes="ccccccc" /><path
         style="fill:none;stroke:#000000;stroke-width:0.1;stroke-linecap:round;stroke-linejoin:round;stroke-dasharray:none"
         d="m -57.27716,125.32302 0.658601,1.14369"
         id="path12285"
         sodipodi:nodetypes="cc" /><path
         style="fill:none;stroke:#000000;stroke-width:0.1;stroke-linecap:round;stroke-linejoin:round;stroke-dasharray:none"
         d="m -82.960405,125.53097 0.654765,0.91677"
         id="path12951" /><path
         style="fill:none;stroke:#000000;stroke-width:0.1;stroke-linecap:round;stroke-linejoin:round;stroke-dasharray:none"
         d="m -86.129746,127.3047 0.3524,-0.63055"
         id="path12957" /><path
         style="fill:none;stroke:#000000;stroke-width:0.1;stroke-linecap:round;stroke-linejoin:round;stroke-dasharray:none"
         d="m -68.696922,119.78877 c 0,0 0.436479,0.55181 0.744022,0.69568 0.178951,0.0837 0.588194,0.0729 0.588194,0.0729"
         id="path13614"
         sodipodi:nodetypes="cac" /><path
         style="fill:none;stroke:#000000;stroke-width:0.1;stroke-linecap:round;stroke-linejoin:round;stroke-dasharray:none"
         d="m -70.102331,135.75686 0.86862,-1.61915 c 0.53039,0.46542 1.19112,-1.01015 1.5218,-1.43243 l 0.53521,0.34536 1.5507,-2.64545 1.16578,1.16705"
         id="path56398" /><path
         style="fill:none;stroke:#000000;stroke-width:0.1;stroke-linecap:round;stroke-linejoin:round;stroke-dasharray:none"
         d="m -64.763015,130.39816 c 0.68241,-0.44125 1.253056,-1.35542 1.513372,-2.12827 l 1.284027,1.74704 m 0.679131,0.27008 0.589922,0.0378 1.4009,2.51158"
         id="path56396"
         sodipodi:nodetypes="cccccc" /><path
         style="fill:none;stroke:#000000;stroke-width:0.1;stroke-linecap:round;stroke-linejoin:round;stroke-dasharray:none"
         d="m -59.150895,131.6402 0.489799,-0.58896 0.9323,1.4374"
         id="path56394"
         sodipodi:nodetypes="ccc" /><path
         style="fill:none;stroke:#000000;stroke-width:0.1;stroke-linecap:round;stroke-linejoin:round;stroke-dasharray:none"
         d="m -78.871368,135.29346 0.445602,-1.08172 c 1.022337,0.31325 1.313339,-0.92234 1.559455,-2.20613 0.502019,0.53451 0.695641,0.85342 1.216047,0.55444 l 0.73999,0.83019"
         id="path56384" /><path
         style="fill:none;stroke:#000000;stroke-width:0.1;stroke-linecap:round;stroke-linejoin:round;stroke-dasharray:none"
         d="m -75.499535,131.59159 0.316895,0.3785 1.256744,-1.64872 m 0.423933,0.55674 c 0.345213,0.92111 0.959519,1.90496 1.265893,0.93909 l 0.910829,2.0268"
         id="path56382"
         sodipodi:nodetypes="cccccc" /><path
         style="fill:none;stroke:#000000;stroke-width:0.1;stroke-linecap:round;stroke-linejoin:round;stroke-dasharray:none"
         d="m -70.890242,132.88028 c 0.215805,0.57347 0.483779,0.95019 0.875046,1.18749"
         id="path56380"
         sodipodi:nodetypes="cc" /><path
         style="fill:none;stroke:#000000;stroke-width:0.1;stroke-linecap:round;stroke-linejoin:round;stroke-dasharray:none;stroke-opacity:1"
         d="m -61.777188,129.06898 c 0,0 0.224867,0.32116 0.392467,0.40776 0.164101,0.0848 0.547969,0.0824 0.547969,0.0824"
         id="path16469"
         sodipodi:nodetypes="cac" /><path
         style="fill:none;stroke:#000000;stroke-width:0.1;stroke-linecap:round;stroke-linejoin:round;stroke-dasharray:none;stroke-opacity:1"
         d="m -63.615181,130.7321 c 0,0 0.106044,-0.1375 0.150389,-0.2119 0.07325,-0.1229 0.189685,-0.38503 0.189685,-0.38503"
         id="path16744"
         sodipodi:nodetypes="cac" /></g></g></svg>
