<?xml version="1.0" encoding="UTF-8" standalone="no"?>
<!-- Created with Inkscape (http://www.inkscape.org/) -->

<svg
   width="330.78699mm"
   height="295.53mm"
   viewBox="0 0 330.78699 295.53001"
   version="1.1"
   id="svg5"
   inkscape:version="1.3.2 (091e20ef0f, 2023-11-25, custom)"
   sodipodi:docname="merge.svg"
   xml:space="preserve"
   xmlns:inkscape="http://www.inkscape.org/namespaces/inkscape"
   xmlns:sodipodi="http://sodipodi.sourceforge.net/DTD/sodipodi-0.dtd"
   xmlns="http://www.w3.org/2000/svg"
   xmlns:svg="http://www.w3.org/2000/svg"
   xmlns:ns3="svglink"
   xmlns:ns4="svglink:origin"><sodipodi:namedview
     id="namedview7"
     pagecolor="#ffffff"
     bordercolor="#666666"
     borderopacity="1.0"
     inkscape:pageshadow="2"
     inkscape:pageopacity="0"
     inkscape:pagecheckerboard="false"
     inkscape:document-units="mm"
     showgrid="false"
     inkscape:zoom="0.10211555"
     inkscape:cx="817.70112"
     inkscape:cy="915.6294"
     inkscape:window-width="1916"
     inkscape:window-height="1037"
     inkscape:window-x="0"
     inkscape:window-y="0"
     inkscape:window-maximized="1"
     inkscape:current-layer="g19164"
     inkscape:showpageshadow="2"
     inkscape:deskcolor="#ffffff" /><defs
     id="defs2" /><g
     inkscape:label="Layer 1"
     inkscape:groupmode="layer"
     id="g19164"
     transform="translate(209.323,-5.051383)"><g
       inkscape:label="svglink:blueprint.svg"
       ns3:href="blueprint.svg"
       ns4:x="-214.07274"
       ns4:y="0.30138251"
       id="g13710"><title
   transform="translate(-214.073, 0.301383)"
   id="title1">Exported SVG</title>

<style
   transform="translate(-214.073, 0.301383)"
   id="style1"><![CDATA[
polygon {
shape-rendering:crispEdges;
stroke-width:0.340287;
}
.s0 {
stroke:#000000;
stroke-width:0.419172;
stroke-linecap:round;
stroke-linejoin:round;
fill:none;
}
.s1 {
stroke:#000000;
stroke-width:0.419172;
stroke-linecap:round;
stroke-linejoin:round;
fill:none;
}
.s2 {
stroke:#19b219;
stroke-width:0.419172;
stroke-linecap:round;
stroke-linejoin:round;
fill:none;
}
.s3 {
stroke:#7f4c00;
stroke-width:0.419172;
stroke-linecap:round;
stroke-linejoin:round;
fill:none;
}
.s4 {
stroke:#00cc00;
stroke-width:0.419172;
stroke-linecap:round;
stroke-linejoin:round;
fill:none;
}
.s5 {
stroke:#000000;
stroke-width:0.279448;
stroke-linecap:round;
stroke-linejoin:round;
fill:none;
}
.s6 {
stroke:#ff19ff;
stroke-width:0.279448;
stroke-linecap:round;
stroke-linejoin:round;
fill:none;
}
.s7 {
stroke:#ff0000;
stroke-width:0.419172;
stroke-linecap:round;
stroke-linejoin:round;
fill:none;
}
.s8 {
stroke:#ffff00;
stroke-width:0.419172;
stroke-linecap:round;
stroke-linejoin:round;
fill:none;
}
.s9 {
stroke:#001919;
stroke-width:0.279448;
stroke-linecap:round;
stroke-linejoin:round;
fill:none;
}
.sa {
stroke:#006666;
stroke-width:0.279448;
stroke-linecap:round;
stroke-linejoin:round;
fill:none;
}
.sb {
stroke:#00ffff;
stroke-width:0.838345;
stroke-linecap:round;
stroke-linejoin:round;
fill:none;
}
.sc {
stroke:#ff0000;
stroke-width:2.235586;
stroke-linecap:round;
stroke-linejoin:round;
fill:none;
}
.sd {
stroke:#191919;
stroke-width:0.279448;
stroke-linecap:round;
stroke-linejoin:round;
fill:none;
}
.se {
stroke:#000000;
stroke-width:0.279448;
stroke-linecap:round;
stroke-linejoin:round;
stroke-dasharray:4.192,4.192;
fill:none;
}
.sf {
stroke:#000000;
stroke-width:0.838345;
stroke-linecap:round;
stroke-linejoin:round;
fill:none;
}
.s100 {
stroke:#ff0000;
stroke-width:0.500000;
stroke-linecap:round;
stroke-linejoin:round;
fill:none;
}
.s101 {
stroke:#00ff00;
stroke-width:0.500000;
stroke-linecap:round;
stroke-linejoin:round;
fill:none;
}
]]></style>
<path
   d="m 334.507,162.858 a 5.82,5.82 0 0 0 0.78,-2.91 v -14.866 a 5.82,5.82 0 0 0 -0.78,-2.91 L 261.283,15.343 a 5.82,5.82 0 0 0 -2.13,-2.13 L 246.278,5.78 A 5.82,5.82 0 0 0 243.368,5 H 96.919 a 5.82,5.82 0 0 0 -2.91,0.78 l -12.874,7.433 a 5.82,5.82 0 0 0 -2.131,2.13 L 5.78,142.172 A 5.82,5.82 0 0 0 5,145.082 v 14.866 a 5.82,5.82 0 0 0 0.78,2.91 l 73.224,126.828 a 5.82,5.82 0 0 0 2.131,2.131 l 12.874,7.433 a 5.82,5.82 0 0 0 2.91,0.78 h 146.449 a 5.82,5.82 0 0 0 2.91,-0.78 l 12.875,-7.433 a 5.82,5.82 0 0 0 2.13,-2.131 l 73.224,-126.828"
   class="s100"
   transform="translate(-214.073,0.301383)"
   id="path1" />
<path
   d="m 244.678,11.577 1.41,-2.443 10.254,5.92 -1.41,2.443 -10.254,-5.92"
   class="s100"
   transform="translate(-214.073,0.301383)"
   id="path2" />
<path
   d="m 219.925,10.82 h -11.84 V 8 h 11.84 v 2.82"
   class="s100"
   transform="translate(-214.073,0.301383)"
   id="path3" />
<path
   d="m 132.203,10.82 h -11.84 V 8 h 11.84 v 2.82"
   class="s100"
   transform="translate(-214.073,0.301383)"
   id="path4" />
<path
   d="m 176.064,10.82 h -11.84 V 8 h 11.84 v 2.82"
   class="s100"
   transform="translate(-214.073,0.301383)"
   id="path5" />
<path
   d="m 175.277,173.246 10.254,-5.92 0.705,1.221 0.705,1.221 -10.254,5.92 -0.705,-1.221 -0.705,-1.221"
   class="s100"
   transform="translate(-214.073,0.301383)"
   id="path6" />
<path
   d="m 190.664,158.435 v -11.84 h 1.41 1.41 v 11.84 h -1.41 -1.41"
   class="s100"
   transform="translate(-214.073,0.301383)"
   id="path7" />
<path
   d="m 185.531,137.703 -10.254,-5.92 0.705,-1.221 0.705,-1.221 10.254,5.92 -0.705,1.221 -0.705,1.221"
   class="s100"
   transform="translate(-214.073,0.301383)"
   id="path8" />
<path
   d="m 165.01,131.783 -10.254,5.92 -0.705,-1.221 -0.705,-1.221 10.254,-5.92 0.705,1.221 0.705,1.221"
   class="s100"
   transform="translate(-214.073,0.301383)"
   id="path9" />
<path
   d="m 149.623,146.595 v 11.84 h -1.41 -1.41 v -11.84 h 1.41 1.41"
   class="s100"
   transform="translate(-214.073,0.301383)"
   id="path10" />
<path
   d="m 154.756,167.326 10.254,5.92 -0.705,1.221 -0.705,1.221 -10.254,-5.92 0.705,-1.221 0.705,-1.221"
   class="s100"
   transform="translate(-214.073,0.301383)"
   id="path11" />
<path
   d="m 208.871,131.783 -10.254,5.92 -0.705,-1.221 -0.705,-1.221 10.254,-5.92 0.705,1.221 0.705,1.221"
   class="s100"
   transform="translate(-214.073,0.301383)"
   id="path12" />
<path
   d="m 198.617,167.326 10.254,5.92 -0.705,1.221 -0.705,1.221 -10.254,-5.92 0.705,-1.221 0.705,-1.221"
   class="s100"
   transform="translate(-214.073,0.301383)"
   id="path13" />
<path
   d="m 296.593,131.783 -10.254,5.92 -0.705,-1.221 -0.705,-1.221 10.254,-5.92 0.705,1.221 0.705,1.221"
   class="s100"
   transform="translate(-214.073,0.301383)"
   id="path14" />
<path
   d="m 281.206,146.595 v 11.84 h -1.41 -1.41 v -11.84 h 1.41 1.41"
   class="s100"
   transform="translate(-214.073,0.301383)"
   id="path15" />
<path
   d="m 286.339,167.326 10.254,5.92 -0.705,1.221 -0.705,1.221 -10.254,-5.92 0.705,-1.221 0.705,-1.221"
   class="s100"
   transform="translate(-214.073,0.301383)"
   id="path16" />
<path
   d="m 252.732,131.783 -10.254,5.92 -0.705,-1.221 -0.705,-1.221 10.254,-5.92 0.705,1.221 0.705,1.221"
   class="s100"
   transform="translate(-214.073,0.301383)"
   id="path17" />
<path
   d="m 237.345,146.595 v 11.84 h -1.41 -1.41 v -11.84 h 1.41 1.41"
   class="s100"
   transform="translate(-214.073,0.301383)"
   id="path18" />
<path
   d="m 242.478,167.326 10.254,5.92 -0.705,1.221 -0.705,1.221 -10.254,-5.92 0.705,-1.221 0.705,-1.221"
   class="s100"
   transform="translate(-214.073,0.301383)"
   id="path19" />
<path
   d="m 219.138,173.246 10.254,-5.92 0.705,1.221 0.705,1.221 -10.254,5.92 -0.705,-1.221 -0.705,-1.221"
   class="s100"
   transform="translate(-214.073,0.301383)"
   id="path20" />
<path
   d="m 229.392,137.703 -10.254,-5.92 0.705,-1.221 0.705,-1.221 10.254,5.92 -0.705,1.221 -0.705,1.221"
   class="s100"
   transform="translate(-214.073,0.301383)"
   id="path21" />
<path
   d="m 262.999,173.246 10.254,-5.92 0.705,1.221 0.705,1.221 -10.254,5.92 -0.705,-1.221 -0.705,-1.221"
   class="s100"
   transform="translate(-214.073,0.301383)"
   id="path22" />
<path
   d="m 273.253,137.703 -10.254,-5.92 0.705,-1.221 0.705,-1.221 10.254,5.92 -0.705,1.221 -0.705,1.221"
   class="s100"
   transform="translate(-214.073,0.301383)"
   id="path23" />
<path
   d="m 171.554,108.61 v 11.84 h -1.41 -1.41 v -11.84 h 1.41 1.41"
   class="s100"
   transform="translate(-214.073,0.301383)"
   id="path24" />
<path
   d="m 215.415,32.641 v 11.84 h -1.41 -1.41 v -11.84 h 1.41 1.41"
   class="s100"
   transform="translate(-214.073,0.301383)"
   id="path25" />
<path
   d="m 220.548,53.372 10.254,5.92 -0.705,1.221 -0.705,1.221 -10.254,-5.92 0.705,-1.221 0.705,-1.221"
   class="s100"
   transform="translate(-214.073,0.301383)"
   id="path26" />
<path
   d="m 241.068,59.292 10.254,-5.92 0.705,1.221 0.705,1.221 -10.254,5.92 -0.705,-1.221 -0.705,-1.221"
   class="s100"
   transform="translate(-214.073,0.301383)"
   id="path27" />
<path
   d="m 193.484,70.625 v 11.84 h -1.41 -1.41 v -11.84 h 1.41 1.41"
   class="s100"
   transform="translate(-214.073,0.301383)"
   id="path28" />
<path
   d="m 198.617,91.357 10.254,5.92 -0.705,1.221 -0.705,1.221 -10.254,-5.92 0.705,-1.221 0.705,-1.221"
   class="s100"
   transform="translate(-214.073,0.301383)"
   id="path29" />
<path
   d="m 219.138,97.277 10.254,-5.92 0.705,1.221 0.705,1.221 -10.254,5.92 -0.705,-1.221 -0.705,-1.221"
   class="s100"
   transform="translate(-214.073,0.301383)"
   id="path30" />
<path
   d="m 171.554,184.58 v 11.84 h -1.41 -1.41 v -11.84 h 1.41 1.41"
   class="s100"
   transform="translate(-214.073,0.301383)"
   id="path31" />
<path
   d="m 251.322,251.658 -10.254,-5.92 0.705,-1.221 0.705,-1.221 10.254,5.92 -0.705,1.221 -0.705,1.221"
   class="s100"
   transform="translate(-214.073,0.301383)"
   id="path32" />
<path
   d="m 230.802,245.738 -10.254,5.92 -0.705,-1.221 -0.705,-1.221 10.254,-5.92 0.705,1.221 0.705,1.221"
   class="s100"
   transform="translate(-214.073,0.301383)"
   id="path33" />
<path
   d="m 215.415,260.549 v 11.84 h -1.41 -1.41 v -11.84 h 1.41 1.41"
   class="s100"
   transform="translate(-214.073,0.301383)"
   id="path34" />
<path
   d="m 229.392,213.673 -10.254,-5.92 0.705,-1.221 0.705,-1.221 10.254,5.92 -0.705,1.221 -0.705,1.221"
   class="s100"
   transform="translate(-214.073,0.301383)"
   id="path35" />
<path
   d="m 208.871,207.753 -10.254,5.92 -0.705,-1.221 -0.705,-1.221 10.254,-5.92 0.705,1.221 0.705,1.221"
   class="s100"
   transform="translate(-214.073,0.301383)"
   id="path36" />
<path
   d="m 193.484,222.564 v 11.84 h -1.41 -1.41 v -11.84 h 1.41 1.41"
   class="s100"
   transform="translate(-214.073,0.301383)"
   id="path37" />
<path
   d="m 132.826,129.341 10.254,5.92 -0.705,1.221 -0.705,1.221 -10.254,-5.92 0.705,-1.221 0.705,-1.221"
   class="s100"
   transform="translate(-214.073,0.301383)"
   id="path38" />
<path
   d="m 88.965,53.372 10.254,5.92 -0.705,1.221 -0.705,1.221 -10.254,-5.92 0.705,-1.221 0.705,-1.221"
   class="s100"
   transform="translate(-214.073,0.301383)"
   id="path39" />
<path
   d="m 109.485,59.292 10.254,-5.92 0.705,1.221 0.705,1.221 -10.254,5.92 -0.705,-1.221 -0.705,-1.221"
   class="s100"
   transform="translate(-214.073,0.301383)"
   id="path40" />
<path
   d="m 124.873,44.481 v -11.84 h 1.41 1.41 v 11.84 h -1.41 -1.41"
   class="s100"
   transform="translate(-214.073,0.301383)"
   id="path41" />
<path
   d="m 110.895,91.357 10.254,5.92 -0.705,1.221 -0.705,1.221 -10.254,-5.92 0.705,-1.221 0.705,-1.221"
   class="s100"
   transform="translate(-214.073,0.301383)"
   id="path42" />
<path
   d="m 131.416,97.277 10.254,-5.92 0.705,1.221 0.705,1.221 -10.254,5.92 -0.705,-1.221 -0.705,-1.221"
   class="s100"
   transform="translate(-214.073,0.301383)"
   id="path43" />
<path
   d="m 146.803,82.465 v -11.84 h 1.41 1.41 v 11.84 h -1.41 -1.41"
   class="s100"
   transform="translate(-214.073,0.301383)"
   id="path44" />
<path
   d="m 131.416,173.246 10.254,-5.92 0.705,1.221 0.705,1.221 -10.254,5.92 -0.705,-1.221 -0.705,-1.221"
   class="s100"
   transform="translate(-214.073,0.301383)"
   id="path45" />
<path
   d="m 43.694,173.246 10.254,-5.92 0.705,1.221 0.705,1.221 -10.254,5.92 -0.705,-1.221 -0.705,-1.221"
   class="s100"
   transform="translate(-214.073,0.301383)"
   id="path46" />
<path
   d="m 59.081,158.435 v -11.84 h 1.41 1.41 v 11.84 h -1.41 -1.41"
   class="s100"
   transform="translate(-214.073,0.301383)"
   id="path47" />
<path
   d="m 53.948,137.703 -10.254,-5.92 0.705,-1.221 0.705,-1.221 10.254,5.92 -0.705,1.221 -0.705,1.221"
   class="s100"
   transform="translate(-214.073,0.301383)"
   id="path48" />
<path
   d="m 87.555,173.246 10.254,-5.92 0.705,1.221 0.705,1.221 -10.254,5.92 -0.705,-1.221 -0.705,-1.221"
   class="s100"
   transform="translate(-214.073,0.301383)"
   id="path49" />
<path
   d="m 102.942,158.435 v -11.84 h 1.41 1.41 v 11.84 h -1.41 -1.41"
   class="s100"
   transform="translate(-214.073,0.301383)"
   id="path50" />
<path
   d="m 97.809,137.703 -10.254,-5.92 0.705,-1.221 0.705,-1.221 10.254,5.92 -0.705,1.221 -0.705,1.221"
   class="s100"
   transform="translate(-214.073,0.301383)"
   id="path51" />
<path
   d="m 124.873,272.389 v -11.84 h 1.41 1.41 v 11.84 h -1.41 -1.41"
   class="s100"
   transform="translate(-214.073,0.301383)"
   id="path52" />
<path
   d="m 119.739,251.658 -10.254,-5.92 0.705,-1.221 0.705,-1.221 10.254,5.92 -0.705,1.221 -0.705,1.221"
   class="s100"
   transform="translate(-214.073,0.301383)"
   id="path53" />
<path
   d="m 99.219,245.738 -10.254,5.92 -0.705,-1.221 -0.705,-1.221 10.254,-5.92 0.705,1.221 0.705,1.221"
   class="s100"
   transform="translate(-214.073,0.301383)"
   id="path54" />
<path
   d="m 146.803,234.404 v -11.84 h 1.41 1.41 v 11.84 h -1.41 -1.41"
   class="s100"
   transform="translate(-214.073,0.301383)"
   id="path55" />
<path
   d="m 141.67,213.673 -10.254,-5.92 0.705,-1.221 0.705,-1.221 10.254,5.92 -0.705,1.221 -0.705,1.221"
   class="s100"
   transform="translate(-214.073,0.301383)"
   id="path56" />
<path
   d="m 121.149,207.753 -10.254,5.92 -0.705,-1.221 -0.705,-1.221 10.254,-5.92 0.705,1.221 0.705,1.221"
   class="s100"
   transform="translate(-214.073,0.301383)"
   id="path57" />
<path
   d="m 212.595,120.45 v -11.84 h 1.41 1.41 v 11.84 h -1.41 -1.41"
   class="s100"
   transform="translate(-214.073,0.301383)"
   id="path58" />
<path
   d="m 186.941,93.799 -10.254,5.92 -0.705,-1.221 -0.705,-1.221 10.254,-5.92 0.705,1.221 0.705,1.221"
   class="s100"
   transform="translate(-214.073,0.301383)"
   id="path59" />
<path
   d="m 234.525,82.465 v -11.84 h 1.41 1.41 v 11.84 h -1.41 -1.41"
   class="s100"
   transform="translate(-214.073,0.301383)"
   id="path60" />
<path
   d="m 208.871,55.814 -10.254,5.92 -0.705,-1.221 -0.705,-1.221 10.254,-5.92 0.705,1.221 0.705,1.221"
   class="s100"
   transform="translate(-214.073,0.301383)"
   id="path61" />
<path
   d="m 176.687,205.311 10.254,5.92 -0.705,1.221 -0.705,1.221 -10.254,-5.92 0.705,-1.221 0.705,-1.221"
   class="s100"
   transform="translate(-214.073,0.301383)"
   id="path62" />
<path
   d="m 212.595,196.42 v -11.84 h 1.41 1.41 v 11.84 h -1.41 -1.41"
   class="s100"
   transform="translate(-214.073,0.301383)"
   id="path63" />
<path
   d="m 198.617,243.296 10.254,5.92 -0.705,1.221 -0.705,1.221 -10.254,-5.92 0.705,-1.221 0.705,-1.221"
   class="s100"
   transform="translate(-214.073,0.301383)"
   id="path64" />
<path
   d="m 234.525,234.404 v -11.84 h 1.41 1.41 v 11.84 h -1.41 -1.41"
   class="s100"
   transform="translate(-214.073,0.301383)"
   id="path65" />
<path
   d="m 163.6,99.719 -10.254,-5.92 0.705,-1.221 0.705,-1.221 10.254,5.92 -0.705,1.221 -0.705,1.221"
   class="s100"
   transform="translate(-214.073,0.301383)"
   id="path66" />
<path
   d="m 127.693,108.61 v 11.84 h -1.41 -1.41 v -11.84 h 1.41 1.41"
   class="s100"
   transform="translate(-214.073,0.301383)"
   id="path67" />
<path
   d="m 141.67,61.734 -10.254,-5.92 0.705,-1.221 0.705,-1.221 10.254,5.92 -0.705,1.221 -0.705,1.221"
   class="s100"
   transform="translate(-214.073,0.301383)"
   id="path68" />
<path
   d="m 105.762,70.625 v 11.84 h -1.41 -1.41 v -11.84 h 1.41 1.41"
   class="s100"
   transform="translate(-214.073,0.301383)"
   id="path69" />
<path
   d="m 121.149,131.783 -10.254,5.92 -0.705,-1.221 -0.705,-1.221 10.254,-5.92 0.705,1.221 0.705,1.221"
   class="s100"
   transform="translate(-214.073,0.301383)"
   id="path70" />
<path
   d="m 110.895,167.326 10.254,5.92 -0.705,1.221 -0.705,1.221 -10.254,-5.92 0.705,-1.221 0.705,-1.221"
   class="s100"
   transform="translate(-214.073,0.301383)"
   id="path71" />
<path
   d="m 77.288,131.783 -10.254,5.92 -0.705,-1.221 -0.705,-1.221 10.254,-5.92 0.705,1.221 0.705,1.221"
   class="s100"
   transform="translate(-214.073,0.301383)"
   id="path72" />
<path
   d="m 67.034,167.326 10.254,5.92 -0.705,1.221 -0.705,1.221 -10.254,-5.92 0.705,-1.221 0.705,-1.221"
   class="s100"
   transform="translate(-214.073,0.301383)"
   id="path73" />
<path
   d="m 127.693,184.58 v 11.84 h -1.41 -1.41 v -11.84 h 1.41 1.41"
   class="s100"
   transform="translate(-214.073,0.301383)"
   id="path74" />
<path
   d="m 153.346,211.231 10.254,-5.92 0.705,1.221 0.705,1.221 -10.254,5.92 -0.705,-1.221 -0.705,-1.221"
   class="s100"
   transform="translate(-214.073,0.301383)"
   id="path75" />
<path
   d="m 105.762,222.564 v 11.84 h -1.41 -1.41 v -11.84 h 1.41 1.41"
   class="s100"
   transform="translate(-214.073,0.301383)"
   id="path76" />
<path
   d="m 131.416,249.216 10.254,-5.92 0.705,1.221 0.705,1.221 -10.254,5.92 -0.705,-1.221 -0.705,-1.221"
   class="s100"
   transform="translate(-214.073,0.301383)"
   id="path77" />
<path
   d="m 185.531,61.734 -10.254,-5.92 0.705,-1.221 0.705,-1.221 10.254,5.92 -0.705,1.221 -0.705,1.221"
   class="s100"
   transform="translate(-214.073,0.301383)"
   id="path78" />
<path
   d="m 99.219,93.799 -10.254,5.92 -0.705,-1.221 -0.705,-1.221 10.254,-5.92 0.705,1.221 0.705,1.221"
   class="s100"
   transform="translate(-214.073,0.301383)"
   id="path79" />
<path
   d="m 256.456,120.45 v -11.84 h 1.41 1.41 v 11.84 h -1.41 -1.41"
   class="s100"
   transform="translate(-214.073,0.301383)"
   id="path80" />
<path
   d="m 83.832,184.58 v 11.84 h -1.41 -1.41 v -11.84 h 1.41 1.41"
   class="s100"
   transform="translate(-214.073,0.301383)"
   id="path81" />
<path
   d="m 154.756,243.296 10.254,5.92 -0.705,1.221 -0.705,1.221 -10.254,-5.92 0.705,-1.221 0.705,-1.221"
   class="s100"
   transform="translate(-214.073,0.301383)"
   id="path82" />
<path
   d="m 241.068,211.231 10.254,-5.92 0.705,1.221 0.705,1.221 -10.254,5.92 -0.705,-1.221 -0.705,-1.221"
   class="s100"
   transform="translate(-214.073,0.301383)"
   id="path83" />
<path
   d="m 165.01,55.814 -10.254,5.92 -0.705,-1.221 -0.705,-1.221 10.254,-5.92 0.705,1.221 0.705,1.221"
   class="s100"
   transform="translate(-214.073,0.301383)"
   id="path84" />
<path
   d="m 83.832,108.61 v 11.84 h -1.41 -1.41 v -11.84 h 1.41 1.41"
   class="s100"
   transform="translate(-214.073,0.301383)"
   id="path85" />
<path
   d="m 251.322,99.719 -10.254,-5.92 0.705,-1.221 0.705,-1.221 10.254,5.92 -0.705,1.221 -0.705,1.221"
   class="s100"
   transform="translate(-214.073,0.301383)"
   id="path86" />
<path
   d="m 88.965,205.311 10.254,5.92 -0.705,1.221 -0.705,1.221 -10.254,-5.92 0.705,-1.221 0.705,-1.221"
   class="s100"
   transform="translate(-214.073,0.301383)"
   id="path87" />
<path
   d="m 175.277,249.216 10.254,-5.92 0.705,1.221 0.705,1.221 -10.254,5.92 -0.705,-1.221 -0.705,-1.221"
   class="s100"
   transform="translate(-214.073,0.301383)"
   id="path88" />
<path
   d="m 256.456,196.42 v -11.84 h 1.41 1.41 v 11.84 h -1.41 -1.41"
   class="s100"
   transform="translate(-214.073,0.301383)"
   id="path89" />
<path
   d="m 75.878,99.719 -10.254,-5.92 0.705,-1.221 0.705,-1.221 10.254,5.92 -0.705,1.221 -0.705,1.221"
   class="s100"
   transform="translate(-214.073,0.301383)"
   id="path90" />
<path
   d="m 77.288,207.753 -10.254,5.92 -0.705,-1.221 -0.705,-1.221 10.254,-5.92 0.705,1.221 0.705,1.221"
   class="s100"
   transform="translate(-214.073,0.301383)"
   id="path91" />
<path
   d="m 168.734,44.481 v -11.84 h 1.41 1.41 v 11.84 h -1.41 -1.41"
   class="s100"
   transform="translate(-214.073,0.301383)"
   id="path92" />
<path
   d="m 171.554,260.549 v 11.84 h -1.41 -1.41 v -11.84 h 1.41 1.41"
   class="s100"
   transform="translate(-214.073,0.301383)"
   id="path93" />
<path
   d="m 264.409,205.311 10.254,5.92 -0.705,1.221 -0.705,1.221 -10.254,-5.92 0.705,-1.221 0.705,-1.221"
   class="s100"
   transform="translate(-214.073,0.301383)"
   id="path94" />
<path
   d="m 262.999,97.277 10.254,-5.92 0.705,1.221 0.705,1.221 -10.254,5.92 -0.705,-1.221 -0.705,-1.221"
   class="s100"
   transform="translate(-214.073,0.301383)"
   id="path95" />
<path
   d="m 85.355,17.497 -1.41,-2.443 10.254,-5.92 1.41,2.443 -10.254,5.92"
   class="s100"
   transform="translate(-214.073,0.301383)"
   id="path96" />
<path
   d="m 72.323,38.556 -5.92,10.254 -2.442,-1.41 5.92,-10.254 2.442,1.41"
   class="s100"
   transform="translate(-214.073,0.301383)"
   id="path97" />
<path
   d="m 28.462,114.525 -5.92,10.254 -2.442,-1.41 5.92,-10.254 2.442,1.41"
   class="s100"
   transform="translate(-214.073,0.301383)"
   id="path98" />
<path
   d="m 329.467,146.595 h 2.82 v 11.84 h -2.82 v -11.84"
   class="s100"
   transform="translate(-214.073,0.301383)"
   id="path99" />
<path
   d="m 317.745,124.779 -5.92,-10.254 2.443,-1.41 5.92,10.254 -2.443,1.41"
   class="s100"
   transform="translate(-214.073,0.301383)"
   id="path100" />
<path
   d="m 273.884,48.81 -5.92,-10.254 2.443,-1.41 5.92,10.254 -2.443,1.41"
   class="s100"
   transform="translate(-214.073,0.301383)"
   id="path101" />
<path
   d="M 10.82,158.435 H 8 v -11.84 h 2.82 v 11.84"
   class="s100"
   transform="translate(-214.073,0.301383)"
   id="path102" />
<path
   d="m 22.542,180.251 5.92,10.253 -2.442,1.41 -5.92,-10.253 2.442,-1.41"
   class="s100"
   transform="translate(-214.073,0.301383)"
   id="path103" />
<path
   d="m 66.403,256.22 5.92,10.254 -2.442,1.41 -5.92,-10.254 2.442,-1.41"
   class="s100"
   transform="translate(-214.073,0.301383)"
   id="path104" />
<path
   d="m 95.609,293.453 -1.41,2.442 -10.254,-5.92 1.41,-2.442 10.254,5.92"
   class="s100"
   transform="translate(-214.073,0.301383)"
   id="path105" />
<path
   d="m 120.363,294.21 h 11.84 v 2.82 h -11.84 v -2.82"
   class="s100"
   transform="translate(-214.073,0.301383)"
   id="path106" />
<path
   d="m 208.085,294.21 h 11.84 v 2.82 h -11.84 v -2.82"
   class="s100"
   transform="translate(-214.073,0.301383)"
   id="path107" />
<path
   d="m 254.932,287.533 1.41,2.442 -10.254,5.92 -1.41,-2.442 10.254,-5.92"
   class="s100"
   transform="translate(-214.073,0.301383)"
   id="path108" />
<path
   d="m 267.964,266.474 5.92,-10.254 2.443,1.41 -5.92,10.254 -2.443,-1.41"
   class="s100"
   transform="translate(-214.073,0.301383)"
   id="path109" />
<path
   d="m 311.825,190.504 5.92,-10.253 2.443,1.41 -5.92,10.253 -2.443,-1.41"
   class="s100"
   transform="translate(-214.073,0.301383)"
   id="path110" />
<path
   d="m 50.392,76.541 -5.92,10.253 -2.442,-1.41 5.92,-10.253 2.442,1.41"
   class="s100"
   transform="translate(-214.073,0.301383)"
   id="path111" />
<path
   d="m 44.472,218.235 5.92,10.254 -2.442,1.41 -5.92,-10.254 2.442,-1.41"
   class="s100"
   transform="translate(-214.073,0.301383)"
   id="path112" />
<path
   d="m 164.224,294.21 h 11.84 v 2.82 h -11.84 v -2.82"
   class="s100"
   transform="translate(-214.073,0.301383)"
   id="path113" />
<path
   d="m 289.895,228.489 5.92,-10.254 2.442,1.41 -5.92,10.254 -2.442,-1.41"
   class="s100"
   transform="translate(-214.073,0.301383)"
   id="path114" />
<path
   d="m 295.815,86.794 -5.92,-10.253 2.442,-1.41 5.92,10.253 -2.442,1.41"
   class="s100"
   transform="translate(-214.073,0.301383)"
   id="path115" />
<path
   d="m 186.236,136.482 5.838,3.371 v 6.742"
   class="s101"
   transform="translate(-214.073,0.301383)"
   id="path116" />
<path
   d="m 192.074,139.853 5.838,-3.371"
   class="s101"
   transform="translate(-214.073,0.301383)"
   id="path117" />
<path
   d="m 208.166,130.562 5.839,-3.37 v -6.742"
   class="s101"
   transform="translate(-214.073,0.301383)"
   id="path118" />
<path
   d="m 214.005,127.192 5.838,3.37"
   class="s101"
   transform="translate(-214.073,0.301383)"
   id="path119" />
<path
   d="m 214.005,108.61 v -6.742 l -5.839,-3.37"
   class="s101"
   transform="translate(-214.073,0.301383)"
   id="path120" />
<path
   d="m 214.005,101.868 5.838,-3.37"
   class="s101"
   transform="translate(-214.073,0.301383)"
   id="path121" />
<path
   d="m 230.097,136.482 5.838,3.371 v 6.742"
   class="s101"
   transform="translate(-214.073,0.301383)"
   id="path122" />
<path
   d="m 235.935,139.853 5.838,-3.371"
   class="s101"
   transform="translate(-214.073,0.301383)"
   id="path123" />
<path
   d="m 252.027,130.562 5.839,-3.37 5.838,3.37"
   class="s101"
   transform="translate(-214.073,0.301383)"
   id="path124" />
<path
   d="M 257.866,127.192 V 120.45"
   class="s101"
   transform="translate(-214.073,0.301383)"
   id="path125" />
<path
   d="m 230.097,92.578 5.838,-3.371 v -6.742"
   class="s101"
   transform="translate(-214.073,0.301383)"
   id="path126" />
<path
   d="m 235.935,89.207 5.838,3.371"
   class="s101"
   transform="translate(-214.073,0.301383)"
   id="path127" />
<path
   d="m 257.866,108.61 v -6.742 l -5.839,-3.37"
   class="s101"
   transform="translate(-214.073,0.301383)"
   id="path128" />
<path
   d="m 257.866,101.868 5.838,-3.37"
   class="s101"
   transform="translate(-214.073,0.301383)"
   id="path129" />
<path
   d="m 235.935,70.625 v -6.741 l -5.838,-3.371"
   class="s101"
   transform="translate(-214.073,0.301383)"
   id="path130" />
<path
   d="m 235.935,63.884 5.838,-3.371"
   class="s101"
   transform="translate(-214.073,0.301383)"
   id="path131" />
<path
   d="m 273.958,136.482 5.838,3.371 v 6.742"
   class="s101"
   transform="translate(-214.073,0.301383)"
   id="path132" />
<path
   d="m 279.796,139.853 5.838,-3.371"
   class="s101"
   transform="translate(-214.073,0.301383)"
   id="path133" />
<path
   d="M 273.958,92.578 292.855,81.667"
   class="s101"
   transform="translate(-214.073,0.301383)"
   id="path134" />
<path
   d="m 252.027,54.593 18.897,-10.91"
   class="s101"
   transform="translate(-214.073,0.301383)"
   id="path135" />
<path
   d="m 295.888,130.562 18.897,-10.91"
   class="s101"
   transform="translate(-214.073,0.301383)"
   id="path136" />
<path
   d="m 164.305,130.562 5.839,-3.37 5.838,3.37"
   class="s101"
   transform="translate(-214.073,0.301383)"
   id="path137" />
<path
   d="M 170.144,127.192 V 120.45"
   class="s101"
   transform="translate(-214.073,0.301383)"
   id="path138" />
<path
   d="m 170.144,108.61 v -6.742 l -5.839,-3.37"
   class="s101"
   transform="translate(-214.073,0.301383)"
   id="path139" />
<path
   d="m 170.144,101.868 5.838,-3.37"
   class="s101"
   transform="translate(-214.073,0.301383)"
   id="path140" />
<path
   d="m 154.051,92.578 -5.838,-3.371 -5.838,3.371"
   class="s101"
   transform="translate(-214.073,0.301383)"
   id="path141" />
<path
   d="M 148.213,89.207 V 82.465"
   class="s101"
   transform="translate(-214.073,0.301383)"
   id="path142" />
<path
   d="m 186.236,92.578 5.838,-3.371 5.838,3.371"
   class="s101"
   transform="translate(-214.073,0.301383)"
   id="path143" />
<path
   d="M 192.074,89.207 V 82.465"
   class="s101"
   transform="translate(-214.073,0.301383)"
   id="path144" />
<path
   d="m 192.074,70.625 v -6.741 l 5.838,-3.371"
   class="s101"
   transform="translate(-214.073,0.301383)"
   id="path145" />
<path
   d="m 192.074,63.884 -5.838,-3.371"
   class="s101"
   transform="translate(-214.073,0.301383)"
   id="path146" />
<path
   d="m 148.213,70.625 v -6.741 l -5.838,-3.371"
   class="s101"
   transform="translate(-214.073,0.301383)"
   id="path147" />
<path
   d="m 148.213,63.884 5.838,-3.371"
   class="s101"
   transform="translate(-214.073,0.301383)"
   id="path148" />
<path
   d="m 175.982,54.593 -5.838,-3.371 -5.839,3.371"
   class="s101"
   transform="translate(-214.073,0.301383)"
   id="path149" />
<path
   d="M 170.144,51.222 V 44.481"
   class="s101"
   transform="translate(-214.073,0.301383)"
   id="path150" />
<path
   d="m 132.121,54.593 -5.838,-3.371 -5.839,3.371"
   class="s101"
   transform="translate(-214.073,0.301383)"
   id="path151" />
<path
   d="M 126.283,51.222 V 44.481"
   class="s101"
   transform="translate(-214.073,0.301383)"
   id="path152" />
<path
   d="m 208.166,54.593 5.839,-3.371 5.838,3.371"
   class="s101"
   transform="translate(-214.073,0.301383)"
   id="path153" />
<path
   d="M 214.005,51.222 V 44.481"
   class="s101"
   transform="translate(-214.073,0.301383)"
   id="path154" />
<path
   d="M 170.144,32.641 V 10.82"
   class="s101"
   transform="translate(-214.073,0.301383)"
   id="path155" />
<path
   d="M 126.283,32.641 V 10.82"
   class="s101"
   transform="translate(-214.073,0.301383)"
   id="path156" />
<path
   d="M 214.005,32.641 V 10.82"
   class="s101"
   transform="translate(-214.073,0.301383)"
   id="path157" />
<path
   d="m 192.074,158.435 v 6.741 l -5.838,3.371"
   class="s101"
   transform="translate(-214.073,0.301383)"
   id="path158" />
<path
   d="m 192.074,165.176 5.838,3.371"
   class="s101"
   transform="translate(-214.073,0.301383)"
   id="path159" />
<path
   d="m 208.166,174.467 5.839,3.371 5.838,-3.371"
   class="s101"
   transform="translate(-214.073,0.301383)"
   id="path160" />
<path
   d="m 214.005,177.838 v 6.742"
   class="s101"
   transform="translate(-214.073,0.301383)"
   id="path161" />
<path
   d="m 230.097,168.547 5.838,-3.371 v -6.741"
   class="s101"
   transform="translate(-214.073,0.301383)"
   id="path162" />
<path
   d="m 235.935,165.176 5.838,3.371"
   class="s101"
   transform="translate(-214.073,0.301383)"
   id="path163" />
<path
   d="m 214.005,196.42 v 6.741 l -5.839,3.371"
   class="s101"
   transform="translate(-214.073,0.301383)"
   id="path164" />
<path
   d="m 214.005,203.161 5.838,3.371"
   class="s101"
   transform="translate(-214.073,0.301383)"
   id="path165" />
<path
   d="m 230.097,212.452 5.838,3.371 v 6.741"
   class="s101"
   transform="translate(-214.073,0.301383)"
   id="path166" />
<path
   d="m 235.935,215.823 5.838,-3.371"
   class="s101"
   transform="translate(-214.073,0.301383)"
   id="path167" />
<path
   d="m 252.027,174.467 5.839,3.371 5.838,-3.371"
   class="s101"
   transform="translate(-214.073,0.301383)"
   id="path168" />
<path
   d="m 257.866,177.838 v 6.742"
   class="s101"
   transform="translate(-214.073,0.301383)"
   id="path169" />
<path
   d="m 252.027,206.532 5.839,-3.371 v -6.741"
   class="s101"
   transform="translate(-214.073,0.301383)"
   id="path170" />
<path
   d="m 257.866,203.161 5.838,3.371"
   class="s101"
   transform="translate(-214.073,0.301383)"
   id="path171" />
<path
   d="m 273.958,168.547 5.838,-3.371 v -6.741"
   class="s101"
   transform="translate(-214.073,0.301383)"
   id="path172" />
<path
   d="m 279.796,165.176 5.838,3.371"
   class="s101"
   transform="translate(-214.073,0.301383)"
   id="path173" />
<path
   d="m 235.935,234.404 v 6.742 l -5.838,3.371"
   class="s101"
   transform="translate(-214.073,0.301383)"
   id="path174" />
<path
   d="m 235.935,241.146 5.838,3.371"
   class="s101"
   transform="translate(-214.073,0.301383)"
   id="path175" />
<path
   d="m 273.958,212.452 18.897,10.91"
   class="s101"
   transform="translate(-214.073,0.301383)"
   id="path176" />
<path
   d="m 295.888,174.467 18.897,10.91"
   class="s101"
   transform="translate(-214.073,0.301383)"
   id="path177" />
<path
   d="m 252.027,250.437 18.897,10.91"
   class="s101"
   transform="translate(-214.073,0.301383)"
   id="path178" />
<path
   d="m 148.213,146.595 v -6.742 l 5.838,-3.371"
   class="s101"
   transform="translate(-214.073,0.301383)"
   id="path179" />
<path
   d="m 148.213,139.853 -5.838,-3.371"
   class="s101"
   transform="translate(-214.073,0.301383)"
   id="path180" />
<path
   d="m 132.121,130.562 -5.838,-3.37 -5.839,3.37"
   class="s101"
   transform="translate(-214.073,0.301383)"
   id="path181" />
<path
   d="M 126.283,127.192 V 120.45"
   class="s101"
   transform="translate(-214.073,0.301383)"
   id="path182" />
<path
   d="m 110.19,136.482 -5.838,3.371 v 6.742"
   class="s101"
   transform="translate(-214.073,0.301383)"
   id="path183" />
<path
   d="m 104.352,139.853 -5.838,-3.371"
   class="s101"
   transform="translate(-214.073,0.301383)"
   id="path184" />
<path
   d="m 126.283,108.61 v -6.742 l 5.838,-3.37"
   class="s101"
   transform="translate(-214.073,0.301383)"
   id="path185" />
<path
   d="m 126.283,101.868 -5.839,-3.37"
   class="s101"
   transform="translate(-214.073,0.301383)"
   id="path186" />
<path
   d="m 110.19,92.578 -5.838,-3.371 v -6.742"
   class="s101"
   transform="translate(-214.073,0.301383)"
   id="path187" />
<path
   d="m 104.352,89.207 -5.838,3.371"
   class="s101"
   transform="translate(-214.073,0.301383)"
   id="path188" />
<path
   d="m 88.26,130.562 -5.838,-3.37 -5.839,3.37"
   class="s101"
   transform="translate(-214.073,0.301383)"
   id="path189" />
<path
   d="M 82.422,127.192 V 120.45"
   class="s101"
   transform="translate(-214.073,0.301383)"
   id="path190" />
<path
   d="m 88.26,98.498 -5.838,3.37 v 6.742"
   class="s101"
   transform="translate(-214.073,0.301383)"
   id="path191" />
<path
   d="m 82.422,101.868 -5.839,-3.37"
   class="s101"
   transform="translate(-214.073,0.301383)"
   id="path192" />
<path
   d="m 66.329,136.482 -5.838,3.371 v 6.742"
   class="s101"
   transform="translate(-214.073,0.301383)"
   id="path193" />
<path
   d="m 60.491,139.853 -5.838,-3.371"
   class="s101"
   transform="translate(-214.073,0.301383)"
   id="path194" />
<path
   d="m 104.352,70.625 v -6.741 l 5.838,-3.371"
   class="s101"
   transform="translate(-214.073,0.301383)"
   id="path195" />
<path
   d="M 104.352,63.884 98.514,60.513"
   class="s101"
   transform="translate(-214.073,0.301383)"
   id="path196" />
<path
   d="M 66.329,92.578 47.432,81.667"
   class="s101"
   transform="translate(-214.073,0.301383)"
   id="path197" />
<path
   d="M 44.399,130.562 25.502,119.652"
   class="s101"
   transform="translate(-214.073,0.301383)"
   id="path198" />
<path
   d="M 88.26,54.593 69.363,43.683"
   class="s101"
   transform="translate(-214.073,0.301383)"
   id="path199" />
<path
   d="m 154.051,168.547 -5.838,-3.371 v -6.741"
   class="s101"
   transform="translate(-214.073,0.301383)"
   id="path200" />
<path
   d="m 148.213,165.176 -5.838,3.371"
   class="s101"
   transform="translate(-214.073,0.301383)"
   id="path201" />
<path
   d="m 132.121,174.467 -5.838,3.371 v 6.742"
   class="s101"
   transform="translate(-214.073,0.301383)"
   id="path202" />
<path
   d="m 126.283,177.838 -5.839,-3.371"
   class="s101"
   transform="translate(-214.073,0.301383)"
   id="path203" />
<path
   d="m 126.283,196.42 v 6.741 l 5.838,3.371"
   class="s101"
   transform="translate(-214.073,0.301383)"
   id="path204" />
<path
   d="m 126.283,203.161 -5.839,3.371"
   class="s101"
   transform="translate(-214.073,0.301383)"
   id="path205" />
<path
   d="m 110.19,168.547 -5.838,-3.371 v -6.741"
   class="s101"
   transform="translate(-214.073,0.301383)"
   id="path206" />
<path
   d="m 104.352,165.176 -5.838,3.371"
   class="s101"
   transform="translate(-214.073,0.301383)"
   id="path207" />
<path
   d="m 88.26,174.467 -5.838,3.371 -5.839,-3.371"
   class="s101"
   transform="translate(-214.073,0.301383)"
   id="path208" />
<path
   d="m 82.422,177.838 v 6.742"
   class="s101"
   transform="translate(-214.073,0.301383)"
   id="path209" />
<path
   d="m 110.19,212.452 -5.838,3.371 v 6.741"
   class="s101"
   transform="translate(-214.073,0.301383)"
   id="path210" />
<path
   d="m 104.352,215.823 -5.838,-3.371"
   class="s101"
   transform="translate(-214.073,0.301383)"
   id="path211" />
<path
   d="m 82.422,196.42 v 6.741 l 5.838,3.371"
   class="s101"
   transform="translate(-214.073,0.301383)"
   id="path212" />
<path
   d="m 82.422,203.161 -5.839,3.371"
   class="s101"
   transform="translate(-214.073,0.301383)"
   id="path213" />
<path
   d="m 104.352,234.404 v 6.742 l 5.838,3.371"
   class="s101"
   transform="translate(-214.073,0.301383)"
   id="path214" />
<path
   d="m 104.352,241.146 -5.838,3.371"
   class="s101"
   transform="translate(-214.073,0.301383)"
   id="path215" />
<path
   d="m 66.329,168.547 -5.838,-3.371 v -6.741"
   class="s101"
   transform="translate(-214.073,0.301383)"
   id="path216" />
<path
   d="m 60.491,165.176 -5.838,3.371"
   class="s101"
   transform="translate(-214.073,0.301383)"
   id="path217" />
<path
   d="m 66.329,212.452 -18.897,10.91"
   class="s101"
   transform="translate(-214.073,0.301383)"
   id="path218" />
<path
   d="m 88.26,250.437 -18.897,10.91"
   class="s101"
   transform="translate(-214.073,0.301383)"
   id="path219" />
<path
   d="m 44.399,174.467 -18.897,10.91"
   class="s101"
   transform="translate(-214.073,0.301383)"
   id="path220" />
<path
   d="m 175.982,174.467 -5.838,3.371 -5.839,-3.371"
   class="s101"
   transform="translate(-214.073,0.301383)"
   id="path221" />
<path
   d="m 170.144,177.838 v 6.742"
   class="s101"
   transform="translate(-214.073,0.301383)"
   id="path222" />
<path
   d="m 170.144,196.42 v 6.741 l 5.838,3.371"
   class="s101"
   transform="translate(-214.073,0.301383)"
   id="path223" />
<path
   d="m 170.144,203.161 -5.839,3.371"
   class="s101"
   transform="translate(-214.073,0.301383)"
   id="path224" />
<path
   d="m 186.236,212.452 5.838,3.371 5.838,-3.371"
   class="s101"
   transform="translate(-214.073,0.301383)"
   id="path225" />
<path
   d="m 192.074,215.823 v 6.741"
   class="s101"
   transform="translate(-214.073,0.301383)"
   id="path226" />
<path
   d="m 154.051,212.452 -5.838,3.371 -5.838,-3.371"
   class="s101"
   transform="translate(-214.073,0.301383)"
   id="path227" />
<path
   d="m 148.213,215.823 v 6.741"
   class="s101"
   transform="translate(-214.073,0.301383)"
   id="path228" />
<path
   d="m 148.213,234.404 v 6.742 l -5.838,3.371"
   class="s101"
   transform="translate(-214.073,0.301383)"
   id="path229" />
<path
   d="m 148.213,241.146 5.838,3.371"
   class="s101"
   transform="translate(-214.073,0.301383)"
   id="path230" />
<path
   d="m 192.074,234.404 v 6.742 l 5.838,3.371"
   class="s101"
   transform="translate(-214.073,0.301383)"
   id="path231" />
<path
   d="m 192.074,241.146 -5.838,3.371"
   class="s101"
   transform="translate(-214.073,0.301383)"
   id="path232" />
<path
   d="m 164.305,250.437 5.839,3.37 5.838,-3.37"
   class="s101"
   transform="translate(-214.073,0.301383)"
   id="path233" />
<path
   d="m 170.144,253.807 v 6.742"
   class="s101"
   transform="translate(-214.073,0.301383)"
   id="path234" />
<path
   d="m 208.166,250.437 5.839,3.37 5.838,-3.37"
   class="s101"
   transform="translate(-214.073,0.301383)"
   id="path235" />
<path
   d="m 214.005,253.807 v 6.742"
   class="s101"
   transform="translate(-214.073,0.301383)"
   id="path236" />
<path
   d="m 132.121,250.437 -5.838,3.37 -5.839,-3.37"
   class="s101"
   transform="translate(-214.073,0.301383)"
   id="path237" />
<path
   d="m 126.283,253.807 v 6.742"
   class="s101"
   transform="translate(-214.073,0.301383)"
   id="path238" />
<path
   d="M 170.144,272.389 V 294.21"
   class="s101"
   transform="translate(-214.073,0.301383)"
   id="path239" />
<path
   d="M 214.005,272.389 V 294.21"
   class="s101"
   transform="translate(-214.073,0.301383)"
   id="path240" />
<path
   d="M 126.283,272.389 V 294.21"
   class="s101"
   transform="translate(-214.073,0.301383)"
   id="path241" />

</g></g></svg>
