<?xml version="1.0" encoding="UTF-8" standalone="no"?>
<!-- Created with Inkscape (http://www.inkscape.org/) -->

<svg
   width="143.80873mm"
   height="21.445236mm"
   viewBox="0 0 143.80872 21.445236"
   version="1.1"
   id="svg5"
   inkscape:version="1.3.2 (091e20ef0f, 2023-11-25, custom)"
   sodipodi:docname="art_1.svg"
   xml:space="preserve"
   xmlns:inkscape="http://www.inkscape.org/namespaces/inkscape"
   xmlns:sodipodi="http://sodipodi.sourceforge.net/DTD/sodipodi-0.dtd"
   xmlns="http://www.w3.org/2000/svg"
   xmlns:svg="http://www.w3.org/2000/svg"><sodipodi:namedview
     id="namedview7"
     pagecolor="#ffffff"
     bordercolor="#666666"
     borderopacity="1.0"
     inkscape:pageshadow="2"
     inkscape:pageopacity="0"
     inkscape:pagecheckerboard="false"
     inkscape:document-units="mm"
     showgrid="false"
     inkscape:zoom="0.5322277"
     inkscape:cx="210.43625"
     inkscape:cy="-0.93944753"
     inkscape:window-width="636"
     inkscape:window-height="1037"
     inkscape:window-x="640"
     inkscape:window-y="0"
     inkscape:window-maximized="1"
     inkscape:current-layer="layer1"
     inkscape:showpageshadow="2"
     inkscape:deskcolor="#ffffff"
     showguides="false" /><defs
     id="defs2"><rect
       x="12.202033"
       y="25.487652"
       width="534.88544"
       height="80.216293"
       id="rect1326" /><rect
       x="12.202033"
       y="25.487652"
       width="538.00293"
       height="39.499348"
       id="rect1366" /><rect
       x="12.202033"
       y="25.487652"
       width="566.03082"
       height="61.959587"
       id="rect1374" /></defs><g
     inkscape:label="Layer 1"
     inkscape:groupmode="layer"
     id="layer1"
     transform="translate(122.06943,-137.98675)"><g
       id="g28"
       inkscape:label="tremagne"
       transform="translate(-105.67244)"><path
         style="fill:none;stroke:#00ff00;stroke-width:0.499999;stroke-linecap:round;stroke-linejoin:round"
         d="m -16.146995,150.728 c 0,0 0.758923,-0.7283 1.077591,-1.14384 0.671299,-0.87537 1.164501,-1.87322 1.737113,-2.81568 0.436903,-0.7191 0.903924,-1.42179 1.295939,-2.16615 0.472085,-0.8964 1.267698,-2.76189 1.267698,-2.76189"
         id="path5"
         sodipodi:nodetypes="ccccc" /><path
         style="fill:none;stroke:#00ff00;stroke-width:0.499999;stroke-linecap:round;stroke-linejoin:round"
         d="m -13.888653,144.92669 c 0,0 2.335943,-0.0761 3.491022,-0.23761 1.1916688,-0.16659 2.3610947,-0.4683 3.5303107,-0.75189 0.5604875,-0.13595 1.6692639,-0.45492 1.6692639,-0.45492"
         id="path6"
         sodipodi:nodetypes="cccc" /><path
         style="fill:none;stroke:#00ff00;stroke-width:0.499999;stroke-linecap:round;stroke-linejoin:round"
         d="m -11.858428,144.36669 c -0.540663,1.64589 -1.259683,3.34463 -1.054935,5.11108 -0.08442,1.03013 1.116136,1.25732 1.579094,0.3822 0.510495,-0.76016 1.007721,-1.53996 1.4913224,-2.31176 0.5961944,-0.75428 -0.9067744,-0.98611 -0.3803624,-0.17872 1.0236851,0.4769 0.4007367,1.67355 0.4777456,2.51253 0.1086481,1.0591 1.3102307,0.40232 1.5914975,-0.19594 0.3415016,-0.65 0.8695387,-1.29396 0.9349766,-2.03051 -0.6063263,-0.838 -0.905107,0.86364 -0.9292631,1.30786 -0.055647,1.02337 1.0212014,2.05709 1.8274093,1.06068 0.7778406,-0.96136 1.3224746,-2.02715 1.6426084,-3.21206 0.3005092,-0.41626 0.4150442,-1.79763 1.0044504,-1.50753 0.1222606,0.70993 -0.5604084,1.89789 0.2362546,2.29135 0.5600294,-0.53863 0.4387083,-1.73319 1.0328461,-2.04285 0.1783936,0.41067 0.00619,1.99327 0.6834577,1.5041 0.73082683,-1.34208 1.02391629,-2.93369 2.04134874,-4.11129 0.84626906,-0.57207 0.51801422,1.18333 0.50497418,1.66941 -0.19591377,1.54051 -0.35728448,3.09831 -0.25398382,4.65141 -0.001676,0.72913 0.4679469,1.69946 1.3224201,1.58609 1.0536033,-0.28966 1.8720006,-1.25778 2.0391882,-2.32186 -0.1980834,-1.30968 -1.3755449,0.23006 -1.4947974,0.84667 -0.4658571,0.62309 -0.166339,2.52847 0.7757465,1.49469 0.232822,-0.38201 1.1667053,-1.31507 0.6603003,-1.57367 -0.9121588,0.76549 1.1826114,1.81663 1.6965732,0.88133 0.4238603,-0.34365 1.4483261,-2.03517 0.2929146,-1.74987 -0.3787512,0.32351 -0.7933195,1.93493 0.03542,1.06524 0.8234891,-0.33958 0.4522429,1.19825 0.5466988,1.70379 -0.045267,2.25207 -0.9615619,4.57369 -2.7388954,6.01465 -2.0124856,1.52476 -1.0824075,-3.05184 1.7834946,-5.73976 0.119476,-0.0947 0.243265,-0.1839 0.3689671,-0.27018"
         id="path7"
         sodipodi:nodetypes="ccccccccsscccccccccccccccccccc" /><path
         style="fill:none;stroke:#00ff00;stroke-width:0.499999;stroke-linecap:round;stroke-linejoin:round"
         d="m 7.130234,149.7314 c 0.2021871,-0.53023 0.3971932,-1.0999 0.8235579,-1.49609 0.2824528,-0.21272 0.4681158,0.22663 0.4755824,0.45548 0.043137,0.40624 -0.077827,0.80096 -0.1685875,1.19139 0.025944,0.0854 0.072067,-0.25157 0.080502,-0.33781 0.062172,-0.41137 0.090687,-0.8703 0.3832494,-1.19421 0.2884099,-0.34009 0.5922919,0.1011 0.5867496,0.40159 0.073909,0.2142 0.114732,0.44152 0.2097109,0.64778 0.1184473,0.20691 0.3317236,0.42667 0.5950873,0.34717 0.345762,-0.0761 0.602831,-0.33657 0.797293,-0.61692 0.315594,-0.38833 0.600358,-0.83627 0.637236,-1.34716 0.01448,-0.28337 -0.34377,-0.27434 -0.50177,-0.13063 -0.300443,0.22311 -0.363912,0.63331 -0.393543,0.98144 -0.0045,0.34939 0.05741,0.71581 0.244913,1.01531 0.769098,0.68876 1.702599,0.0649 2.423016,-0.36773"
         id="path8"
         sodipodi:nodetypes="ccccccccccccccc" /><path
         style="fill:none;stroke:#00ff00;stroke-width:0.499999;stroke-linecap:round;stroke-linejoin:round"
         d="m -3.2908884,151.63339 -1.9573376,-1.65331 -0.2906655,4.02665 2.3479756,1.69094"
         id="path9"
         sodipodi:nodetypes="cccc" /><path
         style="fill:none;stroke:#00ff00;stroke-width:0.499999;stroke-linecap:round;stroke-linejoin:round"
         d="m -2.599299,155.53154 0.037971,-3.50865 2.65067963,-1.94025 0.05979482,3.9789 -2.22373565,1.7657"
         id="path10"
         sodipodi:nodetypes="ccccc" /><path
         style="fill:none;stroke:#00ff00;stroke-width:0.499999;stroke-linecap:round;stroke-linejoin:round"
         d="m -2.7783864,150.44688 c 0,0 -0.1820902,-0.14814 -0.1879315,-0.25289 -0.011032,-0.19781 0.105333,-0.47213 0.2996213,-0.51385 0.1368678,-0.0293 0.2881252,0.11438 0.3418606,0.24326 0.03998,0.0959 0.011279,0.22393 -0.050721,0.30738 -0.030867,0.0415 -0.1394917,0.0687 -0.1394917,0.0687"
         id="path11"
         sodipodi:nodetypes="cccccc" /><path
         style="fill:none;stroke:#00ff00;stroke-width:0.499999;stroke-linecap:round;stroke-linejoin:round"
         d="m -4.622698,152.58723 c 0,0 -0.160123,-0.0755 -0.1930299,-0.14989 -0.069241,-0.15653 -0.053626,-0.36847 0.040334,-0.51163 0.049516,-0.0754 0.1527616,-0.15348 0.2393316,-0.12739 0.082641,0.0249 0.1037132,0.14344 0.1226303,0.22741 0.015428,0.0684 -0.010855,0.21028 -0.010855,0.21028"
         id="path12"
         sodipodi:nodetypes="cccccc" /><path
         style="fill:none;stroke:#00ff00;stroke-width:0.499999;stroke-linecap:round;stroke-linejoin:round"
         d="m -3.5069924,154.42609 c -0.036264,-0.0217 -0.1545595,-0.024 -0.1931003,-0.0823 -0.051917,-0.0785 -0.03569,-0.19508 2.072e-4,-0.28199 0.030123,-0.073 0.088145,-0.16168 0.1670055,-0.16817 0.043835,-0.004 0.079384,0.0428 0.106954,0.077 0.030144,0.0374 0.057485,0.13191 0.057485,0.13191"
         id="path13"
         sodipodi:nodetypes="cccccc" /><path
         style="fill:none;stroke:#00ff00;stroke-width:0.499999;stroke-linecap:round;stroke-linejoin:round"
         d="m -1.2953449,152.99008 c 0,0 0.061312,0.16035 0.1297424,0.15867 0.1081624,-0.002 0.1545601,-0.15955 0.19240828,-0.26058 0.0266734,-0.0712 0.0547179,-0.1605 0.0183346,-0.2273 -0.0302439,-0.0555 -0.10509638,-0.10249 -0.16726038,-0.0902 -0.040375,0.008 -0.077855,0.0956 -0.077855,0.0956"
         id="path14"
         sodipodi:nodetypes="cccccc" /><path
         style="fill:none;stroke:#00ff00;stroke-width:0.499999;stroke-linecap:round;stroke-linejoin:round"
         d="m -1.9278151,154.84343 c 0,0 -0.1024885,-0.0484 -0.1161875,-0.0968 -0.02835,-0.10023 0.031136,-0.21778 0.1000305,-0.29606 0.038945,-0.0443 0.104284,-0.0995 0.1591063,-0.0777 0.03648,0.0146 0.040851,0.11023 0.040851,0.11023"
         id="path15"
         sodipodi:nodetypes="ccccc" /><path
         style="fill:none;stroke:#00ff00;stroke-width:0.499999;stroke-linecap:round;stroke-linejoin:round"
         d="m -0.79234171,151.70308 c 0,0 0.23211929,-0.0298 0.30866006,-0.10707 0.0616169,-0.0622 0.0953576,-0.16217 0.083308,-0.24876 -0.006428,-0.0462 -0.0337212,-0.10393 -0.0790073,-0.11565 -0.075598,-0.0196 -0.20945603,0.1047 -0.20945603,0.1047"
         id="path16"
         sodipodi:nodetypes="ccccc" /><path
         style="fill:none;stroke:#00ff00;stroke-width:0.499999;stroke-linecap:round;stroke-linejoin:round"
         d="m -15.567958,153.54396 c 0,0 -0.107705,-0.63299 0.002,-0.91906 0.09238,-0.24089 0.263595,-0.52422 0.516325,-0.57684 0.277411,-0.0578 0.607213,0.12438 0.772651,0.35428 0.224322,0.31172 0.238309,0.77935 0.122258,1.14537 -0.222492,0.70174 -1.457053,1.66036 -1.457053,1.66036 l 1.606856,0.039"
         id="path24"
         sodipodi:nodetypes="caaaacc" /><path
         style="fill:none;stroke:#00ff00;stroke-width:0.499999;stroke-linecap:round;stroke-linejoin:round"
         d="m -12.734976,155.12401 c -0.252358,-0.17021 -0.347838,-0.51007 -0.439209,-0.80029 -0.149188,-0.47387 -0.291647,-1.00239 -0.160719,-1.48162 0.08007,-0.29305 0.265561,-0.6117 0.545377,-0.73043 0.207812,-0.0882 0.497895,-0.0582 0.671874,0.0855 0.452292,0.37379 0.571858,1.08672 0.546395,1.67268 -0.02084,0.47964 -0.14864,1.08461 -0.564345,1.32529 -0.174089,0.10079 -0.432607,0.0413 -0.599373,-0.0712 z"
         id="path25"
         sodipodi:nodetypes="aaaaaaaa" /><path
         style="fill:none;stroke:#00ff00;stroke-width:0.499999;stroke-linecap:round;stroke-linejoin:round"
         d="m -8.7350216,152.93022 c 0,0 0.028699,-0.41609 0.1524886,-0.56827 0.1893144,-0.23273 0.5058555,-0.44259 0.8037053,-0.40565 0.2158385,0.0267 0.3999298,0.23079 0.492833,0.42731 0.1281363,0.27104 0.1812891,0.6438 0.023882,0.89898 -0.1184228,0.19198 -0.5977092,0.0628 -0.6127179,0.28785 -0.014646,0.21959 0.4136581,0.1892 0.5553098,0.3577 0.1308235,0.15563 0.2522759,0.35914 0.2371269,0.56182 -0.021617,0.28922 -0.1932081,0.61488 -0.4537927,0.74257 -0.257481,0.12619 -0.6208142,0.0703 -0.8550646,-0.0949 -0.21926,-0.15474 -0.3515021,-0.724 -0.3515021,-0.724"
         id="path26"
         sodipodi:nodetypes="caaaaaaaaac" /><path
         style="fill:none;stroke:#00ff00;stroke-width:0.499999;stroke-linecap:round;stroke-linejoin:round"
         d="m -10.841193,153.54396 c 0,0 -0.107705,-0.63299 0.002,-0.91906 0.09238,-0.24089 0.263595,-0.52422 0.516324,-0.57684 0.277411,-0.0578 0.6072133,0.12438 0.7726518,0.35428 0.2243221,0.31172 0.2383091,0.77935 0.1222576,1.14537 -0.2224921,0.70174 -1.4570534,1.66036 -1.4570534,1.66036 l 1.6068566,0.039"
         id="path27"
         sodipodi:nodetypes="caaaacc" /><path
         style="fill:none;stroke:#00ff00;stroke-width:0.499999;stroke-linecap:round;stroke-linejoin:round"
         d="m 3.0228784,146.27481 0.017382,-2.9615 c 0,0 1.0616293,-0.0393 1.5842324,0.0375 0.2388068,0.0351 0.4998173,0.0545 0.6982051,0.19189 0.1215267,0.0842 0.2894526,0.21408 0.2602836,0.35893 -0.090223,0.44805 -0.7465885,0.54524 -1.1721545,0.71263 -0.1505394,0.0592 -0.4753374,0.098 -0.4753374,0.098"
         id="path17"
         sodipodi:nodetypes="ccaaaac" /><path
         style="fill:none;stroke:#00ff00;stroke-width:0.499999;stroke-linecap:round;stroke-linejoin:round"
         d="M 6.2924158,146.27667 V 144.1465"
         id="path18" /><path
         style="fill:none;stroke:#00ff00;stroke-width:0.499999;stroke-linecap:round;stroke-linejoin:round"
         d="m 6.9188553,144.52235 c 0,0 0.4614915,-0.24538 0.712588,-0.30798 0.225468,-0.0562 0.6948647,-0.0562 0.6948647,-0.0562"
         id="path19"
         sodipodi:nodetypes="cac" /><path
         style="fill:none;stroke:#00ff00;stroke-width:0.499999;stroke-linecap:round;stroke-linejoin:round"
         d="m 9.0702773,146.28137 v -1.99495"
         id="path20" /><path
         style="fill:none;stroke:#00ff00;stroke-width:0.499999;stroke-linecap:round;stroke-linejoin:round"
         d="m 9.8122012,146.19216 c 0,0 0.5172578,-0.36382 0.7532828,-0.57318 0.261844,-0.23227 0.548422,-0.45522 0.730937,-0.7538 0.146182,-0.23915 0.270273,-0.79612 0.270273,-0.79612"
         id="path21"
         sodipodi:nodetypes="caac" /><path
         style="fill:none;stroke:#00ff00;stroke-width:0.499999;stroke-linecap:round;stroke-linejoin:round"
         d="m 10.082236,144.82876 1.471227,1.45149"
         id="path22" /><path
         style="fill:none;stroke:#00ff00;stroke-width:0.499999;stroke-linecap:round;stroke-linejoin:round"
         d="m 9.083085,143.7401 c 0,0 -0.1601514,-0.0623 -0.1690524,-0.13355 -0.00939,-0.0751 0.062729,-0.17303 0.1381164,-0.18028 0.044867,-0.005 0.1011998,0.0896 0.1011998,0.0896"
         id="path23"
         sodipodi:nodetypes="caac" /></g><g
       id="g3"
       transform="matrix(0.91848516,0,0,0.9172337,-121.9468,-144.19573)"
       style="stroke-width:1.08949"><path
         style="fill:none;stroke:#00ff00;stroke-width:0.544746;stroke-linecap:round;stroke-linejoin:round;stroke-dasharray:none"
         d="m 50.165557,326.95202 0.02056,-3.24703 1.370069,-3.63403 1.651479,-0.0291 0.72618,1.51568 1.009333,0.96295"
         id="path11271" /><path
         style="fill:none;stroke:#00ff00;stroke-width:0.544746;stroke-linecap:round;stroke-linejoin:round;stroke-dasharray:none"
         d="m 52.28341,319.36535 0.0084,-0.45281"
         id="path11273" /><path
         style="fill:none;stroke:#00ff00;stroke-width:0.544746;stroke-linecap:round;stroke-linejoin:round;stroke-dasharray:none"
         d="m 53.062526,318.42399 c -0.41189,0.13634 -0.921051,-0.31422 -1.088005,-0.71537 -0.1178,-0.28305 -0.03187,-0.68265 0.182334,-0.90169 0.175262,-0.17921 0.498405,-0.25193 0.733102,-0.16444 0.289541,0.10794 0.50805,0.43948 0.552116,0.74585 0.05235,0.36399 -0.03103,0.92029 -0.379547,1.03565 z"
         id="path11275"
         sodipodi:nodetypes="aaaaaa" /><path
         style="fill:none;stroke:#00ff00;stroke-width:0.544746;stroke-linecap:round;stroke-linejoin:round;stroke-dasharray:none"
         d="m 55.98776,323.32401 c 0.332818,0.0689 0.686378,-0.33233 0.778628,-0.66296 0.06509,-0.23329 -0.03904,-0.53924 -0.225961,-0.69143 -0.152944,-0.12452 -0.410854,-0.15166 -0.585059,-0.0611 -0.214913,0.11167 -0.353731,0.3924 -0.359343,0.63717 -0.0067,0.29081 0.110125,0.72009 0.391735,0.77837 z"
         id="path11281"
         sodipodi:nodetypes="aaaaaa" /><path
         id="path11291"
         style="fill:none;stroke:#00ff00;stroke-width:0.544746;stroke-linecap:round;stroke-linejoin:round;stroke-dasharray:none"
         d="m 53.475732,329.55082 -0.182457,-2.89627 -1.929982,0.13936 -0.284587,2.81462"
         sodipodi:nodetypes="cccc" /><path
         style="fill:none;stroke:#00ff00;stroke-width:0.544746;stroke-linecap:round;stroke-linejoin:round;stroke-dasharray:none"
         d="m 56.169592,324.25526 0.227321,0.4711 m 0.608646,1.26135 0.242939,0.50345 0.289758,2.39605 m -0.207171,0.75299 c 0,0 0.129947,0.16466 0.222788,0.16773 0.0949,0.003 0.238525,-0.15605 0.238525,-0.15605"
         id="path11434"
         sodipodi:nodetypes="ccccc" /><path
         style="fill:none;stroke:#00ff00;stroke-width:0.544746;stroke-linecap:round;stroke-linejoin:round;stroke-dasharray:none"
         d="m 54.956344,329.66966 0.198481,-0.9972 0.972782,-0.11748 0.439308,1.0816"
         id="path11438"
         sodipodi:nodetypes="cccc" /><path
         style="fill:none;stroke:#00ff00;stroke-width:0.544746;stroke-linecap:round;stroke-linejoin:round;stroke-dasharray:none"
         d="m 55.013451,324.24384 -0.801395,2.38129 2.451322,-1.18043"
         id="path11442" /><path
         style="fill:none;stroke:#00ff00;stroke-width:0.544746;stroke-linecap:round;stroke-linejoin:round;stroke-dasharray:none"
         d="m 57.192953,324.98562 c 0,0 0.199995,0.0672 0.243584,0.15263 0.04337,0.085 -0.01908,0.2858 -0.01908,0.2858"
         id="path11444-3"
         sodipodi:nodetypes="cac" /><path
         style="fill:none;stroke:#00ff00;stroke-width:0.544746;stroke-linecap:round;stroke-linejoin:round;stroke-dasharray:none"
         d="m 56.832938,323.72406 c 0,0 0.312547,-1.3e-4 0.387087,0.11178 0.07295,0.10953 0.03826,0.29025 -0.04454,0.3925 -0.03706,0.0458 -0.167459,0.0557 -0.167459,0.0557"
         id="path11446-6"
         sodipodi:nodetypes="caac" /><path
         style="fill:none;stroke:#00ff00;stroke-width:0.544746;stroke-linecap:round;stroke-linejoin:round;stroke-dasharray:none"
         d="m 60.857205,312.8594 h -1.905623 v 1.9359"
         id="path59762" /><path
         style="fill:none;stroke:#00ff00;stroke-width:0.544746;stroke-linecap:round;stroke-linejoin:round;stroke-dasharray:none"
         d="M 58.096607,312.8594 H 57.04597"
         id="path59764" /><path
         style="fill:none;stroke:#00ff00;stroke-width:0.544746;stroke-linecap:round;stroke-linejoin:round;stroke-dasharray:none"
         d="m 58.951593,311.9968 v -1.04282"
         id="path59766" /><path
         style="fill:none;stroke:#00ff00;stroke-width:0.544746;stroke-linecap:round;stroke-linejoin:round;stroke-dasharray:none"
         d="m 47.564048,311.78324 c 0,0 0.775567,-0.54273 1.129775,-0.85507 0.397225,-0.35027 0.815055,-0.69695 1.109703,-1.1368 0.184785,-0.27584 0.394248,-0.9145 0.394248,-0.9145 l 0.02667,6.623"
         id="path60819"
         sodipodi:nodetypes="csscc" /><path
         style="fill:none;stroke:#00ff00;stroke-width:0.544746;stroke-linecap:round;stroke-linejoin:round;stroke-dasharray:none"
         d="m 48.033356,312.46957 c 0,0 0.693855,-0.47744 1.013468,-0.75047 0.15669,-0.13386 0.441014,-0.43328 0.441014,-0.43328"
         id="path60823"
         sodipodi:nodetypes="cac" /><path
         style="fill:none;stroke:#00ff00;stroke-width:0.544746;stroke-linecap:round;stroke-linejoin:round;stroke-dasharray:none"
         d="m 49.328881,312.75699 v 2.26247"
         id="path60825" /><ellipse
         style="fill:none;stroke:#00ff00;stroke-width:0.544746;stroke-linecap:round;stroke-linejoin:round;stroke-dasharray:none"
         id="path19815"
         cx="96.652679"
         cy="323.26001"
         rx="5.7479305"
         ry="5.7480369" /><path
         style="fill:none;stroke:#00ff00;stroke-width:0.544746;stroke-linecap:round;stroke-linejoin:round;stroke-dasharray:none"
         d="m 96.69923,319.57559 v 3.79132 l 1.704568,0.98414"
         id="path19817"
         sodipodi:nodetypes="ccc" /><path
         style="fill:none;stroke:#00ff00;stroke-width:0.544746;stroke-linecap:round;stroke-linejoin:round;stroke-dasharray:none"
         d="m 90.904754,323.25999 h 0.907259"
         id="path19823" /><path
         style="fill:none;stroke:#00ff00;stroke-width:0.544746;stroke-linecap:round;stroke-linejoin:round;stroke-dasharray:none"
         d="m 101.49335,323.25999 h 0.90726"
         id="path19825" /><path
         style="fill:none;stroke:#00ff00;stroke-width:0.544746;stroke-linecap:round;stroke-linejoin:round;stroke-dasharray:none"
         d="m 96.652685,329.00802 v -0.90727"
         id="path19827" /><path
         style="fill:none;stroke:#00ff00;stroke-width:0.544746;stroke-linecap:round;stroke-linejoin:round;stroke-dasharray:none"
         d="m 96.652685,318.41923 v -0.90728"
         id="path19829" /><path
         style="fill:none;stroke:#00ff00;stroke-width:0.544746;stroke-linecap:round;stroke-linejoin:round;stroke-dasharray:none"
         d="m 69.85846,321.52884 0.0032,-2.15785"
         id="path22772"
         sodipodi:nodetypes="cc" /><path
         style="fill:none;stroke:#00ff00;stroke-width:0.544746;stroke-linecap:round;stroke-linejoin:round;stroke-dasharray:none"
         d="m 69.797705,318.61549 c 0,0 -0.963602,-0.40891 -1.476457,-0.47018 -0.449459,-0.0537 -1.1462,-0.10955 -1.620259,-0.14487"
         id="path22774"
         sodipodi:nodetypes="csc" /><path
         style="fill:none;stroke:#00ff00;stroke-width:0.544746;stroke-linecap:round;stroke-linejoin:round;stroke-dasharray:none"
         d="m 65.609252,318.27464 c 0,0 0.0047,-0.45502 -0.161354,-0.54841 -0.151842,-0.0854 -0.505,0.13446 -0.505,0.13446"
         id="path22776"
         sodipodi:nodetypes="cac" /><path
         style="fill:none;stroke:#00ff00;stroke-width:0.544746;stroke-linecap:round;stroke-linejoin:round;stroke-dasharray:none"
         d="m 64.925847,317.25541 c 0,0 -0.351638,-1.86271 -0.247075,-2.79071 0.06163,-0.54709 0.245495,-1.08768 0.508105,-1.57156 0.101687,-0.18737 0.403009,-0.49659 0.403009,-0.49659"
         id="path22778"
         sodipodi:nodetypes="caac" /><path
         style="fill:none;stroke:#00ff00;stroke-width:0.544746;stroke-linecap:round;stroke-linejoin:round;stroke-dasharray:none"
         d="m 66.253575,312.41639 c 0,0 -0.259806,1.02841 -0.229214,1.5497 0.01393,0.23698 0.185882,0.68745 0.185882,0.68745"
         id="path22780"
         sodipodi:nodetypes="cac" /><path
         style="fill:none;stroke:#00ff00;stroke-width:0.544746;stroke-linecap:round;stroke-linejoin:round;stroke-dasharray:none"
         d="m 66.390939,311.86341 c 0,0 -0.126872,-0.32631 -0.273937,-0.37177 -0.107686,-0.0333 -0.255129,0.0188 -0.3192,0.11156 -0.0316,0.0457 0.0042,0.16667 0.0042,0.16667"
         id="path22782"
         sodipodi:nodetypes="caac" /><path
         style="fill:none;stroke:#00ff00;stroke-width:0.544746;stroke-linecap:round;stroke-linejoin:round;stroke-dasharray:none"
         d="m 66.692441,311.24885 0.192338,-0.37483"
         id="path22784" /><path
         style="fill:none;stroke:#00ff00;stroke-width:0.544746;stroke-linecap:round;stroke-linejoin:round;stroke-dasharray:none"
         d="m 66.995096,309.93517 c 0.07586,0.31565 0.449487,0.47749 0.60814,0.76072 0.111581,0.19919 0.0369,0.52693 0.232818,0.64416 0.126171,0.0755 0.331912,0.0394 0.436428,-0.064 0.381714,-0.3777 0.388912,-1.07258 0.250439,-1.59141 -0.08794,-0.32952 -0.314333,-0.70083 -0.641529,-0.79703 -0.242734,-0.0714 -0.552237,0.0504 -0.720243,0.23957 -0.182566,0.20558 -0.230301,0.54062 -0.166053,0.80795 z"
         id="path22786"
         sodipodi:nodetypes="aaaaaaaa" /><path
         style="fill:none;stroke:#00ff00;stroke-width:0.544746;stroke-linecap:round;stroke-linejoin:round;stroke-dasharray:none"
         d="m 69.321998,315.33684 c 0,0 -1.111601,0.5447 -1.701922,0.50436 -0.39707,-0.0274 -1.088022,-0.49186 -1.088022,-0.49186"
         id="path22788"
         sodipodi:nodetypes="cac" /><path
         style="fill:none;stroke:#00ff00;stroke-width:0.544746;stroke-linecap:round;stroke-linejoin:round;stroke-dasharray:none"
         d="m 70.65343,315.29177 c 0,0 0.555082,0.0214 0.696689,-0.1713 0.100624,-0.13693 0.08205,-0.38257 -0.03174,-0.50879 -0.147291,-0.1634 -0.432956,-0.13879 -0.650914,-0.10895 -0.23968,0.0328 -0.528171,0.10321 -0.657257,0.30783 -0.08388,0.13296 0.0034,0.47161 0.0034,0.47161"
         id="path22792"
         sodipodi:nodetypes="caaaac" /><path
         style="fill:none;stroke:#00ff00;stroke-width:0.544746;stroke-linecap:round;stroke-linejoin:round;stroke-dasharray:none"
         d="M 67.224793,316.91235 H 80.153282"
         id="path23042" /><path
         style="fill:none;stroke:#00ff00;stroke-width:0.544746;stroke-linecap:round;stroke-linejoin:round;stroke-dasharray:none"
         d="m 73.024568,317.9163 v 5.28886"
         id="path23044" /><path
         style="fill:none;stroke:#00ff00;stroke-width:0.544746;stroke-linecap:round;stroke-linejoin:round;stroke-dasharray:none"
         d="m 74.425891,318.0231 v 5.22489"
         id="path23046"
         sodipodi:nodetypes="cc" /><path
         style="fill:none;stroke:#00ff00;stroke-width:0.544746;stroke-linecap:round;stroke-linejoin:round;stroke-dasharray:none"
         d="m 77.594013,321.52884 -0.0032,-2.15785"
         id="path23459"
         sodipodi:nodetypes="cc" /><path
         style="fill:none;stroke:#00ff00;stroke-width:0.544746;stroke-linecap:round;stroke-linejoin:round;stroke-dasharray:none"
         d="m 77.654768,318.61549 c 0,0 0.963602,-0.40891 1.476457,-0.47018 0.449459,-0.0537 1.1462,-0.10955 1.620259,-0.14487"
         id="path23461"
         sodipodi:nodetypes="csc" /><path
         style="fill:none;stroke:#00ff00;stroke-width:0.544746;stroke-linecap:round;stroke-linejoin:round;stroke-dasharray:none"
         d="m 81.843221,318.27464 c 0,0 -0.0047,-0.45502 0.161354,-0.54841 0.151842,-0.0854 0.505,0.13446 0.505,0.13446"
         id="path23463"
         sodipodi:nodetypes="cac" /><path
         style="fill:none;stroke:#00ff00;stroke-width:0.544746;stroke-linecap:round;stroke-linejoin:round;stroke-dasharray:none"
         d="m 82.526626,317.25541 c 0,0 0.351638,-1.86271 0.247075,-2.79071 -0.06163,-0.54709 -0.245495,-1.08768 -0.508105,-1.57156 -0.101687,-0.18737 -0.403009,-0.49659 -0.403009,-0.49659"
         id="path23465"
         sodipodi:nodetypes="caac" /><path
         style="fill:none;stroke:#00ff00;stroke-width:0.544746;stroke-linecap:round;stroke-linejoin:round;stroke-dasharray:none"
         d="m 81.198898,312.41639 c 0,0 0.259806,1.02841 0.229214,1.5497 -0.01393,0.23698 -0.185882,0.68745 -0.185882,0.68745"
         id="path23467"
         sodipodi:nodetypes="cac" /><path
         style="fill:none;stroke:#00ff00;stroke-width:0.544746;stroke-linecap:round;stroke-linejoin:round;stroke-dasharray:none"
         d="m 81.061534,311.86341 c 0,0 0.126872,-0.32631 0.273937,-0.37177 0.107686,-0.0333 0.255129,0.0188 0.3192,0.11156 0.0316,0.0457 -0.0042,0.16667 -0.0042,0.16667"
         id="path23469"
         sodipodi:nodetypes="caac" /><path
         style="fill:none;stroke:#00ff00;stroke-width:0.544746;stroke-linecap:round;stroke-linejoin:round;stroke-dasharray:none"
         d="m 80.760032,311.24885 -0.192338,-0.37483"
         id="path23471" /><path
         style="fill:none;stroke:#00ff00;stroke-width:0.544746;stroke-linecap:round;stroke-linejoin:round;stroke-dasharray:none"
         d="m 80.457377,309.93517 c -0.07586,0.31565 -0.449487,0.47749 -0.60814,0.76072 -0.111581,0.19919 -0.0369,0.52693 -0.232818,0.64416 -0.126171,0.0755 -0.331912,0.0394 -0.436428,-0.064 -0.381714,-0.3777 -0.388912,-1.07258 -0.250439,-1.59141 0.08794,-0.32952 0.314333,-0.70083 0.641529,-0.79703 0.242734,-0.0714 0.552237,0.0504 0.720243,0.23957 0.182566,0.20558 0.230301,0.54062 0.166053,0.80795 z"
         id="path23473"
         sodipodi:nodetypes="aaaaaaaa" /><path
         style="fill:none;stroke:#00ff00;stroke-width:0.544746;stroke-linecap:round;stroke-linejoin:round;stroke-dasharray:none"
         d="m 78.130475,315.33684 c 0,0 1.111601,0.5447 1.701922,0.50436 0.39707,-0.0274 1.088022,-0.49186 1.088022,-0.49186"
         id="path23475"
         sodipodi:nodetypes="cac" /><path
         style="fill:none;stroke:#00ff00;stroke-width:0.544746;stroke-linecap:round;stroke-linejoin:round;stroke-dasharray:none"
         d="m 76.799043,315.29177 c 0,0 -0.555082,0.0214 -0.696689,-0.1713 -0.100624,-0.13693 -0.08205,-0.38257 0.03174,-0.50879 0.147291,-0.1634 0.432956,-0.13879 0.650914,-0.10895 0.23968,0.0328 0.528171,0.10321 0.657257,0.30783 0.08388,0.13296 -0.0034,0.47161 -0.0034,0.47161"
         id="path23477"
         sodipodi:nodetypes="caaaac" /><path
         style="fill:none;stroke:#00ff00;stroke-width:0.544746;stroke-linecap:round;stroke-linejoin:round;stroke-dasharray:none"
         d="m 90.842045,315.4588 c -0.400604,-0.78255 -0.388312,-1.74105 -0.321838,-2.61765 0.06107,-0.80527 0.162957,-1.69208 0.65488,-2.33258 0.282441,-0.36775 0.736272,-0.76147 1.196985,-0.70882 0.584881,0.0668 0.994047,0.70352 1.277298,1.21955 0.251826,0.45879 0.39381,0.91731 0.464686,1.44731"
         id="path60821-8"
         sodipodi:nodetypes="caaasc" /><path
         style="fill:none;stroke:#00ff00;stroke-width:0.544746;stroke-linecap:round;stroke-linejoin:round;stroke-dasharray:none"
         d="m 93.102674,312.162 c 0,0 -0.159679,-0.73616 -0.413936,-0.9805 -0.1509,-0.14501 -0.387007,-0.27911 -0.585372,-0.21668 -0.332012,0.10451 -0.480862,0.53268 -0.606647,0.86203 -0.149136,0.39047 -0.141253,0.82881 -0.147587,1.24763 -0.0057,0.37996 0.08194,1.03616 0.08194,1.03616"
         id="path60827-4"
         sodipodi:nodetypes="caaasc" /><path
         style="fill:none;stroke:#00ff00;stroke-width:0.544746;stroke-linecap:round;stroke-linejoin:round;stroke-dasharray:none"
         d="m 91.41929,315.933 c 0,0 0.899976,0.30332 1.335812,0.19194 0.422676,-0.10801 0.820942,-0.41193 1.047303,-0.78485 0.389362,-0.64145 0.366212,-2.22109 0.366212,-2.22109"
         id="path20115-5"
         sodipodi:nodetypes="caac" /><path
         style="fill:none;stroke:#00ff00;stroke-width:0.544746;stroke-linecap:round;stroke-linejoin:round;stroke-dasharray:none"
         d="m 92.220425,315.12601 c 0,0 0.373497,0.0184 0.516513,-0.0839 0.17589,-0.12587 0.24855,-0.36671 0.31423,-0.57629 0.06012,-0.19182 0.06596,-0.60073 0.06596,-0.60073"
         id="path20117-0"
         sodipodi:nodetypes="caac" /><path
         style="fill:none;stroke:#00ff00;stroke-width:0.544746;stroke-linecap:round;stroke-linejoin:round;stroke-dasharray:none"
         d="m 103.323,315.33605 c -0.4006,-0.78255 -0.38831,-1.74105 -0.32183,-2.61765 0.0611,-0.80527 0.16295,-1.69208 0.65488,-2.33258 0.28244,-0.36775 0.73627,-0.76148 1.19698,-0.70882 0.58488,0.0668 0.99405,0.70352 1.2773,1.21955 0.25182,0.45879 0.39381,0.91731 0.46468,1.44731"
         id="path24093"
         sodipodi:nodetypes="caaasc" /><path
         style="fill:none;stroke:#00ff00;stroke-width:0.544746;stroke-linecap:round;stroke-linejoin:round;stroke-dasharray:none"
         d="m 105.67073,312.10565 c 0,0 -0.16476,-0.75728 -0.42712,-1.00862 -0.1557,-0.14917 -0.39932,-0.28713 -0.604,-0.22289 -0.34258,0.1075 -0.49617,0.54795 -0.62596,0.88675 -0.15388,0.40168 -0.14575,0.85258 -0.15228,1.28341 -0.006,0.39087 0.0845,1.06589 0.0845,1.06589"
         id="path24095"
         sodipodi:nodetypes="caaasc" /><path
         style="fill:none;stroke:#00ff00;stroke-width:0.544746;stroke-linecap:round;stroke-linejoin:round;stroke-dasharray:none"
         d="m 103.90025,315.81025 c 0,0 0.89997,0.30332 1.33581,0.19194 0.42268,-0.10801 0.82094,-0.41194 1.0473,-0.78485 0.38936,-0.64145 0.36621,-2.22109 0.36621,-2.22109"
         id="path24097"
         sodipodi:nodetypes="caac" /><path
         style="fill:none;stroke:#00ff00;stroke-width:0.544746;stroke-linecap:round;stroke-linejoin:round;stroke-dasharray:none"
         d="m 104.69867,315.04365 c 0,0 0.44683,0.0217 0.61793,-0.0986 0.21042,-0.14802 0.29735,-0.43125 0.37593,-0.67771 0.0719,-0.22558 0.0789,-0.70645 0.0789,-0.70645"
         id="path24099"
         sodipodi:nodetypes="caac" /><path
         style="fill:none;stroke:#00ff00;stroke-width:0.544746;stroke-linecap:round;stroke-linejoin:round;stroke-dasharray:none"
         d="m 95.528077,313.88201 h 2.15011"
         id="path24300" /><path
         style="fill:none;stroke:#00ff00;stroke-width:0.544746;stroke-linecap:round;stroke-linejoin:round;stroke-dasharray:none"
         d="m 86.261169,311.18925 c 0.0098,-0.49845 0.241661,-1.07473 0.672754,-1.30872 0.575109,-0.31216 1.419972,-0.18085 1.953017,0.1987 0.290339,0.20673 0.402174,0.61667 0.450272,0.96983 0.07171,0.52654 0.106555,1.18827 -0.260189,1.57283 -0.293611,0.30787 -0.829549,0.26044 -1.247899,0.26776"
         id="path24500"
         sodipodi:nodetypes="caaaaa" /><path
         style="fill:none;stroke:#00ff00;stroke-width:0.544746;stroke-linecap:round;stroke-linejoin:round;stroke-dasharray:none"
         d="m 89.074421,313.51223 c 0.678725,0.73906 0.259086,1.88641 -0.331437,2.47128 -0.283733,0.28101 -0.794138,0.2083 -1.188872,0.14781 -0.361091,-0.0553 -0.755336,-0.18085 -0.997157,-0.45466 -0.274931,-0.3113 -0.303061,-0.78161 -0.372823,-1.18889"
         id="path24502"
         sodipodi:nodetypes="caaaa" /><path
         style="fill:none;stroke:#00ff00;stroke-width:0.544746;stroke-linecap:round;stroke-linejoin:round;stroke-dasharray:none"
         d="m 87.235582,315.21412 c 0.343867,0.2232 0.883999,0.0999 1.105849,-0.20272 0.189762,-0.25881 0.162891,-0.72856 -0.117704,-0.95619"
         id="path24504"
         sodipodi:nodetypes="cac" /><path
         style="fill:none;stroke:#00ff00;stroke-width:0.544746;stroke-linecap:round;stroke-linejoin:round;stroke-dasharray:none"
         d="m 87.074066,311.30678 c 0.04056,-0.35515 0.290665,-0.61473 0.583546,-0.68595 0.250638,-0.061 0.562529,0.0858 0.716297,0.29142 0.141851,0.1897 0.139297,0.48017 0.06775,0.70547 -0.03031,0.0954 -0.196185,0.22854 -0.196185,0.22854"
         id="path24506"
         sodipodi:nodetypes="caaac" /><path
         style="fill:none;stroke:#00ff00;stroke-width:0.544746;stroke-linecap:round;stroke-linejoin:round;stroke-dasharray:none"
         d="m 94.238812,310.52594 c 0.329375,-0.37442 0.754679,-0.97998 0.348475,-1.45237"
         id="path24710"
         sodipodi:nodetypes="cc" /><path
         style="fill:none;stroke:#00ff00;stroke-width:0.544746;stroke-linecap:round;stroke-linejoin:round;stroke-dasharray:none"
         d="m 106.78524,310.52594 c 0.32937,-0.37442 0.75468,-0.97998 0.34847,-1.45237"
         id="path24712"
         sodipodi:nodetypes="cc" /><path
         style="fill:none;stroke:#00ff00;stroke-width:0.544746;stroke-linecap:round;stroke-linejoin:round;stroke-dasharray:none"
         d="m 100.44438,309.83831 c 0,0 -1.174488,1.3725 -1.37718,2.21917 -0.249312,1.0414 -0.27312,2.28038 0.274212,3.20076 0.262732,0.4418 0.775518,0.89918 1.287118,0.84929 0.48783,-0.0476 0.84292,-0.58641 1.04777,-1.0317 0.25098,-0.54558 0.41785,-1.27327 0.12456,-1.79733 -0.15046,-0.26884 -0.51411,-0.38569 -0.81931,-0.42773 -0.33366,-0.046 -0.988796,0.20804 -0.988796,0.20804"
         id="path24918"
         sodipodi:nodetypes="caaaaaac" /><path
         style="fill:none;stroke:#00ff00;stroke-width:0.544746;stroke-linecap:round;stroke-linejoin:round;stroke-dasharray:none"
         d="m 99.889012,314.20128 c 0,0 0.06581,0.58421 0.266398,0.76653 0.10262,0.0933 0.27329,0.1445 0.40474,0.0996 0.23103,-0.0789 0.35694,-0.34958 0.45345,-0.5729 0.0599,-0.13849 0.0657,-0.44751 0.0657,-0.44751"
         id="path24920"
         sodipodi:nodetypes="caaac" /><path
         style="fill:none;stroke:#00ff00;stroke-width:0.544746;stroke-linecap:round;stroke-linejoin:round;stroke-dasharray:none"
         d="m 100.03949,312.16928 c 0,0 0.31143,-0.65939 0.52888,-0.94896 0.26952,-0.3589 0.94674,-0.95746 0.94674,-0.95746"
         id="path24922"
         sodipodi:nodetypes="csc" /><path
         style="fill:none;stroke:#00ff00;stroke-width:0.544746;stroke-linecap:round;stroke-linejoin:round;stroke-dasharray:none"
         d="m 72.625419,327.39949 h 2.15011"
         id="path24300-3" /><path
         style="fill:none;stroke:#00ff00;stroke-width:0.544746;stroke-linecap:round;stroke-linejoin:round;stroke-dasharray:none"
         d="m 77.799796,323.29199 c 0,0 -1.174491,1.3725 -1.377183,2.21917 -0.249312,1.0414 -0.27312,2.28038 0.274212,3.20076 0.262732,0.4418 0.775523,0.89918 1.287118,0.84929 0.487837,-0.0476 0.842925,-0.58641 1.047771,-1.0317 0.250983,-0.54558 0.417856,-1.27327 0.124562,-1.79733 -0.15046,-0.26884 -0.514112,-0.38569 -0.819311,-0.42773 -0.333665,-0.046 -0.988798,0.20804 -0.988798,0.20804"
         id="path24918-1"
         sodipodi:nodetypes="caaaaaac" /><path
         style="fill:none;stroke:#00ff00;stroke-width:0.544746;stroke-linecap:round;stroke-linejoin:round;stroke-dasharray:none"
         d="m 77.20872,327.62216 c 0,0 0.07404,0.66039 0.299706,0.86648 0.115454,0.10544 0.307463,0.16334 0.455351,0.11258 0.259925,-0.0892 0.401586,-0.39516 0.510167,-0.6476 0.06733,-0.15655 0.07395,-0.50586 0.07395,-0.50586"
         id="path24920-0"
         sodipodi:nodetypes="caaac" /><path
         style="fill:none;stroke:#00ff00;stroke-width:0.544746;stroke-linecap:round;stroke-linejoin:round;stroke-dasharray:none"
         d="m 77.394904,325.62296 c 0,0 0.311426,-0.65939 0.528881,-0.94896 0.269519,-0.3589 0.946747,-0.95746 0.946747,-0.95746"
         id="path24922-6"
         sodipodi:nodetypes="csc" /><path
         style="fill:none;stroke:#00ff00;stroke-width:0.544746;stroke-linecap:round;stroke-linejoin:round;stroke-dasharray:none"
         d="m 68.514707,326.33078 c 0,0 -0.04784,-1.49401 0.279733,-2.13126 0.205739,-0.40023 0.553377,-0.79899 0.98629,-0.92187 0.420652,-0.1194 0.921998,0.0165 1.286039,0.25872 0.257926,0.17163 0.433074,0.4726 0.520997,0.76967 0.154768,0.52292 0.150649,1.12187 -0.03199,1.63572 -0.301563,0.84844 -1.084953,1.43838 -1.663591,2.12828 -0.411629,0.49078 -1.28487,1.42893 -1.28487,1.42893 l 3.006595,0.007"
         id="path25268"
         sodipodi:nodetypes="caaaaaacc" /><path
         style="fill:none;stroke:#00ff00;stroke-width:0.544746;stroke-linecap:round;stroke-linejoin:round;stroke-dasharray:none"
         d="m 69.297088,325.86975 c 0,0 -0.06756,-0.86359 0.112619,-1.23534 0.131692,-0.27171 0.357699,-0.58895 0.656666,-0.62177 0.246879,-0.0271 0.498081,0.17871 0.639796,0.38365 0.137539,0.19891 0.130698,0.71469 0.130698,0.71469"
         id="path25481"
         sodipodi:nodetypes="caaac" /><path
         style="fill:none;stroke:#00ff00;stroke-width:0.544746;stroke-linecap:round;stroke-linejoin:round;stroke-dasharray:none"
         d="m 70.293783,328.75763 h 1.478264"
         id="path25483" /><path
         style="fill:none;stroke:#00ff00;stroke-width:0.544746;stroke-linecap:round;stroke-linejoin:round;stroke-dasharray:none"
         d="m 68.483616,328.38097 2.157079,-2.3122"
         id="path25485" /><path
         style="fill:none;stroke:#00ff00;stroke-width:0.544746;stroke-linecap:round;stroke-linejoin:round;stroke-dasharray:none"
         d="m 51.895031,314.82176 c -0.400604,-0.78255 -0.388312,-1.74105 -0.321838,-2.61765 0.06107,-0.80527 0.162957,-1.69208 0.65488,-2.33258 0.282441,-0.36775 0.736272,-0.76148 1.196985,-0.70882 0.584881,0.0668 0.994047,0.70352 1.277298,1.21955 0.251826,0.45879 0.39381,0.91731 0.464686,1.44731"
         id="path24093-6"
         sodipodi:nodetypes="caaasc" /><path
         style="fill:none;stroke:#00ff00;stroke-width:0.544746;stroke-linecap:round;stroke-linejoin:round;stroke-dasharray:none"
         d="m 54.242755,311.59136 c 0,0 -0.164762,-0.75728 -0.427113,-1.00862 -0.155702,-0.14917 -0.399325,-0.28713 -0.604004,-0.22289 -0.34258,0.1075 -0.496167,0.54795 -0.625957,0.88675 -0.153882,0.40168 -0.145749,0.85258 -0.152285,1.28341 -0.0059,0.39087 0.08454,1.06589 0.08454,1.06589"
         id="path24095-7"
         sodipodi:nodetypes="caaasc" /><path
         style="fill:none;stroke:#00ff00;stroke-width:0.544746;stroke-linecap:round;stroke-linejoin:round;stroke-dasharray:none"
         d="m 52.472276,315.29596 c 0,0 0.899976,0.30332 1.335812,0.19194 0.422676,-0.10801 0.820942,-0.41194 1.047303,-0.78485 0.389362,-0.64145 0.366212,-2.22109 0.366212,-2.22109"
         id="path24097-5"
         sodipodi:nodetypes="caac" /><path
         style="fill:none;stroke:#00ff00;stroke-width:0.544746;stroke-linecap:round;stroke-linejoin:round;stroke-dasharray:none"
         d="m 53.270703,314.52936 c 0,0 0.446829,0.0217 0.617925,-0.0986 0.210424,-0.14802 0.29735,-0.43125 0.375926,-0.67771 0.07192,-0.22558 0.07891,-0.70645 0.07891,-0.70645"
         id="path24099-3"
         sodipodi:nodetypes="caac" /></g><g
       id="g2"
       transform="translate(-0.69255214,0.13152504)"><path
         style="fill:none;stroke:#00ff00;stroke-width:0.499999;stroke-linecap:round;stroke-linejoin:round;stroke-dasharray:none"
         d="m 6.3110702,152.14071 0.123091,0.15123 0.12309,0.15123 m -8.7921446,-0.24835 v 0.11014 0.11013 m 7.526076,-0.20015 v 0.0978 0.0978 m -11.816642,0.83911 c 0,-0.10199 -0.021987,-0.27794 -0.028462,-0.4471 -0.00648,-0.16917 0.00256,-0.33155 0.064612,-0.40641 0.033278,-0.0401 0.076782,-0.054 0.1252605,-0.0576 0.048479,-0.004 0.1019325,0.003 0.1551095,0.004 0.099693,0.002 0.19565,0.007 0.2843888,0.0245 0.088739,0.0173 0.1702592,0.0469 0.2410782,0.0978 0.069714,0.0501 0.1118425,0.12038 0.1330862,0.19905 0.021244,0.0787 0.021603,0.16575 0.00778,0.24951 -0.027748,0.16811 -0.122427,0.26028 -0.2461212,0.31055 -0.1236943,0.0503 -0.2764033,0.0586 -0.4202098,0.0591 -0.056547,2.7e-4 -0.1099233,-0.006 -0.1575205,-0.003 -0.047597,0.003 -0.089416,0.0167 -0.1228495,0.057 -0.044871,0.0542 -0.053908,0.18858 -0.051728,0.32794 0.00218,0.13935 0.015578,0.28365 0.015578,0.35754 m 3.20034,-1.57953 v 0.18483 0.18483 0.13444 0.13443 c 0,0.12077 -0.010058,0.255 -0.00969,0.38836 3.712e-4,0.13336 0.011171,0.26585 0.052886,0.38312 0.035195,0.099 0.1064287,0.14933 0.1937879,0.17517 0.087359,0.0259 0.1908436,0.0272 0.2905401,0.028 m 1.301237,-1.61313 v 0.18483 0.18483 0.13444 0.13443 c 0,0.11794 -0.016768,0.27257 -0.016254,0.42447 5.137e-4,0.15191 0.018309,0.30109 0.087434,0.40815 0.047405,0.0734 0.1183754,0.10857 0.1990531,0.12554 0.080678,0.017 0.1710629,0.0157 0.25729689,0.0164 m -4.11472399,-0.70575 c 0.014075,-0.0691 0.019245,-0.13926 0.041231,-0.21002 0.021986,-0.0708 0.060789,-0.14212 0.1421287,-0.21365 0.052538,-0.0462 0.1176585,-0.0832 0.1888973,-0.10807 0.071239,-0.0249 0.1485962,-0.0375 0.2256097,-0.0351 0.1090945,0.004 0.2059045,0.0327 0.286437,0.0879 0.080532,0.0552 0.1447875,0.13631 0.188772,0.2437 0.0786,0.19191 -0.047922,0.259 -0.2254027,0.27817 -0.1774807,0.0192 -0.4059203,-0.01 -0.5311563,-0.009 -0.061748,1e-4 -0.1229815,-0.007 -0.1749006,-0.002 -0.051919,0.006 -0.094523,0.0253 -0.1190114,0.0793 -0.061575,0.13579 -8.224e-4,0.27476 0.1036669,0.38592 0.1044893,0.11117 0.2527156,0.19451 0.3660891,0.21903 0.098822,0.0214 0.2087527,0.0165 0.3181418,-9.8e-4 0.1093892,-0.0175 0.2182367,-0.0477 0.3148922,-0.0769 m 3.44652109,-0.63854 c 0.033545,-0.12253 0.086279,-0.25972 0.1745971,-0.36865 0.088318,-0.10892 0.2122198,-0.18958 0.3880998,-0.19904 0.1348206,-0.007 0.2809791,0.0403 0.3884788,0.12393 0.1074998,0.0837 0.1763407,0.20353 0.1565262,0.34097 -0.00945,0.0656 -0.04567,0.0991 -0.094372,0.1165 -0.048702,0.0174 -0.1098899,0.0187 -0.1692839,0.0197 -0.076946,0.001 -0.1806067,0.001 -0.2835379,8.6e-4 -0.1029311,-4.5e-4 -0.2051326,-0.001 -0.2791601,-6.5e-4 -0.045925,2.7e-4 -0.092964,-0.005 -0.1354796,-5.7e-4 -0.042516,0.004 -0.080508,0.0175 -0.1083394,0.0544 -0.050895,0.0675 -0.025429,0.1797 0.026303,0.28423 0.051732,0.10454 0.1297292,0.20139 0.1838947,0.23813 0.1277396,0.0867 0.2672001,0.12271 0.4103078,0.12267 0.1431078,-5e-5 0.2898627,-0.0362 0.4321912,-0.094 m 0.56269701,0.0336 c 0.155409,0.0288 0.382892,0.0687 0.5701354,0.0478 0.1872434,-0.0209 0.3342471,-0.10249 0.3286976,-0.31667 -0.00268,-0.1033 -0.062803,-0.17373 -0.1430064,-0.22354 -0.080203,-0.0498 -0.1804831,-0.079 -0.2634666,-0.0999 -0.073943,-0.0186 -0.1497238,-0.0325 -0.2186146,-0.0578 -0.068891,-0.0254 -0.1308919,-0.0622 -0.1772754,-0.12654 -0.1654394,-0.22963 -0.036969,-0.35359 0.166469,-0.40811 0.2034381,-0.0545 0.481844,-0.0396 0.616276,0.008 m 1.9695749,-0.0435 c 0.3485205,-0.11179 0.5670443,0.14811 0.6243278,0.46201 0.057283,0.31389 -0.046673,0.68178 -0.343114,0.78594 -0.059061,0.0208 -0.146623,0.0195 -0.2327841,0.005 -0.086161,-0.015 -0.1709219,-0.0437 -0.224381,-0.0778 -0.04505,-0.0288 -0.082438,-0.0502 -0.1161273,-0.0778 -0.033689,-0.0276 -0.063679,-0.0615 -0.093934,-0.11532 -0.029497,-0.0525 -0.039211,-0.14124 -0.041191,-0.23516 -0.00198,-0.0939 0.00377,-0.19297 0.00521,-0.26595 7.085e-4,-0.036 0.00349,-0.0775 0.011673,-0.11702 0.00818,-0.0396 0.021752,-0.0772 0.044037,-0.10559 0.053055,-0.0676 0.084089,-0.1126 0.1321275,-0.15046 0.048039,-0.0379 0.1130827,-0.0685 0.2341572,-0.10738 m 1.9693047,0.54767 c 0.03847,-0.11519 0.08934,-0.25228 0.175497,-0.36299 0.08616,-0.11071 0.207599,-0.19504 0.3872,-0.2047 0.125104,-0.007 0.271691,0.0378 0.381834,0.11985 0.110144,0.0821 0.183842,0.20166 0.163171,0.34505 -0.0079,0.055 -0.03407,0.0867 -0.06934,0.10563 -0.03527,0.0189 -0.07968,0.025 -0.124145,0.0288 -0.0741,0.006 -0.216669,0.006 -0.357311,0.004 -0.140642,-0.002 -0.279355,-0.004 -0.345734,-9.6e-4 -0.151192,0.006 -0.20411,0.10181 -0.192322,0.2169 0.01179,0.11509 0.08829,0.24987 0.195922,0.33503 0.05486,0.0434 0.116362,0.0769 0.181278,0.10103 0.06492,0.0242 0.13325,0.0391 0.201777,0.0454 0.08605,0.008 0.177833,-10e-4 0.268154,-0.0195 0.09032,-0.0183 0.179179,-0.0459 0.259374,-0.0746 m 1.547417,0.0336 c -0.21298,0.0395 -0.422145,0.0592 -0.592665,0.009 -0.17052,-0.0504 -0.302394,-0.17101 -0.360793,-0.41205 -0.07783,-0.32123 0.01689,-0.55305 0.202882,-0.68527 0.185996,-0.13222 0.463275,-0.16485 0.750576,-0.0877 m 0.527528,0.50412 c 0.01533,-0.0753 0.029,-0.1529 0.05493,-0.22586 0.02593,-0.073 0.0641,-0.14124 0.128434,-0.19781 0.04998,-0.0439 0.109196,-0.0781 0.173727,-0.10213 0.06453,-0.0241 0.134377,-0.0381 0.205611,-0.0419 0.114784,-0.006 0.2561754,0.0356 0.36567,0.11613 0.109495,0.0805 0.187092,0.19977 0.174287,0.34877 -0.0068,0.0792 -0.0554,0.11325 -0.11911,0.12751 -0.06371,0.0143 -0.142544,0.009 -0.209835,0.009 -0.07357,1.4e-4 -0.172133,-6.1e-4 -0.26896,-10e-4 -0.09683,-3.9e-4 -0.191918,-4.3e-4 -0.258542,10e-4 -0.04089,0.001 -0.08005,-0.002 -0.115597,0.002 -0.03555,0.005 -0.06749,0.0177 -0.09395,0.0513 -0.02248,0.0285 -0.02691,0.0748 -0.02344,0.12184 0.0035,0.0471 0.01486,0.095 0.02402,0.12674 0.02341,0.0812 0.06424,0.14923 0.118111,0.20509 0.05387,0.0559 0.120784,0.0995 0.196345,0.13198 0.119179,0.0512 0.248289,0.062 0.379763,0.0504 0.131474,-0.0117 0.265312,-0.0459 0.393946,-0.085 m 0.49236,0 c 0.07551,0.0307 0.161749,0.0593 0.251932,0.0773 0.09018,0.018 0.184309,0.0253 0.275596,0.0133 0.08981,-0.0118 0.196274,-0.0475 0.27696,-0.10737 0.08069,-0.0598 0.135595,-0.14377 0.122298,-0.25194 -0.01918,-0.15599 -0.192061,-0.22334 -0.376247,-0.27775 -0.184186,-0.0544 -0.379673,-0.0959 -0.444058,-0.20006 -0.03241,-0.0524 -0.04247,-0.1118 -0.03626,-0.16854 0.0062,-0.0567 0.0287,-0.11085 0.06139,-0.1528 0.02822,-0.0362 0.06116,-0.0621 0.09809,-0.0815 0.03693,-0.0194 0.07784,-0.0323 0.122013,-0.0426 0.09098,-0.0212 0.18782,-0.0246 0.28383,-0.0148 0.09601,0.01 0.191188,0.0327 0.278839,0.0641 m -15.2631618,-0.0336 h 0.1231171 0.123117 0.105479 0.105479 0.1758425 0.1758425 m 1.019889,0 h 0.123117 0.123117 0.105479 0.105479 0.175843 0.17584299 m -1.30123799,0.0336 v 0.58813 0.58812 m 5.8028157,-1.17625 v 0.084 0.084 m 1.72326,-0.16805 v 0.58813 0.58812 m -1.7232559,-0.16821 v 0.35288 0.35288 m -1.4067467,0.79605 -0.281348,0.33607 m 5.7676288,1.54593 v -0.97461 -0.23524 c 0,-0.0812 -0.0019,-0.12669 5.26e-4,-0.20165 0.0027,-0.0831 0.0062,-0.15751 0.06073,-0.23076 0.110306,-0.14821 0.276869,-0.13841 0.466254,-0.13891 m 0.386855,1.74756 v -0.90738 c 0,-0.10785 -5.26e-4,-0.19875 2.7e-5,-0.30247 3.61e-4,-0.0781 5.27e-4,-0.13415 0.01018,-0.20165 0.03529,-0.24647 0.233786,-0.33532 0.517323,-0.33606 m -9.14382891,0.0336 c 0,0.14564 0.0019,0.37107 -1.47e-4,0.50411 -0.0017,0.10887 -0.01648,0.15256 -0.03026,0.26885 -0.0113,0.0954 0.01752,0.23352 0.02307,0.33607 0.0063,0.11558 -0.0061,0.2675 -0.04876,0.36266 -0.05426,0.12103 -0.119782,0.14721 -0.231201,0.22178 -0.157054,0.10512 -0.373543,0.12573 -0.521395,0.0493 -0.17764699,-0.0919 -0.25561299,-0.30611 -0.27551399,-0.49928 -0.0241,-0.23393 0.05105,-0.51822 0.24159409,-0.65756 0.150099,-0.10976 0.383608,-0.0937 0.5510819,0.0286 0.117753,0.086 0.145204,0.1032 0.186047,0.12481 m 0.84406,-0.67214 v 0.4705 m 2.42663151,-0.40329 v 0.40329 0.23524 c 0,0.23832 -0.041739,0.56662 0.0432,0.80509 0.070045,0.19667 0.2766866,0.199 0.4843286,0.20312 M 17.248481,155.658 v 0.33608 0.26885 c 0,0.23316 -0.06694,0.62138 0.05042,0.83652 0.112009,0.20533 0.43811,0.17141 0.547445,0.17169 m -27.7831767,-1.20985 c 0.2941,-0.058 0.574583,-0.15263 0.805079,0.043 0.07246,0.0615 0.123519,0.13871 0.150986,0.2259 0.04165,0.13218 0.02515,0.22365 0.02778,0.36967 0.0017,0.0951 0.0063,0.19142 -0.03527,0.26315 -0.06929,0.11959 -0.13693,0.15071 -0.245203,0.21951 -0.144749,0.092 -0.387528,0.12782 -0.525982,0.0626 -0.228814,-0.10762 -0.2411923,-0.48279 -0.03465,-0.61229 0.279079,-0.17497 0.583239,-0.1011 0.806815,-0.1011 m 0.773709,0.70575 c 0,-0.21673 -0.06411,-0.7666 0.03615,-0.93668 0.06716,-0.11392 0.129468,-0.12443 0.245203,-0.20262 0.238052,-0.16082 0.544725,-0.13264 0.688692,0.16482 0.04751,0.0982 0.04824,0.16505 0.04972,0.26873 0.003,0.20689 1.47e-4,0.49056 1.47e-4,0.70575 m 0.984851,-1.22153 c 0.142613,-0.043 0.384049,0.0386 0.492062,0.11265 0.07034,0.0481 0.138697,0.07 0.191337,0.17491 0.05024,0.10016 0.0554,0.2159 0.05311,0.32904 -0.0019,0.0948 -0.01416,0.23871 -0.0689,0.32648 -0.08809,0.14124 -0.121712,0.19066 -0.351226,0.2604 -0.732593,0.22259 -0.910579,-1.0242 -0.316381,-1.20348 m 1.371439,0.54938 c 0.07551,-0.22614 0.206802,-0.55471 0.562698,-0.56973 0.248622,-0.0105 0.553157,0.14739 0.550105,0.43465 -0.0017,0.15745 -0.13438,0.16612 -0.268757,0.16853 -0.28488,0.005 -0.609756,-0.10895 -0.786273,0.0347 -0.135928,0.11062 0.143415,0.51267 0.25926,0.57311 0.266117,0.13884 0.578019,0.091 0.843531,-0.0364 m 0.633034,0.0672 v -0.57133 l 0.02122,-0.36264 0.189953,-0.17456 0.386692,-0.13494 m 4.185061,0.022 c 0.249094,-0.0747 0.5221859,0.0141 0.6494507,0.24694 0.0494,0.0904 0.1047116,0.23668 0.00703,0.3015 -0.1612368,0.10702 -0.5304397,0.0385 -0.7619867,0.0344 -0.116123,-0.003 -0.190287,0.01 -0.239206,-0.0778 -0.09125,-0.16352 0.20403,-0.46293 0.344712,-0.50509 m 2.7431491,-0.003 c 0.207833,-0.0569 0.3798068,-0.0152 0.5168367,0.11968 0.3426219,0.33726 0.2267001,1.0233 -0.235488,1.1397 -0.1899985,0.0478 -0.3552664,-0.007 -0.4844633,-0.1203 -0.331925,-0.28996 -0.189859,-1.03133 0.2031146,-1.13908 m 4.8884318,0.55208 c 0.08668,-0.24266 0.202143,-0.5541 0.562698,-0.56973 0.2471068,-0.0108 0.6064158,0.16531 0.5482338,0.46694 -0.02322,0.12032 -0.123773,0.13125 -0.231745,0.13575 -0.2841326,0.0118 -0.6505168,-0.10881 -0.8196508,0.0352 -0.147191,0.12532 0.176337,0.532 0.292151,0.58877 0.2503742,0.12272 0.5602148,0.0672 0.8088758,-0.052 m 0.633035,0.0672 v -0.60493 c 0,-0.0979 -0.02635,-0.22291 0.02122,-0.32904 0.0529,-0.118 0.141205,-0.14996 0.260128,-0.22179 0.164317,-0.0993 0.348703,-0.112 0.488697,-0.005 0.05893,0.0447 0.14865,0.18014 0.222029,0.18014 0.08123,0 0.115676,-0.0539 0.203658,-0.12449 0.151379,-0.12144 0.360012,-0.17829 0.523838,-0.0749 0.137934,0.087 0.196353,0.23187 0.211012,0.37444 0.02516,0.24475 0.0037,0.51303 0.0037,0.77297 m 0.633033,-0.63854 c 0.03095,-0.15199 0.05603,-0.30891 0.183361,-0.42545 0.103088,-0.0944 0.230787,-0.13918 0.379337,-0.14439 0.258421,-0.009 0.579309,0.17888 0.544136,0.46705 -0.01636,0.13401 -0.144933,0.13412 -0.262789,0.13624 -0.1539,0.003 -0.414634,-7.9e-4 -0.562696,2.1e-4 -0.09173,5.4e-4 -0.187874,-0.0202 -0.243818,0.0538 -0.139235,0.18427 0.174369,0.51177 0.314155,0.57279 0.242344,0.10581 0.512351,0.0485 0.773708,-0.0218 m 0.633035,0.0336 c 0,-0.23253 -0.0017,-0.47421 2.8e-5,-0.70575 5.26e-4,-0.0708 0.0015,-0.17115 0.03611,-0.22822 0.06905,-0.11357 0.130928,-0.1248 0.245202,-0.19892 0.186703,-0.12107 0.416439,-0.15109 0.5859,0.003 0.266943,0.24352 0.152642,0.80506 0.152642,1.12939 m -24.7235157,-1.2103 v 0.20163 m 2.743148,-0.20163 v 0.16803 m 2.426633,-0.16803 v 0.16803 m 5.9434897,-0.16803 h 0.211174 0.210849 0.3165171 m 3.2003411,0 v 1.20984 m 0.527529,-1.20984 h 0.281348 0.633034 0.281348 0.422024 m 2.1804518,0 v 0.16803 m 4.325734,-0.16803 v 0.20163 m 1.547418,-0.20163 h 0.211174 0.175681 0.422022 m -12.0276538,0.0336 c 0,0.26636 0.01172,0.5219 0.03517,0.77296 0.01139,0.12196 0.01675,0.25315 0.120622,0.35056 0.160616,0.15065 0.46343,0.0846 0.617053,-0.02 0.108325,-0.0737 0.135181,-0.0991 0.176709,-0.12892 m 5.3456228,-0.73936 v 0.94099 M 1.3874876,156.56559 c -0.07895,0.1865 -0.02954,0.43243 0.177389,0.59085 0.286032,0.21899 0.571074,0.11507 0.9128366,0.0476 m -11.4297676,-0.16847 v 0.20163 m 3.481688,-0.20163 c -1.46e-4,0.18972 0.0205,0.44368 -0.183739,0.62527 -0.109036,0.097 -0.287988,0.17782 -0.414126,0.17825 -0.09213,2.7e-4 -0.246506,-0.0707 -0.351686,-0.0978 m 6.36551299,-0.67209 v 0.16803 m -11.78721159,-1.594 c 0.08283,-0.0626 0.17362,-0.0345 0.295297,-0.0345 0.340197,-2e-5 0.728522,0.063 0.931478,0.3362 0,0 0.109506,0.28155 0.120431,0.43675 0.0198,0.28142 -0.02755,0.56644 -0.281484,0.75116 -0.194463,0.14146 -0.519526,0.18471 -0.770425,0.18932 -0.126415,0.003 -0.242746,0.0198 -0.315542,-0.0812 -0.112465,-0.15614 -0.03615,-0.66247 -0.03615,-0.85921 0,-0.13912 -0.04634,-0.66067 0.05639,-0.73842"
         id="path1-0-2"
         sodipodi:nodetypes="ccccccccccssssscssscssscccccsssscccccssssccssscssscsssssccssssscscsssssccsssssssccsssssssssssccscssssscssscsccsssccssssssscscssscsssccssssssssssscccccccccccccccccccccccccccccccscsccscccccsssssssscccccsscccssccsssssssccssssccssssscccccsscccccccsscsccsscccsssssccssssssssccssscccsccccsscccccccccccccccccccccccccccsssccccsccccscccccsssscssc" /><path
         style="fill:none;stroke:#00ff00;stroke-width:0.5;stroke-linecap:round;stroke-linejoin:round;stroke-dasharray:none"
         d="m 4.1866898,139.67579 v 0.0399 m 5.4457885,0.0399 v 1.07721 m -14.1672397,0.15964 c 0.00586,-0.26903 0.1065819,-0.5032 0.2378078,-0.83783 0.046638,-0.11894 0.066458,-0.26101 0.1822664,-0.31216 0.1270726,-0.0561 0.1977239,0.10098 0.2364808,0.19266 0.079863,0.189 0.1720328,0.44544 0.2420094,0.63816 0.030388,0.0837 0.076623,0.18538 0.034499,0.26659 -0.064705,0.12477 -0.2469389,0.0924 -0.4007687,0.0925 -0.2437954,10e-5 -0.3906832,-0.0667 -0.5619939,0.0124 -0.1580023,0.073 -0.1932892,0.31593 -0.2569218,0.50617 m 2.0882346,-1.71558 c 0,0.15635 0,0.26721 0,0.39898 0,0.11377 0,0.19952 0,0.31917 0,0.24873 -0.073888,0.62519 0.048275,0.8303 0.1090989,0.18317 0.3276145,0.16698 0.5249647,0.16713 m 0.532295,-1.71558 c 0,0.15635 0,0.26721 0,0.39898 0,0.10285 0,0.18117 0,0.27927 0,0.16342 -0.00848,0.35274 0.011693,0.51866 0.045203,0.37188 0.131374,0.51746 0.561551,0.51867 m 4.1355235,-1.71558 c 0,0.15635 0,0.26721 0,0.39898 0,0.11377 0,0.19952 0,0.31917 0,0.24271 -0.076439,0.62833 0.042083,0.83349 0.1066623,0.18464 0.337584,0.16381 0.531158,0.16394 m -4.21741559,-0.67825 c 7.942e-4,-0.22867 0.051794,-0.48572 0.3277241,-0.61551 0.3077029,-0.14474 0.80313316,0.042 0.78037136,0.41525 -0.010073,0.16508 -0.1263328,0.18749 -0.248265,0.19791 -0.11923366,0.0106 -0.40224916,0.002 -0.53226396,0.002 -0.201219,0 -0.2583068,0 -0.3275665,0 M 1.27954,141.51068 c 0,-0.23118 -0.00159,-0.4902 3.13e-5,-0.71815 6.109e-4,-0.0884 -0.00311,-0.19392 0.04205,-0.27234 0.060958,-0.10591 0.1299334,-0.14228 0.2445688,-0.20919 0.2139123,-0.12482 0.425286,-0.14559 0.5970003,0.048 0.091465,0.10309 0.1249029,0.22056 0.1361702,0.35374 0.021268,0.2514 0.00382,0.54219 0.00382,0.79795 m 3.0299876,-1.29386 c 0.4365735,-0.1119 0.6890133,0.2978 0.6952886,0.6554 0.00518,0.29485 -0.1260489,0.62386 -0.4496139,0.69672 -0.3027224,0.0682 -0.5693623,-0.11854 -0.6506777,-0.37769 -0.065807,-0.20974 -0.055834,-0.52462 0.054595,-0.7144 0.075868,-0.13037 0.189583,-0.21881 0.3504084,-0.26003 m 1.3921563,1.29375 c 0,-0.19699 -8.74e-5,-0.4485 0,-0.63835 4.76e-5,-0.10203 -0.016951,-0.21359 0.024706,-0.31558 0.053424,-0.13078 0.1417837,-0.17688 0.2619467,-0.24476 0.2102197,-0.11877 0.4678348,-0.15432 0.6263498,0.047 0.095387,0.12114 0.1358179,0.28942 0.1477638,0.43354 0.018927,0.22831 0.00385,0.4864 0.00385,0.71814 m -10.7687406,-1.27671 c 0.2727641,0 0.4362696,0 0.8189156,0 m 0.2866205,0 h 0.2458646 0.2454846 0.3275659 m 3.8489038,0 c 0.3489474,0 0.4368933,0 0.8598613,0 m -2.3748557,0.0399 v 0.15959 m 2.9071506,-0.15959 v 1.23682 M 6.72535,140.27376 v 0.15959 m -7.32929489,0.47877 c 0.1498258,0.6045 0.595277,0.8068 1.18742796,0.55856 m -4.13552367,-0.47876 c 0.1079832,0.16929 0.154285,0.29532 0.2456747,0.55856 m 12.938866,-0.1197 v 0.0798 m -9.62225799,1.63578 v 0.0399 m -10.31833611,0.0798 c 0,0.43394 9.17e-4,0.88437 0,1.3166 -2.32e-4,0.11096 0.03025,0.26097 -0.0655,0.30896 -0.126035,0.0632 -0.235852,-0.12699 -0.292275,-0.22931 -0.13677,-0.24807 -0.435674,-0.84127 -0.578929,-1.07691 -0.07163,-0.11783 -0.144011,-0.25541 -0.279257,-0.23806 -0.101701,0.013 -0.09346,0.16145 -0.09427,0.2778 -0.003,0.42133 -3.2e-5,0.92712 -3.2e-5,1.3565 m 15.9688535,-1.67568 c 0,0.15635 0,0.26721 0,0.39896 0,0.11378 0,0.19954 0,0.31919 0,0.24481 -0.075064,0.63072 0.042083,0.83349 0.1077092,0.18645 0.3364118,0.16381 0.531158,0.16394 m -14.4948026,-0.71822 c 0.0059,-0.23761 0.161078,-0.57261 0.532295,-0.61606 0.27297,-0.0319 0.5502717,0.15768 0.5858147,0.41639 0.04328,0.31507 -0.4590857,0.23946 -0.7086527,0.23957 -0.124768,6e-5 -0.292861,-0.0286 -0.367343,0.064 -0.110693,0.13763 0.02361,0.3723 0.135159,0.47334 0.262132,0.23744 0.621171,0.18512 0.9282627,0.10109 m 2.5386383,0 c -0.3151267,0.12956 -0.6922274,0.0945 -0.8947409,-0.20321 -0.091987,-0.13522 -0.089465,-0.28307 -0.087799,-0.43515 0.00141,-0.12936 0.0047,-0.24399 0.07592,-0.35892 0.071196,-0.11495 0.1636998,-0.19698 0.2924334,-0.25338 0.2045199,-0.0896 0.4079651,-0.0382 0.614187,0.0139 m 1.0645904,-0.0569 c 0.1897562,-0.035 0.3257581,0.035 0.4449381,0.1457 0.1241493,0.1153 0.2090046,0.36887 0.2089936,0.5496 -1.89e-5,0.29606 -0.1610216,0.61148 -0.4901489,0.66495 -0.2188214,0.0356 -0.3866792,-0.046 -0.5146974,-0.19358 -0.1171585,-0.13504 -0.1376092,-0.31156 -0.1396765,-0.47137 -0.00164,-0.12644 0.00654,-0.23445 0.059961,-0.3585 0.077496,-0.17992 0.2375291,-0.3012 0.430626,-0.3368 m 5.56862527,0.6155 c 0.00759,-0.30602 0.73995093,-1.05253 1.07877533,-0.31903 0.052313,0.11331 0.066495,0.27968 -0.061355,0.33486 -0.1727476,0.0746 -0.5312278,0.0205 -0.73076871,0.0243 -0.0876012,0.002 -0.18441802,-0.0106 -0.24453722,0.0638 -0.052808,0.0656 -0.04238,0.1704 -0.015352,0.25505 0.1456336,0.45613 0.69877233,0.42339 1.07877543,0.31933 m 4.5449857,-0.19949 c 0,-0.14991 -0.00173,-0.26986 3.25e-5,-0.51865 5.417e-4,-0.0756 0.00393,-0.20425 0.04205,-0.26429 0.086953,-0.13697 0.1525172,-0.15139 0.3264293,-0.23835 0.2250097,-0.11248 0.4300885,-0.094 0.5970329,0.1058 0.109739,0.13138 0.1672615,0.31162 0.1765134,0.47657 0.00731,0.1304 -0.019446,0.24113 -0.065777,0.35908 -0.071006,0.18075 -0.2104971,0.32581 -0.4211488,0.35138 -0.1070785,0.0129 -0.2388099,-0.0117 -0.3275039,-0.06 -0.1604569,-0.0875 -0.221498,-0.13925 -0.286683,-0.17163 -0.061729,0.20348 -0.040946,0.40592 -0.040946,0.71815 M 8.1584581,143.745 c 0.2592775,-0.0326 0.5402976,-0.132 0.7755682,0.029 0.091056,0.0624 0.14389,0.14995 0.1713981,0.25028 0.050199,0.18307 0.127243,0.44434 0.014687,0.67144 -0.062222,0.12555 -0.1295308,0.16572 -0.2248201,0.23662 -0.1081849,0.0804 -0.339662,0.15183 -0.491127,0.11189 -0.3150283,-0.083 -0.3850017,-0.49038 -0.1204684,-0.67179 0.2798332,-0.19189 0.6218717,-0.10884 0.8165142,-0.10884 m 0.6551322,0.71814 c 0.2390291,0.0533 0.5460207,0.14128 0.7761697,0.0217 0.1833,-0.0952 0.26437,-0.32109 0.106877,-0.48933 -0.118581,-0.12669 -0.250528,-0.12578 -0.432647,-0.17692 -0.124277,-0.0349 -0.2586632,-0.0754 -0.3262399,-0.19758 -0.275677,-0.49851 0.6008769,-0.45651 0.8585349,-0.39467 m 1.596886,0 c 0.61072,-0.11542 0.96469,0.0431 0.979443,0.67826 0.0023,0.10298 -0.0022,0.18539 -0.0507,0.27571 -0.07384,0.13767 -0.157618,0.18944 -0.273637,0.26712 -0.100348,0.0672 -0.219644,0.0979 -0.327534,0.0908 -0.368534,-0.0245 -0.586014,-0.44929 -0.243274,-0.68432 0.265124,-0.18181 0.641296,-0.10884 0.857461,-0.10884 m -16.7877699,0.71814 c 0,-0.20882 -4.179e-4,-0.47706 0,-0.67825 2.01e-4,-0.0939 -0.012469,-0.18524 0.024705,-0.27555 0.052728,-0.1281 0.1448125,-0.17388 0.2619453,-0.23877 0.1745229,-0.0966 0.4420277,-0.13305 0.5970005,0.013 0.268553,0.25301 0.1809382,0.83255 0.1809382,1.17961 m 0.6141869,-1.27671 0.3664902,0.99743 0.2057398,0.27103 0.2036542,-0.27103 0.37059721,-0.99743 m 3.23471699,1.27671 c 0,-0.22089 -0.00147,-0.50529 3.11e-5,-0.71814 6.037e-4,-0.0861 -0.00558,-0.18962 0.042051,-0.27236 0.060948,-0.10591 0.1272083,-0.14413 0.2445689,-0.20761 0.1678681,-0.0908 0.4511833,-0.11976 0.5875847,0.0186 0.077769,0.0788 0.1044692,0.16407 0.1277344,0.26197 0.027829,0.11707 0.021484,0.20421 0.021674,0.31917 3.048e-4,0.18525 0,0.4089 0,0.59847 m 0.5322954,-1.27672 c 0.2727652,0 0.4362685,0 0.8189155,0 m 10.9325256,0 0.491349,0.59846 c 0.160001,-0.16301 0.278575,-0.2897 0.450404,-0.55856 m -20.309109,0 v 0.15959 m 3.52133681,-0.15959 v 1.23682 m 2.53863839,-1.23681 v 0.1596 m 3.8079575,-0.1596 v 0.1596 m 7.6978083,-0.1596 c 0,0.22051 -0.001,0.46034 3.3e-5,0.67825 8.55e-4,0.17129 0.0033,0.36632 0.139959,0.50294 0.159844,0.15974 0.414773,0.16136 0.597033,0.0399 0.117806,-0.0786 0.213945,-0.1373 0.285483,-0.26712 0.04893,-0.0888 0.04139,-0.18085 0.04205,-0.27571 0.0014,-0.20117 3.3e-5,-0.46943 3.3e-5,-0.67824 m 1.228373,0.55854 0.532296,0.71816 m -0.532296,-0.63835 c -0.17428,0.17341 -0.328446,0.38064 -0.532294,0.63835 m -6.6332183,-0.19949 v 0.1596 m 4.1355243,-0.1596 v 0.1596 m 1.801615,-0.1596 v 0.1596 m -27.024215,3.47104 c 0,-0.30452 0,-0.65845 0,-0.95753 0,-0.11972 -4.6e-5,-0.20532 0,-0.31919 3.7e-5,-0.0931 -0.0052,-0.15539 0.0044,-0.23937 0.02851,-0.24798 0.241728,-0.31834 0.486894,-0.31918 m 8.5986129,0.0399 c 0,0.14292 0.00147,0.34709 -1.552e-4,0.47876 -0.00153,0.12363 -0.013966,0.18167 -0.02894,0.31918 -0.015028,0.138 0.028432,0.29039 0.020534,0.43887 -0.00483,0.0908 -0.029886,0.27545 -0.074309,0.34412 -0.071785,0.11095 -0.1339661,0.13245 -0.2447264,0.20129 -0.2670484,0.16598 -0.710498,0.0452 -0.8027394,-0.34593 -0.062229,-0.26391 -0.025042,-0.60505 0.1615714,-0.78421 0.1636689,-0.15713 0.4672584,-0.1299 0.6411368,-0.0319 0.1386172,0.0781 0.2084579,0.1126 0.2866829,0.13788 m 14.0444,-0.75804 c 0,0.14291 0.0015,0.34709 -1.55e-4,0.47876 -0.0015,0.12369 -0.01245,0.18174 -0.0291,0.31918 -0.01818,0.15016 0.02895,0.60107 -0.0364,0.7497 -0.06232,0.14174 -0.164002,0.1835 -0.30286,0.25973 -0.277756,0.15248 -0.65935,-0.008 -0.754528,-0.33118 -0.03097,-0.10521 -0.02451,-0.20804 -0.02328,-0.31918 0.002,-0.18564 0.02994,-0.36322 0.177559,-0.50494 0.155131,-0.14893 0.407383,-0.15535 0.600253,-0.055 0.167935,0.0874 0.249659,0.13584 0.327567,0.16097 m 3.439448,-0.67824 c 0.338407,-0.11166 0.792839,-0.14004 0.963395,0.2001 0.1353,0.26982 -0.08694,0.4201 -0.267318,0.59784 0.226269,0.18481 0.403891,0.23942 0.352779,0.55856 -0.04112,0.25675 -0.257233,0.37902 -0.475616,0.42018 -0.236988,0.0446 -0.476998,-0.009 -0.696078,-0.10098 m -21.8241043,-1.59598 v 0.35907 c 0.1664319,0 0.261153,0 0.5322947,0 m 0.3685122,1.27672 c 0.2807068,0.0769 1.0924418,0.19214 0.9745789,-0.319 -0.050139,-0.21744 -0.2525793,-0.25568 -0.4422837,-0.30455 -0.1415569,-0.0365 -0.2921286,-0.0672 -0.3789066,-0.18335 -0.3651008,-0.48867 0.5874524,-0.47431 0.82931,-0.42992 m 13.0207582,1.23682 c 0.2806647,0.0768 1.0925725,0.19204 0.9745789,-0.319 -0.049875,-0.21602 -0.254929,-0.24977 -0.4422843,-0.30255 -0.141073,-0.0397 -0.2917956,-0.0688 -0.378906,-0.18535 -0.3617138,-0.48414 0.5830678,-0.47512 0.82931,-0.42992 m 12.160898,1.23682 c 0.248021,0.0552 0.577641,0.14849 0.816545,0.0217 0.176162,-0.0935 0.231906,-0.30421 0.106854,-0.45521 -0.08386,-0.10121 -0.183648,-0.13472 -0.309211,-0.16935 -0.16314,-0.045 -0.389509,-0.0626 -0.466611,-0.24246 -0.212203,-0.49507 0.556948,-0.44252 0.835123,-0.39145 m -37.26066,0.59844 c 0.002,-0.21009 0.08053,-0.56413 0.450404,-0.62924 0.298513,-0.0525 0.764702,0.13812 0.659525,0.50364 -0.043,0.14946 -0.274287,0.12554 -0.41385,0.1256 -0.337335,1.6e-4 -0.480363,0 -0.696079,0 m 1.842561,0.63837 c 0,-0.21817 -4.65e-4,-0.46325 0,-0.67826 1.54e-4,-0.10227 -0.01192,-0.18601 0.0247,-0.27567 0.05224,-0.12791 0.143243,-0.17998 0.261946,-0.24419 0.194183,-0.10509 0.448835,-0.1153 0.597,0.047 0.09198,0.10074 0.125317,0.22488 0.136169,0.35316 0.02127,0.2514 0.0038,0.5422 0.0038,0.79794 m 0.491349,-1.27672 h 0.286683 0.491286 m 0.450403,0.0798 c 0.252874,-0.0781 0.656635,-0.1768 0.883085,0.0556 0.09748,0.10004 0.122105,0.30372 0.1307035,0.42314 0.0066,0.0922 0.0087,0.14682 0.0093,0.23939 0.0016,0.27401 -0.0078,0.25103 5.72e-4,0.47876 m 0.777969,0 c 0,-0.19705 -4.02e-4,-0.44843 0,-0.63835 2.02e-4,-0.0918 -0.0115,-0.18675 0.02471,-0.27572 0.05333,-0.13104 0.143111,-0.18343 0.261946,-0.25837 0.170974,-0.10779 0.4710097,-0.16115 0.6263507,0.0245 0.230823,0.27592 0.151587,0.80124 0.151587,1.14791 m 0.4913495,-1.27671 0.2456746,0.0399 m 5.2820056,0.55855 c 0.003,-0.26369 0.1099372,-0.53813 0.4504034,-0.58993 0.3014604,-0.0458 0.74444541,0.14327 0.6533629,0.50422 -0.03704,0.14681 -0.2367802,0.12535 -0.3667423,0.12561 -0.3182908,6e-4 -0.5323117,0.019 -0.737024,-0.0399 -0.2045028,0.69383 0.6028855,0.83352 1.1055361,0.67826 m 1.63783077,0 c 0,-0.21819 -4.484e-4,-0.46321 0,-0.67826 2.01e-4,-0.0974 -0.010633,-0.18916 0.024706,-0.27567 0.051599,-0.12632 0.1361851,-0.17616 0.2619454,-0.24419 0.31323233,-0.16945 0.53036593,-0.0124 0.69604693,0.24059 0.06702,-0.0454 0.1298999,-0.10074 0.2458646,-0.1845 0.1673746,-0.12096 0.4372947,-0.19405 0.6025924,-0.0422 0.1171305,0.10755 0.1522121,0.28237 0.168079,0.42618 0.026418,0.23945 0.00711,0.51446 0.00711,0.75805 m 1.0236756,-1.24714 c 0.231862,-0.0868 0.4582859,-0.0224 0.602782,0.13431 0.2895569,0.31409 0.2318531,0.99659 -0.1935128,1.15693 -0.2370437,0.0893 -0.4535235,0.0189 -0.6046797,-0.13247 -0.3024238,-0.30291 -0.2167611,-1.00456 0.1954083,-1.15877 m 2.2519867,1.24709 c 0,-0.20895 -0.055248,-0.82911 0.042083,-0.98244 0.063205,-0.0996 0.1311145,-0.12651 0.2445702,-0.19258 0.1916433,-0.11154 0.477699,-0.15417 0.637501,0.024 0.089509,0.0998 0.1192535,0.22748 0.1333285,0.35316 0.02801,0.25011 0.00711,0.543 0.00711,0.79795 m 4.9134941,-0.67825 c 0.003,-0.26369 0.109932,-0.53814 0.450404,-0.58993 0.301463,-0.0459 0.744443,0.14326 0.653363,0.50423 -0.03704,0.14679 -0.23678,0.12534 -0.366743,0.1256 -0.318292,5.9e-4 -0.532312,0.019 -0.737024,-0.0399 -0.200643,0.68073 0.598147,0.83498 1.105536,0.67827 m 4.340254,-1.23682 c 0.257403,-0.0317 0.562752,-0.11072 0.773516,0.0572 0.186104,0.14829 0.207426,0.45107 0.207382,0.66095 -1.6e-5,0.0917 -0.0019,0.15484 -0.04647,0.23581 -0.06645,0.12061 -0.147096,0.16973 -0.238503,0.23741 -0.102761,0.0761 -0.314419,0.13956 -0.450245,0.11613 -0.325894,-0.0564 -0.44986,-0.48458 -0.15933,-0.67478 0.269652,-0.17652 0.630393,-0.11401 0.855408,-0.11401 m 0.818915,0.71815 c 0,-0.2185 -0.0015,-0.46279 3.3e-5,-0.67825 6.11e-4,-0.0856 -0.0011,-0.19654 0.04205,-0.27251 0.0617,-0.10861 0.120694,-0.14749 0.24457,-0.22722 0.187418,-0.12062 0.442832,-0.14205 0.597001,0.0269 0.07331,0.0803 0.107354,0.17007 0.126502,0.27336 0.05524,0.2981 0.0135,0.54091 0.0135,0.87774 m -33.862161,-1.23682 v 0.15959 m 4.5449805,-0.15959 v 0.19949 m 28.2935285,-0.19949 v 0.19949 m -26.4510116,-0.15958 c 0,0.26421 -0.1649008,0.77814 0.04208,1.108 0.092487,0.1474 0.3172424,0.12869 0.4902112,0.12881 m 7.45213197,-1.23681 v 0.11968 m 4.50403553,-0.11968 v 1.19691 m 0.77797,-1.19691 v 0.11968 m -4.2993069,0.1197 c 0,0.34084 0,0.54979 0,0.95753 m 13.3074688,-0.91754 h 0.368513 m -25.345438,0.71814 c -0.05747,0.0458 -0.112147,0.12105 -0.25269,0.21042 -0.198811,0.12643 -0.556124,0.0878 -0.681703,-0.13481 -0.13701,-0.2429 0.08129,-0.49036 0.320205,-0.54882 0.272533,-0.0667 0.460365,-0.0454 0.655134,-0.0454 m -5.73241,0.11969 h 0.122837 m 0.04095,0.0399 c 0.0062,0.54498 0.576603,0.7146 1.146484,0.55856 m 32.756603,-0.15958 v 0.15959 m -21.1280232,-0.11969 v 0.11969 m 14.0034562,-0.11969 v 0.11969"
         id="path29" /></g></g></svg>
