<?xml version="1.0" encoding="UTF-8" standalone="no"?>
<!-- Created with Inkscape (http://www.inkscape.org/) -->

<svg
   width="36.273228mm"
   height="49.806374mm"
   viewBox="0 0 36.273228 49.806374"
   version="1.1"
   id="svg5"
   inkscape:version="1.2.2 (b0a8486541, 2022-12-01)"
   sodipodi:docname="weather_card.svg"
   xmlns:inkscape="http://www.inkscape.org/namespaces/inkscape"
   xmlns:sodipodi="http://sodipodi.sourceforge.net/DTD/sodipodi-0.dtd"
   xmlns="http://www.w3.org/2000/svg"
   xmlns:svg="http://www.w3.org/2000/svg">
  <sodipodi:namedview
     id="namedview7"
     pagecolor="#4d4d4d"
     bordercolor="#666666"
     borderopacity="1.0"
     inkscape:pageshadow="2"
     inkscape:pageopacity="0"
     inkscape:pagecheckerboard="false"
     inkscape:document-units="mm"
     showgrid="false"
     inkscape:zoom="1.1313833"
     inkscape:cx="321.28811"
     inkscape:cy="147.60692"
     inkscape:window-width="1916"
     inkscape:window-height="1037"
     inkscape:window-x="0"
     inkscape:window-y="0"
     inkscape:window-maximized="1"
     inkscape:current-layer="layer1"
     inkscape:showpageshadow="2"
     inkscape:deskcolor="#4d4d4d" />
  <defs
     id="defs2" />
  <g
     inkscape:label="Layer 1"
     inkscape:groupmode="layer"
     id="layer1"
     transform="translate(75.665778,-66.301536)">
    <path
       d="m -60.972588,110.85452 h 7.407246 m -7.572292,-1.62437 c 0.08118,0.0518 0.248269,0.14766 0.248269,0.14766 0.118845,-0.0312 0.3137,-0.0527 0.534867,-0.0543 0.0111,-3.8e-4 0.02267,2.9e-4 0.03392,0.001 0.348977,1.3e-4 0.624279,0.0516 0.624898,0.11555 l 0.0069,0.72022 c 5.37e-4,0.005 -0.002,0.0114 -0.0067,0.0181 l 2.7e-5,-3e-5 c -0.048,0.0573 -0.319459,0.10359 -0.650123,0.10586 -0.161436,0.001 -0.308092,-0.007 -0.422376,-0.0258 l -0.633138,0.25877 c 0,0 -0.08402,-0.5088 -0.09202,-0.76577 -6.95e-4,-0.0223 9.17e-4,-0.0446 0.0038,-0.0668 0.02704,-0.20535 0.126236,-0.6084 0.126236,-0.6084 0,0 0.148716,0.10493 0.225413,0.15385 z m 1.094145,0.10621 v -4.71338 c 0,-0.11103 -0.06942,-0.20068 -0.155593,-0.20068 -0.08618,0 -0.155595,0.0897 -0.155595,0.20068 v 4.70053 m -1.5e-5,0.96057 v 0.36977 c 0,0.11102 0.06942,0.20067 0.155594,0.20067 0.08618,0 0.155594,-0.0897 0.155594,-0.20067 l 1.5e-5,-0.3853 m 4.705768,-2.02602 v 2.60257 m -1.867466,-2.60257 v 2.60257 m 2.578705,-5.74199 c 0,0 0.524166,1.48971 0.60422,2.05067 0.07987,0.5597 -0.197832,2.17674 -0.197832,2.17674 m -3.627039,-4.24389 -1.148347,1.94306 -1.048009,-2.29276 m 5.417007,0.36618 -0.711239,3.13942 h -1.867466 l -0.641946,-3.1559 c 1.104713,0.28071 2.176143,0.26748 3.220651,0.0165 z m -0.250913,-1.66948 c -10e-7,0.74356 -0.602284,1.34633 -1.345237,1.34633 -0.742954,0 -1.345237,-0.60277 -1.345238,-1.34633 10e-7,-0.74356 0.602284,-1.34633 1.345238,-1.34633 0.742953,0 1.345236,0.60277 1.345237,1.34633 z m 2.102005,0.97343 h 7.407246 m -7.572292,-1.62437 c 0.08118,0.0518 0.248269,0.14766 0.248269,0.14766 0.118845,-0.0312 0.3137,-0.0527 0.534867,-0.0543 0.0111,-3.8e-4 0.02267,2.9e-4 0.03392,10e-4 0.348977,1.3e-4 0.624279,0.0516 0.624898,0.11555 l 0.0069,0.72022 c 5.37e-4,0.005 -0.002,0.0114 -0.0067,0.0181 l 2.7e-5,-3e-5 c -0.048,0.0573 -0.319459,0.10359 -0.650123,0.10586 -0.161436,0.001 -0.308092,-0.007 -0.422376,-0.0258 l -0.633138,0.25877 c 0,0 -0.08402,-0.5088 -0.09203,-0.76577 -6.95e-4,-0.0223 9.17e-4,-0.0446 0.0038,-0.0668 0.02704,-0.20535 0.126236,-0.6084 0.126236,-0.6084 0,0 0.148716,0.10493 0.225413,0.15385 z m 1.094145,0.10621 v -4.71338 c 0,-0.11103 -0.06942,-0.20068 -0.155593,-0.20068 -0.08618,0 -0.155595,0.0897 -0.155595,0.20068 v 4.70053 m -1.5e-5,0.96057 v 0.36977 c 0,0.11102 0.06942,0.20067 0.155594,0.20067 0.08618,0 0.155594,-0.0897 0.155594,-0.20067 l 1.5e-5,-0.3853 m 4.705768,-2.02602 v 2.60257 m -1.867466,-2.60257 v 2.60257 m 2.578705,-5.74199 c 0,0 0.524166,1.48971 0.60422,2.05067 0.07987,0.5597 -0.197832,2.17674 -0.197832,2.17674 m -3.627039,-4.24389 -1.148347,1.94306 -1.048009,-2.29276 m 5.417007,0.36618 -0.711239,3.13942 h -1.867466 l -0.641946,-3.1559 c 1.104713,0.28071 2.176143,0.26748 3.220651,0.0165 z m -0.250912,-1.66947 c -10e-7,0.74356 -0.602284,1.34633 -1.345237,1.34633 -0.742954,0 -1.345237,-0.60277 -1.345238,-1.34633 1e-6,-0.74356 0.602284,-1.34633 1.345238,-1.34633 0.742953,0 1.345236,0.60277 1.345237,1.34633 z m -22.150002,7.75051 h 7.407246 m -7.572292,-1.62437 c 0.08118,0.0518 0.248269,0.14766 0.248269,0.14766 0.118845,-0.0312 0.3137,-0.0527 0.534867,-0.0543 0.0111,-3.8e-4 0.02267,2.9e-4 0.03392,0.001 0.348977,1.3e-4 0.624279,0.0516 0.624898,0.11555 l 0.0069,0.72022 c 5.37e-4,0.005 -0.002,0.0114 -0.0067,0.0181 l 2.7e-5,-3e-5 c -0.048,0.0573 -0.319458,0.10359 -0.650123,0.10586 -0.161436,10e-4 -0.308092,-0.007 -0.422376,-0.0258 l -0.633138,0.25877 c 0,0 -0.08402,-0.5088 -0.09203,-0.76577 -6.95e-4,-0.0223 9.17e-4,-0.0446 0.0038,-0.0668 0.02704,-0.20535 0.126235,-0.6084 0.126235,-0.6084 0,0 0.148716,0.10493 0.225413,0.15385 z m 1.094145,0.10621 v -4.71338 c 0,-0.11103 -0.06942,-0.20068 -0.155593,-0.20068 -0.08618,0 -0.155595,0.0897 -0.155595,0.20068 v 4.70053 m -1.5e-5,0.96057 v 0.36977 c 0,0.11102 0.06942,0.20067 0.155594,0.20067 0.08618,0 0.155594,-0.0897 0.155594,-0.20067 l 1.5e-5,-0.3853 m 4.705768,-2.02602 v 2.60257 m -1.867466,-2.60257 v 2.60257 m 2.578705,-5.74199 c 0,0 0.524166,1.48971 0.60422,2.05067 0.07987,0.5597 -0.197832,2.17674 -0.197832,2.17674 m -3.627039,-4.24389 -1.148347,1.94306 -1.048009,-2.29276 m 5.417007,0.36618 -0.711239,3.13942 h -1.867466 l -0.641946,-3.1559 c 1.104713,0.28071 2.176143,0.26748 3.220651,0.0165 z m -0.250913,-1.66951 c -10e-7,0.74356 -0.602284,1.34633 -1.345237,1.34633 -0.742954,0 -1.345236,-0.60277 -1.345237,-1.34633 10e-7,-0.74356 0.602283,-1.34633 1.345237,-1.34633 0.742953,0 1.345236,0.60277 1.345237,1.34633 z m -5.97578,-29.28016 c -0.656535,0 -1.18494,0.52852 -1.18494,1.18494 v 22.36918 c 0,0.65643 0.528405,1.18494 1.18494,1.18494 h 13.271539 l -0.376197,1.40457 1.405073,-1.40457 h 8.068239 c 0.656534,0 1.185467,-0.52851 1.185467,-1.18494 V 69.22055 c 0,-0.65642 -0.528933,-1.18494 -1.185467,-1.18494 z m 20.211254,10.93157 -0.403718,1.10864 m -0.235973,0.64805 -0.2236,0.61404 m -0.462606,1.27035 -0.285943,0.78527 m 0.936898,-7.59625 -0.324323,0.8906 m -0.830007,2.2793 -0.403706,1.10864 m -0.848906,-2.69223 -0.308513,0.84724 m -0.268147,0.73635 -0.403706,1.10864 m -0.235985,0.64806 -0.2236,0.61403 m -0.462594,1.27036 -0.285943,0.78525 m 0.936886,-7.59624 -0.324323,0.8906 m -1.469698,4.036 -0.2236,0.61403 m -0.87013,2.38949 -0.217286,0.59667 m 1.275765,-8.52679 -0.324323,0.8906 m -0.829995,2.27931 -0.403718,1.10863 m -0.235985,0.64805 -0.223588,0.61404 m -0.462606,1.27035 -0.285943,0.78526 m 0.936899,-7.59624 -0.324336,0.8906 m -1.469686,4.03599 -0.2236,0.61404 m -0.462594,1.27035 -0.285955,0.78526 m 0.359228,-6.00993 -0.308513,0.84724 m -0.268147,0.73635 -0.403706,1.10865 m -0.922179,2.53243 -0.285942,0.78526 m -0.121556,0.33388 -0.217286,0.59667 m 1.275765,-8.52678 -0.324323,0.8906 m -0.253335,0.69571 -0.308526,0.84724 m -0.268147,0.73634 -0.403705,1.10865 m -0.235985,0.64804 -0.223601,0.61405 m 0.188337,-5.54063 -0.324323,0.8906 m -0.253335,0.69571 -0.308525,0.84724 m -0.907838,2.49303 -0.223588,0.61405 m -0.462606,1.27034 -0.285943,0.78527 m 0.359228,-6.00993 -0.308513,0.84724 m -0.268147,0.73634 -0.403718,1.10864 m -0.235972,0.64805 -0.223601,0.61404 m -0.462606,1.27035 -0.285943,0.78527 m -0.121556,0.33388 -0.217273,0.59667 M -56.048327,69.5874 c -0.637375,-0.005 -1.281816,0.11497 -1.85812,0.33958 -0.61494,0.23968 -1.395048,0.64603 -1.494698,1.29814 -0.04989,0.32671 0.520839,0.84409 0.520839,0.84409 0,0 -1.020772,-0.42729 -1.502375,-0.26412 -0.428166,0.14508 -0.870205,0.54893 -0.918181,0.99822 -0.03198,0.29919 0.45685,0.77823 0.45685,0.77823 0,0 -0.587081,-0.29593 -0.860603,-0.18863 -0.307079,0.12032 -0.627446,0.48855 -0.564349,0.81211 0.07139,0.36587 0.936105,0.61199 0.936105,0.61199 0,0 -1.745786,-0.19675 -2.769155,-0.34341 0.0357,-0.11619 0.426025,-0.17851 0.408243,-0.35872 -0.04,-0.40502 -0.650135,-0.61823 -1.057297,-0.61164 -0.323319,0.005 -0.701314,0.21333 -0.823424,0.51258 -0.04189,0.10259 0.06489,0.24906 0.07874,0.32285 -0.126096,0.01 -0.326062,0.0263 -0.437052,0.0472 -0.339821,0.065 -0.825924,0.13986 -0.92459,0.47129 -0.08943,0.30029 0.467734,0.81531 0.467734,0.81531 l 19.35681,10e-6 c 0,0 0.260131,-0.11045 0.298168,-0.23021 0.08646,-0.27177 0.01007,-0.70414 -0.251465,-0.81724 -0.198295,-0.0857 -0.365659,0.28024 -0.581626,0.28521 -0.209619,0.005 -0.575862,-0.25324 -0.575862,-0.25324 0,0 -0.04182,-0.61854 -0.267462,-0.76992 -0.243506,-0.1634 -0.620668,-0.0924 -0.878517,0.0474 -0.284226,0.15402 -0.572661,0.78271 -0.572661,0.78271 0,0 -0.782263,-0.25698 -1.024411,-0.56209 -0.224706,-0.28314 0.0014,-0.83273 -0.291773,-1.04425 -0.151098,-0.10906 -0.402614,-0.1215 -0.652646,-0.0974 0.02776,-0.0198 0.05229,-0.041 0.07037,-0.0658 0.261218,-0.35887 0.242586,-1.00543 -0.06021,-1.33009 -0.210094,-0.22535 -0.62452,-0.19813 -0.918835,-0.1069 -0.258141,0.0801 -0.353922,0.44743 -0.610408,0.53269 -0.310012,0.10292 -0.977694,-0.0734 -0.977694,-0.0734 0,0 1.093013,-0.44909 1.097349,-0.92788 0.0052,-0.61077 -0.803308,-1.00147 -1.37825,-1.20858 -0.452611,-0.16305 -0.943927,-0.24248 -1.439662,-0.24621 z m 3.807262,18.80366 -2.3e-5,1.72394 m 0.416022,-1.11984 c 0,0 0.782391,-0.0344 1.130104,-0.40443 m -0.196805,-1.05654 c -0.230358,-0.27014 -0.546429,-0.23242 -0.546429,-0.23242 0,0 0.537007,-0.27197 0.398216,-0.88062 -0.157667,-0.69133 -0.800196,-0.67179 -0.800196,-0.67179 0,0 0.035,-0.79668 -0.70503,-0.75628 -0.649169,0.0354 -0.610165,0.81784 -0.610165,0.81784 0,0 -0.517466,-0.0351 -0.692758,0.61775 -0.120951,0.45033 0.298509,0.8633 0.298509,0.8633 0,0 -0.709776,-0.024 -0.541852,0.91481 0.106262,0.59403 0.858564,0.45451 0.858564,0.45451 m -3.705724,-0.27023 -2.4e-5,1.72395 m 0.416022,-1.11985 c 0,0 1.131678,0.14752 1.186756,-0.9258 0.03093,-0.60364 -0.799885,-0.76759 -0.799885,-0.76759 0,0 0.536994,-0.27197 0.398203,-0.88062 -0.157655,-0.69133 -0.800196,-0.67179 -0.800196,-0.67179 0,0 0.035,-0.79668 -0.70503,-0.75628 -0.649157,0.0354 -0.610165,0.81784 -0.610165,0.81784 0,0 -0.19116,0.0319 -0.334158,0.0953 m 9.068718,2.48486 -2.4e-5,1.72396 m 0.416022,-1.11984 c 0,0 1.131677,0.14752 1.186755,-0.9258 0.03093,-0.60364 -0.799885,-0.76759 -0.799885,-0.76759 0,0 0.537007,-0.27199 0.398204,-0.88063 -0.157655,-0.69133 -0.800183,-0.67178 -0.800183,-0.67178 0,0 0.035,-0.79669 -0.705043,-0.75628 -0.649157,0.0354 -0.610152,0.81784 -0.610152,0.81784 0,0 -0.517479,-0.0351 -0.692759,0.61775 -0.12095,0.45031 0.29851,0.8633 0.29851,0.8633 0,0 -0.709776,-0.024 -0.541853,0.91479 0.106263,0.59405 0.858551,0.45453 0.858551,0.45453 m -8.957467,-0.27028 -2.3e-5,1.72395 m 0.416022,-1.11984 c 0,0 1.131677,0.14752 1.186755,-0.9258 0.03093,-0.60364 -0.799885,-0.76759 -0.799885,-0.76759 0,0 0.536994,-0.27198 0.398203,-0.88063 -0.157654,-0.69133 -0.800195,-0.67179 -0.800195,-0.67179 0,0 0.035,-0.79668 -0.705031,-0.75627 -0.649156,0.0354 -0.610164,0.81783 -0.610164,0.81783 0,0 -0.51747,-0.0349 -0.692759,0.61776 -0.12095,0.45032 0.29851,0.8633 0.29851,0.8633 0,0 -0.709776,-0.024 -0.541853,0.9148 0.106263,0.59404 0.858551,0.45452 0.858551,0.45452 m -5.98279,-0.27024 -2.4e-5,1.72395 m 0.416023,-1.11984 c 0,0 1.131677,0.14752 1.186755,-0.9258 0.03093,-0.60364 -0.799885,-0.76759 -0.799885,-0.76759 0,0 0.536994,-0.27199 0.398204,-0.88064 -0.157655,-0.69133 -0.800196,-0.67177 -0.800196,-0.67177 0,0 0.035,-0.7967 -0.705031,-0.75628 -0.649156,0.0354 -0.610164,0.81784 -0.610164,0.81784 0,0 -0.517467,-0.0351 -0.692746,0.61775 -0.120951,0.45031 0.298497,0.8633 0.298497,0.8633 0,0 -0.709764,-0.024 -0.54184,0.9148 0.106137,0.59404 0.858551,0.45452 0.858551,0.45452 m -0.883453,1.5784 h 20.402819 m -21.956286,21.6151 24.258222,0.001 m -24.476681,1.53344 c 0,0 0.827841,0.39833 0.843281,0.78149 0.02004,0.50098 -0.516649,1.08161 -1.017413,1.10808 -0.554457,0.0322 -1.188731,-0.54939 -1.249741,-1.10118 -0.103574,-0.93721 0.719958,-2.3054 1.66272,-2.28848 1.114191,0.0193 2.114824,1.58479 1.866838,2.77332 -0.06965,0.33418 -0.183885,0.6087 -0.353502,0.82332 m -3.887069,-44.77875 0.0048,-1.90829 c 0.0024,-0.91816 -0.02849,-1.69459 -0.915541,-1.99563 m -1.173909,3.87658 c 0.51485,0.0451 1.016495,-0.17171 1.231634,-0.56959 0.436627,-0.8075 0.341056,-2.18456 -0.401306,-2.72455 -0.372733,-0.27112 -1.076696,-0.13118 -1.363528,0.2296 -0.398252,0.5009 -0.482789,1.69097 0.116128,1.91627 0.408332,0.1536 0.920587,-0.93032 0.920587,-0.93032 m 1.545615,29.78065 -4.71e-4,-27.166 m -1.840679,-4.86384 h 26.742676 c 3.567317,0 3.584,-0.136 3.584,5.05913 v 40.42735 m -25.285062,4.21952 c -3.213441,0 -3.200935,0.0109 -3.200935,-3.15329 l 4.71e-4,-14.52287 m 28.485261,13.45367 2.085055,0.0678 c 2.50885,0.082 2.423625,4.15466 -0.02197,4.15466 l -27.347881,-0.002 m -5.041615,-49.70169 c -0.431642,0.069 -0.961956,0.37832 -1.247581,0.69046 -0.513233,0.56166 -0.776211,1.45018 -0.623579,2.19552 0.164801,0.80485 0.761473,1.68815 1.551035,1.91565 0.07593,0.0194 0.267735,0.0464 0.350823,0.0593 h 1.809981"
       style="fill:none;stroke:#000080;stroke-width:0.1;stroke-linecap:round;stroke-linejoin:round;stroke-opacity:0.992157"
       id="path430" />
  </g>
</svg>
