<?xml version="1.0" encoding="UTF-8" standalone="no"?>
<!-- Created with Inkscape (http://www.inkscape.org/) -->

<svg
   width="37.452202mm"
   height="51.088402mm"
   viewBox="0 0 37.452202 51.088402"
   version="1.1"
   id="svg5"
   inkscape:version="1.2.2 (b0a8486541, 2022-12-01)"
   sodipodi:docname="mission_elevage.svg"
   xmlns:inkscape="http://www.inkscape.org/namespaces/inkscape"
   xmlns:sodipodi="http://sodipodi.sourceforge.net/DTD/sodipodi-0.dtd"
   xmlns="http://www.w3.org/2000/svg"
   xmlns:svg="http://www.w3.org/2000/svg">
  <sodipodi:namedview
     id="namedview7"
     pagecolor="#4d4d4d"
     bordercolor="#666666"
     borderopacity="1.0"
     inkscape:pageshadow="2"
     inkscape:pageopacity="0"
     inkscape:pagecheckerboard="false"
     inkscape:document-units="mm"
     showgrid="false"
     inkscape:zoom="3.2000352"
     inkscape:cx="66.874264"
     inkscape:cy="118.1237"
     inkscape:window-width="1916"
     inkscape:window-height="1037"
     inkscape:window-x="0"
     inkscape:window-y="0"
     inkscape:window-maximized="1"
     inkscape:current-layer="layer1"
     inkscape:showpageshadow="2"
     inkscape:deskcolor="#4d4d4d" />
  <defs
     id="defs2" />
  <g
     inkscape:label="Layer 1"
     inkscape:groupmode="layer"
     id="layer1"
     transform="translate(76.7593,-66.22422)">
    <g
       id="g20356"
       transform="matrix(1.0872796,-1.8900294,1.8929246,1.0856624,-229.79486,-57.184779)"
       style="stroke-width:0.458441">
      <path
         d="m -24.940352,113.35826 c 0.539508,1.01189 -1.09965,1.91327 -1.657301,0.94518 l -6.235276,-10.82573 c -0.733037,-1.27183 -0.734554,-1.26435 0.523799,-1.99082 l 5.775812,-3.334189 10.803831,-6.237452 -0.412635,-0.716523 c -0.01498,-0.03562 -0.04681,-0.117905 -0.05636,-0.152583 -0.0895,-0.364813 0.124888,-0.803912 0.408179,-1.0538 0.261647,-0.231518 0.674975,-0.331428 1.015337,-0.257255 0.189335,0.04124 0.433194,0.180326 0.559524,0.335084 l 6.0981043,10.585678 c 0.8133628,1.41217 0.871313,1.38748 -1.1947856,2.58027 l -16.0772267,9.28155 z"
         style="fill:#d8c8a6;fill-opacity:1;stroke:#af986a;stroke-width:0.0916881;stroke-linecap:round;stroke-linejoin:round;stroke-dasharray:none;stroke-opacity:1"
         id="path76941"
         sodipodi:nodetypes="cccccccccccsscc" />
      <path
         d="m -24.252319,113.5334 c 0.539508,1.01188 -1.09965,1.91327 -1.657301,0.94517 l -6.235276,-10.82573 c -0.733037,-1.27182 -0.734554,-1.26434 0.523799,-1.99082 l 5.775812,-3.334186 10.803831,-6.237452 -0.412635,-0.716523 c -0.01498,-0.03562 -0.04681,-0.117906 -0.05636,-0.152584 -0.0895,-0.364813 0.124888,-0.803911 0.408179,-1.053799 0.261647,-0.231518 0.674975,-0.331429 1.015337,-0.257255 0.189335,0.04124 0.433194,0.180326 0.559524,0.335083 l 6.0981044,10.585686 c 0.8133628,1.41216 0.871313,1.38747 -1.1947856,2.58027 l -16.0772268,9.28154 z"
         style="fill:#f5ebd6;fill-opacity:1;stroke:#af986a;stroke-width:0.0916881;stroke-linecap:round;stroke-linejoin:round;stroke-dasharray:none;stroke-opacity:1"
         id="path1687"
         sodipodi:nodetypes="cccccccccccsscc" />
    </g>
    <path
       d="m -69.47115,111.85479 24.258222,0.001 m -24.476681,1.53344 c 0,0 0.827841,0.39833 0.843281,0.78149 0.02004,0.50098 -0.516649,1.08161 -1.017413,1.10808 -0.554457,0.0322 -1.188731,-0.54939 -1.249741,-1.10118 -0.103574,-0.93721 0.719958,-2.3054 1.66272,-2.28848 1.114191,0.0193 2.114824,1.58479 1.866838,2.77332 -0.06965,0.33418 -0.183885,0.6087 -0.353502,0.82332 m -3.887069,-44.77875 0.0048,-1.90829 c 0.0024,-0.91816 -0.02849,-1.69459 -0.915541,-1.99563 m -1.173909,3.87658 c 0.51485,0.0451 1.016495,-0.17171 1.231634,-0.56959 0.436627,-0.8075 0.341056,-2.18456 -0.401306,-2.72455 -0.372733,-0.27112 -1.076696,-0.13118 -1.363528,0.2296 -0.398252,0.5009 -0.482789,1.69097 0.116128,1.91627 0.408332,0.1536 0.920587,-0.93032 0.920587,-0.93032"
       style="fill:none;stroke:#af986a;stroke-width:0.2;stroke-linecap:round;stroke-linejoin:round;stroke-dasharray:none;stroke-opacity:1"
       id="path430"
       sodipodi:nodetypes="cccccccccccccscccc" />
    <path
       d="m -47.774521,105.97279 c 0,0 -0.0532,-0.27584 0.0298,-0.36565 0.0713,-0.0771 0.22869,-0.11547 0.3108,-0.0502 0.1618,0.12873 0.16392,0.45247 0.0412,0.61893 -0.0594,0.0806 -0.29212,0.0697 -0.29212,0.0697 m -1.0313,1.27431 -0.84996,2.92819 m 2.51576,-0.0563 -0.72393,-2.8026 -1.02146,-0.57655 -0.0884,-0.66869 m -3.13109,4.10417 0.26729,-1.8243 -0.50944,-1.68422 -1.25247,0.28106 1.06683,1.44181 m 4.79181,-1.68291 -0.1233,-1.00672 -3.86149,-0.98489 -0.98489,-1.375 c -0.19159,0.38792 -0.36224,0.47833 -0.73288,0.6045 l 1.09641,2.72215 3.54123,0.58032 m -5.33224,-6.49222 0.34547,-0.37492 -0.0273,-0.54384 m 3.0679,0.0457 0.25629,-0.336042 0.14113,-0.48472 m -1.05531,1.056552 -0.41086,-0.517332 m 1.85837,0.751442 0.0443,-0.5163 m -5.41854,0.55598 0.0547,-0.51079 m 4.25948,0.86481 0.64493,-0.0611 0.83028,-0.66525 m -1.18707,0.34431 -0.0354,-0.963102 m -0.52372,1.704402 -0.19002,-0.66049 0.1472,-0.65314 m -1.19307,2.00046 -0.0781,-0.65454 m -1.60393,0.33725 0.11299,-0.43803 -0.0799,-0.56262 m -0.50947,-0.34238 -0.61798,-0.658732 m 0.69956,1.392492 -0.49717,-0.0906 -0.46663,-0.76595 m 1.72871,1.85301 -0.74021,-0.7744 -0.15156,-1.363252 m 1.59746,2.319002 1.65052,-0.68406 0.92515,-1.22658 m -3.62836,2.28842 c -2.4e-4,0.004 -0.27522,-0.0111 -0.38063,-0.0875 -0.0881,-0.0639 -0.14123,-0.1743 -0.16855,-0.27966 -0.0377,-0.14529 0.0157,-0.45003 0.0157,-0.45003 0,0 0.2101,0.0569 0.28809,0.12718 0.11033,0.0994 0.19887,0.34331 0.19887,0.34331 m 1.40496,0.23085 c 0,0 0.14876,-0.17454 0.25099,-0.21636 0.17134,-0.07 0.55416,-0.0362 0.55416,-0.0362 0,0 -0.12651,0.30879 -0.25493,0.40197 -0.10067,0.073 -0.23728,0.0863 -0.3615,0.0922 -0.0671,0.003 -0.19902,-0.031 -0.19902,-0.031 m 0.0345,-0.2379 c -0.18079,-0.13584 -0.46003,-0.3603 -0.73661,-0.40048 -0.22316,-0.0324 -0.52447,-0.0383 -0.66172,0.14061 -0.10027,0.13071 0.0124,0.26017 0.0261,0.49355 0.013,0.2222 0.005,0.29366 -0.11122,0.50132 -0.0708,0.12685 -0.35006,0.25955 -0.35006,0.25955 0,0 0.067,0.20049 0.15028,0.25158 0.23826,0.1462 0.56855,0.13655 0.83665,0.0574 0.26628,-0.0786 0.49689,-0.27958 0.66679,-0.49917 0.0853,-0.11025 0.1959,-0.38567 0.24906,-0.54435 m -2.24044,7.63783 h 9.65186 m -6.77482,-28.787032 -4e-5,1.72395 m 0.41603,-1.11984 c 0,0 0.7824,-0.0344 1.1301,-0.40444 m -0.19681,-1.05654 c -0.23035,-0.27014 -0.54642,-0.23242 -0.54642,-0.23242 0,0 0.537,-0.27196 0.39822,-0.88061 -0.15768,-0.69134 -0.8002,-0.6718 -0.8002,-0.6718 0,0 0.035,-0.79667 -0.70504,-0.75627 -0.64916,0.0354 -0.61015,0.81784 -0.61015,0.81784 0,0 -0.51747,-0.035 -0.69276,0.61775 -0.12096,0.45032 0.2985,0.86329 0.2985,0.86329 0,0 -0.70977,-0.024 -0.54184,0.91482 0.10623,0.59402 0.85855,0.45451 0.85855,0.45451 m -3.70572,-0.27024 -10e-6,1.72396 m 0.41601,-1.11985 c 0,0 1.13167,0.14751 1.18675,-0.92581 0.0309,-0.60364 -0.79987,-0.76759 -0.79987,-0.76759 0,0 0.53699,-0.27196 0.39819,-0.88061 -0.15764,-0.69134 -0.80019,-0.6718 -0.80019,-0.6718 0,0 0.035,-0.79667 -0.70503,-0.75627 -0.64916,0.0354 -0.61017,0.81784 -0.61017,0.81784 0,0 -0.19115,0.0319 -0.33415,0.0953 m 9.06871,2.48487 -10e-6,1.72395 m 0.41602,-1.11984 c 0,0 1.13167,0.14753 1.18674,-0.9258 0.0309,-0.60364 -0.79987,-0.76758 -0.79987,-0.76758 0,0 0.537,-0.272 0.39819,-0.88064 -0.15764,-0.69133 -0.80017,-0.67177 -0.80017,-0.67177 0,0 0.035,-0.7967 -0.70504,-0.75629 -0.64916,0.0354 -0.61017,0.81784 -0.61017,0.81784 0,0 -0.51748,-0.0351 -0.69276,0.61775 -0.12094,0.45031 0.29852,0.86331 0.29852,0.86331 0,0 -0.70977,-0.024 -0.54186,0.91478 0.10623,0.59406 0.85855,0.45453 0.85855,0.45453 m -8.95746,-0.27028 -2e-5,1.72396 m 0.41602,-1.11985 c 0,0 1.13167,0.14752 1.18675,-0.9258 0.0309,-0.60364 -0.79987,-0.76759 -0.79987,-0.76759 0,0 0.53699,-0.27197 0.39819,-0.88063 -0.15765,-0.69132 -0.8002,-0.67178 -0.8002,-0.67178 0,0 0.035,-0.79668 -0.70502,-0.75628 -0.64916,0.0354 -0.61017,0.81783 -0.61017,0.81783 0,0 -0.51747,-0.0349 -0.69276,0.61777 -0.12095,0.45031 0.29852,0.86329 0.29852,0.86329 0,0 -0.70979,-0.024 -0.54186,0.9148 0.10623,0.59404 0.85855,0.45453 0.85855,0.45453 m -5.98278,-0.27025 -4e-5,1.72396 m 0.41604,-1.11985 c 0,0 1.13167,0.14752 1.18675,-0.9258 0.0309,-0.60364 -0.79989,-0.76759 -0.79989,-0.76759 0,0 0.53699,-0.27199 0.39821,-0.88064 -0.15767,-0.69133 -0.80021,-0.67177 -0.80021,-0.67177 0,0 0.035,-0.7967 -0.70503,-0.75628 -0.64914,0.0354 -0.61015,0.81784 -0.61015,0.81784 0,0 -0.51747,-0.035 -0.69275,0.61776 -0.12096,0.45031 0.29849,0.86329 0.29849,0.86329 0,0 -0.70976,-0.024 -0.54184,0.9148 0.10611,0.59404 0.85855,0.45453 0.85855,0.45453 m -0.88344,1.5784 h 20.40281 m -11.84236,17.753822 c 0,0 -0.0532,-0.27584 0.0298,-0.36565 0.0713,-0.0771 0.22869,-0.11547 0.3108,-0.0502 0.1618,0.12873 0.16392,0.45247 0.0412,0.61893 -0.0594,0.0806 -0.29212,0.0697 -0.29212,0.0697 m -1.0313,1.27431 -0.84996,2.92819 m 2.51576,-0.0563 -0.72393,-2.8026 -1.02146,-0.57655 -0.0884,-0.66869 m -3.13109,4.10417 0.26729,-1.8243 -0.50944,-1.68422 -1.25247,0.28106 1.06683,1.44181 m 4.79181,-1.68291 -0.1233,-1.00672 -3.86149,-0.98489 -0.98489,-1.375002 c -0.19159,0.38792 -0.36224,0.47833 -0.73288,0.6045 l 1.09641,2.722152 3.54123,0.58032 m -5.33224,-6.492222 0.34547,-0.37492 -0.0273,-0.54384 m 3.0679,0.0457 0.25629,-0.33604 0.14113,-0.48472 m -1.05531,1.05655 -0.41086,-0.51733 m 1.85837,0.75144 0.0444,-0.5163 m -5.41864,0.55598 0.0547,-0.51079 m 4.25948,0.86481 0.64493,-0.0611 0.83028,-0.66525 m -1.18707,0.34431 -0.0354,-0.9631 m -0.52372,1.7044 -0.19002,-0.66049 0.1472,-0.65314 m -1.19307,2.00046 -0.0781,-0.65454 m -1.60393,0.33725 0.11299,-0.43803 -0.0799,-0.56262 m -0.50947,-0.34238 -0.61798,-0.65873 m 0.69956,1.39249 -0.49717,-0.0906 -0.46663,-0.76595 m 1.72871,1.85301 -0.74021,-0.7744 -0.15156,-1.36325 m 1.59746,2.319 1.65052,-0.68406 0.92515,-1.22658 m -3.62836,2.28842 c -2.4e-4,0.004 -0.27522,-0.0111 -0.38063,-0.0875 -0.0881,-0.0639 -0.14123,-0.1743 -0.16855,-0.27966 -0.0377,-0.14529 0.0157,-0.45003 0.0157,-0.45003 0,0 0.2101,0.0569 0.28809,0.12718 0.11033,0.0994 0.19887,0.34331 0.19887,0.34331 m 1.40496,0.23085 c 0,0 0.14876,-0.17454 0.25099,-0.21636 0.17134,-0.07 0.55416,-0.0362 0.55416,-0.0362 0,0 -0.12651,0.30879 -0.25493,0.40197 -0.10067,0.073 -0.23728,0.0863 -0.3615,0.0922 -0.0671,0.003 -0.19902,-0.031 -0.19902,-0.031 m 0.0345,-0.2379 c -0.18079,-0.13584 -0.46003,-0.3603 -0.73661,-0.40048 -0.22316,-0.0324 -0.52447,-0.0383 -0.66172,0.14061 -0.10027,0.13071 0.0124,0.26017 0.0261,0.49355 0.013,0.2222 0.005,0.29366 -0.11122,0.50132 -0.0708,0.12685 -0.35006,0.25955 -0.35006,0.25955 0,0 0.067,0.20049 0.15028,0.25158 0.23826,0.1462 0.56855,0.13655 0.83665,0.0574 0.26628,-0.0786 0.49689,-0.27958 0.66679,-0.49917 0.0853,-0.11025 0.1959,-0.38567 0.24906,-0.54435 m -2.24044,7.637832 h 9.67788 m 2.65873,-30.441762 c 0.5792,0.18736 1.12292,0.41598 1.62066,0.68145 m 0.35935,0.20286 c 0.30135,0.17998 0.58177,0.37359 0.83905,0.57931 m -3.42452,-1.64098 c -2.05526,-0.54147 -4.36171,-0.5537 -6.43093,-0.0341 m 3.14916,-3.12663 8e-5,2.74562 m -8e-5,-4.0212 0.59976,1.66149 -0.59976,-0.38591 -0.56721,0.40913 0.56721,-1.68471 m -2.09395,2e-5 4.24145,-5e-5 m -6.03465,4.6137 c -0.57919,0.18736 -1.12291,0.41598 -1.62066,0.68145 m -0.35936,0.20286 c -0.30135,0.17998 -0.58177,0.37359 -0.83905,0.57931 m 10.59345,9.91264 c 0.5792,-0.18736 1.12292,-0.41598 1.62066,-0.68145 m 0.35935,-0.20286 c 0.30135,-0.17998 0.58177,-0.37358 0.83905,-0.5793 m -3.42452,1.64097 c -2.05526,0.54147 -4.36171,0.5537 -6.43093,0.0341 m 3.14916,3.12662 8e-5,-2.74562 m -8e-5,4.0212 0.59976,-1.66149 -0.59976,0.38591 -0.56721,-0.40913 0.56721,1.68471 m -2.09396,-2e-5 4.24146,5e-5 m -6.03465,-4.61369 c -0.57919,-0.18736 -1.12291,-0.41598 -1.62066,-0.68145 m -0.35936,-0.20286 c -0.30135,-0.17998 -0.58177,-0.37358 -0.83905,-0.5793 m -4.39761,-16.71651 c -0.65654,0 -1.18494,0.52852 -1.18494,1.18494 v 22.36918 c 0,0.65643 0.5284,1.18494 1.18494,1.18494 h 12.63118 l -0.3762,1.40457 1.40507,-1.40457 h 8.7086 c 0.65653,0 1.18547,-0.52851 1.18547,-1.18494 v -22.36918 c 0,-0.65642 -0.52894,-1.18494 -1.18547,-1.18494 z"
       style="fill:none;stroke:#af986a;stroke-width:0.2;stroke-linecap:round;stroke-linejoin:round;stroke-opacity:1;stroke-dasharray:none"
       id="path21165" />
  </g>
</svg>
