<?xml version="1.0" encoding="UTF-8" standalone="no"?>
<svg
   width="16.072338mm"
   height="16.072338mm"
   viewBox="0 0 16.072338 16.072338"
   version="1.1"
   id="svg8848"
   sodipodi:docname="2_color.svg"
   inkscape:version="1.3.2 (091e20ef0f, 2023-11-25, custom)"
   inkscape:export-filename="2.png"
   inkscape:export-xdpi="400"
   inkscape:export-ydpi="400"
   xmlns:inkscape="http://www.inkscape.org/namespaces/inkscape"
   xmlns:sodipodi="http://sodipodi.sourceforge.net/DTD/sodipodi-0.dtd"
   xmlns="http://www.w3.org/2000/svg"
   xmlns:svg="http://www.w3.org/2000/svg"
   xmlns:rdf="http://www.w3.org/1999/02/22-rdf-syntax-ns#"
   xmlns:cc="http://creativecommons.org/ns#"
   xmlns:dc="http://purl.org/dc/elements/1.1/">
  <sodipodi:namedview
     id="namedview8850"
     pagecolor="#ffffff"
     bordercolor="#666666"
     borderopacity="1.0"
     inkscape:showpageshadow="2"
     inkscape:pageopacity="0.0"
     inkscape:pagecheckerboard="0"
     inkscape:deskcolor="#d1d1d1"
     inkscape:document-units="mm"
     showgrid="false"
     inkscape:zoom="0.75780976"
     inkscape:cx="-374.76424"
     inkscape:cy="193.32029"
     inkscape:window-width="1920"
     inkscape:window-height="1080"
     inkscape:window-x="0"
     inkscape:window-y="0"
     inkscape:window-maximized="1"
     inkscape:current-layer="g2"
     showguides="false" />
  <defs
     id="defs8852">
    <sodipodi:namedview
       id="namedview7"
       pagecolor="#ffffff"
       bordercolor="#666666"
       borderopacity="1.0"
       inkscape:pageshadow="2"
       inkscape:pageopacity="0"
       inkscape:pagecheckerboard="false"
       inkscape:document-units="mm"
       showgrid="false"
       inkscape:zoom="6.3851013"
       inkscape:cx="16.757761"
       inkscape:cy="-0.23492188"
       inkscape:window-width="1916"
       inkscape:window-height="1037"
       inkscape:window-x="0"
       inkscape:window-y="0"
       inkscape:window-maximized="1"
       inkscape:current-layer="g210"
       inkscape:showpageshadow="2"
       inkscape:deskcolor="#ffffff"
       transform="translate(3.73006, 4.20206)" />
    <defs
       id="defs2-2"
       transform="translate(3.73006, 4.20206)" />
    <sodipodi:namedview
       id="namedview3"
       pagecolor="#ffffff"
       bordercolor="#666666"
       borderopacity="1.0"
       inkscape:pageshadow="2"
       inkscape:pageopacity="0"
       inkscape:pagecheckerboard="false"
       inkscape:document-units="mm"
       showgrid="false"
       inkscape:zoom="6.3851013"
       inkscape:cx="16.757761"
       inkscape:cy="-0.23492188"
       inkscape:window-width="1916"
       inkscape:window-height="1037"
       inkscape:window-x="0"
       inkscape:window-y="0"
       inkscape:window-maximized="1"
       inkscape:current-layer="g210"
       inkscape:showpageshadow="2"
       inkscape:deskcolor="#ffffff"
       transform="translate(3.73006, 4.20206)" />
    <defs
       id="defs3"
       transform="translate(3.73006, 4.20206)" />
  </defs>
  <title
     id="title8838">Exported SVG</title>
  <style
     id="style8840"><![CDATA[
polygon {
shape-rendering:crispEdges;
stroke-width:0.074000;
}
.s0 {
stroke:#000000;
stroke-width:0.072338;
stroke-linecap:round;
stroke-linejoin:round;
fill:none;
}
.s1 {
stroke:#000000;
stroke-width:0.072338;
stroke-linecap:round;
stroke-linejoin:round;
fill:none;
}
.s2 {
stroke:#19b219;
stroke-width:0.072338;
stroke-linecap:round;
stroke-linejoin:round;
fill:none;
}
.s3 {
stroke:#7f4c00;
stroke-width:0.072338;
stroke-linecap:round;
stroke-linejoin:round;
fill:none;
}
.s4 {
stroke:#00cc00;
stroke-width:0.072338;
stroke-linecap:round;
stroke-linejoin:round;
fill:none;
}
.s5 {
stroke:#000000;
stroke-width:0.048225;
stroke-linecap:round;
stroke-linejoin:round;
fill:none;
}
.s6 {
stroke:#ff19ff;
stroke-width:0.048225;
stroke-linecap:round;
stroke-linejoin:round;
fill:none;
}
.s7 {
stroke:#ff0000;
stroke-width:0.072338;
stroke-linecap:round;
stroke-linejoin:round;
fill:none;
}
.s8 {
stroke:#ffff00;
stroke-width:0.072338;
stroke-linecap:round;
stroke-linejoin:round;
fill:none;
}
.s9 {
stroke:#001919;
stroke-width:0.048225;
stroke-linecap:round;
stroke-linejoin:round;
fill:none;
}
.sa {
stroke:#006666;
stroke-width:0.048225;
stroke-linecap:round;
stroke-linejoin:round;
fill:none;
}
.sb {
stroke:#00ffff;
stroke-width:0.144676;
stroke-linecap:round;
stroke-linejoin:round;
fill:none;
}
.sc {
stroke:#ff0000;
stroke-width:0.385802;
stroke-linecap:round;
stroke-linejoin:round;
fill:none;
}
.sd {
stroke:#191919;
stroke-width:0.048225;
stroke-linecap:round;
stroke-linejoin:round;
fill:none;
}
.se {
stroke:#000000;
stroke-width:0.048225;
stroke-linecap:round;
stroke-linejoin:round;
stroke-dasharray:0.723,0.723;
fill:none;
}
.sf {
stroke:#000000;
stroke-width:0.144676;
stroke-linecap:round;
stroke-linejoin:round;
fill:none;
}
]]></style>
  <metadata
     id="metadata385">
    <rdf:RDF>
      <cc:Work
         rdf:about="">
        <dc:title>Exported SVG</dc:title>
      </cc:Work>
    </rdf:RDF>
  </metadata>
  <g
     id="g2"
     inkscape:label="colors">
    <path
       id="path8"
       style="display:inline;fill:#fffdcc;fill-opacity:1;stroke:none;stroke-width:0.5;stroke-linecap:round;stroke-linejoin:round;stroke-dasharray:none;stroke-opacity:1"
       d="M 6.4130452 1.4629598 C 6.3321547 1.4603941 6.1890688 1.486259 5.8110148 1.4913818 C 4.8028708 1.5050333 2.0335123 1.3930387 1.4402222 3.2287435 C 0.84693204 5.0644484 0.60717055 7.9296715 2.6840739 9.1338094 C 3.6550693 9.6967687 5.1594632 9.941298 6.5267334 9.6479899 C 6.3192639 11.270818 6.5841201 13.077609 8.1245687 13.970723 C 10.201472 15.174861 14.719569 14.923122 15.114323 11.063407 C 15.509078 7.2036934 13.482275 7.398134 12.539803 6.7758138 C 11.597331 6.1534936 12.259654 6.3141181 11.25151 6.3277791 C 10.887152 6.332713 10.292246 6.3223098 9.6536743 6.3923747 C 9.6611073 6.3379466 9.6675903 6.2829474 9.6733114 6.2270101 C 10.068066 2.3672962 8.0412634 2.5612199 7.0987915 1.9388997 C 6.5097466 1.5499496 6.5478628 1.467236 6.4130452 1.4629598 z " />
    <path
       id="path219"
       style="fill:#fffcb3;fill-opacity:1;stroke:none;stroke-width:0.1;stroke-linecap:round;stroke-linejoin:round;stroke-dasharray:none;stroke-opacity:1"
       d="M 5.4058716 2.3523112 C 5.3801117 2.3521857 5.3525453 2.3576602 5.3231893 2.3688477 C 4.8868427 2.1854078 4.1200197 4.7609485 3.6834961 3.3682699 C 3.2469725 1.9755912 1.2475809 3.2463656 2.4675496 4.4679443 C 3.6875184 5.6895231 1.0876309 4.4309478 0.92087402 5.293217 C 0.75411719 6.1555061 2.239152 6.9499347 2.0210653 8.7291829 C 1.8029785 10.508431 4.5376573 8.0328473 4.3733765 9.1343262 C 4.2090956 10.235815 6.3036689 8.933203 6.1086711 8.6955933 C 5.9136723 8.4579935 6.4197838 7.4998765 7.2579549 8.6185954 C 7.3879033 8.7920393 7.5080727 8.8754013 7.612972 8.893514 C 7.6755183 9.0287217 7.7703758 9.1670081 7.9080444 9.3048584 C 9.1280132 10.526437 6.5286424 9.2673451 6.3618856 10.129614 C 6.1951287 10.991903 7.6801636 11.786332 7.4620768 13.56558 C 7.24399 15.344828 9.9781521 12.869245 9.8138713 13.970723 C 9.6495904 15.072212 11.74468 13.7696 11.549683 13.531991 C 11.476558 13.442891 11.502432 13.251939 11.607043 13.107727 C 11.78161 12.867779 12.175535 12.756361 12.698966 13.454993 C 13.537138 14.573712 13.956922 11.943392 12.632304 12.249382 C 11.307686 12.555371 13.879815 11.905851 14.561902 11.457182 C 15.243989 11.008512 15.274192 11.00175 14.963428 10.46086 C 14.652663 9.9199707 12.802552 10.2047 14.116968 9.2852214 C 15.431383 8.3657423 12.674246 8.0382426 11.938806 8.2150024 C 11.203366 8.3917623 11.233381 7.0262451 10.763684 7.205245 C 10.327338 7.0218051 9.5605144 9.5978625 9.1239909 8.2051839 C 8.9142917 7.5361625 8.3446005 7.4825892 7.9437012 7.7421631 C 7.8232627 7.4902973 7.585055 7.3216268 7.1918091 7.4124674 C 5.8671914 7.7184571 8.4393197 7.0694541 9.1214071 6.6207845 C 9.8034944 6.172115 9.8336976 6.1653523 9.5229329 5.6244629 C 9.2121683 5.0835734 7.3620573 5.3683031 8.676473 4.4488241 C 9.9908887 3.529345 7.2337516 3.2018453 6.4983114 3.3786051 C 5.8088361 3.5443175 5.7922698 2.354194 5.4058716 2.3523112 z M 5.6683879 4.4348714 C 6.506497 4.3749715 7.0459212 7.5169185 5.5526326 7.1726888 C 4.0593441 6.8284591 3.8739858 4.5671201 5.0482707 4.4813802 C 5.3523464 4.4591886 5.5092623 4.4471041 5.5820882 4.4405558 C 5.6200396 4.4379041 5.6216735 4.4382157 5.6683879 4.4348714 z M 6.4766073 8.2527262 L 6.4275146 8.2852824 L 6.4766073 8.2527262 z M 11.108883 9.2712687 C 11.946992 9.2113688 12.486933 12.353316 10.993644 12.009086 C 9.5003557 11.664856 9.3149974 9.4040342 10.489282 9.3182943 C 10.795949 9.2959135 10.952191 9.2834543 11.024133 9.2769531 C 11.061553 9.2743372 11.063004 9.2745532 11.108883 9.2712687 z M 11.917102 13.08964 L 11.868526 13.122196 L 11.917102 13.08964 z M 13.744381 13.281877 L 13.747998 13.379545 L 13.744381 13.281877 z " />
    <path
       id="path229"
       style="fill:#fffc99;fill-opacity:1;stroke:none;stroke-width:0.0999999;stroke-linecap:round;stroke-linejoin:round;stroke-dasharray:none;stroke-opacity:1"
       d="M 5.6673543 2.3383586 C 5.5772599 2.3414299 5.48393 2.3510722 5.3872681 2.3667806 C 3.8406776 2.6181145 2.2239282 3.8835201 2.4065715 5.9830973 C 2.5892147 8.0826745 4.464564 8.9849748 5.0022786 8.4232585 C 5.5399938 7.8615421 4.756859 7.3387359 5.5521159 7.8491333 C 6.3473722 8.3595306 6.8093861 8.5714645 7.6884196 6.8734823 C 8.5674532 5.1755 8.1647706 6.040622 7.8956421 4.7898885 C 7.643334 3.6173258 7.0187706 2.292289 5.6673543 2.3383586 z M 5.2312052 4.4813802 C 5.2776778 4.509825 5.3280074 4.5385317 5.3857178 4.5671631 C 6.9615683 5.3489767 3.5563341 6.3082467 5.0689412 4.6689657 C 5.1307045 4.6020299 5.183141 4.5404913 5.2312052 4.4813802 z M 11.107849 7.1752726 C 11.017755 7.1783439 10.924425 7.1874695 10.827763 7.2031779 C 9.2811722 7.4545118 7.6649398 8.7204337 7.847583 10.820011 C 8.0302262 12.919588 9.9055759 13.821889 10.44329 13.260173 C 10.981006 12.698456 10.19787 12.175133 10.993127 12.685531 C 11.788384 13.195928 12.250398 13.407862 13.129431 11.70988 C 14.008465 10.011897 13.605266 10.877019 13.336137 9.6262858 C 13.083829 8.4537231 12.459265 7.1292031 11.107849 7.1752726 z M 10.6717 9.3172607 C 10.718319 9.3458211 10.768265 9.3748114 10.826213 9.4035604 C 12.402063 10.185374 8.9973456 11.144644 10.509953 9.505363 C 10.571828 9.4383054 10.623572 9.3764654 10.6717 9.3172607 z " />
    <path
       id="path241"
       style="display:inline;fill:#fffa66;fill-opacity:1;stroke:none;stroke-width:0.0999999;stroke-linecap:round;stroke-linejoin:round;stroke-dasharray:none;stroke-opacity:1"
       d="M 5.2224202 2.4928711 C 5.1953174 2.494796 5.1678731 2.5004758 5.1402547 2.5094076 C 5.0936372 3.2983181 4.7040364 3.6668683 4.0359294 3.8359416 C 3.9171554 5.0118728 5.6614026 4.6855782 6.4580037 4.6307251 C 8.297976 4.9321889 6.2764999 6.7671785 6.6667765 7.683252 C 7.5544275 7.2213861 7.842789 6.0073425 7.9876261 5.0947795 C 7.6850204 4.5296574 7.3231208 3.9801552 8.2232707 4.0901896 C 8.7883429 3.3630958 7.6254397 3.0229257 7.2398682 3.6049479 C 6.7782923 3.1307102 5.7449633 3.4482011 5.4627157 3.3145264 C 5.953181 3.1795252 5.6289633 2.4639978 5.2224202 2.4928711 z M 3.0659627 3.1703491 C 3.0370943 3.1695527 3.0074167 3.1746461 2.9770793 3.1858521 C 2.1381705 3.4080851 3.0842812 4.2662664 3.236495 3.8834839 C 3.747469 4.4426013 3.4989898 3.182295 3.0659627 3.1703491 z M 3.6561076 4.6503621 C 3.6010154 4.6491972 3.5372469 4.6532459 3.4633545 4.6627645 C 3.2774363 5.50053 2.679576 5.9812514 1.9099609 5.5665853 C 1.0577629 6.4636704 2.77207 6.3405428 3.0731974 6.1556966 C 3.4032559 7.0093065 4.154983 7.910441 5.0746257 8.172111 C 5.9775719 7.5092504 4.1230077 6.9344024 3.8276733 6.3277791 C 3.3165426 5.8269984 4.4824901 4.6678367 3.6561076 4.6503621 z M 8.5751872 5.4012207 C 8.5597968 5.4026229 8.5440736 5.4057218 8.5276449 5.4100057 C 7.2897329 5.3613742 8.9737472 6.9977861 8.9415731 5.8601074 C 8.9208228 5.6696235 8.8060425 5.380187 8.5751872 5.4012207 z M 6.4817749 7.1675212 L 6.4673055 7.1757894 L 6.4817749 7.1675212 z M 10.662915 7.3297852 C 10.635812 7.33171 10.608368 7.3368731 10.58075 7.3458049 C 10.534132 8.1347154 10.144532 8.5032656 9.4764242 8.6723389 C 9.3576502 9.8482701 11.102414 9.5224923 11.899015 9.4676392 C 13.738987 9.769103 11.716995 11.603576 12.107271 12.519649 C 12.994922 12.057784 13.283801 10.844256 13.428638 9.9316935 C 13.126032 9.3665715 12.763615 8.8165525 13.663765 8.9265869 C 14.228837 8.1994931 13.06645 7.859323 12.68088 8.4413452 C 12.219303 7.9671075 11.185458 8.2845984 10.90321 8.1509237 C 11.393676 8.0159225 11.069458 7.3009119 10.662915 7.3297852 z M 3.3765381 7.4672445 C 1.8890784 7.8201223 3.7835608 9.2771601 3.771346 7.7163249 L 3.5816935 7.5840332 L 3.3765381 7.4672445 z M 7.5137533 7.6749837 C 6.5807767 8.1034876 7.8586909 8.7828537 8.1163005 8.4997396 C 8.2357838 8.7462356 8.5892744 8.9417647 8.6775065 8.7198812 C 9.2225455 9.3162731 8.9029731 7.8429541 8.4175741 8.0222493 C 8.2621771 8.0634151 8.1686845 8.1266206 8.119401 8.1994995 C 8.092846 8.132745 8.0541158 8.056873 7.9964111 7.9685059 C 7.8655221 7.8309022 7.6989374 7.72274 7.5137533 7.6749837 z M 5.383134 8.5059408 C 4.3804922 8.4589289 5.6597069 10.322055 5.7453857 8.9865316 C 5.7546912 8.8078737 5.6985302 8.5528099 5.4875203 8.5167928 C 5.4503117 8.5111293 5.4154772 8.5074573 5.383134 8.5059408 z M 9.0971191 9.4867594 C 9.042027 9.4855945 8.9777417 9.4896432 8.9038493 9.4991618 C 8.7179311 10.336927 8.1200708 10.818166 7.3504557 10.403499 C 6.4982577 11.300584 8.2130816 11.177457 8.514209 10.992611 C 8.8442675 11.846221 9.5959944 12.747355 10.515637 13.009025 C 11.418583 12.346165 9.5635025 11.771317 9.2681681 11.164693 C 8.7570374 10.663912 9.9235017 9.504234 9.0971191 9.4867594 z M 14.06064 10.237618 C 14.03191 10.235145 14.000997 10.237835 13.96814 10.246403 C 12.730228 10.197773 14.414759 11.8347 14.382585 10.697021 C 14.363221 10.519237 14.261752 10.254932 14.06064 10.237618 z M 11.92227 12.003918 L 11.9078 12.012187 L 11.92227 12.003918 z M 8.8170329 12.303642 C 7.3295732 12.65652 9.2245724 14.113558 9.2123576 12.552722 L 9.0227051 12.420431 L 8.8170329 12.303642 z M 12.954248 12.511381 C 11.746454 13.066105 14.24534 14.04343 13.436906 12.80542 C 13.306017 12.667816 13.139432 12.559138 12.954248 12.511381 z M 10.824146 13.342338 C 9.821504 13.295326 11.100201 15.158452 11.185881 13.822929 C 11.195181 13.644271 11.13903 13.389207 10.928015 13.35319 C 10.890806 13.347527 10.856489 13.343855 10.824146 13.342338 z " />
  </g>
  <g
     id="g1"
     inkscape:label="lines">
    <path
       id="path62806"
       style="fill:none;stroke:#000000;stroke-width:0.0999999;stroke-linecap:round;stroke-linejoin:round;stroke-dasharray:none"
       d="M 4.8123798,3.7712585 C 3.9218533,4.0227354 3.2693979,4.8398058 3.2694742,5.8089116 c 8.1e-6,1.169373 0.9500954,2.1173166 2.1220523,2.1172691 M 6.5379784,7.5908116 c 0.5867708,-0.376666 0.975415,-1.0339954 0.9754203,-1.7819 9.2e-5,-1.1693731 -0.9499148,-2.1174023 -2.1218722,-2.1174498"
       sodipodi:nodetypes="cccccc" />
    <path
       style="fill:none;stroke:#000000;stroke-width:0.0999999;stroke-linecap:round;stroke-linejoin:round;stroke-dasharray:none"
       d="m 1.67557,5.9529939 c 0,0 0.1602542,0.088516 0.2457705,0.078964 0.1141185,-0.012748 0.1823669,-0.1638222 0.2966351,-0.1751525 0.096845,-0.00961 0.2756598,0.096188 0.2756598,0.096188"
       id="path62812"
       sodipodi:nodetypes="caac" />
    <path
       style="fill:none;stroke:#000000;stroke-width:0.0999999;stroke-linecap:round;stroke-linejoin:round;stroke-dasharray:none"
       d="m 2.8647562,8.3544225 c 0,0 0.175907,-0.050729 0.2296224,-0.1179495 0.07168,-0.08971 0.013114,-0.2447939 0.085901,-0.3336044 C 3.2419651,7.8275953 3.443216,7.7759624 3.443216,7.7759624"
       id="path1"
       sodipodi:nodetypes="caac" />
    <path
       style="fill:none;stroke:#000000;stroke-width:0.0999999;stroke-linecap:round;stroke-linejoin:round;stroke-dasharray:none"
       d="m 5.3559467,9.3232952 c 0,0 0.088514,-0.1602595 0.078965,-0.2457738 C 5.4221643,8.9634057 5.2710892,8.8951532 5.2597587,8.7808901 5.2501482,8.6840456 5.3559467,8.5052259 5.3559467,8.5052259"
       id="path1-3"
       sodipodi:nodetypes="caac" />
    <path
       style="fill:none;stroke:#000000;stroke-width:0.0999999;stroke-linecap:round;stroke-linejoin:round;stroke-dasharray:none"
       d="m 7.9610102,8.4119631 c 0,0 -0.050732,-0.1759087 -0.1179518,-0.229625 C 7.7533528,8.1106608 7.5982647,8.1692098 7.5094563,8.0964386 7.4341816,8.0347549 7.3825476,7.8334982 7.3825476,7.8334982"
       id="path1-3-6"
       sodipodi:nodetypes="caac" />
    <path
       style="fill:none;stroke:#000000;stroke-width:0.0999999;stroke-linecap:round;stroke-linejoin:round;stroke-dasharray:none"
       d="m 9.1360009,5.9529986 c 0,0 -0.1602589,-0.088516 -0.2457738,-0.078964 C 8.7761119,5.886782 8.7078487,6.0378422 8.5935944,6.0491867 8.4967504,6.058795 8.3179298,5.9529939 8.3179298,5.9529939"
       id="path1-3-6-7"
       sodipodi:nodetypes="caac" />
    <path
       style="fill:none;stroke:#000000;stroke-width:0.0999999;stroke-linecap:round;stroke-linejoin:round;stroke-dasharray:none"
       d="m 8.2038432,3.4439519 c 0,0 -0.1759099,0.050729 -0.2296243,0.1179495 -0.071678,0.089705 -0.013133,0.2447938 -0.0859,0.3336044 -0.061685,0.075273 -0.262943,0.1269062 -0.262943,0.1269062"
       id="path1-3-6-7-5"
       sodipodi:nodetypes="caac" />
    <path
       style="fill:none;stroke:#000000;stroke-width:0.0999999;stroke-linecap:round;stroke-linejoin:round;stroke-dasharray:none"
       d="m 5.3559519,2.4064842 c 0,0 -0.088516,0.1602595 -0.078966,0.245769 0.012747,0.1141157 0.163809,0.1823824 0.1751537,0.2966361 0.00961,0.096844 -0.096193,0.2756642 -0.096193,0.2756642"
       id="path1-3-6-7-5-3"
       sodipodi:nodetypes="caac" />
    <path
       style="fill:none;stroke:#000000;stroke-width:0.0999999;stroke-linecap:round;stroke-linejoin:round;stroke-dasharray:none"
       d="m 2.7241411,3.4039393 c 0,0 0.05073,0.1759135 0.1179475,0.2296251 0.089706,0.071677 0.2447942,0.013128 0.3336055,0.0859 0.075275,0.061684 0.1269058,0.2629403 0.1269058,0.2629403"
       id="path1-3-6-7-5-3-5"
       sodipodi:nodetypes="caac" />
    <path
       id="path12"
       style="fill:none;stroke:#000000;stroke-width:0.0999999;stroke-linecap:round;stroke-linejoin:round;stroke-dasharray:none"
       d="M 10.253106,8.6078685 C 9.3625793,8.8593454 8.7101239,9.6764158 8.7102002,10.645522 c 8.1e-6,1.169373 0.9500954,2.117316 2.1220528,2.117269 m 1.146451,-0.335369 c 0.586771,-0.376666 0.975415,-1.033996 0.975421,-1.7819 9.2e-5,-1.1693735 -0.949915,-2.1174027 -2.121872,-2.1174502"
       sodipodi:nodetypes="cccccc" />
    <path
       style="fill:none;stroke:#000000;stroke-width:0.0999999;stroke-linecap:round;stroke-linejoin:round;stroke-dasharray:none"
       d="m 7.116296,10.789604 c 0,0 0.1602542,0.08852 0.2457705,0.07896 0.1141185,-0.01275 0.1823669,-0.163822 0.2966351,-0.175152 0.096845,-0.0096 0.2756598,0.09619 0.2756598,0.09619"
       id="path13"
       sodipodi:nodetypes="caac" />
    <path
       style="fill:none;stroke:#000000;stroke-width:0.0999999;stroke-linecap:round;stroke-linejoin:round;stroke-dasharray:none"
       d="m 8.3054822,13.191032 c 0,0 0.175907,-0.05073 0.2296224,-0.117949 0.07168,-0.08971 0.013114,-0.244794 0.085901,-0.333604 0.061685,-0.07527 0.2629364,-0.126907 0.2629364,-0.126907"
       id="path14"
       sodipodi:nodetypes="caac" />
    <path
       style="fill:none;stroke:#000000;stroke-width:0.0999999;stroke-linecap:round;stroke-linejoin:round;stroke-dasharray:none"
       d="m 10.796673,14.159905 c 0,0 0.08851,-0.160259 0.07897,-0.245774 -0.01275,-0.114115 -0.163823,-0.182368 -0.175153,-0.296631 -0.0096,-0.09684 0.09619,-0.275664 0.09619,-0.275664"
       id="path15"
       sodipodi:nodetypes="caac" />
    <path
       style="fill:none;stroke:#000000;stroke-width:0.0999999;stroke-linecap:round;stroke-linejoin:round;stroke-dasharray:none"
       d="m 13.401736,13.248573 c 0,0 -0.05073,-0.175909 -0.117952,-0.229625 -0.08971,-0.07168 -0.244793,-0.01313 -0.333602,-0.0859 -0.07527,-0.06168 -0.126908,-0.262941 -0.126908,-0.262941"
       id="path16"
       sodipodi:nodetypes="caac" />
    <path
       style="fill:none;stroke:#000000;stroke-width:0.0999999;stroke-linecap:round;stroke-linejoin:round;stroke-dasharray:none"
       d="m 14.576727,10.789609 c 0,0 -0.160259,-0.08852 -0.245774,-0.07897 -0.114115,0.01275 -0.182378,0.163808 -0.296633,0.175153 -0.09684,0.0096 -0.275664,-0.09619 -0.275664,-0.09619"
       id="path17"
       sodipodi:nodetypes="caac" />
    <path
       style="fill:none;stroke:#000000;stroke-width:0.0999999;stroke-linecap:round;stroke-linejoin:round;stroke-dasharray:none"
       d="m 13.644569,8.2805619 c 0,0 -0.17591,0.050729 -0.229624,0.1179495 -0.07168,0.089705 -0.01313,0.2447938 -0.0859,0.3336044 -0.06169,0.075273 -0.262943,0.1269062 -0.262943,0.1269062"
       id="path18"
       sodipodi:nodetypes="caac" />
    <path
       style="fill:none;stroke:#000000;stroke-width:0.0999999;stroke-linecap:round;stroke-linejoin:round;stroke-dasharray:none"
       d="m 10.796678,7.2430942 c 0,0 -0.08852,0.1602595 -0.07897,0.245769 0.01275,0.1141157 0.163809,0.1823824 0.175153,0.2966361 0.0096,0.096844 -0.09619,0.2756642 -0.09619,0.2756642"
       id="path19"
       sodipodi:nodetypes="caac" />
    <path
       style="fill:none;stroke:#000000;stroke-width:0.0999999;stroke-linecap:round;stroke-linejoin:round;stroke-dasharray:none"
       d="m 8.1648671,8.2405493 c 0,0 0.05073,0.1759135 0.1179475,0.2296251 0.089706,0.071677 0.2447942,0.013128 0.3336055,0.0859 0.075275,0.061684 0.1269058,0.2629403 0.1269058,0.2629403"
       id="path20"
       sodipodi:nodetypes="caac" />
  </g>
</svg>
