<?xml version="1.0" encoding="UTF-8" standalone="no"?>
<svg
   width="16.072338mm"
   height="16.072338mm"
   viewBox="0 0 16.072338 16.072338"
   version="1.1"
   id="svg8848"
   sodipodi:docname="3_color.svg"
   inkscape:version="1.3.2 (091e20ef0f, 2023-11-25, custom)"
   inkscape:export-filename="./3.png"
   inkscape:export-xdpi="400"
   inkscape:export-ydpi="400"
   xmlns:inkscape="http://www.inkscape.org/namespaces/inkscape"
   xmlns:sodipodi="http://sodipodi.sourceforge.net/DTD/sodipodi-0.dtd"
   xmlns="http://www.w3.org/2000/svg"
   xmlns:svg="http://www.w3.org/2000/svg"
   xmlns:rdf="http://www.w3.org/1999/02/22-rdf-syntax-ns#"
   xmlns:cc="http://creativecommons.org/ns#"
   xmlns:dc="http://purl.org/dc/elements/1.1/">
  <sodipodi:namedview
     id="namedview8850"
     pagecolor="#ffffff"
     bordercolor="#666666"
     borderopacity="1.0"
     inkscape:showpageshadow="2"
     inkscape:pageopacity="0.0"
     inkscape:pagecheckerboard="0"
     inkscape:deskcolor="#d1d1d1"
     inkscape:document-units="mm"
     showgrid="false"
     inkscape:zoom="6.3990609"
     inkscape:cx="51.413794"
     inkscape:cy="34.614454"
     inkscape:window-width="1920"
     inkscape:window-height="1080"
     inkscape:window-x="0"
     inkscape:window-y="0"
     inkscape:window-maximized="1"
     inkscape:current-layer="g29"
     showguides="false" />
  <defs
     id="defs8852">
    <sodipodi:namedview
       id="namedview7"
       pagecolor="#ffffff"
       bordercolor="#666666"
       borderopacity="1.0"
       inkscape:pageshadow="2"
       inkscape:pageopacity="0"
       inkscape:pagecheckerboard="false"
       inkscape:document-units="mm"
       showgrid="false"
       inkscape:zoom="6.3851013"
       inkscape:cx="16.757761"
       inkscape:cy="-0.23492188"
       inkscape:window-width="1916"
       inkscape:window-height="1037"
       inkscape:window-x="0"
       inkscape:window-y="0"
       inkscape:window-maximized="1"
       inkscape:current-layer="g210"
       inkscape:showpageshadow="2"
       inkscape:deskcolor="#ffffff"
       transform="translate(3.73006, 4.20206)" />
    <defs
       id="defs2-2"
       transform="translate(3.73006, 4.20206)" />
    <sodipodi:namedview
       id="namedview3-0"
       pagecolor="#ffffff"
       bordercolor="#666666"
       borderopacity="1.0"
       inkscape:pageshadow="2"
       inkscape:pageopacity="0"
       inkscape:pagecheckerboard="false"
       inkscape:document-units="mm"
       showgrid="false"
       inkscape:zoom="6.3851013"
       inkscape:cx="16.757761"
       inkscape:cy="-0.23492188"
       inkscape:window-width="1916"
       inkscape:window-height="1037"
       inkscape:window-x="0"
       inkscape:window-y="0"
       inkscape:window-maximized="1"
       inkscape:current-layer="g210"
       inkscape:showpageshadow="2"
       inkscape:deskcolor="#ffffff"
       transform="translate(3.73006, 4.20206)" />
    <defs
       id="defs3-6"
       transform="translate(3.73006, 4.20206)" />
    <sodipodi:namedview
       id="namedview3"
       pagecolor="#ffffff"
       bordercolor="#666666"
       borderopacity="1.0"
       inkscape:pageshadow="2"
       inkscape:pageopacity="0"
       inkscape:pagecheckerboard="false"
       inkscape:document-units="mm"
       showgrid="false"
       inkscape:zoom="6.3851013"
       inkscape:cx="16.757761"
       inkscape:cy="-0.23492188"
       inkscape:window-width="1916"
       inkscape:window-height="1037"
       inkscape:window-x="0"
       inkscape:window-y="0"
       inkscape:window-maximized="1"
       inkscape:current-layer="g210"
       inkscape:showpageshadow="2"
       inkscape:deskcolor="#ffffff"
       transform="translate(3.73006, 4.20206)" />
    <defs
       id="defs3"
       transform="translate(3.73006, 4.20206)" />
  </defs>
  <title
     id="title8838">Exported SVG</title>
  <style
     id="style8840"><![CDATA[
polygon {
shape-rendering:crispEdges;
stroke-width:0.074000;
}
.s0 {
stroke:#000000;
stroke-width:0.072338;
stroke-linecap:round;
stroke-linejoin:round;
fill:none;
}
.s1 {
stroke:#000000;
stroke-width:0.072338;
stroke-linecap:round;
stroke-linejoin:round;
fill:none;
}
.s2 {
stroke:#19b219;
stroke-width:0.072338;
stroke-linecap:round;
stroke-linejoin:round;
fill:none;
}
.s3 {
stroke:#7f4c00;
stroke-width:0.072338;
stroke-linecap:round;
stroke-linejoin:round;
fill:none;
}
.s4 {
stroke:#00cc00;
stroke-width:0.072338;
stroke-linecap:round;
stroke-linejoin:round;
fill:none;
}
.s5 {
stroke:#000000;
stroke-width:0.048225;
stroke-linecap:round;
stroke-linejoin:round;
fill:none;
}
.s6 {
stroke:#ff19ff;
stroke-width:0.048225;
stroke-linecap:round;
stroke-linejoin:round;
fill:none;
}
.s7 {
stroke:#ff0000;
stroke-width:0.072338;
stroke-linecap:round;
stroke-linejoin:round;
fill:none;
}
.s8 {
stroke:#ffff00;
stroke-width:0.072338;
stroke-linecap:round;
stroke-linejoin:round;
fill:none;
}
.s9 {
stroke:#001919;
stroke-width:0.048225;
stroke-linecap:round;
stroke-linejoin:round;
fill:none;
}
.sa {
stroke:#006666;
stroke-width:0.048225;
stroke-linecap:round;
stroke-linejoin:round;
fill:none;
}
.sb {
stroke:#00ffff;
stroke-width:0.144676;
stroke-linecap:round;
stroke-linejoin:round;
fill:none;
}
.sc {
stroke:#ff0000;
stroke-width:0.385802;
stroke-linecap:round;
stroke-linejoin:round;
fill:none;
}
.sd {
stroke:#191919;
stroke-width:0.048225;
stroke-linecap:round;
stroke-linejoin:round;
fill:none;
}
.se {
stroke:#000000;
stroke-width:0.048225;
stroke-linecap:round;
stroke-linejoin:round;
stroke-dasharray:0.723,0.723;
fill:none;
}
.sf {
stroke:#000000;
stroke-width:0.144676;
stroke-linecap:round;
stroke-linejoin:round;
fill:none;
}
]]></style>
  <metadata
     id="metadata385">
    <rdf:RDF>
      <cc:Work
         rdf:about="">
        <dc:title>Exported SVG</dc:title>
      </cc:Work>
    </rdf:RDF>
  </metadata>
  <g
     id="g29"
     inkscape:label="colors">
    <path
       id="path8-1"
       style="display:inline;fill:#fffdcc;fill-opacity:1;stroke:none;stroke-width:0.5;stroke-linecap:round;stroke-linejoin:round;stroke-dasharray:none;stroke-opacity:1"
       d="M 5.6275635 0.37568766 C 5.546673 0.37312197 5.403587 0.39847008 5.025533 0.40359294 C 4.017389 0.41724437 1.2480305 0.30576655 0.6547404 2.1414714 C 0.06145026 3.9771762 -0.17831122 6.8423994 1.8985921 8.0465373 C 2.3980632 8.3361184 3.0394942 8.5402319 3.7300049 8.6315145 C 3.8265493 9.7917064 4.2773506 10.88411 5.3691813 11.517126 C 5.884414 11.815846 6.5502523 12.024703 7.2657064 12.111405 C 7.3513817 13.294215 7.7991055 14.413897 8.9100505 15.057996 C 10.986954 16.262133 15.504534 16.010394 15.899288 12.15068 C 16.294043 8.2909656 14.26724 8.4854061 13.324768 7.8630859 C 12.537005 7.3429211 12.859769 7.3697578 12.401827 7.4005819 C 12.286632 4.7866403 10.614506 4.8706716 9.7838989 4.3222168 C 9.038197 3.8298251 9.286772 3.8282631 8.9281372 3.8555786 C 8.7850876 1.3165692 7.1365855 1.3949006 6.3138265 0.8516276 C 5.7247816 0.46267751 5.762381 0.37996382 5.6275635 0.37568766 z " />
    <path
       id="path15-8"
       style="fill:#fffcb3;fill-opacity:1;stroke:none;stroke-width:0.1;stroke-linecap:round;stroke-linejoin:round;stroke-dasharray:none;stroke-opacity:1"
       d="M 4.6203898 1.2650391 C 4.5946299 1.2649135 4.5670636 1.2698713 4.5377075 1.2810588 C 4.1013615 1.097619 3.3345375 3.6736749 2.8980143 2.2809977 C 2.4614913 0.88832052 0.46210028 2.1590946 1.6820679 3.3806722 C 2.9020355 4.6022498 0.30214893 3.3436766 0.13539225 4.2059448 C -0.031364412 5.0682332 1.4541867 5.8621476 1.2361003 7.641394 C 1.0180137 9.4206406 3.7521753 6.9455762 3.5878947 8.047054 C 3.5467828 8.3227055 3.6486645 8.4454927 3.8188883 8.4744181 C 4.1861046 9.1134235 4.8579247 9.873923 4.7061727 11.111983 C 4.4880859 12.891231 7.2227647 10.415648 7.0584839 11.517126 C 7.0145867 11.811454 7.1326935 11.933488 7.3246175 11.950692 C 7.6815102 12.603219 8.4039382 13.372823 8.2470418 14.652852 C 8.028955 16.432101 10.763634 13.956517 10.599353 15.057996 C 10.435072 16.159485 12.529645 14.856872 12.334648 14.619263 C 12.261523 14.530163 12.287914 14.339211 12.392525 14.194999 C 12.413248 14.166515 12.4376 14.141202 12.464355 14.117485 C 12.626397 14.155309 12.782978 14.14385 12.944946 14.05909 C 13.102424 14.127295 13.283383 14.27459 13.483931 14.542265 C 14.275057 15.598191 14.692821 13.31535 13.623458 13.312882 C 13.644617 13.278824 13.66641 13.240909 13.688053 13.204362 C 14.247648 13.02432 15.017135 12.762205 15.347384 12.544971 C 16.029471 12.096301 16.059674 12.089022 15.74891 11.548132 C 15.438145 11.007243 13.588034 11.291973 14.90245 10.372493 C 15.882716 9.6867631 14.59839 9.330745 13.576949 9.2671346 C 13.291088 8.7982839 12.898025 8.4313248 12.36307 8.30802 C 12.331572 8.2278081 12.280167 8.1328002 12.20804 8.0072632 C 11.897276 7.4663737 10.047165 7.7511034 11.36158 6.8316243 C 12.341513 6.146128 11.058902 5.7900539 10.03763 5.7262655 C 9.7591544 5.2693416 9.3787531 4.9078148 8.8645752 4.7754191 C 8.8326535 4.7076666 8.7925297 4.6330556 8.7374512 4.5371908 C 8.4266868 3.9963018 6.5765768 4.2805132 7.8909912 3.3610352 C 9.2054056 2.441557 6.4482692 2.1140566 5.7128296 2.2908162 C 5.023355 2.4565285 5.0067877 1.2669219 4.6203898 1.2650391 z M 4.8829061 3.3470825 C 5.3645662 3.3126581 5.7455748 4.3346741 5.700944 5.1459391 C 5.2375916 5.1150186 4.7369267 5.5350969 4.7656006 6.0848999 C 3.2742521 5.7390254 3.0895761 3.4798074 4.2633057 3.3941081 C 4.5961643 3.3698158 4.746415 3.3582103 4.808492 3.3522502 C 4.8422222 3.3498843 4.8426194 3.3499666 4.8829061 3.3470825 z M 7.9163127 6.8641805 C 7.9628388 6.8926677 8.013028 6.9212889 8.0708252 6.9499634 C 9.6466741 7.7317762 6.241443 8.6910453 7.7540487 7.051766 C 7.8158463 6.9847927 7.8682289 6.9233203 7.9163127 6.8641805 z M 7.5184041 7.3582072 L 7.5220215 7.4553589 L 7.5184041 7.3582072 z M 11.457182 10.40505 C 11.503708 10.433537 11.553897 10.462158 11.611694 10.490833 C 13.187549 11.272645 9.7823119 12.231914 11.294918 10.592635 C 11.356716 10.525662 11.409098 10.464189 11.457182 10.40505 z M 12.702584 14.176912 L 12.653491 14.209469 L 12.702584 14.176912 z M 14.529862 14.369666 L 14.532963 14.466817 L 14.529862 14.369666 z " />
    <path
       id="path16-7"
       style="fill:#fffc99;fill-opacity:1;stroke:none;stroke-width:0.0999999;stroke-linecap:round;stroke-linejoin:round;stroke-dasharray:none;stroke-opacity:1"
       d="M 4.6019208,1.2792178 C 3.0553288,1.530552 1.438705,2.7962462 1.6213484,4.8958255 1.8039918,6.9954048 3.6793932,7.8977326 4.2171084,7.3360157 4.7548241,6.7742988 3.971735,6.2511913 4.7669927,6.7615892 5.5622498,7.271987 6.0242118,7.4840935 6.9032462,5.7861096 7.7822807,4.0881256 7.3792621,4.9533328 7.1101333,3.7025981 6.8410044,2.4518633 6.1485129,1.0278836 4.6019208,1.2792178 Z m 2.3812499,4.9697236 c 0.073159,0.1141918 -0.073159,-0.1141918 0,0 z M 1.9478195,2.9773064 c 0.4543045,-0.065303 -0.4543046,0.065303 0,0 z M 4.7874393,1.3670675 4.8477476,1.40493 Z M 4.2908285,1.779446 4.2763603,1.7980443 Z m -0.032555,0.038243 c 0.4946977,-0.3022394 -0.4946978,0.3022394 0,0 z M 4.600372,3.479599 C 6.1762241,4.2614134 2.7711363,5.2207301 4.283745,3.5814474 5.7963542,1.9421599 3.0245199,2.6977845 4.600372,3.479599 Z M 2.2909521,4.20979 c 0.2641949,-0.1540664 -0.2641949,0.1540664 0,0 z M 1.8015763,4.3947886 1.779905,4.486182 Z M 1.6449966,4.8402398 c 0.4329765,0.060994 -0.4329765,-0.060994 0,0 z m 5.0358685,0.7973686 c 0.3251348,-0.5467764 -0.3251348,0.5467764 0,0 z"
       sodipodi:nodetypes="zzzzzzzzzzzzzzzzzzzzzzzzzzzzzzz" />
    <path
       id="path17-9"
       style="display:inline;fill:#fffa66;fill-opacity:1;stroke:none;stroke-width:0.0999999;stroke-linecap:round;stroke-linejoin:round;stroke-dasharray:none;stroke-opacity:1"
       d="M 4.4369385 1.405599 C 4.4098356 1.4075238 4.3823914 1.4126869 4.3547729 1.4216187 C 4.3081554 2.2105292 3.9185546 2.5795962 3.2504476 2.7486694 C 3.1316736 3.9246007 4.8764376 3.5983061 5.6730387 3.543453 C 7.0061722 3.7618755 6.3136058 4.7846229 5.9784465 5.6802734 C 5.8897644 5.5806291 5.7810562 5.5247447 5.6621867 5.5686523 C 4.9285682 5.7629933 5.5603232 6.4438708 5.8322021 6.3556844 C 5.8354739 6.4407354 5.84965 6.521702 5.8812948 6.5959798 C 6.7689458 6.134114 7.057824 4.9200704 7.2026611 4.0075073 C 6.9000554 3.4423853 6.537639 2.8928831 7.4377889 3.0029175 C 8.0028611 2.2758237 6.8404747 1.9356536 6.4549032 2.5176758 C 5.9933273 2.0434381 4.9594815 2.360929 4.6772339 2.2272542 C 5.1676993 2.0922531 4.8434815 1.3767257 4.4369385 1.405599 z M 2.280481 2.083077 C 2.2516125 2.0822806 2.2219349 2.0868572 2.1915975 2.0980632 C 1.3526887 2.3202962 2.2993162 3.1784775 2.4515299 2.795695 C 2.962504 3.3548124 2.713508 2.0950229 2.280481 2.083077 z M 2.8711426 3.56309 C 2.8160504 3.561925 2.7517651 3.565457 2.6778727 3.5749756 C 2.4919545 4.4127411 1.8940942 4.8939792 1.1244792 4.4793132 C 0.27228109 5.3763983 1.987105 5.2532707 2.2882324 5.0684245 C 2.6182909 5.9220343 3.370018 6.8231688 4.2896606 7.0848389 C 5.1926069 6.4219782 3.337526 5.8471303 3.0421916 5.240507 C 2.5310608 4.7397262 3.6975251 3.5805645 2.8711426 3.56309 z M 7.7902222 4.3139486 C 7.7748318 4.3153508 7.7585918 4.3179329 7.7421631 4.3222168 C 6.9126389 4.2896289 7.3953389 5.0130739 7.7943563 5.1521403 C 7.6829967 5.7642293 7.3108105 6.0694919 6.7210368 6.2187419 C 6.7060096 6.3675194 6.7208631 6.49221 6.7597941 6.5964966 C 6.7493193 6.5933709 6.7388716 6.5899284 6.7282715 6.5871948 C 6.4284263 6.7249098 6.3571099 6.888903 6.4068441 7.0383301 C 6.3386865 7.0305804 6.2540652 7.0319613 6.1484619 7.0455648 C 5.9911912 7.754242 5.5385784 8.2056289 4.9371663 8.0775431 C 4.9473466 8.0252425 4.9555164 7.9676506 4.959904 7.8992594 C 4.9692095 7.7206015 4.9130485 7.465021 4.7020386 7.4290039 C 4.0523937 7.3301225 4.1634225 7.8879779 4.411617 8.1927816 C 4.0786868 8.8208198 5.4883611 8.7050351 5.7588216 8.5390137 C 6.0888801 9.3926235 6.8406072 10.293758 7.7602498 10.555428 C 8.6631961 9.8925674 6.8081152 9.3177195 6.5127808 8.7110962 C 6.1559323 8.3614736 6.616129 7.6906405 6.6455892 7.3116984 C 7.0054031 7.552999 7.5885079 7.5946133 7.2930949 7.0223104 C 7.8463394 7.177379 8.6655291 7.0469636 9.1436279 7.0140422 C 10.478499 7.2327494 9.782657 8.2579971 9.4480021 9.15448 C 9.3746515 9.0995635 9.2917732 9.0767513 9.2030558 9.1095215 C 8.5225612 9.2897895 9.0163565 9.8884049 9.3084757 9.9037882 C 9.3162952 9.960523 9.3299919 10.015183 9.351884 10.066569 C 9.4348823 10.023383 9.5110127 9.9716633 9.5839111 9.9161906 C 9.7070627 9.9985323 9.7534591 9.9164391 9.7456584 9.777181 C 10.33026 9.2079338 10.552487 8.2389807 10.67325 7.4780965 C 10.370645 6.9129745 10.008228 6.3634723 10.908378 6.4735067 C 11.47345 5.7464129 10.310547 5.4062428 9.9249756 5.988265 C 9.4633997 5.5140272 8.4300707 5.8315182 8.1478231 5.6978434 C 8.5356184 5.5911023 8.414033 5.1220087 8.1452393 4.944401 C 8.154211 4.895886 8.1584937 4.8395127 8.1566081 4.7728353 C 8.1358577 4.5823513 8.0210775 4.2929149 7.7902222 4.3139486 z M 2.5910563 6.3794556 C 1.1035966 6.7323334 2.9985958 8.189888 2.986381 6.6290527 L 2.7967285 6.4967611 L 2.5910563 6.3794556 z M 11.305253 7.784021 C 11.276523 7.7815476 11.24561 7.7842382 11.212752 7.792806 C 10.327866 7.7580432 10.935861 8.5837149 11.342977 8.6423665 C 11.243086 9.2879956 10.867536 9.6063484 10.261906 9.759611 C 10.249265 9.8847627 10.25898 9.9919069 10.28516 10.085173 C 10.256933 10.074736 10.228083 10.06532 10.198861 10.057784 C 9.8530181 10.216625 9.8116403 10.409912 9.9089559 10.576099 C 9.8478032 10.572652 9.776207 10.575243 9.6893311 10.586434 C 9.5250895 11.326522 9.0390243 11.787045 8.3974202 11.598775 C 8.4132352 11.535869 8.4246565 11.460828 8.4304932 11.369849 C 8.4398032 11.191191 8.3836372 10.93561 8.1726278 10.899593 C 7.4656629 10.791987 7.6579569 11.464247 7.9493856 11.739335 C 7.6282893 12.360804 9.0300725 12.245388 9.2996908 12.079883 C 9.6297492 12.933493 10.380959 13.834627 11.300602 14.096297 C 12.203548 13.433437 10.348985 12.858589 10.05365 12.251965 C 9.68751 11.893239 10.181179 11.196943 10.187492 10.824146 C 10.534012 11.017742 11.005577 11.029326 10.792106 10.55026 C 11.345125 10.724488 12.193684 10.588672 12.68398 10.554911 C 14.523952 10.856375 12.502476 12.690848 12.892753 13.606921 C 13.780404 13.145056 14.068766 11.931529 14.213603 11.018966 C 13.910997 10.453844 13.549097 9.9038247 14.449247 10.013859 C 15.014319 9.2867653 13.851415 8.9465951 13.465845 9.5286174 C 13.004268 9.0543796 11.97094 9.3718706 11.688692 9.2381958 C 12.112066 9.1216619 11.928236 8.5733464 11.608594 8.443929 C 11.621937 8.3895475 11.628963 8.3241516 11.626681 8.2434245 C 11.607313 8.0656394 11.506364 7.801335 11.305253 7.784021 z M 6.0616455 9.8500448 C 4.5741858 10.202923 6.469185 11.660477 6.4569702 10.099642 L 6.2668009 9.9668335 L 6.0616455 9.8500448 z M 14.846122 11.32489 C 14.817392 11.322417 14.786479 11.325107 14.753621 11.333675 C 13.51571 11.285045 15.199724 12.921972 15.16755 11.784294 C 15.148186 11.606509 15.047234 11.342205 14.846122 11.32489 z M 12.707751 13.091191 L 12.693282 13.099459 L 12.707751 13.091191 z M 9.6025146 13.390914 C 8.1150549 13.743793 10.009537 15.201347 9.9973226 13.640511 L 9.8076701 13.507703 L 9.6025146 13.390914 z M 13.73973 13.598653 C 12.531936 14.153378 15.030822 15.130702 14.222388 13.892692 C 14.091499 13.755088 13.924914 13.64641 13.73973 13.598653 z M 11.609111 14.42961 C 10.606469 14.382598 11.885683 16.246241 11.971362 14.910718 C 11.980662 14.73206 11.924502 14.476479 11.713497 14.440462 C 11.676288 14.434799 11.641454 14.431127 11.609111 14.42961 z " />
  </g>
  <g
     id="g28"
     inkscape:label="lines">
    <path
       id="path18-0"
       style="fill:none;stroke:#000000;stroke-width:0.0999999;stroke-linecap:round;stroke-linejoin:round;stroke-dasharray:none"
       d="M 4.0271098,2.6839285 C 3.1365833,2.9354054 2.4841279,3.7524758 2.4842042,4.7215816 c 8.1e-6,1.169373 0.9500954,2.1173166 2.1220523,2.1172691 M 5.7527084,6.5034816 c 0.5867708,-0.376666 0.975415,-1.0339954 0.9754203,-1.7819 9.2e-5,-1.1693731 -0.9499148,-2.1174023 -2.1218722,-2.1174498"
       sodipodi:nodetypes="cccccc" />
    <path
       style="fill:none;stroke:#000000;stroke-width:0.0999999;stroke-linecap:round;stroke-linejoin:round;stroke-dasharray:none"
       d="m 0.8903,4.8656639 c 0,0 0.1602542,0.088516 0.2457705,0.078964 0.1141185,-0.012748 0.1823669,-0.1638222 0.2966351,-0.1751525 0.096845,-0.00961 0.2756598,0.096188 0.2756598,0.096188"
       id="path19-2"
       sodipodi:nodetypes="caac" />
    <path
       style="fill:none;stroke:#000000;stroke-width:0.0999999;stroke-linecap:round;stroke-linejoin:round;stroke-dasharray:none"
       d="m 2.0794862,7.2670925 c 0,0 0.175907,-0.050729 0.2296224,-0.1179495 0.07168,-0.08971 0.013114,-0.2447939 0.085901,-0.3336044 C 2.4566951,6.7402653 2.657946,6.6886324 2.657946,6.6886324"
       id="path20-3"
       sodipodi:nodetypes="caac" />
    <path
       style="fill:none;stroke:#000000;stroke-width:0.0999999;stroke-linecap:round;stroke-linejoin:round;stroke-dasharray:none"
       d="m 4.5706767,8.2359652 c 0,0 0.088514,-0.1602595 0.078965,-0.2457738 C 4.6368943,7.8760757 4.4858192,7.8078232 4.4744887,7.6935601 4.4648782,7.5967156 4.5706767,7.4178959 4.5706767,7.4178959"
       id="path21-7"
       sodipodi:nodetypes="caac" />
    <path
       style="fill:none;stroke:#000000;stroke-width:0.0999999;stroke-linecap:round;stroke-linejoin:round;stroke-dasharray:none"
       d="m 7.4185732,2.3566219 c 0,0 -0.1759099,0.050729 -0.2296243,0.1179495 -0.071678,0.089705 -0.013133,0.2447938 -0.0859,0.3336044 -0.061685,0.075273 -0.262943,0.1269062 -0.262943,0.1269062"
       id="path24-2"
       sodipodi:nodetypes="caac" />
    <path
       style="fill:none;stroke:#000000;stroke-width:0.0999999;stroke-linecap:round;stroke-linejoin:round;stroke-dasharray:none"
       d="m 4.5706819,1.3191542 c 0,0 -0.088516,0.1602595 -0.078966,0.245769 0.012747,0.1141157 0.163809,0.1823824 0.1751537,0.2966361 0.00961,0.096844 -0.096193,0.2756642 -0.096193,0.2756642"
       id="path25-2"
       sodipodi:nodetypes="caac" />
    <path
       style="fill:none;stroke:#000000;stroke-width:0.0999999;stroke-linecap:round;stroke-linejoin:round;stroke-dasharray:none"
       d="m 1.9388711,2.3166093 c 0,0 0.05073,0.1759135 0.1179475,0.2296251 0.089706,0.071677 0.2447942,0.013128 0.3336055,0.0859 0.075275,0.061684 0.1269058,0.2629403 0.1269058,0.2629403"
       id="path26-8"
       sodipodi:nodetypes="caac" />
    <path
       id="path62806"
       style="fill:none;stroke:#000000;stroke-width:0.0999999;stroke-linecap:round;stroke-linejoin:round;stroke-dasharray:none"
       d="M 7.4976018,6.1544185 C 6.6070753,6.4058954 5.9546199,7.2229658 5.9546962,8.1920716 c 8.1e-6,1.169373 0.9500954,2.1173164 2.1220523,2.1172694 M 9.2232004,9.9739716 C 9.8099712,9.5973056 10.198615,8.9399762 10.198621,8.1920716 10.198713,7.0226985 9.2487059,6.0746693 8.0767485,6.0746218"
       sodipodi:nodetypes="cccccc" />
    <path
       style="fill:none;stroke:#000000;stroke-width:0.0999999;stroke-linecap:round;stroke-linejoin:round;stroke-dasharray:none"
       d="m 5.5499782,10.737582 c 0,0 0.175907,-0.05073 0.2296224,-0.117949 0.07168,-0.08971 0.013114,-0.244794 0.085901,-0.333604 0.061686,-0.07527 0.2629364,-0.126907 0.2629364,-0.126907"
       id="path1"
       sodipodi:nodetypes="caac" />
    <path
       style="fill:none;stroke:#000000;stroke-width:0.0999999;stroke-linecap:round;stroke-linejoin:round;stroke-dasharray:none"
       d="m 10.889065,5.8271119 c 0,0 -0.17591,0.050729 -0.229624,0.1179495 -0.07168,0.089705 -0.01313,0.2447938 -0.0859,0.3336044 -0.06169,0.075273 -0.262943,0.1269062 -0.262943,0.1269062"
       id="path1-3-6-7-5"
       sodipodi:nodetypes="caac" />
    <path
       style="fill:none;stroke:#000000;stroke-width:0.0999999;stroke-linecap:round;stroke-linejoin:round;stroke-dasharray:none"
       d="m 8.0411739,4.7896442 c 0,0 -0.088516,0.1602595 -0.078966,0.245769 0.012747,0.1141157 0.163809,0.1823824 0.1751537,0.2966361 0.00961,0.096844 -0.096193,0.2756642 -0.096193,0.2756642"
       id="path1-3-6-7-5-3"
       sodipodi:nodetypes="caac" />
    <path
       id="path18"
       style="fill:none;stroke:#000000;stroke-width:0.0999999;stroke-linecap:round;stroke-linejoin:round;stroke-dasharray:none"
       d="m 11.038376,9.6951985 c -0.890527,0.2514769 -1.5429821,1.0685475 -1.5429058,2.0376535 8.1e-6,1.169373 0.9500958,2.117316 2.1220528,2.117269 m 1.146451,-0.335369 c 0.586771,-0.376666 0.975415,-1.033996 0.975421,-1.7819 9.2e-5,-1.169373 -0.949915,-2.1174027 -2.121872,-2.1174502"
       sodipodi:nodetypes="cccccc" />
    <path
       style="fill:none;stroke:#000000;stroke-width:0.0999999;stroke-linecap:round;stroke-linejoin:round;stroke-dasharray:none"
       d="m 7.901566,11.876934 c 0,0 0.1602542,0.08852 0.2457705,0.07896 0.1141185,-0.01275 0.1823669,-0.163822 0.2966351,-0.175152 0.096845,-0.0096 0.2756598,0.09619 0.2756598,0.09619"
       id="path19"
       sodipodi:nodetypes="caac" />
    <path
       style="fill:none;stroke:#000000;stroke-width:0.0999999;stroke-linecap:round;stroke-linejoin:round;stroke-dasharray:none"
       d="m 9.0907522,14.278362 c 0,0 0.175907,-0.05073 0.2296224,-0.117949 0.07168,-0.08971 0.013114,-0.244794 0.085901,-0.333604 0.061685,-0.07527 0.2629364,-0.126907 0.2629364,-0.126907"
       id="path20"
       sodipodi:nodetypes="caac" />
    <path
       style="fill:none;stroke:#000000;stroke-width:0.0999999;stroke-linecap:round;stroke-linejoin:round;stroke-dasharray:none"
       d="m 11.581943,15.247235 c 0,0 0.08851,-0.160259 0.07896,-0.245774 -0.01275,-0.114115 -0.163823,-0.182368 -0.175153,-0.296631 -0.0096,-0.09684 0.09619,-0.275664 0.09619,-0.275664"
       id="path21"
       sodipodi:nodetypes="caac" />
    <path
       style="fill:none;stroke:#000000;stroke-width:0.0999999;stroke-linecap:round;stroke-linejoin:round;stroke-dasharray:none"
       d="m 14.187006,14.335903 c 0,0 -0.05073,-0.175909 -0.117952,-0.229625 -0.08971,-0.07168 -0.244793,-0.01313 -0.333602,-0.0859 -0.07527,-0.06168 -0.126908,-0.262941 -0.126908,-0.262941"
       id="path22"
       sodipodi:nodetypes="caac" />
    <path
       style="fill:none;stroke:#000000;stroke-width:0.0999999;stroke-linecap:round;stroke-linejoin:round;stroke-dasharray:none"
       d="m 15.361997,11.876939 c 0,0 -0.160259,-0.08852 -0.245774,-0.07897 -0.114115,0.01275 -0.182378,0.163808 -0.296633,0.175153 -0.09684,0.0096 -0.275664,-0.09619 -0.275664,-0.09619"
       id="path23"
       sodipodi:nodetypes="caac" />
    <path
       style="fill:none;stroke:#000000;stroke-width:0.0999999;stroke-linecap:round;stroke-linejoin:round;stroke-dasharray:none"
       d="m 14.429839,9.3678919 c 0,0 -0.17591,0.050729 -0.229624,0.1179495 -0.07168,0.089705 -0.01313,0.2447938 -0.0859,0.3336044 -0.06168,0.075273 -0.262943,0.1269062 -0.262943,0.1269062"
       id="path24"
       sodipodi:nodetypes="caac" />
    <path
       style="fill:none;stroke:#000000;stroke-width:0.0999999;stroke-linecap:round;stroke-linejoin:round;stroke-dasharray:none"
       d="m 11.581948,8.3304242 c 0,0 -0.08852,0.1602595 -0.07897,0.245769 0.01275,0.1141157 0.163809,0.1823824 0.175153,0.2966361 0.0096,0.096844 -0.09619,0.2756642 -0.09619,0.2756642"
       id="path25"
       sodipodi:nodetypes="caac" />
  </g>
</svg>
