<?xml version="1.0" encoding="UTF-8" standalone="no"?>
<svg
   width="16.072338mm"
   height="16.072338mm"
   viewBox="0 0 16.072338 16.072338"
   version="1.1"
   id="svg8848"
   sodipodi:docname="4_color.svg"
   inkscape:version="1.3.2 (091e20ef0f, 2023-11-25, custom)"
   inkscape:export-filename="4.png"
   inkscape:export-xdpi="400"
   inkscape:export-ydpi="400"
   xml:space="preserve"
   xmlns:inkscape="http://www.inkscape.org/namespaces/inkscape"
   xmlns:sodipodi="http://sodipodi.sourceforge.net/DTD/sodipodi-0.dtd"
   xmlns="http://www.w3.org/2000/svg"
   xmlns:svg="http://www.w3.org/2000/svg"
   xmlns:rdf="http://www.w3.org/1999/02/22-rdf-syntax-ns#"
   xmlns:cc="http://creativecommons.org/ns#"
   xmlns:dc="http://purl.org/dc/elements/1.1/"
   xmlns:ns3="svglink"
   xmlns:ns4="svglink:origin"><sodipodi:namedview
     id="namedview8850"
     pagecolor="#ffffff"
     bordercolor="#666666"
     borderopacity="1.0"
     inkscape:showpageshadow="2"
     inkscape:pageopacity="0.0"
     inkscape:pagecheckerboard="0"
     inkscape:deskcolor="#d1d1d1"
     inkscape:document-units="mm"
     showgrid="false"
     inkscape:zoom="14.078125"
     inkscape:cx="20.741398"
     inkscape:cy="36.688124"
     inkscape:window-width="1920"
     inkscape:window-height="1080"
     inkscape:window-x="0"
     inkscape:window-y="0"
     inkscape:window-maximized="1"
     inkscape:current-layer="svg8848"
     showguides="false" /><defs
     id="defs8852" /><title
     id="title8838">Exported SVG</title><style
     id="style8840"><![CDATA[
polygon {
shape-rendering:crispEdges;
stroke-width:0.074000;
}
.s0 {
stroke:#000000;
stroke-width:0.072338;
stroke-linecap:round;
stroke-linejoin:round;
fill:none;
}
.s1 {
stroke:#000000;
stroke-width:0.072338;
stroke-linecap:round;
stroke-linejoin:round;
fill:none;
}
.s2 {
stroke:#19b219;
stroke-width:0.072338;
stroke-linecap:round;
stroke-linejoin:round;
fill:none;
}
.s3 {
stroke:#7f4c00;
stroke-width:0.072338;
stroke-linecap:round;
stroke-linejoin:round;
fill:none;
}
.s4 {
stroke:#00cc00;
stroke-width:0.072338;
stroke-linecap:round;
stroke-linejoin:round;
fill:none;
}
.s5 {
stroke:#000000;
stroke-width:0.048225;
stroke-linecap:round;
stroke-linejoin:round;
fill:none;
}
.s6 {
stroke:#ff19ff;
stroke-width:0.048225;
stroke-linecap:round;
stroke-linejoin:round;
fill:none;
}
.s7 {
stroke:#ff0000;
stroke-width:0.072338;
stroke-linecap:round;
stroke-linejoin:round;
fill:none;
}
.s8 {
stroke:#ffff00;
stroke-width:0.072338;
stroke-linecap:round;
stroke-linejoin:round;
fill:none;
}
.s9 {
stroke:#001919;
stroke-width:0.048225;
stroke-linecap:round;
stroke-linejoin:round;
fill:none;
}
.sa {
stroke:#006666;
stroke-width:0.048225;
stroke-linecap:round;
stroke-linejoin:round;
fill:none;
}
.sb {
stroke:#00ffff;
stroke-width:0.144676;
stroke-linecap:round;
stroke-linejoin:round;
fill:none;
}
.sc {
stroke:#ff0000;
stroke-width:0.385802;
stroke-linecap:round;
stroke-linejoin:round;
fill:none;
}
.sd {
stroke:#191919;
stroke-width:0.048225;
stroke-linecap:round;
stroke-linejoin:round;
fill:none;
}
.se {
stroke:#000000;
stroke-width:0.048225;
stroke-linecap:round;
stroke-linejoin:round;
stroke-dasharray:0.723,0.723;
fill:none;
}
.sf {
stroke:#000000;
stroke-width:0.144676;
stroke-linecap:round;
stroke-linejoin:round;
fill:none;
}
]]></style><metadata
     id="metadata385"><rdf:RDF><cc:Work
         rdf:about=""><dc:title>Exported SVG</dc:title></cc:Work></rdf:RDF></metadata><g
     inkscape:label="svglink:sun_color.svg"
     ns3:href="sun_color.svg"
     ns4:x="3.7300603"
     ns4:y="4.2020645"
     ns3:image-svg-dpi="200"
     ns3:image-height="8.3105097"
     ns3:image-width="8.8159704"
     id="g1"
     transform="translate(-0.10186382,-0.32134444)"><sodipodi:namedview
       id="namedview7"
       pagecolor="#ffffff"
       bordercolor="#666666"
       borderopacity="1.0"
       inkscape:pageshadow="2"
       inkscape:pageopacity="0"
       inkscape:pagecheckerboard="false"
       inkscape:document-units="mm"
       showgrid="false"
       inkscape:zoom="6.3851013"
       inkscape:cx="16.757761"
       inkscape:cy="-0.23492188"
       inkscape:window-width="1916"
       inkscape:window-height="1037"
       inkscape:window-x="0"
       inkscape:window-y="0"
       inkscape:window-maximized="1"
       inkscape:current-layer="g210"
       inkscape:showpageshadow="2"
       inkscape:deskcolor="#ffffff"
       transform="translate(3.73006, 4.20206)" /><defs
       id="defs2"
       transform="translate(3.73006, 4.20206)" /><g
       inkscape:label="Layer 1"
       inkscape:groupmode="layer"
       id="layer1"
       transform="translate(80.2968,-132.507)"><g
         id="g211"
         inkscape:label="colors"
         transform="matrix(0.47671143,0,0,0.4756604,-42.328285,84.210876)"
         style="stroke-width:2.10004"><path
           id="path215"
           style="display:inline;fill:#fffdcc;fill-opacity:1;stroke:none;stroke-width:1.05001;stroke-linecap:round;stroke-linejoin:round;stroke-dasharray:none;stroke-opacity:1"
           d="m -61.536913,110.42946 c -2.114791,0.0287 -7.923906,-0.20579 -9.168455,3.65349 -1.244549,3.85928 -1.74768,9.8826 2.609055,12.41411 4.356735,2.53151 13.833703,2.00309 14.661782,-6.11135 0.828079,-8.11444 -3.423649,-7.70619 -5.400679,-9.01452 -1.97703,-1.30833 -0.586912,-0.97045 -2.701703,-0.94173 z"
           sodipodi:nodetypes="zzzzzz" /><path
           id="path219"
           style="fill:#fffcb3;fill-opacity:1;stroke:none;stroke-width:0.1;stroke-linecap:round;stroke-linejoin:round;stroke-dasharray:none;stroke-opacity:1"
           d="m -60.534562,138.36634 c -0.436347,-0.18344 -1.203166,2.39248 -1.63969,0.9998 -0.436524,-1.39268 -2.43602,-0.12179 -1.21605,1.09979 1.21997,1.22158 -1.379698,-0.0373 -1.546455,0.82497 -0.166757,0.86229 1.318375,1.65656 1.100288,3.43581 -0.218087,1.77925 2.51629,-0.69626 2.352009,0.40522 -0.164281,1.10149 1.930616,-0.20115 1.735618,-0.43876 -0.194999,-0.2376 0.31117,-1.19562 1.149342,-0.0769 0.838172,1.11872 1.258099,-1.51198 -0.06652,-1.20599 -1.324619,0.30599 1.247577,-0.34307 1.929665,-0.79174 0.682088,-0.44867 0.71238,-0.45563 0.401615,-0.99652 -0.310765,-0.54089 -2.160911,-0.2562 -0.846494,-1.17568 1.314417,-0.91948 -1.442902,-1.24698 -2.178343,-1.07022 -0.735441,0.17676 -0.705285,-1.18877 -1.174982,-1.00977 -0.469698,0.17901 0.436343,0.18343 -3e-6,-1e-5 z m 3.539836,1.17254 c -0.0496,0.30143 0.0496,-0.30143 0,0 z m -1.444891,3.87833 c 0.02341,0.14215 -0.02341,-0.14215 0,0 z m -1.883606,-3.00292 0.07599,0.004 z m 0.133842,0.0181 c 0.83811,-0.0599 1.377808,3.08211 -0.115482,2.73788 -1.49329,-0.34423 -1.678627,-2.60527 -0.504341,-2.69101 1.174286,-0.0857 0.208735,-0.0276 0.312116,-0.0354 0.103381,-0.008 -0.530404,0.0485 0.307707,-0.0115 z m 3.731539,1.80471 -0.04186,0.0434 z m -0.04496,0.0465 c -0.111342,0.0974 0.111342,-0.0974 0,0 z m -3.03444,1.00355 -0.09582,0.0145 z m 0.0646,0.002 c 0.225829,0.0227 -0.225829,-0.0227 0,0 z m -0.202572,0.0295 -0.03656,0.0332 z m -0.126607,0.006 c 0.01429,0.28249 -0.01429,-0.28249 0,0 z m -1.508952,0.45217 c 0.223413,-0.1919 -0.223413,0.1919 0,0 z m 1.929598,0.47387 -0.04888,0.0325 z m -0.31936,0.015 0.06353,0.0222 z m 2.146639,0.17753 0.0034,0.0974 z m -0.04858,0.26459 c -0.08765,0.0902 0.08765,-0.0902 0,0 z"
           transform="matrix(2.0977051,0,0,2.1023403,64.423431,-178.61893)"
           sodipodi:nodetypes="zzzzzzzzzzzzzzzzzzzzzzzzzzzzzzzzzzzzzzzzzzzzzzzzzzzzzzz" /><path
           id="path229"
           style="fill:#fffc99;fill-opacity:1;stroke:none;stroke-width:0.210002;stroke-linecap:round;stroke-linejoin:round;stroke-dasharray:none;stroke-opacity:1"
           d="m -62.42581,112.26985 c -3.244294,0.52839 -6.635494,3.18931 -6.252362,7.60334 0.383132,4.41403 4.317171,6.31103 5.445139,5.13011 1.127969,-1.18092 -0.514721,-2.28067 1.153495,-1.20764 1.668215,1.07303 2.637275,1.51895 4.48123,-2.05079 1.843955,-3.56974 0.998541,-1.75078 0.433988,-4.38025 -0.564553,-2.62947 -2.017196,-5.62316 -5.26149,-5.09477 z m 4.99516,10.44805 c 0.153466,0.24007 -0.153466,-0.24007 0,0 z m -10.562682,-6.87809 c 0.952997,-0.13729 -0.952997,0.13729 0,0 z m 5.956685,-3.38527 0.126509,0.0796 z m -1.041743,0.86696 -0.03035,0.0391 z m -0.06829,0.0804 c 1.03773,-0.63541 -1.03773,0.63541 0,0 z m 0.717621,3.4939 c 3.305673,1.64364 -3.837197,3.66045 -0.66419,0.21412 3.173008,-3.44634 -2.641483,-1.85776 0.66419,-0.21412 z m -4.844482,1.53511 c 0.554203,-0.3239 -0.554203,0.3239 0,0 z m -1.026566,0.38893 -0.04546,0.19214 z m -0.328458,0.93649 c 0.908257,0.12823 -0.908257,-0.12823 0,0 z m 10.563767,1.67634 c 0.682037,-1.14951 -0.682037,1.14951 0,0 z"
           sodipodi:nodetypes="zzzzzzzzzzzzzzzzzzzzzzzzzzzzzzz" /><path
           id="path241"
           style="display:inline;fill:#fffa66;fill-opacity:1;stroke:none;stroke-width:0.210002;stroke-linecap:round;stroke-linejoin:round;stroke-dasharray:none;stroke-opacity:1"
           d="m -62.943971,112.5697 c -0.09779,1.65856 -0.914975,2.43349 -2.316468,2.78894 -0.249153,2.47221 3.410326,1.78693 5.081362,1.67161 3.859723,0.63378 -0.381663,4.49118 0.437023,6.41708 1.862032,-0.971 2.467801,-3.52277 2.771627,-5.44129 -0.634778,-1.18808 -1.394337,-2.34393 0.493914,-2.1126 1.185356,-1.5286 -1.253862,-2.24379 -2.062678,-1.02018 -0.968251,-0.99701 -3.136397,-0.32954 -3.72847,-0.61057 1.097443,-0.30274 0.250656,-1.99343 -0.67631,-1.69299 z m 2.814114,9.79294 -0.03035,0.0174 z m -7.351818,-8.37082 c -1.759785,0.46721 0.225147,2.27142 0.544447,1.46668 1.143332,1.25382 0.473778,-1.84362 -0.544447,-1.46668 z m 1.020062,3.10497 c -0.390002,1.76127 -1.643972,2.77269 -3.258399,1.90092 -1.787662,1.88598 1.808975,1.62737 2.440652,1.23876 0.692366,1.79458 2.26913,3.68871 4.198271,4.23883 1.894117,-1.39356 -1.997139,-2.60205 -2.616664,-3.87738 -1.143683,-1.123 1.716214,-3.82131 -0.76386,-3.50113 z m 10.623387,1.57096 c -2.596777,-0.10224 0.936159,3.33886 0.868667,0.94707 -0.04643,-0.42716 -0.317264,-1.09117 -0.868667,-0.94707 z m -10.805503,4.32501 c -3.120255,0.74187 0.854434,3.80556 0.828811,0.52415 l -0.39801,-0.27835 z m 8.678658,0.43674 c -2.533599,1.16622 2.708252,3.2205 1.012394,0.61778 -0.274567,-0.28929 -0.623932,-0.51738 -1.012394,-0.61778 z m -4.250439,1.76977 c -2.497693,-0.38101 0.35546,3.88636 0.540987,0.98806 0.01952,-0.3756 -0.09835,-0.91234 -0.540987,-0.98806 z"
           sodipodi:nodetypes="cccccccccccccccccccccccccccccccccc" /></g><g
         id="g210"
         inkscape:label="lines"
         transform="matrix(0.47671143,0,0,0.4756604,-42.328285,84.210876)"
         style="stroke-width:2.10004"><path
           id="path62806"
           style="fill:none;stroke:#000000;stroke-width:0.210002;stroke-linecap:round;stroke-linejoin:round;stroke-dasharray:none"
           d="m -63.631594,115.22303 c -1.868062,0.52869 -3.236721,2.24645 -3.236561,4.28384 1.7e-5,2.45842 1.99302,4.45132 4.45144,4.45122 m 2.404918,-0.70506 c 1.230872,-0.79188 2.046133,-2.17381 2.046144,-3.74616 1.93e-4,-2.45842 -1.992641,-4.4515 -4.451062,-4.4516"
           sodipodi:nodetypes="cccccc" /><path
           style="fill:none;stroke:#000000;stroke-width:0.210002;stroke-linecap:round;stroke-linejoin:round;stroke-dasharray:none"
           d="m -70.211696,119.80978 c 0,0 0.336166,0.18609 0.515554,0.16601 0.239387,-0.0268 0.382552,-0.34441 0.622253,-0.36823 0.203152,-0.0202 0.578253,0.20222 0.578253,0.20222"
           id="path62812"
           sodipodi:nodetypes="caac" /><path
           style="fill:none;stroke:#000000;stroke-width:0.210002;stroke-linecap:round;stroke-linejoin:round;stroke-dasharray:none"
           d="m -67.717134,124.8584 c 0,0 0.369001,-0.10665 0.48168,-0.24797 0.150363,-0.1886 0.02751,-0.51464 0.180195,-0.70135 0.129398,-0.15825 0.551563,-0.2668 0.551563,-0.2668"
           id="path1"
           sodipodi:nodetypes="caac" /><path
           style="fill:none;stroke:#000000;stroke-width:0.210002;stroke-linecap:round;stroke-linejoin:round;stroke-dasharray:none"
           d="m -62.491351,126.8953 c 0,0 0.185677,-0.33692 0.165645,-0.5167 -0.02674,-0.23991 -0.343651,-0.3834 -0.367419,-0.62362 -0.02016,-0.2036 0.201774,-0.57954 0.201774,-0.57954"
           id="path1-3"
           sodipodi:nodetypes="caac" /><path
           style="fill:none;stroke:#000000;stroke-width:0.210002;stroke-linecap:round;stroke-linejoin:round;stroke-dasharray:none"
           d="m -57.026696,124.97937 c 0,0 -0.10642,-0.36982 -0.247428,-0.48275 -0.188176,-0.15069 -0.513505,-0.0276 -0.699799,-0.18059 -0.157904,-0.12968 -0.266217,-0.55279 -0.266217,-0.55279"
           id="path1-3-6"
           sodipodi:nodetypes="caac" /><path
           style="fill:none;stroke:#000000;stroke-width:0.210002;stroke-linecap:round;stroke-linejoin:round;stroke-dasharray:none"
           d="m -54.561912,119.80979 c 0,0 -0.336176,-0.18609 -0.515561,-0.16601 -0.23938,0.0268 -0.382576,0.34438 -0.622248,0.36823 -0.20315,0.0202 -0.578263,-0.20223 -0.578263,-0.20223"
           id="path1-3-6-7"
           sodipodi:nodetypes="caac" /><path
           style="fill:none;stroke:#000000;stroke-width:0.210002;stroke-linecap:round;stroke-linejoin:round;stroke-dasharray:none"
           d="m -56.517304,114.53492 c 0,0 -0.369007,0.10665 -0.481684,0.24797 -0.150359,0.18859 -0.02755,0.51464 -0.180192,0.70135 -0.129397,0.15825 -0.551577,0.2668 -0.551577,0.2668"
           id="path1-3-6-7-5"
           sodipodi:nodetypes="caac" /><path
           style="fill:none;stroke:#000000;stroke-width:0.210002;stroke-linecap:round;stroke-linejoin:round;stroke-dasharray:none"
           d="m -62.49134,112.35381 c 0,0 -0.185681,0.33692 -0.165648,0.51669 0.02674,0.23991 0.343623,0.38343 0.367421,0.62363 0.02016,0.2036 -0.201784,0.57954 -0.201784,0.57954"
           id="path1-3-6-7-5-3"
           sodipodi:nodetypes="caac" /><path
           style="fill:none;stroke:#000000;stroke-width:0.210002;stroke-linecap:round;stroke-linejoin:round;stroke-dasharray:none"
           d="m -68.012103,114.4508 c 0,0 0.106417,0.36983 0.247419,0.48275 0.188176,0.15069 0.513506,0.0276 0.699806,0.18059 0.157905,0.12968 0.266211,0.55279 0.266211,0.55279"
           id="path1-3-6-7-5-3-5"
           sodipodi:nodetypes="caac" /></g></g></g></svg>
