<?xml version="1.0" encoding="UTF-8" standalone="no"?>
<!-- Created with Inkscape (http://www.inkscape.org/) -->

<svg
   width="25.1mm"
   height="26.5mm"
   viewBox="0 0 25.1 26.5"
   version="1.1"
   id="svg5"
   inkscape:version="1.3 (0e150ed6c4, 2023-07-21)"
   sodipodi:docname="merge_color.svg"
   xml:space="preserve"
   xmlns:inkscape="http://www.inkscape.org/namespaces/inkscape"
   xmlns:sodipodi="http://sodipodi.sourceforge.net/DTD/sodipodi-0.dtd"
   xmlns="http://www.w3.org/2000/svg"
   xmlns:svg="http://www.w3.org/2000/svg"
   xmlns:ns3="svglink"
   xmlns:ns4="svglink:origin"><sodipodi:namedview
     id="namedview7"
     pagecolor="#ffffff"
     bordercolor="#666666"
     borderopacity="1.0"
     inkscape:pageshadow="2"
     inkscape:pageopacity="0"
     inkscape:pagecheckerboard="false"
     inkscape:document-units="mm"
     showgrid="false"
     inkscape:zoom="1.6143346"
     inkscape:cx="-166.01268"
     inkscape:cy="73.404859"
     inkscape:window-width="1916"
     inkscape:window-height="1037"
     inkscape:window-x="0"
     inkscape:window-y="0"
     inkscape:window-maximized="1"
     inkscape:current-layer="g27784"
     inkscape:showpageshadow="2"
     inkscape:deskcolor="#ffffff" /><defs
     id="defs2" /><g
     inkscape:label="Layer 1"
     inkscape:groupmode="layer"
     id="g27784"
     transform="translate(74.2017,-133.648)"><g
       inkscape:label="svglink:blueprint.svg"
       ns3:href="blueprint.svg"
       ns4:x="-72.981117"
       ns4:y="142.35408"
       ns3:image-svg-dpi="200"
       ns3:image-height="36.000004"
       ns3:image-width="34.600094"
       id="g4"
       transform="translate(-5.9706,-13.456)"><title
   transform="translate(-72.9811, 142.354)"
   id="title2">Exported SVG</title>&#10;&#10;<style
   transform="translate(-72.9811, 142.354)"
   id="style2"><![CDATA[
polygon {
shape-rendering:crispEdges;
stroke-width:0.036000;
}
.s0 {
stroke:#000000;
stroke-width:0.042892;
stroke-linecap:round;
stroke-linejoin:round;
fill:none;
}
.s1 {
stroke:#000000;
stroke-width:0.042892;
stroke-linecap:round;
stroke-linejoin:round;
fill:none;
}
.s2 {
stroke:#19b219;
stroke-width:0.042892;
stroke-linecap:round;
stroke-linejoin:round;
fill:none;
}
.s3 {
stroke:#7f4c00;
stroke-width:0.042892;
stroke-linecap:round;
stroke-linejoin:round;
fill:none;
}
.s4 {
stroke:#00cc00;
stroke-width:0.042892;
stroke-linecap:round;
stroke-linejoin:round;
fill:none;
}
.s5 {
stroke:#000000;
stroke-width:0.028595;
stroke-linecap:round;
stroke-linejoin:round;
fill:none;
}
.s6 {
stroke:#ff19ff;
stroke-width:0.028595;
stroke-linecap:round;
stroke-linejoin:round;
fill:none;
}
.s7 {
stroke:#ff0000;
stroke-width:0.042892;
stroke-linecap:round;
stroke-linejoin:round;
fill:none;
}
.s8 {
stroke:#ffff00;
stroke-width:0.042892;
stroke-linecap:round;
stroke-linejoin:round;
fill:none;
}
.s9 {
stroke:#001919;
stroke-width:0.028595;
stroke-linecap:round;
stroke-linejoin:round;
fill:none;
}
.sa {
stroke:#006666;
stroke-width:0.028595;
stroke-linecap:round;
stroke-linejoin:round;
fill:none;
}
.sb {
stroke:#00ffff;
stroke-width:0.085784;
stroke-linecap:round;
stroke-linejoin:round;
fill:none;
}
.sc {
stroke:#ff0000;
stroke-width:0.228757;
stroke-linecap:round;
stroke-linejoin:round;
fill:none;
}
.sd {
stroke:#191919;
stroke-width:0.028595;
stroke-linecap:round;
stroke-linejoin:round;
fill:none;
}
.se {
stroke:#000000;
stroke-width:0.028595;
stroke-linecap:round;
stroke-linejoin:round;
stroke-dasharray:0.429,0.429;
fill:none;
}
.sf {
stroke:#000000;
stroke-width:0.085784;
stroke-linecap:round;
stroke-linejoin:round;
fill:none;
}
.s100 {
stroke:#ff0000;
stroke-width:0.500000;
stroke-linecap:round;
stroke-linejoin:round;
fill:none;
}
]]></style>&#10;<path
   d="M 5.75,14.3 A 0.75,0.75 0 0 0 5,15.05 v 5.9 a 0.75,0.75 0 0 0 0.75,0.75 h 5.8 a 0.75,0.75 0 0 1 0.75,0.75 v 7.8 A 0.75,0.75 0 0 0 13.05,31 h 8.5 a 0.75,0.75 0 0 0 0.75,-0.75 v -7.8 a 0.75,0.75 0 0 1 0.75,-0.75 h 5.8 a 0.75,0.75 0 0 0 0.75,-0.75 v -5.9 A 0.75,0.75 0 0 0 28.85,14.3 h -5.8 A 0.75,0.75 0 0 1 22.3,13.55 V 5.75 A 0.75,0.75 0 0 0 21.55,5 h -8.5 A 0.75,0.75 0 0 0 12.3,5.75 v 7.8 a 0.75,0.75 0 0 1 -0.75,0.75 h -5.8"
   class="s100"
   transform="translate(-72.9811,142.354)"
   id="path3" />&#10;<path
   d="m 6.8,19.9 v -3.8 h 0.5 20 0.5 v 0.5 2.8 0.5 h -21"
   class="s100"
   transform="translate(-72.9811,142.354)"
   id="path4" />&#10;&#10;</g><g
       inkscape:label="svglink:../symbol_color.svg"
       ns3:href="../symbol_color.svg"
       ns4:x="-67.393913"
       ns4:y="154.83028"
       ns3:image-svg-dpi="200"
       ns3:image-height="6.9185629"
       ns3:image-width="4.6374316"
       id="g6"
       transform="translate(3.4234699,-3.1221282)"><sodipodi:namedview
         id="namedview2"
         pagecolor="#ffffff"
         bordercolor="#666666"
         borderopacity="1.0"
         inkscape:pageshadow="2"
         inkscape:pageopacity="0"
         inkscape:pagecheckerboard="false"
         inkscape:document-units="mm"
         showgrid="false"
         inkscape:zoom="6.726691"
         inkscape:cx="53.518141"
         inkscape:cy="40.807583"
         inkscape:window-width="1916"
         inkscape:window-height="1037"
         inkscape:window-x="0"
         inkscape:window-y="0"
         inkscape:window-maximized="1"
         inkscape:current-layer="g1"
         inkscape:showpageshadow="2"
         inkscape:deskcolor="#ffffff"
         transform="translate(-67.3939, 154.83)" /><defs
         id="defs3"
         transform="translate(-67.3939, 154.83)"><defs
   id="defs7514"
   transform="translate(23.7157, 9.99819)" />&#10;  <sodipodi:namedview
   id="namedview7516"
   pagecolor="#ffffff"
   bordercolor="#666666"
   borderopacity="1.0"
   inkscape:showpageshadow="2"
   inkscape:pageopacity="0.0"
   inkscape:pagecheckerboard="0"
   inkscape:deskcolor="#d1d1d1"
   inkscape:document-units="mm"
   showgrid="false"
   inkscape:zoom="8.0000001"
   inkscape:cx="-19.9375"
   inkscape:cy="12.75"
   inkscape:window-width="1920"
   inkscape:window-height="1080"
   inkscape:window-x="0"
   inkscape:window-y="0"
   inkscape:window-maximized="1"
   inkscape:current-layer="g2330"
   showguides="false"
   transform="translate(23.7157, 9.99819)" />&#10;  &#10;  <style
   id="style7520"
   transform="translate(23.7157, 9.99819)"><![CDATA[
polygon {
shape-rendering:crispEdges;
stroke-width:0.074000;
}
.s0 {
stroke:#000000;
stroke-width:0.072338;
stroke-linecap:round;
stroke-linejoin:round;
fill:none;
}
.s1 {
stroke:#000000;
stroke-width:0.072338;
stroke-linecap:round;
stroke-linejoin:round;
fill:none;
}
.s2 {
stroke:#19b219;
stroke-width:0.072338;
stroke-linecap:round;
stroke-linejoin:round;
fill:none;
}
.s3 {
stroke:#7f4c00;
stroke-width:0.072338;
stroke-linecap:round;
stroke-linejoin:round;
fill:none;
}
.s4 {
stroke:#00cc00;
stroke-width:0.072338;
stroke-linecap:round;
stroke-linejoin:round;
fill:none;
}
.s5 {
stroke:#000000;
stroke-width:0.048225;
stroke-linecap:round;
stroke-linejoin:round;
fill:none;
}
.s6 {
stroke:#ff19ff;
stroke-width:0.048225;
stroke-linecap:round;
stroke-linejoin:round;
fill:none;
}
.s7 {
stroke:#ff0000;
stroke-width:0.072338;
stroke-linecap:round;
stroke-linejoin:round;
fill:none;
}
.s8 {
stroke:#ffff00;
stroke-width:0.072338;
stroke-linecap:round;
stroke-linejoin:round;
fill:none;
}
.s9 {
stroke:#001919;
stroke-width:0.048225;
stroke-linecap:round;
stroke-linejoin:round;
fill:none;
}
.sa {
stroke:#006666;
stroke-width:0.048225;
stroke-linecap:round;
stroke-linejoin:round;
fill:none;
}
.sb {
stroke:#00ffff;
stroke-width:0.144676;
stroke-linecap:round;
stroke-linejoin:round;
fill:none;
}
.sc {
stroke:#ff0000;
stroke-width:0.385802;
stroke-linecap:round;
stroke-linejoin:round;
fill:none;
}
.sd {
stroke:#191919;
stroke-width:0.048225;
stroke-linecap:round;
stroke-linejoin:round;
fill:none;
}
.se {
stroke:#000000;
stroke-width:0.048225;
stroke-linecap:round;
stroke-linejoin:round;
stroke-dasharray:0.723,0.723;
fill:none;
}
.sf {
stroke:#000000;
stroke-width:0.144676;
stroke-linecap:round;
stroke-linejoin:round;
fill:none;
}
]]></style>&#10;  &#10;  &#10;&#10;    &#10;  &#10;      &#10;      &#10;    </defs><g
         inkscape:label="Layer 1"
         inkscape:groupmode="layer"
         id="g5"
         transform="translate(10.2828,10.6773)"><g
           id="g7478"
           transform="translate(-77.676684,144.15333)"
           inkscape:label="colors"><path
             id="path5548"
             style="fill:#e5f2ff;fill-opacity:1;stroke-width:0.3;stroke-linecap:round;stroke-linejoin:round"
             d="m 23.534858,7.2065039 c -0.524087,0.094268 -0.571634,0.7161017 -0.829784,1.0823398 -0.309449,0.4458709 -0.788714,0.8252382 -0.834472,1.4049245 -0.08877,0.5783108 -0.36931,1.1003028 -0.503101,1.6640338 -0.121375,0.715267 -0.02025,1.53159 0.462027,2.099263 0.576762,0.614247 1.518563,0.817969 2.312083,0.556612 0.506259,-0.22315 1.279053,0.108771 1.549916,-0.520638 0.431622,-0.791105 0.249884,-1.731679 0.07413,-2.567534 C 25.532173,10.146847 24.827925,9.6376023 24.51275,8.905882 24.318429,8.4161991 24.537774,7.7838054 24.053819,7.421089 23.911562,7.2942715 23.727136,7.2100744 23.534858,7.2065039 Z"
             transform="translate(-21.320667,-7.2065039)" /><path
             style="fill:#cce5ff;fill-opacity:1;stroke-width:0.3;stroke-linecap:round;stroke-linejoin:round"
             d="m 22.883649,13.340761 c -0.334763,-0.316249 -0.877805,-0.445589 -1.00672,-0.944948 -0.259132,-0.62096 -0.177405,-1.32795 0.08554,-1.932895 0.169911,-0.397491 0.177768,-0.9567017 0.609317,-1.1723905 0.380832,-0.046593 0.404606,-0.4921282 0.448123,-0.7891813 0.09992,-0.3237931 0.337223,-0.7697332 0.721345,-0.7601614 0.451914,0.1470084 0.42922,0.7081358 0.538034,1.0855306 0.204978,0.8762687 0.940135,1.5176676 1.148597,2.3960746 0.150412,0.739376 0.03524,1.612633 -0.526995,2.159802 -0.490545,0.414823 -1.237887,0.574207 -1.826302,0.286238 -0.09751,-0.08789 -0.101932,-0.234029 -0.190935,-0.328069 z"
             id="path6263"
             sodipodi:nodetypes="aaaaaaaaaaaaa"
             transform="translate(-21.320667,-7.2065039)" /><path
             id="path6340"
             style="fill:#b3d8ff;fill-opacity:1;stroke-width:0.3;stroke-linecap:round;stroke-linejoin:round"
             d="m 23.42427,8.4240007 c -0.414243,0.067078 -0.361745,0.6017616 -0.263389,0.9009231 0.156158,0.4326064 0.650359,0.567813 0.896703,0.9345842 0.374904,0.352772 -0.088,0.660594 -0.355188,0.871612 -0.377059,0.285898 -0.300761,0.974849 0.18964,1.087327 0.318138,0.456647 -0.355537,0.3307 -0.593894,0.19627 -0.563643,-0.09316 -0.430469,0.699588 -0.09935,0.893739 0.560514,0.3705 1.249853,0.0893 1.826657,-0.09042 0.522859,-0.167529 0.68078,-0.771124 0.618697,-1.261637 -0.04849,-0.913685 -0.622994,-1.661398 -1.103225,-2.3962796 -0.298,-0.4308119 -0.478658,-1.1281328 -1.116654,-1.1361167 z m -0.812354,0.3622518 c -0.371439,0.2510409 0.09779,0.7975104 -0.243513,1.1247291 -0.193876,0.5439664 -0.670441,0.9884174 -0.647218,1.5993964 -0.104641,0.362084 0.190179,0.844819 0.591025,0.602402 0.416743,-0.267932 0.752622,-0.675711 0.833303,-1.176033 0.148397,-0.628653 0.0248,-1.2934346 -0.196868,-1.888662 -0.06471,-0.1326909 -0.183751,-0.2473871 -0.336729,-0.2618325 z"
             transform="translate(-21.320667,-7.2065039)" /><path
             id="path6493"
             style="fill:#99cbff;fill-opacity:1;stroke-width:0.3;stroke-linecap:round;stroke-linejoin:round"
             d="m 24.736851,9.9872128 c -0.243844,0.2772812 -0.10605,0.7246962 -0.414805,0.9838682 -0.178615,0.397107 -0.908822,0.354341 -0.876748,0.827795 0.118337,0.32867 0.959286,0.279147 0.528218,0.738608 -0.392641,0.01777 -0.599966,0.448091 -0.184117,0.655989 0.339496,0.186289 0.87586,0.279968 1.160798,-0.05203 0.277849,-0.441727 0.614097,-0.918743 0.522794,-1.472349 -0.01503,-0.548243 -0.01328,-1.198511 -0.448579,-1.59727 -0.08362,-0.05733 -0.18534,-0.092477 -0.287561,-0.084608 z m -2.47375,0.6061642 c -0.431751,0.116228 -0.306981,0.661366 -0.343501,0.998231 -0.193017,0.529489 0.403981,1.000815 0.805866,0.545202 -0.07672,-0.386258 0.115155,-0.823418 -0.103714,-1.187945 -0.08065,-0.145324 -0.164059,-0.347802 -0.358651,-0.355488 z m 0.471289,1.64021 c 0.0351,0.08855 0.108797,-0.01183 0,0 z"
             transform="translate(-21.320667,-7.2065039)" /></g><g
           id="g3"
           inkscape:label="lines"><path
             id="path7524"
             style="fill:none;stroke:#000000;stroke-width:0.1;stroke-linecap:round;stroke-linejoin:round;stroke-dasharray:none"
             d="m -75.36592,145.24045 c -0.0031,0.77345 -1.25361,2.56151 -1.25361,2.56151 -0.340358,0.69546 -0.152477,2.28563 1.25361,2.28563 1.406086,0 1.593969,-1.59017 1.25361,-2.28563 0,0 -1.257167,-1.78863 -1.25361,-2.56151 z"
             sodipodi:nodetypes="cszsc" /><path
             style="fill:none;stroke:#000000;stroke-width:0.1;stroke-linecap:round;stroke-linejoin:round;stroke-dasharray:none"
             d="m -74.803753,149.98488 c 0,0 0.580391,-0.16963 0.453021,-0.78008 -0.127367,-0.61044 -0.65971,-0.56909 -0.65971,-0.56909"
             id="path7526"
             sodipodi:nodetypes="czc" /></g></g></g><g
       inkscape:label="svglink:../symbol_color.svg"
       ns3:href="../symbol_color.svg"
       ns4:x="-67.393913"
       ns4:y="154.83028"
       ns3:image-svg-dpi="200"
       ns3:image-height="6.9185629"
       ns3:image-width="4.6374316"
       id="g22"
       transform="matrix(1,0,0,-1,3.4234699,297.1116)"><sodipodi:namedview
         id="namedview6"
         pagecolor="#ffffff"
         bordercolor="#666666"
         borderopacity="1.0"
         inkscape:pageshadow="2"
         inkscape:pageopacity="0"
         inkscape:pagecheckerboard="false"
         inkscape:document-units="mm"
         showgrid="false"
         inkscape:zoom="6.726691"
         inkscape:cx="53.518141"
         inkscape:cy="40.807583"
         inkscape:window-width="1916"
         inkscape:window-height="1037"
         inkscape:window-x="0"
         inkscape:window-y="0"
         inkscape:window-maximized="1"
         inkscape:current-layer="g1"
         inkscape:showpageshadow="2"
         inkscape:deskcolor="#ffffff"
         transform="translate(-67.3939, 154.83)" /><defs
         id="defs8"
         transform="translate(-67.3939, 154.83)"><defs
   id="defs6"
   transform="translate(23.7157, 9.99819)" />&#10;  <sodipodi:namedview
   id="namedview8"
   pagecolor="#ffffff"
   bordercolor="#666666"
   borderopacity="1.0"
   inkscape:showpageshadow="2"
   inkscape:pageopacity="0.0"
   inkscape:pagecheckerboard="0"
   inkscape:deskcolor="#d1d1d1"
   inkscape:document-units="mm"
   showgrid="false"
   inkscape:zoom="8.0000001"
   inkscape:cx="-19.9375"
   inkscape:cy="12.75"
   inkscape:window-width="1920"
   inkscape:window-height="1080"
   inkscape:window-x="0"
   inkscape:window-y="0"
   inkscape:window-maximized="1"
   inkscape:current-layer="g2330"
   showguides="false"
   transform="translate(23.7157, 9.99819)" />&#10;  &#10;  <style
   id="style8"
   transform="translate(23.7157, 9.99819)"><![CDATA[
polygon {
shape-rendering:crispEdges;
stroke-width:0.074000;
}
.s0 {
stroke:#000000;
stroke-width:0.072338;
stroke-linecap:round;
stroke-linejoin:round;
fill:none;
}
.s1 {
stroke:#000000;
stroke-width:0.072338;
stroke-linecap:round;
stroke-linejoin:round;
fill:none;
}
.s2 {
stroke:#19b219;
stroke-width:0.072338;
stroke-linecap:round;
stroke-linejoin:round;
fill:none;
}
.s3 {
stroke:#7f4c00;
stroke-width:0.072338;
stroke-linecap:round;
stroke-linejoin:round;
fill:none;
}
.s4 {
stroke:#00cc00;
stroke-width:0.072338;
stroke-linecap:round;
stroke-linejoin:round;
fill:none;
}
.s5 {
stroke:#000000;
stroke-width:0.048225;
stroke-linecap:round;
stroke-linejoin:round;
fill:none;
}
.s6 {
stroke:#ff19ff;
stroke-width:0.048225;
stroke-linecap:round;
stroke-linejoin:round;
fill:none;
}
.s7 {
stroke:#ff0000;
stroke-width:0.072338;
stroke-linecap:round;
stroke-linejoin:round;
fill:none;
}
.s8 {
stroke:#ffff00;
stroke-width:0.072338;
stroke-linecap:round;
stroke-linejoin:round;
fill:none;
}
.s9 {
stroke:#001919;
stroke-width:0.048225;
stroke-linecap:round;
stroke-linejoin:round;
fill:none;
}
.sa {
stroke:#006666;
stroke-width:0.048225;
stroke-linecap:round;
stroke-linejoin:round;
fill:none;
}
.sb {
stroke:#00ffff;
stroke-width:0.144676;
stroke-linecap:round;
stroke-linejoin:round;
fill:none;
}
.sc {
stroke:#ff0000;
stroke-width:0.385802;
stroke-linecap:round;
stroke-linejoin:round;
fill:none;
}
.sd {
stroke:#191919;
stroke-width:0.048225;
stroke-linecap:round;
stroke-linejoin:round;
fill:none;
}
.se {
stroke:#000000;
stroke-width:0.048225;
stroke-linecap:round;
stroke-linejoin:round;
stroke-dasharray:0.723,0.723;
fill:none;
}
.sf {
stroke:#000000;
stroke-width:0.144676;
stroke-linecap:round;
stroke-linejoin:round;
fill:none;
}
]]></style>&#10;  &#10;  &#10;&#10;    &#10;  &#10;      &#10;      &#10;    </defs><g
         inkscape:label="Layer 1"
         inkscape:groupmode="layer"
         id="g21"
         transform="translate(10.2828,10.6773)"><g
           id="g13"
           transform="translate(-77.676684,144.15333)"
           inkscape:label="colors"><path
             id="path8"
             style="fill:#e5f2ff;fill-opacity:1;stroke-width:0.3;stroke-linecap:round;stroke-linejoin:round"
             d="m 23.534858,7.2065039 c -0.524087,0.094268 -0.571634,0.7161017 -0.829784,1.0823398 -0.309449,0.4458709 -0.788714,0.8252382 -0.834472,1.4049245 -0.08877,0.5783108 -0.36931,1.1003028 -0.503101,1.6640338 -0.121375,0.715267 -0.02025,1.53159 0.462027,2.099263 0.576762,0.614247 1.518563,0.817969 2.312083,0.556612 0.506259,-0.22315 1.279053,0.108771 1.549916,-0.520638 0.431622,-0.791105 0.249884,-1.731679 0.07413,-2.567534 C 25.532173,10.146847 24.827925,9.6376023 24.51275,8.905882 24.318429,8.4161991 24.537774,7.7838054 24.053819,7.421089 23.911562,7.2942715 23.727136,7.2100744 23.534858,7.2065039 Z"
             transform="translate(-21.320667,-7.2065039)" /><path
             style="fill:#cce5ff;fill-opacity:1;stroke-width:0.3;stroke-linecap:round;stroke-linejoin:round"
             d="m 22.883649,13.340761 c -0.334763,-0.316249 -0.877805,-0.445589 -1.00672,-0.944948 -0.259132,-0.62096 -0.177405,-1.32795 0.08554,-1.932895 0.169911,-0.397491 0.177768,-0.9567017 0.609317,-1.1723905 0.380832,-0.046593 0.404606,-0.4921282 0.448123,-0.7891813 0.09992,-0.3237931 0.337223,-0.7697332 0.721345,-0.7601614 0.451914,0.1470084 0.42922,0.7081358 0.538034,1.0855306 0.204978,0.8762687 0.940135,1.5176676 1.148597,2.3960746 0.150412,0.739376 0.03524,1.612633 -0.526995,2.159802 -0.490545,0.414823 -1.237887,0.574207 -1.826302,0.286238 -0.09751,-0.08789 -0.101932,-0.234029 -0.190935,-0.328069 z"
             id="path9"
             sodipodi:nodetypes="aaaaaaaaaaaaa"
             transform="translate(-21.320667,-7.2065039)" /><path
             id="path10"
             style="fill:#b3d8ff;fill-opacity:1;stroke-width:0.3;stroke-linecap:round;stroke-linejoin:round"
             d="m 23.42427,8.4240007 c -0.414243,0.067078 -0.361745,0.6017616 -0.263389,0.9009231 0.156158,0.4326064 0.650359,0.567813 0.896703,0.9345842 0.374904,0.352772 -0.088,0.660594 -0.355188,0.871612 -0.377059,0.285898 -0.300761,0.974849 0.18964,1.087327 0.318138,0.456647 -0.355537,0.3307 -0.593894,0.19627 -0.563643,-0.09316 -0.430469,0.699588 -0.09935,0.893739 0.560514,0.3705 1.249853,0.0893 1.826657,-0.09042 0.522859,-0.167529 0.68078,-0.771124 0.618697,-1.261637 -0.04849,-0.913685 -0.622994,-1.661398 -1.103225,-2.3962796 -0.298,-0.4308119 -0.478658,-1.1281328 -1.116654,-1.1361167 z m -0.812354,0.3622518 c -0.371439,0.2510409 0.09779,0.7975104 -0.243513,1.1247291 -0.193876,0.5439664 -0.670441,0.9884174 -0.647218,1.5993964 -0.104641,0.362084 0.190179,0.844819 0.591025,0.602402 0.416743,-0.267932 0.752622,-0.675711 0.833303,-1.176033 0.148397,-0.628653 0.0248,-1.2934346 -0.196868,-1.888662 -0.06471,-0.1326909 -0.183751,-0.2473871 -0.336729,-0.2618325 z"
             transform="translate(-21.320667,-7.2065039)" /><path
             id="path13"
             style="fill:#99cbff;fill-opacity:1;stroke-width:0.3;stroke-linecap:round;stroke-linejoin:round"
             d="m 24.736851,9.9872128 c -0.243844,0.2772812 -0.10605,0.7246962 -0.414805,0.9838682 -0.178615,0.397107 -0.908822,0.354341 -0.876748,0.827795 0.118337,0.32867 0.959286,0.279147 0.528218,0.738608 -0.392641,0.01777 -0.599966,0.448091 -0.184117,0.655989 0.339496,0.186289 0.87586,0.279968 1.160798,-0.05203 0.277849,-0.441727 0.614097,-0.918743 0.522794,-1.472349 -0.01503,-0.548243 -0.01328,-1.198511 -0.448579,-1.59727 -0.08362,-0.05733 -0.18534,-0.092477 -0.287561,-0.084608 z m -2.47375,0.6061642 c -0.431751,0.116228 -0.306981,0.661366 -0.343501,0.998231 -0.193017,0.529489 0.403981,1.000815 0.805866,0.545202 -0.07672,-0.386258 0.115155,-0.823418 -0.103714,-1.187945 -0.08065,-0.145324 -0.164059,-0.347802 -0.358651,-0.355488 z m 0.471289,1.64021 c 0.0351,0.08855 0.108797,-0.01183 0,0 z"
             transform="translate(-21.320667,-7.2065039)" /></g><g
           id="g20"
           inkscape:label="lines"><path
             id="path18"
             style="fill:none;stroke:#000000;stroke-width:0.1;stroke-linecap:round;stroke-linejoin:round;stroke-dasharray:none"
             d="m -75.36592,145.24045 c -0.0031,0.77345 -1.25361,2.56151 -1.25361,2.56151 -0.340358,0.69546 -0.152477,2.28563 1.25361,2.28563 1.406086,0 1.593969,-1.59017 1.25361,-2.28563 0,0 -1.257167,-1.78863 -1.25361,-2.56151 z"
             sodipodi:nodetypes="cszsc" /><path
             style="fill:none;stroke:#000000;stroke-width:0.1;stroke-linecap:round;stroke-linejoin:round;stroke-dasharray:none"
             d="m -74.803753,149.98488 c 0,0 0.580391,-0.16963 0.453021,-0.78008 -0.127367,-0.61044 -0.65971,-0.56909 -0.65971,-0.56909"
             id="path19"
             sodipodi:nodetypes="czc" /></g></g></g></g></svg>
