<?xml version="1.0" encoding="UTF-8" standalone="no"?>
<svg
   inkscape:export-ydpi="100"
   inkscape:export-xdpi="100"
   inkscape:export-filename="logo_student.png"
   sodipodi:docname="water_tower.svg"
   inkscape:version="1.2.2 (b0a8486541, 2022-12-01)"
   id="svg8"
   version="1.1"
   viewBox="0 0 5.2916663 5.2916667"
   height="20"
   width="20"
   xmlns:inkscape="http://www.inkscape.org/namespaces/inkscape"
   xmlns:sodipodi="http://sodipodi.sourceforge.net/DTD/sodipodi-0.dtd"
   xmlns="http://www.w3.org/2000/svg"
   xmlns:svg="http://www.w3.org/2000/svg"
   xmlns:rdf="http://www.w3.org/1999/02/22-rdf-syntax-ns#"
   xmlns:cc="http://creativecommons.org/ns#"
   xmlns:dc="http://purl.org/dc/elements/1.1/">
  <defs
     id="defs2" />
  <sodipodi:namedview
     inkscape:snap-global="true"
     inkscape:snap-object-midpoints="true"
     inkscape:document-rotation="0"
     inkscape:window-maximized="1"
     inkscape:window-y="0"
     inkscape:window-x="0"
     inkscape:window-height="1037"
     inkscape:window-width="1916"
     fit-margin-bottom="1"
     fit-margin-right="1"
     fit-margin-top="1"
     fit-margin-left="1"
     showgrid="false"
     inkscape:current-layer="g9348"
     inkscape:document-units="mm"
     inkscape:cy="13.625"
     inkscape:cx="13.53125"
     inkscape:zoom="16"
     inkscape:pageshadow="2"
     inkscape:pageopacity="0.0"
     borderopacity="1.0"
     bordercolor="#666666"
     pagecolor="#ffffff"
     id="base"
     inkscape:pagecheckerboard="0"
     inkscape:showpageshadow="2"
     inkscape:deskcolor="#d1d1d1" />
  <metadata
     id="metadata5">
    <rdf:RDF>
      <cc:Work
         rdf:about="">
        <dc:format>image/svg+xml</dc:format>
        <dc:type
           rdf:resource="http://purl.org/dc/dcmitype/StillImage" />
      </cc:Work>
    </rdf:RDF>
  </metadata>
  <g
     transform="matrix(0.1036131,0,0,0.1036131,-9.2954631,-6.5622301)"
     id="layer1"
     inkscape:label="Calque 1"
     inkscape:groupmode="layer">
    <g
       id="g9282"
       transform="translate(0.94976512)">
      <g
         id="g9348"
         style="stroke-width:0.693428;stroke-dasharray:none"
         transform="matrix(1.3976465,-0.01933389,0.01916944,1.3857583,-48.61105,-32.683983)">
        <path
           d="m 116.59179,91.195361 -1.08812,-0.01582 -0.14762,11.211069 3.59383,0.0522 m -2.35809,-11.24747 2.35809,11.24747 m -5.88908,-11.298767 -1.08813,-0.01582 -2.65337,11.174667 3.59386,0.0522 m 0.14764,-11.211067 -0.14764,11.211067 m 1.61339,-29.745542 7.81932,8.384009 -2.50571,-0.03645 -0.13543,10.28339 2.35808,11.247513 -0.0337,2.5641 -1.98215,-0.0288 -0.0327,2.48865 -11.89238,-0.17277 0.0327,-2.48866 -1.9818,-0.0288 0.0337,-2.5641 2.65343,-11.1747 0.13542,-10.283401 -2.50583,-0.03635 8.03711,-8.153628"
           style="fill:#d8c8a6;fill-opacity:1;stroke:#af986a;stroke-width:0.693428;stroke-linecap:round;stroke-linejoin:round;stroke-dasharray:none;stroke-opacity:1"
           id="path72319"
           sodipodi:nodetypes="cccccccccccccccccccccccccccc" />
        <path
           d="m 117.81987,89.844439 -1.08811,-0.01582 -0.14763,11.211061 3.59383,0.0522 m -2.35809,-11.247461 2.35809,11.247461 m -5.88908,-11.298759 -1.08813,-0.01582 -2.65335,11.174669 3.59385,0.0522 m 0.14763,-11.21107 -0.14763,11.21107 m 1.61339,-29.745535 7.81931,8.384009 -2.50571,-0.03645 -0.13543,10.283391 2.35808,11.247505 -0.0337,2.5641 -1.98215,-0.0288 -0.0327,2.48864 -11.89238,-0.17277 0.0327,-2.48865 -1.9818,-0.0288 0.0337,-2.5641 2.65343,-11.174683 0.13543,-10.283411 -2.50584,-0.03635 8.03712,-8.153627"
           style="fill:#f5ebd6;fill-opacity:1;stroke:#af986a;stroke-width:0.693428;stroke-linecap:round;stroke-linejoin:round;stroke-dasharray:none;stroke-opacity:1"
           id="path4158"
           sodipodi:nodetypes="cccccccccccccccccccccccccccc" />
      </g>
    </g>
  </g>
</svg>
