<?xml version="1.0" encoding="UTF-8" standalone="no"?>
<svg
   inkscape:export-ydpi="100"
   inkscape:export-xdpi="100"
   inkscape:export-filename="logo_student.png"
   sodipodi:docname="lighthouse.svg"
   inkscape:version="1.2.2 (b0a8486541, 2022-12-01)"
   id="svg8"
   version="1.1"
   viewBox="0 0 5.2916663 5.2916667"
   height="20"
   width="20"
   xmlns:inkscape="http://www.inkscape.org/namespaces/inkscape"
   xmlns:sodipodi="http://sodipodi.sourceforge.net/DTD/sodipodi-0.dtd"
   xmlns="http://www.w3.org/2000/svg"
   xmlns:svg="http://www.w3.org/2000/svg"
   xmlns:rdf="http://www.w3.org/1999/02/22-rdf-syntax-ns#"
   xmlns:cc="http://creativecommons.org/ns#"
   xmlns:dc="http://purl.org/dc/elements/1.1/">
  <defs
     id="defs2" />
  <sodipodi:namedview
     inkscape:snap-global="true"
     inkscape:snap-object-midpoints="true"
     inkscape:document-rotation="0"
     inkscape:window-maximized="1"
     inkscape:window-y="0"
     inkscape:window-x="0"
     inkscape:window-height="1037"
     inkscape:window-width="1916"
     fit-margin-bottom="1"
     fit-margin-right="1"
     fit-margin-top="1"
     fit-margin-left="1"
     showgrid="false"
     inkscape:current-layer="g9282"
     inkscape:document-units="mm"
     inkscape:cy="11.092738"
     inkscape:cx="6.1208931"
     inkscape:zoom="22.627417"
     inkscape:pageshadow="2"
     inkscape:pageopacity="0.0"
     borderopacity="1.0"
     bordercolor="#666666"
     pagecolor="#ffffff"
     id="base"
     inkscape:pagecheckerboard="0"
     inkscape:showpageshadow="2"
     inkscape:deskcolor="#d1d1d1" />
  <metadata
     id="metadata5">
    <rdf:RDF>
      <cc:Work
         rdf:about="">
        <dc:format>image/svg+xml</dc:format>
        <dc:type
           rdf:resource="http://purl.org/dc/dcmitype/StillImage" />
      </cc:Work>
    </rdf:RDF>
  </metadata>
  <g
     transform="matrix(0.1036131,0,0,0.1036131,-9.2954631,-6.5622301)"
     id="layer1"
     inkscape:label="Calque 1"
     inkscape:groupmode="layer">
    <g
       id="g9282"
       transform="translate(0.94976512)">
      <path
         d="m 117.27876,73.37578 0.02,-3.828039 -4.20429,-4.369581 -4.24951,4.323288 -0.02,3.82804 -0.74813,-0.0046 -0.0112,2.157052 0.7482,0.0046 -0.02,3.827435 -1.33254,-0.0073 -0.0112,2.157035 1.33271,0.0072 -2.03057,24.43846 -5.72063,-0.0277 -0.022,4.24738 3.08093,0.0168 -0.0196,3.78734 18.48475,0.10123 0.0196,-3.78739 3.08094,0.0169 0.0219,-4.24392 -6.76569,-0.0448 -1.66872,-24.458773 m 0.0242,-5.9839 0.67058,0.0035 0.0111,-2.157054 -0.67077,-0.0035 m -0.0309,5.98448 0.0198,-3.827436 m -0.0242,5.984505 1.32866,0.0072 0.0112,-2.156918 -1.33605,-0.0073"
         style="fill:#d8c8a6;fill-opacity:1;stroke:#af986a;stroke-width:0.965129;stroke-linecap:round;stroke-linejoin:round;stroke-dasharray:none;stroke-opacity:1"
         id="path73421"
         sodipodi:nodetypes="ccccccccccccccccccccccccccccccccc" />
      <path
         d="m 118.6762,72.054221 0.02,-3.82803 -4.2043,-4.36959 -4.24951,4.323288 -0.0199,3.82804 -0.74813,-0.0046 -0.0111,2.157044 0.74821,0.0046 -0.02,3.827434 -1.33255,-0.0072 -0.0112,2.157035 1.33272,0.0072 -2.03056,24.438478 -5.72064,-0.0278 -0.022,4.24739 3.08092,0.0168 -0.0196,3.78732 18.48474,0.10124 0.0196,-3.78739 3.08094,0.0168 0.0219,-4.24392 -6.76569,-0.0448 -1.66871,-24.45878 m 0.0242,-5.983901 0.67056,0.0035 0.0112,-2.157044 -0.67078,-0.0035 m -0.0309,5.984479 0.0198,-3.827435 m -0.0242,5.984505 1.32867,0.0073 0.0111,-2.156909 -1.33605,-0.0072"
         style="fill:#f5ebd6;fill-opacity:1;stroke:#af986a;stroke-width:0.965129;stroke-linecap:round;stroke-linejoin:round;stroke-dasharray:none;stroke-opacity:1"
         id="path4174"
         sodipodi:nodetypes="ccccccccccccccccccccccccccccccccc" />
    </g>
  </g>
</svg>
