<?xml version="1.0" encoding="UTF-8" standalone="no"?>
<svg
   inkscape:export-ydpi="100"
   inkscape:export-xdpi="100"
   inkscape:export-filename="logo_student.png"
   sodipodi:docname="card_request_livestock.svg"
   inkscape:version="1.2.2 (b0a8486541, 2022-12-01)"
   id="svg8"
   version="1.1"
   viewBox="0 0 5.2916663 5.2916667"
   height="20"
   width="20"
   xmlns:inkscape="http://www.inkscape.org/namespaces/inkscape"
   xmlns:sodipodi="http://sodipodi.sourceforge.net/DTD/sodipodi-0.dtd"
   xmlns="http://www.w3.org/2000/svg"
   xmlns:svg="http://www.w3.org/2000/svg"
   xmlns:rdf="http://www.w3.org/1999/02/22-rdf-syntax-ns#"
   xmlns:cc="http://creativecommons.org/ns#"
   xmlns:dc="http://purl.org/dc/elements/1.1/">
  <defs
     id="defs2" />
  <sodipodi:namedview
     inkscape:snap-global="true"
     inkscape:snap-object-midpoints="true"
     inkscape:document-rotation="0"
     inkscape:window-maximized="1"
     inkscape:window-y="0"
     inkscape:window-x="0"
     inkscape:window-height="1037"
     inkscape:window-width="1916"
     fit-margin-bottom="1"
     fit-margin-right="1"
     fit-margin-top="1"
     fit-margin-left="1"
     showgrid="false"
     inkscape:current-layer="layer1"
     inkscape:document-units="mm"
     inkscape:cy="8.9375"
     inkscape:cx="7.703125"
     inkscape:zoom="32"
     inkscape:pageshadow="2"
     inkscape:pageopacity="0.0"
     borderopacity="1.0"
     bordercolor="#666666"
     pagecolor="#ffffff"
     id="base"
     inkscape:pagecheckerboard="0"
     inkscape:showpageshadow="2"
     inkscape:deskcolor="#d1d1d1" />
  <metadata
     id="metadata5">
    <rdf:RDF>
      <cc:Work
         rdf:about="">
        <dc:format>image/svg+xml</dc:format>
        <dc:type
           rdf:resource="http://purl.org/dc/dcmitype/StillImage" />
      </cc:Work>
    </rdf:RDF>
  </metadata>
  <g
     transform="matrix(0.1036131,0,0,0.1036131,-9.2954631,-6.5622301)"
     id="layer1"
     inkscape:label="Calque 1"
     inkscape:groupmode="layer">
    <g
       id="g9071"
       transform="matrix(0.14087894,0.16998446,-0.16821924,0.14228601,115.64201,59.240014)"
       style="stroke-width:4.37612;stroke-dasharray:none">
      <path
         d="m 126.47436,206.00674 c -6.82646,8.70893 7.2383,20.03386 14.16361,11.77178 l 77.43562,-92.39243 c 9.10213,-10.85365 9.10394,-10.78002 -1.63542,-19.80175 L 167.14455,64.177142 74.940314,-13.283152 80.06486,-19.398529 c 0.195166,-0.314787 0.643324,-1.042054 0.791505,-1.355032 1.463743,-3.316303 0.162638,-7.850326 -2.109958,-10.701865 -2.097851,-2.640595 -5.858224,-4.28563 -9.217605,-4.153564 -1.86835,0.07236 -4.4196,0.984163 -5.88009,2.24295 l -75.728998,90.34197 c -10.101091,12.052193 -10.610509,11.720038 7.0225329,26.532952 L 132.1526,198.77387 Z"
         style="fill:#d8c8a6;fill-opacity:1;stroke:#af986a;stroke-width:4.37611;stroke-linecap:round;stroke-linejoin:round;stroke-dasharray:none;stroke-opacity:1"
         id="path80752"
         sodipodi:nodetypes="cccccccccccsscc" />
      <path
         d="m 126.47436,196.15876 c -6.82646,8.70894 7.2383,20.03386 14.16361,11.77178 l 77.43562,-92.39243 c 9.10213,-10.85365 9.10394,-10.78002 -1.63542,-19.801749 L 167.14455,54.329165 74.940314,-23.131128 80.06486,-29.246505 c 0.195166,-0.314787 0.643324,-1.042055 0.791505,-1.355033 1.463743,-3.316302 0.162638,-7.850325 -2.109958,-10.701864 -2.097851,-2.640595 -5.858224,-4.28563 -9.217605,-4.153564 -1.86835,0.07236 -4.4196,0.984162 -5.88009,2.24295 l -75.728998,90.341969 c -10.101091,12.052193 -10.610509,11.720038 7.0225329,26.532953 L 132.1526,188.92589 Z"
         style="fill:#f5ebd6;fill-opacity:1;stroke:#af986a;stroke-width:4.37611;stroke-linecap:round;stroke-linejoin:round;stroke-dasharray:none;stroke-opacity:1"
         id="path1711"
         sodipodi:nodetypes="cccccccccccsscc" />
    </g>
    <path
       d="m 109.88492,88.666201 c 0,0 0.6724,-0.802553 1.14736,-0.970496 0.50534,-0.178735 1.20247,-0.310969 1.61103,0.03129 0.43099,0.36109 -0.0116,1.178271 0.30049,1.642496 0.29301,0.435772 1.33325,0.860554 1.33325,0.860554 m 4.43289,6e-5 c 0,0 -0.48208,-0.845987 -0.28786,-1.215799 0.28087,-0.5348 1.18982,-0.353874 1.70039,-0.686707 0.62379,-0.406653 0.84996,-1.639309 1.59372,-1.554262 0.48976,0.05594 0.34346,1.011189 0.7818,1.23287 0.27342,0.138257 0.92088,-0.05671 0.92088,-0.05671 m -10.62411,-3.842068 c 0,0 -0.39888,0.855333 -0.18853,1.205532 0.31294,0.521014 1.29363,0.204373 1.7344,0.626945 0.322,0.308721 0.12564,0.982385 0.49649,1.232772 0.65535,0.44246 1.64728,0.314315 2.38592,0.02465 0.49972,-0.195926 0.67903,-0.863841 1.15844,-1.103766 0.61855,-0.309541 1.67559,0.222032 2.05196,-0.350764 0.31082,-0.473066 -0.42984,-1.635281 -0.42984,-1.635281 m 0.41192,7.017844 v 0.532733 m 1.17733,-0.532733 v 0.532733 m 0.49667,-1.427959 c 0,0.380685 -0.20687,0.732447 -0.54266,0.922799 -0.3358,0.190274 -0.74953,0.190274 -1.08533,0 -0.3358,-0.190274 -0.54266,-0.542114 -0.54266,-0.922799 z m -13.41027,-4.839691 c 0,0 -0.0873,-0.139234 -0.16785,-0.161919 -0.0611,-0.0176 -0.18893,0.03363 -0.18893,0.03363 m 1.1174,0.128284 c 0,0 0.0873,-0.139234 0.16785,-0.161919 0.0611,-0.0176 0.18892,0.03363 0.18892,0.03363 m -3.75689,8.924705 h 21.77364 m -2.22533,-4.161636 c 0,0 -0.88704,-0.493403 -0.85146,-0.901484 0.0196,-0.217926 0.30848,-0.404876 0.53145,-0.398736 0.19677,0.0058 0.37825,0.19665 0.44817,0.377068 0.11256,0.2903 -0.12814,0.923152 -0.12814,0.923152 z m -2.16919,-5.917797 c 0,0 1.76165,1.42727 1.84918,4.617575 m -1.84902,1.505063 v 3.956774 M 109.88532,90.23006 v 3.956774 m -4e-4,-7.084464 v 3.127729 h 13.53395 V 84.10742 h -11.55704 c 0,1.135211 -0.92197,2.9821 -1.97691,2.994948 z m 1.11529,-5.976969 c 0,0 2.07196,0.668207 2.61831,0 0.32839,-0.40159 -0.35164,-0.99361 -0.34015,-1.508464 m -6.00369,1.429244 c 0,0 -2.07196,0.66819 -2.61833,0 -0.3284,-0.401609 0.35167,-0.993628 0.34015,-1.508483 m 4.11695,0.824533 c -1.17343,0 -2.12464,0.270549 -2.12446,1.880623 -1e-4,0.835778 0.32334,1.678089 0.70412,2.521257 0.1183,0.262003 -0.0328,0.729984 0.12166,0.920688 0.30584,0.377829 0.92361,0.508304 1.29865,0.508304 0.32195,0 0.91248,-0.108729 1.12375,-0.418389 0.17552,-0.257173 -0.0192,-0.680761 0.15436,-1.040034 0.38138,-0.784522 0.84651,-1.690485 0.8464,-2.491826 1.8e-4,-1.610074 -0.95104,-1.880623 -2.12446,-1.880623 z"
       style="fill:none;stroke:#af986a;stroke-width:0.965128;stroke-linecap:round;stroke-linejoin:round;stroke-opacity:1"
       id="path10973" />
  </g>
</svg>
