<?xml version="1.0" encoding="UTF-8" standalone="no"?>
<svg
   inkscape:export-ydpi="100"
   inkscape:export-xdpi="100"
   inkscape:export-filename="logo_student.png"
   sodipodi:docname="card_request_crop.svg"
   inkscape:version="1.2.2 (b0a8486541, 2022-12-01)"
   id="svg8"
   version="1.1"
   viewBox="0 0 5.2916663 5.2916667"
   height="20"
   width="20"
   xmlns:inkscape="http://www.inkscape.org/namespaces/inkscape"
   xmlns:sodipodi="http://sodipodi.sourceforge.net/DTD/sodipodi-0.dtd"
   xmlns="http://www.w3.org/2000/svg"
   xmlns:svg="http://www.w3.org/2000/svg"
   xmlns:rdf="http://www.w3.org/1999/02/22-rdf-syntax-ns#"
   xmlns:cc="http://creativecommons.org/ns#"
   xmlns:dc="http://purl.org/dc/elements/1.1/">
  <defs
     id="defs2" />
  <sodipodi:namedview
     inkscape:snap-global="true"
     inkscape:snap-object-midpoints="true"
     inkscape:document-rotation="0"
     inkscape:window-maximized="1"
     inkscape:window-y="0"
     inkscape:window-x="0"
     inkscape:window-height="1037"
     inkscape:window-width="956"
     fit-margin-bottom="1"
     fit-margin-right="1"
     fit-margin-top="1"
     fit-margin-left="1"
     showgrid="false"
     inkscape:current-layer="layer1"
     inkscape:document-units="mm"
     inkscape:cy="2.75"
     inkscape:cx="16.15625"
     inkscape:zoom="16"
     inkscape:pageshadow="2"
     inkscape:pageopacity="0.0"
     borderopacity="1.0"
     bordercolor="#666666"
     pagecolor="#ffffff"
     id="base"
     inkscape:pagecheckerboard="0"
     inkscape:showpageshadow="2"
     inkscape:deskcolor="#d1d1d1" />
  <metadata
     id="metadata5">
    <rdf:RDF>
      <cc:Work
         rdf:about="">
        <dc:format>image/svg+xml</dc:format>
        <dc:type
           rdf:resource="http://purl.org/dc/dcmitype/StillImage" />
      </cc:Work>
    </rdf:RDF>
  </metadata>
  <g
     transform="matrix(0.1036131,0,0,0.1036131,-9.2954631,-6.5622301)"
     id="layer1"
     inkscape:label="Calque 1"
     inkscape:groupmode="layer">
    <g
       id="g9071"
       transform="matrix(0.14087894,0.16998446,-0.16821924,0.14228601,115.64201,59.240014)"
       style="stroke-width:4.37612;stroke-dasharray:none">
      <path
         d="m 126.47436,206.00674 c -6.82646,8.70893 7.2383,20.03386 14.16361,11.77178 l 77.43562,-92.39243 c 9.10213,-10.85365 9.10394,-10.78002 -1.63542,-19.80175 L 167.14455,64.177142 74.940314,-13.283152 80.06486,-19.398529 c 0.195166,-0.314787 0.643324,-1.042054 0.791505,-1.355032 1.463743,-3.316303 0.162638,-7.850326 -2.109958,-10.701865 -2.097851,-2.640595 -5.858224,-4.28563 -9.217605,-4.153564 -1.86835,0.07236 -4.4196,0.984163 -5.88009,2.24295 l -75.728998,90.34197 c -10.101091,12.052193 -10.610509,11.720038 7.0225329,26.532952 L 132.1526,198.77387 Z"
         style="fill:#d8c8a6;fill-opacity:1;stroke:#af986a;stroke-width:4.37611;stroke-linecap:round;stroke-linejoin:round;stroke-dasharray:none;stroke-opacity:1"
         id="path80752"
         sodipodi:nodetypes="cccccccccccsscc" />
      <path
         d="m 126.47436,196.15876 c -6.82646,8.70894 7.2383,20.03386 14.16361,11.77178 l 77.43562,-92.39243 c 9.10213,-10.85365 9.10394,-10.78002 -1.63542,-19.801749 L 167.14455,54.329165 74.940314,-23.131128 80.06486,-29.246505 c 0.195166,-0.314787 0.643324,-1.042055 0.791505,-1.355033 1.463743,-3.316302 0.162638,-7.850325 -2.109958,-10.701864 -2.097851,-2.640595 -5.858224,-4.28563 -9.217605,-4.153564 -1.86835,0.07236 -4.4196,0.984162 -5.88009,2.24295 l -75.728998,90.341969 c -10.101091,12.052193 -10.610509,11.720038 7.0225329,26.532953 L 132.1526,188.92589 Z"
         style="fill:#f5ebd6;fill-opacity:1;stroke:#af986a;stroke-width:4.37611;stroke-linecap:round;stroke-linejoin:round;stroke-dasharray:none;stroke-opacity:1"
         id="path1711"
         sodipodi:nodetypes="cccccccccccsscc" />
    </g>
    <path
       d="m 105.62049,71.20427 c -0.108,0 -0.19063,0.07781 -0.19484,0.173799 l -0.22761,4.96168 c -7.2e-4,0.0051 0,0.01419 0,0.01977 v 0.04246 c 0,0.104173 0.0724,0.190781 0.1696,0.210881 0.005,0.0013 0.014,0.0025 0.0196,0.0025 h 10e-4 c 0.005,6.46e-4 0.014,0.0013 0.0196,0.0013 h 0.001 1.85134 c -0.0168,0.05918 -0.0252,0.122296 -0.0252,0.187385 v 2.979634 c 0,0.365352 0.29034,0.659698 0.65186,0.659698 0.36155,0 0.65333,-0.294346 0.65333,-0.659698 v -2.979647 c 0,-0.06476 -0.009,-0.128226 -0.0252,-0.187384 h 1.85131 c 0.0516,0 0.0978,-0.01977 0.13483,-0.04981 h 0.001 c 0.005,-0.0025 0.0114,-0.0089 0.014,-0.01141 0.0384,-0.03878 0.0622,-0.09251 0.0622,-0.152001 v -0.04246 l -0.2276,-4.983643 c -0.005,-0.09619 -0.0869,-0.173786 -0.19484,-0.173786 h -0.0384 c -0.10799,0 -0.19903,0.07781 -0.19482,0.173786 l 0.18781,4.559538 h -1.24191 l -0.0925,-4.559538 c -0.003,-0.09619 -0.0869,-0.173786 -0.19484,-0.173786 h -0.0384 c -0.10799,0 -0.19594,0.07781 -0.19482,0.173786 l 0.053,4.559538 h -0.51381 -0.5427 l 0.053,-4.559538 c 0.001,-0.09619 -0.0869,-0.173786 -0.19483,-0.173786 h -0.0384 c -0.10799,0 -0.19286,0.07781 -0.19482,0.173786 l -0.0925,4.559538 h -1.21302 l 0.1881,-4.559538 c 0.003,-0.09619 -0.0869,-0.173786 -0.19483,-0.173786 z m 1.84321,9.082134 v 21.456976 c 0,0.23722 0.18978,0.42715 0.42444,0.42715 0.23463,0 0.42298,-0.19022 0.42298,-0.42715 V 80.287848 c -0.11385,0.09758 -0.26154,0.156526 -0.42298,0.156526 -0.16231,0 -0.31066,-0.05944 -0.42444,-0.157945 z m -1.76265,21.884126 h 20.7643 m -4.9684,-7.393459 v 7.366799 m -5.23497,-7.366799 v 7.366799 m 7.22873,-16.253197 c 0,0 1.46936,4.216756 1.69379,5.804593 0.22398,1.584276 -0.55457,6.161442 -0.55457,6.161442 m -10.16747,-12.012685 -3.21909,5.499996 -2.93782,-6.489853 m 15.18516,1.036507 -1.99376,8.886398 h -5.23497 l -1.79952,-8.933048 c 3.09677,0.794578 6.10025,0.757129 9.02825,0.04676 z m -0.70335,-4.725631 c 0,2.104709 -1.68837,3.8109 -3.77103,3.8109 -2.08267,0 -3.77104,-1.706191 -3.77104,-3.8109 0,-2.104709 1.68837,-3.8109 3.77104,-3.8109 2.08266,0 3.77103,1.706191 3.77103,3.8109 z"
       style="fill:none;stroke:#af986a;stroke-width:0.965126;stroke-linecap:round;stroke-linejoin:round;stroke-opacity:1"
       id="path10432" />
  </g>
</svg>
