<?xml version="1.0" encoding="UTF-8" standalone="no"?>
<svg
   inkscape:export-ydpi="100"
   inkscape:export-xdpi="100"
   inkscape:export-filename="logo_student.png"
   sodipodi:docname="die_weather_6.svg"
   inkscape:version="1.2.2 (b0a8486541, 2022-12-01)"
   id="svg8"
   version="1.1"
   viewBox="0 0 5.2916663 5.2916667"
   height="20"
   width="20"
   xmlns:inkscape="http://www.inkscape.org/namespaces/inkscape"
   xmlns:sodipodi="http://sodipodi.sourceforge.net/DTD/sodipodi-0.dtd"
   xmlns="http://www.w3.org/2000/svg"
   xmlns:svg="http://www.w3.org/2000/svg"
   xmlns:rdf="http://www.w3.org/1999/02/22-rdf-syntax-ns#"
   xmlns:cc="http://creativecommons.org/ns#"
   xmlns:dc="http://purl.org/dc/elements/1.1/">
  <defs
     id="defs2" />
  <sodipodi:namedview
     inkscape:snap-global="true"
     inkscape:snap-object-midpoints="true"
     inkscape:document-rotation="0"
     inkscape:window-maximized="1"
     inkscape:window-y="0"
     inkscape:window-x="0"
     inkscape:window-height="1080"
     inkscape:window-width="1920"
     fit-margin-bottom="1"
     fit-margin-right="1"
     fit-margin-top="1"
     fit-margin-left="1"
     showgrid="false"
     inkscape:current-layer="g3234"
     inkscape:document-units="mm"
     inkscape:cy="12.093749"
     inkscape:cx="10.65625"
     inkscape:zoom="32.000001"
     inkscape:pageshadow="2"
     inkscape:pageopacity="0.0"
     borderopacity="1.0"
     bordercolor="#666666"
     pagecolor="#ffffff"
     id="base"
     inkscape:pagecheckerboard="0"
     inkscape:showpageshadow="2"
     inkscape:deskcolor="#d1d1d1" />
  <metadata
     id="metadata5">
    <rdf:RDF>
      <cc:Work
         rdf:about="">
        <dc:format>image/svg+xml</dc:format>
        <dc:type
           rdf:resource="http://purl.org/dc/dcmitype/StillImage" />
      </cc:Work>
    </rdf:RDF>
  </metadata>
  <g
     transform="matrix(0.1036131,0,0,0.1036131,-9.2954631,-6.5622301)"
     id="layer1"
     inkscape:label="Calque 1"
     inkscape:groupmode="layer">
    <g
       id="g3234"
       transform="matrix(4.0279202,0,0,4.0432304,113.15167,-25.900409)"
       style="stroke-width:2.39156">
      <g
         id="g2101"
         transform="matrix(0.85417683,0,0,0.85379518,-23.284577,17.10473)"
         style="stroke-width:6.69748">
        <path
           id="path1987"
           style="fill:#c6e4ec;stroke:#6aa0af;stroke-width:0.280047;stroke-linecap:round;stroke-linejoin:round;fill-opacity:1;stroke-opacity:1"
           d="M 23.63143,8.2936224 22.269683,10.85513 c -0.369717,0.695456 -0.04434,2.285631 1.361747,2.285631 1.406086,0 1.731466,-1.590175 1.361747,-2.285631 z"
           sodipodi:nodetypes="cszsc" />
        <path
           style="fill:none;stroke:#6aa0af;stroke-width:0.280047;stroke-linecap:round;stroke-linejoin:round;stroke-opacity:1"
           d="m 23.795016,12.812252 c 0,0 0.453253,-0.137333 0.609196,-0.301756 0.167661,-0.17678 0.255353,-0.429964 0.289326,-0.671226 0.03007,-0.213552 -0.08207,-0.64175 -0.08207,-0.64175"
           id="path2085"
           sodipodi:nodetypes="caac" />
      </g>
      <g
         id="g2120"
         transform="matrix(0.85417683,0,0,0.85379518,-20.89389,20.428761)"
         style="stroke-width:6.69748;fill:#c6e4ec;fill-opacity:1;stroke:#6aa0af;stroke-opacity:1">
        <path
           id="path2116"
           style="fill:#c6e4ec;stroke:#6aa0af;stroke-width:0.280047;stroke-linecap:round;stroke-linejoin:round;fill-opacity:1;stroke-opacity:1"
           d="M 23.63143,8.2936224 22.269683,10.85513 c -0.369717,0.695456 -0.04434,2.285631 1.361747,2.285631 1.406086,0 1.731466,-1.590175 1.361747,-2.285631 z"
           sodipodi:nodetypes="cszsc" />
        <path
           style="fill:#c6e4ec;stroke:#6aa0af;stroke-width:0.280047;stroke-linecap:round;stroke-linejoin:round;fill-opacity:1;stroke-opacity:1"
           d="m 23.795016,12.812252 c 0,0 0.453253,-0.137333 0.609196,-0.301756 0.167661,-0.17678 0.255353,-0.429964 0.289326,-0.671226 0.03007,-0.213552 -0.08207,-0.64175 -0.08207,-0.64175"
           id="path2118"
           sodipodi:nodetypes="caac" />
      </g>
      <g
         id="g2126"
         transform="matrix(0.85417683,0,0,0.85379518,-18.512457,23.249127)"
         style="stroke-width:6.69748;fill:#c6e4ec;fill-opacity:1;stroke:#6aa0af;stroke-opacity:1">
        <path
           id="path2122"
           style="fill:#c6e4ec;stroke:#6aa0af;stroke-width:0.280047;stroke-linecap:round;stroke-linejoin:round;fill-opacity:1;stroke-opacity:1"
           d="M 23.63143,8.2936224 22.269683,10.85513 c -0.369717,0.695456 -0.04434,2.285631 1.361747,2.285631 1.406086,0 1.731466,-1.590175 1.361747,-2.285631 z"
           sodipodi:nodetypes="cszsc" />
        <path
           style="fill:#c6e4ec;stroke:#6aa0af;stroke-width:0.280047;stroke-linecap:round;stroke-linejoin:round;fill-opacity:1;stroke-opacity:1"
           d="m 23.795016,12.812252 c 0,0 0.453253,-0.137333 0.609196,-0.301756 0.167661,-0.17678 0.255353,-0.429964 0.289326,-0.671226 0.03007,-0.213552 -0.08207,-0.64175 -0.08207,-0.64175"
           id="path2124"
           sodipodi:nodetypes="caac" />
      </g>
      <path
         style="fill:#ececc6;stroke:#afaf6a;stroke-width:0.239155;stroke-linecap:round;stroke-linejoin:round;fill-opacity:1;stroke-opacity:1"
         d="m 0.76044529,22.308024 -1.67170815,1.944944 0.63748364,0.0095 -0.82420238,1.295566 0.69012309,-0.02476 -0.58203025,1.291425 c 0.092809,-0.01674 1.62423275,-1.957394 1.62423275,-1.957394 l -0.56207479,0.02664 0.65950818,-1.109234 -0.54650482,-0.04184 z"
         id="path2230"
         sodipodi:nodetypes="ccccccccccc" />
      <path
         style="fill:#ececc6;stroke:#afaf6a;stroke-width:0.239155;stroke-linecap:round;stroke-linejoin:round;fill-opacity:1;stroke-opacity:1"
         d="m 3.1979842,24.632967 -1.6717086,1.944946 0.6374841,0.0095 -0.8242029,1.295566 0.6901236,-0.02476 -0.5820302,1.291425 c 0.092809,-0.01674 1.6242328,-1.957396 1.6242328,-1.957396 l -0.5620749,0.02664 0.6595082,-1.109225 -0.5465049,-0.04184 z"
         id="path2232"
         sodipodi:nodetypes="ccccccccccc" />
      <path
         style="fill:#ececc6;stroke:#afaf6a;stroke-width:0.239155;stroke-linecap:round;stroke-linejoin:round;fill-opacity:1;stroke-opacity:1"
         d="m 5.2304691,28.009215 -1.6717088,1.944946 0.6374842,0.0095 -0.8242029,1.295566 0.6901237,-0.02476 -0.5820302,1.291425 c 0.092809,-0.01673 1.6242325,-1.957397 1.6242325,-1.957397 L 4.5422929,30.595135 5.2018012,29.48591 4.6552963,29.44407 Z"
         id="path2234"
         sodipodi:nodetypes="ccccccccccc" />
    </g>
  </g>
</svg>
