<?xml version="1.0" encoding="UTF-8" standalone="no"?>
<svg
   inkscape:export-ydpi="100"
   inkscape:export-xdpi="100"
   inkscape:export-filename="logo_student.png"
   sodipodi:docname="die_weather_5.svg"
   inkscape:version="1.2.2 (b0a8486541, 2022-12-01)"
   id="svg8"
   version="1.1"
   viewBox="0 0 5.2916663 5.2916667"
   height="20"
   width="20"
   xmlns:inkscape="http://www.inkscape.org/namespaces/inkscape"
   xmlns:sodipodi="http://sodipodi.sourceforge.net/DTD/sodipodi-0.dtd"
   xmlns="http://www.w3.org/2000/svg"
   xmlns:svg="http://www.w3.org/2000/svg"
   xmlns:rdf="http://www.w3.org/1999/02/22-rdf-syntax-ns#"
   xmlns:cc="http://creativecommons.org/ns#"
   xmlns:dc="http://purl.org/dc/elements/1.1/">
  <defs
     id="defs2" />
  <sodipodi:namedview
     inkscape:snap-global="true"
     inkscape:snap-object-midpoints="true"
     inkscape:document-rotation="0"
     inkscape:window-maximized="1"
     inkscape:window-y="0"
     inkscape:window-x="0"
     inkscape:window-height="1037"
     inkscape:window-width="1916"
     fit-margin-bottom="1"
     fit-margin-right="1"
     fit-margin-top="1"
     fit-margin-left="1"
     showgrid="false"
     inkscape:current-layer="g3234"
     inkscape:document-units="mm"
     inkscape:cy="1.5026019"
     inkscape:cx="6.9384853"
     inkscape:zoom="11.313709"
     inkscape:pageshadow="2"
     inkscape:pageopacity="0.0"
     borderopacity="1.0"
     bordercolor="#666666"
     pagecolor="#ffffff"
     id="base"
     inkscape:pagecheckerboard="0"
     inkscape:showpageshadow="2"
     inkscape:deskcolor="#d1d1d1" />
  <metadata
     id="metadata5">
    <rdf:RDF>
      <cc:Work
         rdf:about="">
        <dc:format>image/svg+xml</dc:format>
        <dc:type
           rdf:resource="http://purl.org/dc/dcmitype/StillImage" />
      </cc:Work>
    </rdf:RDF>
  </metadata>
  <g
     transform="matrix(0.1036131,0,0,0.1036131,-9.2954631,-6.5622301)"
     id="layer1"
     inkscape:label="Calque 1"
     inkscape:groupmode="layer">
    <g
       id="g3234"
       transform="matrix(4.0279202,0,0,4.0432304,113.15167,-25.900409)"
       style="stroke-width:2.39156">
      <path
         style="fill:#ececc6;fill-opacity:1;stroke:#afaf6a;stroke-width:0.239156;stroke-linecap:round;stroke-linejoin:round;stroke-opacity:1"
         d="m 4.9226685,22.947554 -1.957099,2.278003 0.746314,0.01114 -0.964909,1.517416 0.80794,-0.029 -0.681393,1.512573 c 0.108653,-0.01956 1.901518,-2.292579 1.901518,-2.292579 l -0.658031,0.03121 0.772098,-1.299176 -0.639803,-0.04904 z"
         id="path2230-3"
         sodipodi:nodetypes="ccccccccccc" />
      <g
         id="g2300"
         transform="translate(-25.925404,14.210961)"
         style="fill:#c6e4ec;fill-opacity:1;stroke:#6aa0af;stroke-width:2.39156;stroke-opacity:1">
        <path
           id="path2296"
           style="fill:#c6e4ec;fill-opacity:1;stroke:#6aa0af;stroke-width:0.239156;stroke-linecap:round;stroke-linejoin:round;stroke-opacity:1"
           d="M 23.63143,8.2936224 22.269683,10.85513 c -0.369717,0.695456 -0.04434,2.285631 1.361747,2.285631 1.406086,0 1.731466,-1.590175 1.361747,-2.285631 z"
           sodipodi:nodetypes="cszsc" />
        <path
           style="fill:#c6e4ec;fill-opacity:1;stroke:#6aa0af;stroke-width:0.239156;stroke-linecap:round;stroke-linejoin:round;stroke-opacity:1"
           d="m 23.795016,12.812252 c 0,0 0.453253,-0.137333 0.609196,-0.301756 0.167661,-0.17678 0.255353,-0.429964 0.289326,-0.671226 0.03007,-0.213552 -0.08207,-0.64175 -0.08207,-0.64175"
           id="path2298"
           sodipodi:nodetypes="caac" />
      </g>
      <g
         id="g2312"
         transform="translate(-19.947925,20.503689)"
         style="fill:#c6e4ec;fill-opacity:1;stroke:#6aa0af;stroke-width:2.39156;stroke-opacity:1">
        <path
           id="path2308"
           style="fill:#c6e4ec;fill-opacity:1;stroke:#6aa0af;stroke-width:0.239156;stroke-linecap:round;stroke-linejoin:round;stroke-opacity:1"
           d="M 23.63143,8.2936224 22.269683,10.85513 c -0.369717,0.695456 -0.04434,2.285631 1.361747,2.285631 1.406086,0 1.731466,-1.590175 1.361747,-2.285631 z"
           sodipodi:nodetypes="cszsc" />
        <path
           style="fill:#c6e4ec;fill-opacity:1;stroke:#6aa0af;stroke-width:0.239156;stroke-linecap:round;stroke-linejoin:round;stroke-opacity:1"
           d="m 23.795016,12.812252 c 0,0 0.453253,-0.137333 0.609196,-0.301756 0.167661,-0.17678 0.255353,-0.429964 0.289326,-0.671226 0.03007,-0.213552 -0.08207,-0.64175 -0.08207,-0.64175"
           id="path2310"
           sodipodi:nodetypes="caac" />
      </g>
      <g
         id="g2324"
         transform="translate(-22.998603,17.206218)"
         style="fill:#c6e4ec;fill-opacity:1;stroke:#6aa0af;stroke-width:2.39156;stroke-opacity:1">
        <path
           id="path2320"
           style="fill:#c6e4ec;fill-opacity:1;stroke:#6aa0af;stroke-width:0.239156;stroke-linecap:round;stroke-linejoin:round;stroke-opacity:1"
           d="M 23.63143,8.2936224 22.269683,10.85513 c -0.369717,0.695456 -0.04434,2.285631 1.361747,2.285631 1.406086,0 1.731466,-1.590175 1.361747,-2.285631 z"
           sodipodi:nodetypes="cszsc" />
        <path
           style="fill:#c6e4ec;fill-opacity:1;stroke:#6aa0af;stroke-width:0.239156;stroke-linecap:round;stroke-linejoin:round;stroke-opacity:1"
           d="m 23.795016,12.812252 c 0,0 0.453253,-0.137333 0.609196,-0.301756 0.167661,-0.17678 0.255353,-0.429964 0.289326,-0.671226 0.03007,-0.213552 -0.08207,-0.64175 -0.08207,-0.64175"
           id="path2322"
           sodipodi:nodetypes="caac" />
      </g>
      <path
         style="fill:#ececc6;fill-opacity:1;stroke:#afaf6a;stroke-width:0.239156;stroke-linecap:round;stroke-linejoin:round;stroke-opacity:1"
         d="m -1.4836795,29.105004 -1.9570991,2.278003 0.746314,0.01114 -0.964909,1.517416 0.80794,-0.029 -0.681393,1.512573 c 0.108653,-0.01956 1.9015181,-2.292579 1.9015181,-2.292579 l -0.658031,0.03121 0.772098,-1.299176 -0.639803,-0.04904 z"
         id="path2354"
         sodipodi:nodetypes="ccccccccccc" />
    </g>
  </g>
</svg>
