<?xml version="1.0" encoding="UTF-8" standalone="no"?>
<!-- Created with Inkscape (http://www.inkscape.org/) -->

<svg
   width="7.4577012mm"
   height="2.3771758mm"
   viewBox="0 0 7.4577012 2.3771758"
   version="1.1"
   id="svg1"
   sodipodi:docname="15.svg"
   inkscape:version="1.3.2 (091e20ef0f, 2023-11-25, custom)"
   xmlns:inkscape="http://www.inkscape.org/namespaces/inkscape"
   xmlns:sodipodi="http://sodipodi.sourceforge.net/DTD/sodipodi-0.dtd"
   xmlns="http://www.w3.org/2000/svg"
   xmlns:svg="http://www.w3.org/2000/svg">
  <sodipodi:namedview
     id="namedview1"
     pagecolor="#ffffff"
     bordercolor="#666666"
     borderopacity="1.0"
     inkscape:showpageshadow="2"
     inkscape:pageopacity="0.0"
     inkscape:pagecheckerboard="0"
     inkscape:deskcolor="#d1d1d1"
     inkscape:document-units="mm"
     inkscape:zoom="2.4001193"
     inkscape:cx="19.999006"
     inkscape:cy="-8.5412423"
     inkscape:window-width="380"
     inkscape:window-height="1037"
     inkscape:window-x="0"
     inkscape:window-y="0"
     inkscape:window-maximized="1"
     inkscape:current-layer="layer1" />
  <defs
     id="defs1" />
  <g
     inkscape:label="Layer 1"
     inkscape:groupmode="layer"
     id="layer1"
     transform="translate(-124.61667,-85.19412)">
    <path
       style="fill:none;stroke:#000000;stroke-width:0.5;stroke-linecap:round;stroke-linejoin:round;stroke-dasharray:none;stroke-opacity:1"
       d="m 127.13564,85.456053 c 0.10963,-0.0227 0.21782,-0.012 0.30937,0.0261 0.0746,0.031 0.14788,0.0832 0.19844,0.14618 0.0379,0.0473 0.0614,0.0996 0.0882,0.15587 0.0575,0.12066 0.0692,0.27309 0.0819,0.40093 0.004,0.0397 0.009,0.059 0.01,0.10024 6.3e-4,0.0378 0.003,0.0541 0.003,0.0892 5.4e-4,0.04 -0.003,0.0604 -0.003,0.10014 -7e-4,0.0413 -0.005,0.0607 -0.01,0.10014 -0.0129,0.12887 -0.0252,0.27839 -0.0816,0.40094 -0.0262,0.0569 -0.0491,0.10841 -0.0868,0.1559 -0.0505,0.0638 -0.12216,0.12781 -0.20018,0.15477 -0.0396,0.0134 -0.0722,0.018 -0.11458,0.0256 -0.10884,0.0199 -0.19532,0.007 -0.28645,-0.0285 -0.0485,-0.0194 -0.0979,-0.0486 -0.13406,-0.0861 -0.0523,-0.0545 -0.0964,-0.11556 -0.12521,-0.18831 -0.0517,-0.13034 -0.0731,-0.25511 -0.0928,-0.38977 -0.004,-0.032 -0.008,-0.0477 -0.0112,-0.0779 -0.004,-0.0303 -0.003,-0.0526 -0.003,-0.0778 -6e-5,-0.0358 0,-0.0953 0,-0.13365 0,-0.0418 -0.002,-0.0631 0.002,-0.10014 0.003,-0.0341 0.008,-0.0553 0.0126,-0.0891 0.015,-0.10231 0.0251,-0.21147 0.0635,-0.31183 0.0413,-0.10809 0.0715,-0.17992 0.15158,-0.25512 0.0633,-0.0597 0.14255,-0.0998 0.2287,-0.1178"
       id="path16" />
    <path
       style="fill:none;stroke:#000000;stroke-width:0.5;stroke-linecap:round;stroke-linejoin:round;stroke-dasharray:none;stroke-opacity:1"
       d="m 125.32546,85.455303 c 0.10418,-0.019 0.21068,-0.0104 0.29791,0.0237 0.0679,0.0267 0.13851,0.0711 0.18942,0.12796 0.0396,0.0441 0.0607,0.089 0.0883,0.14381 0.073,0.14452 0.0906,0.31465 0.10135,0.46773 0.006,0.0782 0.011,0.10765 0.0104,0.20048 -2.8e-4,0.05 -0.007,0.0735 -0.0104,0.12244 -0.0102,0.14571 -0.0265,0.30594 -0.0896,0.44548 -0.0236,0.0524 -0.0385,0.0892 -0.0711,0.13363 -0.0508,0.0687 -0.12543,0.1378 -0.20695,0.16587 -0.0473,0.0161 -0.0841,0.0216 -0.1375,0.0298 -0.10136,0.0152 -0.17842,0.002 -0.26353,-0.0324 -0.0585,-0.0237 -0.11422,-0.0598 -0.15451,-0.10766 -0.0513,-0.0612 -0.0911,-0.12258 -0.12105,-0.20029 -0.0392,-0.102 -0.0626,-0.21421 -0.0764,-0.32299 -0.004,-0.0294 -0.004,-0.05 -0.008,-0.0778 -0.005,-0.0387 -0.007,-0.0669 -0.007,-0.11139 -3e-5,-0.0562 -2.8e-4,-0.13526 1e-5,-0.18931 1.7e-4,-0.0294 8.5e-4,-0.0487 0.005,-0.0778 0.005,-0.0388 0.0134,-0.10437 0.019,-0.15592 0.0101,-0.0934 0.0406,-0.19208 0.0777,-0.27844 0.0312,-0.0726 0.0694,-0.13185 0.12808,-0.18889 0.0663,-0.0643 0.13893,-0.10137 0.2287,-0.1178"
       id="path1" />
    <path
       style="fill:none;stroke:#000000;stroke-width:0.5;stroke-linecap:round;stroke-linejoin:round;stroke-dasharray:none"
       d="m 130.07377,87.233932 c 0.43888,0.0664 0.95492,0.12809 1.33391,-0.0702 0.0842,-0.0441 0.12916,-0.0839 0.18002,-0.1466 0.0832,-0.10253 0.11535,-0.23223 0.0972,-0.35603 -0.0159,-0.10838 -0.0652,-0.20051 -0.16505,-0.29388 -0.16923,-0.15827 -0.45443,-0.20145 -0.72048,-0.20145 -0.0964,0 -0.14321,0.003 -0.25749,0.0109 -0.12361,0.01 -0.17977,0.0216 -0.24336,-0.0204 -0.0492,-0.0325 -0.0375,-0.10552 -0.0375,-0.14546 -5e-5,-0.0824 0,-0.27369 0,-0.35603 0,-0.0511 -0.0223,-0.10104 0.0141,-0.14987 0.04,-0.0537 0.15924,-0.0359 0.24336,-0.0359 0.32114,-1e-5 0.6817,0 1.00654,0"
       id="path8" />
    <g
       id="g14"
       transform="translate(-1.9657784,-4.6484364)"
       style="stroke:#000000">
      <path
         style="fill:none;stroke:#000000;stroke-width:0.5;stroke-linecap:round;stroke-linejoin:round;stroke-dasharray:none"
         d="m 131.07752,91.888598 c 0.13201,0.0466 0.30337,0.031 0.70224,0.031"
         id="path14" />
      <path
         style="fill:none;stroke:#000000;stroke-width:0.5;stroke-linecap:round;stroke-linejoin:round;stroke-dasharray:none"
         d="m 130.28171,90.217558 c 0.13751,-0.0235 0.36266,-0.0521 0.49156,-0.0639 0.0926,-0.008 0.19041,-0.0392 0.26677,0.0109 0.0606,0.04 0.0375,0.10539 0.0375,0.14546 5e-5,0.0713 0,0.18634 0,0.26316 0,0.36992 0,0.76231 0,1.12998 0,0.073 0.0177,0.10185 -0.0141,0.15389 -0.0385,0.0631 -0.13496,0.0624 -0.21995,0.0628 -0.11975,5.3e-4 -0.35601,1e-5 -0.49157,1e-5"
         id="path10" />
    </g>
  </g>
</svg>
