<?xml version="1.0" encoding="UTF-8" standalone="no"?>
<!-- Created with Inkscape (http://www.inkscape.org/) -->

<svg
   width="7.4577012mm"
   height="2.3771758mm"
   viewBox="0 0 7.4577012 2.3771758"
   version="1.1"
   id="svg1"
   sodipodi:docname="4.svg"
   inkscape:version="1.3.2 (091e20ef0f, 2023-11-25, custom)"
   xmlns:inkscape="http://www.inkscape.org/namespaces/inkscape"
   xmlns:sodipodi="http://sodipodi.sourceforge.net/DTD/sodipodi-0.dtd"
   xmlns="http://www.w3.org/2000/svg"
   xmlns:svg="http://www.w3.org/2000/svg">
  <sodipodi:namedview
     id="namedview1"
     pagecolor="#ffffff"
     bordercolor="#666666"
     borderopacity="1.0"
     inkscape:showpageshadow="2"
     inkscape:pageopacity="0.0"
     inkscape:pagecheckerboard="0"
     inkscape:deskcolor="#d1d1d1"
     inkscape:document-units="mm"
     inkscape:zoom="2.1167747"
     inkscape:cx="10.865587"
     inkscape:cy="1.653459"
     inkscape:window-width="956"
     inkscape:window-height="1037"
     inkscape:window-x="0"
     inkscape:window-y="0"
     inkscape:window-maximized="1"
     inkscape:current-layer="layer1" />
  <defs
     id="defs1" />
  <g
     inkscape:label="Layer 1"
     inkscape:groupmode="layer"
     id="layer1"
     transform="translate(-124.61667,-85.19412)">
    <path
       style="fill:none;stroke:#000000;stroke-width:0.5;stroke-linecap:round;stroke-linejoin:round;stroke-dasharray:none;stroke-opacity:1"
       d="m 128.9464,85.456043 c 0.1055,-0.022 0.21895,-0.0104 0.30937,0.0256 0.0706,0.0277 0.14064,0.077 0.19102,0.13572 0.0384,0.0448 0.0601,0.09 0.0865,0.14467 0.0559,0.11632 0.0805,0.26421 0.0973,0.38979 0.005,0.0335 0.003,0.0566 0.003,0.0892 2e-5,0.036 -6e-5,0.0605 0.005,0.10013 0.009,0.0696 -0.005,0.11556 -0.005,0.17821 -3e-5,0.0324 0.001,0.0556 -0.003,0.0892 -0.017,0.12706 -0.0407,0.27215 -0.0973,0.38981 -0.0362,0.0753 -0.0712,0.1393 -0.13182,0.19839 -0.0392,0.0382 -0.0942,0.0732 -0.14567,0.0916 -0.0424,0.0151 -0.0782,0.0182 -0.12604,0.026 -0.10183,0.0175 -0.18917,0.004 -0.27499,-0.0307 -0.079,-0.0325 -0.13462,-0.0856 -0.18333,-0.15189 -0.0277,-0.0377 -0.0514,-0.0646 -0.0715,-0.11138 -0.0581,-0.13497 -0.0794,-0.28668 -0.0989,-0.4232 -0.006,-0.0439 -0.0117,-0.0645 -0.0128,-0.11138 -10e-4,-0.0411 -1.8e-4,-0.0603 -1.8e-4,-0.10014 0,-0.0493 -0.002,-0.0721 0.001,-0.12244 0.003,-0.0405 0.007,-0.06 0.0122,-0.10013 0.0146,-0.11825 0.0305,-0.24303 0.0737,-0.35639 0.0271,-0.0711 0.0537,-0.12168 0.0965,-0.17819 0.067,-0.0884 0.16895,-0.1505 0.27482,-0.17244"
       id="path17" />
    <path
       style="fill:none;stroke:#000000;stroke-width:0.5;stroke-linecap:round;stroke-linejoin:round;stroke-dasharray:none;stroke-opacity:1"
       d="m 127.13564,85.456053 c 0.10963,-0.0227 0.21782,-0.012 0.30937,0.0261 0.0746,0.031 0.14788,0.0832 0.19844,0.14618 0.0379,0.0473 0.0614,0.0996 0.0882,0.15587 0.0575,0.12066 0.0692,0.27309 0.0819,0.40093 0.004,0.0397 0.009,0.059 0.01,0.10024 6.3e-4,0.0378 0.003,0.0541 0.003,0.0892 5.4e-4,0.04 -0.003,0.0604 -0.003,0.10014 -7e-4,0.0413 -0.005,0.0607 -0.01,0.10014 -0.0129,0.12887 -0.0252,0.27839 -0.0816,0.40094 -0.0262,0.0569 -0.0491,0.10841 -0.0868,0.1559 -0.0505,0.0638 -0.12216,0.12781 -0.20018,0.15477 -0.0396,0.0134 -0.0722,0.018 -0.11458,0.0256 -0.10884,0.0199 -0.19532,0.007 -0.28645,-0.0285 -0.0485,-0.0194 -0.0979,-0.0486 -0.13406,-0.0861 -0.0523,-0.0545 -0.0964,-0.11556 -0.12521,-0.18831 -0.0517,-0.13034 -0.0731,-0.25511 -0.0928,-0.38977 -0.004,-0.032 -0.008,-0.0477 -0.0112,-0.0779 -0.004,-0.0303 -0.003,-0.0526 -0.003,-0.0778 -6e-5,-0.0358 0,-0.0953 0,-0.13365 0,-0.0418 -0.002,-0.0631 0.002,-0.10014 0.003,-0.0341 0.008,-0.0553 0.0126,-0.0891 0.015,-0.10231 0.0251,-0.21147 0.0635,-0.31183 0.0413,-0.10809 0.0715,-0.17992 0.15158,-0.25512 0.0633,-0.0597 0.14255,-0.0998 0.2287,-0.1178"
       id="path16" />
    <path
       style="fill:none;stroke:#000000;stroke-width:0.5;stroke-linecap:round;stroke-linejoin:round;stroke-dasharray:none;stroke-opacity:1"
       d="m 125.32546,85.455303 c 0.10418,-0.019 0.21068,-0.0104 0.29791,0.0237 0.0679,0.0267 0.13851,0.0711 0.18942,0.12796 0.0396,0.0441 0.0607,0.089 0.0883,0.14381 0.073,0.14452 0.0906,0.31465 0.10135,0.46773 0.006,0.0782 0.011,0.10765 0.0104,0.20048 -2.8e-4,0.05 -0.007,0.0735 -0.0104,0.12244 -0.0102,0.14571 -0.0265,0.30594 -0.0896,0.44548 -0.0236,0.0524 -0.0385,0.0892 -0.0711,0.13363 -0.0508,0.0687 -0.12543,0.1378 -0.20695,0.16587 -0.0473,0.0161 -0.0841,0.0216 -0.1375,0.0298 -0.10136,0.0152 -0.17842,0.002 -0.26353,-0.0324 -0.0585,-0.0237 -0.11422,-0.0598 -0.15451,-0.10766 -0.0513,-0.0612 -0.0911,-0.12258 -0.12105,-0.20029 -0.0392,-0.102 -0.0626,-0.21421 -0.0764,-0.32299 -0.004,-0.0294 -0.004,-0.05 -0.008,-0.0778 -0.005,-0.0387 -0.007,-0.0669 -0.007,-0.11139 -3e-5,-0.0562 -2.8e-4,-0.13526 1e-5,-0.18931 1.7e-4,-0.0294 8.5e-4,-0.0487 0.005,-0.0778 0.005,-0.0388 0.0134,-0.10437 0.019,-0.15592 0.0101,-0.0934 0.0406,-0.19208 0.0777,-0.27844 0.0312,-0.0726 0.0694,-0.13185 0.12808,-0.18889 0.0663,-0.0643 0.13893,-0.10137 0.2287,-0.1178"
       id="path1" />
    <path
       style="fill:none;stroke:#000000;stroke-width:0.5;stroke-linecap:round;stroke-linejoin:round;stroke-dasharray:none"
       d="m 131.82437,86.804605 c -0.1709,0 -0.24644,0 -0.32771,0 -0.0259,0 -0.0865,0 -0.16385,0 -0.12497,0 -0.15606,0 -0.3043,0 -0.19382,0 -0.63692,2e-5 -0.84269,0 -0.0647,0 -0.19295,0.0139 -0.22936,-0.0249 -0.0442,-0.047 0.008,-0.10267 0.0296,-0.14545 0.0363,-0.0725 0.14501,-0.17789 0.21535,-0.24768 0.18259,-0.18113 0.3548,-0.35608 0.53813,-0.54177 0.0697,-0.0706 0.15555,-0.16589 0.22687,-0.23195 0.0787,-0.0729 0.20802,-0.1553 0.32885,-0.0927 0.0439,0.0227 0.0375,0.16904 0.0375,0.23175 0,0.26514 0,0.59252 0,0.85136 0,0.10756 0,0.11327 0,0.20123 0,0.0649 0,0.10838 0,0.1548 0,0.0609 0,0.23165 0,0.30958"
       id="path11" />
  </g>
</svg>
