<?xml version="1.0" encoding="UTF-8" standalone="no"?>
<!-- Created with Inkscape (http://www.inkscape.org/) -->

<svg
   sodipodi:docname="0.svg"
   inkscape:version="1.2.2 (b0a8486541, 2022-12-01)"
   id="svg5"
   version="1.1"
   viewBox="0 0 13.893746 5.308677"
   height="5.3086772mm"
   width="13.893745mm"
   xmlns:inkscape="http://www.inkscape.org/namespaces/inkscape"
   xmlns:sodipodi="http://sodipodi.sourceforge.net/DTD/sodipodi-0.dtd"
   xmlns="http://www.w3.org/2000/svg"
   xmlns:svg="http://www.w3.org/2000/svg">
  <sodipodi:namedview
     id="namedview7"
     pagecolor="#ffffff"
     bordercolor="#666666"
     borderopacity="1.0"
     inkscape:pageshadow="2"
     inkscape:pageopacity="0"
     inkscape:pagecheckerboard="false"
     inkscape:document-units="mm"
     showgrid="false"
     inkscape:zoom="2.2627666"
     inkscape:cx="184.50865"
     inkscape:cy="7.5129269"
     inkscape:window-width="1920"
     inkscape:window-height="1080"
     inkscape:window-x="0"
     inkscape:window-y="0"
     inkscape:window-maximized="1"
     inkscape:current-layer="layer1"
     inkscape:showpageshadow="2"
     inkscape:deskcolor="#ffffff" />
  <defs
     id="defs2">
    <clipPath
       clipPathUnits="userSpaceOnUse"
       id="clipPath4244">
      <path
         d="m -89.348846,133.47717 17.321,10 17.32,-10 v -20 l -17.32,-10 -17.321,10 v 20"
         class="s1"
         id="path4246"
         style="fill:none;fill-opacity:1;stroke:#000000;stroke-width:0.0999998;stroke-linecap:round;stroke-linejoin:round;stroke-dasharray:none" />
    </clipPath>
  </defs>
  <g
     inkscape:label="Layer 1"
     inkscape:groupmode="layer"
     id="layer1"
     transform="translate(81.346379,-113.95002)">
    <path
       style="fill:none;stroke:#00ff00;stroke-width:0.5;stroke-linecap:round;stroke-linejoin:round;stroke-dasharray:none"
       d="m -79.690465,119.0087 -1.406011,-0.0252 c 0,0 0.420376,-0.17217 0.581493,-0.32496 0.135064,-0.12809 0.122939,-0.40873 0.297871,-0.47234 0.184752,-0.0672 0.561555,0.18024 0.561555,0.18024"
       id="path19216"
       sodipodi:nodetypes="ccaac" />
    <path
       style="fill:none;stroke:#00ff00;stroke-width:0.499999;stroke-linecap:round;stroke-linejoin:round;stroke-dasharray:none"
       d="m -78.738398,118.26576 c 0,0 -0.240865,0.0995 -0.335311,0.0384 -0.08623,-0.0558 -0.103774,-0.19145 -0.09342,-0.29363 0.01425,-0.14069 0.171585,-0.23338 0.207089,-0.37026 0.06913,-0.26654 -0.168,-0.60639 -0.002,-0.82608 0.145862,-0.19301 0.464679,-0.25786 0.698686,-0.19646 0.262261,0.0688 0.596375,0.30603 0.574087,0.57625 -0.01272,0.15429 -0.22314,0.25635 -0.37727,0.27087 -0.106721,0.0101 -0.291647,-0.13546 -0.291647,-0.13546"
       id="path19218"
       sodipodi:nodetypes="caaaaaaac" />
    <path
       style="fill:none;stroke:#00ff00;stroke-width:0.499999;stroke-linecap:round;stroke-linejoin:round;stroke-dasharray:none"
       d="m -77.640322,118.06037 c 0,0 0.368873,0.32563 0.592533,0.31612 0.159733,-0.007 0.322495,-0.12245 0.402478,-0.26088 0.102685,-0.17772 -0.09521,-0.45392 0.03209,-0.61493 0.131316,-0.16609 0.40503,-0.2332 0.609581,-0.17854 0.229869,0.0614 0.52255,0.27945 0.493615,0.51562 -0.02013,0.16433 -0.261808,0.26984 -0.419926,0.26525"
       id="path19220"
       sodipodi:nodetypes="caaaaac" />
    <path
       style="fill:none;stroke:#00ff00;stroke-width:0.499999;stroke-linecap:round;stroke-linejoin:round;stroke-dasharray:none"
       d="m -75.2989,116.90896 c 0,0 -0.38816,-0.12403 -0.582695,-0.1846 -0.141572,-0.0441 -0.358334,0.002 -0.425369,-0.13012 -0.109711,-0.21645 0.04319,-0.54516 0.239827,-0.68737 0.166962,-0.12075 0.430586,-0.0961 0.618055,-0.0106 0.13031,0.0594 0.164594,0.23933 0.276081,0.32924 0.168708,0.13606 0.362745,0.26099 0.575418,0.30276 0.238648,0.0469 0.516298,0.0525 0.726226,-0.0703 0.119161,-0.0697 0.20415,-0.20563 0.236821,-0.33976 0.04784,-0.19639 -0.07913,-0.6012 -0.07913,-0.6012"
       id="path19222"
       sodipodi:nodetypes="caaaaaaaac" />
    <path
       style="fill:none;stroke:#00ff00;stroke-width:0.499999;stroke-linecap:round;stroke-linejoin:round;stroke-dasharray:none"
       d="m -74.374078,115.60526 c 0,0 -0.04399,-0.32609 0.01369,-0.47284 0.136962,-0.3485 0.392956,-0.70567 0.740694,-0.84455 0.367429,-0.14675 0.843128,-0.0964 1.182054,0.1077 0.515593,0.31053 0.933967,0.9132 0.98572,1.51286 0.01788,0.20718 -0.07336,0.45736 -0.245979,0.57332 -0.141932,0.0953 -0.379517,0.11601 -0.512871,0.009 -0.14608,-0.11723 -0.07822,-0.3664 -0.112039,-0.55062 -0.02874,-0.15655 -0.0015,-0.3312 -0.07719,-0.47123 -0.120265,-0.22254 -0.559255,-0.51298 -0.559255,-0.51298"
       id="path19247"
       sodipodi:nodetypes="caaaaaaaac" />
    <path
       style="fill:none;stroke:#00ff00;stroke-width:0.499999;stroke-linecap:round;stroke-linejoin:round;stroke-dasharray:none"
       d="m -74.03288,118.33112 c 0,0 -0.2954,0.0167 -0.385853,-0.0784 -0.09965,-0.10473 -0.13972,-0.30512 -0.06494,-0.42887 0.130129,-0.21534 0.566473,-0.0426 0.713265,-0.24699 0.09003,-0.12534 -0.112672,-0.36182 0.0039,-0.46294 0.200115,-0.17358 0.599654,-0.081 0.787696,0.10564 0.115618,0.11467 0.146077,0.34047 0.06866,0.48376 -0.0673,0.12458 -0.332548,0.0489 -0.384452,0.18061 -0.04224,0.10719 0.03752,0.25015 0.128477,0.32085 0.153627,0.1194 0.578681,0.0766 0.578681,0.0766"
       id="path19249"
       sodipodi:nodetypes="caaaaaaaac" />
    <path
       style="fill:none;stroke:#00ff00;stroke-width:0.499999;stroke-linecap:round;stroke-linejoin:round;stroke-dasharray:none"
       d="m -72.11198,117.22165 c 0.05357,0.006 0.262159,0.0439 0.388064,0.0139 0.215752,-0.0515 0.363664,-0.35681 0.582633,-0.32144 0.162396,0.0262 0.336043,0.1978 0.335084,0.3623 -0.0012,0.2049 -0.322829,0.26742 -0.422616,0.44639 -0.05028,0.0902 -0.09901,0.19801 -0.0794,0.29937 0.02024,0.10462 0.08934,0.22511 0.191286,0.25612 0.08246,0.0251 0.189704,-0.0189 0.243905,-0.0859"
       id="path19251"
       sodipodi:nodetypes="caaaaaac" />
    <path
       style="fill:none;stroke:#00ff00;stroke-width:0.499999;stroke-linecap:round;stroke-linejoin:round;stroke-dasharray:none"
       d="m -70.263706,118.21909 c -0.07885,-0.10107 -0.09196,-0.25731 -0.0481,-0.37571 0.04513,-0.12183 0.159534,-0.2646 0.289406,-0.26107 0.196201,0.005 0.235432,0.33865 0.415138,0.41758 0.114228,0.0502 0.250106,0.0295 0.373988,0.0147 0.08336,-0.01 0.177293,-0.12196 0.242262,-0.0688 0.07861,0.0643 -0.02358,0.30379 -0.02358,0.30379"
       id="path19253"
       sodipodi:nodetypes="caaaaac" />
    <path
       style="fill:none;stroke:#00ff00;stroke-width:0.499999;stroke-linecap:round;stroke-linejoin:round;stroke-dasharray:none"
       d="m -68.480304,118.34597 c 0,0 0.105534,-0.14263 0.177227,-0.12876 0.19824,0.0383 0.186806,0.36308 0.321974,0.51308 0.07894,0.0876 0.278528,0.2181 0.278528,0.2181 h -2.557205"
       id="path19255"
       sodipodi:nodetypes="caacc" />
    <path
       style="fill:none;stroke:#00ff00;stroke-width:0.499999;stroke-linecap:round;stroke-linejoin:round;stroke-dasharray:none"
       d="m -78.70618,118.97437 h 7.679194"
       id="path19257" />
  </g>
</svg>
