<?xml version="1.0" encoding="UTF-8" standalone="no"?>
<!-- Created with Inkscape (http://www.inkscape.org/) -->

<svg
   sodipodi:docname="0_color.svg"
   inkscape:version="1.3 (0e150ed6c4, 2023-07-21)"
   id="svg5"
   version="1.1"
   viewBox="0 0 16.02394 7.0418904"
   height="7.0418906mm"
   width="16.023939mm"
   xml:space="preserve"
   xmlns:inkscape="http://www.inkscape.org/namespaces/inkscape"
   xmlns:sodipodi="http://sodipodi.sourceforge.net/DTD/sodipodi-0.dtd"
   xmlns="http://www.w3.org/2000/svg"
   xmlns:svg="http://www.w3.org/2000/svg"><sodipodi:namedview
     id="namedview7"
     pagecolor="#ffffff"
     bordercolor="#666666"
     borderopacity="1.0"
     inkscape:pageshadow="2"
     inkscape:pageopacity="0"
     inkscape:pagecheckerboard="false"
     inkscape:document-units="mm"
     showgrid="false"
     inkscape:zoom="11.262624"
     inkscape:cx="24.106283"
     inkscape:cy="11.054262"
     inkscape:window-width="1920"
     inkscape:window-height="1080"
     inkscape:window-x="0"
     inkscape:window-y="0"
     inkscape:window-maximized="1"
     inkscape:current-layer="g4442"
     inkscape:showpageshadow="2"
     inkscape:deskcolor="#ffffff" /><defs
     id="defs2"><clipPath
   clipPathUnits="userSpaceOnUse"
   id="clipPath4244"><path
     d="m -89.348846,133.47717 17.321,10 17.32,-10 v -20 l -17.32,-10 -17.321,10 v 20"
     class="s1"
     id="path4246"
     style="fill:none;fill-opacity:1;stroke:#000000;stroke-width:0.0999998;stroke-linecap:round;stroke-linejoin:round;stroke-dasharray:none" /></clipPath><sodipodi:namedview
   id="namedview2108"
   pagecolor="#ffffff"
   bordercolor="#666666"
   borderopacity="1.0"
   inkscape:pageshadow="2"
   inkscape:pageopacity="0"
   inkscape:pagecheckerboard="false"
   inkscape:document-units="mm"
   showgrid="false"
   inkscape:zoom="2.2627666"
   inkscape:cx="184.50865"
   inkscape:cy="7.5129269"
   inkscape:window-width="1920"
   inkscape:window-height="1080"
   inkscape:window-x="0"
   inkscape:window-y="0"
   inkscape:window-maximized="1"
   inkscape:current-layer="layer1"
   inkscape:showpageshadow="2"
   inkscape:deskcolor="#ffffff"
   transform="translate(-78.9682, 114.92)" />&#10;  <defs
   id="defs2114"
   transform="translate(-78.9682, 114.92)">&#10;    <clipPath
   clipPathUnits="userSpaceOnUse"
   id="clipPath2112">&#10;      <path
   d="m -89.348846,133.47717 17.321,10 17.32,-10 v -20 l -17.32,-10 -17.321,10 v 20"
   class="s1"
   id="path2110"
   style="fill:none;fill-opacity:1;stroke:#000000;stroke-width:0.0999998;stroke-linecap:round;stroke-linejoin:round;stroke-dasharray:none" />&#10;    </clipPath>&#10;  </defs>&#10;  &#10;&#10;    &#10;    &#10;    &#10;    &#10;    &#10;    &#10;    &#10;    &#10;    &#10;    &#10;  </defs><g
     inkscape:label="Layer 1"
     inkscape:groupmode="layer"
     id="g2139"
     transform="translate(82.656844,-113.20794)"><path
       style="fill:#ffffff;stroke:none;stroke-width:0.499999;stroke-linecap:round;stroke-linejoin:round"
       d="m -77.692638,119.86352 c -1.06581,0.0398 -2.128695,0.3899 -3.188345,0.26877 -0.60752,-0.0695 -1.569735,0.0229 -1.746011,-0.56265 -0.214401,-0.71215 0.775473,-1.32833 1.39286,-1.74302 0.359894,-0.24173 0.935472,-0.0665 1.247674,-0.36734 0.342929,-0.33042 0.101484,-1.0345 0.454119,-1.35454 0.392739,-0.35644 1.02787,-0.4483 1.55042,-0.35755 0.287223,0.0499 0.446358,0.50506 0.736039,0.47235 0.409614,-0.0463 0.508011,-0.67814 0.865614,-0.88319 0.312216,-0.17902 0.741319,-0.0731 1.047246,-0.26272 0.669659,-0.41496 0.784403,-1.55863 1.535348,-1.79677 0.703546,-0.22311 1.535382,0.13165 2.145658,0.54676 0.484823,0.32978 0.777403,0.89676 1.030179,1.42583 0.169866,0.35553 0.04761,0.84704 0.310454,1.14059 0.523691,0.58488 1.532644,0.4367 2.190653,0.8649 0.570139,0.37102 1.263797,0.77885 1.453931,1.43197 0.08166,0.28052 0.01564,0.65351 -0.196775,0.85411 -1.00155,0.94586 -2.697836,0.62747 -4.073711,0.69616 -1.718108,0.0858 -3.429386,-0.29035 -5.148291,-0.35831 -0.535294,-0.0212 -1.071722,-0.0353 -1.607062,-0.0154 z"
       id="path1104"
       sodipodi:nodetypes="aaaaaaaaaaaaaaaaaaaa" /><path
       style="fill:#f2f2f2;fill-opacity:1;stroke:none;stroke-width:0.3;stroke-linecap:round;stroke-linejoin:round;stroke-dasharray:none"
       d="m -68.307838,119.35216 c -0.486576,-0.10817 -0.844082,-0.53053 -1.261197,-0.80342 -0.386783,-0.25305 -0.727557,-0.58799 -1.151043,-0.77318 -0.307678,-0.13454 -0.750345,0.0122 -0.98021,-0.23259 -0.153421,-0.16339 -0.214059,-0.46225 -0.113787,-0.6627 0.124178,-0.24824 0.46412,-0.39512 0.741243,-0.37941 0.552316,0.0313 0.87441,0.69926 1.382404,0.91829 0.443777,0.19134 1.011466,0.0576 1.412348,0.32746 0.496085,0.33399 1.273418,0.91935 1.032962,1.46692 -0.143637,0.32709 -0.713991,0.21615 -1.06272,0.13863 z"
       id="path4281"
       sodipodi:nodetypes="aaaaaaaaaa" /><path
       style="fill:#f2f2f2;stroke:none;stroke-width:0.3;stroke-linecap:round;stroke-linejoin:round;stroke-dasharray:none;fill-opacity:1"
       d="m -80.47178,119.56752 c -0.300223,-0.0152 -0.643394,0.0498 -0.894374,-0.11562 -0.148162,-0.0977 -0.294598,-0.28247 -0.27084,-0.45833 0.05984,-0.44292 0.577918,-0.70679 0.963992,-0.93197 0.261713,-0.15265 0.578154,-0.3331 0.871617,-0.25777 0.361364,0.0928 0.435513,0.67201 0.787691,0.79514 0.65962,0.23061 1.396713,-0.10837 2.081868,-0.24564 0.67392,-0.13502 1.370308,-0.25397 1.982764,-0.56589 0.219854,-0.11197 0.392228,-0.29959 0.582866,-0.45621 0.263611,-0.21658 0.444405,-0.58493 0.775243,-0.66825 0.314356,-0.0792 0.702471,4.2e-4 0.949494,0.21034 0.328274,0.27897 0.187732,0.88316 0.479428,1.20018 0.386425,0.41997 1.243191,0.27257 1.531699,0.76498 0.06668,0.1138 0.07482,0.30236 -0.01883,0.39524 -1.262611,1.25219 -3.553364,0.15017 -5.330614,0.20968 -1.497067,0.0501 -2.996005,0.19969 -4.492004,0.12412 z"
       id="path4194"
       sodipodi:nodetypes="aaaaaaaaaaaaaaaa" /><path
       style="fill:#e5e5e5;fill-opacity:1;stroke:none;stroke-width:0.3;stroke-linecap:round;stroke-linejoin:round;stroke-dasharray:none"
       d="m -72.152422,119.30323 c -0.531053,0.004 -1.095838,0.16123 -1.592991,-0.0255 -0.30115,-0.11311 -0.652842,-0.31301 -0.736519,-0.62363 -0.10399,-0.38603 0.113954,-0.85285 0.402148,-1.12993 0.28244,-0.27155 0.792702,-0.56259 1.122006,-0.35029 0.259524,0.16731 -0.06542,0.66775 0.11359,0.91935 0.20574,0.28916 0.694214,0.22949 0.955442,0.46971 0.206023,0.18945 0.566472,0.47433 0.432184,0.7199 -0.111337,0.2036 -0.463812,0.0189 -0.69586,0.0204 z"
       id="path4356"
       sodipodi:nodetypes="aaaaaaaaa" /><path
       style="fill:#f2f2f2;fill-opacity:1;stroke:none;stroke-width:0.3;stroke-linecap:round;stroke-linejoin:round;stroke-dasharray:none"
       d="m -74.821352,115.66466 c -0.105056,-0.19304 -0.08227,-0.45364 -0.0048,-0.6593 0.210623,-0.55913 0.622549,-1.15867 1.192385,-1.33831 0.523416,-0.16501 1.240791,-0.0341 1.602238,0.3789 0.36519,0.41725 0.56077,1.26694 0.164971,1.65528 -0.24853,0.24384 -0.72443,0.0296 -1.037223,-0.12335 -0.295949,-0.1447 -0.366881,-0.73418 -0.694812,-0.70281 -0.441768,0.0423 -0.304642,1.01876 -0.739555,1.10705 -0.188867,0.0383 -0.39108,-0.14819 -0.483204,-0.31746 z"
       id="path4306"
       sodipodi:nodetypes="aaaaaaaaa" /><g
       id="g4442"><path
         style="fill:none;stroke:#000000;stroke-width:0.1;stroke-linecap:round;stroke-linejoin:round;stroke-dasharray:none"
         d="m -79.690465,119.0087 -1.406011,-0.0252 c 0,0 0.420376,-0.17217 0.581493,-0.32496 0.135064,-0.12809 0.122939,-0.40873 0.297871,-0.47234 0.184752,-0.0672 0.561555,0.18024 0.561555,0.18024"
         id="path2116"
         sodipodi:nodetypes="ccaac" /><path
         style="fill:none;stroke:#000000;stroke-width:0.1;stroke-linecap:round;stroke-linejoin:round;stroke-dasharray:none"
         d="m -78.738398,118.26576 c 0,0 -0.240865,0.0995 -0.335311,0.0384 -0.08623,-0.0558 -0.103774,-0.19145 -0.09342,-0.29363 0.01425,-0.14069 0.171585,-0.23338 0.207089,-0.37026 0.06913,-0.26654 -0.168,-0.60639 -0.002,-0.82608 0.145862,-0.19301 0.464679,-0.25786 0.698686,-0.19646 0.262261,0.0688 0.596375,0.30603 0.574087,0.57625 -0.01272,0.15429 -0.22314,0.25635 -0.37727,0.27087 -0.106721,0.0101 -0.291647,-0.13546 -0.291647,-0.13546"
         id="path2118"
         sodipodi:nodetypes="caaaaaaac" /><path
         style="fill:none;stroke:#000000;stroke-width:0.1;stroke-linecap:round;stroke-linejoin:round;stroke-dasharray:none"
         d="m -77.640322,118.06037 c 0,0 0.368873,0.32563 0.592533,0.31612 0.159733,-0.007 0.322495,-0.12245 0.402478,-0.26088 0.102685,-0.17772 -0.09521,-0.45392 0.03209,-0.61493 0.131316,-0.16609 0.40503,-0.2332 0.609581,-0.17854 0.229869,0.0614 0.52255,0.27945 0.493615,0.51562 -0.02013,0.16433 -0.261808,0.26984 -0.419926,0.26525"
         id="path2120"
         sodipodi:nodetypes="caaaaac" /><path
         style="fill:none;stroke:#000000;stroke-width:0.1;stroke-linecap:round;stroke-linejoin:round;stroke-dasharray:none"
         d="m -75.2989,116.90896 c 0,0 -0.38816,-0.12403 -0.582695,-0.1846 -0.141572,-0.0441 -0.358334,0.002 -0.425369,-0.13012 -0.109711,-0.21645 0.04319,-0.54516 0.239827,-0.68737 0.166962,-0.12075 0.430586,-0.0961 0.618055,-0.0106 0.13031,0.0594 0.164594,0.23933 0.276081,0.32924 0.168708,0.13606 0.362745,0.26099 0.575418,0.30276 0.238648,0.0469 0.516298,0.0525 0.726226,-0.0703 0.119161,-0.0697 0.20415,-0.20563 0.236821,-0.33976 0.04784,-0.19639 -0.07913,-0.6012 -0.07913,-0.6012"
         id="path2122"
         sodipodi:nodetypes="caaaaaaaac" /><path
         style="fill:none;stroke:#000000;stroke-width:0.1;stroke-linecap:round;stroke-linejoin:round;stroke-dasharray:none"
         d="m -74.374078,115.60526 c 0,0 -0.04399,-0.32609 0.01369,-0.47284 0.136962,-0.3485 0.392956,-0.70567 0.740694,-0.84455 0.367429,-0.14675 0.843128,-0.0964 1.182054,0.1077 0.515593,0.31053 0.933967,0.9132 0.98572,1.51286 0.01788,0.20718 -0.07336,0.45736 -0.245979,0.57332 -0.141932,0.0953 -0.379517,0.11601 -0.512871,0.009 -0.14608,-0.11723 -0.07822,-0.3664 -0.112039,-0.55062 -0.02874,-0.15655 -0.0015,-0.3312 -0.07719,-0.47123 -0.120265,-0.22254 -0.559255,-0.51298 -0.559255,-0.51298"
         id="path2124"
         sodipodi:nodetypes="caaaaaaaac" /><path
         style="fill:none;stroke:#000000;stroke-width:0.1;stroke-linecap:round;stroke-linejoin:round;stroke-dasharray:none"
         d="m -74.03288,118.33112 c 0,0 -0.2954,0.0167 -0.385853,-0.0784 -0.09965,-0.10473 -0.13972,-0.30512 -0.06494,-0.42887 0.130129,-0.21534 0.566473,-0.0426 0.713265,-0.24699 0.09003,-0.12534 -0.112672,-0.36182 0.0039,-0.46294 0.200115,-0.17358 0.599654,-0.081 0.787696,0.10564 0.115618,0.11467 0.146077,0.34047 0.06866,0.48376 -0.0673,0.12458 -0.332548,0.0489 -0.384452,0.18061 -0.04224,0.10719 0.03752,0.25015 0.128477,0.32085 0.153627,0.1194 0.578681,0.0766 0.578681,0.0766"
         id="path2126"
         sodipodi:nodetypes="caaaaaaaac" /><path
         style="fill:none;stroke:#000000;stroke-width:0.1;stroke-linecap:round;stroke-linejoin:round;stroke-dasharray:none"
         d="m -72.11198,117.22165 c 0.05357,0.006 0.262159,0.0439 0.388064,0.0139 0.215752,-0.0515 0.363664,-0.35681 0.582633,-0.32144 0.162396,0.0262 0.336043,0.1978 0.335084,0.3623 -0.0012,0.2049 -0.322829,0.26742 -0.422616,0.44639 -0.05028,0.0902 -0.09901,0.19801 -0.0794,0.29937 0.02024,0.10462 0.08934,0.22511 0.191286,0.25612 0.08246,0.0251 0.189704,-0.0189 0.243905,-0.0859"
         id="path2128"
         sodipodi:nodetypes="caaaaaac" /><path
         style="fill:none;stroke:#000000;stroke-width:0.1;stroke-linecap:round;stroke-linejoin:round;stroke-dasharray:none"
         d="m -70.263706,118.21909 c -0.07885,-0.10107 -0.09196,-0.25731 -0.0481,-0.37571 0.04513,-0.12183 0.159534,-0.2646 0.289406,-0.26107 0.196201,0.005 0.235432,0.33865 0.415138,0.41758 0.114228,0.0502 0.250106,0.0295 0.373988,0.0147 0.08336,-0.01 0.177293,-0.12196 0.242262,-0.0688 0.07861,0.0643 -0.02358,0.30379 -0.02358,0.30379"
         id="path2130"
         sodipodi:nodetypes="caaaaac" /><path
         style="fill:none;stroke:#000000;stroke-width:0.1;stroke-linecap:round;stroke-linejoin:round;stroke-dasharray:none"
         d="m -68.480304,118.34597 c 0,0 0.105534,-0.14263 0.177227,-0.12876 0.19824,0.0383 0.186806,0.36308 0.321974,0.51308 0.07894,0.0876 0.278528,0.2181 0.278528,0.2181 h -2.557205"
         id="path2132"
         sodipodi:nodetypes="caacc" /><path
         style="fill:none;stroke:#000000;stroke-width:0.1;stroke-linecap:round;stroke-linejoin:round;stroke-dasharray:none"
         d="m -78.70618,118.97437 h 7.679194"
         id="path2134" /></g></g></svg>
