<?xml version="1.0" encoding="UTF-8" standalone="no"?>
<!-- Created with Inkscape (http://www.inkscape.org/) -->

<svg
   sodipodi:docname="1.svg"
   inkscape:version="1.2.2 (b0a8486541, 2022-12-01)"
   id="svg5"
   version="1.1"
   viewBox="0 0 13.337936 4.8258394"
   height="4.8258395mm"
   width="13.337934mm"
   xmlns:inkscape="http://www.inkscape.org/namespaces/inkscape"
   xmlns:sodipodi="http://sodipodi.sourceforge.net/DTD/sodipodi-0.dtd"
   xmlns="http://www.w3.org/2000/svg"
   xmlns:svg="http://www.w3.org/2000/svg">
  <sodipodi:namedview
     id="namedview7"
     pagecolor="#ffffff"
     bordercolor="#666666"
     borderopacity="1.0"
     inkscape:pageshadow="2"
     inkscape:pageopacity="0"
     inkscape:pagecheckerboard="false"
     inkscape:document-units="mm"
     showgrid="false"
     inkscape:zoom="6.4000704"
     inkscape:cx="-10.234262"
     inkscape:cy="-1.4062345"
     inkscape:window-width="1920"
     inkscape:window-height="1080"
     inkscape:window-x="0"
     inkscape:window-y="0"
     inkscape:window-maximized="1"
     inkscape:current-layer="layer1"
     inkscape:showpageshadow="2"
     inkscape:deskcolor="#ffffff" />
  <defs
     id="defs2">
    <clipPath
       clipPathUnits="userSpaceOnUse"
       id="clipPath4244">
      <path
         d="m -89.348846,133.47717 17.321,10 17.32,-10 v -20 l -17.32,-10 -17.321,10 v 20"
         class="s1"
         id="path4246"
         style="fill:none;fill-opacity:1;stroke:#000000;stroke-width:0.0999998;stroke-linecap:round;stroke-linejoin:round;stroke-dasharray:none" />
    </clipPath>
  </defs>
  <g
     inkscape:label="Layer 1"
     inkscape:groupmode="layer"
     id="layer1"
     transform="translate(87.808702,-113.49281)">
    <path
       style="fill:none;stroke:#00ff00;stroke-width:0.499999;stroke-linecap:round;stroke-linejoin:round"
       d="m -80.798325,118.06865 h -6.760595 c 0,0 0.535408,-0.111 0.682708,-0.31351 0.09203,-0.12653 -0.03386,-0.33737 0.05498,-0.46616 0.120541,-0.17475 0.354435,-0.32324 0.56475,-0.29437 0.115696,0.0159 0.212139,0.13125 0.255535,0.23967 0.02241,0.056 -0.01012,0.18065 -0.01012,0.18065"
       id="path19466"
       sodipodi:nodetypes="ccaaaac" />
    <path
       style="fill:none;stroke:#00ff00;stroke-width:0.499999;stroke-linecap:round;stroke-linejoin:round"
       d="m -85.406667,117.48045 c 0,0 0.167213,-0.20109 0.21944,-0.31916 0.08131,-0.18383 -0.04517,-0.5039 0.137823,-0.58707 0.186954,-0.085 0.38509,0.15879 0.544454,0.28831 0.08642,0.0702 0.1035,0.23903 0.213392,0.25704 0.194115,0.0318 0.453834,-0.11928 0.502157,-0.30996 0.0778,-0.30699 -0.413563,-0.51283 -0.47322,-0.82386 -0.04848,-0.25275 0.01298,-0.5257 0.109548,-0.76425 0.07951,-0.19642 0.181103,-0.42482 0.37294,-0.51483 0.179541,-0.0842 0.420193,-0.0566 0.593656,0.0395 0.219218,0.1215 0.410705,0.36082 0.439976,0.60974 0.01879,0.15981 -0.03728,0.38016 -0.183959,0.44632 -0.185013,0.0834 -0.575569,-0.19867 -0.575569,-0.19867"
       id="path19468"
       sodipodi:nodetypes="caaaaaaaaaaac" />
    <path
       style="fill:none;stroke:#00ff00;stroke-width:0.499999;stroke-linecap:round;stroke-linejoin:round"
       d="m -81.802034,114.76401 c 0,0 -0.260595,0.0551 -0.371529,0 -0.18354,-0.0911 -0.388887,-0.28536 -0.371754,-0.48954 0.01892,-0.22545 0.281249,-0.38993 0.494825,-0.46458 0.343374,-0.12002 0.75779,-0.0647 1.087624,0.0887 0.373502,0.17367 0.982523,0.48061 0.870546,0.877 -0.06898,0.24418 -0.657288,-0.0602 -0.739676,0.1798 -0.04559,0.13281 0.261913,0.32994 0.261913,0.32994"
       id="path19470"
       sodipodi:nodetypes="caaaaaac" />
    <path
       style="fill:none;stroke:#00ff00;stroke-width:0.499999;stroke-linecap:round;stroke-linejoin:round"
       d="m -81.314759,115.71703 c 0,0 0.410667,0.0296 0.549241,0.16072 0.07606,0.072 0.01597,0.24066 0.104784,0.2961 0.346556,0.21632 0.854834,-0.32815 1.217542,-0.14017 0.13567,0.0703 0.238804,0.25073 0.219722,0.40234 -0.01919,0.15251 -0.314417,0.33733 -0.314417,0.33733"
       id="path19472"
       sodipodi:nodetypes="caaaac" />
    <path
       style="fill:none;stroke:#00ff00;stroke-width:0.499999;stroke-linecap:round;stroke-linejoin:round"
       d="m -78.90032,117.23112 c 0,0 0.0988,-0.36798 0.250055,-0.38053 0.222401,-0.0185 0.232166,0.4763 0.454828,0.49128 0.191158,0.0129 0.252392,-0.35158 0.443464,-0.36565 0.09023,-0.007 0.186068,0.0624 0.232455,0.14012 0.06046,0.10124 0.0171,0.35333 0.0171,0.35333"
       id="path19474"
       sodipodi:nodetypes="caaaac" />
    <path
       style="fill:none;stroke:#00ff00;stroke-width:0.499999;stroke-linecap:round;stroke-linejoin:round"
       d="m -76.915138,117.5018 c 0,0 0.06387,-0.35962 0.207514,-0.42344 0.170687,-0.0758 0.378747,0.0578 0.538682,0.15425 0.164862,0.0994 0.239948,0.30948 0.399654,0.41701 0.312049,0.2101 1.048677,0.41706 1.048677,0.41706 h -1.966093"
       id="path19476"
       sodipodi:nodetypes="caaacc" />
    <path
       style="fill:none;stroke:#00ff00;stroke-width:0.499999;stroke-linecap:round;stroke-linejoin:round"
       d="m -77.600187,118.06471 h -2.197251"
       id="path19478"
       sodipodi:nodetypes="cc" />
    <path
       style="fill:none;stroke:#00ff00;stroke-width:0.499999;stroke-linecap:round;stroke-linejoin:round"
       d="m -82.395136,116.34467 c 0,0 -0.04674,0.2113 -0.116054,0.28828 -0.11361,0.12617 -0.422972,0.0709 -0.450038,0.23854 -0.02474,0.15318 0.321773,0.33638 0.321773,0.33638"
       id="path19480"
       sodipodi:nodetypes="caac" />
    <path
       style="fill:none;stroke:#00ff00;stroke-width:0.499999;stroke-linecap:round;stroke-linejoin:round"
       d="m -81.978296,117.42503 c 0,0 0.09333,-0.21765 0.153546,-0.31921 0.06947,-0.11716 0.107965,-0.29189 0.238107,-0.33209 0.137877,-0.0426 0.341904,0.0193 0.406738,0.14826 0.06134,0.12198 -0.188852,0.27656 -0.116865,0.39258 0.08904,0.1435 0.349896,0.16488 0.499274,0.0861 0.08144,-0.0429 0.03095,-0.21354 0.114989,-0.25116 0.08036,-0.036 0.252338,0.078 0.252338,0.078"
       id="path19482"
       sodipodi:nodetypes="caaaaaac" />
  </g>
</svg>
