<?xml version="1.0" encoding="UTF-8" standalone="no"?>
<!-- Created with Inkscape (http://www.inkscape.org/) -->

<svg
   sodipodi:docname="1_color.svg"
   inkscape:version="1.3 (0e150ed6c4, 2023-07-21)"
   id="svg5"
   version="1.1"
   viewBox="0 0 15.261519 6.4996455"
   height="6.4996457mm"
   width="15.261517mm"
   xmlns:inkscape="http://www.inkscape.org/namespaces/inkscape"
   xmlns:sodipodi="http://sodipodi.sourceforge.net/DTD/sodipodi-0.dtd"
   xmlns="http://www.w3.org/2000/svg"
   xmlns:svg="http://www.w3.org/2000/svg">
  <sodipodi:namedview
     id="namedview7"
     pagecolor="#ffffff"
     bordercolor="#666666"
     borderopacity="1.0"
     inkscape:pageshadow="2"
     inkscape:pageopacity="0"
     inkscape:pagecheckerboard="false"
     inkscape:document-units="mm"
     showgrid="false"
     inkscape:zoom="45.050496"
     inkscape:cx="13.573657"
     inkscape:cy="23.895408"
     inkscape:window-width="1920"
     inkscape:window-height="1080"
     inkscape:window-x="0"
     inkscape:window-y="0"
     inkscape:window-maximized="1"
     inkscape:current-layer="layer1"
     inkscape:showpageshadow="2"
     inkscape:deskcolor="#ffffff" />
  <defs
     id="defs2">
    <clipPath
       clipPathUnits="userSpaceOnUse"
       id="clipPath4244">
      <path
         d="m -89.348846,133.47717 17.321,10 17.32,-10 v -20 l -17.32,-10 -17.321,10 v 20"
         class="s1"
         id="path4246"
         style="fill:none;fill-opacity:1;stroke:#000000;stroke-width:0.0999998;stroke-linecap:round;stroke-linejoin:round;stroke-dasharray:none" />
    </clipPath>
  </defs>
  <g
     inkscape:label="Layer 1"
     inkscape:groupmode="layer"
     id="layer1"
     transform="translate(88.819585,-112.76935)">
    <path
       style="fill:#ffffff;fill-opacity:1;stroke:none;stroke-width:0.2;stroke-linecap:round;stroke-linejoin:round;stroke-dasharray:none"
       d="m -85.448278,119.21094 c -0.738705,0.0908 -1.516935,0.0926 -2.22944,-0.12247 -0.392296,-0.11843 -0.891437,-0.24947 -1.059747,-0.62309 -0.158103,-0.35097 -0.08979,-0.90661 0.221232,-1.13341 0.191891,-0.13993 0.492061,0.18368 0.707531,0.0838 0.427628,-0.19822 0.366332,-0.9542 0.780598,-1.17901 0.369097,-0.2003 0.847026,0.0668 1.25978,-0.0106 0.21396,-0.0401 0.460905,-0.0734 0.610697,-0.23137 0.345863,-0.36471 0.151545,-1.03858 0.458737,-1.4364 0.209954,-0.2719 0.591391,-0.35138 0.870505,-0.55164 0.519347,-0.37263 0.863671,-1.08396 1.491181,-1.20562 0.773744,-0.15002 1.604063,0.25629 2.261019,0.69171 0.356479,0.23627 0.678574,0.58142 0.823642,0.98373 0.0968,0.26844 -0.130645,0.60025 -0.0042,0.85606 0.208628,0.42208 0.698466,0.65587 1.126364,0.85228 0.62913,0.28878 1.382173,0.19442 2.029837,0.43882 0.581998,0.21962 1.051979,0.67866 1.629816,0.90901 0.28027,0.11173 0.763618,-0.0557 0.87704,0.22385 0.172427,0.42504 -0.315916,0.95484 -0.71938,1.17302 -1.324547,0.71628 -3.010712,-0.18686 -4.515527,-0.13192 -1.369351,0.05 -2.721314,0.49752 -4.089346,0.41934 -0.507627,-0.029 -0.981789,-0.34859 -1.489804,-0.32745 -0.362696,0.0151 -0.680238,0.27706 -1.040535,0.32136 z"
       id="path5230"
       sodipodi:nodetypes="aaaaaaaaaaaaaaaaaaaaaaa" />
    <path
       id="path5295"
       style="fill:#f2f2f2;fill-opacity:1;stroke:none;stroke-width:0.2;stroke-linecap:round;stroke-linejoin:round;stroke-dasharray:none"
       d="m -81.779096,113.23805 c -0.388657,0.006 -0.753459,0.25091 -1.07487,0.47232 -0.340252,0.23439 -0.733145,0.4999 -0.858862,0.89348 -0.0549,0.17187 -0.0347,0.39576 0.07958,0.53537 0.122316,0.1494 0.35225,0.18007 0.544669,0.19637 0.402438,0.0341 0.789349,-0.23464 1.192692,-0.21394 0.55596,0.0286 1.102308,0.70102 1.60507,0.46199 0.251448,-0.11955 0.334429,-0.49009 0.327629,-0.76843 -0.0085,-0.34733 -0.209399,-0.69194 -0.455269,-0.93741 -0.346605,-0.34604 -0.833294,-0.62775 -1.322917,-0.63975 -0.01259,-3.1e-4 -0.02519,-2e-4 -0.03772,0 z m -0.385506,2.73833 c -0.03708,10e-4 -0.07399,0.005 -0.111104,0.0114 -0.401793,0.069 -0.731925,0.40454 -0.986503,0.72295 -0.153771,0.19233 -0.09681,0.53145 -0.295073,0.67748 -0.352484,0.25962 -0.887699,0.27436 -1.305347,0.14314 -0.341085,-0.10717 -0.471238,-0.585 -0.807702,-0.7059 -0.381573,-0.1371 -0.863048,-0.16502 -1.215947,0.0346 -0.249918,0.14139 -0.253184,0.5312 -0.464571,0.72553 -0.185585,0.17061 -0.600903,0.11014 -0.668693,0.35295 -0.06194,0.22185 0.161063,0.46961 0.356051,0.59222 0.560056,0.35217 1.316,0.22806 1.976107,0.18396 0.587042,-0.0392 1.131579,-0.38304 1.719791,-0.39584 0.638747,-0.0139 1.248216,0.39778 1.885156,0.34778 0.741848,-0.0582 1.670838,-0.13809 2.104782,-0.74259 0.156388,-0.21785 0.135287,-0.56677 0.01137,-0.8046 -0.215076,-0.41278 -0.73523,-0.58437 -1.155485,-0.78445 -0.328709,-0.1565 -0.684362,-0.37051 -1.04283,-0.35863 z m 3.395142,0.2744 c -0.07307,5.3e-4 -0.142956,0.0176 -0.208256,0.0589 -0.26825,0.16978 -0.346825,0.61969 -0.244947,0.92036 0.07447,0.21978 0.380864,0.26791 0.551388,0.4253 0.224805,0.20749 0.342421,0.54469 0.617016,0.67954 0.378182,0.1857 0.839083,0.079 1.259872,0.10025 0.617339,0.0311 1.26565,0.22835 1.85415,0.0393 0.26372,-0.0847 0.681206,-0.22163 0.665076,-0.49816 -0.0272,-0.46623 -0.806965,-0.47012 -1.211296,-0.70384 -0.309776,-0.17906 -0.593129,-0.41621 -0.930692,-0.53485 -0.48317,-0.16984 -1.013334,-0.14994 -1.518254,-0.23564 -0.272108,-0.0462 -0.573094,-0.25305 -0.834057,-0.25115 z" />
    <path
       id="path5364"
       style="fill:#e5e5e5;fill-opacity:1;stroke:none;stroke-width:0.2;stroke-linecap:round;stroke-linejoin:round;stroke-dasharray:none"
       d="m -81.772378,116.8678 c -0.05224,3e-5 -0.104087,0.003 -0.154512,0.009 -0.252404,0.0289 -0.540098,0.14407 -0.670244,0.36225 -0.08492,0.14237 0.05885,0.34267 0,0.49765 -0.06868,0.18086 -0.456116,0.25397 -0.385506,0.43408 0.16076,0.41008 0.88134,0.20539 1.315165,0.12919 0.351713,-0.0618 0.837881,-0.12901 0.966866,-0.46199 0.09146,-0.23612 -0.09692,-0.5352 -0.286287,-0.70331 -0.204957,-0.18193 -0.503377,-0.26684 -0.785482,-0.26665 z m 4.329968,0.70796 c -0.117064,10e-4 -0.215864,0.0352 -0.272334,0.13126 -0.09829,0.16725 0.150059,0.36883 0.286804,0.50643 0.177152,0.17826 0.413253,0.30259 0.653707,0.37569 0.253515,0.077 0.527993,0.0656 0.792716,0.0543 0.279731,-0.012 0.712722,0.12537 0.83044,-0.12867 0.06299,-0.13594 -0.108549,-0.30193 -0.234611,-0.38293 -0.258751,-0.16615 -0.624897,-0.0126 -0.916223,-0.1111 -0.191026,-0.0646 -0.327052,-0.25274 -0.521415,-0.30644 -0.179043,-0.0495 -0.423977,-0.14018 -0.619084,-0.1385 z" />
    <path
       style="fill:none;stroke:#000000;stroke-width:0.1;stroke-linecap:round;stroke-linejoin:round;stroke-dasharray:none"
       d="m -80.798325,118.06865 h -6.760595 c 0,0 0.535408,-0.111 0.682708,-0.31351 0.09203,-0.12653 -0.03386,-0.33737 0.05498,-0.46616 0.120541,-0.17475 0.354435,-0.32324 0.56475,-0.29437 0.115696,0.0159 0.212139,0.13125 0.255535,0.23967 0.02241,0.056 -0.01012,0.18065 -0.01012,0.18065"
       id="path19466"
       sodipodi:nodetypes="ccaaaac" />
    <path
       style="fill:none;stroke:#000000;stroke-width:0.1;stroke-linecap:round;stroke-linejoin:round;stroke-dasharray:none"
       d="m -85.406667,117.48045 c 0,0 0.167213,-0.20109 0.21944,-0.31916 0.08131,-0.18383 -0.04517,-0.5039 0.137823,-0.58707 0.186954,-0.085 0.38509,0.15879 0.544454,0.28831 0.08642,0.0702 0.1035,0.23903 0.213392,0.25704 0.194115,0.0318 0.453834,-0.11928 0.502157,-0.30996 0.0778,-0.30699 -0.413563,-0.51283 -0.47322,-0.82386 -0.04848,-0.25275 0.01298,-0.5257 0.109548,-0.76425 0.07951,-0.19642 0.181103,-0.42482 0.37294,-0.51483 0.179541,-0.0842 0.420193,-0.0566 0.593656,0.0395 0.219218,0.1215 0.410705,0.36082 0.439976,0.60974 0.01879,0.15981 -0.03728,0.38016 -0.183959,0.44632 -0.185013,0.0834 -0.575569,-0.19867 -0.575569,-0.19867"
       id="path19468"
       sodipodi:nodetypes="caaaaaaaaaaac" />
    <path
       style="fill:none;stroke:#000000;stroke-width:0.1;stroke-linecap:round;stroke-linejoin:round;stroke-dasharray:none"
       d="m -81.802034,114.76401 c 0,0 -0.260595,0.0551 -0.371529,0 -0.18354,-0.0911 -0.388887,-0.28536 -0.371754,-0.48954 0.01892,-0.22545 0.281249,-0.38993 0.494825,-0.46458 0.343374,-0.12002 0.75779,-0.0647 1.087624,0.0887 0.373502,0.17367 0.982523,0.48061 0.870546,0.877 -0.06898,0.24418 -0.657288,-0.0602 -0.739676,0.1798 -0.04559,0.13281 0.261913,0.32994 0.261913,0.32994"
       id="path19470"
       sodipodi:nodetypes="caaaaaac" />
    <path
       style="fill:none;stroke:#000000;stroke-width:0.1;stroke-linecap:round;stroke-linejoin:round;stroke-dasharray:none"
       d="m -81.314759,115.71703 c 0,0 0.410667,0.0296 0.549241,0.16072 0.07606,0.072 0.01597,0.24066 0.104784,0.2961 0.346556,0.21632 0.854834,-0.32815 1.217542,-0.14017 0.13567,0.0703 0.238804,0.25073 0.219722,0.40234 -0.01919,0.15251 -0.314417,0.33733 -0.314417,0.33733"
       id="path19472"
       sodipodi:nodetypes="caaaac" />
    <path
       style="fill:none;stroke:#000000;stroke-width:0.1;stroke-linecap:round;stroke-linejoin:round;stroke-dasharray:none"
       d="m -78.90032,117.23112 c 0,0 0.0988,-0.36798 0.250055,-0.38053 0.222401,-0.0185 0.232166,0.4763 0.454828,0.49128 0.191158,0.0129 0.252392,-0.35158 0.443464,-0.36565 0.09023,-0.007 0.186068,0.0624 0.232455,0.14012 0.06046,0.10124 0.0171,0.35333 0.0171,0.35333"
       id="path19474"
       sodipodi:nodetypes="caaaac" />
    <path
       style="fill:none;stroke:#000000;stroke-width:0.1;stroke-linecap:round;stroke-linejoin:round;stroke-dasharray:none"
       d="m -76.915138,117.5018 c 0,0 0.06387,-0.35962 0.207514,-0.42344 0.170687,-0.0758 0.378747,0.0578 0.538682,0.15425 0.164862,0.0994 0.239948,0.30948 0.399654,0.41701 0.312049,0.2101 1.048677,0.41706 1.048677,0.41706 h -1.966093"
       id="path19476"
       sodipodi:nodetypes="caaacc" />
    <path
       style="fill:none;stroke:#000000;stroke-width:0.1;stroke-linecap:round;stroke-linejoin:round;stroke-dasharray:none"
       d="m -77.600187,118.06471 h -2.197251"
       id="path19478"
       sodipodi:nodetypes="cc" />
    <path
       style="fill:none;stroke:#000000;stroke-width:0.1;stroke-linecap:round;stroke-linejoin:round;stroke-dasharray:none"
       d="m -82.395136,116.34467 c 0,0 -0.04674,0.2113 -0.116054,0.28828 -0.11361,0.12617 -0.422972,0.0709 -0.450038,0.23854 -0.02474,0.15318 0.321773,0.33638 0.321773,0.33638"
       id="path19480"
       sodipodi:nodetypes="caac" />
    <path
       style="fill:none;stroke:#000000;stroke-width:0.1;stroke-linecap:round;stroke-linejoin:round;stroke-dasharray:none"
       d="m -81.978296,117.42503 c 0,0 0.09333,-0.21765 0.153546,-0.31921 0.06947,-0.11716 0.107965,-0.29189 0.238107,-0.33209 0.137877,-0.0426 0.341904,0.0193 0.406738,0.14826 0.06134,0.12198 -0.188852,0.27656 -0.116865,0.39258 0.08904,0.1435 0.349896,0.16488 0.499274,0.0861 0.08144,-0.0429 0.03095,-0.21354 0.114989,-0.25116 0.08036,-0.036 0.252338,0.078 0.252338,0.078"
       id="path19482"
       sodipodi:nodetypes="caaaaaac" />
  </g>
</svg>
