<?xml version="1.0" encoding="UTF-8" standalone="no"?>
<!-- Created with Inkscape (http://www.inkscape.org/) -->

<svg
   sodipodi:docname="2.svg"
   inkscape:version="1.2.2 (b0a8486541, 2022-12-01)"
   id="svg5"
   version="1.1"
   viewBox="0 0 14.773637 6.1672611"
   height="6.1672611mm"
   width="14.773637mm"
   xml:space="preserve"
   xmlns:inkscape="http://www.inkscape.org/namespaces/inkscape"
   xmlns:sodipodi="http://sodipodi.sourceforge.net/DTD/sodipodi-0.dtd"
   xmlns="http://www.w3.org/2000/svg"
   xmlns:svg="http://www.w3.org/2000/svg"><sodipodi:namedview
     id="namedview7"
     pagecolor="#ffffff"
     bordercolor="#666666"
     borderopacity="1.0"
     inkscape:pageshadow="2"
     inkscape:pageopacity="0"
     inkscape:pagecheckerboard="false"
     inkscape:document-units="mm"
     showgrid="false"
     inkscape:zoom="1.1313833"
     inkscape:cx="145.83917"
     inkscape:cy="-188.26511"
     inkscape:window-width="956"
     inkscape:window-height="1037"
     inkscape:window-x="960"
     inkscape:window-y="0"
     inkscape:window-maximized="1"
     inkscape:current-layer="layer1"
     inkscape:showpageshadow="2"
     inkscape:deskcolor="#ffffff" /><defs
     id="defs2"><clipPath
       clipPathUnits="userSpaceOnUse"
       id="clipPath4244"><path
         d="m -89.348846,133.47717 17.321,10 17.32,-10 v -20 l -17.32,-10 -17.321,10 v 20"
         class="s1"
         id="path4246"
         style="fill:none;fill-opacity:1;stroke:#000000;stroke-width:0.0999998;stroke-linecap:round;stroke-linejoin:round;stroke-dasharray:none" /></clipPath></defs><g
     inkscape:label="Layer 1"
     inkscape:groupmode="layer"
     id="layer1"
     transform="translate(83.516041,-114.71799)"><g
       id="g8556"
       inkscape:label="cloud_left"
       style="stroke:#0000ff;stroke-width:1.18476"
       transform="matrix(0.84568358,0,0,0.84242825,-7.3291008,24.139979)"><g
         id="g6899"
         transform="translate(1.2231486,-0.6231379)"
         style="stroke:#0000ff;stroke-width:1.18476" /></g><path
       style="fill:none;stroke:#00ff00;stroke-width:0.499999;stroke-linecap:round;stroke-linejoin:round"
       d="m -80.849598,120.59285 h -2.41667 c 0,0 0.695572,-0.13911 0.987338,-0.32623 0.15882,-0.10185 0.226127,-0.31352 0.38558,-0.41438 0.149957,-0.0948 0.335697,-0.20508 0.507486,-0.16067 0.142797,0.0369 0.304246,0.32128 0.304246,0.32128"
       id="path19709"
       sodipodi:nodetypes="ccaaac" /><path
       style="fill:none;stroke:#00ff00;stroke-width:0.499999;stroke-linecap:round;stroke-linejoin:round"
       d="m -80.225857,120.12872 c 0,0 -0.292394,-0.1974 -0.261052,-0.33562 0.0368,-0.1623 0.280431,-0.23371 0.446528,-0.22333 0.245014,0.0153 0.368035,0.38715 0.612566,0.40885 0.160469,0.0142 0.373674,-0.0479 0.442951,-0.19332 0.09802,-0.2058 -0.199739,-0.43173 -0.182564,-0.65903 0.01168,-0.15455 0.05351,-0.35102 0.19005,-0.42435 0.110016,-0.0591 0.277285,-0.0229 0.369602,0.0612 0.149549,0.13623 0.154376,0.58692 0.154376,0.58692"
       id="path19711"
       sodipodi:nodetypes="caaaaaaac" /><path
       style="fill:none;stroke:#00ff00;stroke-width:0.499999;stroke-linecap:round;stroke-linejoin:round"
       d="m -77.111656,119.05169 c 0,0 -0.4459,0.25014 -0.604878,0.11985 -0.119351,-0.0978 0.06573,-0.32378 -9.79e-4,-0.46293 -0.12112,-0.25265 -0.410812,-0.38897 -0.654193,-0.52778 -0.115404,-0.0658 -0.29429,-0.0328 -0.373323,-0.13958 -0.135898,-0.18363 -0.123683,-0.47073 -0.04194,-0.68405 0.02569,-0.0671 0.153488,-0.15114 0.153488,-0.15114"
       id="path19713"
       sodipodi:nodetypes="caaaaac" /><path
       style="fill:none;stroke:#00ff00;stroke-width:0.499999;stroke-linecap:round;stroke-linejoin:round"
       d="m -78.117824,117.61421 c 0,0 0.294214,-0.11406 0.415512,-0.0455 0.130416,0.0737 0.284338,0.29282 0.188509,0.40797"
       id="path19715"
       sodipodi:nodetypes="cac" /><path
       style="fill:none;stroke:#00ff00;stroke-width:0.499999;stroke-linecap:round;stroke-linejoin:round"
       d="m -77.325509,116.99252 c 0,0 -0.304131,0.066 -0.451973,0.0348 -0.127225,-0.0269 -0.278169,-0.0723 -0.343614,-0.18467 -0.06173,-0.10599 -0.06869,-0.27248 0.0084,-0.36788 0.09908,-0.12262 0.303559,-0.0904 0.460005,-0.10982 0.15959,-0.0198 0.323241,0.017 0.4824,-0.006 0.16625,-0.024 0.385412,-10e-4 0.485051,-0.13665 0.105531,-0.14323 -0.03116,-0.35647 -0.01399,-0.53355 0.0165,-0.17021 0.0043,-0.36764 0.111719,-0.5007 0.106859,-0.13237 0.295195,-0.18871 0.463472,-0.21368 0.191648,-0.0284 0.575763,0.0796 0.575763,0.0796"
       id="path19719"
       sodipodi:nodetypes="caaaaaaaaac" /><path
       style="fill:none;stroke:#00ff00;stroke-width:0.499999;stroke-linecap:round;stroke-linejoin:round"
       d="m -76.110278,115.95702 c 0.342461,0.0516 -0.08245,-0.57082 0.290706,-0.45412"
       id="path19721"
       sodipodi:nodetypes="caac" /><path
       style="fill:none;stroke:#00ff00;stroke-width:0.499999;stroke-linecap:round;stroke-linejoin:round"
       d="m -75.291325,115.64277 c 0,0 0.169341,-0.075 0.223058,-0.14566 0.06455,-0.085 -0.0086,-0.28802 0.09674,-0.30516 0.306012,-0.0498 0.415999,0.47107 0.547754,0.75172 0.118202,0.25178 0.235197,0.53238 0.204935,0.80888 -0.01856,0.16959 -0.06756,0.40519 -0.230041,0.4572 -0.09965,0.0319 -0.186304,-0.0954 -0.277682,-0.14638 -0.08437,-0.0471 -0.153136,-0.14379 -0.249684,-0.14715 -0.139082,-0.005 -0.243167,0.23519 -0.373532,0.18649 -0.127056,-0.0475 -0.155702,-0.37593 -0.155702,-0.37593"
       id="path19723"
       sodipodi:nodetypes="caaaaaaaac" /><path
       style="fill:none;stroke:#00ff00;stroke-width:0.499999;stroke-linecap:round;stroke-linejoin:round"
       d="m -75.141923,117.69644 c 0,0 -0.01346,0.3024 0.09657,0.36037 0.207898,0.10953 0.431245,-0.26048 0.664797,-0.23455 0.106311,0.0118 0.164955,0.16613 0.271828,0.17053 0.295149,0.0122 0.491845,-0.39299 0.786881,-0.40763 0.207864,-0.0103 0.489373,0.0436 0.580098,0.23089 0.12194,0.25175 -0.04308,0.60536 -0.239857,0.80417 -0.235606,0.23805 -0.722842,0.0605 -0.959856,0.29711 -0.09587,0.0957 -0.161222,0.25876 -0.120773,0.38805 0.06794,0.21715 0.312296,0.39212 0.538115,0.41993 0.170008,0.0209 0.469728,-0.20839 0.469728,-0.20839"
       id="path19725"
       sodipodi:nodetypes="caaaaaaaaac" /><path
       style="fill:none;stroke:#00ff00;stroke-width:0.499999;stroke-linecap:round;stroke-linejoin:round"
       d="m -76.908752,120.00498 c 0,0 0.414784,0.0113 0.524579,-0.13169 0.102703,-0.13376 -0.09795,-0.3634 -0.0077,-0.50586 0.08305,-0.13109 0.301384,-0.0972 0.423911,-0.19245 0.121133,-0.0941 0.143311,-0.30762 0.287814,-0.35916 0.23226,-0.0828 0.563337,-0.0332 0.723501,0.15427 0.177586,0.20789 0.169857,0.57655 0.04361,0.81907 -0.0785,0.15079 -0.267575,0.31022 -0.432716,0.26989 -0.142316,-0.0348 -0.223711,-0.3783 -0.223711,-0.3783"
       id="path19727"
       sodipodi:nodetypes="caaaaaaac" /><path
       style="fill:none;stroke:#00ff00;stroke-width:0.499999;stroke-linecap:round;stroke-linejoin:round"
       d="m -72.529626,119.08322 c 0,0 0.17838,-0.16966 0.291585,-0.1748 0.146294,-0.007 0.316727,0.0675 0.395739,0.1908 0.07322,0.11425 0.09082,0.29998 0.0074,0.40704 -0.07232,0.0928 -0.245549,0.0154 -0.343848,0.0801 -0.07205,0.0474 -0.153588,0.20829 -0.153588,0.20829"
       id="path19729"
       sodipodi:nodetypes="caaaac" /><path
       style="fill:none;stroke:#00ff00;stroke-width:0.499999;stroke-linecap:round;stroke-linejoin:round"
       d="m -71.32411,119.87566 c 0,0 0.27822,0.2146 0.415318,0.1584 0.203124,-0.0832 0.05721,-0.56213 0.273613,-0.59904 0.213737,-0.0365 0.298432,0.31467 0.45111,0.46863 0.13893,0.14009 0.256713,0.30784 0.422997,0.41403 0.238589,0.15237 0.823038,0.30076 0.794238,0.30076 h -5.389458"
       id="path19731"
       sodipodi:nodetypes="caaaasc" /><path
       style="fill:none;stroke:#00ff00;stroke-width:0.499999;stroke-linecap:round;stroke-linejoin:round"
       d="m -80.036264,120.63525 h 4.745004"
       id="path19733"
       sodipodi:nodetypes="cc" /></g></svg>
