<?xml version="1.0" encoding="UTF-8" standalone="no"?>
<!-- Created with Inkscape (http://www.inkscape.org/) -->

<svg
   sodipodi:docname="2_color.svg"
   inkscape:version="1.3 (0e150ed6c4, 2023-07-21)"
   id="svg5"
   version="1.1"
   viewBox="0 0 15.827723 7.4858293"
   height="7.4858294mm"
   width="15.827723mm"
   xml:space="preserve"
   xmlns:inkscape="http://www.inkscape.org/namespaces/inkscape"
   xmlns:sodipodi="http://sodipodi.sourceforge.net/DTD/sodipodi-0.dtd"
   xmlns="http://www.w3.org/2000/svg"
   xmlns:svg="http://www.w3.org/2000/svg"><sodipodi:namedview
     id="namedview7"
     pagecolor="#ffffff"
     bordercolor="#666666"
     borderopacity="1.0"
     inkscape:pageshadow="2"
     inkscape:pageopacity="0"
     inkscape:pagecheckerboard="false"
     inkscape:document-units="mm"
     showgrid="false"
     inkscape:zoom="31.855511"
     inkscape:cx="34.483829"
     inkscape:cy="15.460433"
     inkscape:window-width="1920"
     inkscape:window-height="1080"
     inkscape:window-x="0"
     inkscape:window-y="0"
     inkscape:window-maximized="1"
     inkscape:current-layer="layer1"
     inkscape:showpageshadow="2"
     inkscape:deskcolor="#ffffff" /><defs
     id="defs2"><clipPath
       clipPathUnits="userSpaceOnUse"
       id="clipPath4244"><path
         d="m -89.348846,133.47717 17.321,10 17.32,-10 v -20 l -17.32,-10 -17.321,10 v 20"
         class="s1"
         id="path4246"
         style="fill:none;fill-opacity:1;stroke:#000000;stroke-width:0.0999998;stroke-linecap:round;stroke-linejoin:round;stroke-dasharray:none" /></clipPath></defs><g
     inkscape:label="Layer 1"
     inkscape:groupmode="layer"
     id="layer1"
     transform="translate(83.920954,-114.1964)"><path
       style="fill:#ffffff;stroke:none;stroke-width:0.2;stroke-linecap:round;stroke-linejoin:round;stroke-dasharray:none;stroke-opacity:1"
       d="m -78.218698,121.56097 c -1.06915,-0.0634 -2.131739,-0.21034 -3.198533,-0.3055 -0.753865,-0.0672 -1.697572,0.31574 -2.262811,-0.18759 -0.221916,-0.19761 -0.313775,-0.61079 -0.175757,-0.87394 0.187214,-0.35695 0.776458,-0.25268 1.110777,-0.47783 0.375227,-0.2527 0.563817,-0.74582 0.965652,-0.95362 0.482443,-0.24949 1.180609,0.0554 1.604406,-0.28431 0.445577,-0.35715 0.309393,-1.12978 0.658946,-1.58134 0.426607,-0.5511 1.117201,-0.83364 1.666806,-1.26217 0.602625,-0.46987 1.025332,-1.38405 1.787787,-1.43499 0.933413,-0.0624 1.753071,0.77701 2.402902,1.44996 0.350077,0.36253 0.378801,0.96488 0.735403,1.321 0.599472,0.59866 1.558056,0.70746 2.22237,1.23324 0.559192,0.44258 0.851474,1.17953 1.440033,1.58223 0.248377,0.16995 0.649375,0.0937 0.842508,0.32455 0.246371,0.29443 0.461528,0.83413 0.218001,1.13092 -0.726964,0.88596 -2.295279,-0.0655 -3.438052,0.0209 -0.89644,0.0678 -1.771391,0.33486 -2.66873,0.38951 -1.301844,0.0793 -2.609741,-0.0138 -3.911708,-0.091 z"
       id="path6012"
       sodipodi:nodetypes="aaaaaaaaaaaaaaaaaaa" /><g
       id="g6193"><path
         style="fill:#f2f2f2;fill-opacity:1;stroke:none;stroke-width:0.2;stroke-linecap:round;stroke-linejoin:round;stroke-dasharray:none;stroke-opacity:1"
         d="m -80.070699,120.99669 c -0.803905,-0.0163 -1.612876,0.10121 -2.41217,0.0137 -0.358299,-0.0392 -0.900089,0.0858 -1.054358,-0.23996 -0.09236,-0.19502 0.117836,-0.44772 0.28882,-0.57936 0.23338,-0.17968 0.570775,-0.18106 0.8653,-0.1789 0.374489,0.003 0.723915,0.20853 1.096767,0.24362 0.941155,0.0886 1.932276,0.19426 2.834591,-0.0876 0.504733,-0.15767 0.891819,-0.56858 1.331556,-0.86226 0.474147,-0.31666 0.849221,-0.8609 1.408846,-0.97002 0.448962,-0.0875 1.040557,-0.0494 1.339821,0.29657 0.259591,0.30008 0.236839,0.81961 0.08731,1.18713 -0.118328,0.29084 -0.421079,0.49095 -0.705317,0.62435 -1.199489,0.56296 -2.605481,0.53525 -3.928618,0.60601 -0.384044,0.0205 -0.768034,-0.0455 -1.152548,-0.0533 z"
         id="path6096"
         sodipodi:nodetypes="aaaaaaaaaaaaaa" /><path
         style="fill:#f2f2f2;fill-opacity:1;stroke:none;stroke-width:0.2;stroke-linecap:round;stroke-linejoin:round;stroke-dasharray:none;stroke-opacity:1"
         d="m -74.260361,117.50318 c -0.519001,0.21809 -1.253706,0.11128 -1.667001,-0.27097 -0.142405,-0.13171 0.03273,-0.47301 -0.137849,-0.56536 -0.395448,-0.2141 -0.827099,0.38482 -1.272206,0.44885 -0.380425,0.0547 -0.978095,0.28146 -1.151374,-0.0616 -0.177721,-0.35186 0.316964,-0.77701 0.649979,-0.98794 0.214053,-0.13558 0.538847,0.0296 0.75266,-0.10632 0.388802,-0.24723 0.330659,-0.9794 0.755626,-1.15742 0.436364,-0.18279 0.990046,0.03 1.391293,0.28062 0.577503,0.36076 1.227963,0.94162 1.241247,1.62241 0.0063,0.32528 -0.262435,0.67169 -0.562375,0.79773 z"
         id="path6181"
         sodipodi:nodetypes="aaaaaaaaaaa" /><path
         style="fill:#f2f2f2;fill-opacity:1;stroke:none;stroke-width:0.2;stroke-linecap:round;stroke-linejoin:round;stroke-dasharray:none;stroke-opacity:1"
         d="m -71.806178,120.85075 c -0.243028,-0.0664 -0.520016,-0.13899 -0.676977,-0.33605 -0.232785,-0.29225 -0.263042,-0.71641 -0.2612,-1.09004 0.0013,-0.26979 0.01235,-0.5879 0.196361,-0.7852 0.198532,-0.21287 0.54197,-0.30988 0.830354,-0.27033 0.599836,0.0823 1.02584,0.64563 1.511954,1.00655 0.357677,0.26556 0.699499,0.55281 1.030762,0.85067 0.18905,0.16999 0.552023,0.2794 0.545031,0.53354 -0.0041,0.15016 -0.196458,0.24929 -0.338877,0.29706 -0.899079,0.30154 -1.922626,0.0437 -2.837408,-0.2062 z"
         id="path6183"
         sodipodi:nodetypes="aaaaaaaaaa" /><path
         style="fill:#f2f2f2;fill-opacity:1;stroke:none;stroke-width:0.2;stroke-linecap:round;stroke-linejoin:round;stroke-dasharray:none;stroke-opacity:1"
         d="m -80.443267,119.33211 c 0.113563,0.34203 0.742764,0.14623 1.080956,0.0217 0.262613,-0.0967 0.46715,-0.32818 0.628013,-0.55718 0.148434,-0.2113 0.328403,-0.46461 0.287108,-0.71952 -0.04119,-0.25428 -0.241549,-0.61068 -0.498365,-0.59063 -0.262634,0.0205 -0.271237,0.4517 -0.409716,0.6758 -0.131261,0.21242 -0.231585,0.44879 -0.399177,0.63389 -0.195256,0.21566 -0.78049,0.25984 -0.688819,0.53594 z"
         id="path6185"
         sodipodi:nodetypes="aaaaaaaa" /></g><path
       style="fill:#e5e5e5;fill-opacity:1;stroke:none;stroke-width:0.2;stroke-linecap:round;stroke-linejoin:round;stroke-dasharray:none;stroke-opacity:1"
       d="m -77.198802,121.03334 c -0.15055,-0.26871 0.321544,-0.53776 0.554718,-0.73901 0.350273,-0.30232 0.782025,-0.51292 1.220022,-0.66207 0.33419,-0.1138 0.692689,-0.16449 1.045708,-0.16794 0.403627,-0.004 0.830274,0.005 1.199143,0.1686 0.572297,0.2543 1.636799,0.61057 1.441054,1.20545 -0.12626,0.3837 -0.806306,0.0507 -1.209597,0.0737 -0.515078,0.0294 -1.030106,0.1039 -1.545563,0.0822 -0.313391,-0.0132 -0.618543,-0.12216 -0.932141,-0.12889 -0.593626,-0.0127 -1.483125,0.68605 -1.773344,0.16805 z"
       id="path6187"
       sodipodi:nodetypes="aaaaaaaaaa" /><path
       style="fill:none;stroke:#000000;stroke-width:0.1;stroke-linecap:round;stroke-linejoin:round;stroke-dasharray:none"
       d="m -80.849598,120.59285 h -2.41667 c 0,0 0.695572,-0.13911 0.987338,-0.32623 0.15882,-0.10185 0.226127,-0.31352 0.38558,-0.41438 0.149957,-0.0948 0.335697,-0.20508 0.507486,-0.16067 0.142797,0.0369 0.304246,0.32128 0.304246,0.32128"
       id="path19709"
       sodipodi:nodetypes="ccaaac" /><path
       style="fill:none;stroke:#000000;stroke-width:0.1;stroke-linecap:round;stroke-linejoin:round;stroke-dasharray:none"
       d="m -80.225857,120.12872 c 0,0 -0.292394,-0.1974 -0.261052,-0.33562 0.0368,-0.1623 0.280431,-0.23371 0.446528,-0.22333 0.245014,0.0153 0.368035,0.38715 0.612566,0.40885 0.160469,0.0142 0.373674,-0.0479 0.442951,-0.19332 0.09802,-0.2058 -0.199739,-0.43173 -0.182564,-0.65903 0.01168,-0.15455 0.05351,-0.35102 0.19005,-0.42435 0.110016,-0.0591 0.277285,-0.0229 0.369602,0.0612 0.149549,0.13623 0.154376,0.58692 0.154376,0.58692"
       id="path19711"
       sodipodi:nodetypes="caaaaaaac" /><path
       style="fill:none;stroke:#000000;stroke-width:0.1;stroke-linecap:round;stroke-linejoin:round;stroke-dasharray:none"
       d="m -77.111656,119.05169 c 0,0 -0.4459,0.25014 -0.604878,0.11985 -0.119351,-0.0978 0.06573,-0.32378 -9.79e-4,-0.46293 -0.12112,-0.25265 -0.410812,-0.38897 -0.654193,-0.52778 -0.115404,-0.0658 -0.29429,-0.0328 -0.373323,-0.13958 -0.135898,-0.18363 -0.123683,-0.47073 -0.04194,-0.68405 0.02569,-0.0671 0.153488,-0.15114 0.153488,-0.15114"
       id="path19713"
       sodipodi:nodetypes="caaaaac" /><path
       style="fill:none;stroke:#000000;stroke-width:0.1;stroke-linecap:round;stroke-linejoin:round;stroke-dasharray:none"
       d="m -78.117824,117.61421 c 0,0 0.294214,-0.11406 0.415512,-0.0455 0.130416,0.0737 0.284338,0.29282 0.188509,0.40797"
       id="path19715"
       sodipodi:nodetypes="cac" /><path
       style="fill:none;stroke:#000000;stroke-width:0.1;stroke-linecap:round;stroke-linejoin:round;stroke-dasharray:none"
       d="m -77.325509,116.99252 c 0,0 -0.304131,0.066 -0.451973,0.0348 -0.127225,-0.0269 -0.278169,-0.0723 -0.343614,-0.18467 -0.06173,-0.10599 -0.06869,-0.27248 0.0084,-0.36788 0.09908,-0.12262 0.303559,-0.0904 0.460005,-0.10982 0.15959,-0.0198 0.323241,0.017 0.4824,-0.006 0.16625,-0.024 0.385412,-10e-4 0.485051,-0.13665 0.105531,-0.14323 -0.03116,-0.35647 -0.01399,-0.53355 0.0165,-0.17021 0.0043,-0.36764 0.111719,-0.5007 0.106859,-0.13237 0.295195,-0.18871 0.463472,-0.21368 0.191648,-0.0284 0.575763,0.0796 0.575763,0.0796"
       id="path19719"
       sodipodi:nodetypes="caaaaaaaaac" /><path
       style="fill:none;stroke:#000000;stroke-width:0.1;stroke-linecap:round;stroke-linejoin:round;stroke-dasharray:none"
       d="m -76.110278,115.95702 c 0.342461,0.0516 -0.08245,-0.57082 0.290706,-0.45412"
       id="path19721"
       sodipodi:nodetypes="caac" /><path
       style="fill:none;stroke:#000000;stroke-width:0.1;stroke-linecap:round;stroke-linejoin:round;stroke-dasharray:none"
       d="m -75.291325,115.64277 c 0,0 0.169341,-0.075 0.223058,-0.14566 0.06455,-0.085 -0.0086,-0.28802 0.09674,-0.30516 0.306012,-0.0498 0.415999,0.47107 0.547754,0.75172 0.118202,0.25178 0.235197,0.53238 0.204935,0.80888 -0.01856,0.16959 -0.06756,0.40519 -0.230041,0.4572 -0.09965,0.0319 -0.186304,-0.0954 -0.277682,-0.14638 -0.08437,-0.0471 -0.153136,-0.14379 -0.249684,-0.14715 -0.139082,-0.005 -0.243167,0.23519 -0.373532,0.18649 -0.127056,-0.0475 -0.155702,-0.37593 -0.155702,-0.37593"
       id="path19723"
       sodipodi:nodetypes="caaaaaaaac" /><path
       style="fill:none;stroke:#000000;stroke-width:0.1;stroke-linecap:round;stroke-linejoin:round;stroke-dasharray:none"
       d="m -75.141923,117.69644 c 0,0 -0.01346,0.3024 0.09657,0.36037 0.207898,0.10953 0.431245,-0.26048 0.664797,-0.23455 0.106311,0.0118 0.164955,0.16613 0.271828,0.17053 0.295149,0.0122 0.491845,-0.39299 0.786881,-0.40763 0.207864,-0.0103 0.489373,0.0436 0.580098,0.23089 0.12194,0.25175 -0.04308,0.60536 -0.239857,0.80417 -0.235606,0.23805 -0.722842,0.0605 -0.959856,0.29711 -0.09587,0.0957 -0.161222,0.25876 -0.120773,0.38805 0.06794,0.21715 0.312296,0.39212 0.538115,0.41993 0.170008,0.0209 0.469728,-0.20839 0.469728,-0.20839"
       id="path19725"
       sodipodi:nodetypes="caaaaaaaaac" /><path
       style="fill:none;stroke:#000000;stroke-width:0.1;stroke-linecap:round;stroke-linejoin:round;stroke-dasharray:none"
       d="m -76.908752,120.00498 c 0,0 0.414784,0.0113 0.524579,-0.13169 0.102703,-0.13376 -0.09795,-0.3634 -0.0077,-0.50586 0.08305,-0.13109 0.301384,-0.0972 0.423911,-0.19245 0.121133,-0.0941 0.143311,-0.30762 0.287814,-0.35916 0.23226,-0.0828 0.563337,-0.0332 0.723501,0.15427 0.177586,0.20789 0.169857,0.57655 0.04361,0.81907 -0.0785,0.15079 -0.267575,0.31022 -0.432716,0.26989 -0.142316,-0.0348 -0.223711,-0.3783 -0.223711,-0.3783"
       id="path19727"
       sodipodi:nodetypes="caaaaaaac" /><path
       style="fill:none;stroke:#000000;stroke-width:0.1;stroke-linecap:round;stroke-linejoin:round;stroke-dasharray:none"
       d="m -72.529626,119.08322 c 0,0 0.17838,-0.16966 0.291585,-0.1748 0.146294,-0.007 0.316727,0.0675 0.395739,0.1908 0.07322,0.11425 0.09082,0.29998 0.0074,0.40704 -0.07232,0.0928 -0.245549,0.0154 -0.343848,0.0801 -0.07205,0.0474 -0.153588,0.20829 -0.153588,0.20829"
       id="path19729"
       sodipodi:nodetypes="caaaac" /><path
       style="fill:none;stroke:#000000;stroke-width:0.1;stroke-linecap:round;stroke-linejoin:round;stroke-dasharray:none"
       d="m -71.32411,119.87566 c 0,0 0.27822,0.2146 0.415318,0.1584 0.203124,-0.0832 0.05721,-0.56213 0.273613,-0.59904 0.213737,-0.0365 0.298432,0.31467 0.45111,0.46863 0.13893,0.14009 0.256713,0.30784 0.422997,0.41403 0.238589,0.15237 0.823038,0.30076 0.794238,0.30076 h -5.389458"
       id="path19731"
       sodipodi:nodetypes="caaaasc" /><path
       style="fill:none;stroke:#000000;stroke-width:0.1;stroke-linecap:round;stroke-linejoin:round;stroke-dasharray:none"
       d="m -80.036264,120.63525 h 4.745004"
       id="path19733"
       sodipodi:nodetypes="cc" /></g></svg>
